<svg width="96" height="96" viewBox="0 0 96 96" fill="none" xmlns="http://www.w3.org/2000/svg">
<g clip-path="url(#clip0_2291_5401)">
<rect width="96" height="96" rx="48" fill="#8B47F4"/>
<mask id="mask0_2291_5401" style="mask-type:alpha" maskUnits="userSpaceOnUse" x="0" y="0" width="96" height="96">
<circle cx="48" cy="48" r="48" fill="#8B47F4"/>
</mask>
<g mask="url(#mask0_2291_5401)">
<circle cx="-50.5034" cy="-1.92773" r="133.538" fill="url(#paint0_radial_2291_5401)"/>
<circle cx="159.091" cy="189.468" r="189.216" fill="url(#paint1_radial_2291_5401)"/>
</g>
<g clip-path="url(#clip1_2291_5401)">
<path d="M37.8603 16.1832C37.8108 16.1757 37.7597 16.1723 37.707 16.174C36.9245 16.2042 36.2811 16.8811 36.333 17.6778C36.3623 18.1235 36.5751 18.5457 36.9672 18.7803C37.299 18.9789 37.7086 19.0241 38.0823 18.9319C38.8438 18.7434 39.297 17.9794 39.1312 17.2229C38.998 16.6147 38.4543 16.2017 37.8603 16.1824V16.1832Z" fill="#1E1E22"/>
<path d="M79.4401 41.2199C79.1544 40.9451 78.7247 40.8454 78.346 40.966C77.974 41.0842 77.654 41.3883 77.561 41.7745C77.396 42.4656 77.9388 43.1752 78.6576 43.166C78.9752 43.1618 79.2608 43.0102 79.4477 42.7806C79.5892 42.6508 79.694 42.4799 79.735 42.2822C79.8146 41.9027 79.7258 41.4955 79.4393 41.2199H79.4401Z" fill="#1E1E22"/>
<path d="M52.1597 75.3188C51.7023 75.2183 51.2315 75.4102 50.9868 75.8131C50.8168 76.0929 50.7657 76.4657 50.8679 76.7782C50.9743 77.1016 51.2122 77.358 51.523 77.4593C51.9034 77.6512 52.3868 77.5708 52.7143 77.2868C53.0394 77.0053 53.165 76.5395 53.036 76.1298C52.9112 75.7335 52.5669 75.4076 52.1589 75.318L52.1597 75.3188Z" fill="#1E1E22"/>
<path d="M8.87741 43.2398C8.34207 43.3906 8.0011 43.8664 7.97848 44.4143C7.95418 45.0116 8.40323 45.6483 9.04999 45.6123C9.04663 45.6123 9.04245 45.6115 9.03909 45.6107C9.13209 45.6157 9.22173 45.6107 9.31137 45.5939C9.56521 45.5981 9.78303 45.5017 9.98158 45.3258C10.3267 45.02 10.4231 44.4914 10.289 44.0641C10.1064 43.481 9.49149 43.0663 8.87741 43.2398Z" fill="#1E1E22"/>
<path d="M67.1083 62.7514C67.1133 62.7514 67.1133 62.7439 67.1083 62.7439C67.1032 62.7439 67.1032 62.7514 67.1083 62.7514Z" fill="#1E1E22"/>
<path d="M71.0804 59.4019C71.0804 59.4019 67.163 51.7774 69.4023 50.6673C71.6417 49.5573 74.3971 56.99 74.3971 56.99C74.3971 56.99 79.1799 48.9675 81.4821 49.8932C83.7843 50.819 79.3374 58.3254 79.3374 58.3254C79.3374 58.3254 90.5845 55.4376 91.5529 58.7585C92.5214 62.0786 81.3246 63.7189 81.3246 63.7189C81.3246 63.7189 88.2588 71.7364 85.9114 73.2628C83.564 74.7892 77.7289 67.1881 77.7289 67.1881C77.7289 67.1881 77.1098 82.774 72.7199 81.7938C68.33 80.8136 69.7542 69.8196 71.9274 66.4224C71.9274 66.4224 62.6843 71.8704 60.9811 67.4478C59.2779 63.0252 67.4277 59.7864 71.0804 59.4027V59.4019Z" fill="white"/>
<path d="M76.6172 66.3228C76.0492 66.6336 74.914 73.8183 73.7788 77.5648C73.1907 79.5059 72.0471 80.3344 71.082 80.683C71.5018 81.2484 72.0413 81.6405 72.7207 81.7922C77.1106 82.7724 77.7297 67.1865 77.7297 67.1865C77.7297 67.1865 77.7339 67.1924 77.7406 67.1999C77.3402 66.4685 76.9054 66.1653 76.618 66.3219L76.6172 66.3228Z" fill="#DCDCDC"/>
<path d="M80.4259 64.6743C80.7099 66.1546 84.1632 70.578 84.66 71.5239C84.9766 72.1271 84.7638 72.8551 84.1942 73.2304C84.8543 73.5085 85.45 73.5622 85.9116 73.2622C88.259 71.7358 81.3248 63.7184 81.3248 63.7184C81.3248 63.7184 80.1419 63.1939 80.4259 64.6743Z" fill="#DCDCDC"/>
<path d="M91.5529 58.7571C90.5844 55.437 79.3373 58.3239 79.3373 58.3239C79.3373 58.3239 78.8171 58.7261 79.1715 59.8143C79.5267 60.9026 84.8013 60.0037 87.4746 59.5781C89.4769 59.2589 90.7754 59.4407 90.6648 60.7116C91.3861 60.1419 91.7665 59.4901 91.5529 58.7571Z" fill="#DCDCDC"/>
<path d="M75.624 58.1111C77.0909 57.5674 80.3783 53.5461 80.9229 52.7653C81.2077 52.3565 81.6936 51.8379 82.1159 51.6268C82.2156 50.7798 82.0648 50.1263 81.4833 49.8918C79.1812 48.966 74.3983 56.9885 74.3983 56.9885C74.3983 56.9885 74.1587 58.6548 75.6248 58.1111H75.624Z" fill="#DCDCDC"/>
<path d="M71.052 59.4055C71.7113 59.6769 72.3279 59.8043 72.5013 59.5077C72.9035 58.8216 71.2237 53.996 70.68 52.6481C70.3918 51.9351 70.6876 51.4224 71.0294 51.0973C70.4873 50.619 69.9311 50.4062 69.4033 50.6676C67.1639 51.7785 71.0813 59.4022 71.0813 59.4022C71.0721 59.403 71.062 59.4047 71.052 59.4055Z" fill="#DCDCDC"/>
<path d="M72.8976 64.0006C72.0397 64.1413 64.6715 66.6035 62.5905 65.9199C61.8416 65.6736 61.3942 65.2178 61.1269 64.7344C60.7081 65.5705 60.61 66.4804 60.982 67.4463C62.6852 71.8689 71.9283 66.4209 71.9283 66.4209C73.0342 65.3393 73.7555 63.8598 72.8976 64.0006Z" fill="#DCDCDC"/>
<path d="M91.976 59.1799C91.9844 58.1637 91.1801 57.4759 90.2912 57.1868C87.5811 56.3139 83.156 57.0855 80.1132 57.7883C80.8018 56.5325 81.2408 55.3362 81.7493 53.9924C82.1012 52.9963 82.464 51.9591 82.3819 50.8793C82.273 49.6762 81.2324 49.2875 80.2271 49.7952C78.4485 50.7008 76.649 53.1404 75.5055 54.7774C75.1092 55.3613 74.7741 55.8037 74.4055 56.4069C74.1675 55.8162 73.9883 55.2943 73.7135 54.7213C72.9486 53.1228 71.7833 50.5291 70.2661 50.1621C69.8581 50.0675 69.0915 50.0591 68.7112 50.6112C67.9463 51.7229 68.6726 54.1432 69.0479 55.3127C69.5221 56.6951 69.7659 57.5094 70.4202 58.8138C70.4202 58.8138 70.5651 59.0969 70.5651 59.0978C70.5743 59.1363 70.3431 59.1405 70.2862 59.1514C69.7994 59.2008 69.7156 59.2042 69.2373 59.3055C66.605 59.8987 63.8186 61.1503 61.8448 63.0428C61.007 63.8622 60.3787 65.1423 60.4114 66.3679C60.4348 67.6388 61.1293 68.8829 62.3676 69.3186C64.6706 70.1605 68.1968 68.8511 70.7486 67.6053C70.4043 68.4381 70.1605 69.3035 69.9385 70.184C69.3026 72.9687 68.9826 75.8934 69.595 78.7175C69.9686 80.4056 70.9723 82.2185 72.8933 82.433C74.5236 82.5913 75.5716 81.0105 76.1296 79.7002C76.7043 78.369 77.0495 76.985 77.3326 75.58C77.7431 73.5024 77.9827 71.4155 78.1453 69.3119C78.1629 69.0739 78.1796 68.836 78.1947 68.5989C79.954 70.6674 82.6625 73.5057 84.7494 73.9053C85.2387 74.0059 85.8578 73.9229 86.27 73.5878C86.8438 73.1706 86.9452 72.3488 86.817 71.7179C86.3487 69.3579 83.8563 66.1149 82.1171 64.0096C82.9155 63.8664 83.7022 63.7022 84.4914 63.517C86.5012 63.016 91.9358 61.7091 91.9743 59.179L91.976 59.1799ZM81.2634 63.2992C81.1889 63.3109 81.1152 63.3419 81.0532 63.3947C80.873 63.5463 80.8521 63.8161 81.0054 63.9945C82.6985 66.0596 84.4076 68.2429 85.5168 70.6783C85.686 71.077 85.8301 71.4859 85.8938 71.8754C85.9365 72.1494 85.9457 72.3907 85.8544 72.6227C85.4623 73.3373 84.3959 72.8271 83.8228 72.4912C82.3349 71.5763 81.0632 70.2376 79.882 68.9349C79.582 68.5981 79.2888 68.2554 79.0006 67.9086C78.7141 67.5626 78.4268 67.2074 78.1587 66.858C78.0657 66.7374 77.9207 66.6553 77.7565 66.6469C77.4549 66.631 77.1986 66.8656 77.1869 67.1672C77.1131 68.5327 76.985 69.9184 76.8216 71.2798C76.5988 73.1756 75.4644 81.7603 72.8321 81.1948C72.249 81.0624 71.7925 80.6754 71.4624 80.1719C69.7156 77.3729 70.5015 71.5219 71.5512 68.4883C71.7732 67.8525 72.0312 67.2292 72.3655 66.688C72.6395 66.2423 72.1276 65.7086 71.6676 65.9817C69.5305 67.2216 64.2408 69.8774 62.0115 68.2563C61.6261 67.9639 61.3782 67.5425 61.2315 67.0758C60.9936 66.3545 61.0665 65.5846 61.3999 64.8918C62.5561 62.6156 65.5704 61.1662 67.8901 60.2983C68.6684 60.0193 69.4626 59.7789 70.2719 59.6055C70.5559 59.5334 70.8517 59.52 71.1323 59.432C71.1373 59.4212 71.1398 59.4036 71.1365 59.3885C71.1306 59.3692 71.129 59.3709 71.129 59.37L71.1248 59.3625L71.1172 59.3466C70.9597 59.0282 70.798 58.6839 70.6523 58.3605C70.1907 57.3359 69.7676 56.2904 69.4199 55.2223C69.0932 54.1642 68.7715 53.065 68.8368 51.9533C68.8728 51.2303 69.2901 50.55 70.0926 50.7125C70.7938 50.9052 71.2806 51.5201 71.7112 52.0789C72.3697 52.9812 72.8874 53.9782 73.3608 54.9894C73.6741 55.6663 73.9673 56.3583 74.227 57.0545C74.2404 57.0905 74.2664 57.1232 74.3016 57.1449C74.387 57.1977 74.4993 57.1701 74.5512 57.0838C74.9777 56.3901 75.4309 55.7048 75.8984 55.0346C76.8342 53.7067 77.8261 52.3906 78.9998 51.2697C79.5536 50.7653 80.2079 50.194 80.9434 50.0716C81.5248 49.9954 81.844 50.4042 81.8775 50.9337C81.9915 52.9284 80.0939 56.3976 79.0777 58.1729C78.9412 58.3924 79.1565 58.6889 79.4111 58.6177C82.2654 57.9592 87.3088 56.9606 90.0542 57.8579C90.8978 58.131 91.5764 58.8582 91.0737 59.7353C90.5685 60.5144 89.5875 60.9903 88.7305 61.3732C87.3121 61.9772 85.8159 62.381 84.3096 62.7262C83.3017 62.9524 82.2763 63.1492 81.2626 63.3009L81.2634 63.2992Z" fill="#1E1E22"/>
<path d="M65.8063 62.9583C64.7691 63.3838 63.6926 63.8949 62.89 64.6958C62.7057 64.8801 62.9386 65.1532 63.1589 65.0443C64.1098 64.5726 64.9961 64.0113 65.9914 63.6285C66.4078 63.4685 66.2176 62.789 65.8063 62.9583Z" fill="#DCDCDC"/>
<path d="M68.11 61.8398C67.7925 61.963 67.48 62.1012 67.1659 62.2319C66.8492 62.3634 66.9581 62.8527 67.3117 62.7622C67.6392 62.6784 67.9693 62.6014 68.2944 62.51C68.7317 62.3877 68.5206 61.6798 68.1092 61.8398H68.11Z" fill="#DCDCDC"/>
<path d="M72.6923 72.7006C72.6764 72.4777 72.3362 72.3261 72.224 72.5741C71.9064 73.2736 71.7925 74.0904 71.6107 74.8344C71.4616 75.4476 72.4024 75.6009 72.4786 74.9517C72.5641 74.2211 72.7451 73.4361 72.6923 72.7006Z" fill="#DCDCDC"/>
<path d="M65.8121 62.5627C64.775 62.9883 63.6984 63.4994 62.8958 64.3003C62.7115 64.4846 62.9444 64.7577 63.1648 64.6488C64.1156 64.1771 65.002 63.6158 65.9973 63.233C66.4136 63.073 66.2235 62.3935 65.8121 62.5627Z" fill="#1E1E22"/>
<path d="M68.1159 61.4436C67.7984 61.5667 67.4859 61.705 67.1717 61.8357C66.8551 61.9672 66.964 62.4565 67.3175 62.366C67.6451 62.2822 67.9752 62.2051 68.3002 62.1138C68.7375 61.9915 68.5264 61.2836 68.1151 61.4436H68.1159Z" fill="#1E1E22"/>
<path d="M72.3671 72.4174C72.3512 72.1945 72.011 72.0429 71.8988 72.2909C71.5813 72.9904 71.4673 73.8072 71.2855 74.5512C71.1364 75.1644 72.0772 75.3177 72.1535 74.6685C72.2389 73.9379 72.4199 73.1529 72.3671 72.4174Z" fill="#1E1E22"/>
<path d="M17.0651 53.0802C17.4153 52.9344 17.7663 52.7903 18.1173 52.6462C18.491 52.4929 18.9048 52.3815 19.1981 52.095C19.4754 51.8235 19.2651 51.3376 18.8839 51.336C18.4642 51.3334 18.0746 51.5563 17.6934 51.7146C17.3524 51.8571 17.0123 52.0011 16.6722 52.1469C15.9249 52.4661 15.1801 52.792 14.4387 53.1246C13.6973 53.4572 12.9609 53.7998 12.2303 54.1551C11.5886 54.4667 10.7366 54.7239 10.3169 55.3271C10.187 55.5139 10.3646 55.7351 10.5581 55.7485C11.2744 55.7954 12.0695 55.2567 12.7087 54.9736C13.4283 54.6552 14.1488 54.3377 14.8693 54.0218C15.599 53.7018 16.3312 53.3885 17.0668 53.0819L17.0651 53.0802Z" fill="#1E1E22"/>
<path d="M17.7888 56.7381C17.4143 57.0246 16.92 57.2977 16.7399 57.7501C16.693 57.8674 16.8128 58.0124 16.9334 58.004C17.4386 57.9671 17.8768 57.5398 18.2772 57.2584C18.7388 56.9333 19.2138 56.62 19.652 56.2631C19.9779 55.9975 19.5523 55.4496 19.2021 55.68C18.712 56.0034 18.2546 56.3821 17.7888 56.7389V56.7381Z" fill="#1E1E22"/>
<path d="M40.863 69.7762C40.5178 70.7765 40.3729 71.8656 40.1827 72.9036C40.0126 73.831 39.7646 74.7836 39.6582 75.7261C39.6499 75.7587 39.6432 75.7939 39.6415 75.8308C39.6373 75.9028 39.6323 75.9741 39.6281 76.0461C39.5895 76.6602 40.5463 76.7792 40.6946 76.1902C40.8278 75.6624 40.8621 75.0969 40.9392 74.5574C41.0129 74.0396 41.0866 73.5211 41.1604 73.0033C41.307 71.972 41.5106 70.9064 41.4997 69.8625C41.4955 69.4864 40.9802 69.4361 40.863 69.7762Z" fill="#1E1E22"/>
<path d="M25.514 55.9171C24.1895 56.3175 23.0384 57.4603 22.1805 58.5083C21.2883 59.5974 20.6071 60.8624 20.1581 62.1962C19.9822 62.7181 19.8322 63.2694 19.7267 63.8323C17.4412 64.3358 15.7875 66.5811 14.9581 68.7735C13.7986 71.8406 14.0575 75.4128 15.7188 78.247C16.0061 78.7371 16.7702 78.2931 16.482 77.8013C15.2488 75.6977 14.8508 73.1584 15.3133 70.7674C15.542 69.5845 15.9659 68.4468 16.5951 67.418C17.2519 66.3431 18.155 65.2591 19.3815 64.8351C19.4527 64.8108 19.5256 64.7882 19.5985 64.7673C19.5423 65.4082 19.5566 66.0507 19.6714 66.6665C19.9227 68.0103 21.0411 69.3608 22.5349 69.1815C23.8552 69.0232 24.6192 67.614 24.4156 66.3758C24.1953 65.0387 22.9177 64.0887 21.6527 63.829C21.2774 63.7519 20.9146 63.7217 20.5644 63.731C20.6465 63.3389 20.7487 62.9544 20.8618 62.5866C21.2623 61.288 21.9099 60.0925 22.7267 59.0101C23.1372 58.4647 23.6055 57.9663 24.1006 57.4971C24.5991 57.0246 25.1588 56.6275 25.6472 56.1475C25.7435 56.0528 25.6455 55.8786 25.514 55.9188V55.9171ZM22.9596 65.4559C23.7019 66.1739 23.8795 67.5261 22.9186 68.1678C22.4192 68.5012 21.7851 68.3462 21.3335 68.0053C20.8149 67.6132 20.5569 67.0058 20.4505 66.3792C20.3533 65.8111 20.3558 65.2163 20.4212 64.6249C21.3402 64.5604 22.2869 64.8067 22.9588 65.4559H22.9596Z" fill="#1E1E22"/>
<path d="M28.4346 49.1937L28.293 51.4649C28.293 51.4649 30.9897 68.5671 32.6217 68.5671C34.2537 68.5671 44.6856 60.1224 44.6856 60.1224C44.6856 60.1224 69.941 26.9115 69.0932 26.5563C68.2453 26.2011 28.4346 49.1937 28.4346 49.1937Z" fill="#DCDCDC"/>
<path d="M34.1214 56.185C34.1725 56.6927 34.2044 57.228 34.2278 57.7441C34.3451 61.194 33.6229 65.7205 32.4316 68.5195C32.5204 68.5295 32.7324 68.6485 32.7869 68.5664C33.3239 67.7621 33.3624 67.5795 33.6858 66.6621C34.4012 64.6322 34.9374 61.4956 35.141 59.3584C35.2382 58.2777 35.2976 57.2062 35.2926 56.1171C35.2457 55.302 34.0737 55.374 34.1214 56.1841V56.185Z" fill="#1E1E22"/>
<path d="M69.3691 26.3706C69.3389 26.3102 69.2065 26.2399 69.1889 26.2424C69.132 26.2256 69.0717 26.2189 69.0138 26.2265C68.9493 26.2323 68.8756 26.2533 68.8203 26.2709C68.5053 26.3773 68.2046 26.5255 67.9105 26.6655C65.8454 27.685 63.8381 28.8101 61.8241 29.9185C50.6315 36.1658 39.4523 42.6794 28.3913 49.1671C28.3226 49.9194 28.0436 50.5963 27.9766 51.3696C28.1533 52.7268 28.4574 54.213 28.6702 55.5643C29.2148 58.9271 29.9001 62.243 30.7672 65.5421C30.9473 66.2056 31.14 66.8658 31.3972 67.5235C31.62 68.0328 31.9275 68.9267 32.5952 68.977C32.8298 68.9837 33.0652 68.9024 33.2738 68.822C33.9465 68.5447 34.5254 68.1828 35.1303 67.8116C36.2931 67.0828 37.4057 66.2911 38.5157 65.4902C40.7241 63.8884 42.8788 62.2288 45.0109 60.5264C47.2955 57.6018 49.498 54.6067 51.7223 51.6343C57.1653 44.236 62.692 36.8996 67.8879 29.322C68.4014 28.532 68.9443 27.7814 69.3582 26.9235C69.421 26.7836 69.5031 26.5398 69.3691 26.3706ZM67.3199 28.9358C62.062 36.4489 56.4666 43.7275 50.9264 51.0345L44.3097 59.7573C42.222 61.4463 40.1041 63.116 37.9569 64.7287C36.6006 65.7331 35.2476 66.7334 33.8125 67.6022C33.4321 67.82 33.0451 68.0538 32.6555 68.1476C32.5273 68.0219 32.4209 67.8477 32.3321 67.6634C32.1143 67.2269 31.9459 66.7661 31.7867 66.2978C31.042 64.0543 30.5318 61.7403 30.0115 59.4331C29.4343 56.8226 28.8922 54.0086 28.4055 51.4718L28.4792 49.2207C41.1161 42.1315 54.1761 34.5807 66.9655 27.8542C67.4824 27.6029 67.9934 27.3248 68.5212 27.0977C68.4961 27.1405 68.4701 27.1832 68.445 27.2259C68.0906 27.8073 67.7078 28.372 67.3224 28.9366L67.3199 28.9358ZM69.0775 26.8808L69.0817 26.8799C69.0817 26.8799 69.08 26.8799 69.0775 26.8808Z" fill="#1E1E22"/>
<path d="M28.2917 51.4643C28.5045 51.2515 67.1089 27.7621 67.1089 27.7621L34.7492 55.9992L45.905 65.8463C46.8399 66.6723 48.2943 66.4512 48.9419 65.3847C53.4332 57.9872 68.6739 32.8868 70.7272 29.5516C73.14 25.6334 73.5421 23.5984 71.9278 23.7417C70.7172 23.8489 29.2803 36.9877 24.35 39.1164C19.4197 41.2452 18.1178 42.3594 20.1168 44.7471C22.1165 47.1347 28.29 51.4635 28.29 51.4635L28.2917 51.4643Z" fill="white"/>
<path d="M71.9303 23.7424C71.8482 23.75 71.5827 23.817 71.1579 23.9351C71.7745 25.0762 69.9121 27.3381 68.1026 29.8933C65.6889 33.3014 46.4362 61.4027 44.6618 61.3809C42.8396 61.3583 38.1088 56.5411 36.3109 54.6385L34.751 55.9999L45.864 65.8093C46.8216 66.6546 48.3111 66.4284 48.9738 65.336C53.5028 57.8765 68.6806 32.88 70.7298 29.5524C73.1426 25.6341 73.5447 23.5992 71.9303 23.7424Z" fill="#DCDCDC"/>
<path d="M48.8125 35.4444C37.6827 40.9502 27.1101 48.295 23.0419 45.6141C20.7983 44.1354 19.9505 42.7674 19.5953 41.8877C18.9527 42.7146 19.1395 43.5783 20.1189 44.7478C22.1186 47.1355 28.2921 51.4642 28.2921 51.4642C28.5049 51.2514 67.1093 27.7621 67.1093 27.7621L66.9167 27.9305C68.2403 27.0768 68.9918 26.8858 69.1057 26.6537C69.7039 25.4339 59.9422 29.9386 48.8125 35.4444Z" fill="#DCDCDC"/>
<path d="M53.5761 50.2611C54.0017 49.9201 54.3602 49.5054 54.7238 49.1007C55.0572 48.7304 55.5599 48.3367 55.6789 47.8407C55.766 47.478 55.4267 47.0499 55.0313 47.1931C54.511 47.3808 54.1784 47.9069 53.8182 48.3107C53.4579 48.7145 53.06 49.1518 52.7576 49.6302C52.4183 50.1664 53.1438 50.6071 53.5761 50.2611Z" fill="#DCDCDC"/>
<path d="M24.0309 44.5837C24.5478 44.4211 25.0295 44.1581 25.523 43.9386C25.9686 43.7409 26.6221 43.6127 26.8542 43.1469C26.9932 42.8679 26.8726 42.5672 26.5769 42.4658C26.0801 42.2957 25.5246 42.6719 25.0831 42.8788C24.5914 43.11 24.0761 43.3304 23.6413 43.6613C23.2065 43.9922 23.4361 44.7705 24.03 44.5837H24.0309Z" fill="#DCDCDC"/>
<path d="M24.0307 43.8263C24.5476 43.6638 25.0293 43.4008 25.5227 43.1813C25.9684 42.9835 26.6219 42.8554 26.854 42.3896C26.993 42.1106 26.8724 41.8098 26.5767 41.7085C26.0799 41.5384 25.5244 41.9146 25.0829 42.1215C24.5911 42.3527 24.0759 42.573 23.6411 42.904C23.2222 43.2223 23.4359 44.0132 24.0298 43.8263H24.0307Z" fill="#1E1E22"/>
<path d="M53.3632 49.4517C53.7888 49.1108 54.1473 48.6961 54.5109 48.2914C54.8443 47.9211 55.347 47.5274 55.466 47.0314C55.5531 46.6687 55.2138 46.2406 54.8184 46.3838C54.2981 46.5715 53.9655 47.0976 53.6053 47.5014C53.245 47.9052 52.8471 48.3425 52.5447 48.8209C52.2054 49.3571 52.9309 49.7977 53.3632 49.4517Z" fill="#1E1E22"/>
<path d="M55.1861 50.4203C54.0065 52.1185 52.7356 53.7438 51.5611 55.4461C50.3924 57.1409 49.2153 58.5492 48.0759 60.5473C47.616 61.3532 48.4705 61.6431 48.8484 61.1069C50.0413 59.4171 51.1916 57.7332 52.3678 56.0334C53.56 54.3101 54.7479 52.5843 55.9342 50.8576C56.2517 50.396 55.5019 49.9646 55.1852 50.4203H55.1861Z" fill="#1E1E22"/>
<path d="M58.9719 45.2112C58.5572 45.4047 58.1802 45.9602 57.9163 46.3238C57.6222 46.7292 57.2369 47.061 57.1012 47.5503C56.9855 47.9658 57.4849 48.1468 57.6717 48.0286C58.0998 47.7572 58.3787 47.3182 58.6971 46.932C58.9811 46.5868 59.4302 46.0766 59.5131 45.6284C59.5734 45.3008 59.2718 45.073 58.9719 45.2129V45.2112Z" fill="#1E1E22"/>
<path d="M71.9935 23.4048C71.8477 23.4064 71.6726 23.4575 71.5344 23.4894L71.4029 23.5246C69.8505 23.9535 68.3199 24.4386 66.7859 24.9085C52.8765 29.3144 39.3968 33.375 25.6674 38.312C24.6663 38.6957 22.8952 39.4036 21.9301 39.8736C20.8527 40.4425 18.9091 41.2082 18.796 42.5821C18.7516 43.3529 19.4327 44.5953 19.8885 45.1583C21.3085 46.7743 23.2152 48.1474 24.8992 49.4652C25.9573 50.2745 28.3214 51.8705 28.3617 51.8847C39.0265 45.5663 51.004 38.0515 62.0433 31.4314C52.9393 39.3064 43.0863 47.9045 34.3819 55.5751C34.1255 55.7937 34.1238 56.2009 34.3794 56.4212C37.4489 59.0904 42.8475 63.8606 45.8761 66.4694C46.9057 67.2301 48.4472 66.9813 49.1769 65.9291C55.7358 55.1168 64.1604 41.0959 70.731 30.2393C71.4314 29.0463 75.1284 23.4148 71.9952 23.4031L71.9935 23.4048ZM72.1401 26.1702C71.7388 27.1295 71.2144 28.0602 70.6749 28.9575C70.4922 29.2633 65.9406 36.6809 65.6575 37.1525C60.9073 44.9094 53.3297 57.2925 48.6432 64.9372C48.5762 65.0469 48.4497 65.258 48.3785 65.356C48.2277 65.5739 48.0073 65.7297 47.7652 65.8285C47.3681 65.981 46.9007 65.9433 46.5429 65.7121C46.4164 65.6509 44.8389 64.2259 44.6965 64.0994C42.7964 62.413 37.9608 58.1035 35.6033 56.0057C42.9891 49.6169 52.1819 41.6137 59.4044 35.2634C59.4044 35.2634 67.3238 28.0209 67.3221 28.0225C68.4338 27.0055 67.6011 27.3104 67.0616 27.6321C54.6282 35.3329 40.6065 43.4266 28.3541 51.3284C28.3097 51.3552 28.2687 51.3753 28.2444 51.3586L28.2176 51.3393L28.1095 51.2614C27.0296 50.4831 25.9547 49.6805 24.905 48.8629C23.2454 47.5392 21.5405 46.2247 20.1507 44.6146C19.7352 44.0926 19.2995 43.4702 19.3439 42.784C19.4612 41.5525 21.3479 40.6971 22.3641 40.1727C23.3233 39.7161 24.2943 39.2771 25.2912 38.9043C38.9477 34.1047 53.1295 29.8137 66.9711 25.5168C68.5846 25.0367 70.0055 24.3908 71.6333 23.9845C72.1535 23.8546 72.3093 23.8848 72.4551 24.0138C72.8522 24.3665 72.3688 25.6081 72.1393 26.1711L72.1401 26.1702Z" fill="#1E1E22"/>
<path d="M20.7557 25.4765C20.7557 25.4765 20.5286 20.7682 22.0685 20.2756C23.6083 19.783 23.7867 24.5993 23.7867 24.5993C23.7867 24.5993 27.3925 21.9914 29.1903 22.8584C30.9882 23.7255 27.3012 26.3059 24.839 27.4444C24.839 27.4444 30.1864 29.2808 29.5305 30.9815C28.8745 32.683 24.2324 30.1906 24.2324 30.1906C24.2324 30.1906 25.5611 34.4004 23.7641 35.3395C21.9671 36.2787 21.3622 30.6271 21.3622 30.6271C21.3622 30.6271 17.821 36.1513 15.5967 34.2915C13.6732 32.683 18.5825 28.6868 18.5825 28.6868C18.5825 28.6868 13.3674 27.3489 14.309 25.0325C15.2507 22.716 20.7557 25.4765 20.7557 25.4765Z" fill="white"/>
<path d="M21.3572 30.6339C21.4762 29.9285 21.1553 29.3839 20.5798 29.7157C19.7127 30.215 18.7501 31.8311 16.7001 32.7652C15.9712 33.0969 15.5188 33.0207 15.2365 32.7869C15.0647 33.3684 15.1284 33.9012 15.5959 34.2916C17.7766 36.1146 21.2232 30.8408 21.3572 30.6339Z" fill="#DCDCDC"/>
<path d="M23.4504 30.0753C23.2209 30.4699 23.4178 32.778 23.0399 33.7556C22.8539 34.2365 22.5046 34.2901 22.1963 34.2206C22.5674 35.0986 23.0785 35.6976 23.7629 35.3399C25.5599 34.4007 24.2312 30.1909 24.2312 30.1909C24.2312 30.1909 23.8249 29.4311 23.4504 30.0753Z" fill="#DCDCDC"/>
<path d="M24.8389 27.4446C24.8389 27.4446 24.451 27.5904 24.5943 27.9682C24.7509 28.3812 27.2659 29.9395 27.7392 30.3491C28.0626 30.6289 27.9068 31.1224 27.4896 31.4625C28.4329 31.6703 29.2782 31.6376 29.5304 30.9816C30.1864 29.2801 24.8389 27.4446 24.8389 27.4446Z" fill="#DCDCDC"/>
<path d="M23.764 25.4449C23.9382 25.7917 26.0301 25.124 26.8352 24.5904C27.5733 24.1011 29.1441 23.3354 29.3678 24.2377C29.7775 23.6605 29.8093 23.1578 29.1893 22.8587C27.3915 21.9916 23.7857 24.5996 23.7857 24.5996C23.7857 24.5996 23.5889 25.0972 23.764 25.4441V25.4449Z" fill="#DCDCDC"/>
<path d="M23.2381 21.2854C22.9817 20.5859 22.6089 20.1025 22.0677 20.2759C20.5279 20.7685 20.7549 25.4768 20.7549 25.4768C20.7549 25.4768 20.9736 25.8069 21.2576 25.744C21.5416 25.6812 21.808 23.405 21.9303 22.682C22.0376 22.0503 22.4673 21.0182 23.2381 21.2854Z" fill="#DCDCDC"/>
<path d="M18.791 27.2898C18.1861 27.0845 15.7691 26.4545 15.7222 25.1769C15.7013 24.6064 15.8747 24.2872 16.0741 24.1079C15.2606 24.1087 14.5854 24.35 14.3081 25.0336C13.3664 27.3501 18.5815 28.688 18.5815 28.688C19.7536 28.2565 19.3967 27.4958 18.791 27.2906V27.2898Z" fill="#DCDCDC"/>
<path d="M29.587 29.8892C29.1062 29.2333 28.4007 28.816 27.7205 28.4324C27.2698 28.1869 26.809 27.9691 26.3415 27.768C26.0475 27.6415 25.7526 27.5225 25.4543 27.4094C26.2711 26.9897 27.0536 26.5113 27.8001 25.9735C28.5021 25.4432 30.0687 24.2904 29.8375 23.2893C29.7537 22.955 29.4337 22.7347 29.133 22.63C28.296 22.3334 27.3896 22.5931 26.6062 22.8805C25.6462 23.2566 24.8042 23.7308 23.9572 24.3114C23.8986 23.4954 23.7738 22.6802 23.5786 21.8835C23.4638 21.4412 23.3188 21.0039 23.0692 20.6126C22.7751 20.1359 22.187 19.9198 21.6978 20.2574C21.3032 20.5355 21.0736 21.0876 20.9287 21.5233C20.5668 22.7665 20.4822 23.6914 20.5475 24.974C20.5492 25.0042 20.5014 25.0955 20.3431 25.0126C18.9021 24.2896 16.7248 23.5624 15.1196 24.0274C14.4728 24.2142 14.0364 24.7512 13.9459 25.4214C13.7733 27.1933 16.3084 28.2681 17.6773 28.7708C17.7368 28.7918 17.7954 28.8119 17.8541 28.832C17.5516 29.095 17.2593 29.3656 16.9736 29.6496C15.8577 30.7789 13.6317 33.1875 15.3634 34.6511C17.245 36.1021 19.4726 33.7421 20.6103 32.3573C20.7821 32.1453 20.9471 31.9326 21.1071 31.7164C21.2169 32.328 21.3576 32.9312 21.5394 33.5335C21.8016 34.3202 22.2105 35.5693 23.1563 35.7905C23.9539 35.9371 24.6316 35.2107 24.8503 34.5196C25.1711 33.5184 25.0522 32.5131 24.8871 31.5204C24.8411 31.2732 24.7908 31.0319 24.7322 30.7915C25.9034 31.3394 27.3184 31.889 28.5071 31.8672C29.6406 31.8597 30.2656 30.8418 29.5862 29.8892H29.587ZM28.4854 31.2799C28.0254 31.2908 27.5471 31.1786 27.098 31.0487C26.1664 30.7689 25.2465 30.3575 24.3862 29.9052C24.1432 29.7686 23.8357 30.0132 23.9229 30.2838C24.1725 31.1576 24.3493 32.0934 24.3602 33.0007C24.3526 33.6793 24.2974 34.4073 23.8031 34.8748C23.669 34.9854 23.4847 35.106 23.308 35.0683C22.7709 34.8874 22.461 33.8544 22.2909 33.3098C22.0396 32.4293 21.8812 31.491 21.7773 30.5829C21.7396 30.2042 21.2244 30.0735 21.015 30.3994C20.8575 30.6374 20.6807 30.8845 20.5039 31.1208C19.6704 32.2099 18.0819 34.1384 16.6703 34.2381C16.2472 34.259 15.794 34.0261 15.6248 33.6315C15.5577 33.4556 15.5586 33.2286 15.6181 32.9856C16.016 31.5447 17.6957 29.9537 18.81 28.9635C19.037 28.7884 18.9566 28.4039 18.6734 28.3394C18.4229 28.2765 18.1573 28.1978 17.9027 28.1157C17.3908 27.9498 16.8856 27.7554 16.4022 27.5234C15.577 27.1145 14.2617 26.3907 14.4862 25.305C14.8004 23.9871 16.5941 24.2703 17.6145 24.4731C18.6508 24.7001 19.6678 25.0561 20.6455 25.4717L20.6924 25.4926L20.7159 25.5027C20.7209 25.5043 20.7201 25.5052 20.7377 25.5111C20.7528 25.5152 20.7695 25.5136 20.7804 25.5111C20.7879 25.5027 20.7972 25.4876 20.7988 25.4725C20.7997 25.4541 20.7988 25.4591 20.7988 25.4532C20.7988 25.4382 20.7972 25.4072 20.7972 25.3912C20.7871 24.0977 20.8349 22.7674 21.2219 21.5266C21.3777 21.0918 21.588 20.595 22.027 20.3973C22.1552 20.337 22.3118 20.3186 22.4442 20.3663C23.2191 20.6914 23.4395 22.5093 23.545 23.2834C23.5961 23.7216 23.6322 24.1656 23.6489 24.6037C23.6498 24.6297 23.6581 24.6557 23.6741 24.6783C23.7185 24.7428 23.8081 24.7587 23.8718 24.7127C24.3133 24.4077 24.7816 24.1245 25.2566 23.8673C26.2854 23.332 27.8562 22.5755 29.0006 22.9835C29.9456 23.3094 29.2352 24.148 28.7853 24.5979C27.6225 25.7063 26.1874 26.539 24.7397 27.2226C24.5462 27.3064 24.5546 27.6038 24.759 27.6717C25.6839 28.0093 26.6079 28.4122 27.4675 28.8923C28.0824 29.25 28.7174 29.6337 29.1304 30.2034C29.5502 30.8041 29.1631 31.2858 28.487 31.2783L28.4854 31.2799Z" fill="#1E1E22"/>
<path d="M21.93 21.3421C21.7633 21.5766 21.6578 21.8765 21.5706 22.1497C21.4902 22.4018 21.4031 22.6892 21.4726 22.9514C21.507 23.0796 21.6737 23.0888 21.7415 22.9866C21.8814 22.7763 21.9158 22.5049 21.9979 22.2678C22.0884 22.0056 22.2258 21.7668 22.3288 21.5104C22.4268 21.2658 22.0632 21.1561 21.93 21.3429V21.3421Z" fill="#DCDCDC"/>
<path d="M21.7728 21.116C21.6061 21.3506 21.5005 21.6505 21.4134 21.9236C21.333 22.1758 21.2458 22.4631 21.3154 22.7253C21.3497 22.8535 21.5164 22.8627 21.5843 22.7605C21.7242 22.5502 21.7586 22.2788 21.8407 22.0417C21.9311 21.7795 22.0685 21.5407 22.1716 21.2844C22.2696 21.0397 21.906 20.93 21.7728 21.1168V21.116Z" fill="#1E1E22"/>
<path d="M27.8564 23.4467C27.5565 23.4794 27.1778 23.6093 26.9583 23.8237C26.841 23.9385 26.96 24.1538 27.1217 24.1044C27.2691 24.0592 27.4107 23.9988 27.559 23.9561C27.6956 23.9167 27.8288 23.8849 27.9595 23.8288C28.1429 23.75 28.0533 23.4258 27.8564 23.4476V23.4467Z" fill="#DCDCDC"/>
<path d="M27.7812 23.2238C27.4813 23.2565 27.1026 23.3864 26.8831 23.6008C26.7659 23.7156 26.8848 23.9309 27.0465 23.8815C27.194 23.8363 27.3355 23.7759 27.4838 23.7332C27.6204 23.6938 27.7536 23.662 27.8843 23.6059C28.0677 23.5271 27.9781 23.2029 27.7812 23.2247V23.2238Z" fill="#1E1E22"/>
<path d="M17.823 30.8048C17.5139 30.9112 17.2525 31.2279 17.0389 31.4666C16.7943 31.7398 16.6074 32.028 16.455 32.3614C16.3997 32.4837 16.5546 32.6278 16.6552 32.5122C16.8772 32.2575 17.1059 32.0045 17.3422 31.7632C17.565 31.5353 17.875 31.3569 18.0509 31.0938C18.1464 30.9506 17.9822 30.7504 17.823 30.8048Z" fill="#DCDCDC"/>
<path d="M18.8063 29.8413C18.7142 29.9301 18.622 30.0197 18.5307 30.1102C18.4486 30.1923 18.3481 30.2778 18.2961 30.3833C18.2484 30.4805 18.3305 30.5953 18.4394 30.5651C18.5533 30.5341 18.6555 30.4554 18.7535 30.3917C18.8608 30.3213 18.9672 30.2501 19.0727 30.1781C19.3308 30.0013 19.0334 29.6226 18.8063 29.8413Z" fill="#DCDCDC"/>
<path d="M17.7185 30.5394C17.4094 30.6458 17.148 30.9625 16.9344 31.2013C16.6898 31.4744 16.5029 31.7626 16.3505 32.096C16.2952 32.2183 16.4502 32.3624 16.5507 32.2468C16.7727 31.9921 17.0014 31.7391 17.2377 31.4978C17.4605 31.27 17.7705 31.0915 17.9464 30.8285C18.0419 30.6852 17.8777 30.485 17.7185 30.5394Z" fill="#1E1E22"/>
<path d="M18.7009 29.5759C18.6087 29.6647 18.5165 29.7544 18.4252 29.8448C18.3431 29.9269 18.2426 30.0124 18.1907 30.1179C18.1429 30.2151 18.225 30.3299 18.3339 30.2997C18.4478 30.2687 18.5501 30.19 18.6481 30.1263C18.7553 30.056 18.8617 29.9847 18.9673 29.9127C19.2253 29.7359 18.9279 29.3573 18.7009 29.5759Z" fill="#1E1E22"/>
<path d="M49.8902 2.72278C49.8902 2.72278 43.6371 -4.33627 45.9703 -6.09893C48.3035 -7.8616 53.9408 0.462474 53.9408 0.462474C53.9408 0.462474 57.2785 -6.48933 59.7457 -5.44883C62.213 -4.40832 58.2134 1.51639 58.2134 1.51639C58.2134 1.51639 65.7475 -4.18044 68.0958 -1.81039C70.4449 0.559655 59.7315 5.10371 59.7315 5.10371C59.7315 5.10371 66.9908 8.93986 65.3822 10.7109C63.7737 12.4819 58.6172 8.69439 58.6172 8.69439C58.6172 8.69439 60.9437 15.456 58.2662 16.453C55.5896 17.4499 54.5197 8.69439 54.5197 8.69439C54.5197 8.69439 49.7662 17.439 46.669 15.7409C43.5717 14.0435 50.7598 6.47095 50.7598 6.47095C50.7598 6.47095 42.9091 8.79241 42.8144 6.09563C42.7197 3.39886 49.8885 2.72361 49.8885 2.72361L49.8902 2.72278Z" fill="white"/>
<path d="M54.383 7.93952C54.0044 7.8214 53.0585 8.24698 52.0649 9.52542C51.0713 10.8039 48.4458 14.113 47.4178 14.3736C46.6999 14.5554 46.2852 13.7461 46.1 13.2401C45.7431 14.3359 45.806 15.2667 46.6697 15.74C49.7669 17.4373 54.5204 8.69352 54.5204 8.69352C54.5204 8.69352 54.5229 8.71697 54.5288 8.76054C54.5682 8.62733 54.7181 8.04424 54.383 7.94036V7.93952Z" fill="#DCDCDC"/>
<path d="M57.529 7.751C57.1034 8.10621 57.3162 12.6478 57.1327 14.1616C57.0398 14.9282 56.6217 15.1242 56.2305 15.1317C56.7666 16.1387 57.4394 16.7612 58.2654 16.4529C60.9421 15.456 58.6164 8.69433 58.6164 8.69433C58.6164 8.69433 57.9538 7.39662 57.5282 7.751H57.529Z" fill="#DCDCDC"/>
<path d="M59.7319 5.10376C59.1672 5.17665 59.54 5.88288 60.8411 6.80527C62.1422 7.72765 64.0347 9.14683 63.2095 10.0935C62.8442 10.5124 62.3566 10.6205 61.9269 10.6113C63.2706 11.1918 64.6722 11.4934 65.3826 10.7118C66.9912 8.94074 59.7319 5.1046 59.7319 5.1046V5.10376Z" fill="#DCDCDC"/>
<path d="M68.0963 -1.81042C65.7472 -4.18047 58.214 1.51636 58.214 1.51636L58.0808 1.62359C58.0808 1.62359 57.7909 2.26197 58.3824 2.38094C58.9738 2.49906 64.4612 -0.552092 66.0228 -0.789181C67.1061 -0.953383 67.5283 -0.308301 67.5199 0.54371C68.3887 -0.313328 68.7556 -1.14775 68.098 -1.81126L68.0963 -1.81042Z" fill="#DCDCDC"/>
<path d="M60.5477 -3.94174C60.5703 -4.63374 60.3567 -5.19086 59.7459 -5.44805C57.2787 -6.48856 53.941 0.463248 53.941 0.463248C53.941 0.463248 53.7391 1.19294 54.4605 1.09828C55.0017 1.02707 57.3407 -2.3969 58.1684 -3.34274C58.8303 -4.09924 60.0668 -4.49216 60.5477 -3.94174Z" fill="#DCDCDC"/>
<path d="M50.9026 2.18821C50.5206 1.64031 47.2633 -2.56194 46.9466 -4.31287C46.7615 -5.33495 47.5783 -5.66336 48.2896 -5.7597C47.399 -6.33441 46.5738 -6.55474 45.9706 -6.099C43.6375 -4.33633 49.8906 2.72271 49.8906 2.72271C50.1888 2.6892 51.2846 2.73528 50.9026 2.18738V2.18821Z" fill="#DCDCDC"/>
<path d="M51.2132 5.13031C50.4802 5.04067 44.9207 6.18925 43.9983 5.92954C43.5359 5.79885 43.2913 5.42185 43.1631 5.07837C42.931 5.37997 42.802 5.71759 42.8154 6.09542C42.9101 8.7922 50.7608 6.47074 50.7608 6.47074C51.3732 6.11301 51.9463 5.21995 51.2132 5.13115V5.13031Z" fill="#DCDCDC"/>
<path d="M46.5746 4.42844C46.2018 4.45525 45.8315 4.63034 45.4897 4.77528C45.1914 4.90262 44.8153 5.03917 44.6427 5.32904C44.574 5.44465 44.6662 5.55692 44.7818 5.57116C45.0985 5.61137 45.4495 5.41449 45.7419 5.30894C46.0619 5.19249 46.4205 5.12295 46.717 4.9554C46.9516 4.82303 46.8594 4.40833 46.5746 4.42844Z" fill="#DCDCDC"/>
<path d="M48.5059 11.3636C48.2537 11.6837 48.0158 12.0146 47.8256 12.3765C47.6706 12.6706 47.4511 13.0275 47.5273 13.3684C47.5491 13.4656 47.6681 13.5041 47.7493 13.4589C48.0158 13.3098 48.1456 12.9747 48.3056 12.7267C48.5084 12.4117 48.7212 12.1059 48.9557 11.8135C49.2113 11.496 48.758 11.0436 48.5059 11.3636Z" fill="#DCDCDC"/>
<path d="M50.5715 8.81003C50.1945 8.99099 49.8988 9.49281 49.6474 9.81954C49.4514 10.0751 49.035 10.4881 49.1523 10.8349C49.1657 10.8751 49.2034 10.9112 49.2487 10.9086C49.6156 10.8894 49.8678 10.3674 50.073 10.1086C50.3369 9.77598 50.739 9.45176 50.8882 9.05382C50.9611 8.86113 50.724 8.73631 50.5707 8.81003H50.5715Z" fill="#DCDCDC"/>
<path d="M48.4111 11.0411C48.159 11.3612 47.921 11.6921 47.7309 12.054C47.5759 12.3481 47.3564 12.7049 47.4326 13.0459C47.4544 13.1431 47.5734 13.1816 47.6546 13.1364C47.921 12.9873 48.0509 12.6522 48.2109 12.4042C48.4136 12.0892 48.6264 11.7834 48.861 11.491C49.1165 11.1735 48.6633 10.7211 48.4111 11.0411Z" fill="#1E1E22"/>
<path d="M50.4758 8.48752C50.0988 8.66848 49.8031 9.1703 49.5517 9.49703C49.3557 9.75255 48.9393 10.1656 49.0566 10.5124C49.07 10.5526 49.1077 10.5886 49.153 10.5861C49.5199 10.5669 49.7721 10.0449 49.9773 9.78606C50.2412 9.45347 50.6433 9.12925 50.7925 8.73131C50.8654 8.53862 50.6283 8.4138 50.4749 8.48752H50.4758Z" fill="#1E1E22"/>
<path d="M46.6693 4.12693C46.2965 4.15374 45.9262 4.32883 45.5844 4.47376C45.2862 4.6011 44.91 4.73766 44.7374 5.02753C44.6687 5.14314 44.7609 5.2554 44.8765 5.26964C45.1932 5.30986 45.5442 5.11298 45.8366 5.00742C46.1566 4.89097 46.5152 4.82144 46.8118 4.65388C47.0463 4.52152 46.9542 4.10682 46.6693 4.12693Z" fill="#1E1E22"/>
<path d="M68.5638 -1.6177C68.3075 -2.10947 67.7864 -2.43201 67.2636 -2.56019C65.8419 -2.87938 64.2552 -2.23262 62.9801 -1.65791C61.5794 -0.99272 60.2599 -0.196001 58.9915 0.684494C59.5117 -0.201866 59.9734 -1.11755 60.3353 -2.08685C60.7341 -3.1927 61.2074 -4.98637 59.8469 -5.61302C58.9262 -6.0185 57.9728 -5.40106 57.3201 -4.79703C56.7965 -4.31364 56.3517 -3.76574 55.9395 -3.20024C55.1696 -2.13125 54.4826 -1.39652 53.8928 -0.220297C52.911 -1.60429 51.8462 -3.29491 50.6859 -4.53313C49.6797 -5.5728 46.7835 -7.69404 45.4012 -6.01515C44.7343 -5.08606 45.4305 -3.55797 45.862 -2.6381C46.8413 -0.705365 47.4914 0.310011 48.8914 1.95288C48.8914 1.95288 49.3521 2.39438 49.353 2.39438C49.4133 2.46392 49.3957 2.50999 49.3211 2.52088C47.5936 2.69514 46.1778 2.96155 44.5668 3.63679C43.8974 3.93671 43.1945 4.27936 42.7689 4.91439C42.4363 5.41286 42.4983 6.35954 42.8804 6.85802C43.6637 7.80721 45.5143 7.65641 46.6202 7.57179C47.721 7.46037 48.7984 7.26098 49.8699 7.0063C48.1491 8.92563 45.8628 11.7992 45.5428 13.9941C45.4682 14.537 45.547 15.1544 45.9122 15.6077C46.4627 16.2905 47.4236 16.4982 48.2329 16.2561C50.3189 15.637 52.2089 13.0491 53.4111 11.3166C53.7102 10.8743 53.9976 10.4277 54.2757 9.97368C54.3327 10.3046 54.3938 10.6347 54.46 10.9656C54.8202 12.6202 55.6932 16.7806 57.7415 16.9489C58.2442 16.9783 58.6924 16.7739 59.0577 16.4555C60.6193 15.0112 59.7932 11.4817 59.3073 9.65533C59.3023 9.63773 59.2973 9.62014 59.2923 9.60255C60.1426 10.1454 61.0231 10.628 61.9639 11.0192C62.9433 11.397 64.1513 11.8076 65.1751 11.3041C65.563 11.0996 65.8981 10.7352 65.9483 10.277C66.1251 8.62152 62.898 6.64606 61.6388 5.84264C61.2384 5.59717 60.8354 5.36008 60.4258 5.13054C62.8528 4.01379 65.2588 2.8141 67.3298 1.10003C68.0436 0.457458 69.0715 -0.551216 68.5647 -1.61602L68.5638 -1.6177ZM67.8827 -0.308263C66.4309 1.7049 61.9505 3.7834 59.6098 4.81637C59.3752 4.91104 59.3551 5.25955 59.5838 5.37768C61.2937 6.33609 63.0346 7.38162 64.442 8.75221C64.8157 9.14931 65.5722 9.95274 65.1416 10.4604C64.8718 10.7679 64.4789 10.8441 64.0508 10.829C62.774 10.7293 61.597 10.0868 60.4903 9.46348C60.2063 9.2976 59.9264 9.12418 59.65 8.94406C59.3752 8.76478 59.0987 8.57712 58.8407 8.38862C58.746 8.31992 58.6187 8.29563 58.4989 8.335C58.2987 8.40035 58.1906 8.61817 58.2584 8.81756C58.4796 9.49615 58.6673 10.2108 58.8172 10.9128C59.0836 12.2281 59.5461 14.8311 58.4989 15.833C57.6385 16.5854 56.975 15.6404 56.5854 14.8922C56.2687 14.2765 56.0308 13.5945 55.8272 12.9042C55.4285 11.5194 55.1436 10.0692 54.9509 8.64163C54.9015 8.23196 54.3402 8.11718 54.1375 8.48664C53.9205 8.88039 53.6817 9.28084 53.443 9.67208C52.286 11.521 50.1103 14.8193 48.0184 15.4887C47.3398 15.7174 46.4392 15.425 46.3026 14.6618C45.9776 12.4744 49.5113 8.31155 50.9757 6.67622C51.1835 6.46343 50.9673 6.09648 50.675 6.18529C49.3362 6.57904 47.9497 6.89571 46.564 7.07248C45.872 7.15542 45.1708 7.20485 44.4939 7.1328C44.013 7.07332 43.5129 6.97279 43.1945 6.60836C42.9072 6.24393 42.9683 5.70608 43.2054 5.3249C43.3713 5.04927 43.6201 4.81386 43.8949 4.61279C44.4503 4.2115 45.1021 3.93085 45.7631 3.69627C47.0122 3.26482 48.3217 2.99171 49.6294 2.79986L49.761 2.78227L49.8271 2.77389L49.8598 2.7697H49.8682C49.8732 2.76803 49.8782 2.76719 49.8841 2.76635C49.9017 2.763 49.9193 2.7496 49.9277 2.73954C49.9302 2.73033 49.9293 2.71273 49.9226 2.701C49.9126 2.68676 49.9151 2.69179 49.9134 2.68844L49.9067 2.6809L49.8933 2.66498C49.8741 2.64152 49.833 2.59628 49.8121 2.57115C48.7096 1.26423 47.6716 -0.109711 46.7919 -1.57748C46.2105 -2.59202 45.3945 -4.04555 45.5612 -5.23602C45.6492 -5.87943 46.2507 -6.33434 46.8899 -6.2338C49.1837 -5.88529 52.4837 -1.36553 53.8158 0.546262C53.8761 0.638417 54.026 0.630039 54.0721 0.526993C54.6896 -0.697825 55.3958 -1.895 56.2093 -3.00002C56.908 -3.9157 58.3967 -5.81157 59.6885 -5.26115C61.2409 -4.54402 59.6399 -1.44428 59.0786 -0.372771C58.7536 0.229585 58.4 0.82524 58.023 1.39073C57.8856 1.59515 58.1412 1.84816 58.3456 1.69819C59.8636 0.595691 61.483 -0.418011 63.1862 -1.20886C64.0282 -1.59089 64.9103 -1.93018 65.8202 -2.07344C66.2675 -2.1413 66.7224 -2.15471 67.1329 -2.04915C67.5208 -1.94778 67.8894 -1.73163 68.0821 -1.37558C68.2606 -1.01618 68.0964 -0.634155 67.8811 -0.308263H67.8827Z" fill="#1E1E22"/>
</g>
</g>
<defs>
<radialGradient id="paint0_radial_2291_5401" cx="0" cy="0" r="1" gradientUnits="userSpaceOnUse" gradientTransform="translate(-50.5034 -1.92773) rotate(90) scale(133.538)">
<stop offset="0.265" stop-color="#D27C71"/>
<stop offset="1" stop-color="#D27C71" stop-opacity="0"/>
</radialGradient>
<radialGradient id="paint1_radial_2291_5401" cx="0" cy="0" r="1" gradientUnits="userSpaceOnUse" gradientTransform="translate(159.091 189.468) rotate(90) scale(189.216)">
<stop stop-color="#B68EFF"/>
<stop offset="1" stop-color="#B68EFF" stop-opacity="0"/>
</radialGradient>
<clipPath id="clip0_2291_5401">
<rect width="96" height="96" rx="48" fill="white"/>
</clipPath>
<clipPath id="clip1_2291_5401">
<rect width="96" height="96" fill="white"/>
</clipPath>
</defs>
</svg>
