<svg width="96" height="96" viewBox="0 0 96 96" fill="none" xmlns="http://www.w3.org/2000/svg">
<g clip-path="url(#clip0_2291_2626)">
<rect width="96" height="96" rx="48" fill="#8B47F4"/>
<mask id="mask0_2291_2626" style="mask-type:alpha" maskUnits="userSpaceOnUse" x="0" y="0" width="96" height="96">
<circle cx="48" cy="48" r="48" fill="#8B47F4"/>
</mask>
<g mask="url(#mask0_2291_2626)">
<circle cx="-50.5034" cy="-1.92773" r="133.538" fill="url(#paint0_radial_2291_2626)"/>
<circle cx="159.091" cy="189.468" r="189.216" fill="url(#paint1_radial_2291_2626)"/>
</g>
<path d="M86.5566 0.881348H46.3984C41.627 0.881348 37.7598 4.7495 37.7598 9.51998V31.94C37.7598 36.7114 41.6279 40.5786 46.3984 40.5786H75.5389C75.8297 41.7673 76.5485 43.3282 78.1201 45.1967C81.6842 49.4344 87.6318 48.1767 87.6318 48.1767C84.6553 45.6407 84.1731 42.6138 84.2706 40.5786H86.5575C91.3289 40.5786 95.1961 36.7105 95.1961 31.94V9.51998C95.1961 4.74861 91.328 0.881348 86.5575 0.881348H86.5566Z" fill="white"/>
<path d="M75.8774 35.2923C75.8349 33.3866 74.7526 31.73 74.7526 31.73L37.7588 30.3286V31.9409C37.7588 36.7123 41.6269 40.5796 46.3974 40.5796H75.538C75.8154 41.715 76.4855 43.1899 77.9143 44.9476C78.2946 45.1081 78.385 45.0123 77.9028 44.4353C75.7392 41.8462 75.92 37.198 75.8774 35.2923Z" fill="#DCDCDC"/>
<path d="M89.7676 1.49829C91.0147 2.99715 90.7931 3.74969 90.7931 3.74969C90.7931 3.74969 92.0695 35.2506 90.0672 36.2017C88.7438 36.8302 84.2171 36.9862 83.0595 37.5029C81.9019 38.0197 81.5331 38.9043 82.0543 41.8258C82.4957 44.297 85.2408 47.0723 85.2408 47.0723L80.9277 47.3674C84.1568 48.9124 87.6296 48.1776 87.6296 48.1776C84.6532 45.6417 84.171 42.6147 84.2685 40.5795H86.5553C91.3267 40.5795 95.194 36.7114 95.194 31.9409V9.52089C95.194 5.88497 92.947 2.77379 89.7667 1.49918L89.7676 1.49829Z" fill="#DCDCDC"/>
<path d="M95.9997 15.5376C95.9775 13.6859 95.9279 9.81602 95.8658 7.99629C95.5964 3.51565 90.9376 0.118169 86.4561 0.152737C74.2622 0.123487 61.6038 0.573768 49.4135 0.43372C48.4606 0.43372 46.835 0.390288 45.9061 0.41422C41.8394 0.541858 38.1636 3.70091 37.4013 7.69581C37.3189 8.09379 37.2701 8.51305 37.2382 8.91724C37.193 9.37372 37.2231 11.0516 37.2098 11.5055C37.2036 18.2809 37.2125 25.1663 37.2479 31.9347C37.2506 32.5888 37.3233 33.2448 37.466 33.8847C38.3284 38.0002 42.2046 41.0989 46.4051 41.0333C47.1381 41.0333 48.8125 41.0209 49.5393 41.0218C56.1881 41.0192 68.3633 40.9279 75.2673 40.9341C75.4322 41.5058 75.6618 42.0527 75.9268 42.5748C76.3868 43.478 76.9647 44.3076 77.5967 45.0947C79.0504 46.9978 81.3133 48.1926 83.6595 48.5215C84.6603 48.6748 85.6752 48.6996 86.6821 48.6136C87.0251 48.58 87.3522 48.5454 87.6952 48.4754C87.759 48.463 87.8184 48.4293 87.8645 48.377C87.9753 48.2493 87.9594 48.0543 87.83 47.9462C87.3017 47.4888 86.8106 46.9898 86.3807 46.442C85.1309 44.8678 84.5025 42.8575 84.5397 40.8543C85.1761 40.8525 86.2726 40.8508 86.7051 40.8437C90.9819 40.8055 95.0858 37.7928 95.6496 33.5576L95.7994 32.0561C95.7834 27.2236 96.0077 20.3923 95.9997 15.5385V15.5376ZM95.1142 15.3931C95.0752 20.2345 95.0486 27.1775 94.9972 31.9994L94.9839 32.3947L94.9511 32.7891L94.8997 33.1809C94.3324 37.1599 90.7151 40.3189 86.6954 40.3074C86.566 40.3118 86.4295 40.3101 86.2948 40.3101L85.8897 40.3083L84.2694 40.303C84.1231 40.303 83.9999 40.4182 83.9937 40.5662C83.8723 42.7848 84.5335 45.0495 85.9083 46.8054C86.2274 47.2185 86.5784 47.6032 86.9516 47.9648C84.6372 48.2254 82.1775 47.8407 80.2062 46.5892C79.2605 46.0024 78.4875 45.1754 77.8272 44.2881C76.9745 43.1491 76.2228 41.8798 75.8825 40.4953C75.8452 40.3393 75.7043 40.2232 75.5368 40.2241C68.7285 40.201 56.2235 40.1629 49.5358 40.1363C48.957 40.1301 47.2968 40.1337 46.7499 40.1257C46.4565 40.1257 46.1427 40.1221 45.852 40.1018C42.3065 39.9059 39.1412 37.1492 38.4481 33.672C38.3267 33.102 38.2673 32.5197 38.2699 31.9356C38.3001 25.1654 38.3205 18.2845 38.3081 11.5063C38.3187 11.0773 38.2788 9.36752 38.3205 8.98815C38.3435 8.62916 38.3887 8.26132 38.4587 7.91031C39.1093 4.44015 42.2117 1.65604 45.7359 1.39278L45.9548 1.37417C46.0275 1.36973 46.1011 1.36885 46.1738 1.3653L46.3936 1.35732L46.6258 1.35466C47.155 1.34226 48.8878 1.34314 49.4117 1.32807C61.6029 1.18803 74.3606 0.96466 86.5553 0.934523C90.9996 0.887545 94.8634 4.47649 95.1177 8.91635C95.1727 10.737 95.1009 13.553 95.1133 15.3931H95.1142Z" fill="#1E1E22"/>
<path d="M59.7202 15.7054C59.7202 15.7054 58.9943 3.99276 62.6816 4.09292C66.3689 4.19308 67.5398 14.8048 67.5398 14.8048C67.5398 14.8048 78.5123 4.69389 81.5003 6.9967C84.4882 9.2995 74.4775 18.8094 74.4775 18.8094C74.4775 18.8094 85.5891 22.3629 83.788 26.1921C81.986 30.0212 74.4775 26.2603 74.4775 26.2603C74.4775 26.2603 77.1801 32.6795 74.6778 34.5533C72.1747 36.428 69.1211 28.1146 69.1211 28.1146C69.1211 28.1146 70.3736 36.0202 67.0701 36.4741C63.7665 36.9279 64.4677 27.7539 64.4677 27.7539C64.4677 27.7539 60.3176 38.0217 57.187 35.6976C54.0563 33.3735 59.722 25.3624 59.722 25.3624C59.722 25.3624 50.9203 29.844 49.5854 26.7283C48.2505 23.6136 56.1588 20.2906 56.1588 20.2906C56.1588 20.2906 45.7385 15.1035 47.9456 10.9996C50.1527 6.89476 59.722 15.7045 59.722 15.7045L59.7202 15.7054Z" fill="white"/>
<path d="M62.6805 4.09195C58.9931 3.99179 59.7191 15.7044 59.7191 15.7044C59.7191 15.7044 60.3103 16.5766 60.9618 15.8152C61.6124 15.0538 60.9121 11.7361 62.013 9.74083C62.9809 7.98758 64.8131 7.15704 66.0186 7.99999C65.2607 5.90636 64.1784 4.13184 62.6813 4.09106L62.6805 4.09195Z" fill="#DCDCDC"/>
<path d="M71.769 13.7527C75.3172 11.0997 78.0313 9.64784 80.1071 10.2967C80.6071 10.4527 80.9129 10.6814 81.091 10.9375C82.0705 9.24543 82.4685 7.74125 81.5005 6.99492C78.5126 4.69211 67.5401 14.803 67.5401 14.803C67.1093 16.2044 68.2208 16.4047 71.7699 13.7518L71.769 13.7527Z" fill="#DCDCDC"/>
<path d="M74.4763 18.8083C74.4763 18.8083 73.0244 18.8084 73.0244 19.3588C73.0244 19.9092 73.4747 20.2097 76.2278 21.1537C78.9809 22.0977 80.6322 23.6134 81.0834 25.6148C81.3112 26.6271 80.9566 27.3965 80.5506 27.9097C81.9378 27.9035 83.1823 27.4736 83.7859 26.191C85.5879 22.3618 74.4754 18.8083 74.4754 18.8083H74.4763Z" fill="#DCDCDC"/>
<path d="M72.4798 25.6654C72.5853 26.6165 73.6259 30.0202 73.5258 32.073C73.4726 33.1562 72.8938 33.6995 72.3584 33.9716C73.1154 34.7543 73.9211 35.1177 74.6772 34.5522C77.1803 32.6775 74.4768 26.2593 74.4768 26.2593C74.4768 26.2593 72.3744 24.7143 72.4798 25.6654Z" fill="#DCDCDC"/>
<path d="M68.1258 30.6159C67.7819 32.6129 67.5692 34.1241 66.4781 34.9219C66.0349 35.2454 65.5545 35.194 65.1396 35.0194C65.5403 35.9793 66.1492 36.5998 67.0693 36.4739C70.3728 36.0201 69.1204 28.1145 69.1204 28.1145C68.764 27.2193 68.4707 28.6189 68.1267 30.6167L68.1258 30.6159Z" fill="#DCDCDC"/>
<path d="M69.1201 28.1145C69.1201 28.1145 69.1343 28.1535 69.1618 28.2244C69.1476 28.1854 69.1334 28.1482 69.1201 28.1145Z" fill="#DCDCDC"/>
<path d="M64.0153 26.7282C63.4649 26.8904 60.7118 31.8222 58.6589 33.1394C57.6263 33.8024 56.8241 33.4301 56.2808 32.8974C56.1416 34.0612 56.3526 35.0797 57.1849 35.6975C60.0692 37.839 63.8203 29.289 64.3911 27.9328C64.4709 27.6102 64.5152 27.424 64.5152 27.424C64.5152 27.424 64.5649 26.5669 64.0144 26.7282H64.0153Z" fill="#DCDCDC"/>
<path d="M59.9923 24.3642C59.3727 24.1142 52.3526 25.7656 50.8865 25.3561C50.2953 25.1912 50.3051 24.5495 50.5284 23.843C49.6562 24.7524 49.1643 25.7505 49.5835 26.7282C50.9184 29.8429 59.7201 25.3623 59.7201 25.3623C59.7201 25.3623 60.6118 24.6142 59.9923 24.3642Z" fill="#DCDCDC"/>
<path d="M55.9068 18.6579C54.5055 16.9064 51.4758 15.5546 51.2888 13.602C51.1452 12.1057 51.631 10.9641 52.7478 10.7363C50.7011 9.74798 48.7866 9.43244 47.9436 10.9987C45.7366 15.1035 56.1568 20.2897 56.1568 20.2897C56.1568 20.2897 57.3082 20.4084 55.9068 18.657V18.6579Z" fill="#DCDCDC"/>
<path d="M58.3473 26.0032C55.3815 26.0324 52.4103 26.0776 49.4365 26.1255C49.4507 26.3267 49.4977 26.5279 49.5837 26.7282C50.5879 29.0718 55.8184 27.1156 58.3473 26.0032Z" fill="#DCDCDC"/>
<path d="M65.6414 25.9697C63.5309 25.9661 61.4152 25.9768 59.2967 25.9954C58.0425 27.9321 54.5892 33.7707 57.1854 35.6977C60.3161 38.0217 64.4661 27.7539 64.4661 27.7539C64.4661 27.7539 63.7649 36.928 67.0685 36.4741C70.372 36.0203 69.1196 28.1147 69.1196 28.1147C69.1196 28.1147 72.174 36.428 74.6762 34.5534C75.1992 34.1616 75.4944 33.5704 75.6353 32.8816C74.062 28.9461 69.8685 25.9502 65.6405 25.9706L65.6414 25.9697Z" fill="#DCDCDC"/>
<path d="M84.3648 24.7897C83.7452 22.252 79.5925 20.3685 77.3606 19.3997C76.6861 19.1187 76.0151 18.8563 75.3299 18.6135C76.0851 17.8636 76.8155 17.0995 77.5282 16.3115C79.1387 14.4847 82.982 10.1964 82.4201 7.68796C82.0832 6.34776 80.704 6.06235 79.5278 6.33092C75.9398 7.14195 70.797 11.4489 67.7753 14.1541C67.4952 12.2546 67.0946 10.387 66.4981 8.55839C66.1559 7.54348 65.8484 6.32826 65.2669 5.41884C64.9726 4.96412 64.7156 4.53778 64.2662 4.19209C63.2406 3.40233 61.7817 3.71079 61.0318 4.79837C59.4195 7.12334 59.1881 11.7458 59.3858 14.5698C59.4195 15.0449 59.025 14.6957 58.955 14.6318C56.9146 12.8538 55.5052 11.6607 53.0792 10.4357C51.8764 9.86579 49.6507 8.86862 48.3743 9.5724C47.5996 10.0307 46.8205 11.0243 46.8223 12.6003C46.8258 15.1787 50.8411 17.7413 52.8541 19.0823C53.7298 19.6505 53.7068 19.7445 54.6312 20.2337C53.12 20.9118 52.8062 21.3178 51.4766 22.3141C50.772 22.8565 49.6365 23.8183 49.1632 24.5876C48.4851 25.6291 48.8069 27.7768 50.0106 28.3671C51.9154 29.2314 55.5788 27.4666 57.4544 26.7468C58.0146 26.5226 58.5304 26.168 59.0791 25.9145C58.6944 26.5049 58.3336 27.1067 57.9897 27.7227C56.9332 29.679 55.0044 33.4558 56.6034 35.4936C57.1344 36.1602 58.0163 36.4864 58.8309 36.185C60.8226 35.4679 62.5324 32.3363 63.4941 30.5193C63.7095 30.1 63.9169 29.6781 64.1173 29.2526C64.0667 31.8258 64.2768 35.6523 66.0256 36.606C66.67 36.9508 67.4855 36.8241 68.0705 36.4225C69.6855 35.264 69.72 32.3124 69.6766 30.5024C69.674 30.4351 69.6695 30.3686 69.6669 30.3012C70.664 32.4737 72.201 35.1338 73.8594 35.1967C74.4666 35.2233 74.9931 34.8554 75.3627 34.4069C76.617 32.7751 76.063 30.1284 75.587 28.3007C75.4664 27.8681 75.337 27.4462 75.1934 27.0269C75.345 27.0908 75.4983 27.1546 75.6535 27.2166C77.5033 27.9213 79.487 28.5409 81.5044 28.267C82.0221 28.1846 82.5504 28.0188 83.021 27.7174C83.9739 27.1085 84.6378 25.9278 84.3666 24.7888L84.3648 24.7897ZM82.545 26.9826C80.6358 28.1624 77.241 27.0004 75.2954 26.1875C75.08 26.0954 74.8593 25.997 74.6572 25.8986C74.5561 25.8489 74.4356 25.841 74.323 25.8879C74.1165 25.973 74.0181 26.2106 74.1041 26.4171C74.3806 27.0908 74.6235 27.8087 74.8238 28.5143C75.1979 29.8961 75.5179 31.403 75.2599 32.8097C75.1473 33.3867 74.9018 33.9088 74.44 34.2624C73.3037 35.1063 71.9094 32.8939 71.3687 32.0252C70.6091 30.7542 69.9762 29.3758 69.4426 27.9949C69.2973 27.6155 68.722 27.7555 68.7787 28.1677C69.0544 30.0601 69.5268 35.4014 67.255 36.1079C64.9123 36.7789 64.7422 31.6707 64.704 30.1594C64.6907 29.3643 64.704 28.5604 64.7555 27.7724C64.7741 27.4515 64.3256 27.3389 64.1961 27.6439C63.8327 28.5267 63.4241 29.4051 62.9907 30.2622C62.2098 31.7744 59.5781 36.7993 57.4792 35.584C55.2056 34.1313 57.4225 29.7614 58.3957 27.9488C58.8593 27.1076 59.3619 26.2797 59.9025 25.4917C59.9486 25.4261 59.9575 25.3384 59.9194 25.2622C59.8635 25.1514 59.7288 25.1062 59.6171 25.162C58.0739 25.9261 56.4625 26.6015 54.813 27.0996C53.5135 27.4675 51.0521 28.1296 50.007 27.0482C49.4451 26.4322 49.5426 25.5112 49.9742 24.8349C50.4121 24.1125 51.0618 23.5258 51.7284 23.0063C52.41 22.4807 53.1421 22.0171 53.8947 21.5908C54.6472 21.1662 55.4246 20.7727 56.2134 20.4261C56.3242 20.3818 56.3349 20.2107 56.2223 20.1584C54.2129 19.1222 52.2584 17.9168 50.5256 16.4578C49.6737 15.7256 48.8574 14.9173 48.2813 13.9484C48.0012 13.4671 47.7893 12.9389 47.7459 12.3893C47.6803 11.5845 48.0375 10.7016 48.7439 10.2762C49.4787 9.85072 50.3766 9.98368 51.1691 10.2017C52.2558 10.5208 53.2707 11.0553 54.2413 11.6359C55.7002 12.5196 57.075 13.5443 58.3939 14.6256C58.7963 14.9563 59.2218 15.3197 59.6109 15.6662L59.6508 15.7017C59.6579 15.707 59.6606 15.7123 59.6818 15.7274C59.7004 15.7398 59.7244 15.7434 59.7394 15.7451C59.7483 15.7398 59.7607 15.7247 59.7634 15.7097C59.766 15.6902 59.7634 15.6928 59.7643 15.6902V15.6778L59.7625 15.6529C59.7598 15.6157 59.7607 15.5457 59.7572 15.5058C59.727 14.5246 59.7306 13.5345 59.7643 12.5542C59.8485 10.4801 59.9947 8.35009 60.656 6.37701C60.9139 5.67589 61.2392 4.95703 61.8588 4.53157C63.0297 3.81449 64.1837 4.90651 64.7634 5.89394C65.2988 6.76879 65.6684 7.74558 65.9778 8.72591C66.5903 10.707 66.9758 12.782 67.2169 14.8393C67.2382 15.0945 67.5741 15.2257 67.7603 15.0431C69.6899 13.3306 71.71 11.6864 73.8196 10.2C75.3964 9.11237 77.0176 8.04695 78.8099 7.38659C80.0827 6.90529 81.9503 6.75283 81.5816 8.67361C81.3866 9.56885 80.9256 10.3861 80.4328 11.175C80.0933 11.7103 79.7237 12.2324 79.3373 12.743C77.779 14.7808 75.9974 16.6856 74.1608 18.4743C73.9126 18.703 74.0092 19.1488 74.3372 19.2463C75.2307 19.5415 76.1321 19.8863 77.0043 20.2515C78.9384 21.0838 82.9271 22.861 83.4988 24.9865C83.6902 25.7541 83.1824 26.5705 82.5459 26.9817L82.545 26.9826Z" fill="#1E1E22"/>
<path d="M41.9958 6.82099C41.1937 7.56289 40.614 8.50865 40.3117 9.55901C40.0449 10.4835 39.8721 11.8219 40.4464 12.6684C40.6051 12.9033 41.043 12.9095 41.1059 12.5824C41.1883 12.1561 41.1591 11.7262 41.1857 11.2954C41.214 10.8381 41.3124 10.3789 41.4525 9.9437C41.7281 9.08657 42.2334 8.32695 42.9008 7.72687C43.5133 7.17643 42.6012 6.26169 41.9958 6.82188V6.82099Z" fill="#DCDCDC"/>
<path d="M46.6691 3.6931C45.7765 3.80213 44.4629 4.20189 44.1483 5.16449C44.0499 5.46497 44.3645 5.76368 44.6597 5.67593C45.0081 5.57134 45.297 5.31872 45.6241 5.16272C45.9512 5.00672 46.3075 4.90921 46.6691 4.88174C47.4367 4.82324 47.4172 3.60181 46.6691 3.6931Z" fill="#DCDCDC"/>
<path d="M41.6706 6.22016C40.8685 6.96206 40.2888 7.90782 39.9865 8.95818C39.7197 9.88267 39.5469 11.2211 40.1212 12.0676C40.2799 12.3025 40.7178 12.3087 40.7807 11.9816C40.8631 11.5553 40.8339 11.1254 40.8605 10.6946C40.8888 10.2372 40.9872 9.77808 41.1273 9.34287C41.4029 8.48574 41.9082 7.72612 42.5756 7.12604C43.1881 6.5756 42.276 5.66086 41.6706 6.22105V6.22016Z" fill="#1E1E22"/>
<path d="M46.3439 3.09301C45.4513 3.20203 44.1377 3.60179 43.8231 4.56439C43.7247 4.86488 44.0394 5.16358 44.3345 5.07583C44.6829 4.97124 44.9718 4.71862 45.2989 4.56262C45.626 4.40662 45.9823 4.30912 46.3439 4.28164C47.1115 4.22314 47.092 3.00171 46.3439 3.09301Z" fill="#1E1E22"/>
<path d="M70.9229 5.5881C70.6171 6.25465 70.4336 6.99921 70.2271 7.70211C70.0215 8.40146 69.7981 9.1079 69.7086 9.83296C69.6483 10.316 70.3849 10.4649 70.5994 10.0741C70.9362 9.4598 71.1516 8.76842 71.3847 8.11073C71.6196 7.4486 71.913 6.75103 72.0477 6.06231C72.1727 5.42678 71.2331 4.91357 70.9238 5.5881H70.9229Z" fill="#DCDCDC"/>
<path d="M84.6364 17.2785C83.9131 17.1216 83.0401 17.2741 82.3053 17.3397C81.5669 17.4053 80.7399 17.4354 80.0459 17.7129C79.3917 17.9743 79.5123 18.8288 80.2081 18.913C80.9216 18.999 81.6715 18.8846 82.3895 18.8811C83.126 18.8767 83.914 19.022 84.6364 18.9139C85.4723 18.7889 85.4173 17.4487 84.6364 17.2794V17.2785Z" fill="#DCDCDC"/>
<path d="M50.1101 20.4802C49.6315 20.4066 49.1333 20.3729 48.6494 20.3782C47.7054 20.3889 46.7605 20.4429 45.8192 20.5076C44.9647 20.5661 44.9736 21.9196 45.8192 21.8372C46.819 21.7397 47.8197 21.6998 48.8213 21.6369C49.1236 21.6183 51.1312 21.5908 50.8618 20.9287C50.7306 20.6051 50.4381 20.5307 50.1101 20.4802Z" fill="#DCDCDC"/>
<path d="M79.264 31.3887C78.8235 30.9295 78.375 30.4216 77.8281 30.0893C77.4425 29.8544 77.0463 30.3108 77.2369 30.6805C77.5303 31.2486 78.0186 31.737 78.445 32.2077C78.8261 32.6287 79.2445 33.352 79.8623 33.3493C80.13 33.3485 80.3135 33.1348 80.3321 32.8796C80.3746 32.2875 79.6407 31.7813 79.264 31.3887Z" fill="#DCDCDC"/>
<path d="M70.2989 4.90109C69.9931 5.56764 69.8096 6.3122 69.6031 7.0151C69.3974 7.71445 69.1741 8.42089 69.0845 9.14595C69.0243 9.62902 69.7609 9.77794 69.9754 9.38704C70.3122 8.77278 70.5276 8.08141 70.7607 7.42372C70.9956 6.76159 71.289 6.06401 71.4237 5.3753C71.5487 4.73977 70.6091 4.22655 70.2998 4.90109H70.2989Z" fill="#1E1E22"/>
<path d="M84.0124 16.5925C83.2891 16.4356 82.416 16.5881 81.6812 16.6537C80.9429 16.7192 80.1159 16.7494 79.4219 17.0268C78.7677 17.2883 78.8883 18.1428 79.5841 18.227C80.2976 18.313 81.0475 18.1986 81.7654 18.1951C82.502 18.1906 83.29 18.336 84.0124 18.2279C84.8483 18.1029 84.7933 16.7627 84.0124 16.5934V16.5925Z" fill="#1E1E22"/>
<path d="M49.4851 19.7941C49.0065 19.7206 48.5083 19.6869 48.0244 19.6922C47.0804 19.7028 46.1355 19.7569 45.1942 19.8216C44.3397 19.8801 44.3486 21.2336 45.1942 21.1512C46.194 21.0537 47.1947 21.0138 48.1963 20.9509C48.4986 20.9322 50.5062 20.9048 50.2368 20.2426C50.1056 19.9191 49.8131 19.8447 49.4851 19.7941Z" fill="#1E1E22"/>
<path d="M78.64 30.7019C78.1995 30.2428 77.7509 29.7349 77.2041 29.4025C76.8185 29.1676 76.4223 29.6241 76.6128 29.9937C76.9062 30.5619 77.3946 31.0503 77.821 31.5209C78.2021 31.942 78.6205 32.6652 79.2383 32.6626C79.506 32.6617 79.6895 32.4481 79.7081 32.1928C79.7506 31.6007 79.0167 31.0946 78.64 30.7019Z" fill="#1E1E22"/>
<path d="M62.8801 23.1155H22.8469C17.214 23.1155 12.6465 27.6821 12.6465 33.3159V55.845C12.6465 61.4779 17.2131 66.0454 22.8469 66.0454H34.423C34.6313 68.225 34.3025 71.8086 30.8243 74.7718C30.8243 74.7718 37.2567 76.1324 41.1107 71.5498C43.0448 69.2496 43.7858 67.3803 44.0083 66.0454H62.881C68.514 66.0454 73.0815 61.4788 73.0815 55.845V33.3159C73.0815 27.683 68.5148 23.1155 62.881 23.1155H62.8801Z" fill="white"/>
<path d="M73.0807 55.8438V33.3147C73.0807 28.0638 69.1124 23.7401 64.0113 23.1772C68.0753 24.248 69.2763 28.9529 69.2763 28.9529C69.2763 28.9529 70.7282 53.8237 69.1319 58.635C67.2492 64.3096 63.2197 62.4376 57.5141 62.7398C51.8085 63.0421 41.4467 62.6645 40.5462 63.9408C39.0606 66.0451 39.6456 68.8461 36.7357 71.5495C35.3015 72.8817 33.1822 73.7282 31.4023 74.245C31.2206 74.4214 31.0292 74.5969 30.8262 74.7697C30.8262 74.7697 37.2586 76.1303 41.1126 71.5477C43.0466 69.2476 43.7877 67.3782 44.0101 66.0433H62.8829C68.5158 66.0433 73.0833 61.4767 73.0833 55.8429L73.0807 55.8438Z" fill="#DCDCDC"/>
<path d="M34.6394 63.8417C33.2079 63.7282 23.2237 64.2299 18.1882 61.1055C15.1967 59.2494 13.4833 55.9246 12.6475 52.2319V55.8439C12.6475 61.4768 17.2141 66.0444 22.8479 66.0444H34.424C34.517 67.0238 34.5011 68.2869 34.1412 69.6501C34.1412 69.6501 34.1412 69.6501 34.1421 69.6501C35.6472 68.5501 36.0709 63.956 34.6394 63.8426V63.8417Z" fill="#DCDCDC"/>
<path d="M73.8155 54.9319C73.7597 47.6715 73.843 40.9377 73.8147 33.6756C73.8147 32.9054 73.6852 31.3666 73.5142 30.6159C72.4993 25.9863 67.8068 22.2237 63.0691 22.2458C49.7265 22.2237 36.195 22.7386 22.8533 22.5862C22.5076 22.5897 22.114 22.5959 21.7639 22.6296C19.2865 22.8494 16.911 23.9654 15.1569 25.7302C13.9142 26.9755 12.9808 28.5276 12.4747 30.2126C12.1724 31.192 12.0297 32.2264 12.0138 33.2493C11.9863 39.4921 12.0049 47.3329 12.0262 53.5775C12.0315 54.1527 12.0262 55.524 12.043 56.0788C12.0998 60.5081 15.1693 64.6483 19.3734 66.0133C20.476 66.3901 21.6425 66.5718 22.8063 66.5753L24.4674 66.5691C26.436 66.5629 31.5504 66.5381 33.9702 66.5301C34.0473 67.9421 33.8346 69.3709 33.2939 70.6792C32.7089 72.1382 31.7135 73.3933 30.5311 74.4242C30.2421 74.6573 30.3662 75.1395 30.7305 75.2095C31.4848 75.3496 32.2436 75.3983 33.0085 75.4001C36.4317 75.401 39.6572 74.1795 41.7624 71.3945C42.0442 71.0311 42.3385 70.6464 42.5911 70.2618C43.3738 69.0944 44.0315 67.8189 44.3275 66.4291C44.9462 66.4264 62.3689 66.3644 62.3689 66.3644C62.5612 66.3626 62.7491 66.3644 62.945 66.3608C67.579 66.3484 71.9648 64.2175 73.1472 59.7351C73.469 58.6094 73.8439 56.0939 73.8155 54.9301V54.9319ZM72.8547 55.1632C72.845 55.4956 72.8618 55.9751 72.8352 56.3004C72.704 59.1014 71.3106 61.7977 69.1213 63.5421C67.3858 64.9426 65.1707 65.7208 62.9415 65.7217C62.7544 65.7244 62.5603 65.7217 62.3698 65.7217L44.0076 65.6561C43.8214 65.6561 43.6574 65.7891 43.6247 65.9779C43.3818 67.3589 42.7135 68.6521 41.9228 69.8106C41.523 70.3929 41.0781 70.9709 40.6048 71.4956C38.4704 73.9065 35.0711 74.7459 31.9493 74.4676C31.9121 74.4641 31.874 74.4605 31.8358 74.457C33.426 72.8704 34.5437 70.8024 34.8442 68.5626C34.9692 67.7125 34.9789 66.851 34.9071 65.9983C34.8859 65.7536 34.6802 65.5586 34.4303 65.5577C32.2675 65.5498 26.5513 65.5258 24.4683 65.5179C23.5491 65.5125 22.1344 65.5445 21.2472 65.3698C19.1837 65.0233 17.2469 63.9702 15.8287 62.4333C14.1703 60.6694 13.2432 58.2708 13.2574 55.8599C13.2618 55.7066 13.2538 55.3981 13.26 55.2385C13.2999 48.2273 13.2857 39.8838 13.2911 32.8699C13.4222 28.9185 16.1922 25.3136 19.9584 24.1178C20.6958 23.8759 21.4909 23.7314 22.2647 23.6702C35.8015 23.4655 49.3427 23.2199 62.8812 23.1783C67.5551 23.1269 71.8026 26.5244 72.7723 31.0963C72.9354 31.8391 73.016 32.5987 73.0089 33.3592C72.9788 40.6213 72.9123 47.9038 72.8547 55.1641V55.1632Z" fill="#1E1E22"/>
<path d="M15.5593 33.696C15.975 33.4168 16.2489 32.8522 16.5272 32.44C16.8286 31.9933 17.1583 31.5758 17.5164 31.1734C17.8745 30.7709 18.2592 30.3951 18.6696 30.0485C19.0871 29.6967 19.6357 29.4352 20.0009 29.0328C20.3493 28.6481 20.0142 27.9851 19.4797 28.1366C18.9151 28.2971 18.4037 28.7704 17.9596 29.14C17.5102 29.5141 17.0909 29.9218 16.7054 30.3614C16.3207 30.8002 15.9723 31.278 15.663 31.7726C15.3953 32.1998 14.9876 32.8734 15.0328 33.3937C15.054 33.6384 15.3208 33.8573 15.5602 33.696H15.5593Z" fill="#DCDCDC"/>
<path d="M21.47 27.5685C21.9345 27.6562 22.4113 27.3247 22.8448 27.1811C23.3722 27.0065 23.9279 26.9604 24.4544 26.8018C24.9349 26.6564 24.8444 25.9375 24.3357 25.926C23.7471 25.9136 23.124 26.1458 22.5877 26.371C22.1428 26.558 21.4744 26.7973 21.3175 27.3008C21.2847 27.4063 21.3565 27.5481 21.47 27.5694V27.5685Z" fill="#DCDCDC"/>
<path d="M15.403 33.1332C15.8187 32.854 16.0926 32.2894 16.3709 31.8772C16.6723 31.4305 17.002 31.013 17.3601 30.6106C17.7173 30.2091 18.1029 29.8324 18.5133 29.4858C18.9308 29.1339 19.4795 28.8724 19.8447 28.47C20.193 28.0853 19.858 27.4223 19.3235 27.5739C18.7588 27.7343 18.2474 28.2076 17.8033 28.5773C17.3539 28.9513 16.9347 29.359 16.5491 29.7987C16.1644 30.2374 15.8161 30.7152 15.5067 31.2098C15.239 31.637 14.8313 32.3107 14.8765 32.831C14.8978 33.0756 15.1646 33.2946 15.4039 33.1332H15.403Z" fill="#1E1E22"/>
<path d="M21.3138 27.0057C21.7782 27.0935 22.2551 26.762 22.6885 26.6184C23.2159 26.4438 23.7717 26.3977 24.2982 26.239C24.7786 26.0936 24.6882 25.3748 24.1794 25.3633C23.5909 25.3509 22.9677 25.5831 22.4315 25.8082C21.9865 25.9953 21.3182 26.2346 21.1613 26.738C21.1285 26.8435 21.2003 26.9853 21.3138 27.0066V27.0057Z" fill="#1E1E22"/>
<path d="M16.6358 59.0517C16.6012 59.4107 16.8734 59.752 17.0763 60.0294C17.3095 60.3494 17.5603 60.657 17.8315 60.945C18.3075 61.4494 19.0255 62.2259 19.7523 62.2684C20.0856 62.2879 20.2921 61.8846 20.129 61.6116C19.934 61.2854 19.5945 61.1321 19.2932 60.9167C18.9971 60.7057 18.7135 60.4753 18.4458 60.2289C18.1816 59.986 17.9361 59.7272 17.7039 59.4542C17.4849 59.1971 17.3103 58.902 16.9833 58.7858C16.8007 58.7211 16.6518 58.8869 16.6358 59.05V59.0517Z" fill="#1E1E22"/>
<path d="M67.6894 28.0871C67.7532 28.3707 67.95 28.595 68.1087 28.8325C68.2984 29.1161 68.4783 29.4042 68.6121 29.7189C68.8834 30.3553 68.9268 30.9696 68.9942 31.6459C69.0385 32.0926 69.7458 32.2796 69.8451 31.7611C69.9922 30.9882 69.8017 30.1408 69.4888 29.4308C69.2282 28.8396 68.7158 27.8823 68.0005 27.7759C67.8091 27.7476 67.6433 27.8841 67.6894 28.0871Z" fill="#1E1E22"/>
<path d="M37.1345 44.1625C36.998 44.0969 25.3156 47.8285 24.4239 51.5247C23.5313 55.2209 31.0974 52.4058 31.0974 52.4058C31.0974 52.4058 21.5759 59.1112 23.8637 61.4938C26.1514 63.8773 35.5328 56.375 35.5328 56.375C35.5328 56.375 31.7498 60.1678 33.9772 62.054C36.2047 63.9402 40.8759 58.6875 42.9536 50.6614L37.1345 44.1625Z" fill="white"/>
<path d="M37.1342 44.1625C37.0784 44.1359 35.0991 44.7413 32.7148 45.7198C33.3849 46.5512 34.5345 47.989 34.5345 47.989L32.2299 49.7156C32.2299 49.7156 31.5501 50.7066 32.6882 51.3873C33.8272 52.0681 36.0644 52.5405 36.0644 52.5405C36.0644 52.5405 35.0672 53.4437 35.4678 54.6022C33.9397 54.5623 29.4449 57.6629 26.605 58.7123C25.3401 59.1795 24.5991 59.1024 24.1639 58.8497C23.4867 59.901 23.2474 60.8538 23.8625 61.4938C26.1494 63.8764 35.5237 56.3812 35.5317 56.375C35.5317 56.375 36.0599 55.9584 36.184 55.4904C37.0181 55.8697 38.2041 55.0162 39.3005 54.3017C40.6399 53.4287 36.5971 58.497 35.1239 59.5642C34.3049 60.1571 33.6907 60.2041 33.306 60.1288C33.1969 60.837 33.3468 61.5222 33.9752 62.0549C36.2027 63.9411 40.8739 58.6884 42.9515 50.6623L37.1325 44.1633L37.1342 44.1625Z" fill="#DCDCDC"/>
<path d="M30.7869 50.781C29.1418 50.5851 28.8963 50.7633 26.7583 50.4158C26.1051 50.3095 25.7718 50.0462 25.622 49.7324C25.0007 50.3201 24.5681 50.9228 24.4227 51.5247C23.5683 55.0649 30.4723 52.6318 31.0564 52.4199C31.0706 52.4146 31.0839 52.4093 31.0963 52.4049C31.8408 52.1531 32.432 50.9769 30.786 50.781H30.7869Z" fill="#DCDCDC"/>
<path d="M41.3979 56.116C42.1867 54.3867 42.7903 52.5794 43.2309 50.7331C43.2557 50.6427 43.2353 50.5434 43.1671 50.4698C41.3003 48.4684 39.0614 46.0964 37.161 44.1269C37.1512 44.1225 36.8144 43.7582 36.8082 43.7582C36.5893 43.8078 36.5449 43.8158 36.3295 43.8823C34.7084 44.3857 33.0978 45.1391 31.5351 45.8022C29.75 46.5733 27.9373 47.4313 26.3454 48.5641C25.1984 49.4097 23.3991 50.8962 23.6809 52.4863C24.1224 54.2263 27.3904 54.0136 29.773 53.074C29.3032 53.4294 28.8397 53.7911 28.3814 54.1625C26.7505 55.5186 23.431 58.2744 23.1988 60.4274C23.1163 61.093 23.4939 61.7747 24.0984 62.0654C26.1362 63.0688 30.491 60.4664 33.4666 58.4038C32.933 59.3646 32.5952 60.4531 33.0003 61.4937C33.3371 62.3074 34.1765 62.9394 35.0753 62.8977C37.8701 62.7391 40.359 58.4091 41.3979 56.116ZM35.6045 61.8731C35.0798 62.0663 34.5204 62.0034 34.1446 61.5779C33.7378 61.1675 33.6633 60.5816 33.7883 60.0285C33.9736 59.1953 34.4593 58.4073 34.9725 57.7106C35.2393 57.3534 35.5389 56.9874 35.8429 56.6691C36.201 56.2791 35.6869 55.7163 35.2659 56.0398C33.6403 57.3667 25.5485 63.4783 23.9504 61.0709C23.0809 59.346 27.456 55.6347 28.7182 54.5693C29.5364 53.8877 30.3793 53.2265 31.2382 52.6024C31.3251 52.5404 31.3632 52.4261 31.3251 52.3215C31.279 52.1956 31.1398 52.1309 31.0139 52.177C29.4708 52.7186 27.0775 53.4667 25.4741 53.1387C24.3874 52.9056 24.3768 51.9545 24.7676 51.0965C25.1896 50.2624 25.9394 49.6145 26.6813 49.0516C29.0231 47.3524 31.7204 46.1931 34.4026 45.1365C35.2756 44.8068 36.1567 44.4761 37.0555 44.2191L37.098 44.2093C37.098 44.2093 37.1131 44.2067 37.1158 44.2058C38.8265 46.2631 40.8793 48.6847 42.6343 50.7278C42.3933 51.5751 42.1176 52.4128 41.8065 53.2344C40.7969 55.9618 38.4063 60.774 35.6045 61.8704V61.8731Z" fill="#1E1E22"/>
<path d="M38.4305 46.3835C38.4305 46.3835 32.8845 47.3284 32.1284 49.142C31.3714 50.9555 35.4984 50.99 36.3041 50.8899C36.3041 50.8899 35.3592 53.3026 37.1151 53.9754C38.871 54.6481 41.3272 49.1765 41.5612 48.7741C41.7961 48.3717 38.4296 46.3835 38.4296 46.3835H38.4305Z" fill="white"/>
<path d="M41.562 48.7741C41.7969 48.3717 38.4304 46.3835 38.4304 46.3835C38.4304 46.3835 36.9209 46.6406 35.3698 47.1441C35.8865 47.8053 36.6125 48.72 37.2108 49.4256C37.2108 49.4256 33.7255 49.8289 32.3446 48.7856C32.2524 48.9 32.1788 49.0187 32.1274 49.142C31.3704 50.9555 35.4974 50.99 36.3031 50.8899C36.3031 50.8899 35.3582 53.3026 37.1141 53.9754C38.8701 54.6481 41.3262 49.1765 41.5602 48.7741H41.562Z" fill="#DCDCDC"/>
<path d="M41.8057 49.065C41.8554 48.9524 41.9272 48.839 41.9148 48.7122C41.9032 48.5287 41.8031 48.3949 41.6985 48.285C41.4503 48.0315 41.195 47.8648 40.9158 47.6751C40.1269 47.1699 39.2583 46.2179 38.4047 45.8333C36.7339 46.0832 32.544 47.4278 31.8925 49.1191C31.2454 50.9432 34.3477 51.2109 35.5328 51.2402C35.6365 51.2419 35.7376 51.2428 35.8386 51.2419C35.4983 52.5086 35.6924 53.9853 37.1531 54.416C39.2149 54.8335 41.125 50.6064 41.8057 49.065ZM41.2367 48.7734C41.2367 48.7734 41.2367 48.7734 41.2367 48.7725C41.2376 48.7742 41.2384 48.7751 41.2402 48.7769C41.2482 48.7911 41.2473 48.8053 41.2376 48.7734H41.2367ZM41.2624 48.6023C41.2633 48.6005 41.2642 48.6005 41.2624 48.6023V48.6023ZM37.5866 53.5837C37.435 53.6307 37.3224 53.6245 37.1895 53.5642C37.0264 53.5022 36.8775 53.4029 36.7578 53.2797C36.2278 52.6787 36.3909 51.7082 36.6204 50.9937C36.7037 50.7704 36.5008 50.5204 36.2632 50.5603C36.156 50.5754 36.031 50.5842 35.9095 50.5904C35.5382 50.6099 35.1623 50.6055 34.7909 50.5851C34.0437 50.5284 33.2549 50.4628 32.614 50.0772C31.8384 49.5711 32.5644 48.7459 33.1042 48.3754C33.8283 47.8719 34.6527 47.5378 35.485 47.2435C36.4396 46.9102 37.4421 46.6478 38.4233 46.4271C38.4233 46.4298 38.4145 46.4271 38.4207 46.4307C38.4402 46.4457 38.4818 46.4776 38.5013 46.4927C39.1962 47.0254 39.9204 47.5564 40.587 48.1201C40.7961 48.3027 41.0381 48.4968 41.1986 48.7166C41.1888 48.7344 41.1799 48.7485 41.1808 48.7485C40.4841 49.9682 38.8293 53.121 37.5884 53.5837H37.5866Z" fill="#1E1E22"/>
<path d="M30.8037 44.095C29.9962 44.0667 29.1878 44.0374 28.3803 44.009C27.603 43.9816 26.7857 43.8912 26.0128 43.9958C25.5616 44.0569 25.5634 44.7837 25.9951 44.8759C26.7565 45.039 27.5826 45.008 28.3591 45.0399C29.1665 45.0736 29.974 45.1064 30.7824 45.1401C31.456 45.1675 31.4773 44.1181 30.8037 44.095Z" fill="#1E1E22"/>
<path d="M43.4727 59.4312C43.5099 58.668 43.6632 57.7701 43.4638 57.0238C43.3876 56.7375 42.94 56.6214 42.7928 56.9218C42.4879 57.5441 42.4507 58.3011 42.3505 58.98C42.2504 59.6554 42.0926 60.3583 42.082 61.0426C42.082 61.0497 42.0811 61.0568 42.0811 61.063C42.0811 61.0692 42.0811 61.0754 42.0811 61.0816C42.0784 61.5461 42.5695 61.8377 42.979 61.6294C43.3486 61.4406 43.3663 61.0825 43.3982 60.7155C43.4354 60.2883 43.4523 59.8593 43.4736 59.4312H43.4727Z" fill="#1E1E22"/>
<path d="M46.5955 60.8209C46.4998 60.1703 46.1169 59.4709 45.8509 58.8717C45.64 58.3975 45.3572 57.5386 44.86 57.3046C44.7669 57.2612 44.6251 57.2665 44.5754 57.3773C44.3388 57.8994 44.649 58.6617 44.7953 59.1837C44.9779 59.8397 45.1516 60.6569 45.5123 61.2366C45.8722 61.8145 46.6921 61.4768 46.5964 60.8209H46.5955Z" fill="#1E1E22"/>
<path d="M34.525 41.8799L32.0068 39.2571C31.3934 38.6189 31.4812 37.588 32.193 37.0606C34.6083 35.2702 39.8894 31.8585 43.9197 32.861L34.525 41.8799Z" fill="white"/>
<path d="M33.1495 37.5801C32.951 37.2769 32.9013 36.886 32.9075 36.5457C32.6487 36.7274 32.4094 36.9011 32.1931 37.0615C31.4822 37.5889 31.3945 38.6189 32.0079 39.258L34.5261 41.8808L35.9132 40.5494C34.5766 39.1729 33.3436 37.8761 33.1504 37.5809L33.1495 37.5801Z" fill="#DCDCDC"/>
<path d="M44.754 32.7308C44.754 32.7308 44.4048 32.6138 44.021 32.5322C43.1913 32.3532 41.899 32.4294 41.0649 32.5251C37.842 32.9604 35.3832 34.2181 32.7906 36.0848C32.5566 36.255 32.2765 36.4323 32.0451 36.6096C31.9618 36.6752 31.6161 36.9606 31.5434 37.0386C30.9363 37.6413 30.9629 38.8255 31.4938 39.4921C32.1196 40.2792 33.5582 41.8011 34.1955 42.4269C35.8122 41.1266 37.8181 39.2164 39.4003 37.8248C41.3025 36.1699 42.9963 34.5452 44.754 32.7299V32.7308ZM32.9484 40.0664L32.1745 39.2102C32.0505 39.0781 31.9485 38.9354 31.8794 38.7688C31.6436 38.2263 31.8475 37.5518 32.3332 37.2283L32.3935 37.1866L32.6355 37.0191C35.4187 35.1453 39.2922 32.9355 42.726 33.1545C42.7659 33.158 42.8049 33.1633 42.8439 33.1678C42.3112 33.6562 41.7855 34.1481 41.2705 34.6516C38.9341 36.9499 36.7385 39.3697 34.527 41.8259C33.9881 41.2338 33.466 40.6417 32.9492 40.0664H32.9484Z" fill="#1E1E22"/>
<path d="M45.2344 53.0357L47.7526 55.6585C48.3659 56.2967 49.3986 56.2515 49.9543 55.5628C51.8423 53.2228 55.4658 48.0853 54.6291 44.0168L45.2344 53.0357Z" fill="white"/>
<path d="M52.0372 52.6769C51.8458 52.7257 51.6304 52.8648 51.4017 53.1139C49.6298 55.04 49.0758 53.3869 49.0758 53.3869C50.9124 51.4838 53.334 48.0013 54.7229 45.9236C54.7788 45.2721 54.7549 44.6321 54.6281 44.0161L45.2334 53.035L47.7516 55.6578C48.365 56.296 49.3976 56.2508 49.9534 55.5621C50.5419 54.8326 51.298 53.8327 52.0363 52.6769H52.0372Z" fill="#DCDCDC"/>
<path d="M49.4842 48.33C48.0288 49.8546 46.038 51.7807 44.6738 53.3425C45.2721 54.0046 46.7347 55.5044 47.4952 56.1612C48.1396 56.7178 49.322 56.7932 49.9487 56.2108C50.0302 56.1417 50.3289 55.8084 50.398 55.7277C50.5842 55.5035 50.773 55.2314 50.9529 55.0044C52.9242 52.4907 54.2813 50.085 54.8477 46.8826C54.9771 46.0529 55.1065 44.765 54.9611 43.9283C54.8955 43.5418 54.7927 43.1873 54.7927 43.1873C52.9074 44.8696 51.2144 46.4952 49.4842 48.3291V48.33ZM45.2872 53.0367C47.8311 50.9271 50.3396 48.8326 52.731 46.5918C53.2557 46.0972 53.7689 45.592 54.2777 45.0797C54.2804 45.1196 54.2839 45.1586 54.2857 45.1984C54.3646 48.6376 51.998 52.4189 50.0125 55.1223L49.8352 55.3572L49.7909 55.4157C49.4479 55.8882 48.7653 56.0637 48.2335 55.8066C48.0704 55.7313 47.9313 55.6231 47.8045 55.4937L46.9802 54.6853C46.4262 54.1455 45.8563 53.5995 45.2863 53.0367H45.2872Z" fill="#1E1E22"/>
<path d="M50.7129 52.841C50.4514 53.028 50.267 53.2868 50.072 53.5385C49.8097 53.8771 49.4693 54.1927 49.261 54.5659C49.1387 54.7857 49.3957 55.1278 49.6359 54.9559C50.0419 54.6651 50.3583 54.1891 50.6287 53.7734C50.7838 53.535 51.0949 53.1149 50.8361 52.8596C50.8077 52.8312 50.7501 52.8144 50.7138 52.841H50.7129Z" fill="#1E1E22"/>
<path d="M58.1804 37.6476C61.3926 29.9042 61.101 28.1306 60.7642 27.5598C60.7092 27.464 60.6277 27.3843 60.5204 27.3151C59.9638 26.9553 58.2212 26.6007 50.3528 29.4947C43.2653 32.1016 36.809 38.0492 33.9974 40.8909C33.1526 41.7445 33.1411 43.1157 33.9734 43.9817L43.0366 53.4234C43.8681 54.2903 45.2384 54.3346 46.1266 53.5253C49.0808 50.8316 55.2864 44.6243 58.1804 37.6485V37.6476Z" fill="white"/>
<path d="M60.7639 27.5596C60.7089 27.4638 60.6273 27.3841 60.5201 27.3149C60.2799 27.1598 59.819 27.0056 58.7429 27.1128C59.2446 28.5151 58.6365 30.1487 57.7874 32.5765C56.6635 35.7887 49.6531 45.569 49.1399 45.1072C48.7242 44.7322 42.1047 38.2705 39.6202 35.8436C37.2048 37.7618 35.2433 39.6311 33.997 40.8898C33.1523 41.7434 33.1417 43.1146 33.9731 43.9806L43.0363 53.4223C43.8677 54.2892 45.2381 54.3335 46.1262 53.5242C49.0805 50.8305 55.286 44.6232 58.1801 37.6474C61.3923 29.904 61.1007 28.1304 60.7639 27.5596Z" fill="#DCDCDC"/>
<path d="M33.997 40.8898C33.1523 41.7434 33.1417 43.1146 33.9731 43.9806L43.0363 53.4223C43.8677 54.2892 45.2381 54.3335 46.1262 53.5242C47.1801 52.5634 48.648 51.1549 50.231 49.4247L38.2614 36.9561C36.4674 38.4673 35.0004 39.8767 33.997 40.8907V40.8898Z" fill="#1E1E22"/>
<path d="M41.4888 37.8992C41.9577 37.6173 42.3645 37.2247 42.7979 36.8905C43.2668 36.5289 43.7676 36.2213 44.2507 35.8809C44.7045 35.56 44.3464 34.8261 43.8288 35.1009C43.3111 35.3757 42.7917 35.7639 42.3087 36.1335C41.8256 36.5032 41.3363 36.8887 40.9924 37.3816C40.7814 37.6829 41.183 38.0836 41.4896 37.8992H41.4888Z" fill="#DCDCDC"/>
<path d="M45.2164 34.92C45.4876 34.889 45.7323 34.7339 45.9716 34.6098C46.2109 34.4857 46.4955 34.3802 46.7029 34.1879C46.983 33.9282 46.7055 33.5098 46.3643 33.5683C46.0744 33.6179 45.8067 33.8112 45.5639 33.968C45.3263 34.1214 45.0746 34.2862 44.9354 34.538C44.8193 34.7481 45.0028 34.9448 45.2173 34.92H45.2164Z" fill="#DCDCDC"/>
<path d="M58.9103 29.3634C58.8341 29.7366 58.866 30.1186 58.78 30.4935C58.6932 30.8756 58.5717 31.2478 58.4476 31.6192C58.297 32.0686 59.0061 32.2698 59.1567 31.8204C59.4014 31.0918 59.8029 30.053 59.4413 29.3049C59.3358 29.0868 58.9608 29.1179 58.9103 29.3634Z" fill="#1E1E22"/>
<path d="M41.437 37.4116C41.9059 37.1298 42.3127 36.7371 42.7462 36.403C43.2151 36.0413 43.7159 35.7337 44.1989 35.3934C44.6528 35.0725 44.2947 34.3386 43.777 34.6134C43.2594 34.8881 42.74 35.2764 42.2569 35.646C41.7827 36.0085 41.2845 36.4012 40.9406 36.894C40.7297 37.1954 41.1312 37.596 41.4379 37.4116H41.437Z" fill="#1E1E22"/>
<path d="M45.1656 34.4325C45.4369 34.4014 45.6815 34.2463 45.9208 34.1222C46.1699 33.9937 46.4447 33.8927 46.6521 33.7003C46.9322 33.4406 46.6547 33.0222 46.3135 33.0807C46.0236 33.1304 45.756 33.3236 45.5131 33.4805C45.2702 33.6374 45.0238 33.7987 44.8846 34.0504C44.7685 34.2605 44.952 34.4573 45.1665 34.4325H45.1656Z" fill="#1E1E22"/>
<path d="M49.9847 50.5407C52.7786 47.4765 55.3181 44.1809 57.3044 40.5352C57.4968 40.1576 57.8841 39.3776 58.0747 39.0009C58.1102 38.93 58.7847 37.3886 58.8352 37.2849C59.7109 35.1142 61.5927 29.9324 61.1735 27.8432C61.1611 27.7528 61.1203 27.6562 61.0946 27.5675C60.7693 26.7618 59.7721 26.7157 59.0346 26.7299C58.0756 26.7609 57.0633 26.9604 56.1273 27.1678C54.039 27.6597 51.9995 28.3201 49.9883 29.0567C48.8183 29.4901 47.5437 30.068 46.441 30.653C41.706 33.196 37.563 36.6946 33.7968 40.4954C32.742 41.4766 32.6605 43.1492 33.6479 44.2048C36.1324 46.7647 39.841 50.5557 42.3282 53.1103C42.3858 53.1652 42.8529 53.6572 42.8946 53.6855C43.3679 54.1447 44.0912 54.6694 44.7498 54.6455C45.2852 54.6313 45.8524 54.3973 46.2664 54.0569C46.55 53.8141 46.9968 53.4232 47.2671 53.1661C48.1898 52.2806 49.1196 51.482 49.9847 50.5398V50.5407ZM46.659 52.6857C46.4312 52.8958 46.1875 53.1165 45.9544 53.3257C45.6043 53.6341 45.1469 53.822 44.678 53.8238C44.1426 53.8371 43.6161 53.6084 43.2474 53.222C42.9389 52.9011 42.1944 52.1007 41.8797 51.7745C39.8242 49.5914 36.2751 45.8571 34.2276 43.6739C33.6249 43.0295 33.6125 41.9499 34.1966 41.2922C36.939 38.5356 39.9571 36.0404 43.1791 33.8839C45.4332 32.3956 47.8441 31.0457 50.3685 30.0671C51.6919 29.5894 60.1116 26.2522 60.5796 27.8547C60.9873 29.062 60.225 31.5669 59.8616 32.8388C59.3706 34.4325 58.7546 36.0759 58.1305 37.6262C56.1672 42.3364 52.9275 46.4004 49.3917 50.031C48.5036 50.9395 47.5924 51.825 46.659 52.6857Z" fill="#1E1E22"/>
<path d="M55.2646 38.454C56.7535 37.0247 56.6721 34.524 55.0828 32.8684C53.4935 31.2129 50.9982 31.0294 49.5093 32.4587C48.0204 33.888 48.1018 36.3887 49.6911 38.0443C51.2804 39.6998 53.7758 39.8833 55.2646 38.454Z" fill="white"/>
<path d="M56.048 34.3821C55.8982 35.0682 55.6695 35.7037 55.1634 36.2267C53.7381 37.7007 52.3137 38.1138 50.1997 36.7789C48.9499 35.9891 48.7274 34.5656 48.754 33.533C48.1274 34.9432 48.4491 36.7505 49.6892 38.0428C51.2784 39.6986 53.7736 39.8812 55.2627 38.4524C56.3423 37.4153 56.5958 35.8154 56.048 34.383V34.3821Z" fill="#DCDCDC"/>
<path d="M55.2859 35.921C55.2761 35.7304 54.981 35.5913 54.8853 35.8067C54.653 36.3305 54.5006 36.8863 53.9572 37.1726C53.6018 37.3605 53.9031 37.9162 54.2542 37.7212C54.8897 37.3702 55.3231 36.6549 55.2859 35.921Z" fill="#1E1E22"/>
<path d="M50.3231 35.6628C50.3116 35.4288 50.3222 35.2125 50.3772 34.9838C50.4889 34.5202 50.6795 34.1745 51.0296 33.8501C51.2911 33.609 50.9622 33.1304 50.652 33.3334C50.2088 33.6232 49.9181 34.0992 49.786 34.608C49.669 35.0583 49.5883 35.6247 49.9243 35.9961C49.9801 36.0581 50.0714 36.0811 50.1512 36.0625C50.2017 36.051 50.2318 36.0395 50.2646 35.9987C50.3488 35.8915 50.3302 35.7931 50.324 35.6637L50.3231 35.6628Z" fill="#DCDCDC"/>
<path d="M51.4851 33.2494C51.5995 33.2902 51.7448 33.245 51.8627 33.2273C51.9975 33.2069 52.1251 33.1705 52.2457 33.1067C52.4965 32.9738 52.4017 32.5705 52.1154 32.5696C51.954 32.5696 51.7971 32.6157 51.6624 32.7043C51.5454 32.7814 51.3974 32.8807 51.3593 33.0216C51.3318 33.1218 51.3912 33.2157 51.486 33.2494H51.4851Z" fill="#DCDCDC"/>
<path d="M50.0761 35.4057C50.0645 35.1717 50.0752 34.9554 50.1301 34.7267C50.2418 34.2631 50.4324 33.9175 50.7825 33.593C51.044 33.3519 50.7151 32.8733 50.4049 33.0763C49.9617 33.3661 49.671 33.8421 49.5389 34.3509C49.4219 34.8012 49.3413 35.3676 49.6772 35.739C49.733 35.801 49.8243 35.8241 49.9041 35.8054C49.9546 35.7939 49.9848 35.7824 50.0176 35.7416C50.1018 35.6344 50.0832 35.536 50.0769 35.4066L50.0761 35.4057Z" fill="#1E1E22"/>
<path d="M51.3855 33.0021C51.4999 33.0429 51.6452 32.9977 51.7631 32.98C51.8979 32.9596 52.0255 32.9232 52.146 32.8594C52.3969 32.7265 52.3021 32.3232 52.0158 32.3223C51.8544 32.3223 51.6975 32.3684 51.5628 32.457C51.4458 32.5341 51.2978 32.6334 51.2597 32.7743C51.2322 32.8745 51.2916 32.9684 51.3864 33.0021H51.3855Z" fill="#1E1E22"/>
<path d="M56.3933 33.8521C55.3677 31.255 51.348 30.2374 49.1799 32.2424C47.6793 33.6101 47.7529 36.0379 48.9025 37.6449C50.3313 39.7642 53.6943 40.5141 55.5583 38.6953C56.7026 37.574 57.0084 35.3075 56.3942 33.8512L56.3933 33.8521ZM49.9458 37.7974C48.2395 35.9767 48.3308 32.8381 50.9093 31.9171C53.3432 31.0866 56.0263 33.1501 56.2444 35.6443C56.3543 36.6663 55.9909 37.7167 55.2392 38.4267C53.6712 39.8848 51.2665 39.2687 49.9458 37.7974Z" fill="#1E1E22"/>
<path d="M48.91 38.9575C48.9153 38.9256 48.9251 38.8272 48.8958 38.798C48.863 38.7643 48.7762 38.7607 48.7398 38.7643C46.4813 38.969 41.9156 43.135 40.0063 44.9689C39.5206 45.4352 39.5056 46.2063 39.9718 46.692L40.6304 47.3781L40.6499 47.3985C41.1188 47.8869 41.8961 47.9002 42.3801 47.4277C44.2681 45.5858 48.5395 41.208 48.9082 38.9575H48.91Z" fill="white"/>
<path d="M39.9333 45.0461C39.522 45.5168 39.5309 46.2321 39.9723 46.6912L40.6309 47.3773L40.6504 47.3976C41.1193 47.886 41.8967 47.8993 42.3806 47.4269C44.2686 45.585 48.5401 41.2072 48.9088 38.9567C48.9123 38.9354 48.9168 38.8875 48.9123 38.8477C47.7574 40.3447 42.4054 46.5742 41.2496 46.1434C40.5786 45.8935 40.1673 45.421 39.9324 45.0461H39.9333Z" fill="#DCDCDC"/>
<path d="M47.349 42.293C47.7 41.8515 48.3763 40.927 48.6324 40.4254C48.8842 39.9228 49.1917 39.2881 49.1855 38.7439C49.1838 38.5613 48.8921 38.579 48.7069 38.6003C48.2504 38.6491 47.7984 38.8706 47.3826 39.0568C44.8432 40.2587 42.7469 42.1795 40.663 44.0329C40.4326 44.2492 39.9362 44.6782 39.7217 44.9104C39.2679 45.4281 39.2563 46.2551 39.6916 46.7895C39.9052 47.0377 40.1932 47.3338 40.414 47.5775C41.0371 48.2671 41.9181 48.2645 42.551 47.5944C44.3424 45.9165 45.2128 44.984 47.3499 42.2938L47.349 42.293ZM40.9032 47.2274C40.7712 47.106 40.5274 46.8516 40.3953 46.7222C40.32 46.6442 40.1897 46.5192 40.1197 46.4385C39.8289 46.1044 39.8236 45.5725 40.1046 45.2286C40.2553 45.0531 40.8004 44.5443 40.9741 44.3688C41.7772 43.5995 42.5962 42.8478 43.4409 42.1254C44.6047 41.1407 45.7677 40.1293 47.1034 39.3812C47.4642 39.1844 47.8524 39.0009 48.2478 38.8901C48.3807 38.8529 48.5163 38.8246 48.6528 38.8077C48.7175 38.798 48.7831 38.7873 48.8452 38.8077C48.8576 38.8113 48.87 38.8201 48.8709 38.8219C48.8833 38.8582 48.8824 38.9088 48.8744 38.9513C48.4711 40.7888 46.225 42.823 44.9673 44.2359C44.0242 45.2375 43.0731 46.2444 42.106 47.2265C41.7843 47.5341 41.2294 47.5323 40.9032 47.2265V47.2274Z" fill="#1E1E22"/>
<path d="M20.8806 48.4807C20.799 47.3878 19.551 46.6991 18.6035 47.2876C17.4884 47.9311 17.5939 49.6055 18.7861 50.085C19.8196 50.5149 20.9825 49.5904 20.8814 48.4975L20.8797 48.4798L20.8806 48.4807ZM19.4003 49.2651C18.7338 49.3812 18.2445 48.2041 18.9731 47.9675C19.3604 47.8584 19.8187 48.1554 19.8985 48.5392C19.9729 48.86 19.7478 49.2164 19.4172 49.2625L19.4003 49.2651Z" fill="#1E1E22"/>
<path d="M63.7439 49.1158C63.1819 48.0406 61.6369 48.1869 60.9731 49.1247C60.1682 50.1741 60.8357 51.6783 62.1909 51.6562C63.4088 51.6579 64.3147 50.2078 63.7518 49.1318L63.7439 49.1167V49.1158ZM61.6547 50.4028C61.4313 49.9756 61.7619 49.3471 62.2432 49.2727C62.5313 49.2133 62.8256 49.3941 62.8797 49.6849C63.0348 50.3133 62.0589 51.0552 61.6627 50.4161L61.6547 50.4019V50.4028Z" fill="#1E1E22"/>
<path d="M33.4367 26.3613C32.7489 26.0342 31.7907 26.5385 31.6391 27.2884C31.4477 28.0844 32.2454 28.6836 33.0139 28.4788C33.9934 28.2767 34.4357 26.8692 33.4509 26.3684L33.4358 26.3613H33.4367ZM32.2977 27.4435C32.3474 27.1537 32.7684 27.0358 33.0219 27.1324C33.1752 27.1803 33.2825 27.3168 33.2116 27.4692C33.0866 27.7821 32.3119 27.9124 32.2959 27.4577L32.2977 27.4435Z" fill="#1E1E22"/>
<path d="M20.7346 34.9661C20.4811 34.7046 20.0857 34.701 19.7782 34.8588C19.7117 34.8925 19.6487 34.9439 19.592 34.9909C19.5734 35.0068 19.5574 35.0228 19.5415 35.0414C19.3536 35.2541 19.2446 35.5147 19.3545 35.8001C19.467 36.0953 19.725 36.269 20.0352 36.2965C20.099 36.3018 20.162 36.2983 20.224 36.2868C20.3153 36.277 20.4057 36.2513 20.4926 36.2061C20.6876 36.1033 20.8436 35.9207 20.9074 35.7088C20.9854 35.4509 20.9251 35.1619 20.7346 34.9661Z" fill="#1E1E22"/>
<path d="M70.2061 40.1745C69.778 39.4158 68.5566 39.3936 68.0912 40.1302C67.4424 41.1832 68.5991 42.1857 69.6548 41.7372C70.2655 41.5165 70.5571 40.7489 70.2141 40.1887L70.2052 40.1736L70.2061 40.1745Z" fill="#1E1E22"/>
<path d="M68.7055 58.0837C68.5708 57.7752 68.2393 57.5465 67.9025 57.5137C67.126 57.4127 66.6287 58.3097 67.1694 58.8947C67.781 59.5878 69.0902 59.0649 68.7117 58.0987L68.7046 58.0837H68.7055Z" fill="#1E1E22"/>
</g>
<defs>
<radialGradient id="paint0_radial_2291_2626" cx="0" cy="0" r="1" gradientUnits="userSpaceOnUse" gradientTransform="translate(-50.5034 -1.92773) rotate(90) scale(133.538)">
<stop offset="0.265" stop-color="#D27C71"/>
<stop offset="1" stop-color="#D27C71" stop-opacity="0"/>
</radialGradient>
<radialGradient id="paint1_radial_2291_2626" cx="0" cy="0" r="1" gradientUnits="userSpaceOnUse" gradientTransform="translate(159.091 189.468) rotate(90) scale(189.216)">
<stop stop-color="#B68EFF"/>
<stop offset="1" stop-color="#B68EFF" stop-opacity="0"/>
</radialGradient>
<clipPath id="clip0_2291_2626">
<rect width="96" height="96" rx="48" fill="white"/>
</clipPath>
</defs>
</svg>
