<svg width="96" height="96" viewBox="0 0 96 96" fill="none" xmlns="http://www.w3.org/2000/svg">
<g clip-path="url(#clip0_2291_9768)">
<rect width="96" height="96" rx="48" fill="#8B47F4"/>
<mask id="mask0_2291_9768" style="mask-type:alpha" maskUnits="userSpaceOnUse" x="0" y="0" width="96" height="96">
<circle cx="48" cy="48" r="48" fill="#8B47F4"/>
</mask>
<g mask="url(#mask0_2291_9768)">
<circle cx="-50.5034" cy="-1.92773" r="133.538" fill="url(#paint0_radial_2291_9768)"/>
<circle cx="159.091" cy="189.468" r="189.216" fill="url(#paint1_radial_2291_9768)"/>
</g>
<g clip-path="url(#clip1_2291_9768)">
<path d="M81.851 9.58491L24.2596 18.5108C20.405 19.1082 17.7646 22.7173 18.362 26.5719L25.3997 71.9801C25.9971 75.8347 29.6061 78.4751 33.4607 77.8777L91.0521 68.9518C94.9067 68.3544 97.5472 64.7453 96.9498 60.8907L89.9121 15.4826C89.3147 11.628 85.7056 8.98749 81.851 9.58491Z" fill="#DCDCDC"/>
<path d="M90.587 19.8284L90.4308 18.8203C89.8047 18.9145 89.1798 19.0087 88.5538 19.1028C82.5965 20.0006 76.6403 20.8985 70.683 21.7963C58.7342 23.5973 46.7833 25.3811 34.8367 27.2024C29.5043 28.0147 24.1634 28.7851 18.8418 29.6615L19.0751 31.1693C23.7076 30.492 28.3272 29.7322 32.9511 29.0034C38.902 28.065 44.8496 27.1147 50.7994 26.1666C62.7321 24.265 74.666 22.3634 86.5987 20.4619C87.9267 20.25 89.2569 20.0402 90.5859 19.8284H90.587Z" fill="#1E1E22"/>
<path d="M87.0718 9.98C85.6047 9.07683 83.4923 8.97303 81.7887 9.23628L80.8128 9.38502C74.7132 10.3085 61.6472 12.3011 55.4256 13.2417L24.1796 17.9887C22.7841 18.1995 21.4455 18.8094 20.3754 19.7361C18.7563 21.1166 17.7643 23.2033 17.7322 25.3349C17.7119 25.8539 17.7793 26.3911 17.8553 26.9037C18.9735 34.2254 20.9382 47.4487 22.0629 54.735C22.7938 59.4435 23.9955 67.3665 24.7499 72.0589C24.8784 72.8572 25.1245 73.6395 25.4926 74.3597C26.9308 77.296 30.3498 79.0285 33.5655 78.471C52.7075 75.4019 72.0678 72.5341 91.211 69.5356C94.5689 69.0541 97.7964 66.1616 97.8167 62.7726C97.8392 62.1102 97.5792 60.3573 97.4786 59.7067C95.3394 45.8135 92.7862 29.9557 90.7016 16.025C90.4426 13.8024 88.998 11.1389 87.0739 9.98321L87.0718 9.98ZM96.9756 62.0845C96.9703 65.4114 94.3282 68.4099 91.0419 68.87C72.2134 71.7615 53.2019 74.2912 34.3509 77.1066C33.8405 77.1708 32.9748 77.3463 32.475 77.3228C30.0651 77.3677 27.7131 75.9317 26.6547 73.77C26.3112 73.098 26.1111 72.3564 26.0105 71.6106C25.2936 67.0209 24.1079 59.1235 23.3631 54.5306C22.2127 47.2421 20.1132 34.0509 18.9468 26.7314C18.874 26.2809 18.8098 25.8079 18.8269 25.3521C18.8419 23.5222 19.6809 21.7298 21.0645 20.5323C21.9816 19.7287 23.1277 19.1957 24.3358 19.0031L55.5529 14.0657C61.7285 13.0887 74.8865 11.0094 80.9166 10.0538L81.8925 9.89975C83.4441 9.65148 85.0728 9.96288 86.4212 10.7783C88.1997 11.8217 89.2409 13.964 89.6604 15.7607C91.8755 29.6614 94.6257 46.2491 96.7776 60.1315C96.8772 60.7832 97.0013 61.4285 96.9767 62.0834L96.9756 62.0845Z" fill="#1E1E22"/>
<path d="M78.602 13.6311L21.0106 22.557C17.156 23.1544 14.5155 26.7634 15.113 30.618L22.1506 76.0262C22.748 79.8808 26.3571 82.5213 30.2117 81.9239L87.8031 72.998C91.6577 72.4005 94.2982 68.7915 93.7007 64.9369L86.6631 19.5287C86.0657 15.6741 82.4566 13.0336 78.602 13.6311Z" fill="white"/>
<path d="M87.2604 23.3681L86.6622 19.5114C86.0651 15.6569 82.4556 13.0169 78.6011 13.6141L78.2715 13.6654C79.393 14.4038 79.6466 15.2406 79.6466 15.2406C79.6466 15.2406 80.5006 18.0892 80.6804 20.4306C80.8601 22.772 79.133 22.8726 79.133 22.8726L15.3301 31.9985L15.7121 34.4608L87.2615 23.3681H87.2604Z" fill="#DCDCDC"/>
<path d="M80.621 23.2076L87.139 66.58C87.139 66.58 27.5802 77.0478 25.1692 76.0547C24.0884 75.6096 22.7658 74.1574 21.6357 72.6914L22.1504 76.0119C22.7476 79.8664 26.357 82.5064 30.2116 81.9093L87.8025 72.9814C91.657 72.3843 94.2969 68.7748 93.6998 64.9203L86.9817 21.5842L80.6199 23.2086L80.621 23.2076Z" fill="#DCDCDC"/>
<path d="M87.339 23.8755L87.1827 22.8674C86.5567 22.9616 85.9318 23.0558 85.3058 23.1499C79.3485 24.0478 73.3923 24.9456 67.435 25.8434C55.4862 27.6444 43.5353 29.4282 31.5886 31.2496C26.2563 32.0618 20.9154 32.8322 15.5938 33.7087L15.8271 35.2164C20.4595 34.5391 25.0792 33.7793 29.7031 33.0505C35.6539 32.1121 41.6016 31.1618 47.5514 30.2137C59.4841 28.3121 71.4179 26.4105 83.3507 24.509C84.6787 24.2971 86.0088 24.0874 87.3379 23.8755H87.339Z" fill="#1E1E22"/>
<path d="M83.8247 14.0274C82.3576 13.1242 80.2452 13.0204 78.5416 13.2836L77.5657 13.4324C71.4661 14.3559 58.4001 16.3484 52.1785 17.289L20.9325 22.036C19.5371 22.2468 18.1984 22.8568 17.1283 23.7835C15.5092 25.1639 14.5172 27.2507 14.4851 29.3823C14.4648 29.9013 14.5322 30.4385 14.6082 30.9511C15.7264 38.2727 17.6911 51.496 18.8158 58.7824C19.5467 63.4908 20.7484 71.4139 21.5029 76.1063C21.6313 76.9046 21.8774 77.6869 22.2455 78.407C23.6837 81.3434 27.1027 83.0759 30.3184 82.5184C49.4604 79.4493 68.8208 76.5814 87.9639 73.583C91.3219 73.1015 94.5493 70.209 94.5696 66.8199C94.5921 66.1575 94.3321 64.4047 94.2315 63.7541C92.0923 49.8609 89.5391 34.003 87.4545 20.0724C87.1955 17.8498 85.7509 15.1863 83.8269 14.0306L83.8247 14.0274ZM93.7285 66.1319C93.7232 69.4588 91.0811 72.4572 87.7948 72.9174C68.9663 75.8088 49.9548 78.3385 31.1038 81.154C30.5934 81.2182 29.7277 81.3937 29.228 81.3702C26.8181 81.4151 24.466 79.979 23.4076 77.8174C23.0641 77.1454 22.864 76.4038 22.7634 75.6579C22.0465 71.0683 20.8608 63.1709 20.116 58.578C18.9656 51.2895 16.8661 38.0983 15.6997 30.7788C15.6269 30.3283 15.5627 29.8553 15.5798 29.3994C15.5948 27.5695 16.4338 25.7771 17.8174 24.5797C18.7345 23.776 19.8806 23.2431 21.0887 23.0505L52.3058 18.113C58.4814 17.136 71.6394 15.0568 77.6695 14.1012L78.6454 13.9471C80.1971 13.6988 81.8257 14.0102 83.1741 14.8257C84.9526 15.869 85.9938 18.0114 86.4133 19.8081C88.6284 33.7087 91.3786 50.2964 93.5306 64.1789C93.6301 64.8306 93.7542 65.4759 93.7296 66.1308L93.7285 66.1319Z" fill="#1E1E22"/>
<path d="M23.5522 27.4935C23.213 25.7118 20.7731 25.1724 19.5992 26.6192C18.6511 27.8081 19.2707 29.7931 20.7838 30.0746C22.6383 30.4192 23.8358 28.9724 23.5522 27.4935Z" fill="#DCDCDC"/>
<path d="M20.8126 29.332C21.8622 29.332 22.7131 28.4811 22.7131 27.4315C22.7131 26.3819 21.8622 25.531 20.8126 25.531C19.763 25.531 18.9121 26.3819 18.9121 27.4315C18.9121 28.4811 19.763 29.332 20.8126 29.332Z" fill="white"/>
<path d="M21.1041 29.3095C22.141 29.1489 22.8527 28.1773 22.6911 27.1404C22.5755 26.3924 22.0372 25.8134 21.3567 25.6101C21.7836 26.6107 21.6734 27.913 20.4652 28.3121C19.9666 28.4769 19.5685 28.5283 19.2539 28.5197C19.6563 29.0954 20.3636 29.425 21.1041 29.3095Z" fill="#DCDCDC"/>
<path d="M23.0463 27.0472C22.7071 25.2655 20.2673 24.7261 19.0934 26.1729C18.1453 27.3618 18.7648 29.3469 20.278 29.6283C22.1324 29.9729 23.3299 28.5261 23.0463 27.0472ZM22.6579 27.1456C22.8409 28.5978 21.027 29.4571 19.8938 28.6887C18.66 27.8819 19.1255 25.9996 20.5487 25.7235C21.499 25.5148 22.5412 26.1291 22.6579 27.1446V27.1456Z" fill="#1E1E22"/>
<path d="M30.0541 26.4854C29.7149 24.7037 27.2751 24.1644 26.1012 25.6112C25.1531 26.8 25.7726 28.7851 27.2858 29.0665C29.1403 29.4111 30.3377 27.9643 30.0541 26.4854Z" fill="#DCDCDC"/>
<path d="M27.3155 28.3237C28.3652 28.3237 29.2161 27.4728 29.2161 26.4232C29.2161 25.3736 28.3652 24.5227 27.3155 24.5227C26.2659 24.5227 25.415 25.3736 25.415 26.4232C25.415 27.4728 26.2659 28.3237 27.3155 28.3237Z" fill="white"/>
<path d="M27.606 28.3012C28.643 28.1406 29.3546 27.169 29.193 26.1321C29.0775 25.3841 28.5392 24.8051 27.8586 24.6018C28.2856 25.6024 28.1753 26.9047 26.9672 27.3038C26.4685 27.4686 26.0705 27.52 25.7559 27.5114C26.1582 28.0871 26.8655 28.4167 27.606 28.3012Z" fill="#DCDCDC"/>
<path d="M29.5473 26.0391C29.2081 24.2574 26.7683 23.7181 25.5943 25.1649C24.6462 26.3538 25.2658 28.3388 26.7789 28.6202C28.6334 28.9648 29.8309 27.518 29.5473 26.0391ZM29.1588 26.1376C29.3418 27.5897 27.528 28.449 26.3948 27.6807C25.161 26.8738 25.6264 24.9915 27.0497 24.7154C27.9999 24.5068 29.0422 25.121 29.1588 26.1365V26.1376Z" fill="#1E1E22"/>
<path d="M36.5561 25.4774C36.2169 23.6957 33.777 23.1563 32.6031 24.6031C31.655 25.792 32.2746 27.777 33.7877 28.0585C35.6422 28.403 36.8397 26.9563 36.5561 25.4774Z" fill="#DCDCDC"/>
<path d="M33.8165 27.3159C34.8661 27.3159 35.717 26.465 35.717 25.4154C35.717 24.3658 34.8661 23.5149 33.8165 23.5149C32.7669 23.5149 31.916 24.3658 31.916 25.4154C31.916 26.465 32.7669 27.3159 33.8165 27.3159Z" fill="white"/>
<path d="M34.107 27.2946C35.144 27.1341 35.8556 26.1624 35.694 25.1255C35.5784 24.3775 35.0402 23.7985 34.3596 23.5952C34.7866 24.5958 34.6763 25.8981 33.4682 26.2972C32.9695 26.462 32.5714 26.5134 32.2568 26.5048C32.6592 27.0805 33.3665 27.4101 34.107 27.2946Z" fill="#DCDCDC"/>
<path d="M36.0483 25.0311C35.7091 23.2494 33.2692 22.71 32.0953 24.1568C31.1472 25.3457 31.7668 27.3307 33.2799 27.6122C35.1344 27.9568 36.3319 26.51 36.0483 25.0311ZM35.6598 25.1295C35.8428 26.5817 34.029 27.441 32.8958 26.6726C31.6619 25.8658 32.1274 23.9835 33.5507 23.7074C34.5009 23.4987 35.5432 24.1129 35.6598 25.1285V25.1295Z" fill="#1E1E22"/>
<path d="M32.9917 42.4588C43.787 40.7851 54.5822 39.1115 65.3763 37.4378C68.4358 36.9638 71.4941 36.4897 74.5536 36.0146C75.4856 35.8701 75.262 34.4223 74.3288 34.5668C63.5336 36.2404 52.7384 37.914 41.9442 39.5877C38.8848 40.0617 35.8265 40.5358 32.767 41.0109C31.835 41.1554 32.0586 42.6032 32.9917 42.4588Z" fill="#DCDCDC"/>
<path d="M75.4988 42.1026C64.7035 43.7763 53.9083 45.4499 43.1142 47.1236C40.0547 47.5976 36.9964 48.0717 33.9369 48.5468C33.0049 48.6913 33.2285 50.1391 34.1617 49.9947C44.9569 48.321 55.7521 46.6474 66.5463 44.9737C69.6057 44.4997 72.6641 44.0256 75.7235 43.5505C76.6555 43.406 76.4319 41.9582 75.4988 42.1026Z" fill="#DCDCDC"/>
<path d="M76.6658 49.6371C65.8705 51.3107 55.0753 52.9844 44.2812 54.658C41.2217 55.1321 38.1634 55.6061 35.1039 56.0812C34.1719 56.2257 34.3955 57.6736 35.3287 57.5291C46.1239 55.8555 56.9191 54.1818 67.7132 52.5082C70.7727 52.0341 73.831 51.5601 76.8905 51.0849C77.8225 50.9405 77.5989 49.4926 76.6658 49.6371Z" fill="#DCDCDC"/>
<path d="M56.4562 60.4869C49.7285 61.5303 43.0007 62.5726 36.2719 63.6159C35.3398 63.7604 35.5635 65.2082 36.4966 65.0638C43.2244 64.0204 49.9521 62.9781 56.681 61.9348C57.613 61.7903 57.3893 60.3425 56.4562 60.4869Z" fill="#DCDCDC"/>
<path d="M57.6242 68.0216C50.8964 69.0649 44.1687 70.1072 37.4399 71.1506C36.5078 71.295 36.7315 72.7429 37.6646 72.5984C44.3923 71.5551 51.1201 70.5128 57.8489 69.4694C58.781 69.325 58.5573 67.8771 57.6242 68.0216Z" fill="#DCDCDC"/>
<path d="M32.5269 41.5557C43.3221 39.8821 54.1173 38.2084 64.9115 36.5348C67.9709 36.0607 71.0293 35.5867 74.0887 35.1115C75.0208 34.9671 74.7971 33.5192 73.864 33.6637C63.0688 35.3373 52.2736 37.011 41.4794 38.6846C38.42 39.1587 35.3616 39.6327 32.3022 40.1079C31.3701 40.2523 31.5938 41.7002 32.5269 41.5557Z" fill="#1E1E22"/>
<path d="M75.0329 41.1993C64.2377 42.873 53.4425 44.5466 42.6483 46.2203C39.5889 46.6943 36.5305 47.1684 33.4711 47.6435C32.5391 47.788 32.7627 49.2358 33.6958 49.0914C44.4911 47.4177 55.2863 45.7441 66.0804 44.0704C69.1399 43.5964 72.1982 43.1223 75.2577 42.6472C76.1897 42.5027 75.9661 41.0549 75.0329 41.1993Z" fill="#1E1E22"/>
<path d="M76.2009 48.735C65.4057 50.4086 54.6104 52.0823 43.8163 53.7559C40.7569 54.23 37.6985 54.704 34.6391 55.1791C33.707 55.3236 33.9307 56.7715 34.8638 56.627C45.659 54.9534 56.4543 53.2797 67.2484 51.6061C70.3078 51.132 73.3662 50.658 76.4256 50.1828C77.3577 50.0384 77.134 48.5905 76.2009 48.735Z" fill="#1E1E22"/>
<path d="M55.9914 59.5838C49.2636 60.6272 42.5359 61.6695 35.8071 62.7128C34.875 62.8573 35.0986 64.3052 36.0318 64.1607C42.7595 63.1173 49.4873 62.0751 56.2161 61.0317C57.1482 60.8872 56.9245 59.4394 55.9914 59.5838Z" fill="#1E1E22"/>
<path d="M57.1584 67.1185C50.4306 68.1619 43.7029 69.2042 36.974 70.2475C36.042 70.392 36.2656 71.8398 37.1988 71.6954C43.9265 70.652 50.6543 69.6097 57.3831 68.5664C58.3151 68.4219 58.0915 66.9741 57.1584 67.1185Z" fill="#1E1E22"/>
<path d="M30.7443 78.0765C30.4072 77.7897 29.885 77.7383 29.488 77.5425C29.0589 77.3295 28.7507 76.9336 28.2499 76.9443C28.0091 76.9497 27.8904 77.2204 27.9011 77.4205C27.9321 77.9791 28.7197 78.344 29.1809 78.5013C29.6646 78.6661 30.3131 78.8213 30.754 78.4874C30.8963 78.3804 30.8653 78.1803 30.7433 78.0765H30.7443Z" fill="#DCDCDC"/>
<path d="M27.4574 75.9855C27.1803 75.3209 26.7993 74.6981 26.5125 74.0347C26.2043 73.3209 25.9336 72.5964 25.7271 71.8463C25.3247 70.3845 25.1332 68.8842 24.8175 67.4043C24.6934 66.8222 23.8523 66.9538 23.9058 67.5455C24.0513 69.1657 24.3563 70.7955 24.8079 72.3578C25.2188 73.78 25.7763 75.4119 26.917 76.4231C27.2006 76.6746 27.5869 76.2926 27.4585 75.9844L27.4574 75.9855Z" fill="#DCDCDC"/>
<path d="M26.5248 75.3732C26.2477 74.7086 25.8667 74.0858 25.5799 73.4224C25.2717 72.7086 25.001 71.9841 24.7945 71.234C24.3921 69.7722 24.2006 68.2719 23.8849 66.792C23.7607 66.2099 22.9196 66.3415 22.9731 66.9332C23.1187 68.5534 23.4237 70.1832 23.8752 71.7455C24.2862 73.1677 24.8437 74.7996 25.9844 75.8108C26.268 76.0623 26.6543 75.6803 26.5259 75.3721L26.5248 75.3732Z" fill="#1E1E22"/>
<path d="M30.0754 78.1802C29.7383 77.8934 29.2161 77.8421 28.8191 77.6463C28.39 77.4333 28.0818 77.0374 27.581 77.0481C27.3402 77.0534 27.2214 77.3242 27.2321 77.5243C27.2631 78.0829 28.0508 78.4478 28.512 78.6051C28.9957 78.7699 29.6441 78.925 30.085 78.5912C30.2273 78.4841 30.1963 78.284 30.0743 78.1802H30.0754Z" fill="#1E1E22"/>
<path d="M84.2411 33.4776C84.1566 34.7254 84.437 36.0234 84.6028 37.2562C84.7034 37.9999 85.8891 37.8169 85.7553 37.0774C85.5349 35.8522 85.4022 34.5306 84.9388 33.3695C84.8061 33.0378 84.2657 33.1191 84.2411 33.4776Z" fill="#1E1E22"/>
<path d="M89.3839 52.8549L65.7292 46.6954C62.1829 45.7719 58.9662 49.0336 59.94 52.5671L66.4334 76.1329C67.4072 79.6664 71.8396 80.82 74.4132 78.2111L78.9932 73.5658L84.6434 79.1367C87.1602 81.6183 91.2138 81.5905 93.6954 79.0725C96.177 76.5556 96.1491 72.5021 93.6312 70.0205L87.981 64.4495L91.5744 60.8047C94.147 58.1948 92.9303 53.7784 89.3839 52.8549Z" fill="white"/>
<path d="M89.3837 52.8549L65.729 46.6954C63.485 46.1111 61.3737 47.2026 60.3721 48.9779C62.0928 48.2684 63.6798 48.5755 64.9468 48.9276C66.9243 49.4776 74.2631 51.3557 80.4034 53.5633C84.6795 55.101 87.2756 56.4729 87.8695 57.543C88.1509 58.0502 86.9952 58.9909 85.8588 60.2664C84.5297 61.7571 83.2188 63.6223 83.7817 64.6999C84.4473 65.9744 87.7464 69.6523 90.0514 72.1521C91.3623 73.5732 91.8043 73.9584 92.0247 74.7717C92.1713 75.3132 92.1446 75.4983 91.3827 76.6358C90.5587 77.8675 89.0862 79.3956 86.5265 80.424C88.8946 81.4823 91.77 81.0297 93.6973 79.0735C96.1788 76.5556 96.151 72.5031 93.6331 70.0215L87.9829 64.4506L91.5763 60.8068C94.1489 58.1969 92.9321 53.7805 89.3858 52.857L89.3837 52.8549Z" fill="#DCDCDC"/>
<path d="M76.653 70.197C75.0435 69.9958 72.4089 73.3924 69.48 75.3143C68.4132 76.0141 67.0135 74.9622 65.6641 73.3421L66.4335 76.1329C67.4073 79.6664 71.8396 80.82 74.4132 78.211L78.9933 73.5657C78.9933 73.5657 79.0532 70.4977 76.653 70.1981V70.197Z" fill="#DCDCDC"/>
<path d="M90.4823 51.9432C82.7764 49.9956 74.1407 48.063 66.4852 45.9303C65.8955 45.7558 64.9956 45.6349 64.3771 45.6221C60.8297 45.5493 58.2411 48.7275 59.0373 52.4986C59.4856 54.6227 64.1941 71.6256 64.8629 74.12L65.5445 76.3683C65.9918 78.0859 67.4397 79.8483 69.1358 80.3823C70.9914 81.0169 73.4366 80.2999 74.8352 78.9195C74.8748 78.882 75.626 78.1169 75.626 78.1169C76.053 77.691 77.9096 75.6813 78.9883 74.6102C80.4918 76.1222 82.7583 78.4015 84.0306 79.6653C87.5716 83.2448 93.6155 82.1448 95.6712 77.5519C96.8023 75.0649 96.3175 71.952 94.4598 69.9584C94.2191 69.6748 93.4721 69.0103 93.2078 68.7556L91.562 67.2221C91.562 67.2221 89.3512 64.9257 88.8793 64.4891C90.0125 63.2595 91.3619 62.1466 92.4855 60.9107C96.2212 57.0957 93.9933 52.8196 90.4823 51.9443V51.9432ZM91.1094 60.9085C89.9836 61.9947 88.829 63.0915 87.6979 64.1691C87.5438 64.3157 87.5384 64.5597 87.685 64.7138C88.7038 65.785 91.3726 68.5887 92.3614 69.6149L93.1394 70.4271C93.2046 70.4924 93.2506 70.5512 93.3159 70.6187C94.8558 72.2912 95.2314 74.8702 94.2576 76.9087C93.1308 79.3571 90.2918 80.6916 87.6925 79.9714C86.8236 79.7413 86.0092 79.3026 85.3479 78.6915L85.258 78.6081L85.2131 78.5663L85.1628 78.5182L84.3581 77.7327C83.3297 76.7322 80.5635 74.0558 79.4998 73.0296C79.2087 72.7492 78.7454 72.7567 78.465 73.0478L75.1916 76.4347L74.3718 77.2801C74.161 77.4951 73.8122 77.8718 73.5843 78.0527C71.9973 79.4171 69.4686 79.2501 68.0293 77.7466C67.5521 77.2597 67.2043 76.6508 67.0117 75.9863C66.7227 74.99 61.6611 57.0733 61.2299 55.5944C61.1207 55.2305 60.5183 53.0636 60.4241 52.7629C60.2668 52.245 60.148 51.6896 60.1683 51.147C60.2122 48.476 62.7676 46.4247 65.3862 46.9362C73.3017 48.8313 81.4945 50.8303 89.3608 52.9309C92.9917 53.9314 93.9869 58.4879 91.1062 60.9085H91.1094Z" fill="#1E1E22"/>
<path d="M68.2619 65.6361C67.7461 66.2889 68.2073 67.0037 68.4727 67.6865C68.7435 68.382 69.0185 69.1065 69.4069 69.7464C69.8007 70.3949 70.858 69.985 70.6493 69.2306C70.4578 68.5404 70.1678 67.8716 69.9195 67.1996C69.6937 66.5864 69.5835 65.6426 68.8526 65.4724C68.6579 65.4275 68.3946 65.4692 68.2619 65.6372V65.6361Z" fill="#DCDCDC"/>
<path d="M63.4773 53.9755C63.548 54.7342 63.9054 55.4961 64.1493 56.2163C64.404 56.9664 64.6641 57.7155 64.9284 58.4635C65.182 59.1826 65.4495 59.8953 65.7331 60.6026C66.0263 61.3356 66.3206 62.1222 66.7294 62.7985C66.9819 63.2158 67.563 62.9333 67.4849 62.4849C67.3575 61.7498 67.0922 61.0082 66.8664 60.2976C66.6256 59.5432 66.372 58.7941 66.1162 58.0451C65.8701 57.326 65.6282 56.6047 65.3907 55.8824C65.1553 55.1665 65.0001 54.3168 64.617 53.6662C64.3259 53.1707 63.4185 53.3441 63.4773 53.9755Z" fill="#DCDCDC"/>
<path d="M67.133 64.9652C66.6172 65.618 67.0784 66.3328 67.3438 67.0156C67.6146 67.7111 67.8896 68.4356 68.278 69.0755C68.6718 69.724 69.7291 69.3141 69.5204 68.5597C69.3289 67.8695 69.0389 67.2007 68.7906 66.5287C68.5648 65.9155 68.4546 64.9717 67.7237 64.8015C67.529 64.7566 67.2657 64.7983 67.133 64.9663V64.9652Z" fill="#1E1E22"/>
<path d="M62.3475 53.3055C62.4181 54.0642 62.7755 54.8262 63.0195 55.5463C63.2742 56.2965 63.5342 57.0456 63.7985 57.7936C64.0521 58.5127 64.3197 59.2254 64.6033 59.9327C64.8965 60.6657 65.1907 61.4523 65.5995 62.1286C65.852 62.5459 66.4331 62.2634 66.355 61.815C66.2277 61.0799 65.9623 60.3383 65.7365 59.6277C65.4957 58.8733 65.2421 58.1242 64.9863 57.3752C64.7402 56.656 64.4984 55.9348 64.2608 55.2125C64.0254 54.4966 63.8702 53.6469 63.4871 52.9963C63.196 52.5008 62.2886 52.6742 62.3475 53.3055Z" fill="#1E1E22"/>
<path d="M84.0819 55.2371C84.5441 55.6544 85.0899 55.9947 85.6282 56.3061C86.1675 56.6186 86.7261 57.052 87.3724 56.8883C87.8369 56.7705 87.961 56.2772 87.7866 55.8866C87.5415 55.3366 86.8096 55.1536 86.2991 54.9118C85.7662 54.6592 85.2205 54.3971 84.6576 54.2205C84.0883 54.0418 83.6453 54.8411 84.084 55.2371H84.0819Z" fill="#DCDCDC"/>
<path d="M83.4255 55.9036C83.8878 56.3209 84.4335 56.6612 84.9718 56.9726C85.5111 57.2851 86.0697 57.7185 86.7161 57.5547C87.1805 57.437 87.3046 56.9437 87.1302 56.5531C86.8851 56.0031 86.1532 55.8201 85.6427 55.5782C85.1098 55.3257 84.5641 55.0635 84.0012 54.887C83.4383 54.7104 82.9889 55.5076 83.4276 55.9036H83.4255Z" fill="#1E1E22"/>
<path d="M86.9575 77.5798C86.6707 78.0399 87.0988 78.6724 87.4369 78.9634C87.9334 79.3915 88.5809 79.6162 89.224 79.4878C89.8061 79.3711 89.8564 78.3931 89.3053 78.1962C89.0442 78.102 88.7831 78.0795 88.522 77.9993C88.2994 77.9308 88.1025 77.8024 87.8971 77.6975C87.683 77.5884 87.1426 77.2834 86.9575 77.5809V77.5798Z" fill="#1E1E22"/>
</g>
</g>
<defs>
<radialGradient id="paint0_radial_2291_9768" cx="0" cy="0" r="1" gradientUnits="userSpaceOnUse" gradientTransform="translate(-50.5034 -1.92773) rotate(90) scale(133.538)">
<stop offset="0.265" stop-color="#D27C71"/>
<stop offset="1" stop-color="#D27C71" stop-opacity="0"/>
</radialGradient>
<radialGradient id="paint1_radial_2291_9768" cx="0" cy="0" r="1" gradientUnits="userSpaceOnUse" gradientTransform="translate(159.091 189.468) rotate(90) scale(189.216)">
<stop stop-color="#B68EFF"/>
<stop offset="1" stop-color="#B68EFF" stop-opacity="0"/>
</radialGradient>
<clipPath id="clip0_2291_9768">
<rect width="96" height="96" rx="48" fill="white"/>
</clipPath>
<clipPath id="clip1_2291_9768">
<rect width="96" height="96" fill="white"/>
</clipPath>
</defs>
</svg>
