<svg width="96" height="96" viewBox="0 0 96 96" fill="none" xmlns="http://www.w3.org/2000/svg">
<g clip-path="url(#clip0_2565_11792)">
<rect width="96" height="96" rx="48" fill="#8B47F4"/>
<mask id="mask0_2565_11792" style="mask-type:alpha" maskUnits="userSpaceOnUse" x="0" y="0" width="96" height="96">
<circle cx="48" cy="48" r="48" fill="#8B47F4"/>
</mask>
<g mask="url(#mask0_2565_11792)">
<circle cx="-50.5034" cy="-1.92773" r="133.538" fill="url(#paint0_radial_2565_11792)"/>
<circle cx="159.091" cy="189.468" r="189.216" fill="url(#paint1_radial_2565_11792)"/>
</g>
<g clip-path="url(#clip1_2565_11792)">
<mask id="mask1_2565_11792" style="mask-type:luminance" maskUnits="userSpaceOnUse" x="9" y="6" width="96" height="96">
<path d="M90.6858 6H23.3142C15.4087 6 9 12.4087 9 20.3142V87.6858C9 95.5913 15.4087 102 23.3142 102H90.6858C98.5913 102 105 95.5913 105 87.6858V20.3142C105 12.4087 98.5913 6 90.6858 6Z" fill="white"/>
</mask>
<g mask="url(#mask1_2565_11792)">
<path d="M65.3502 27.4292H21.7989C16.564 27.4292 12.3203 31.6729 12.3203 36.9078V63.9256C12.3203 69.1605 16.564 73.4042 21.7989 73.4042H65.3502C70.585 73.4042 74.8287 69.1605 74.8287 63.9256V36.9078C74.8287 31.6729 70.585 27.4292 65.3502 27.4292Z" fill="#F1F1F1"/>
<path d="M64.8659 74.8101C52.9105 74.7442 39.7428 73.6007 27.7205 73.7727C26.1385 73.7826 23.4129 73.8288 21.8407 73.8386C18.3993 73.9104 15.012 72.0314 13.2372 69.0738C12.3011 67.5448 11.7948 65.7563 11.7771 63.9628C11.7338 57.7201 11.665 47.0646 11.6335 40.8337L11.6168 37.6981C11.5942 36.6097 11.6325 35.4691 11.9098 34.4101C12.9491 29.9599 17.2223 26.5991 21.7984 26.6434C32.1707 26.5913 42.7682 26.4743 53.1573 26.4212C56.5761 26.4133 61.9309 26.4005 65.3084 26.4143C70.8578 26.3818 75.5735 30.8802 75.7151 36.4415C75.6915 41.6007 75.31 48.7361 75.7407 53.9031C75.9491 56.4035 75.8498 62.8498 75.7997 65.2981C75.7279 70.5732 70.8873 74.7973 65.6063 74.7373L64.8659 74.811V74.8101ZM65.3506 73.3057C69.5511 73.3224 73.3917 70.2831 74.3061 66.1879C74.5578 65.2066 74.5559 64.1417 74.5234 63.1349L74.4566 59.9993C74.2786 52.9002 74.0593 44.3508 73.9433 37.2645C74.0465 32.4387 70.1607 28.3906 65.3093 28.4457C61.9525 28.4595 56.5682 28.4477 53.1583 28.4388C42.7653 28.3926 32.1766 28.2618 21.7994 28.2166C17.9037 28.1389 14.2322 30.9736 13.307 34.7621C13.0425 35.6972 13.0199 36.7306 13.0248 37.6981C13.0169 39.6627 12.9845 45.0656 12.9747 47.1059C12.957 50.2749 12.8822 60.9639 12.8665 63.9589C12.8626 65.5635 13.2923 67.1633 14.1133 68.5457C15.6904 71.2359 18.709 72.9802 21.8407 72.9694C22.0511 72.9724 22.7866 72.9773 23.0166 72.9812C36.6957 73.1316 51.71 73.403 65.3506 73.3057Z" fill="#1E1E22"/>
<path d="M67.8562 24.2275H26.7533C21.8133 24.2275 17.8086 28.2322 17.8086 33.1722V58.6719C17.8086 63.6119 21.8133 67.6166 26.7533 67.6166H67.8562C72.7962 67.6166 76.8009 63.6119 76.8009 58.6719V33.1722C76.8009 28.2322 72.7962 24.2275 67.8562 24.2275Z" fill="white"/>
<path d="M67.856 24.2275H26.7541C26.7147 24.2275 26.6754 24.2275 26.6371 24.2285C25.8406 25.8676 25.524 27.7328 25.7915 29.8341C25.7915 29.8341 27.2555 41.9861 36.0753 48.2937L29.1444 55.144L28.6331 56.4566C28.6331 56.4566 29.0391 57.141 30.1925 56.7192C30.9496 56.4419 35.3546 52.4027 38.2876 49.6624C39.3043 50.1992 40.4016 50.6604 41.5865 51.0281C48.1005 53.0516 53.8191 52.0133 58.0373 50.3605C58.8534 51.3447 59.8602 52.5738 60.9516 53.9385C63.6762 57.3445 64.691 58.5116 64.691 58.5116C64.691 58.5116 65.6152 59.0219 66.4539 58.1311C67.2926 57.2403 66.6634 56.4016 65.8777 55.144C65.4746 54.499 63.282 51.5689 61.2397 48.8659C63.9869 47.3674 65.5631 45.9211 65.5631 45.9211C65.5631 45.9211 68.5984 44.0431 72.1155 40.052C71.8943 46.2682 71.9012 50.3575 71.4498 53.2571C70.1057 61.9039 66.977 62.0602 66.977 62.0602C66.977 62.0602 37.737 62.3748 27.229 62.0602C22.5467 61.9206 19.6294 60.6876 17.834 59.3641C18.188 63.9795 22.0462 67.6146 26.7521 67.6146H67.8551C72.7949 67.6146 76.7997 63.6098 76.7997 58.6699V33.1712C76.7997 28.2314 72.7949 24.2266 67.8551 24.2266L67.856 24.2275Z" fill="#F1F1F1"/>
<path d="M48.238 37.4111C45.1938 39.5841 42.2952 41.9557 39.4634 44.3972C36.6366 46.8337 33.8697 49.3478 31.2189 51.9751C30.4844 52.7027 29.7528 53.4342 29.0341 54.1776C28.6545 54.5699 28.2976 54.9858 27.9377 55.3968C27.6093 55.7724 27.218 56.1097 27.2308 56.6436C27.2357 56.8422 27.396 57.0153 27.6005 57.0133C28.0597 57.0084 28.3114 56.7527 28.6339 56.4578C28.9731 56.147 29.3143 55.8383 29.6525 55.5266C30.3487 54.8836 31.0124 54.2051 31.6957 53.5483C33.0428 52.2553 34.4016 50.9741 35.7792 49.7136C38.5116 47.2102 41.3238 44.7944 44.1988 42.4562C45.8231 41.1357 47.4652 39.8358 49.0983 38.5242C49.7207 38.0247 48.8948 36.9421 48.239 37.4102L48.238 37.4111Z" fill="#1E1E22"/>
<path d="M64.7277 57.5519C63.0994 55.1478 61.2558 52.8628 59.3975 50.6347C57.5519 48.4224 55.6287 46.2445 53.5579 44.2386C52.3967 43.1148 51.2866 41.8297 49.9622 40.8956C49.6485 40.6743 49.2188 41.1119 49.4322 41.4256C49.9376 42.164 50.5708 42.81 51.1588 43.4815C51.7635 44.1737 52.3613 44.8699 52.9434 45.5818C54.1056 47.0035 55.314 48.386 56.4674 49.8166C57.6188 51.2453 58.7623 52.6789 59.8911 54.1272C61.0051 55.5569 62.0572 57.0318 63.1594 58.4693C63.4573 58.8586 63.9421 59.0651 64.4032 58.7957C64.8064 58.5597 65.006 57.96 64.7297 57.5519H64.7277Z" fill="#1E1E22"/>
<path d="M72.6843 40.0705C72.5486 39.6969 71.9213 39.4904 71.7227 39.9446C71.4277 40.6182 71.2871 41.5188 71.2891 42.2514C71.292 43.3182 72.8603 43.2975 72.9321 42.2514C72.9783 41.5827 72.9144 40.7017 72.6853 40.0695L72.6843 40.0705Z" fill="#1E1E22"/>
<path d="M67.8551 24.2275H26.7531C24.6214 24.2275 22.6638 24.9738 21.127 26.2186C31.5799 43.9447 41.9198 52.4676 53.0434 48.0705C61.8366 44.5947 71.032 32.9844 74.9041 27.665C73.2669 25.5726 70.7183 24.2275 67.8551 24.2275Z" fill="white"/>
<path d="M46.1251 43.7754C45.9157 43.3742 45.4192 43.2494 45.0318 43.0911C44.8882 43.0321 44.7476 42.9623 44.607 42.8964C44.2973 42.7518 44.0633 42.6919 43.727 42.7096C43.1056 42.744 42.6493 43.4077 42.9974 43.9819C43.4104 44.6643 44.1675 44.858 44.9334 44.8658C45.4772 44.8717 46.5106 44.5138 46.1251 43.7754Z" fill="#F1F1F1"/>
<path d="M39.9162 39.686C39.2761 39.0862 38.6438 38.4815 38.045 37.8394C36.8681 36.5769 35.8917 35.1443 34.7187 33.8868C34.0845 33.2063 33.1179 34.0696 33.4916 34.8336C34.2703 36.4255 35.581 37.8139 36.8238 39.0606C37.4413 39.6801 38.0814 40.2887 38.7589 40.8423C39.0942 41.1166 39.4373 41.4136 39.808 41.6368C40.159 41.8482 40.633 42.1304 41.0508 41.976C41.2386 41.9072 41.3379 41.7725 41.3556 41.5758C41.392 41.1668 41.0735 40.858 40.8257 40.5709C40.5494 40.2504 40.2229 39.9751 39.9142 39.686H39.9162Z" fill="#F1F1F1"/>
<path d="M67.8553 24.2275H60.1112C62.3294 25.3278 63.4493 26.2875 62.8908 27.0052C61.7906 28.4201 51.7289 40.3677 45.7556 43.0451C41.9878 44.7333 36.5317 43.4128 33.0156 42.2083C39.5326 48.5493 46.1371 50.8019 53.0435 48.0714C61.8368 44.5956 71.0322 32.9854 74.9042 27.666C73.2671 25.5736 70.7185 24.2285 67.8553 24.2285V24.2275Z" fill="#F1F1F1"/>
<path d="M44.8361 43.9214C44.6267 43.5202 44.1301 43.3954 43.7427 43.2371C43.5992 43.1781 43.4585 43.1082 43.3179 43.0424C43.0082 42.8978 42.7742 42.8379 42.4379 42.8556C41.8165 42.89 41.3603 43.5537 41.7084 44.1279C42.1213 44.8103 42.8784 45.004 43.6444 45.0118C44.1881 45.0177 45.2215 44.6598 44.8361 43.9214Z" fill="#1E1E22"/>
<path d="M38.4884 38.9897C37.8483 38.3899 37.2161 37.7852 36.6173 37.1431C35.4403 35.8806 34.464 34.448 33.2909 33.1905C32.6567 32.5101 31.6902 33.3734 32.0638 34.1373C32.8426 35.7292 34.1533 37.1176 35.3961 38.3643C36.0136 38.9838 36.6537 39.5924 37.3311 40.146C37.6664 40.4203 38.0096 40.7173 38.3803 40.9405C38.7313 41.1519 39.2052 41.4341 39.6231 41.2797C39.8109 41.2109 39.9102 41.0762 39.9279 40.8795C39.9643 40.4705 39.6457 40.1617 39.3979 39.8746C39.1216 39.5541 38.7952 39.2788 38.4865 38.9897H38.4884Z" fill="#1E1E22"/>
<path d="M75.0875 27.5223C73.3402 25.3847 70.6156 24.0976 67.8556 24.1349C56.0576 24.2441 44.2624 23.8006 32.4654 23.7308L26.556 23.6787C24.2788 23.6856 22.0537 24.5843 20.3359 26.07L20.6024 26.5292C22.8845 30.4563 25.3623 34.3234 28.1794 37.9005C34.1693 45.5217 42.7915 53.0111 53.0822 49.083C58.3957 47.0428 63.0151 42.7489 66.7534 38.5996C69.7848 35.2083 72.5133 31.5447 75.0924 27.8035L75.1946 27.654L75.0875 27.5232V27.5223ZM65.7397 37.6291C63.606 39.7116 61.3927 41.6968 59.0103 43.4834C57.0949 44.9013 55.1028 46.1785 52.9062 47.0821C48.1945 49.0358 43.4463 48.4646 39.0856 45.8963C31.6945 41.453 26.4252 33.6125 21.9367 26.364C23.2798 25.3896 24.9159 24.8291 26.5796 24.7839L32.4663 24.7229C44.2634 24.6531 56.0585 24.2087 67.8566 24.3188C70.4671 24.3247 73.0275 25.5911 74.6125 27.6619C71.884 31.177 68.9126 34.5112 65.7397 37.6281V37.6291Z" fill="#1E1E22"/>
<path d="M67.3983 68.9439C56.1155 68.882 43.7412 69.0324 32.3955 69.1947C30.9029 69.2035 27.7673 68.9577 26.2836 68.9665C23.0349 69.0344 19.5109 67.1642 17.8354 64.3728C16.9515 62.9303 16.8669 60.2765 16.8502 58.5834C16.8089 52.6917 16.8227 42.8061 16.7932 36.9262V33.4721C16.7716 32.4455 16.9122 30.0297 17.1727 29.0307C18.154 24.8302 22.0969 22.7821 26.4163 22.8244C36.2056 22.7752 46.5445 23.3259 56.3485 23.2757C59.5746 23.2688 64.6285 23.256 67.8162 23.2688C73.054 23.2383 77.5042 27.484 77.6369 32.7327C77.6143 37.6017 77.2545 44.336 77.6605 49.212C77.8572 51.5718 77.7628 57.6562 77.7156 59.9658C77.6478 64.945 73.0796 68.9311 68.0954 68.8741L67.3964 68.9439H67.3983ZM67.8555 67.5241C71.82 67.5398 75.4443 64.6717 76.3076 60.8075C76.5455 59.8823 76.5436 58.8764 76.5121 57.9266L76.4492 54.967C76.281 48.2671 76.0736 40.1985 75.9644 33.5104C76.0618 28.956 72.3942 25.136 67.8162 25.1872C64.6482 25.1999 59.5667 25.1891 56.3485 25.1803C46.5406 25.137 36.5468 25.0131 26.7536 24.9699C23.0772 24.8961 19.6122 27.5716 18.7391 31.1476C18.4893 32.0296 18.4687 33.005 18.4726 33.9185C18.4647 35.7729 18.4342 40.872 18.4254 42.7972C18.4087 45.7883 18.3379 55.8755 18.3231 58.7024C18.3192 60.2176 18.7253 61.7268 19.5001 63.0306C20.9887 65.5694 23.8372 67.2164 26.7929 67.2055C26.9915 67.2085 27.6857 67.2134 27.903 67.2173C40.8131 67.3589 54.9828 67.6156 67.8565 67.5231L67.8555 67.5241Z" fill="#1E1E22"/>
<path d="M23.2623 50.199C23.0509 49.7919 22.3312 49.7516 22.1326 50.199C21.8238 50.8952 21.9644 51.8332 22.0028 52.5824C22.0431 53.3562 21.99 54.252 22.2417 54.9914C22.4069 55.4761 23.109 55.5106 23.2614 54.9914C23.4816 54.2392 23.4206 53.3612 23.4501 52.5824C23.4787 51.8499 23.6075 50.8666 23.2623 50.199Z" fill="#F1F1F1"/>
<path d="M22.4088 49.5462C22.1974 49.1391 21.4777 49.0988 21.2791 49.5462C20.9703 50.2423 21.1109 51.1804 21.1493 51.9296C21.1896 52.7034 21.1365 53.5992 21.3882 54.3386C21.5534 54.8233 22.2554 54.8577 22.4078 54.3386C22.6281 53.5864 22.5671 52.7083 22.5966 51.9296C22.6251 51.1971 22.7539 50.2138 22.4088 49.5462Z" fill="#1E1E22"/>
<path d="M79.2845 46.5366C79.3996 51.8855 79.5431 57.5078 79.667 62.4329L79.7339 65.5685C79.7663 66.5753 79.7683 67.6412 79.5166 68.6215C78.6021 72.7167 74.7616 75.756 70.5611 75.7393C66.518 75.7678 62.3549 75.7648 58.1406 75.7412C58.3697 76.1542 58.6116 76.5573 58.8682 76.9516C62.6724 77.104 66.4304 77.225 70.0754 77.2446L70.8158 77.1709C76.0968 77.2309 80.9374 73.0068 81.0091 67.7316C81.0593 65.2833 81.1586 58.8371 80.9502 56.3367C80.7181 53.5512 80.722 50.1924 80.7791 46.8798C80.2874 46.747 79.7889 46.632 79.2835 46.5366H79.2845Z" fill="#1E1E22"/>
<path d="M75.5691 46.1895C64.5714 46.1895 55.6562 55.1046 55.6562 66.1023C55.6562 69.6391 56.5795 72.9595 58.196 75.8375H70.5624C75.7972 75.8375 80.041 71.5938 80.041 66.359V46.6929C78.6034 46.3635 77.1069 46.1885 75.5701 46.1885L75.5691 46.1895Z" fill="#F1F1F1"/>
<path d="M75.5691 46.1895C64.5714 46.1895 55.6562 55.1046 55.6562 66.1023C55.6562 67.4543 55.7919 68.7748 56.0486 70.0511H73.0677C78.0076 70.0511 82.0124 66.0463 82.0124 61.1064V47.2563C79.9918 46.5651 77.8237 46.1904 75.5691 46.1904V46.1895Z" fill="white"/>
<path d="M77.2092 46.2563C77.0882 50.4283 77.0155 53.4243 76.6635 55.6926C75.3194 64.3394 72.1906 64.4957 72.1906 64.4957C72.1906 64.4957 64.5704 64.5773 55.7113 64.6157C55.6749 65.1063 55.6562 65.6019 55.6562 66.1014C55.6562 67.4533 55.7919 68.7738 56.0486 70.0501H73.0677C78.0076 70.0501 82.0124 66.0453 82.0124 61.1054V47.2553C80.4864 46.7342 78.8768 46.393 77.2092 46.2563Z" fill="#F1F1F1"/>
<path d="M73.4785 46.2983C67.9506 46.8755 63.0963 49.7142 59.8555 53.8723C61.0718 53.5754 62.2074 53.2047 63.2506 52.7957C64.0667 53.7799 65.0736 55.009 66.165 56.3737C68.8896 59.7797 69.9043 60.9469 69.9043 60.9469C69.9043 60.9469 70.8286 61.4572 71.6673 60.5663C72.506 59.6755 71.8767 58.8368 71.0911 57.5792C70.688 56.9342 68.4953 54.0041 66.4531 51.3011C69.2003 49.8027 70.7765 48.3563 70.7765 48.3563C70.7765 48.3563 71.8581 47.6867 73.4785 46.2983Z" fill="#F1F1F1"/>
<path d="M61.6761 52.2515C62.8275 53.6802 63.971 55.1138 65.0998 56.5621C66.2138 57.9918 67.2659 59.4666 68.3681 60.9042C68.666 61.2935 69.1508 61.5 69.6119 61.2306C70.0151 60.9946 70.2147 60.3948 69.9384 59.9868C68.3101 57.5827 66.4665 55.2976 64.6082 53.0706C63.9936 52.3341 63.3702 51.6026 62.736 50.8789C62.3044 51.2427 61.8875 51.6242 61.4883 52.0234C61.5512 52.1001 61.6141 52.1758 61.6771 52.2535L61.6761 52.2515Z" fill="#1E1E22"/>
<path d="M81.6618 57.3995L81.7247 60.3591C81.7552 61.3099 81.7572 62.3148 81.5202 63.24C80.6569 67.1052 77.0326 69.9733 73.0681 69.9566C67.557 69.9959 61.8089 69.9714 56.0234 69.9193C56.1208 70.4227 56.2378 70.9192 56.3725 71.4079C61.8787 71.3646 67.3623 71.3479 72.6099 71.3764L73.309 71.3066C78.2932 71.3637 82.8614 67.3775 82.9292 62.3983C82.9764 60.0877 83.0708 54.0043 82.8741 51.6445C82.7679 50.3682 82.7148 48.9641 82.6932 47.5011C82.2714 47.3388 81.8417 47.1913 81.4071 47.0576C81.4907 50.617 81.5812 54.1675 81.6628 57.3985L81.6618 57.3995Z" fill="#1E1E22"/>
<path d="M90.0946 48.986C80.2464 40.9036 65.7119 42.3353 57.6295 52.1835C49.5472 62.0318 50.9788 76.5663 60.8271 84.6486C69.2103 91.5284 80.9897 91.5127 89.2943 85.2808L109.244 101.654C111.591 103.58 115.055 103.239 116.981 100.892C118.907 98.5449 118.566 95.0819 116.219 93.1557L96.2685 76.7826C100.761 67.422 98.4778 55.8658 90.0946 48.986ZM86.9571 76.2526C81.7468 82.6015 72.3754 83.5247 66.0265 78.3135C59.6777 73.1032 58.7544 63.7318 63.9646 57.383C69.1749 51.0341 78.5463 50.1108 84.8952 55.3211C91.244 60.5314 92.1673 69.9027 86.9571 76.2516V76.2526Z" fill="white"/>
<path d="M93.7881 52.8022C94.3092 54.6242 95.1106 56.9988 95.6307 60.862C96.5442 67.6445 93.9277 73.1762 94.0201 74.6324C94.1126 76.0886 96.2688 76.7838 96.2688 76.7838C100.009 68.9896 99.0515 59.6742 93.7871 52.8032L93.7881 52.8022Z" fill="#F1F1F1"/>
<path d="M113.427 99.2845C113.427 99.2845 91.6888 80.7944 90.3339 80.7944C88.979 80.7944 85.8581 85.2083 74.5389 86.5415C67.6414 87.3537 61.5098 84.2073 57.7715 81.6253C58.679 82.7069 59.6967 83.7206 60.8274 84.6488C69.2107 91.5286 80.99 91.5129 89.2946 85.281L109.245 101.654C111.592 103.58 115.055 103.239 116.981 100.892C117.294 100.512 117.545 100.102 117.739 99.6729C115.509 101.049 113.426 99.2845 113.426 99.2845H113.427Z" fill="#F1F1F1"/>
<path d="M64.8558 78.7127C68.5833 81.7214 71.7051 81.9308 73.6618 81.5818C70.95 81.2534 68.2952 80.1757 66.0268 78.3135C59.678 73.1032 58.7547 63.7318 63.965 57.3829C69.1752 51.0341 78.5466 50.1108 84.8955 55.321C84.9663 55.3791 85.0351 55.4381 85.1039 55.497C82.0509 49.4205 66.7849 48.0872 61.4636 55.9936C55.6338 64.6551 58.4558 73.5486 64.8548 78.7127H64.8558Z" fill="#F1F1F1"/>
<path d="M94.334 84.1786C94.3183 83.745 94.103 83.508 93.7549 83.2877C93.4786 83.1117 93.2023 82.9544 92.8955 82.8384C92.2299 82.5867 91.6979 83.4185 92.2377 83.9042C92.4305 84.0773 92.634 84.2494 92.807 84.4421C93.0401 84.7007 93.2318 84.8629 93.5936 84.8757C94.0204 84.8895 94.3498 84.6319 94.3331 84.1796L94.334 84.1786Z" fill="#1E1E22"/>
<path d="M98.2324 86.8302C97.5224 86.3022 96.8145 85.7644 96.0466 85.3219C95.5107 85.0132 95.1774 85.7968 95.5255 86.1666C96.1223 86.8008 96.8057 87.3514 97.4703 87.9108C98.1006 88.4418 98.7574 89.1783 99.5076 89.5234C100.104 89.7977 100.765 89.0426 100.344 88.5037C99.8164 87.8273 98.9206 87.3406 98.2324 86.8293V86.8302Z" fill="#1E1E22"/>
<path d="M78.0071 48.7727C78.5666 48.988 79.1674 49.0677 79.7504 49.1984C80.3335 49.3292 80.9067 49.4639 81.478 49.6281C82.0414 49.7894 82.592 49.9939 83.1318 50.223C83.6549 50.4442 84.2862 50.9073 84.8545 50.928C85.3973 50.9477 85.8505 50.4 85.4985 49.8946C85.1288 49.3627 84.3206 49.1001 83.7346 48.8661C83.1269 48.6232 82.4996 48.4246 81.8674 48.2565C80.6855 47.9419 79.2264 47.6813 78.0297 48.0402C77.7033 48.1385 77.6915 48.6518 78.0061 48.7727H78.0071Z" fill="#F1F1F1"/>
<path d="M77.6087 47.8455C78.1682 48.0608 78.7689 48.1404 79.352 48.2712C79.9321 48.401 80.5083 48.5367 81.0796 48.7009C81.643 48.8621 82.1936 49.0667 82.7334 49.2958C83.2732 49.5249 83.8877 49.9801 84.4561 50.0008C84.9988 50.0204 85.4521 49.4727 85.1001 48.9673C84.7304 48.4354 83.9222 48.1729 83.3361 47.9389C82.7285 47.696 82.1012 47.4974 81.4689 47.3292C80.2871 47.0146 78.8279 46.754 77.6313 47.1129C77.3049 47.2113 77.2931 47.7245 77.6077 47.8455H77.6087Z" fill="#1E1E22"/>
<path d="M86.4537 72.5679C86.7762 72.4834 86.9473 72.1756 87.1469 71.9259C87.3465 71.6761 87.5067 71.4313 87.6532 71.1579C87.9728 70.5611 88.1852 69.9239 88.3395 69.2661C88.6375 67.9948 88.6739 66.516 88.312 65.2545C88.0839 64.459 86.8027 64.7668 86.9089 65.578C87.0643 66.7677 87.1449 67.8493 86.9227 69.041C86.8214 69.5818 86.67 70.1216 86.4861 70.6407C86.3839 70.9298 86.2963 71.2248 86.1872 71.5109C86.084 71.7823 85.9365 71.975 85.9807 72.2729C86.0161 72.5138 86.2285 72.6279 86.4537 72.5689V72.5679Z" fill="#1E1E22"/>
<path d="M57.3617 72.1885C56.9831 71.1482 56.4866 70.1649 56.2713 69.0686C56.0559 67.9723 56.0599 66.8868 56.2742 65.813C56.4758 64.8052 54.8682 64.4581 54.7325 65.4571C54.5565 66.7501 54.6046 68.0549 54.9488 69.3183C55.2703 70.5022 55.8042 71.7617 56.7639 72.5631C57.0264 72.7823 57.4954 72.5542 57.3627 72.1894L57.3617 72.1885Z" fill="#F1F1F1"/>
<path d="M56.1221 62.7917C56.3453 62.5695 56.3739 62.2352 56.486 61.9511C56.5892 61.6875 56.717 61.4604 56.9078 61.25C57.2342 60.8901 57.185 60.3287 56.7888 60.0426C56.3925 59.7564 55.838 59.8774 55.605 60.308C55.3788 60.7259 55.2392 61.1694 55.1989 61.6433C55.1674 62.0199 55.1999 62.5646 55.5302 62.8085C55.717 62.9461 55.9461 62.9668 56.1221 62.7908V62.7917Z" fill="#F1F1F1"/>
<path d="M56.5726 71.7256C56.1941 70.6853 55.6975 69.702 55.4822 68.6057C55.2708 67.531 55.2708 66.4239 55.4851 65.3501C55.6867 64.3423 54.0791 63.9952 53.9434 64.9942C53.7674 66.2872 53.8156 67.592 54.1597 68.8554C54.4812 70.0393 55.0152 71.2988 55.9748 72.1002C56.2373 72.3194 56.7063 72.0913 56.5736 71.7265L56.5726 71.7256Z" fill="#1E1E22"/>
<path d="M55.3311 62.3286C55.5543 62.1064 55.5828 61.7721 55.6949 61.4879C55.7982 61.2244 55.926 60.9973 56.1168 60.7869C56.4432 60.427 56.394 59.8656 55.9978 59.5795C55.6084 59.2982 55.047 59.4143 54.8139 59.8449C54.5878 60.2628 54.4482 60.7063 54.4079 61.1802C54.3764 61.5568 54.4088 62.1015 54.7392 62.3454C54.926 62.483 55.1551 62.5037 55.3311 62.3277V62.3286Z" fill="#1E1E22"/>
<path d="M116.88 92.3914C111.42 87.9372 105.626 83.2786 100.075 78.9306C100.075 78.9306 97.6907 77.0615 97.0781 76.5806C101.19 67.0205 98.9404 54.7573 90.802 48.2492C81.2399 40.4785 66.5294 41.6309 57.8729 50.4222C56.3734 51.9442 54.403 55.2254 53.6527 57.0119C53.638 57.0473 50.5555 63.5555 51.9035 71.0774C52.9851 77.1116 56.8001 82.6198 61.7882 86.1821C68.3091 90.9381 77.2803 91.9125 84.7068 88.7838C86.2987 88.1211 87.8385 87.2745 89.2564 86.2854C95.6809 91.6156 102.215 97.0903 108.638 102.431C111.358 104.71 115.534 104.286 117.77 101.54C120.044 98.8327 119.633 94.5968 116.879 92.3904L116.88 92.3914ZM116.191 100.244C115.084 101.63 113.133 102.225 111.439 101.713C110.876 101.547 110.345 101.274 109.885 100.901C103.392 95.6489 96.2493 89.9027 89.8001 84.665C89.5238 84.4359 89.1158 84.4182 88.8159 84.6433C78.6893 92.2822 64.2994 89.9863 56.9968 79.6327C54.7245 76.4273 53.3322 72.5926 52.99 68.6802C52.3332 61.6411 55.0962 54.5921 60.3182 49.8165C68.6483 42.1972 81.3313 41.8531 90.0331 49.0633C95.9513 53.8881 99.024 61.8476 97.9139 69.3921C97.5698 71.8748 96.8068 74.2867 95.675 76.499C95.5443 76.7547 95.5993 77.0772 95.8274 77.2729C96.8884 78.1804 99.7359 80.6346 100.753 81.5008C105.544 85.5981 110.747 89.944 115.591 93.9518C117.479 95.5073 117.746 98.3607 116.192 100.246L116.191 100.244Z" fill="#1E1E22"/>
<path d="M68.0388 52.9314C60.567 56.9991 57.6605 66.6567 61.8374 74.0979C63.7754 77.6357 67.145 80.3445 71.0347 81.4025C76.7838 83.0288 83.2517 80.8991 87.0313 76.3132C90.2485 72.5178 91.5808 67.1522 90.3439 62.3018C87.8946 52.5588 76.715 48.0624 68.0378 52.9304L68.0388 52.9314ZM86.7461 75.6121C81.707 81.9482 72.4093 83.1429 66.3377 77.9336C59.5248 72.2425 59.5729 61.4828 66.5491 55.9569C74.3591 49.8243 85.7108 53.483 89.0391 62.6971C90.7116 67.1739 89.7923 71.8886 86.7452 75.6121H86.7461Z" fill="#1E1E22"/>
</g>
</g>
</g>
<defs>
<radialGradient id="paint0_radial_2565_11792" cx="0" cy="0" r="1" gradientUnits="userSpaceOnUse" gradientTransform="translate(-50.5034 -1.92773) rotate(90) scale(133.538)">
<stop offset="0.265" stop-color="#D27C71"/>
<stop offset="1" stop-color="#D27C71" stop-opacity="0"/>
</radialGradient>
<radialGradient id="paint1_radial_2565_11792" cx="0" cy="0" r="1" gradientUnits="userSpaceOnUse" gradientTransform="translate(159.091 189.468) rotate(90) scale(189.216)">
<stop stop-color="#B68EFF"/>
<stop offset="1" stop-color="#B68EFF" stop-opacity="0"/>
</radialGradient>
<clipPath id="clip0_2565_11792">
<rect width="96" height="96" rx="48" fill="white"/>
</clipPath>
<clipPath id="clip1_2565_11792">
<rect width="96" height="96" fill="white"/>
</clipPath>
</defs>
</svg>
