<svg width="96" height="96" viewBox="0 0 96 96" fill="none" xmlns="http://www.w3.org/2000/svg">
<g clip-path="url(#clip0_2565_10375)">
<rect width="96" height="96" rx="48" fill="#8B47F4"/>
<mask id="mask0_2565_10375" style="mask-type:alpha" maskUnits="userSpaceOnUse" x="0" y="0" width="96" height="96">
<circle cx="48" cy="48" r="48" fill="#8B47F4"/>
</mask>
<g mask="url(#mask0_2565_10375)">
<circle cx="-50.5034" cy="-1.92773" r="133.538" fill="url(#paint0_radial_2565_10375)"/>
<circle cx="159.091" cy="189.468" r="189.216" fill="url(#paint1_radial_2565_10375)"/>
</g>
<g clip-path="url(#clip1_2565_10375)">
<path d="M55.5924 102.547V15.3472C55.5924 12.7348 53.4748 10.6172 50.8625 10.6172H44.7241C42.1118 10.6172 39.9941 12.7348 39.9941 15.3472V102.547H55.5924Z" fill="#F1F1F1"/>
<path d="M45.0516 86.8535C44.9302 86.3668 44.2109 86.382 44.0803 86.8535C43.876 87.5941 43.9154 88.4065 43.879 89.1694C43.8436 89.908 43.7566 90.6668 43.7819 91.4054C43.8132 92.316 45.0729 92.2765 45.169 91.4054C45.2499 90.6718 45.2024 89.9059 45.1933 89.1694C45.1832 88.4065 45.2368 87.5991 45.0506 86.8535H45.0516Z" fill="#1E1E22"/>
<path d="M52.3108 88.5611C52.1742 88.1493 51.5226 88.0896 51.4144 88.5611C51.2778 89.154 51.2667 89.7479 51.2586 90.3519C51.2495 90.959 51.2333 91.5903 51.3415 92.1893C51.4862 92.9845 52.6204 92.7265 52.674 92.0092C52.7165 91.4426 52.6345 90.8406 52.589 90.275C52.5425 89.6922 52.4969 89.1206 52.3108 88.5621V88.5611Z" fill="#1E1E22"/>
<path d="M48.3013 95.8955C48.2132 95.3896 47.4058 95.4119 47.3006 95.8955C47.1691 96.5036 47.1843 97.1309 47.1833 97.7501C47.1833 98.3723 47.1539 99.0158 47.2632 99.6289C47.3917 100.35 48.4287 100.119 48.4743 99.465C48.5158 98.8711 48.4247 98.2509 48.4055 97.655C48.3863 97.0661 48.4035 96.4783 48.3023 95.8965L48.3013 95.8955Z" fill="#1E1E22"/>
<path d="M46.4586 51.5097C46.317 51.3428 45.9972 51.3448 45.8556 51.5097C45.4529 51.9792 45.5025 52.6955 45.4752 53.2853C45.4438 53.9693 45.3618 54.6644 45.4559 55.3443C45.551 56.0323 46.7459 56.0302 46.8431 55.3443C46.9392 54.6654 46.8603 53.9683 46.8319 53.2853C46.8066 52.6914 46.8613 51.9832 46.4586 51.5097Z" fill="#1E1E22"/>
<path d="M52.8582 51.073C52.8349 50.4174 52.8116 49.7648 52.7661 49.1102C52.7226 48.491 52.667 47.8779 52.5789 47.2637C52.5081 46.774 52.5304 46.0547 52.0892 45.742C52.0265 45.6975 51.9294 45.7188 51.8778 45.7694C51.5307 46.1133 51.6309 46.7548 51.6056 47.2071C51.5692 47.8738 51.5399 48.5385 51.5136 49.2053C51.4883 49.8285 51.4771 50.4497 51.4721 51.073C51.468 51.6517 51.3365 52.3933 51.6511 52.9022C51.8909 53.2918 52.5233 53.3403 52.7509 52.9022C53.0332 52.3599 52.8794 51.6669 52.8582 51.073Z" fill="#1E1E22"/>
<path d="M48.7082 21.4353C48.6667 20.5338 48.7476 19.5321 48.5442 18.6519C48.4006 18.0307 47.5477 18.1116 47.3656 18.6519C47.0722 19.521 47.1339 20.6218 47.1622 21.5314C47.1764 21.9836 47.2006 22.4359 47.235 22.8881C47.2755 23.4072 47.2715 23.9464 47.5204 24.4118C47.8128 24.9602 48.695 24.8327 48.8447 24.2388C48.9581 23.7876 48.8549 23.3444 48.8114 22.8881C48.7658 22.4045 48.7314 21.9199 48.7092 21.4342L48.7082 21.4353Z" fill="#1E1E22"/>
<path d="M52.0675 18.0481C52.2132 17.438 52.0453 16.7399 51.9916 16.1197C51.94 15.5278 51.9643 14.8914 51.7852 14.3208C51.6436 13.8706 51.0163 13.8726 50.8736 14.3208C50.6925 14.8904 50.729 15.5288 50.7198 16.1197C50.7107 16.7237 50.6116 17.4785 50.8291 18.0481C51.0386 18.5975 51.9087 18.7159 52.0675 18.0481Z" fill="#1E1E22"/>
<path d="M44.0405 19.6313C44.2438 19.1973 44.2003 18.7946 44.1902 18.3252C44.1801 17.8223 44.167 17.3195 44.1548 16.8176C44.1336 15.9404 44.2681 14.8184 43.9606 13.9867C43.8068 13.5719 43.2736 13.575 43.1188 13.9867C42.8062 14.8184 42.9357 15.9404 42.9093 16.8176C42.8952 17.2871 42.881 17.7555 42.8689 18.225C42.8557 18.7258 42.797 19.1679 43.0105 19.6313C43.1906 20.0229 43.8584 20.0198 44.0395 19.6313H44.0405Z" fill="#1E1E22"/>
<path d="M56.2475 15.5374C56.2495 15.3107 56.2292 15.0294 56.2161 14.8038C56.2019 14.7138 56.1513 14.3728 56.1321 14.2676C55.7254 12.3898 54.3686 10.864 52.5414 10.2661C51.993 10.09 51.4153 10.004 50.8447 10L47.7912 10.0142L44.7377 10.0283C44.0305 10.0314 43.3101 10.1892 42.6525 10.4553C40.9173 11.2101 39.6961 12.8248 39.4756 14.7067C39.427 33.2563 39.6526 59.4831 39.7032 78.1217C39.7032 78.1217 39.3916 102.617 39.3926 102.617C39.3926 102.706 39.9025 102.709 39.9925 102.708L56.3932 102.86C56.8576 74.0008 56.4599 44.4483 56.2475 15.5363V15.5374ZM40.4772 102.388C40.6219 75.9383 40.4398 43.4457 40.5419 17.0631C40.5531 16.5957 40.5227 15.2804 40.5854 14.8423C40.6674 14.1806 40.9223 13.526 41.3028 12.9796C41.7479 12.3351 42.3914 11.8363 43.1067 11.5247C43.6248 11.3203 44.1792 11.207 44.7397 11.207C46.2614 11.2101 49.324 11.2343 50.8457 11.2354C51.4032 11.2414 51.9485 11.3608 52.4604 11.5672C53.7019 12.1126 54.5831 13.2012 54.8583 14.5276L54.9049 14.8534L54.917 14.9343L54.92 15.0163L54.9271 15.1812C54.9433 16.1019 54.8694 27.9284 54.8705 29.189C54.831 53.5319 54.8462 78.1075 55.2185 102.494C55.2185 102.494 40.7969 102.39 40.4762 102.387L40.4772 102.388Z" fill="#1E1E22"/>
<path d="M80.0594 69.503C81.14 70.1212 81.14 71.6793 80.0594 72.2965L62.1958 82.5081C61.1234 83.1213 59.9093 83.444 58.6749 83.444H24.8023C19.8791 83.444 15.8887 79.4526 15.8887 74.5304V67.27C15.8887 62.3468 19.8801 58.3564 24.8023 58.3564H58.6749C59.9103 58.3564 61.1244 58.6792 62.1958 59.2923L80.0594 69.504V69.503Z" fill="white"/>
<path d="M75.1802 66.7884L72.5506 65.2849C71.1848 68.2393 71.1979 71.1845 71.3841 72.9217L64.406 74.067C64.3918 74.0377 64.3787 74.0083 64.3635 73.979C63.7919 72.8933 62.3936 73.1584 63.7362 70.8729C64.1601 70.1505 64.0478 69.6466 63.8617 69.339C63.9133 69.165 63.4438 67.5553 63.1352 67.181C62.3349 66.2097 63.5349 64.9531 64.1065 63.9393C64.5446 63.1612 64.1591 62.0949 63.9558 61.6406C64.0367 61.4271 64.0691 61.2581 64.0772 61.1539C64.1055 60.7826 62.9157 60.2039 62.1629 59.5827C62.1629 59.5827 62.7912 60.6966 62.3339 61.3542C61.8766 62.0119 59.4767 62.5259 59.7347 64.4391C59.8673 65.4246 60.3701 65.9497 60.8274 66.2269C61.0298 66.3493 61.6034 67.3226 61.828 67.7921C62.0577 68.2706 62.1902 68.8251 61.7916 69.1063C61.0014 69.6638 58.8919 71.7521 60.8325 73.3901C60.8325 73.3901 60.8325 72.8063 61.6479 71.9635C61.2918 72.9126 61.9626 74.0832 61.9626 74.0832C61.9626 74.0832 62.6486 74.6477 61.9909 75.7334C61.3343 76.819 60.4935 76.8949 59.0487 76.9232C57.9753 76.9444 33.8529 76.1745 33.8529 76.1745L33.7497 58.3574H29.7543L28.957 83.445H58.5439C59.7792 83.445 60.9933 83.1222 62.0648 82.5091L63.1939 81.8636L76.3245 74.3574C76.3245 74.3574 75.0487 68.4922 75.1792 66.7884H75.1802ZM61.2797 65.8981C61.2857 65.9082 61.2898 65.9163 61.2898 65.9213C61.2867 65.9132 61.2837 65.9051 61.2797 65.8981Z" fill="#F1F1F1"/>
<path d="M26.7901 58.3564C26.5543 62.7151 26.185 69.3512 26.0555 70.6948C25.7126 74.2653 22.9323 77.3654 18.78 77.3127C17.402 77.2955 16.4944 76.7775 15.8965 76.0936C16.6351 80.2711 20.2835 83.444 24.6735 83.444H26.8589L28.6456 58.3564H26.7891H26.7901Z" fill="#F1F1F1"/>
<path d="M30.5962 58.3564H25.3594V83.444H30.5962V58.3564Z" fill="#F1F1F1"/>
<path d="M80.2477 68.8381C74.2732 65.4719 68.4334 62.1969 62.5358 58.6962C61.4583 58.0588 59.8577 58.1165 58.6031 58.0901C49.6076 57.8949 33.8879 57.8595 24.7133 57.7512C20.4072 57.6672 16.4442 60.7076 15.3788 64.8831C15.1309 65.8139 15.05 66.7923 15.0611 67.7524C15.0591 68.6286 15.0237 73.0247 15.0206 73.8038C14.7019 78.8676 18.1035 83.3072 23.1279 84.1763C23.7592 84.2856 24.4401 84.318 25.0714 84.3169C32.5281 84.3999 40.007 84.4181 47.4616 84.3554C51.0888 84.325 54.7261 84.2633 58.3542 84.1733C59.6634 84.1682 60.92 83.6441 62.1463 83.1858C63.3837 82.7234 64.8558 81.999 66.7549 80.8365C71.071 78.1958 75.7443 75.2809 80.0767 72.7232C81.1785 72.0393 81.3657 69.4643 80.2477 68.8381ZM78.9617 72.1799C76.0033 73.8483 73.0611 75.8121 70.0491 77.436C67.9315 78.5732 64.7415 80.3114 62.2788 81.4355C61.6182 81.7572 60.1744 82.3258 59.451 82.4067C59.0685 82.4503 58.3057 82.4796 57.908 82.4634C54.2809 82.3723 51.0878 82.5636 47.4616 82.5322C40.006 82.4705 32.5291 82.4877 25.0714 82.5707C24.4917 82.5838 23.9625 82.5686 23.396 82.4867C19.4713 81.9494 16.4361 78.3638 16.5029 74.4058C16.5049 74.0203 16.4836 72.9873 16.4877 72.5907C16.4978 71.7489 16.4189 67.3447 16.4796 66.596C16.5575 65.4821 16.8752 64.3833 17.3932 63.3948C18.7753 60.7126 21.6871 58.942 24.7133 58.9603C28.221 58.9299 45.7943 58.8055 48.9186 58.7609C51.3336 58.7276 56.2316 58.934 58.6224 59.0382C59.3984 59.0726 60.402 59.0533 61.1558 59.2567C61.6131 59.3801 61.8691 59.4884 62.2131 59.6756C68.2209 62.982 73.9545 66.1407 79.8865 69.5807C80.8719 70.1493 79.93 71.6103 78.9638 72.1789L78.9617 72.1799Z" fill="#1E1E22"/>
<path d="M31.1879 57.9205C29.047 57.9528 26.9163 57.7525 24.7754 57.795C24.9049 66.0186 25.1386 75.2752 25.3005 83.5018C26.81 83.6171 29.0956 83.8377 30.594 83.8974L31.021 83.9227L31.0473 83.4451C31.4712 75.0961 31.1879 57.9215 31.1879 57.9215V57.9205ZM25.9207 58.9373C27.2522 58.9595 28.5837 58.9767 29.9151 58.995C29.9455 60.12 30.0972 64.417 30.1205 69.149C30.1458 74.3453 29.815 80.0345 29.9688 82.9645C28.4521 83.0657 27.924 83.2438 26.4549 83.35C26.6026 75.5625 25.7872 66.7632 25.9207 58.9373Z" fill="#1E1E22"/>
<path d="M17.6243 73.7279C17.4311 74.3643 17.3876 75.2637 17.8014 75.8303C18.0149 76.1227 18.2648 76.2087 18.6138 76.1611C19.1774 76.0843 19.1814 75.371 19.0368 74.9733C18.8901 74.5686 18.7706 74.1447 18.6654 73.7279C18.5319 73.1967 17.7731 73.2311 17.6223 73.7279H17.6243Z" fill="#F1F1F1"/>
<path d="M16.9837 73.0521C16.7905 73.6885 16.747 74.5879 17.1608 75.1545C17.3743 75.4469 17.6242 75.5329 17.9732 75.4854C18.5368 75.4085 18.5408 74.6952 18.3961 74.2976C18.2494 73.8929 18.13 73.4689 18.0248 73.0521C17.8913 72.5209 17.1324 72.5553 16.9817 73.0521H16.9837Z" fill="#1E1E22"/>
<path d="M18.1498 77.3744C18.4139 78.9608 19.5814 80.1162 20.7156 81.1543C21.4036 81.7846 22.4356 80.7557 21.7415 80.1284C21.2255 79.661 20.6994 79.1915 20.2502 78.6573C19.8091 78.1342 19.4813 77.5474 19.1514 76.9515C18.8307 76.3727 18.0527 76.7936 18.1488 77.3744H18.1498Z" fill="#1E1E22"/>
<path d="M51.3865 77.9777C52.9678 78.004 54.5624 77.8947 56.1265 78.1466C56.5697 78.2184 56.7073 79.1179 56.1023 79.2039C54.533 79.4265 52.9668 79.3081 51.3855 79.3354C49.8031 79.3617 48.2197 79.3698 46.6363 79.3698C43.4371 79.3688 40.2369 79.3982 37.0377 79.3617C36.1312 79.3516 36.1302 77.9635 37.0377 77.9534C40.2369 77.9169 43.4371 77.9463 46.6363 77.9453C48.2187 77.9453 49.8031 77.9534 51.3855 77.9797L51.3865 77.9777Z" fill="#F1F1F1"/>
<path d="M57.5972 70.6014C56.7179 70.737 55.7831 70.655 54.8937 70.653C53.9427 70.651 53.9407 69.1768 54.8937 69.1748C55.7831 69.1728 56.7179 69.0908 57.5972 69.2264C58.2781 69.3316 58.2781 70.4962 57.5972 70.6014Z" fill="#F1F1F1"/>
<path d="M51.808 70.6535C48.8496 70.6464 45.8923 70.6464 42.9349 70.612C41.4557 70.5948 39.9765 70.5867 38.4983 70.5604C37.7931 70.5483 36.9433 70.6363 36.2391 70.5857C35.7069 70.5472 34.9906 70.6332 34.6516 70.1456C34.6132 70.0899 34.5909 69.7297 34.6294 69.6741C34.9552 69.2056 35.6836 69.3088 36.1966 69.2714C36.9342 69.2178 37.7587 69.2795 38.4983 69.2684C39.9775 69.2461 41.4567 69.234 42.9349 69.2168C45.8923 69.1824 48.8507 69.1824 51.808 69.1753C52.7591 69.1733 52.7611 70.6555 51.808 70.6535Z" fill="#F1F1F1"/>
<path d="M38.2109 64.5186C37.5887 64.5065 36.9331 64.549 36.3108 64.5186C35.5935 64.4842 35.5713 63.3359 36.2896 63.3005C36.9108 63.2701 37.5887 63.3237 38.2109 63.3116C38.9869 63.2964 38.989 64.5328 38.2109 64.5176V64.5186Z" fill="#F1F1F1"/>
<path d="M40.838 63.319C43.4312 63.2249 46.0213 63.233 48.6154 63.231C49.8943 63.231 51.1742 63.2421 52.454 63.2552C53.7299 63.2684 55.0512 63.2512 56.2896 63.5588C56.6417 63.6458 56.6417 64.184 56.2896 64.2721C55.0816 64.5725 53.7997 64.5574 52.5552 64.5746C51.243 64.5928 49.9287 64.5999 48.6154 64.5999C46.0213 64.5989 43.4312 64.6059 40.838 64.5118C40.0701 64.4835 40.0691 63.3463 40.838 63.319Z" fill="#F1F1F1"/>
<path d="M50.9822 77.1681C52.5635 77.1944 54.1581 77.0851 55.7222 77.337C56.1654 77.4089 56.303 78.3083 55.698 78.3943C54.1287 78.6169 52.5625 78.4985 50.9812 78.5259C49.3988 78.5522 47.8154 78.5603 46.232 78.5603C43.0328 78.5592 39.8326 78.5886 36.6334 78.5522C35.7269 78.542 35.7259 77.1539 36.6334 77.1438C39.8326 77.1074 43.0328 77.1367 46.232 77.1357C47.8144 77.1357 49.3988 77.1438 50.9812 77.1701L50.9822 77.1681Z" fill="#1E1E22"/>
<path d="M57.1909 69.7918C56.3117 69.9274 55.3768 69.8455 54.4875 69.8434C53.5364 69.8414 53.5344 68.3673 54.4875 68.3653C55.3768 68.3632 56.3117 68.2813 57.1909 68.4169C57.8718 68.5221 57.8718 69.6866 57.1909 69.7918Z" fill="#1E1E22"/>
<path d="M51.4037 69.8439C48.4453 69.8368 45.488 69.8368 42.5306 69.8024C41.0514 69.7852 39.5722 69.7771 38.094 69.7508C37.3888 69.7387 36.539 69.8267 35.8348 69.7761C35.3026 69.7377 34.5863 69.8237 34.2473 69.336C34.2089 69.2804 34.1866 68.9202 34.2251 68.8645C34.5509 68.3961 35.2793 68.4993 35.7923 68.4618C36.5299 68.4082 37.3544 68.4699 38.094 68.4588C39.5732 68.4365 41.0524 68.4244 42.5306 68.4072C45.488 68.3728 48.4464 68.3728 51.4037 68.3657C52.3548 68.3637 52.3568 69.8459 51.4037 69.8439Z" fill="#1E1E22"/>
<path d="M37.8047 63.709C37.1824 63.6969 36.5268 63.7394 35.9046 63.709C35.1873 63.6746 35.165 62.5263 35.8834 62.4909C36.5046 62.4605 37.1824 62.5142 37.8047 62.502C38.5807 62.4868 38.5827 63.7232 37.8047 63.708V63.709Z" fill="#1E1E22"/>
<path d="M40.4337 62.5094C43.0269 62.4153 45.617 62.4234 48.2111 62.4214C49.49 62.4214 50.7699 62.4325 52.0497 62.4457C53.3256 62.4588 54.6469 62.4416 55.8853 62.7492C56.2374 62.8362 56.2374 63.3745 55.8853 63.4625C54.6773 63.763 53.3954 63.7478 52.1509 63.765C50.8387 63.7832 49.5244 63.7903 48.2111 63.7903C45.617 63.7893 43.0269 63.7964 40.4337 63.7023C39.6658 63.6739 39.6648 62.5367 40.4337 62.5094Z" fill="#1E1E22"/>
<path d="M73.3391 65.7349L79.9307 69.5027C81.0112 70.1209 81.0112 71.679 79.9307 72.2962L73.4311 76.0113C72.991 73.2654 72.6652 69.4217 73.3381 65.7339L73.3391 65.7349Z" fill="#1E1E22"/>
<path d="M62.0681 59.2909L64.8251 60.8672C64.8545 61.0423 64.8646 61.2214 64.8494 61.4055C64.7877 62.1653 64.3901 62.823 63.8953 63.3855C63.4633 63.8772 62.8987 64.2445 62.491 64.7585C62.1632 65.1713 62.0489 65.6478 62.2927 66.1334C62.5851 66.7122 63.2184 66.7304 63.7182 67.0481C64.9799 67.8474 64.7745 69.5259 63.9702 70.567C63.4258 71.2701 61.5116 72.5551 62.664 73.4768C63.1314 73.8501 63.6586 74.1283 63.9864 74.6504C64.3536 75.2342 64.3779 75.9637 64.1422 76.6001C63.9044 77.2446 63.4845 77.799 63.0262 78.3029C62.6205 78.7501 62.0468 79.3075 62.0134 79.951C61.9801 80.6046 62.6772 80.8768 63.1557 81.1388C63.3702 81.2562 63.5786 81.3867 63.7709 81.5344L62.7004 82.1465C61.7656 81.7095 60.7923 81.3027 60.6992 80.0937C60.5828 78.5922 61.9082 77.6978 62.5871 76.5404C62.8967 76.0112 62.9685 75.5357 62.4576 75.127C61.9831 74.7465 61.4377 74.4794 61.0948 73.9543C60.2307 72.6289 61.1808 71.2185 62.1207 70.2634C62.5092 69.8688 63.0646 69.3872 63.0353 68.7741C63.009 68.2258 62.146 68.1752 61.7615 67.9192C60.5768 67.131 60.167 65.5739 60.7761 64.3001C61.0654 63.6951 61.5632 63.2145 62.0438 62.7612C62.4404 62.3869 63.0738 61.8891 63.1082 61.2912C63.1395 60.7509 62.5122 60.3077 62.1925 59.9425C61.9457 59.6602 61.7362 59.3628 61.5824 59.041C61.7474 59.1189 61.9092 59.2029 62.0681 59.2929V59.2909Z" fill="#1E1E22"/>
<path d="M67.2274 65.8231C67.6372 66.2026 68.1815 66.4272 68.6914 66.6427C69.2216 66.8663 69.8044 67.2204 70.373 67.3104C71.0175 67.4126 71.3119 66.6801 70.804 66.2875C70.3548 65.9405 69.6688 65.5945 69.1498 65.3719C68.6267 65.1473 68.1319 64.8761 67.5643 64.8721C66.9644 64.867 66.9988 65.6117 67.2264 65.8231H67.2274Z" fill="#F1F1F1"/>
<path d="M67.0399 65.0321C67.4497 65.4115 67.994 65.6362 68.5039 65.8517C69.0341 66.0753 69.6169 66.4294 70.1855 66.5194C70.83 66.6216 71.1244 65.8891 70.6165 65.4965C70.1673 65.1495 69.4813 64.8035 68.9623 64.5809C68.4392 64.3563 67.9444 64.0851 67.3768 64.0811C66.7769 64.076 66.8113 64.8207 67.0389 65.0321H67.0399Z" fill="#1E1E22"/>
<path d="M15.9862 34.1368C14.9056 34.755 14.9056 36.3131 15.9862 36.9302L33.8498 47.1419C34.9223 47.755 36.1364 48.0778 37.3707 48.0778H71.2434C76.1666 48.0778 80.157 44.0864 80.157 39.1642V31.9038C80.157 26.9806 76.1656 22.9902 71.2434 22.9902H37.3707C36.1354 22.9902 34.9213 23.313 33.8498 23.9261L15.9862 34.1378V34.1368Z" fill="white"/>
<path d="M32.165 32.5411C32.165 32.5411 30.8993 33.3818 31.0612 35.2263C31.2231 37.0707 32.8368 37.2235 32.765 39.3846C32.765 39.3846 33.9457 38.6511 34.4476 37.5847C34.9504 36.5183 33.3296 35.1726 32.7468 34.6647C32.165 34.1568 32.165 32.54 32.165 32.54V32.5411Z" fill="#F1F1F1"/>
<path d="M31.479 25.7583C31.479 25.7583 30.3843 26.8126 31.0602 28.0429C31.736 29.2732 33.5997 30.1099 33.2405 31.758C32.8813 33.4062 34.3504 31.2936 34.5437 30.3689C34.7369 29.4441 33.974 28.0914 33.2405 27.6108C32.507 27.1302 31.479 25.7583 31.479 25.7583Z" fill="#F1F1F1"/>
<path d="M32.0792 40.6455C32.228 42.0084 31.9932 41.717 28.9944 41.0128C25.9945 40.3086 24.5234 37.585 24.5234 37.585C23.9083 35.3571 22.8651 32.5414 22.8651 32.5414L21.4972 30.9873L15.9862 34.1379C14.9056 34.7561 14.9056 36.3142 15.9862 36.9314L32.8684 46.5815C33.9874 45.8429 34.7837 45.0072 34.3081 44.13C33.5938 42.8127 32.0802 40.6466 32.0802 40.6466L32.0792 40.6455Z" fill="#F1F1F1"/>
<path d="M33.5705 35.4042C33.5705 35.4042 32.8734 34.5037 34.4467 33.7732C36.02 33.0427 36.1333 30.5791 34.5722 29.7646C34.5722 29.7646 35.6851 30.1653 33.9438 31.6587C32.2016 33.151 31.206 33.1378 33.5705 35.4042Z" fill="#F1F1F1"/>
<path d="M79.822 41.5834C72.4321 43.5918 60.0633 42.7024 60.0633 42.7024C60.0633 42.7024 39.6187 42.8127 38.1618 42.6984C36.7049 42.5841 34.648 41.5268 34.991 39.8989C35.3339 38.2709 34.4456 37.585 34.4456 37.585C34.4456 37.585 33.6605 38.6544 32.7631 39.3849C31.8646 40.1154 32.4008 41.116 33.5694 42.6842C34.738 44.2524 34.1775 45.415 33.5694 46.0605C33.445 46.193 33.2558 46.4125 33.0352 46.6776L33.8477 47.142C34.9201 47.7552 36.1342 48.0779 37.3686 48.0779H71.2412C75.3257 48.0779 78.7677 45.331 79.823 41.5834H79.822Z" fill="#F1F1F1"/>
<path d="M70.5572 22.9902H65.3203V48.0778H70.5572V22.9902Z" fill="#F1F1F1"/>
<path d="M76.9882 38.7656C75.9957 40.9085 73.9873 41.2697 73.4916 40.6454C73.0777 40.1244 72.924 27.3429 72.8835 23.141C72.3513 23.0419 71.8029 22.9893 71.2414 22.9893H68.1515L68.5876 32.5838C68.5876 32.5838 67.8095 41.3618 67.5586 48.0768H71.2414C76.1646 48.0768 80.155 44.0864 80.155 39.1632V32.5403C80.155 30.3721 79.38 27.7465 78.093 26.2016C79.5662 31.6428 77.8836 36.8311 76.9872 38.7656H76.9882Z" fill="#F1F1F1"/>
<path d="M78.2458 29.2489C77.9817 27.6625 76.8141 26.5071 75.68 25.469C74.992 24.8387 73.96 25.8676 74.6541 26.4949C75.17 26.9624 75.6962 27.4318 76.1454 27.966C76.5865 28.4891 76.9143 29.0759 77.2442 29.6718C77.5649 30.2506 78.3429 29.8297 78.2468 29.2489H78.2458Z" fill="#F1F1F1"/>
<path d="M45.7179 42.7286C44.1365 42.7549 42.5419 42.6457 40.9778 42.8976C40.5346 42.9694 40.397 43.8689 41.0021 43.9549C42.5713 44.1775 44.1375 44.0591 45.7189 44.0864C47.3013 44.1127 48.8847 44.1208 50.4681 44.1208C53.6672 44.1198 56.8674 44.1491 60.0666 44.1127C60.9732 44.1026 60.9742 42.7145 60.0666 42.7043C56.8674 42.6679 53.6672 42.6973 50.4681 42.6963C48.8857 42.6963 47.3013 42.7043 45.7189 42.7307L45.7179 42.7286Z" fill="#F1F1F1"/>
<path d="M39.5068 35.3524C40.386 35.488 41.3209 35.406 42.2102 35.404C43.1613 35.402 43.1633 33.9278 42.2102 33.9258C41.3209 33.9238 40.386 33.8418 39.5068 33.9774C38.8259 34.0826 38.8259 35.2472 39.5068 35.3524Z" fill="#F1F1F1"/>
<path d="M45.2961 35.4044C48.2545 35.3974 51.2118 35.3974 54.1692 35.363C55.6484 35.3458 57.1276 35.3377 58.6057 35.3114C59.3109 35.2992 60.1608 35.3873 60.865 35.3367C61.3972 35.2982 62.1135 35.3842 62.4524 34.8965C62.4909 34.8409 62.5131 34.4807 62.4747 34.4251C62.1489 33.9566 61.4204 34.0598 60.9075 34.0224C60.1699 33.9688 59.3453 34.0305 58.6057 34.0194C57.1265 33.9971 55.6474 33.985 54.1692 33.9678C51.2118 33.9334 48.2534 33.9334 45.2961 33.9263C44.345 33.9242 44.343 35.4065 45.2961 35.4044Z" fill="#F1F1F1"/>
<path d="M58.8953 29.2691C59.5175 29.257 60.1731 29.2995 60.7954 29.2691C61.5127 29.2347 61.5349 28.0864 60.8166 28.0509C60.1954 28.0206 59.5175 28.0742 58.8953 28.0621C58.1193 28.0469 58.1172 29.2833 58.8953 29.2681V29.2691Z" fill="#F1F1F1"/>
<path d="M56.2653 28.0695C53.6721 27.9754 51.082 27.9835 48.4879 27.9814C47.209 27.9814 45.9292 27.9926 44.6493 28.0057C43.3735 28.0189 42.1968 28.0664 40.7692 28.1514C40.407 28.1727 40.3422 29.2846 40.8117 29.3504C42.1968 29.5426 43.3239 29.4768 44.5683 29.494C45.8806 29.5122 47.1746 29.3504 48.4879 29.3504C51.082 29.3493 53.6721 29.3564 56.2653 29.2623C57.0332 29.234 57.0342 28.0968 56.2653 28.0695Z" fill="#F1F1F1"/>
<path d="M71.299 24.591C71.299 24.1782 71.2878 23.3789 71.2797 22.9651C71.2726 22.5735 71.0855 22.438 70.6939 22.444L69.2653 22.4825C69.2653 22.4825 66.1562 22.4744 65.2719 22.5189C64.9735 22.5341 64.7519 22.6879 64.7559 22.9894C64.7923 26.1147 64.8824 32.4078 64.9299 35.5332C64.9755 39.1957 64.8854 44.2242 64.9421 47.9454C64.9411 48.0435 65.2244 48.255 65.3225 48.254C66.8756 48.2287 69.411 48.2398 70.9792 48.2024C71.4345 40.4301 71.3577 32.4169 71.298 24.591H71.299ZM66.1613 47.8311C66.1208 42.4586 65.7292 35.0455 65.8082 29.2613L65.882 23.5813C66.9889 23.6288 68.1656 23.6662 69.2502 23.6875C69.2502 23.6875 69.5426 23.6926 69.8269 23.6976C69.8269 23.734 69.8258 23.7573 69.8258 23.7573C70.0474 40.7275 69.8865 39.5559 69.6468 47.9059C68.1949 47.8715 67.6384 47.8584 66.1613 47.8311Z" fill="#1E1E22"/>
<path d="M78.9474 33.4549C79.1406 32.8185 79.1841 31.919 78.7703 31.3524C78.5568 31.06 78.3069 30.974 77.9579 31.0216C77.3943 31.0985 77.3903 31.8118 77.535 32.2094C77.6817 32.6141 77.8011 33.038 77.9063 33.4549C78.0398 33.986 78.7987 33.9516 78.9494 33.4549H78.9474Z" fill="#1E1E22"/>
<path d="M77.3142 29.0658C77.0501 27.4794 75.8825 26.324 74.7483 25.2859C74.0603 24.6556 73.0283 25.6845 73.7224 26.3118C74.2384 26.7793 74.7645 27.2487 75.2137 27.7829C75.6549 28.306 75.9827 28.8928 76.3125 29.4887C76.6423 30.0847 77.4113 29.6466 77.3152 29.0658H77.3142Z" fill="#1E1E22"/>
<path d="M45.212 42.0201C43.6306 42.0464 42.0361 41.9372 40.4719 42.1891C40.0288 42.2609 39.8912 43.1604 40.4962 43.2464C42.0654 43.469 43.6316 43.3506 45.213 43.3779C46.7954 43.4042 48.3788 43.4123 49.9622 43.4123C53.1614 43.4113 56.3616 43.4406 59.5608 43.4042C60.4673 43.3941 60.4683 42.006 59.5608 41.9958C56.3616 41.9594 53.1614 41.9888 49.9622 41.9878C48.3798 41.9878 46.7954 41.9958 45.213 42.0222L45.212 42.0201Z" fill="#1E1E22"/>
<path d="M39.0009 34.6449C39.8801 34.7804 40.815 34.6985 41.7044 34.6965C42.6554 34.6944 42.6574 33.2203 41.7044 33.2183C40.815 33.2163 39.8801 33.1343 39.0009 33.2699C38.32 33.3751 38.32 34.5396 39.0009 34.6449Z" fill="#1E1E22"/>
<path d="M44.7902 34.6964C47.7486 34.6894 50.706 34.6894 53.6633 34.655C55.1425 34.6378 56.6217 34.6297 58.0999 34.6034C58.8051 34.5912 59.655 34.6792 60.3591 34.6287C60.8913 34.5902 61.6076 34.6762 61.9466 34.1885C61.985 34.1329 62.0073 33.7727 61.9688 33.7171C61.6431 33.2486 60.9146 33.3518 60.4016 33.3144C59.6641 33.2608 58.8395 33.3225 58.0999 33.3113C56.6207 33.2891 55.1415 33.2769 53.6633 33.2597C50.706 33.2253 47.7476 33.2253 44.7902 33.2183C43.8392 33.2162 43.8371 34.6985 44.7902 34.6964Z" fill="#1E1E22"/>
<path d="M58.3875 28.5606C59.0097 28.5485 59.6653 28.591 60.2875 28.5606C61.0049 28.5262 61.0271 27.3779 60.3088 27.3424C59.6876 27.3121 59.0097 27.3657 58.3875 27.3536C57.6114 27.3384 57.6094 28.5748 58.3875 28.5596V28.5606Z" fill="#1E1E22"/>
<path d="M55.7594 27.361C53.1663 27.2669 50.5762 27.275 47.982 27.2729C46.7032 27.2729 45.4233 27.2841 44.1434 27.2972C42.8676 27.3104 41.6909 27.3579 40.2633 27.4429C39.9011 27.4642 39.8364 28.5761 40.3058 28.6419C41.6909 28.8341 42.818 28.7683 44.0625 28.7855C45.3747 28.8037 46.6688 28.6419 47.982 28.6419C50.5762 28.6408 53.1663 28.6479 55.7594 28.5538C56.5273 28.5255 56.5284 27.3883 55.7594 27.361Z" fill="#1E1E22"/>
<path d="M22.5778 30.3677L15.9862 34.1355C14.9056 34.7537 14.9056 36.3118 15.9862 36.929L22.4857 40.6441C22.9258 37.8982 23.2517 34.0546 22.5788 30.3667L22.5778 30.3677Z" fill="#1E1E22"/>
<path d="M33.8489 23.9247L31.0918 25.501C31.0625 25.6761 31.0524 25.8551 31.0675 26.0393C31.1293 26.7991 31.5269 27.4568 32.0216 28.0193C32.4537 28.511 33.0182 28.8783 33.426 29.3923C33.7538 29.805 33.8681 30.2816 33.6243 30.7672C33.3319 31.346 32.6985 31.3642 32.1987 31.6819C30.937 32.4811 31.1424 34.1597 31.9468 35.2008C32.4911 35.9039 34.4053 37.1889 33.253 38.1106C32.7855 38.4839 32.2584 38.7621 31.9306 39.2842C31.5633 39.868 31.539 40.5975 31.7748 41.2339C32.0125 41.8784 32.4324 42.4328 32.8907 42.9367C33.2965 43.3839 33.8701 43.9413 33.9035 44.5848C33.9369 45.2384 33.2398 45.5106 32.7612 45.7726C32.5467 45.89 32.3383 46.0205 32.1461 46.1682L33.2165 46.7803C34.1514 46.3432 35.1247 45.9365 35.2178 44.7275C35.3341 43.226 34.0087 42.3316 33.3299 41.1742C33.0203 40.645 32.9484 40.1695 33.4594 39.7607C33.9339 39.3803 34.4792 39.1132 34.8222 38.5881C35.6862 37.2627 34.7362 35.8523 33.7963 34.8972C33.4077 34.5026 32.8523 34.021 32.8816 33.4079C32.9079 32.8595 33.771 32.809 34.1554 32.553C35.3402 31.7648 35.75 30.2077 35.1409 28.9339C34.8515 28.3289 34.3537 27.8483 33.8732 27.395C33.4765 27.0207 32.8432 26.5229 32.8088 25.925C32.7774 25.3847 33.4047 24.9415 33.7244 24.5763C33.9713 24.294 34.1807 23.9965 34.3345 23.6748C34.1696 23.7527 34.0077 23.8367 33.8489 23.9267V23.9247Z" fill="#1E1E22"/>
<path d="M80.8951 38.4357C80.8738 37.6334 80.8779 33.2869 80.8546 32.3844C80.8678 31.4242 80.7848 30.4469 80.5369 29.515C79.4746 25.3405 75.5044 22.2992 71.2024 22.3832C62.1027 22.455 46.4619 22.0756 37.5352 22.2435C36.2806 22.2708 34.6992 22.2344 33.6217 22.8718C27.7242 26.3715 21.9147 30.6907 15.9402 34.0568C14.806 34.6912 14.8182 36.2847 15.8755 37.001C19.9944 39.7935 24.9418 43.1545 29.2499 45.8114C30.459 46.5429 32.272 47.669 33.4781 48.3823C34.6183 49.0258 36.2523 48.7991 37.5605 48.8052C41.1876 48.8953 44.8269 48.957 48.4531 48.9873C55.9087 49.0501 63.3856 49.0308 70.8433 48.9489C71.4756 48.9499 72.1555 48.9175 72.7869 48.8083C77.8123 47.9402 81.2138 43.4945 80.8941 38.4357H80.8951ZM79.428 37.2256C79.42 37.6192 79.424 38.6623 79.4129 39.0407C79.4766 43.0078 76.4484 46.5783 72.5198 47.1217C71.9542 47.2046 71.424 47.2188 70.8443 47.2056C63.3876 47.1227 55.9087 47.1045 48.4541 47.1672C44.8269 47.1985 41.1897 47.2582 37.5615 47.3493C37.1649 47.3635 36.8371 47.3574 36.4546 47.3149C35.7312 47.234 34.593 47.2775 33.9323 46.9557C31.7975 45.8296 27.7262 43.104 25.7088 41.7755C22.6947 39.7915 21.1953 38.7564 18.7671 36.4425C17.9415 35.6554 16.9955 35.2264 19.2244 33.7857C24.9833 30.0634 27.9447 27.4146 33.9526 24.1082C34.2966 23.921 34.6537 23.7591 35.023 23.6337C35.7606 23.3787 36.5406 23.2512 37.3177 23.2583L42.1569 23.3322C44.5679 23.3635 49.4274 23.4293 51.8394 23.4455L71.2035 23.5963C74.6181 23.5649 77.8457 25.8413 78.9748 29.0527C79.2561 29.8398 79.42 30.6755 79.4544 31.5102C79.4705 32.0242 79.4291 36.5994 79.428 37.2267V37.2256Z" fill="#1E1E22"/>
<path d="M30.2316 41.0632C30.0495 40.6717 29.7217 40.6231 29.3423 40.5139C28.9791 40.4096 28.6159 40.2943 28.2628 40.1597C27.9299 40.0333 27.6041 39.8876 27.2864 39.7287C26.9637 39.5679 26.6419 39.3686 26.2676 39.4131C26.0531 39.4384 25.9054 39.5992 25.9549 39.8228C26.1118 40.5301 27.1094 40.9934 27.6911 41.2929C28.2719 41.5924 29.4172 42.2763 30.0333 41.8241C30.2934 41.6329 30.3723 41.3597 30.2337 41.0612L30.2316 41.0632Z" fill="#1E1E22"/>
</g>
</g>
<defs>
<radialGradient id="paint0_radial_2565_10375" cx="0" cy="0" r="1" gradientUnits="userSpaceOnUse" gradientTransform="translate(-50.5034 -1.92773) rotate(90) scale(133.538)">
<stop offset="0.265" stop-color="#D27C71"/>
<stop offset="1" stop-color="#D27C71" stop-opacity="0"/>
</radialGradient>
<radialGradient id="paint1_radial_2565_10375" cx="0" cy="0" r="1" gradientUnits="userSpaceOnUse" gradientTransform="translate(159.091 189.468) rotate(90) scale(189.216)">
<stop stop-color="#B68EFF"/>
<stop offset="1" stop-color="#B68EFF" stop-opacity="0"/>
</radialGradient>
<clipPath id="clip0_2565_10375">
<rect width="96" height="96" rx="48" fill="white"/>
</clipPath>
<clipPath id="clip1_2565_10375">
<rect width="96" height="96" fill="white"/>
</clipPath>
</defs>
</svg>
