<svg width="64" height="65" viewBox="0 0 64 65" fill="none" xmlns="http://www.w3.org/2000/svg">
<g clip-path="url(#clip0_457_81320)">
<rect y="0.5" width="64" height="64" rx="32" fill="#8B47F4"/>
<mask id="mask0_457_81320" style="mask-type:alpha" maskUnits="userSpaceOnUse" x="0" y="0" width="64" height="65">
<circle cx="32" cy="32.5" r="32" fill="#8B47F4"/>
</mask>
<g mask="url(#mask0_457_81320)">
<circle cx="-33.6693" cy="-0.785118" r="89.0251" fill="url(#paint0_radial_457_81320)"/>
<circle cx="106.061" cy="126.812" r="126.144" fill="url(#paint1_radial_457_81320)"/>
</g>
<g clip-path="url(#clip1_457_81320)">
<path d="M25.7827 69.2473C25.7827 69.2473 25.4924 54.4054 29.2029 49.7775L39.7707 49.955C39.7707 49.955 42.6907 60.3317 43.7604 68.098L25.7827 69.248V69.2473Z" fill="white"/>
<path d="M37.2679 67.3095C35.6818 67.9347 32.2629 68.3442 32.2629 68.3442L31.6493 68.8722L43.7604 68.0974C42.6914 60.3317 39.7707 49.9544 39.7707 49.9544L29.2029 49.7769C25.4924 54.4041 25.7827 69.2467 25.7827 69.2467L30.7799 68.9273L30.0788 57.4745C31.1757 57.6598 32.5337 56.9147 33.0371 56.629L34.2169 56.8894C34.2169 56.8894 37.2238 57.7071 39.7791 56.892C39.8083 60.0816 39.7953 65.1157 39.4351 65.73C39.2744 66.004 38.8533 66.6843 37.2672 67.3095H37.2679Z" fill="#DCDCDC"/>
<path d="M38.3141 62.3841C38.0329 61.5179 36.9917 59.5807 36.2752 58.4035C36.2803 58.2177 36.3015 58.1048 36.3386 58.0646C36.6626 57.7154 37.8094 55.1731 37.959 54.4999C38.1087 53.8267 37.3358 52.4059 36.4384 52.082C35.5411 51.758 31.7768 52.4558 31.4023 54.9236C31.4023 54.9236 33.4737 57.915 33.8838 58.1897C33.9674 58.2454 34.1054 58.2875 34.2745 58.3167C33.5501 59.5107 32.3547 61.5419 32.0813 62.3841C31.6822 63.6125 33.5436 66.3454 34.1423 66.99C34.4455 67.3166 34.7643 67.4811 35.1977 67.4811C35.6311 67.4811 35.9506 67.3166 36.2531 66.99C36.8511 66.3454 38.7125 63.6125 38.3141 62.3841Z" fill="#DCDCDC"/>
<path d="M36.814 61.943C36.4745 60.8973 34.7148 58.02 34.1985 57.1855C34.1985 57.1836 34.1985 57.1816 34.1985 57.1797H33.1975C33.1975 57.1797 33.1975 57.1836 33.1975 57.1855C32.6805 58.02 30.9214 60.8973 30.5819 61.943C30.1828 63.1714 32.0442 65.9042 32.6429 66.5489C32.9461 66.8754 33.2649 67.04 33.6983 67.04C34.1317 67.04 34.4512 66.8754 34.7537 66.5489C35.3517 65.9042 37.2131 63.1714 36.8147 61.943H36.814Z" fill="white"/>
<path d="M36.8141 61.943C36.4746 60.8973 34.7149 58.02 34.1986 57.1855C34.1986 57.1836 34.1986 57.1816 34.1986 57.1797H33.1976C33.1976 57.1797 33.1976 57.1836 33.1976 57.1855C32.8075 57.8146 31.7113 59.6067 31.0498 60.8979C31.9711 60.7055 33.182 60.4619 33.6984 60.3958C34.5847 60.2824 34.1655 63.1014 34.0262 64.484C33.9128 65.6101 33.539 66.3921 32.632 66.5359C32.6358 66.5398 32.6397 66.545 32.643 66.5482C32.9462 66.8748 33.265 67.0393 33.6984 67.0393C34.1318 67.0393 34.4512 66.8748 34.7538 66.5482C35.3518 65.9036 37.2132 63.1708 36.8148 61.9424L36.8141 61.943Z" fill="#DCDCDC"/>
<path d="M37.2246 62.1536C37.0108 61.5271 36.556 60.7496 36.2755 60.149C35.9852 59.5556 35.5051 58.8604 35.198 58.2799C34.9978 57.8931 34.749 57.5568 34.473 57.0838C34.4374 56.975 34.3376 56.894 34.2165 56.8901C33.8763 56.8785 33.5362 56.8713 33.1967 56.8674C33.0684 56.8662 32.957 56.9439 32.909 57.056C32.0033 58.4943 31.1364 59.9722 30.4541 61.5472C30.3965 61.6891 30.3401 61.8433 30.3058 61.9968C30.2539 62.2638 30.2792 62.5508 30.3317 62.8002C30.4561 63.3827 30.7075 63.9276 30.9828 64.4439C31.3521 65.1242 31.7733 65.7656 32.2559 66.3708C32.5034 66.6818 32.8183 66.9714 33.2096 67.1288C34.2262 67.5376 34.9512 66.9843 35.4475 66.2321C36.0824 65.2842 37.5356 63.2822 37.2246 62.153V62.1536ZM34.9732 65.9742C34.738 66.2652 34.5871 66.5833 34.2903 66.7446C33.9994 66.9046 33.6217 66.9208 33.3133 66.8172C32.9822 66.7018 32.7542 66.4278 32.5417 66.1472C31.8879 65.2596 31.2932 64.2638 30.9394 63.2285C30.8124 62.8041 30.6977 62.3894 30.8345 61.9936C31.2161 61.0451 31.7771 60.1795 32.2961 59.2932C32.2961 59.2932 33.2349 57.7298 33.3794 57.4894C33.601 57.4862 33.8219 57.481 34.0435 57.4745C34.2651 57.8043 34.4853 58.1347 34.7102 58.4626C35.4559 59.5873 36.2625 60.7373 36.7666 61.9962C37.0426 63.2874 35.6943 65.0367 34.9738 65.9736L34.9732 65.9742Z" fill="#1E1E22"/>
<path d="M35.3942 59.1766C35.2608 58.9472 35.1286 58.723 35.0023 58.5099C34.2228 58.8235 33.4531 59.1643 32.7022 59.542C32.2578 59.7655 31.8198 59.9981 31.3928 60.2514C31.1836 60.6337 30.9937 60.9978 30.8447 61.312C31.0436 61.2252 31.2361 61.1073 31.3948 61.0289C31.9092 60.7756 32.4178 60.5106 32.9335 60.2611C33.7415 59.8705 34.561 59.5076 35.3942 59.1772V59.1766Z" fill="#1E1E22"/>
<path d="M35.202 60.5909C34.6001 60.9188 34.0021 61.2518 33.4138 61.6023C32.8495 61.9386 32.2884 62.282 31.7507 62.659C31.4215 62.8897 31.062 63.1184 30.749 63.3892C30.8397 63.6406 30.9531 63.8997 31.0801 64.1576C31.4727 63.9496 31.8388 63.6749 32.212 63.4482C32.797 63.0938 33.3821 62.7407 33.9781 62.4051C34.5515 62.0824 35.1288 61.7675 35.7087 61.4578C35.9354 61.3367 36.1946 61.2252 36.4473 61.1002C36.3028 60.8086 36.1304 60.484 35.9451 60.1484C35.6847 60.2981 35.4327 60.464 35.2014 60.5903L35.202 60.5909Z" fill="#1E1E22"/>
<path d="M35.9316 62.775C35.3608 63.0711 34.7945 63.3769 34.2334 63.6911C33.697 63.9918 33.1631 64.3021 32.6467 64.6351C32.374 64.8107 31.9988 65.007 31.6924 65.2441C31.8362 65.4728 31.98 65.6866 32.1142 65.8758C32.4498 65.7158 32.7789 65.4923 33.0607 65.3433C33.6542 65.0284 34.2431 64.7051 34.8386 64.3928C35.4223 64.0863 36.0106 63.7903 36.6041 63.5039C36.7673 63.0795 36.871 62.6726 36.8704 62.3286C36.5555 62.4828 36.2289 62.6215 35.9328 62.775H35.9316Z" fill="#1E1E22"/>
<path d="M29.904 54.4826C29.904 54.4826 31.9753 57.4739 32.3854 57.7486C32.7955 58.0227 34.5157 57.9728 34.8396 57.6242C35.1636 57.2756 36.3103 54.7327 36.46 54.0595C36.6097 53.3863 35.8367 51.9655 34.9394 51.6415C34.0421 51.3176 30.2778 52.0154 29.9033 54.4832L29.904 54.4826Z" fill="#DCDCDC"/>
<path d="M36.5917 53.3772C36.3831 52.7416 36.0106 52.1805 35.4864 51.7698C34.9649 51.3227 34.2094 51.3927 33.5797 51.5015C31.9923 51.8034 30.1147 52.7144 29.877 54.4877C30.2877 55.2153 30.7361 55.9253 31.2045 56.6173C31.4708 57.006 31.7403 57.3999 32.0552 57.7647C32.094 57.8068 32.14 57.8613 32.1873 57.8969C32.6681 58.3213 34.4336 58.2701 34.9519 57.8865C35.0562 57.8114 35.123 57.7038 35.1877 57.6021C35.5169 57.0455 35.7553 56.4676 36.008 55.8819C36.2108 55.3986 36.409 54.9107 36.5723 54.4086L36.6196 54.2531C36.7148 53.9629 36.6734 53.6337 36.5924 53.3772H36.5917ZM36.2263 54.1378L36.1784 54.2784C35.7708 55.339 35.2804 56.3996 34.6908 57.3682C34.6778 57.3876 34.6688 57.3961 34.6578 57.411C34.648 57.4239 34.6351 57.4421 34.6338 57.4395C34.5735 57.4848 34.4926 57.5088 34.3941 57.5392C33.8557 57.6688 33.2233 57.6999 32.6791 57.5995C32.5754 57.5755 32.5236 57.5574 32.4491 57.4861C31.8893 56.9179 31.2395 56.0517 30.7179 55.4291C30.4931 55.1582 30.1575 54.7352 29.9275 54.476C30.2592 52.7928 32.0791 51.9894 33.6211 51.7633C34.1913 51.6959 34.8249 51.613 35.2869 52.0257C35.732 52.3943 36.0637 52.934 36.2218 53.4821C36.2846 53.7238 36.3015 53.9272 36.2257 54.1372L36.2263 54.1378Z" fill="#1E1E22"/>
<path d="M34.4645 56.1398C34.9381 55.9163 35.426 55.7206 35.9106 55.5204C36.125 55.0254 36.3103 54.5557 36.4062 54.2499C35.6022 54.5084 34.8046 54.9094 34.0609 55.2878C33.6488 55.4971 33.238 55.7122 32.8415 55.95C32.4495 56.1851 32.0064 56.41 31.7129 56.7676C31.6805 56.8071 31.6591 56.8499 31.6455 56.8933C31.7608 57.0436 31.8703 57.1822 31.9695 57.3041C31.9863 57.3028 32.0031 57.3008 32.0206 57.2969C32.4495 57.2069 32.8305 56.9529 33.2192 56.7585C33.6339 56.5512 34.0453 56.338 34.4645 56.1404V56.1398Z" fill="#1E1E22"/>
<path d="M35.9784 52.5406C35.9389 52.5387 35.8981 52.5406 35.8547 52.5497C35.4258 52.6313 35.0312 52.8639 34.6464 53.0628C34.1838 53.3019 33.7309 53.5565 33.2845 53.8254C32.8621 54.08 32.4448 54.3437 32.0341 54.6171C31.6265 54.8879 31.1743 55.1497 30.8316 55.5015C30.781 55.5533 30.7512 55.6077 30.7363 55.6615C30.8348 55.7982 30.9365 55.9395 31.0402 56.0813C31.1095 56.0924 31.184 56.0859 31.2579 56.0535C31.6803 55.8695 32.0613 55.576 32.4558 55.3382C32.8543 55.0978 33.2579 54.8652 33.6668 54.6411C34.4293 54.2225 35.2567 53.6653 36.1048 53.4554C36.2246 53.4256 36.3089 53.3667 36.3639 53.2915C36.2765 53.0434 36.1443 52.7823 35.9791 52.5406H35.9784Z" fill="#1E1E22"/>
<path d="M27.358 50.4188C27.358 50.4188 26.3369 53.1114 26.2864 54.2083C26.2359 55.3052 26.6596 55.7212 26.6596 55.7212C26.6596 55.7212 27.8809 56.4617 29.6509 55.9959C31.421 55.53 33.0161 54.5076 33.4651 53.6103C33.4651 53.6103 35.4347 55.4801 37.0052 55.6045C38.5757 55.7289 39.9466 54.6113 39.9466 54.6113C39.9466 54.6113 40.6697 52.8873 40.071 51.092C39.473 49.2973 37.6531 49.8156 36.0327 49.9549C34.4123 50.0948 27.3574 50.4188 27.3574 50.4188H27.358Z" fill="#DCDCDC"/>
<path d="M40.5271 51.4121C40.2375 49.9654 39.3285 49.3589 37.9005 49.4146C37.1503 49.4406 36.4629 49.5792 35.7774 49.6362C34.3306 49.7561 30.8586 50.0327 29.463 50.1681C28.8553 50.2303 27.9333 50.3094 27.3379 50.3897C27.3198 50.4169 27.3055 50.4558 27.2939 50.4869C27.2368 50.6333 27.1338 50.9041 27.0781 51.0538C26.839 51.7062 26.6103 52.3606 26.4237 53.0312C26.232 53.7089 26.0862 54.4274 26.2579 55.1284C26.3201 55.374 26.403 55.6098 26.5753 55.8074C27.1591 56.1534 27.8407 56.283 28.5119 56.2966C29.1715 56.3089 29.8232 56.1443 30.4413 55.9344C31.3659 55.6092 32.2658 55.1621 33.0089 54.5064C33.191 54.3412 33.3653 54.1618 33.5136 53.9505C34.0864 54.4643 34.6999 54.9217 35.3686 55.3033C35.7521 55.512 36.1642 55.7018 36.5918 55.8022C37.8409 56.0789 39.1393 55.58 40.1423 54.8479C40.1805 54.8187 40.2122 54.7766 40.231 54.7293C40.3748 54.3736 40.4668 54.0199 40.5394 53.6467C40.6781 52.9165 40.6884 52.1416 40.5284 51.4121H40.5271ZM39.7412 54.2674C39.7263 54.3185 39.7088 54.3717 39.6913 54.4209C39.4898 54.5745 39.2663 54.7164 39.0428 54.8356C38.3333 55.2133 37.5053 55.4537 36.7065 55.2891C36.3281 55.2088 35.9504 55.0435 35.6063 54.866C34.8924 54.4799 34.2218 53.9888 33.6186 53.4497C33.5149 53.3487 33.3329 53.3797 33.27 53.5113C33.145 53.7588 32.9467 53.9907 32.7258 54.198C31.708 55.1317 29.8945 55.9597 28.5106 55.9985C27.9061 56.0083 27.2751 55.8981 26.7354 55.6228C26.7257 55.6117 26.7133 55.5968 26.7036 55.5839C25.9974 54.4902 26.6388 52.8984 26.9557 51.7445C27.0794 51.3402 27.2245 50.9132 27.3632 50.5135L27.3774 50.4727C27.38 50.4642 27.3846 50.4578 27.3794 50.448C27.4189 50.4558 27.4507 50.4571 27.4928 50.4571L27.6249 50.459C27.7798 50.4603 28.2644 50.4701 28.4193 50.4681C30.8767 50.4765 33.3731 50.4383 35.8292 50.31C36.9339 50.3023 38.7901 49.7282 39.4937 50.7279C40.106 51.7088 40.0645 53.186 39.7412 54.268V54.2674Z" fill="#1E1E22"/>
<path d="M46.8513 77.1212C46.8513 77.1212 47.748 81.6752 48.7607 84.6996C49.7733 87.7246 51.4358 90.7159 52.0669 91.1481C52.6986 91.5802 55.524 91.8795 57.3517 90.7159C59.1801 89.5523 59.0803 87.2607 59.0803 86.1794C59.0803 85.098 58.7862 81.4037 56.3883 74.665C55.0044 70.777 52.2003 65.4759 50.372 62.5896C48.5436 59.7032 46.3201 58.1573 44.7347 57.6422C43.1493 57.1271 46.46 75.2766 46.8513 77.1205V77.1212Z" fill="white"/>
<path d="M57.3527 90.7167C59.1811 89.553 59.0813 87.2614 59.0813 86.1801C59.0813 85.0988 58.7872 81.4045 56.3893 74.6657C55.0054 70.7777 52.2013 65.4766 50.373 62.5903C48.5446 59.7039 46.321 58.158 44.7356 57.643C43.1502 57.1279 46.461 75.2773 46.8523 77.1212C46.8523 77.1212 46.9812 77.7756 47.1963 78.7533C48.0989 78.717 49.5015 78.719 49.8883 79.0494C50.4727 79.5483 53.2483 84.3615 54.3284 86.8908C55.0993 88.6959 54.949 90.405 54.4067 91.5265C55.3851 91.4922 56.482 91.2706 57.3527 90.716V90.7167Z" fill="#DCDCDC"/>
<path d="M59.3543 84.8267C59.0395 82.1555 58.3158 79.56 57.5027 77.0053C56.0196 72.2952 53.7766 67.8603 51.2686 63.6211C50.5313 62.3843 49.7214 61.154 48.7133 60.1193C47.7732 59.1507 46.6906 58.2929 45.4544 57.7305C45.2613 57.6463 45.0663 57.5679 44.8661 57.5011C44.7987 57.4746 44.7301 57.4532 44.6504 57.4558C44.274 57.5083 44.226 57.9547 44.1813 58.2631C44.0647 59.7079 44.2662 61.1527 44.4152 62.5852C45.0326 67.4385 45.5963 72.4364 46.4917 77.247C47.3126 81.2601 48.4367 85.2232 50.2922 88.911C50.4749 89.2816 50.6674 89.6483 50.8734 90.0105C51.0833 90.372 51.2939 90.729 51.5731 91.0737C51.7008 91.2344 51.8789 91.41 52.0785 91.4987C53.7157 92.1622 56.363 91.9237 57.7936 90.845C59.6407 89.4676 59.5526 86.8851 59.3537 84.8261L59.3543 84.8267ZM58.0916 89.465C57.2636 90.799 55.5758 91.1787 54.0902 91.2013C53.5006 91.1955 52.8786 91.1625 52.3331 90.9513C52.2916 90.9325 52.2366 90.9053 52.2016 90.8755C51.8582 90.5599 51.6016 90.1407 51.3347 89.7339C51.1203 89.3931 50.9168 89.0432 50.7218 88.6875C48.7263 85.1144 47.7356 81.0929 46.8863 77.1142C45.9377 72.299 45.1829 67.4379 44.6776 62.5567C44.5629 61.3412 44.4489 60.1199 44.4761 58.9006C44.4871 58.6045 44.5033 58.3091 44.5746 58.0266C44.5966 57.9404 44.6329 57.8542 44.6646 57.8199C44.6692 57.8154 44.6718 57.8128 44.6737 57.8108C44.789 57.8555 44.9134 57.8905 45.03 57.943C47.264 58.8973 48.9777 60.7769 50.2475 62.8061C51.4222 64.7128 52.4912 66.6986 53.4864 68.7039C54.6662 71.0784 55.7294 73.5028 56.5399 76.0277C56.6351 76.3186 56.8172 76.901 56.9124 77.1919C57.4482 78.9393 57.9251 80.7152 58.2691 82.5086C58.4939 83.6929 58.689 84.8941 58.7142 86.094C58.7304 87.2401 58.6922 88.4945 58.0903 89.465H58.0916Z" fill="#1E1E22"/>
<path d="M23.4973 58.3362C23.4973 58.3362 20.8254 58.837 17.8302 63.485C14.8349 68.1336 10.8711 75.1316 10.1235 82.5143C9.37579 89.8971 9.39847 91.2434 12.2291 92.5146C15.0598 93.7857 18.3621 93.4871 19.2167 91.9911C20.0706 90.4951 21.6158 82.7981 22.5637 80.0277C23.5115 77.2573 25.5835 64.9518 25.6703 63.6198C25.7571 62.2877 26.177 57.8127 23.4979 58.3362H23.4973Z" fill="white"/>
<path d="M25.6697 63.6198C25.7565 62.2877 26.1763 57.8127 23.4973 58.3362C23.4973 58.3362 23.2472 58.3835 22.8144 58.5811C22.5442 63.4416 20.25 70.3417 19.3235 74.7299C18.0854 80.5914 15.0273 87.7124 15.0273 87.7124C16.649 88.3719 20.0965 88.197 20.0965 88.197H20.4224C21.1616 85.3456 21.9767 81.7427 22.5636 80.0277C23.5115 77.2573 25.5835 64.9518 25.6703 63.6198H25.6697Z" fill="#DCDCDC"/>
<path d="M23.5031 58.3706C22.988 58.5047 22.504 58.7665 22.0563 59.0503C20.5241 60.0435 19.3099 61.4799 18.3115 62.9933C16.8019 65.3465 15.4381 67.8065 14.2395 70.3281C13.6 71.6596 12.9955 73.0888 12.4753 74.4708C12.1131 75.4666 11.7594 76.4967 11.4788 77.5198C11.3888 77.8696 11.2274 78.4074 11.1529 78.7585C11.0933 79.0326 10.9637 79.5775 10.9048 79.8509C10.8238 80.3232 10.7292 80.7949 10.6508 81.2672L10.483 82.5345C10.2834 84.6615 9.9744 86.8028 10.0541 88.9376C10.1001 89.9308 10.3495 90.9701 11.1879 91.5778C12.9353 92.8211 15.6454 93.423 17.7148 92.7777C18.2312 92.5982 18.7106 92.3345 18.9911 91.8726C19.3073 91.2739 19.4894 90.6059 19.6915 89.9548C19.9351 89.1313 20.1561 88.2981 20.3731 87.463C21.0806 84.749 21.698 82.0032 22.5785 79.3319C22.7379 78.7255 22.9096 78.0634 23.045 77.455C23.9825 73.245 24.7904 68.9974 25.4753 64.7375C25.7312 63.038 26.3564 57.8212 23.5044 58.3706H23.5031ZM23.7033 57.9242C25.8491 57.5109 25.8012 60.6648 25.7772 62.1653C25.7629 63.0309 25.7079 63.8978 25.5796 64.753C24.885 69.4554 24.1613 74.1604 23.0975 78.7994L22.9375 79.4317L22.7502 80.0634C21.9747 82.5267 21.4557 85.0697 20.8176 87.5764C20.4975 88.8385 20.1917 90.1058 19.7654 91.3419C19.6144 91.7728 19.4304 92.2373 19.0909 92.5639C17.7835 93.7748 15.5249 93.7158 13.8968 93.366C12.8115 93.1152 11.7341 92.7161 10.8199 92.0559C10.2433 91.6335 9.82668 91.0102 9.63556 90.3228C9.38482 89.4449 9.37251 88.5489 9.38352 87.6554C9.39843 86.7782 9.46192 85.9119 9.52865 85.047C9.67508 83.3411 9.8228 81.5471 10.1552 79.8651C10.7979 76.6548 11.9647 73.5722 13.416 70.6469C14.6865 68.1285 16.0102 65.4314 17.582 63.0951C18.6853 61.4883 20.033 59.8912 21.6514 58.7827C22.1956 58.4283 22.6297 58.1737 23.266 58.0175L23.7033 57.9236V57.9242Z" fill="#1E1E22"/>
<path d="M28.4083 49.7062C28.4083 49.7062 28.9072 73.7366 28.9571 75.931C29.007 78.1254 29.005 80.0205 28.1084 80.9178C27.2117 81.8152 24.9447 82.2655 22.4639 81.8411C19.9825 81.4167 19.2614 79.2612 19.3229 74.7298C19.3845 70.1984 20.6984 62.9005 21.4214 60.3265C22.5578 56.2817 26.1154 51.2521 28.409 49.7062H28.4083Z" fill="white"/>
<path d="M23.0469 56.4767C23.0469 56.4767 23.1343 58.2785 25.4959 59.3346C27.8581 60.3906 28.3564 58.2468 27.9579 57.3993C27.5588 56.5519 23.0942 55.534 23.0469 56.4767Z" fill="#DCDCDC"/>
<path d="M24.7211 63.3075C24.7211 63.3075 24.8669 66.56 25.877 68.2743C25.877 68.2743 25.4085 75.0843 25.3995 76.1015C25.3904 77.1187 24.6803 78.614 24.0382 79.2373C23.5018 79.7582 22.1444 81.157 19.8496 79.591C20.32 80.8972 21.1422 81.6144 22.4639 81.8405C24.9453 82.2649 27.2123 81.8153 28.1083 80.9173C29.005 80.0199 29.0069 78.1249 28.9571 75.9304C28.9337 74.8938 28.81 68.9889 28.6862 63.0438C27.0237 62.6156 24.6026 62.1782 24.7211 63.3069V63.3075Z" fill="#DCDCDC"/>
<path d="M28.4246 49.6746C27.7702 50.0581 27.1625 50.6205 26.6332 51.166C26.0967 51.7141 25.592 52.3011 25.1203 52.9043C24.1776 54.1081 23.3231 55.4194 22.6026 56.769C22.0059 57.8678 21.4993 59.0483 21.1319 60.2443C20.6343 62.0027 20.2922 63.798 19.9631 65.592C19.3262 69.377 18.7787 73.2177 19.0476 77.0695C19.1953 78.7968 19.5659 80.9342 21.3023 81.7797C21.9398 82.0958 22.6545 82.1697 23.3522 82.2397C24.821 82.3388 26.3695 82.2559 27.6925 81.5386C27.8208 81.4713 27.9652 81.3637 28.0825 81.2795L28.2024 81.1726C28.363 81.0385 28.4946 80.8499 28.6099 80.6769C29.2092 79.6118 29.1859 78.3743 29.2034 77.1978C29.0006 68.0812 28.6462 58.736 28.4252 49.6746H28.4246ZM27.7676 80.8817C26.5885 81.7239 24.8068 81.7965 23.4015 81.6799C22.7788 81.6086 22.129 81.5406 21.5647 81.2536C20.0642 80.4806 19.8283 78.5668 19.7085 77.0215C19.5342 73.9991 19.908 70.965 20.3156 67.9672C20.6525 65.6341 21.0412 63.2479 21.5738 60.955C21.6787 60.5093 21.8161 60.0363 21.9547 59.6022C22.9836 56.6569 24.613 53.9254 26.5943 51.5191L26.7835 51.306L26.9727 51.0928C27.1126 50.9243 27.4068 50.6496 27.5648 50.4773C27.7916 50.2635 28.1622 49.935 28.3922 49.7381C28.5393 58.5216 28.5963 67.3167 28.7362 76.0568C28.7479 76.8142 28.7557 77.5742 28.7032 78.327C28.6241 79.2354 28.5121 80.2791 27.7676 80.8823V80.8817Z" fill="#1E1E22"/>
<path d="M28.2555 50.259C28.2555 50.259 23.7351 52.353 22.7879 54.2474C21.8407 56.1419 22.705 57.0062 23.3697 57.3223C24.0344 57.6379 26.0786 58.0039 27.0595 57.8543C27.0595 57.8543 24.8566 59.2822 24.3169 60.613C23.7772 61.9438 24.3888 64.2056 25.4002 66.0307C26.4116 67.8565 28.7213 69.4879 28.7213 69.4879C28.7213 69.4879 28.6047 65.2688 28.5885 64.5444C28.5717 63.8201 28.4058 50.1754 28.4058 50.1754L28.2561 50.2583L28.2555 50.259Z" fill="white"/>
<path d="M27.4959 67.0576C27.3255 67.4049 26.8532 67.4761 26.4754 67.3958C26.4404 67.3887 26.4061 67.379 26.3711 67.3705C27.4421 68.5847 28.721 69.4879 28.721 69.4879C28.721 69.4879 28.6044 65.2688 28.5882 64.5444C28.5714 63.8201 28.4055 50.1754 28.4055 50.1754L28.2559 50.2583C28.2559 50.2583 23.7355 52.3523 22.7883 54.2468C22.7539 54.3161 22.7222 54.3835 22.6924 54.4496C23.6564 54.986 24.7579 55.2854 25.8632 55.3242L26.1826 56.9349C26.1826 56.9349 24.4618 57.4098 23.764 57.4681C24.6361 57.737 26.2286 57.9799 27.0592 57.853C27.0592 57.853 26.6251 58.1348 26.0951 58.5644C26.2577 58.611 26.4139 58.69 26.5195 58.8209C26.627 58.9531 26.6724 59.1241 26.7132 59.29C27.3034 61.6723 27.5931 64.1285 27.573 66.5827C27.5717 66.7447 27.5678 66.9125 27.4965 67.0576H27.4959Z" fill="#DCDCDC"/>
<path d="M25.8654 62.7333C25.8104 62.592 25.7689 62.4391 25.7566 62.2869C25.7449 62.1424 25.6873 61.9863 25.6698 61.8418C25.6646 61.7971 25.57 61.7614 25.5337 61.7997C25.2895 62.0569 25.4359 62.5085 25.5395 62.822C25.6089 63.03 25.9438 62.9328 25.8654 62.732V62.7333Z" fill="#DCDCDC"/>
<path d="M27.1409 65.515C26.9964 65.204 26.7936 64.928 26.6336 64.6248C26.4762 64.3274 26.3809 63.9846 26.182 63.7132C26.1036 63.6063 25.9222 63.6348 25.9209 63.7838C25.919 64.1349 26.0874 64.4719 26.2384 64.7815C26.4055 65.1256 26.5895 65.4612 26.8759 65.7197C27.023 65.8525 27.2219 65.6873 27.1415 65.515H27.1409Z" fill="#DCDCDC"/>
<path d="M24.1202 54.9471C23.9835 55.0832 23.8766 55.2354 23.7989 55.4116C23.7302 55.5678 23.6576 55.7706 23.7425 55.9306C23.7872 56.0148 23.8909 56.0096 23.955 55.9578C24.0593 55.8742 24.0956 55.709 24.1578 55.593C24.2265 55.4641 24.312 55.3455 24.4111 55.2373C24.5887 55.043 24.3094 54.7599 24.1209 54.9471H24.1202Z" fill="#DCDCDC"/>
<path d="M25.6921 62.5714C25.637 62.4301 25.5956 62.2772 25.5833 62.125C25.5716 61.9805 25.5891 61.8386 25.5716 61.6941C25.5664 61.6494 25.5133 61.6164 25.477 61.6546C25.2327 61.9118 25.2619 62.3465 25.3662 62.6601C25.4355 62.8681 25.7705 62.7709 25.6921 62.5701V62.5714Z" fill="#1E1E22"/>
<path d="M26.8889 65.3508C26.7445 65.0398 26.5417 64.7638 26.3816 64.4606C26.2242 64.1632 26.129 63.8205 25.9301 63.549C25.8517 63.4421 25.6703 63.4706 25.669 63.6196C25.667 63.9708 25.8355 64.3077 25.9864 64.6174C26.1536 64.9614 26.3376 65.297 26.624 65.5555C26.771 65.6883 26.9699 65.5231 26.8896 65.3508H26.8889Z" fill="#1E1E22"/>
<path d="M24.0568 54.6723C23.92 54.8084 23.8131 54.9606 23.7354 55.1369C23.6667 55.293 23.5942 55.4958 23.679 55.6558C23.7237 55.74 23.8274 55.7349 23.8915 55.683C23.9958 55.5994 24.0321 55.4342 24.0943 55.3183C24.163 55.1893 24.2485 55.0708 24.3477 54.9626C24.5252 54.7682 24.2459 54.4851 24.0574 54.6723H24.0568Z" fill="#1E1E22"/>
<path d="M29.0078 69.8473C28.9864 66.681 29.0804 63.1435 28.9553 59.9792C28.8348 56.8149 28.5795 53.6538 28.4746 50.4889C28.4746 50.4532 28.4448 49.9407 28.4137 49.9556H28.2005C26.7473 50.6424 24.9099 51.7173 23.3141 53.2463C22.5515 53.9771 21.5162 55.6241 22.0844 56.6536C22.6766 57.6435 24.4253 57.8852 25.4865 58.0284C25.8001 58.0653 26.115 58.0835 26.4305 58.0861C25.5746 58.6478 24.7997 59.3229 24.2419 60.2027C23.9458 60.6809 23.7417 61.2627 23.7715 61.8361C23.8162 63.2614 24.3643 64.6026 25.0194 65.8433C25.2811 66.3033 25.583 66.7964 25.9044 67.2188C26.5043 68.0384 27.2287 68.7906 28.058 69.3821C28.1811 69.4644 28.3826 69.6024 28.5057 69.6821C28.5517 69.708 28.6456 69.7747 28.6962 69.8019C28.9074 69.9147 29.0318 70.0831 29.0078 69.8486V69.8473ZM28.2368 68.7407L27.8876 68.4738C27.2041 67.9094 26.6022 67.2434 26.091 66.5191C25.8461 66.1666 25.583 65.761 25.3822 65.3827C24.8205 64.3512 24.3643 63.2096 24.2464 62.0415C24.2451 61.919 24.2212 61.7331 24.2335 61.6145C24.2374 61.4784 24.26 61.3385 24.2911 61.2063C24.5924 60.0719 25.5364 59.2205 26.4551 58.5338C26.6955 58.3595 26.9494 58.1904 27.2008 58.0446C27.2637 58.0103 27.3038 57.9416 27.2974 57.8658C27.2889 57.7641 27.1989 57.6883 27.0972 57.6973C26.575 57.7414 26.0456 57.7381 25.5221 57.6921C24.5023 57.5801 23.1865 57.3287 22.6954 56.3238C22.3034 55.3876 22.8418 54.3749 23.4709 53.6694C24.5503 52.4785 25.9763 51.6479 27.4256 50.9838C27.4256 50.9838 28.1448 50.667 28.3748 50.5653C28.38 55.2904 28.2025 60.0168 28.3547 64.7412C28.3858 66.1297 28.4331 67.5181 28.4791 68.9065C28.4292 68.8748 28.3781 68.8431 28.3236 68.8068L28.2362 68.74L28.2368 68.7407Z" fill="#1E1E22"/>
<path d="M38.6572 51.3766C38.6572 51.3766 41.4043 71.4944 42.3969 74.9153C43.3894 78.3362 44.8504 78.2066 47.4453 77.882C50.0401 77.5574 50.2215 75.4375 49.6747 72.2693C49.1272 69.1011 47.1712 59.255 44.2771 55.2025C41.3829 51.1505 38.8134 49.7997 38.6572 51.376V51.3766Z" fill="white"/>
<path d="M44.1017 55.2025C41.2076 51.1505 38.8 49.6733 38.6445 51.2497C38.6445 51.2497 40.6012 66.8931 41.7901 72.9891C42.4963 72.6626 43.3683 72.106 43.853 71.2236C44.7587 69.5741 45.4487 66.8166 45.6236 65.3388C45.6236 65.3388 45.761 65.182 45.8796 65.7307C45.9981 66.2795 46.8158 68.9968 47.3794 71.589C47.9425 74.1819 46.7678 76.6497 46.4828 77.0488C46.2813 77.3306 44.5961 77.376 43.3845 77.2639C44.3052 78.2286 45.5342 78.099 47.2712 77.8814C49.8661 77.5568 50.0475 75.4368 49.5006 72.2686C48.9532 69.1004 46.9972 59.2544 44.103 55.2018L44.1017 55.2025Z" fill="#DCDCDC"/>
<path d="M49.9405 72.1312C49.5018 69.5163 48.9518 66.9202 48.2644 64.3584C47.5582 61.798 46.7489 59.2446 45.5128 56.8824C44.4884 54.8992 42.1606 52.0996 40.2253 50.9969C39.6286 50.6522 38.7027 50.4287 38.625 51.3772C39.5521 57.829 40.3367 64.5897 41.4187 71.0045C41.5269 71.657 41.6435 72.3081 41.7634 72.9592C42.0213 74.2712 42.2519 75.6137 42.9406 76.7987C43.7835 78.2448 45.0871 78.3763 46.6116 78.2156C47.2951 78.1391 47.9858 78.1126 48.6252 77.8094C50.7134 76.8103 50.2152 73.99 49.9398 72.1312H49.9405ZM49.4986 76.0354C49.2433 76.9891 48.4827 77.4913 47.5361 77.626C46.9031 77.7109 46.2391 77.8055 45.6022 77.8061C43.6857 77.8625 43.0547 76.3989 42.5752 74.8018C42.4022 74.1792 42.2694 73.5307 42.1379 72.8867C40.8252 65.7482 39.6746 58.5637 38.6878 51.3759C38.8693 50.0918 40.4333 51.1822 40.9833 51.6435C41.7466 52.2674 42.4081 53.0067 43.0229 53.7751C43.4317 54.2889 43.8198 54.8214 44.1852 55.365C44.9012 56.4509 45.4188 57.6631 45.8866 58.8844C47.2601 62.5813 48.1866 66.4349 48.9971 70.2912C49.2498 71.5695 49.5433 72.864 49.6373 74.1611C49.6781 74.8012 49.669 75.4484 49.4999 76.0354H49.4986Z" fill="#1E1E22"/>
<path d="M40.2394 50.2499C39.3349 50.3238 38.7155 50.765 38.6553 51.376C38.6553 51.376 40.3871 64.0565 41.5974 70.9948C44.5401 66.1505 44.4086 62.3267 44.1799 60.2009C43.9466 58.0318 40.9696 57.5834 40.9696 57.5834C44.406 57.5834 45.6849 56.5364 44.9677 54.8169C44.4708 53.6261 41.8209 51.4654 40.2394 50.2493V50.2499Z" fill="white"/>
<path d="M41.5974 70.9948C44.5401 66.1505 44.4086 62.3267 44.1799 60.2009C43.9466 58.0318 40.9696 57.5834 40.9696 57.5834C44.406 57.5834 45.6849 56.5364 44.9677 54.8169C44.4708 53.6261 41.8209 51.4654 40.2394 50.2493C39.3349 50.3231 38.7155 50.7643 38.6553 51.3753C38.6553 51.3753 38.8542 52.8337 39.1645 55.0307C39.712 55.0307 40.2361 54.9951 40.5711 54.8843C40.5711 54.8843 41.3602 54.804 40.5711 56.1477C39.8791 57.3256 39.9647 58.0946 40.9449 58.4937C41.6537 58.782 41.9634 59.0574 41.9135 60.3247C41.8708 61.419 42.1267 64.8904 41.3149 69.3323C41.4114 69.9135 41.5054 70.4707 41.5967 70.9942L41.5974 70.9948Z" fill="#DCDCDC"/>
<path d="M43.0987 60.4568C43.0346 60.3635 42.9024 60.381 42.8648 60.4872C42.767 60.7626 42.7962 61.0704 42.7651 61.358C42.7333 61.6554 42.6433 61.9431 42.6899 62.2411C42.7216 62.4413 42.9795 62.4173 43.0741 62.291C43.262 62.0402 43.2788 61.6632 43.2827 61.3574C43.2866 61.0555 43.273 60.7108 43.0987 60.4555V60.4568Z" fill="#1E1E22"/>
<path d="M45.0637 54.6193C44.7676 54.0802 44.329 53.6409 43.9111 53.2217C43.5327 52.8524 43.1388 52.5032 42.7377 52.1637C41.9337 51.488 41.0966 50.8401 40.2479 50.2207C39.5488 50.257 38.702 50.5926 38.6035 51.3714C39.0188 54.6555 39.4568 57.9378 39.9064 61.2187C40.3645 64.4951 40.7927 67.3458 41.3311 70.6112C41.3415 70.6721 41.4471 71.4703 41.5139 71.4755C41.6221 71.4839 41.773 71.2125 41.8365 71.1056C42.5285 69.9756 43.0902 68.7939 43.5469 67.5421C43.9771 66.3727 44.2881 65.1436 44.4449 63.9081C44.5771 62.8307 44.5978 61.7396 44.5091 60.6583C44.4773 60.3104 44.4624 59.9547 44.3458 59.6203C44.0542 58.7496 43.3513 58.1593 42.5447 57.7726C43.0934 57.6929 43.6338 57.5607 44.1521 57.3294C45.3267 56.8059 45.6649 55.7511 45.063 54.6199L45.0637 54.6193ZM43.797 59.8043C43.9 60.092 43.9091 60.403 43.9415 60.7056C43.9694 61.0276 43.9895 61.3496 43.9998 61.6716C44.1126 64.7173 43.1945 67.7119 41.7102 70.3547C41.1672 67.3024 40.682 64.2379 40.2019 61.1746C39.6881 57.9287 39.1847 54.5869 38.7065 51.3811C38.7804 50.6535 39.5961 50.3386 40.2304 50.279C41.0286 50.9301 41.8501 51.6156 42.6049 52.3134C43.3461 53.0157 44.1326 53.7472 44.6672 54.6121C45.6351 56.4243 44.0853 57.0683 42.5019 57.2205C41.9959 57.275 41.4808 57.2827 40.9664 57.2737C40.8187 57.2756 40.6891 57.3838 40.6658 57.5348C40.6392 57.7032 40.7545 57.862 40.923 57.8879C40.9878 57.8982 41.0688 57.9138 41.1426 57.9306C42.2039 58.1794 43.4089 58.7075 43.7964 59.8031L43.797 59.8043Z" fill="#1E1E22"/>
<path d="M54.5218 32.9867C55.4198 33.1525 56.4473 32.94 57.3518 32.8765C58.3281 32.8078 59.3071 32.767 60.2828 32.7061C60.7863 32.6744 60.7889 31.8865 60.2828 31.9189C59.3065 31.9824 58.3275 32.0725 57.3518 32.1528C56.8788 32.1917 56.4046 32.2273 55.9322 32.2811C55.4677 32.3336 54.9565 32.353 54.5211 32.5305C54.3313 32.6083 54.2639 32.9394 54.5211 32.9867H54.5218Z" fill="#1E1E22"/>
<path d="M60.3234 34.4329C59.334 34.4134 58.344 34.4186 57.3547 34.416C56.8604 34.4147 56.366 34.4225 55.8717 34.4303C55.4084 34.4374 54.9057 34.4044 54.4586 34.543C54.1573 34.6363 54.1541 35.0652 54.4586 35.1579C54.907 35.2939 55.4071 35.2602 55.8717 35.2674C56.366 35.2751 56.8604 35.2842 57.3547 35.2849C58.344 35.2849 59.334 35.2939 60.3234 35.2687C60.8605 35.2551 60.8618 34.4439 60.3234 34.4335V34.4329Z" fill="#1E1E22"/>
<path d="M58.7761 36.7484C58.2545 36.694 57.7323 36.6408 57.2114 36.5787C56.7138 36.519 56.2169 36.4458 55.7187 36.3921C55.2658 36.3428 54.6872 36.2022 54.246 36.3474C54.0827 36.4011 54.0659 36.6013 54.2007 36.6959C54.5635 36.9512 55.1226 36.9862 55.5496 37.0646C56.0679 37.1598 56.5914 37.2311 57.1136 37.3043C57.5898 37.371 58.0673 37.4365 58.5454 37.4902C58.9789 37.5395 59.5607 37.6866 59.9552 37.4533C60.0894 37.3736 60.1451 37.1462 60.009 37.0361C59.6741 36.7659 59.1907 36.7918 58.7767 36.7484H58.7761Z" fill="#1E1E22"/>
<g clip-path="url(#clip2_457_81320)">
<path d="M4.94091 33.6707C5.51948 33.6668 6.09805 33.6623 6.67727 33.6578C7.22668 33.6539 7.77804 33.6506 8.32746 33.6286C8.7298 33.6124 9.33752 33.6837 9.63879 33.3701C9.69257 33.3137 9.69322 33.225 9.63879 33.1686C9.34918 32.868 8.79653 32.9328 8.40909 32.9159C7.83311 32.8913 7.25389 32.8932 6.67727 32.8926C6.12591 32.8913 5.57455 32.8907 5.0232 32.8887C4.51136 32.8874 3.88161 32.785 3.39309 32.949C3.06591 33.0585 3.06526 33.5055 3.39309 33.615C3.86217 33.7718 4.45046 33.6746 4.94091 33.6714V33.6707Z" fill="#1E1E22"/>
<path d="M4.13572 36.0926C4.57499 36.1366 5.06286 36.0245 5.50472 35.9915C5.97963 35.9559 6.45518 35.9286 6.93074 35.9053C7.37973 35.8833 7.82937 35.8703 8.27771 35.8379C8.72022 35.8062 9.21975 35.812 9.63829 35.6565C9.84626 35.5794 9.88838 35.2497 9.63829 35.1907C9.22428 35.0935 8.77788 35.1376 8.35546 35.1473C7.85334 35.159 7.35187 35.1862 6.85105 35.2127C6.37614 35.238 5.90123 35.2652 5.42633 35.3021C4.98446 35.3365 4.47068 35.3242 4.05214 35.4758C3.71135 35.5995 3.78132 36.0563 4.13572 36.0926Z" fill="#1E1E22"/>
<path d="M9.62067 36.9523C9.22221 36.9115 8.77192 37.0339 8.38319 37.1208C7.97437 37.2121 7.56814 37.3145 7.1632 37.4227C6.71032 37.5438 6.25809 37.6682 5.80522 37.79C5.20203 37.952 4.54895 38.0784 3.98269 38.3414C3.71252 38.4671 3.8421 38.9323 4.13624 38.9083C4.73749 38.8597 5.3478 38.6485 5.92767 38.4826C6.39998 38.3479 6.871 38.2099 7.34332 38.0758C7.73011 37.9656 8.1169 37.8535 8.50629 37.7512C8.90928 37.6449 9.36604 37.5672 9.7334 37.367C9.94332 37.2529 9.82475 36.9737 9.62131 36.953L9.62067 36.9523Z" fill="#1E1E22"/>
</g>
<path d="M18.0126 14.3268C18.0126 14.3268 19.9738 5.56402 22.2071 5.19018C24.4404 4.81635 25.5412 12.4447 25.5412 12.4447C25.5412 12.4447 36.2982 11.5473 40.6151 12.295C40.6151 12.295 42.9125 5.78819 44.8575 5.63853C46.8025 5.48886 47.3072 7.58286 47.0169 13.2668C47.0169 13.2668 51.8126 14.9125 53.6073 17.7541C55.402 20.5958 57.4215 26.2798 56.1503 36.9001C54.8791 47.5204 52.4106 50.811 44.7078 52.0077C37.0044 53.2043 24.9853 52.6057 16.5983 49.0163C8.2113 45.4264 8.58513 39.2189 8.36096 34.1336C8.13679 29.0482 8.13679 22.568 9.85695 20.1481C12.1628 16.9035 14.6475 15.8228 18.0133 14.3274L18.0126 14.3268Z" fill="white"/>
<path d="M53.609 17.7541C51.8143 14.9124 47.0186 13.2667 47.0186 13.2667C47.2279 9.16687 47.0232 6.93487 46.1634 6.0654C46.1226 6.02393 46.0805 5.98636 46.0364 5.95137C46.0345 5.95007 46.0325 5.94813 46.0306 5.94683C45.9878 5.91314 45.9444 5.88204 45.8991 5.85419C45.8965 5.85289 45.8945 5.85159 45.8919 5.84965C45.8453 5.82114 45.798 5.79523 45.7481 5.77255C45.7481 5.77255 45.7468 5.77255 45.7462 5.7719C45.6956 5.74858 45.6431 5.72849 45.5894 5.711C45.5369 5.69415 45.4825 5.6799 45.4267 5.66889C45.4229 5.66824 45.419 5.66759 45.4144 5.66629C45.362 5.65593 45.3075 5.64815 45.2525 5.64232C45.2473 5.64232 45.2414 5.64103 45.2363 5.64038C45.1805 5.6352 45.1235 5.63261 45.0652 5.63196C45.0607 5.63196 45.0561 5.63196 45.0516 5.63196C44.9888 5.63196 44.9246 5.6339 44.8592 5.63908C44.475 5.66889 44.0772 5.94683 43.6865 6.37315C43.8342 6.32844 43.9735 6.30642 44.0824 6.32909C44.326 6.37963 44.2793 6.96143 44.2009 7.4642C43.8193 8.817 43.4351 10.3661 43.3353 11.4144C43.1222 13.6581 43.1721 13.7578 44.4186 14.4556C45.6652 15.1534 47.4741 15.7521 47.8162 17.8959C48.1583 20.0398 48.856 30.6601 48.5075 34.5488C48.1583 38.4381 44.8676 43.4787 42.0259 44.7978C39.1843 46.1163 29.5112 49.392 19.1903 46.3579C12.8098 44.4823 10.031 40.9266 8.50391 37.3399C8.79675 41.6328 9.91696 46.1558 16.6006 49.0169C24.9876 52.6069 37.0067 53.2049 44.7102 52.0082C52.4136 50.8116 54.8815 47.5209 56.1526 36.9006C57.4238 26.2803 55.405 20.597 53.6096 17.7547L53.609 17.7541Z" fill="#DCDCDC"/>
<path d="M28.9037 12.2152C26.9283 12.3286 25.5424 12.4445 25.5424 12.4445C25.5424 12.4445 24.4416 4.81623 22.2083 5.19006C21.8682 5.24708 21.5365 5.50235 21.2177 5.89303C20.9922 7.48685 20.8115 9.9631 21.4963 11.6638C22.4818 14.1129 25.8301 13.9211 28.9037 12.2158V12.2152Z" fill="#DCDCDC"/>
<path d="M44.5096 7.30358C44.1694 7.44871 43.9129 7.94889 43.7464 8.26441C43.5837 8.57281 43.3699 8.95377 43.4347 9.31076C43.4496 9.39369 43.5624 9.43386 43.6297 9.39045C43.9155 9.2058 44.0684 8.83844 44.2608 8.56503C44.4675 8.27089 44.8206 7.95925 44.9074 7.60874C44.9689 7.35995 44.7202 7.21417 44.5102 7.30358H44.5096Z" fill="#DCDCDC"/>
<path d="M20.8387 8.98546C20.4564 9.58865 19.9653 10.6583 20.2679 11.3723C20.2945 11.4345 20.3832 11.4196 20.4137 11.3723C20.5977 11.0859 20.6385 10.703 20.748 10.3817C20.886 9.97868 21.0674 9.61197 21.2799 9.24462C21.4458 8.95825 21.0143 8.70881 20.838 8.98611L20.8387 8.98546Z" fill="#DCDCDC"/>
<path d="M21.8796 7.26398C21.6179 7.2737 21.4469 7.52961 21.3477 7.75184C21.2551 7.95917 21.1579 8.19954 21.2136 8.42889C21.248 8.56884 21.43 8.60901 21.5285 8.51183C21.6587 8.38354 21.7274 8.20343 21.8375 8.05765C21.96 7.89633 22.1485 7.74407 22.1453 7.52897C22.1433 7.38967 22.0254 7.25815 21.8796 7.26333V7.26398Z" fill="#DCDCDC"/>
<path d="M46.4039 32.3127C46.4039 32.3127 46.4039 33.7005 47.6336 34.1327C48.8633 34.5648 49.8605 34.0083 50.3263 32.5414C50.7915 31.0746 49.4095 29.8779 48.9968 29.9447C48.5841 30.0114 46.2711 30.7584 46.4039 32.3127Z" fill="#DCDCDC"/>
<path d="M15.7525 32.7586C15.7525 32.7586 15.4914 34.517 16.8545 34.8481C18.2177 35.1792 19.1371 34.2605 19.4973 32.0745C19.9962 29.0469 18.563 28.4735 17.5841 28.6607C16.6051 28.848 15.7602 31.5244 15.7525 32.7586Z" fill="#DCDCDC"/>
<path d="M12.948 42.9058C12.7646 42.5864 12.589 42.2592 12.4581 41.9145C12.3156 41.5388 12.2696 41.1565 12.175 40.7704C12.0785 40.3784 11.5362 40.4943 11.5064 40.8611C11.4371 41.713 11.9457 42.6259 12.3629 43.3347C12.7458 43.9846 13.1857 44.8508 13.9768 45.0542C14.1809 45.1067 14.3202 44.8579 14.179 44.707C13.6775 44.1705 13.3121 43.5401 12.948 42.9052V42.9058Z" fill="#DCDCDC"/>
<path d="M16.0692 46.3405C15.8016 46.1053 15.5302 45.8811 15.2736 45.633C15.1116 45.4762 14.7579 45.0622 14.5408 45.3946C14.3523 45.6822 14.7482 45.9828 14.9419 46.1344C15.2211 46.3528 15.5613 46.5374 15.9079 46.6184C16.0595 46.6541 16.2007 46.4564 16.0692 46.3411V46.3405Z" fill="#DCDCDC"/>
<path d="M14.0902 19.7003C13.1313 20.437 12.1666 21.6123 11.7921 22.7739C11.7066 23.0383 12.072 23.1562 12.2158 22.9527C12.5683 22.4532 12.8534 21.9148 13.2363 21.4354C13.6056 20.9728 14.0299 20.5795 14.4472 20.1636C14.6759 19.9355 14.3623 19.4917 14.0902 19.701V19.7003Z" fill="#DCDCDC"/>
<path d="M16.0313 18.0651C15.7676 18.124 15.5208 18.345 15.3206 18.5173C15.1579 18.6572 14.8942 18.9125 14.9208 19.1483C14.9292 19.2248 14.9778 19.287 15.0608 19.2883C15.2791 19.2915 15.4916 19.0784 15.6588 18.9559C15.8641 18.8063 16.1194 18.7058 16.3041 18.5335C16.5185 18.3333 16.2918 18.0074 16.0313 18.0657V18.0651Z" fill="#DCDCDC"/>
<path d="M15.695 19.7981C15.4974 19.9433 15.3432 20.1363 15.1903 20.3255C15.0646 20.4817 14.8897 20.6767 14.902 20.8892C14.9046 20.9352 14.9434 20.9896 14.9959 20.9831C15.1968 20.9598 15.3471 20.8011 15.4929 20.6728C15.6646 20.5212 15.8622 20.3825 16.0138 20.2109C16.1991 20.0016 15.9496 19.6103 15.695 19.7975V19.7981Z" fill="#DCDCDC"/>
<path d="M36.9963 31.2578C36.9133 30.7427 36.2648 30.8011 36.2648 30.8011C36.2285 31.1237 35.7497 32.621 34.8511 33.1529C33.9531 33.6848 32.6748 33.1199 32.6748 33.1199C33.3564 34.3165 34.8187 34.6321 35.9486 33.8015C37.0785 32.9702 37.0785 31.7735 36.9956 31.2585L36.9963 31.2578Z" fill="#DCDCDC"/>
<path d="M33.9718 32.8962C33.5429 32.7199 33.2915 32.2237 33.1445 31.7332C33.2462 31.7079 33.3505 31.6755 33.4567 31.6328C34.2213 31.3244 34.886 30.5249 35.0687 30.0435C35.2514 29.5621 35.0687 28.6648 33.9388 28.532C32.8088 28.3991 29.6672 29.7409 29.6672 29.7409C29.6672 29.7409 29.883 30.5158 30.3319 30.9778C30.7809 31.4397 32.0106 31.741 32.0106 31.741C32.0106 31.741 32.0566 31.7539 32.1376 31.7688C32.1538 31.8181 32.1713 31.866 32.1908 31.912C32.0962 31.8012 32.0106 31.741 32.0106 31.741C32.0106 31.741 31.0783 32.5159 30.7881 32.7173C30.6799 32.7925 30.4537 32.9629 30.1823 33.1229C30.4816 32.8774 30.7719 32.5243 30.5477 32.6364C30.2153 32.8029 29.6167 32.7031 29.2843 32.3267C28.9519 31.9509 29.1845 31.3069 28.8191 30.9168C28.4537 30.5268 28.1375 30.9778 28.1375 30.9778C28.1375 30.9778 28.0546 31.5226 28.3533 32.3267C28.6403 33.0977 29.445 33.3309 29.7599 33.338C29.4042 33.4877 29.0375 33.5479 28.7854 33.3387C28.7854 33.3387 29.467 34.0656 30.2477 34.0488C31.0291 34.0319 32.1389 33.5667 32.3819 32.869C32.4635 32.6331 32.448 32.4284 32.3909 32.2599C33.1328 33.2486 34.7642 33.2208 33.9705 32.8949L33.9718 32.8962Z" fill="#DCDCDC"/>
<path d="M39.5462 31.7206C39.8436 31.7206 40.0846 31.4796 40.0846 31.1822C40.0846 30.8849 39.8436 30.6438 39.5462 30.6438C39.2489 30.6438 39.0078 30.8849 39.0078 31.1822C39.0078 31.4796 39.2489 31.7206 39.5462 31.7206Z" fill="#DCDCDC"/>
<path d="M41.9405 30.6627C42.303 30.6627 42.5968 30.3689 42.5968 30.0064C42.5968 29.6439 42.303 29.3501 41.9405 29.3501C41.578 29.3501 41.2842 29.6439 41.2842 30.0064C41.2842 30.3689 41.578 30.6627 41.9405 30.6627Z" fill="#DCDCDC"/>
<path d="M41.7673 33.604C42.2078 33.604 42.5648 33.2469 42.5648 32.8065C42.5648 32.366 42.2078 32.0089 41.7673 32.0089C41.3268 32.0089 40.9697 32.366 40.9697 32.8065C40.9697 33.2469 41.3268 33.604 41.7673 33.604Z" fill="#DCDCDC"/>
<path d="M25.3793 30.5553C25.6649 30.5553 25.8963 30.3238 25.8963 30.0383C25.8963 29.7527 25.6649 29.5212 25.3793 29.5212C25.0938 29.5212 24.8623 29.7527 24.8623 30.0383C24.8623 30.3238 25.0938 30.5553 25.3793 30.5553Z" fill="#DCDCDC"/>
<path d="M23.2292 30.1315C23.5527 30.1315 23.8149 29.8693 23.8149 29.5458C23.8149 29.2223 23.5527 28.9601 23.2292 28.9601C22.9058 28.9601 22.6436 29.2223 22.6436 29.5458C22.6436 29.8693 22.9058 30.1315 23.2292 30.1315Z" fill="#DCDCDC"/>
<path d="M23.3257 32.5936C23.7472 32.5936 24.0889 32.2519 24.0889 31.8304C24.0889 31.4088 23.7472 31.0671 23.3257 31.0671C22.9042 31.0671 22.5625 31.4088 22.5625 31.8304C22.5625 32.2519 22.9042 32.5936 23.3257 32.5936Z" fill="#DCDCDC"/>
<path d="M47.6837 33.4888C47.6837 33.4888 46.4249 33.4765 46.1754 31.9805C45.926 30.4845 46.3218 28.5155 47.42 28.141C48.5182 27.7672 49.4907 28.3652 49.6404 29.9357C49.79 31.5062 49.4531 33.7 47.6831 33.4881L47.6837 33.4888Z" fill="#1E1E22"/>
<path d="M47.6804 29.1728C47.4886 28.9927 47.2178 29.0503 47.0331 29.2039C46.9735 29.2531 46.923 29.3263 46.8647 29.3957C46.6593 29.638 46.5653 30.0086 46.8362 30.2457C47.0338 30.418 47.335 30.4336 47.5242 30.2353C47.6506 30.1032 47.74 29.925 47.7827 29.7481C47.8307 29.5486 47.843 29.3257 47.6804 29.1728Z" fill="white"/>
<path d="M47.238 31.1075C47.2101 31.0906 47.157 31.0453 46.9924 31.0453C46.8279 31.0453 46.6769 31.1619 46.6322 31.3219C46.5985 31.4431 46.6167 31.5701 46.6717 31.6815C46.7903 31.9199 47.1479 31.9187 47.3106 31.7321C47.4006 31.629 47.4388 31.5014 47.409 31.3666C47.3864 31.2643 47.3255 31.1613 47.2373 31.1075H47.238Z" fill="white"/>
<path d="M16.3508 33.792C16.3508 33.792 15.4865 33.8749 15.0544 32.8778C14.6222 31.8807 14.8049 30.0077 15.2539 28.9827C15.7029 27.9584 16.6663 27.6091 17.2151 27.7588C17.7639 27.9085 18.2951 28.4404 18.4448 30.1353C18.5945 31.8302 17.9129 33.8911 16.3508 33.7914V33.792Z" fill="#1E1E22"/>
<path d="M16.1533 28.9832C15.957 28.9794 15.7827 29.1057 15.6946 29.2754C15.6156 29.429 15.5637 29.6551 15.5916 29.8469C15.5922 29.8773 15.5955 29.9084 15.6039 29.9382C15.6635 30.1598 15.8806 30.303 16.1073 30.2654C16.3159 30.2304 16.452 30.1171 16.5135 29.9162C16.5505 29.7957 16.5757 29.7335 16.5984 29.4193C16.6153 29.1815 16.393 28.9884 16.1533 28.9832Z" fill="white"/>
<path d="M15.7969 30.7475C15.5721 30.7391 15.4308 30.9672 15.4205 31.1674C15.412 31.3391 15.504 31.5483 15.6841 31.5911C15.7982 31.6177 15.9511 31.5762 16.0036 31.4609C16.0748 31.3067 16.0832 31.1298 16.0832 31.1246C16.0904 30.8732 15.9984 30.7553 15.7962 30.7482L15.7969 30.7475Z" fill="white"/>
<path d="M25.0248 30.2895C25.3104 30.2895 25.5419 30.0581 25.5419 29.7725C25.5419 29.487 25.3104 29.2555 25.0248 29.2555C24.7393 29.2555 24.5078 29.487 24.5078 29.7725C24.5078 30.0581 24.7393 30.2895 25.0248 30.2895Z" fill="#1E1E22"/>
<path d="M22.8748 29.8657C23.1982 29.8657 23.4605 29.6035 23.4605 29.28C23.4605 28.9566 23.1982 28.6943 22.8748 28.6943C22.5513 28.6943 22.2891 28.9566 22.2891 29.28C22.2891 29.6035 22.5513 29.8657 22.8748 29.8657Z" fill="#1E1E22"/>
<path d="M22.9712 32.3271C23.3927 32.3271 23.7344 31.9854 23.7344 31.5639C23.7344 31.1424 23.3927 30.8007 22.9712 30.8007C22.5497 30.8007 22.208 31.1424 22.208 31.5639C22.208 31.9854 22.5497 32.3271 22.9712 32.3271Z" fill="#1E1E22"/>
<path d="M39.1927 31.456C39.49 31.456 39.7311 31.2149 39.7311 30.9175C39.7311 30.6202 39.49 30.3792 39.1927 30.3792C38.8953 30.3792 38.6543 30.6202 38.6543 30.9175C38.6543 31.2149 38.8953 31.456 39.1927 31.456Z" fill="#1E1E22"/>
<path d="M41.588 30.3978C41.9504 30.3978 42.2443 30.104 42.2443 29.7415C42.2443 29.379 41.9504 29.0852 41.588 29.0852C41.2255 29.0852 40.9316 29.379 40.9316 29.7415C40.9316 30.104 41.2255 30.3978 41.588 30.3978Z" fill="#1E1E22"/>
<path d="M41.4138 33.3394C41.8542 33.3394 42.2113 32.9823 42.2113 32.5418C42.2113 32.1013 41.8542 31.7443 41.4138 31.7443C40.9733 31.7443 40.6162 32.1013 40.6162 32.5418C40.6162 32.9823 40.9733 33.3394 41.4138 33.3394Z" fill="#1E1E22"/>
<path d="M35.6126 30.8998C35.5854 31.343 35.4934 31.8697 35.2044 32.2241C34.9018 32.5954 34.3408 32.7593 33.8794 32.7697C33.3456 32.782 33.0352 32.5895 32.7787 32.1347C32.5357 31.7039 32.3867 31.2283 32.1489 30.7975C32.0718 30.6575 31.8153 30.6731 31.7861 30.8448C31.7757 30.9057 31.7693 30.9672 31.7647 31.0294C31.6656 30.9912 31.5464 31.019 31.4732 31.1279C31.0313 31.7849 30.6957 32.6666 29.7886 32.7787C28.6853 32.9154 28.4624 31.7615 28.5693 30.9186C28.6341 30.4055 27.7342 30.2785 27.659 30.7955C27.5547 31.5101 27.5852 32.2475 28.005 32.8636C28.3685 33.3975 28.971 33.7402 29.626 33.7026C30.2746 33.6657 30.8706 33.3392 31.3157 32.8759C31.538 32.6446 31.7621 32.3472 31.8846 32.0259C31.963 32.2922 32.0725 32.5481 32.2001 32.7761C32.5726 33.4435 33.2082 33.7059 33.9565 33.6767C34.6381 33.6501 35.389 33.402 35.8607 32.8876C36.3434 32.3608 36.519 31.5924 36.5611 30.8985C36.598 30.2895 35.6501 30.2915 35.6132 30.8985L35.6126 30.8998Z" fill="#1E1E22"/>
<path d="M31.936 31.5639C31.936 31.5639 30.0415 30.7878 29.6094 29.9572C29.1773 29.1259 29.244 28.2124 30.2411 28.0627C31.2382 27.9131 32.9499 27.9629 33.6814 28.0627C34.4129 28.1625 34.6124 28.9944 34.396 29.5088C34.1803 30.0232 32.6344 31.5089 31.9366 31.5639H31.936Z" fill="#1E1E22"/>
<path d="M31.4861 29.0392C31.4427 28.7262 31.0533 28.6465 30.7915 28.6634C30.6574 28.6718 30.5311 28.6977 30.4073 28.7476C30.2065 28.8279 30.1145 28.9303 30.0866 29.1532C30.0685 29.2977 30.2007 29.4227 30.3238 29.4642C30.3899 29.4868 30.7572 29.5154 30.8835 29.5082C31.168 29.4907 31.5379 29.4117 31.4861 29.0392Z" fill="white"/>
<path d="M56.9698 30.7312C56.9763 30.2382 56.9575 29.3273 56.931 28.8368C56.9206 28.2965 56.8448 27.4872 56.8046 26.9437C56.7223 26.1681 56.62 25.3583 56.4846 24.5879C56.068 22.2471 55.3553 19.8907 54.1288 17.8427C52.9749 15.8608 50.9166 14.6207 48.91 13.6463C48.4118 13.413 47.92 13.1999 47.4056 13.0074C47.4743 11.3268 47.5313 9.61378 47.2786 7.9299C47.1205 6.99499 46.8128 5.85858 45.85 5.44328C44.6605 4.98976 43.8914 5.55926 43.1937 6.43456C42.2996 7.58976 41.6938 8.88749 41.1139 10.206C40.8651 10.7865 40.6319 11.3696 40.4148 11.965C37.9658 11.641 35.5252 11.7233 33.0716 11.7849C30.6096 11.8697 28.305 11.954 25.8515 12.1665C25.5897 10.8078 25.2418 9.19394 24.73 7.75367C24.3723 6.81811 23.5301 4.88609 22.3658 4.81612C21.1555 4.7915 19.5002 7.03451 18.7266 9.33777C17.9329 11.7019 17.6278 12.6978 17.401 13.7363C17.3103 13.759 16.3125 14.206 15.9549 14.3972C13.5246 15.6936 10.4744 17.6088 9.12868 20.7193C7.82512 23.7307 7.43573 28.772 7.49145 32.075C7.58928 34.2862 7.83289 37.7091 8.2158 39.8711C8.52938 41.7603 9.52195 43.5654 10.6998 45.0931C11.6697 46.3734 12.9357 47.4087 14.306 48.2348C22.22 52.7221 35.8524 53.7736 44.7726 52.4305C50.9509 51.5027 53.9928 49.0492 55.5419 42.924C56.1574 40.4697 56.4884 37.9643 56.7353 35.4537C56.7975 34.9348 56.8396 34.0932 56.8817 33.569C56.9271 33.0371 56.9368 32.2162 56.9621 31.6791C56.977 31.418 56.9666 30.9943 56.9698 30.7325V30.7312ZM56.112 31.4264C56.0965 31.8469 56.0667 32.6341 56.0518 33.052C56.0246 33.5807 55.9513 34.3782 55.9209 34.9082C55.8911 35.2134 55.8075 35.9792 55.7758 36.2973C55.5425 38.4477 55.216 40.611 54.6892 42.7037C54.3776 43.8848 54.0051 45.0497 53.4576 46.1408C51.5431 50.1311 47.8054 51.1866 43.7223 51.7094C37.7202 52.459 31.5912 52.2271 25.6318 51.2112C24.9256 51.0874 24.0477 50.9067 23.3493 50.7551C22.9418 50.6611 22.1637 50.4635 21.7659 50.3747C21.2573 50.2348 20.4798 50.0106 19.9764 49.8687C19.8267 49.8221 19.0395 49.5532 18.875 49.502C18.3579 49.3452 17.6491 49.0517 17.136 48.8548C16.8749 48.7557 16.5412 48.619 16.2834 48.4972C15.0342 47.9374 13.822 47.2305 12.7744 46.3468C8.35185 42.6687 8.81056 37.4674 8.51059 32.2778C8.4147 29.1303 8.74318 22.6727 10.9039 19.7481C12.5282 17.2013 14.9941 15.9126 18.0839 14.4626C18.0651 14.471 18.056 14.4749 18.0528 14.4769C18.0586 14.4743 18.0767 14.4639 18.0865 14.4535C18.4467 12.9258 18.8717 11.413 19.3823 9.9306C19.7723 8.82334 20.1934 7.71998 20.7843 6.70473C22.4196 3.88186 23.5955 5.86247 24.3024 7.91046C24.8181 9.44338 25.1446 11.0508 25.3759 12.6498C27.9416 12.4678 30.5163 12.3401 33.0872 12.2844C35.6567 12.2539 38.2833 12.1969 40.812 12.6323L40.9001 12.3939C41.4424 10.9413 43.3368 6.20261 44.8976 5.9765C46.1144 5.85405 46.4208 7.08246 46.5757 8.04199C46.8251 9.85285 46.7124 11.7026 46.6255 13.5277C48.8556 14.3317 51.4504 15.6476 52.9503 17.5161C53.5749 18.3539 54.0439 19.3361 54.4392 20.3047C54.8383 21.272 55.1441 22.3553 55.3883 23.3751C55.424 23.5558 55.5866 24.3385 55.6177 24.505C55.6702 24.8328 55.7479 25.3168 55.8004 25.6453C55.8561 26.1046 55.9112 26.564 55.9611 27.024C55.9831 27.346 56.0472 28.0988 56.0641 28.4098C56.0744 28.7098 56.1036 29.4899 56.1146 29.8002C56.1146 30.2246 56.1159 31.0092 56.1146 31.4251L56.112 31.4264Z" fill="#1E1E22"/>
<path d="M18.084 14.4541C18.084 14.4541 18.0827 14.46 18.082 14.4632L18.0866 14.4515C18.0866 14.4515 18.0853 14.4528 18.0846 14.4535L18.084 14.4541Z" fill="#1E1E22"/>
<path d="M18.0869 14.4515C18.0869 14.4515 18.0908 14.4457 18.0901 14.4425L18.0869 14.4515Z" fill="#1E1E22"/>
<path d="M13.9125 19.4354C12.9536 20.1721 11.9889 21.3474 11.6144 22.509C11.5288 22.7734 11.8943 22.8913 12.0381 22.6878C12.3905 22.1883 12.6756 21.6499 13.0585 21.1705C13.4278 20.7079 13.8522 20.3146 14.2694 19.8987C14.4981 19.6706 14.1846 19.2268 13.9125 19.4361V19.4354Z" fill="#1E1E22"/>
<path d="M15.8526 17.8001C15.5889 17.859 15.342 18.0799 15.1418 18.2523C14.9792 18.3922 14.7155 18.6475 14.7421 18.8833C14.7505 18.9598 14.7991 19.022 14.882 19.0233C15.1004 19.0265 15.3129 18.8134 15.48 18.6909C15.6854 18.5412 15.9407 18.4408 16.1254 18.2685C16.3398 18.0683 16.113 17.7424 15.8526 17.8007V17.8001Z" fill="#1E1E22"/>
<path d="M15.5182 19.5333C15.3206 19.6784 15.1664 19.8715 15.0135 20.0606C14.8878 20.2168 14.7129 20.4118 14.7252 20.6243C14.7278 20.6703 14.7667 20.7247 14.8192 20.7183C15.02 20.6949 15.1703 20.5362 15.3161 20.4079C15.4878 20.2563 15.6854 20.1177 15.837 19.946C16.0223 19.7367 15.7729 19.3454 15.5182 19.5326V19.5333Z" fill="#1E1E22"/>
<path d="M20.6629 8.72045C20.2807 9.32364 19.7896 10.3933 20.0921 11.1073C20.1187 11.1695 20.2074 11.1546 20.2379 11.1073C20.4219 10.8209 20.4627 10.438 20.5722 10.1167C20.7102 9.71367 20.8916 9.34696 21.1041 8.9796C21.27 8.69323 20.8385 8.4438 20.6623 8.72109L20.6629 8.72045Z" fill="#1E1E22"/>
<path d="M21.7048 6.99908C21.4431 7.0088 21.2721 7.26472 21.1729 7.48695C21.0803 7.69428 20.9831 7.93465 21.0388 8.164C21.0731 8.30395 21.2552 8.34411 21.3537 8.24693C21.4839 8.11865 21.5526 7.93853 21.6627 7.79275C21.7852 7.63143 21.9737 7.47918 21.9705 7.26407C21.9685 7.12478 21.8506 6.99326 21.7048 6.99844V6.99908Z" fill="#1E1E22"/>
<path d="M44.4217 6.95055C44.0816 7.09568 43.825 7.59586 43.6585 7.91138C43.4959 8.21978 43.2821 8.60074 43.3468 8.95773C43.3617 9.04066 43.4745 9.08083 43.5419 9.03742C43.8276 8.85277 43.9805 8.48542 44.1729 8.21201C44.3796 7.91786 44.7327 7.60622 44.8195 7.25571C44.8811 7.00692 44.6323 6.86114 44.4223 6.95055H44.4217Z" fill="#1E1E22"/>
<path d="M52.453 42.8658C52.2574 43.3498 52.0876 43.837 51.8511 44.3048C51.6218 44.7583 51.3225 45.1503 51.0354 45.5662C50.7808 45.9349 51.351 46.3677 51.6535 46.0431C52.4025 45.2397 52.9603 44.0443 53.0186 42.9423C53.0368 42.5924 52.5658 42.5872 52.453 42.8658Z" fill="#1E1E22"/>
<path d="M12.4187 42.6417C12.2353 42.3222 12.0597 41.9951 11.9288 41.6504C11.7863 41.2746 11.7403 40.8923 11.6457 40.5062C11.5492 40.1142 11.0069 40.2302 10.9771 40.5969C10.9078 41.4489 11.4164 42.3618 11.8336 43.0706C12.2165 43.7204 12.6564 44.5866 13.4475 44.7901C13.6516 44.8425 13.7909 44.5938 13.6497 44.4428C13.1482 43.9063 12.7828 43.2759 12.4187 42.641V42.6417Z" fill="#1E1E22"/>
<path d="M14.7433 45.3681C14.5813 45.2113 14.2276 44.7973 14.0106 45.1297C13.822 45.4173 14.2179 45.7179 14.4116 45.8696C14.6908 46.0879 15.031 46.2725 15.3776 46.3535C15.5292 46.3892 15.6705 46.1916 15.5389 46.0762C15.2714 45.8411 14.9999 45.6169 14.7433 45.3687V45.3681Z" fill="#1E1E22"/>
</g>
</g>
<defs>
<radialGradient id="paint0_radial_457_81320" cx="0" cy="0" r="1" gradientUnits="userSpaceOnUse" gradientTransform="translate(-33.6693 -0.785118) rotate(90) scale(89.0251)">
<stop offset="0.265" stop-color="#D27C71"/>
<stop offset="1" stop-color="#D27C71" stop-opacity="0"/>
</radialGradient>
<radialGradient id="paint1_radial_457_81320" cx="0" cy="0" r="1" gradientUnits="userSpaceOnUse" gradientTransform="translate(106.061 126.812) rotate(90) scale(126.144)">
<stop stop-color="#B68EFF"/>
<stop offset="1" stop-color="#B68EFF" stop-opacity="0"/>
</radialGradient>
<clipPath id="clip0_457_81320">
<rect y="0.5" width="64" height="64" rx="32" fill="white"/>
</clipPath>
<clipPath id="clip1_457_81320">
<rect width="64" height="64" fill="white" transform="translate(0 0.5)"/>
</clipPath>
<clipPath id="clip2_457_81320">
<rect width="5.94286" height="6.85714" fill="white" transform="translate(2.36523 32.0653)"/>
</clipPath>
</defs>
</svg>
