<svg width="64" height="64" viewBox="0 0 64 64" fill="none" xmlns="http://www.w3.org/2000/svg">
<g clip-path="url(#clip0_457_81399)">
<rect width="64" height="64" rx="32" fill="#8B47F4"/>
<mask id="mask0_457_81399" style="mask-type:alpha" maskUnits="userSpaceOnUse" x="0" y="0" width="64" height="64">
<circle cx="32" cy="32" r="32" fill="#8B47F4"/>
</mask>
<g mask="url(#mask0_457_81399)">
<circle cx="-33.6693" cy="-1.28512" r="89.0251" fill="url(#paint0_radial_457_81399)"/>
<circle cx="106.061" cy="126.312" r="126.144" fill="url(#paint1_radial_457_81399)"/>
</g>
<g clip-path="url(#clip1_457_81399)">
<path d="M38.8263 9.12522C34.3423 6.01903 27.6744 7.65423 25.5336 12.7154C22.5589 19.9981 30.1614 26.7259 37.1849 23.8623C40.2695 22.6111 42.6461 19.2635 42.6368 15.8962C42.6831 13.0864 41.138 10.6968 38.8269 9.1246L38.8263 9.12522Z" fill="white"/>
<path d="M38.8263 9.12522C34.3423 6.01903 27.6744 7.65423 25.5336 12.7154C22.5589 19.9981 30.1614 26.7259 37.1849 23.8623C40.2695 22.6111 42.6461 19.2635 42.6368 15.8962C42.6831 13.0864 41.138 10.6968 38.8269 9.1246L38.8263 9.12522ZM39.4923 21.8068C37.0991 23.9864 33.4713 24.5926 30.4942 23.3759C27.5417 22.2253 25.3701 19.224 25.4441 16.0074C25.5497 10.2944 31.53 6.90361 36.6658 8.74744C39.7349 9.78819 42.0757 12.6808 42.0732 16.0074C42.1028 18.2012 41.1201 20.3574 39.4923 21.8068Z" fill="#1E1E22"/>
<path d="M33.5687 8.95728C33.3366 8.65666 33.11 8.3511 32.8748 8.05233C32.7631 7.91036 32.6532 7.76529 32.5427 7.62085C32.3236 7.64801 32.1063 7.68258 31.8896 7.72455C32.0347 7.95912 32.1884 8.18937 32.3353 8.41962C32.5403 8.74123 32.7582 9.05543 32.9742 9.36962C33.2014 9.70049 33.41 10.0844 33.7409 10.3215C34.023 10.524 34.3255 10.2141 34.2249 9.92271C34.0983 9.55851 33.8014 9.25851 33.5687 8.95728Z" fill="#1E1E22"/>
<path d="M28.6238 9.79731C28.8837 10.1202 29.1442 10.443 29.4029 10.7665C29.6714 11.1029 29.9134 11.4992 30.2603 11.756C30.4411 11.8899 30.7356 11.8245 30.8843 11.6757C31.0584 11.5016 31.0584 11.264 30.9646 11.0516C30.7985 10.6732 30.4158 10.335 30.1479 10.0214C29.8794 9.70781 29.6072 9.39731 29.3288 9.09237C29.2343 8.98929 29.1405 8.88496 29.0461 8.78064C28.7633 8.9436 28.4899 9.122 28.2275 9.31583C28.3603 9.47632 28.493 9.63558 28.6232 9.79731H28.6238Z" fill="#1E1E22"/>
<path d="M28.42 13.0616C27.9392 12.545 27.2299 12.2382 26.6188 11.8993C26.454 11.8079 26.283 11.7067 26.1064 11.6067C25.9577 11.8474 25.8206 12.0993 25.6953 12.3598C25.8583 12.4666 26.02 12.569 26.1688 12.6697C26.7503 13.0623 27.3428 13.5493 28.0237 13.7437C28.4268 13.8592 28.6916 13.353 28.4206 13.0616H28.42Z" fill="#1E1E22"/>
<path d="M34.6639 24.5592C39.0444 24.5592 42.5955 21.0565 42.5955 16.7357C42.5955 12.4149 39.0444 8.91223 34.6639 8.91223C30.2835 8.91223 26.7324 12.4149 26.7324 16.7357C26.7324 21.0565 30.2835 24.5592 34.6639 24.5592Z" fill="white"/>
<path d="M40.9767 11.9987C41.8847 14.7802 41.7927 17.5289 40.8791 18.9555C39.8298 20.5938 38.1038 22.3018 33.3013 22.4499C33.0902 22.4567 32.8859 22.4555 32.6871 22.4487C30.1742 21.4573 29.4507 19.5962 29.2458 18.7363C29.2217 18.5845 29.1958 18.432 29.1674 18.2789C28.8562 16.6166 28.2464 14.9419 27.0538 14.5289C26.8457 15.2289 26.7334 15.9697 26.7334 16.7357C26.7334 18.0191 27.047 19.2302 27.6025 20.2987C27.6019 20.2981 27.6013 20.2975 27.6007 20.2962C27.6075 20.3092 27.6149 20.3222 27.6217 20.3351C27.6457 20.3808 27.6704 20.4259 27.6951 20.4709C27.7161 20.5092 27.7377 20.5475 27.7599 20.5857C27.7865 20.632 27.8136 20.679 27.8414 20.7246C27.8606 20.7561 27.8797 20.787 27.8988 20.8178C27.9211 20.8536 27.9433 20.8888 27.9661 20.924C27.9859 20.9549 28.0062 20.9864 28.0266 21.0172C28.0581 21.0648 28.0908 21.1117 28.1229 21.1586C28.1507 21.1981 28.1785 21.237 28.2069 21.2765C28.2303 21.3092 28.2538 21.3413 28.2778 21.3734C28.3019 21.4055 28.326 21.4376 28.3507 21.4691C28.3741 21.4993 28.3976 21.529 28.4211 21.5586C28.4519 21.5975 28.4828 21.6357 28.5143 21.674C28.5501 21.7172 28.5865 21.7611 28.6235 21.8036C28.6507 21.8351 28.6778 21.8654 28.7056 21.8962C28.7291 21.9228 28.7532 21.9493 28.7772 21.9759C28.8056 22.0067 28.834 22.0376 28.863 22.0685C28.8883 22.095 28.9137 22.1209 28.939 22.1475C28.9871 22.1975 29.0365 22.2462 29.0859 22.295C29.1075 22.316 29.1285 22.3376 29.1507 22.358C30.5779 23.7203 32.5223 24.5598 34.6655 24.5598C39.0458 24.5598 42.5971 21.0573 42.5971 16.7363C42.5971 14.9555 41.9934 13.3141 40.9773 11.9987H40.9767Z" fill="#DCDCDC"/>
<path d="M41.7013 16.9173C41.6982 16.842 41.65 16.7605 41.5729 16.7439C41.5599 16.7402 41.5463 16.7383 41.5327 16.7365C41.5303 16.7365 41.5284 16.7365 41.5259 16.7371C41.4531 16.7463 41.3741 16.7858 41.3574 16.8692C41.2531 17.3957 41.1741 17.9111 41.0099 18.4235C40.9247 18.6889 41.3241 18.797 41.4136 18.5383C41.5901 18.0266 41.7253 17.4636 41.7006 16.9173H41.7013Z" fill="#1E1E22"/>
<path d="M31.7724 10.6037C31.2292 10.8259 30.6823 11.0901 30.2002 11.4339C29.8298 11.6981 29.331 12.0839 29.2514 12.571C29.2304 12.6981 29.352 12.8234 29.4742 12.7475C29.673 12.6247 29.8236 12.4339 29.9989 12.2796C30.173 12.1259 30.357 11.9852 30.5526 11.8611C31.0107 11.571 31.5113 11.3827 31.9996 11.1568C32.2996 11.0173 32.0835 10.4759 31.773 10.603L31.7724 10.6037Z" fill="#DCDCDC"/>
<path d="M33.2593 10.0394C33.0612 10.0703 32.797 10.1234 32.66 10.2876C32.5587 10.4092 32.5803 10.6376 32.7593 10.6746C32.9458 10.7129 33.1501 10.6518 33.3396 10.6493C33.5211 10.6475 33.66 10.4826 33.6359 10.2974C33.61 10.0981 33.439 10.011 33.2593 10.0394Z" fill="#DCDCDC"/>
<path d="M31.7724 10.2773C31.2292 10.4995 30.6823 10.7637 30.2002 11.1075C29.8298 11.3717 29.331 11.7575 29.2514 12.2445C29.2304 12.3717 29.352 12.497 29.4742 12.4211C29.673 12.2982 29.8236 12.1075 29.9989 11.9532C30.173 11.7995 30.357 11.6587 30.5526 11.5347C31.0107 11.2445 31.5113 11.0563 31.9996 10.8303C32.2996 10.6908 32.0835 10.1495 31.773 10.2766L31.7724 10.2773Z" fill="#1E1E22"/>
<path d="M33.2593 9.71301C33.0612 9.74387 32.797 9.79696 32.66 9.96115C32.5587 10.0828 32.5803 10.3112 32.7593 10.3482C32.9458 10.3865 33.1501 10.3254 33.3396 10.3229C33.5211 10.321 33.66 10.1562 33.6359 9.97103C33.61 9.77165 33.439 9.68461 33.2593 9.71301Z" fill="#1E1E22"/>
<path d="M39.5246 10.0346C35.3487 7.07594 29.0116 8.70928 27.0178 13.5303C24.248 20.4674 31.4604 26.947 38.0011 24.2192C40.874 23.0279 43.087 19.839 43.0783 16.6315C43.1215 13.955 41.6765 11.5328 39.5246 10.0346ZM40.1505 22.26C37.9221 24.3359 34.5437 24.9131 31.7709 23.7544C29.0215 22.6581 26.9986 19.7995 27.0678 16.7359C27.1659 11.2939 32.7351 8.06422 37.5178 9.8204C40.3758 10.8118 42.5561 13.5667 42.5536 16.7359C42.5814 18.826 41.666 20.8791 40.1505 22.26Z" fill="#1E1E22"/>
<path d="M40.5829 19.4037C40.3897 18.6451 39.8021 18.0753 39.2366 17.5802C39.0064 17.387 38.9089 17.2487 38.6601 17.079C39.6342 16.4882 40.6558 15.2339 40.6823 14.0697C40.6996 13.3197 40.0681 12.7537 39.4737 12.6C38.6305 12.3444 37.82 13.1537 37.4866 13.8259C37.1119 14.5734 37.0335 15.0802 36.8749 15.8969C36.8595 15.9555 36.82 15.945 36.7984 15.9055C36.5237 15.3969 36.428 15.3487 36.1342 14.9598C35.4922 14.121 34.6366 13.3981 33.5601 13.15C32.1773 12.8524 30.7903 13.5827 29.8872 14.5938C29.3409 15.2068 28.9341 15.937 28.7039 16.729C28.2903 18.3234 28.7644 20.158 29.8508 21.3846C30.5915 22.2358 31.7885 22.6908 32.9051 22.5377C34.9829 22.3204 36.499 20.7599 37.1687 18.8685C37.6317 19.6846 38.2959 20.6383 39.0737 20.934C39.5113 21.1043 39.9817 20.942 40.2749 20.5907C40.5632 20.2877 40.691 19.808 40.5829 19.4037Z" fill="#DCDCDC"/>
<path d="M40.4687 18.3468C40.2755 17.5882 39.6878 17.0184 39.1224 16.5233C38.8921 16.3301 38.7946 16.1919 38.5458 16.0221C39.5199 15.4314 40.5415 14.177 40.5681 13.0128C40.5854 12.2628 39.9539 11.6968 39.3594 11.5431C38.5162 11.2875 37.7057 12.0968 37.3724 12.769C36.9977 13.5165 36.9193 14.0233 36.7606 14.84C36.7452 14.8986 36.7057 14.8882 36.6841 14.8486C36.4094 14.34 36.3137 14.2919 36.0199 13.903C35.3779 13.0641 34.5224 12.3412 33.4458 12.0931C32.0631 11.7955 30.676 12.5258 29.773 13.5369C29.2267 14.1499 28.8199 14.8801 28.5896 15.6721C28.176 17.2666 28.6501 19.1011 29.7365 20.3277C30.4773 21.1789 31.6742 21.6339 32.7909 21.4808C34.8687 21.2635 36.3847 19.703 37.0545 17.8116C37.5174 18.6277 38.1816 19.5814 38.9594 19.8771C39.3971 20.0474 39.8674 19.8851 40.1607 19.5339C40.4489 19.2308 40.5767 18.7511 40.4687 18.3468Z" fill="white"/>
<path d="M33.1194 12.2474L32.957 21.158L33.878 20.8993L33.9225 12.4184L33.1194 12.2474Z" fill="#DCDCDC"/>
<path d="M39.3585 11.5431C38.9783 11.4277 38.6048 11.5295 38.2789 11.7369C39.0048 11.9344 39.2542 12.1456 39.2542 12.94C39.2542 13.8894 38.069 14.8487 37.8598 15.3758C37.6505 15.903 37.9999 16.0697 37.9999 16.0697L38.6011 15.9869C39.5579 15.3826 40.5412 14.1548 40.5672 13.0128C40.5845 12.2628 39.953 11.6968 39.3585 11.5431Z" fill="#DCDCDC"/>
<path d="M40.4679 18.3468C40.3994 18.0777 40.2809 17.8332 40.1315 17.6067C40.0525 18.9999 38.6253 18.2104 38.0697 17.4894C37.4901 16.7369 37.3247 16.0573 36.9296 16.2419C36.5346 16.4264 36.0463 17.5678 35.0938 18.6135C34.1407 19.6592 32.2845 19.8771 30.9277 19.1246C29.8154 18.5079 28.8549 16.5443 28.545 15.8567C28.2123 17.4061 28.6907 19.1481 29.7351 20.3277C30.4759 21.1789 31.6728 21.6339 32.7895 21.4808C34.8673 21.2635 36.3833 19.703 37.0531 17.8116C37.516 18.6277 38.1802 19.5814 38.958 19.8771C39.3957 20.0475 39.8661 19.8851 40.1593 19.5339C40.4475 19.2308 40.5753 18.7511 40.4673 18.3468H40.4679Z" fill="#DCDCDC"/>
<path d="M40.4687 18.3468C40.2755 17.5882 39.6878 17.0184 39.1224 16.5233C38.8921 16.3301 38.7946 16.1919 38.5458 16.0221C39.5199 15.4314 40.5415 14.177 40.5681 13.0128C40.5854 12.2628 39.9539 11.6968 39.3594 11.5431C38.5162 11.2875 37.7057 12.0968 37.3724 12.769C36.9977 13.5165 36.9193 14.0233 36.7606 14.84C36.7452 14.8986 36.7057 14.8882 36.6841 14.8486C36.4094 14.34 36.3137 14.2919 36.0199 13.903C35.3779 13.0641 34.5224 12.3412 33.4458 12.0931C32.0631 11.7955 30.676 12.5258 29.773 13.5369C29.2267 14.1499 28.8199 14.8801 28.5896 15.6721C28.176 17.2666 28.6501 19.1011 29.7365 20.3277C30.4773 21.1789 31.6742 21.6339 32.7909 21.4808C34.8687 21.2635 36.3847 19.703 37.0545 17.8116C37.5174 18.6277 38.1816 19.5814 38.9594 19.8771C39.3971 20.0474 39.8674 19.8851 40.1607 19.5339C40.4489 19.2308 40.5767 18.7511 40.4687 18.3468ZM40.0884 18.8777C40.0137 19.1431 39.7668 19.4289 39.5057 19.5079C39.0378 19.6234 38.6316 19.1999 38.3347 18.8771C38.1069 18.6159 37.9039 18.3246 37.7168 18.0227C37.531 17.7221 37.3569 17.4036 37.2082 17.0894C37.1785 17.0271 37.1211 16.9771 37.0489 16.9592C36.9205 16.9277 36.7903 17.0054 36.7588 17.1345C36.731 17.2462 36.6909 17.3734 36.652 17.4851C36.0477 19.2431 34.6563 20.7277 32.7304 20.8826C30.6297 21.0974 29.3322 19.145 29.1347 17.2598C28.9742 16.0382 29.439 14.8462 30.2137 13.9202C30.9699 13.0079 32.1532 12.3079 33.3662 12.4993C34.3446 12.6665 35.16 13.3727 35.8143 14.1036C36.1341 14.4604 36.4267 14.8499 36.7082 15.2382C36.7316 15.2696 36.7606 15.319 36.7995 15.3307C36.8205 15.3252 36.8261 15.3061 36.8292 15.2851C36.8316 15.2721 36.8384 15.2406 36.8415 15.2264C37.0205 14.4252 37.2681 13.624 37.6569 12.8999C37.9724 12.3104 38.5465 11.5888 39.2946 11.832C40.1119 12.0739 40.2958 12.7258 40.0082 13.4758C39.623 14.448 38.8563 15.2314 38.0415 15.8665C37.9539 15.9314 37.9594 16.0727 38.0539 16.1289C38.765 16.627 39.4829 17.211 39.9205 17.9715C40.0724 18.2493 40.1742 18.574 40.0884 18.8777Z" fill="#1E1E22"/>
<path d="M33.0815 21.137C33.187 19.5975 33.1796 18.0475 33.2148 16.5061C33.2339 15.6715 33.258 14.8376 33.2716 14.003C33.2809 13.4413 33.3228 12.853 33.2988 12.2789C33.2772 12.2758 33.2562 12.2715 33.2352 12.2684C33.1235 12.2542 33.0111 12.2474 32.8988 12.2468C32.8469 12.8258 32.863 13.4234 32.8469 13.9931C32.8228 14.8271 32.8099 15.6623 32.7914 16.4962C32.7568 18.0567 32.6784 19.624 32.7179 21.1851C32.7963 21.1784 32.8753 21.1697 32.9562 21.1574C32.9981 21.1512 33.0401 21.1438 33.0815 21.1364V21.137Z" fill="#1E1E22"/>
<path d="M32.1244 15.8426C31.7009 14.9383 30.3509 15.4513 30.5299 16.4994C30.7713 17.6698 32.6367 16.984 32.1244 15.8426Z" fill="#DCDCDC"/>
<path d="M31.6898 15.5117C31.2663 14.6074 29.9163 15.1203 30.0954 16.1685C30.3367 17.3389 32.2021 16.6531 31.6898 15.5117Z" fill="#1E1E22"/>
<path d="M47.2125 37.5817C47.2125 37.5817 52.0576 38.2002 53.9403 36.473C55.8225 34.7459 56.415 33.481 55.7879 30.0724L52.8595 30.8008C52.8595 30.8008 53.3903 33.6138 51.591 34.1823C49.7916 34.7508 47.2119 34.1823 47.2119 34.1823V37.5811L47.2125 37.5817Z" fill="#DCDCDC"/>
<path d="M51.593 34.1822C51.3078 34.2723 51.0035 34.334 50.6924 34.3735C50.8288 34.7686 50.985 35.2754 51.1078 35.8266C51.1078 35.8266 53.1467 35.3211 53.7831 34.3013L52.614 33.2976C52.4128 33.6933 52.093 34.0242 51.593 34.1822Z" fill="white"/>
<path d="M56.0264 29.7186C55.0116 29.9538 53.4857 30.3044 52.4696 30.5347C52.5425 30.9557 52.5869 31.4057 52.5634 31.8316C52.5239 32.5495 52.361 33.3767 51.6795 33.7341C51.5517 33.8051 51.4073 33.8415 51.2653 33.8822C51.1986 33.9032 51.1011 33.9267 51.0307 33.939C50.4647 34.0662 49.8776 34.1026 49.2968 34.0977C48.5153 34.0977 47.7196 34.0168 46.9492 33.8853C46.9918 35.1032 47.1628 37.7835 47.1628 37.7835C49.1363 38.0039 52.2449 38.0137 53.982 36.8551C54.8184 36.2971 55.3857 35.46 55.777 34.6415C56.5024 33.1619 56.2801 31.2804 56.0258 29.718L56.0264 29.7186ZM55.7635 32.6791C55.7209 34.2193 54.9456 35.2822 53.853 36.3063C53.653 36.4995 53.4283 36.6594 53.1814 36.7958C51.6881 37.5804 49.7542 37.6378 48.0924 37.5995C47.8239 37.5909 47.5406 37.573 47.2721 37.5502L47.2449 37.5477C47.2449 37.5477 47.243 37.5477 47.2418 37.5477C47.3072 36.6718 47.3955 35.4341 47.448 34.4958C48.8357 34.802 50.7727 34.9656 52.0233 34.4174C53.1604 33.8631 53.3857 32.4279 53.277 31.2958C53.2696 31.2149 53.261 31.1347 53.2511 31.0544C53.9184 30.8742 54.8943 30.6137 55.5598 30.4359C55.6931 31.1773 55.7888 31.931 55.7635 32.6798V32.6791Z" fill="#1E1E22"/>
<path d="M58.0445 26.3278C57.2754 24.6902 55.5871 25.247 55.2315 26.9871C55.1451 27.4106 55.0507 27.897 54.85 28.3377L54.8408 28.2995C54.8408 28.2995 54.1852 25.363 51.6216 26.1414C49.9938 26.6359 48.9216 29.0346 49.8975 31.0414C50.8735 33.0482 54.4186 33.1501 56.1612 31.7661C57.9044 30.3816 58.4476 27.189 58.0433 26.3285L58.0445 26.3278Z" fill="white"/>
<path d="M58.0438 26.3278C57.3876 24.9303 56.0623 25.1321 55.4666 26.3025C56.0147 26.3155 56.4888 26.9933 56.5333 27.368C56.5975 27.9056 56.8586 29.8081 53.8481 31.0396C51.845 31.8593 50.3567 30.797 49.5752 30.0211C49.6314 30.3649 49.7357 30.7081 49.8974 31.0408C50.8733 33.0476 54.4184 33.1495 56.161 31.7655C57.9043 30.3809 58.4475 27.1883 58.0431 26.3278H58.0438Z" fill="#DCDCDC"/>
<path d="M54.8366 28.3673C54.5421 28.9494 54.0866 29.4617 53.1742 29.6111C51.5705 29.8741 51.3267 28.4068 51.3267 28.4068C51.3267 28.4068 51.1674 27.487 51.7693 26.816C52.3705 26.145 53.7502 26.4531 54.16 26.9062C54.5699 27.3593 54.915 28.2123 54.8366 28.3673Z" fill="#DCDCDC"/>
<path d="M58.297 26.5501C58.213 26.1748 57.9902 25.8421 57.7136 25.5748C57.2723 25.1501 56.5976 25.0729 56.0803 25.4057C55.5994 25.7026 55.2957 26.2273 55.1593 26.7569C55.0655 27.2038 54.984 27.6767 54.829 28.1051C54.6753 27.4717 54.3747 26.86 53.8963 26.4081C53.221 25.7581 52.234 25.6834 51.3809 25.9822C49.7062 26.6236 48.9278 28.668 49.3142 30.3458C49.4809 31.1008 49.8926 31.8224 50.5408 32.2551C51.7852 33.0952 53.4266 33.1366 54.8278 32.7211C56.7346 32.1693 57.697 30.531 58.1538 28.7075C58.313 28.0032 58.4303 27.2717 58.297 26.5501ZM56.976 30.4724C56.6266 31.0347 56.1753 31.5329 55.5932 31.8508C54.2031 32.5989 52.2284 32.6495 50.908 31.7378C50.1167 31.1841 49.8136 30.1761 49.8395 29.2477C49.8741 28.0742 50.5136 26.7995 51.6568 26.3674C52.7951 25.952 53.7488 26.3612 54.3741 27.3742C54.5402 27.6396 54.6803 27.9279 54.7834 28.2248C54.5926 28.6958 54.2994 29.102 53.7809 29.344C53.6735 29.4008 53.542 29.4415 53.4272 29.4798C53.2229 29.531 53.0105 29.5761 52.8006 29.5761C52.0729 29.6069 51.5605 29.1427 51.3463 28.4902C51.3463 28.4902 51.3334 29.0248 51.7852 29.439C52.3364 29.944 53.2068 29.8526 53.8488 29.5754C54.9469 29.0964 55.1581 27.8643 55.4 26.823C55.5704 26.2223 56.0173 25.5878 56.6649 25.5137C57.1358 25.4501 57.5562 25.7939 57.7772 26.1933C57.8556 26.3267 57.9247 26.4668 57.9501 26.6211C58.121 27.839 57.6136 29.439 56.9766 30.4717L56.976 30.4724Z" fill="#1E1E22"/>
<path d="M34.1758 45.3741C34.1758 45.3741 34.3122 50.4427 35.3246 52.1612C36.3369 53.8797 38.14 54.347 39.1209 52.1612C40.1017 49.9754 39.5437 45.3741 39.5437 45.3741H34.1758Z" fill="white"/>
<path d="M39.5437 45.3742H34.1758C34.1758 45.3742 34.2381 47.6915 34.5918 49.7236C35.6894 49.5958 37.0357 49.3748 38.0344 49.0032C38.0344 49.0032 38.4159 51.6378 37.1381 53.6131C37.8702 53.7205 38.6079 53.3038 39.1209 52.1606C40.1017 49.9748 39.5437 45.3735 39.5437 45.3735V45.3742Z" fill="#DCDCDC"/>
<path d="M40.018 47.7168C40.0008 46.8316 39.9279 45.9538 39.7989 45.0754L39.5446 45.0816C37.7853 45.1149 34.1174 45.2717 34.0785 45.2742C33.9662 45.2668 33.8044 45.3143 33.8057 45.3964C33.8483 46.7748 34.0581 48.6514 34.2878 50.0144C34.3915 50.6002 34.6248 51.3829 34.8458 51.9403C35.2927 53.0508 36.6359 54.3798 37.9483 53.9884C38.7366 53.7329 39.3495 52.8045 39.6477 52.0767C40.1539 50.7051 40.0261 49.1606 40.0187 47.7168H40.018ZM38.1822 53.0977C37.2329 53.9014 36.0884 53.0631 35.5402 52.186C34.8291 51.0582 34.5859 49.0539 34.4125 47.7156C34.326 46.9631 34.2569 46.2032 34.2118 45.4464L34.21 45.41C34.21 45.41 34.21 45.4014 34.2094 45.3964C35.7174 45.4884 37.3964 45.5977 38.9001 45.6501C38.9001 45.6501 39.0915 45.6551 39.2736 45.66C39.3261 46.3458 39.3606 47.0409 39.3767 47.7304C39.3859 49.3872 39.4952 51.9174 38.1835 53.0983L38.1822 53.0977Z" fill="#1E1E22"/>
<path d="M22.3311 43.7799C22.3311 43.7799 21.3225 50.7515 22.3311 52.5645C23.3397 54.3769 25.2756 53.959 26.1978 50.6824C27.12 47.4058 26.7169 45.0355 26.7169 45.0355L22.3311 43.7805V43.7799Z" fill="white"/>
<path d="M22.3313 43.7799C22.3313 43.7799 21.9393 46.4898 21.8887 48.9701C22.7084 49.2022 23.9887 49.5059 25.1418 49.5268C25.1418 49.5268 24.8128 51.7577 23.1183 53.4343C24.1492 54.0503 25.4801 53.2318 26.198 50.6818C27.1202 47.4052 26.7171 45.0348 26.7171 45.0348L22.3313 43.7799Z" fill="#DCDCDC"/>
<path d="M26.9731 44.7947C25.4657 44.4064 23.8373 44.0725 22.3126 43.7509C22.3003 43.7459 22.2287 43.7385 22.2287 43.7385C22.2287 43.7385 22.1453 44.2768 22.125 44.4046C21.8873 45.883 21.7015 47.4015 21.6324 48.8984C21.596 49.8626 21.5966 50.917 21.7719 51.8849C21.9299 52.8984 22.817 53.9645 23.9583 53.867C26.1756 53.5935 26.9664 49.4608 27.1059 47.6219C27.1694 46.6799 27.1552 45.7237 26.9738 44.7941L26.9731 44.7947ZM26.0238 50.0447C25.8003 51.0275 25.5139 52.0565 24.833 52.8256C24.2923 53.4386 23.5552 53.6083 22.9404 53.0046C22.6663 52.7367 22.4423 52.3892 22.3373 52.0163C22.2774 51.825 22.2318 51.6157 22.1978 51.4176C22.0589 50.5892 22.0386 49.7342 22.0361 48.8916C22.0398 47.6145 22.1237 46.3336 22.2361 45.0601C22.2657 44.7336 22.3182 44.1842 22.3552 43.8645C22.3565 43.8558 22.3595 43.8274 22.3614 43.8126C23.6762 44.2799 25.112 44.8175 26.4423 45.254C26.454 45.3996 26.462 45.5459 26.4676 45.6922C26.5071 47.154 26.3336 48.6151 26.0238 50.0447Z" fill="#1E1E22"/>
<path d="M18.21 42.2279C18.21 42.2279 14.5847 46.8822 14.2359 49.5316C13.8871 52.181 16.0513 52.181 16.9909 51.4138C17.9304 50.6471 22.36 44.7909 22.36 44.7909L18.2094 42.2279H18.21Z" fill="white"/>
<path d="M18.2104 42.2279C18.2104 42.2279 16.7949 44.0452 15.648 46.0545C16.3517 46.6032 17.1628 47.2224 17.5375 47.4594C17.5375 47.4594 16.3591 49.6909 14.7529 51.5329C15.3887 52.0638 16.4184 51.8817 16.9918 51.4137C17.9313 50.6471 22.361 44.7909 22.361 44.7909L18.2104 42.2279Z" fill="#DCDCDC"/>
<path d="M18.2044 42.1915C18.1834 42.2014 18.1673 42.2218 18.155 42.2378L18.1284 42.2705L18.076 42.336L17.9717 42.4675C16.6649 44.1533 15.4223 45.9132 14.5352 47.8638C14.2148 48.5984 13.9531 49.4033 13.9716 50.2206C13.9815 50.8515 14.213 51.5286 14.7858 51.8724C15.5223 52.3095 16.4871 52.1545 17.1519 51.6595C17.2895 51.5484 17.4272 51.4132 17.55 51.2873C18.0149 50.8101 18.4729 50.2675 18.9081 49.7681C20.3075 48.1471 21.605 46.4391 22.8334 44.6866C21.3198 43.8082 19.755 42.9823 18.205 42.1909L18.2044 42.1915ZM18.3772 49.3354C17.9815 49.8373 17.542 50.4064 17.1142 50.8731C16.9994 51.0002 16.8692 51.1403 16.7352 51.2434C16.5618 51.3694 16.363 51.462 16.1513 51.52C15.5926 51.6762 14.971 51.557 14.6692 51.0496C14.363 50.5194 14.3963 49.8416 14.5019 49.2539C14.6747 48.4014 15.0377 47.5798 15.4229 46.7959C15.8192 46.0014 16.2686 45.2292 16.742 44.4724C17.2019 43.7422 17.7167 43.1545 18.2216 42.4539C18.2216 42.4539 18.2834 42.3656 18.313 42.3428C19.4846 43.1866 20.6772 44.0446 21.8846 44.8613C20.6896 46.3298 19.5254 47.8305 18.3772 49.3348V49.3354Z" fill="#1E1E22"/>
<path d="M40.6979 45.6125C40.6979 45.6125 41.8133 50.8416 44.1139 51.7477C46.4146 52.6539 46.7028 48.9107 45.1689 43.4958L40.6973 45.6125H40.6979Z" fill="white"/>
<path d="M45.1689 43.4958L40.6973 45.6125C40.6973 45.6125 40.9528 46.8101 41.4713 48.1582C42.1059 48.0051 43.2639 47.6749 44.0998 47.1446C44.0998 47.1446 44.9207 49.6372 44.5127 51.8626C46.4424 52.1897 46.6084 48.5798 45.1683 43.4965L45.1689 43.4958Z" fill="#DCDCDC"/>
<path d="M46.3137 47.6273C46.1791 46.0754 45.8279 44.5532 45.3451 43.0767L45.0427 43.2297C43.5735 43.9662 42.0402 44.7094 40.6229 45.5298C40.4914 45.5946 40.4803 45.5909 40.376 45.652C40.376 45.652 40.5346 46.1896 40.5501 46.268C40.9315 47.8248 41.6624 49.2594 42.5649 50.6026C42.8495 51.0125 43.2001 51.4063 43.6211 51.6903C44.1482 52.0372 44.8859 52.2613 45.4569 51.8736C46.5532 51.089 46.4087 48.8292 46.3137 47.6285V47.6273ZM45.8581 49.7637C45.81 50.3785 45.7161 51.144 45.2223 51.5353C44.6846 51.9026 43.9624 51.5428 43.5069 51.1724C42.2482 50.081 41.5315 48.1835 41.0192 46.6261C40.921 46.3168 40.8247 45.9847 40.7433 45.6699C40.742 45.6631 40.7334 45.6304 40.7315 45.623C42.1507 45.0742 43.5735 44.5137 44.9661 43.9057C45.2748 45.1582 45.568 46.4156 45.7513 47.6903C45.8439 48.3761 45.8982 49.0742 45.8581 49.7631V49.7637Z" fill="#1E1E22"/>
<path d="M12.0762 25.6497H15.3528C15.3528 25.6497 17.096 23.1787 18.7689 22.5509C18.7689 22.5509 16.1059 17.8799 17.7861 16.2762C19.4658 14.6724 22.3621 21.3367 22.3621 21.3367C22.3621 21.3367 22.1855 12.8601 25.0436 13.4181C27.9022 13.9761 27.7825 20.9799 27.7825 20.9799C27.7825 20.9799 35.9189 19.3441 41.0085 21.9231C46.098 24.5027 48.2591 29.1589 48.3289 33.3843C48.3986 37.6096 47.9104 43.9535 42.5424 45.9059C37.1745 47.8578 26.7399 48.0671 20.8719 45.9059C15.004 43.7448 13.6793 39.7281 13.9583 36.4726H10.333L12.0762 25.649V25.6497Z" fill="white"/>
<path d="M48.3289 33.3849C48.2591 29.1596 46.098 24.5034 41.0085 21.9238C40.7375 21.7867 40.4579 21.662 40.1714 21.5479C44.3418 27.1466 44.3393 34.7979 42.9301 37.6899C41.4116 40.8072 37.5467 44.1239 27.1115 43.185C16.6762 42.2455 14.6096 35.1189 14.6096 35.1189C15.3392 31.9442 15.0941 27.9516 14.8509 25.6503H12.0762L10.333 36.4739H13.9583C13.6793 39.7288 15.004 43.7461 20.8719 45.9072C26.7399 48.0684 37.1739 47.8591 42.5424 45.9072C47.9104 43.9554 48.3986 37.6109 48.3289 33.3856V33.3849Z" fill="#DCDCDC"/>
<path d="M21.3394 21.5102C22.0591 21.8521 22.4079 21.933 22.3147 21.2299C21.9344 20.3836 19.3406 14.7928 17.7863 16.2762C17.6443 16.412 17.5338 16.57 17.4492 16.7447C17.9091 16.7638 18.4381 16.9608 18.9326 17.5589C20.1875 19.0774 20.2955 21.0145 21.3394 21.5102Z" fill="#DCDCDC"/>
<path d="M27.7828 20.98C27.7828 20.98 27.9019 13.9757 25.0439 13.4182C24.5525 13.3226 24.1507 13.4936 23.8223 13.8429C24.0692 14.196 24.3254 14.8096 24.3747 15.8572C24.4754 17.98 24.7963 20.5806 26.3136 21.3442C27.4241 21.9022 28.4519 21.4066 30.0785 20.6522C28.6859 20.7991 27.7828 20.9806 27.7828 20.9806V20.98Z" fill="#DCDCDC"/>
<path d="M44.0571 39.4119C43.7238 40.1132 43.2423 40.6811 42.6707 41.2008C42.3898 41.4564 42.0911 41.6897 41.788 41.9169C41.6374 42.0299 41.4843 42.1478 41.3219 42.2428C41.1411 42.3484 40.9516 42.3731 40.788 42.5095C40.6874 42.5928 40.6695 42.7792 40.7392 42.886C41.2911 43.728 42.7454 42.5576 43.2571 42.1632C44.0077 41.5842 44.6584 40.865 45.0911 40.0163C45.4423 39.3268 44.3861 38.7193 44.0565 39.4119H44.0571Z" fill="#1E1E22"/>
<path d="M46.0095 35.4761C45.8528 35.2804 45.5318 35.3638 45.4176 35.5527C45.2941 35.7564 45.3108 35.9842 45.2818 36.2138C45.2528 36.444 45.2139 36.6718 45.1626 36.8977C45.0904 37.2169 45.2818 37.5317 45.6151 37.5768C45.9565 37.6231 46.204 37.3693 46.2312 37.0422C46.2719 36.5539 46.3293 35.8761 46.0089 35.4761H46.0095Z" fill="#1E1E22"/>
<path d="M17.1084 40.5125C16.9442 40.3644 16.785 40.2064 16.6269 40.0508C16.4825 39.9088 16.1794 40.0033 16.1992 40.228C16.2504 40.815 16.659 41.452 17.23 41.6588C17.6504 41.8113 17.9726 41.2107 17.6609 40.9187C17.493 40.7613 17.2794 40.6662 17.1084 40.5119V40.5125Z" fill="#1E1E22"/>
<path d="M48.596 32.123C48.0614 27.2958 44.8614 23.1841 40.3984 21.3261C36.8539 19.9242 32.6595 20.0446 28.9391 20.5415C28.6317 20.5859 28.3274 20.6328 28.0206 20.6884C27.9842 18.9223 27.8051 17.1421 27.2021 15.4705C26.9243 14.7538 26.5514 14.0377 25.9057 13.5705C25.1736 13.0482 24.257 13.026 23.6483 13.7371C22.4502 15.1229 22.2267 18.46 22.202 20.6168C21.7891 19.7618 21.3366 18.9291 20.8242 18.1266C20.4995 17.626 20.152 17.1365 19.7353 16.6958C19.3174 16.268 18.6323 15.6236 17.9798 15.831C17.3668 16.0785 17.0211 16.8773 16.9687 17.4884C16.852 19.1106 17.4045 20.8526 18.1742 22.2859C17.1545 22.9921 16.5829 23.518 15.8125 24.3514C15.5668 24.6168 15.4248 24.781 15.1063 25.1619C15.044 25.1619 11.8557 25.1736 11.8557 25.1736C11.3131 28.2335 10.6094 33.407 10.0995 36.4366C10.0736 36.5761 10.1841 36.7095 10.326 36.7101C10.3291 36.7107 12.7773 36.7409 13.652 36.7527C13.6045 37.4786 13.6384 38.2126 13.7649 38.9342C14.0409 40.586 14.8557 42.1379 16.0211 43.3385C18.9316 46.3151 23.3101 47.2577 27.3064 47.6842C29.7342 47.9237 32.1761 47.9595 34.6089 47.8021C37.0515 47.6367 39.4749 47.3089 41.8348 46.5947C42.2231 46.4786 42.6342 46.3336 43.0095 46.1793C46.7836 44.636 48.2009 40.8076 48.562 37.02C48.6447 36.2064 48.6793 35.3909 48.6892 34.578C48.6947 33.7588 48.691 32.9378 48.5954 32.1236L48.596 32.123ZM47.9713 34.5669C47.9386 36.1477 47.8022 37.7366 47.4256 39.27C46.8404 41.7255 45.546 44.0231 43.2077 45.157C42.87 45.3237 42.5015 45.47 42.1435 45.5891C40.4583 46.1539 38.6928 46.4657 36.9286 46.6873C33.7681 47.0577 30.5601 47.1021 27.3903 46.8169C23.9841 46.478 20.4545 45.8256 17.6335 43.7829C15.2477 42.0613 14.0125 39.4366 14.2396 36.4977C14.2563 36.3335 14.1236 36.1872 13.9582 36.1909C13.9582 36.1909 11.0711 36.228 10.6051 36.2341C11.0341 33.2039 11.7118 28.6539 12.1038 25.6835L15.3526 25.7131C15.3717 25.7131 15.3921 25.7039 15.4038 25.6866C16.0958 24.7631 16.8767 23.8829 17.8069 23.1927C18.1162 22.9668 18.4477 22.7699 18.8008 22.6359C18.8514 22.6168 18.8742 22.5557 18.8477 22.5088C18.1063 21.102 17.2341 19.1347 17.3631 17.5297C17.4051 17.11 17.5415 16.7007 17.8384 16.4013C18.389 15.8106 19.1187 16.426 19.539 16.881C20.323 17.7433 20.9076 18.7828 21.452 19.8131C21.7224 20.3347 21.9792 20.8668 22.2138 21.4026C22.2804 21.5594 22.528 21.5131 22.5242 21.3347C22.5212 19.8804 22.6094 18.4069 22.8496 16.9717C22.9736 16.2631 23.1354 15.5507 23.4138 14.8896C23.6187 14.4217 23.8755 13.9544 24.3212 13.7106C24.6027 13.56 24.9348 13.5797 25.2274 13.6853C25.7082 13.8575 26.0613 14.2377 26.3329 14.6729C27.3329 16.3464 27.5354 19.0378 27.5403 20.9773C27.5366 21.1298 27.6817 21.2514 27.8317 21.2199C28.2162 21.1477 28.615 21.0878 29.0088 21.0341C30.1953 20.8748 31.3916 20.7767 32.5879 20.7458C35.157 20.6958 37.7842 20.8896 40.1756 21.8693C43.6095 23.3267 46.3886 26.3057 47.4404 29.9014C47.6645 30.652 47.8207 31.423 47.9052 32.2014C47.9898 32.9872 47.9849 33.7792 47.9725 34.5681L47.9713 34.5669Z" fill="#1E1E22"/>
<path d="M23.8286 26.8521C23.631 25.7144 22.1989 25.2984 21.3897 25.978C20.7372 26.4829 20.7014 27.5379 21.2835 28.1206C22.2143 29.1224 24.0687 28.3459 23.831 26.8656L23.8286 26.8521Z" fill="#DCDCDC"/>
<path d="M23.0502 26.6292C22.8527 25.4915 21.4206 25.0754 20.6113 25.7551C19.9589 26.26 19.9231 27.315 20.5052 27.8977C21.436 28.8995 23.2904 28.123 23.0527 26.6427L23.0502 26.6292Z" fill="#1E1E22"/>
<path d="M39.3377 33.5328C40.1259 32.4347 40.529 30.855 39.7654 29.6384C39.3907 29.0439 38.8043 28.6186 38.1562 28.3742C37.5111 28.1254 36.7648 28.1223 36.1179 28.3631C35.0963 28.7445 34.3277 29.5094 33.7018 30.3637C33.8673 28.3822 33.7963 25.3093 31.8296 24.6896C30.8771 24.4161 29.5561 24.5643 28.8123 25.2192C28.3111 25.6698 27.8333 26.4161 27.6469 27.0544C27.2944 28.2859 27.3456 29.5359 27.529 30.7908C27.529 30.7908 27.566 30.8939 27.5246 30.9229C27.4833 30.952 27.3641 30.9069 27.3567 30.905C25.4302 30.5421 22.6357 30.3044 21.6246 32.3297C21.2197 33.1859 21.2765 34.8816 21.6246 35.7705C22.3277 37.3606 24.4728 37.2662 26.0851 37.0248C25.8999 37.3224 25.7302 37.631 25.5802 37.9526C24.9845 39.2156 24.6938 40.7421 25.3073 42.0841C25.6135 42.7674 26.1697 43.3465 26.845 43.6736C27.8462 44.1656 29.0333 44.144 30.058 43.7372C31.4796 43.1767 32.2543 41.765 32.4993 40.3119C32.679 40.4958 32.8642 40.6736 33.0574 40.8464C34.4611 42.1199 36.5129 43.1434 38.0074 41.3909C38.6463 40.6446 38.9383 39.7211 38.7438 38.7501C38.4691 37.4878 37.6006 36.4273 36.6309 35.5921C37.721 35.2032 38.6765 34.473 39.3401 33.5316L39.3377 33.5328Z" fill="#DCDCDC"/>
<path d="M26.8773 29.9273C26.8773 29.9273 25.8255 24.1241 29.736 23.792C33.5706 23.4667 32.4551 29.9273 32.4551 29.9273C32.4551 29.9273 34.6397 26.0075 37.4978 27.6303C40.3564 29.2532 38.3576 33.4365 34.9879 34.2032C34.9879 34.2032 38.962 37.0847 36.7774 39.7575C34.5928 42.4298 31.2175 38.0143 31.2175 38.0143C31.2175 38.0143 31.27 41.6631 28.202 42.1742C25.1347 42.6853 22.9032 39.4551 26.0638 35.1791C26.0638 35.1791 21.0847 36.6761 21.0674 33.0038C21.0471 28.7655 26.8773 29.9273 26.8773 29.9273Z" fill="white"/>
<path d="M37.4979 27.631C34.6392 26.0082 32.4553 29.928 32.4553 29.928C32.4553 29.928 32.2577 30.8113 33.3034 30.1946C34.3491 29.578 36.8936 28.7545 37.7306 30.1946C38.0819 30.7996 38.1806 31.4428 38.1775 31.9854C39.18 30.4662 39.1979 28.5959 37.4979 27.6304V27.631Z" fill="#DCDCDC"/>
<path d="M33.2197 39.9168C34.3296 40.6687 35.6981 41.0779 36.7772 39.7582C38.9617 37.0859 34.9876 34.2038 34.9876 34.2038C34.1629 34.0761 34.0345 34.5409 34.8018 35.273C35.5685 36.0051 35.5339 37.2248 35.2901 38.689C35.129 39.6551 33.9821 39.8773 33.2197 39.9168Z" fill="#DCDCDC"/>
<path d="M29.7354 23.7927C25.8249 24.1248 26.8767 29.928 26.8767 29.928C27.7366 31.1014 28.5965 28.1619 29.4329 25.7915C29.9027 24.46 30.9552 24.4137 31.7879 24.6286C31.3533 24.0607 30.7015 23.7113 29.7348 23.7927H29.7354Z" fill="#DCDCDC"/>
<path d="M26.2613 33.7039C25.5989 33.3903 23.2983 33.0767 22.0088 32.4144C21.3489 32.0755 21.5471 31.3897 21.8977 30.8008C21.3933 31.2866 21.0631 31.9909 21.0674 33.0045C21.0847 36.6767 26.0637 35.1798 26.0637 35.1798C26.7378 34.7385 26.9236 34.0181 26.2613 33.7039Z" fill="#DCDCDC"/>
<path d="M27.7394 39.8039C26.6592 40.599 25.5845 40.5935 24.748 40.3496C25.2604 41.7064 26.6197 42.4379 28.2018 42.1743C31.2691 41.6632 31.2172 38.0144 31.2172 38.0144C30.9444 37.3058 30.061 38.0959 27.74 39.8039H27.7394Z" fill="#DCDCDC"/>
<path d="M38.2972 32.2946C39.0762 31.21 39.4738 29.6495 38.7194 28.4483C38.3497 27.8612 37.7707 27.4409 37.1299 27.1995C36.4929 26.9538 35.7552 26.9507 35.1163 27.1884C34.1077 27.5649 33.3478 28.3205 32.7299 29.1643C32.8935 27.2069 32.8231 24.1723 30.8805 23.56C29.9398 23.2902 28.6348 23.4359 27.9002 24.0828C27.4052 24.5279 26.9329 25.2649 26.749 25.8952C26.4008 27.1118 26.4515 28.3458 26.6323 29.5859C26.6323 29.5859 26.6687 29.6878 26.628 29.7168C26.5873 29.7458 26.4694 29.7007 26.4626 29.6995C24.5595 29.3415 21.7996 29.1063 20.8008 31.1069C20.4008 31.9526 20.457 33.6273 20.8008 34.5057C21.4953 36.0761 23.6138 35.9829 25.2064 35.7446C25.0237 36.0384 24.8558 36.3434 24.7076 36.6613C24.1194 37.9088 23.8323 39.4168 24.4379 40.7422C24.7403 41.4169 25.2897 41.9891 25.9564 42.3125C26.9453 42.799 28.1175 42.7773 29.1299 42.3749C30.5342 41.8212 31.299 40.4267 31.541 38.9915C31.7182 39.173 31.9015 39.3489 32.0916 39.5199C33.478 40.7773 35.5052 41.7891 36.9805 40.0582C37.6114 39.3212 37.9003 38.4088 37.7077 37.4495C37.4361 36.2026 36.5787 35.1551 35.6206 34.3298C36.6978 33.9458 37.6416 33.2242 38.2966 32.2946H38.2972ZM34.9206 33.9088C34.8534 33.9236 34.7898 33.9619 34.7447 34.0211C34.6441 34.1539 34.6706 34.3427 34.8034 34.4434C34.904 34.5193 35.0126 34.6082 35.1151 34.6971C36.1509 35.6119 37.3435 37.0076 37.046 38.4773C36.9262 39.01 36.6046 39.4989 36.1929 39.8539C34.6861 41.1113 32.6194 39.0742 31.6608 37.9181C31.5447 37.7699 31.4385 37.6051 31.2268 37.6057C30.9953 37.5995 30.8052 37.7897 30.8089 38.0212C30.7916 38.6082 30.6706 39.202 30.462 39.7477C29.9169 41.2039 28.6589 41.9347 27.136 41.7465C26.0002 41.6026 25.1484 40.702 25.0008 39.5742C24.8749 38.6971 25.0885 37.8187 25.449 36.9989C25.6953 36.4397 26.0169 35.9051 26.3823 35.3995C26.5947 35.1063 26.3058 34.6964 25.9527 34.8088C24.7755 35.139 23.0379 35.4008 22.0175 34.6156C21.6076 34.294 21.4163 33.7934 21.3601 33.2767C21.3101 32.7409 21.3496 32.1711 21.5644 31.6736C22.3724 29.8384 25.0292 29.7668 26.7613 29.9551L26.8157 29.9625L26.8428 29.9662C26.8632 29.9705 26.8922 29.9693 26.9083 29.9588C26.92 29.9421 26.9206 29.9125 26.9157 29.8909C26.9132 29.8693 26.9052 29.8254 26.9027 29.802C26.8885 29.6884 26.87 29.5575 26.8607 29.4446C26.7243 27.8069 26.7965 25.7229 28.0978 24.5513C28.7836 23.9692 29.8564 23.7513 30.7138 24.0124C32.2577 24.5347 32.4379 26.6032 32.433 28.0051C32.4237 28.6347 32.3706 29.2779 32.2675 29.8958C32.2324 30.0977 32.5108 30.2057 32.6182 30.0236C32.6929 29.8964 32.7805 29.7637 32.8688 29.6372C33.6317 28.573 34.733 27.4662 36.1176 27.4693C36.6966 27.4797 37.2688 27.7186 37.7225 28.0742C38.9558 29.018 38.7546 30.6174 37.9756 31.7909C37.2781 32.852 36.1546 33.6396 34.92 33.9094L34.9206 33.9088Z" fill="#1E1E22"/>
<path d="M29.2606 31.6656C28.0081 32.1384 27.3741 33.6501 27.9587 34.8613C28.3846 35.7872 29.5933 36.4316 30.5871 36.3279C31.9587 36.1847 32.7976 35.1255 32.8075 34.0211C32.8408 32.3335 30.8797 31.0433 29.2606 31.6656Z" fill="#DCDCDC"/>
<path d="M29.84 35.2723C30.9759 35.2723 31.8968 34.3931 31.8968 33.3087C31.8968 32.2242 30.9759 31.3451 29.84 31.3451C28.7041 31.3451 27.7832 32.2242 27.7832 33.3087C27.7832 34.3931 28.7041 35.2723 29.84 35.2723Z" fill="white"/>
<path d="M27.96 34.1038C28.2797 34.792 29.0013 35.2723 29.8402 35.2723C30.976 35.2723 31.897 34.3933 31.897 33.3087C31.897 32.7143 31.6199 32.1815 31.1822 31.821C30.8976 34.126 29.0186 34.2093 27.96 34.1038Z" fill="#DCDCDC"/>
<path d="M28.9527 31.1896C27.786 31.6303 27.1947 33.0384 27.7397 34.1674C28.1367 35.0297 29.2632 35.6304 30.1885 35.5341C31.4669 35.4007 32.2484 34.4137 32.2571 33.3847C32.2879 31.8118 30.4608 30.61 28.9521 31.1902L28.9527 31.1896ZM28.5435 34.5624C27.4033 33.381 28.2873 31.7205 29.8404 31.6538C30.82 31.6013 31.8447 32.2501 31.8663 33.3087C31.8929 35.0001 29.6552 35.6976 28.5441 34.5624H28.5435Z" fill="#1E1E22"/>
<path d="M8.88672 38.6034C10.4133 38.7608 11.5534 38.4991 12.4948 33.6361C13.4361 28.7731 13.488 21.0873 10.691 20.9823C7.8935 20.878 5.90645 24.4336 5.38361 29.0867C4.86077 33.7404 5.45583 38.2485 8.88672 38.6028V38.6034Z" fill="white"/>
<path d="M10.6903 20.9821C10.1354 20.9612 9.61189 21.0852 9.12547 21.3328C10.8292 21.4815 10.8292 24.5599 11.057 27.3198C11.2755 29.9668 10.6934 35.1378 8.69893 36.339C7.63102 36.9822 6.5483 36.3125 5.75879 35.7946C6.29892 37.3649 7.28287 38.4378 8.88596 38.6032C10.4125 38.7606 11.5526 38.4989 12.494 33.6359C13.4354 28.7729 13.4872 21.0871 10.6903 20.9821Z" fill="#DCDCDC"/>
<path d="M10.56 24.3551C10.4483 23.9199 9.77295 24.1045 9.88591 24.5409C10.4254 26.6224 10.5989 28.7773 10.4569 30.9212C10.3878 31.9712 10.2532 33.0255 10.0236 34.0527C9.91677 34.5305 9.76492 35.0237 9.4464 35.4058C9.14393 35.7694 8.78158 35.9027 8.35812 36.0694C8.17232 36.1428 8.12911 36.436 8.35812 36.4922C9.31122 36.7243 10.1199 35.7039 10.4353 34.9422C10.8767 33.8774 10.9865 32.6354 11.0933 31.4977C11.3186 29.1076 11.1569 26.6823 10.5588 24.3551H10.56Z" fill="#DCDCDC"/>
<path d="M10.1977 24.1113C10.0859 23.6761 9.41064 23.8607 9.52361 24.2971C10.0631 26.3786 10.2366 28.5336 10.0946 30.6774C10.0255 31.7274 9.89089 32.7817 9.66126 33.8089C9.55447 34.2867 9.40262 34.7799 9.0841 35.162C8.78163 35.5256 8.41928 35.6589 7.99582 35.8256C7.81002 35.899 7.76681 36.1923 7.99582 36.2484C8.94891 36.4805 9.75756 35.4602 10.073 34.6984C10.5144 33.6336 10.6242 32.3916 10.731 31.254C10.9563 28.8638 10.7946 26.4385 10.1964 24.1113H10.1977Z" fill="#1E1E22"/>
<path d="M7.84 27.8048C8.14062 28.1177 8.70111 28.0202 8.88753 27.6319C9.21408 26.9795 8.39124 26.3362 7.84309 26.8165C7.56284 27.064 7.56654 27.5381 7.83136 27.7955L7.84 27.8041V27.8048Z" fill="#DCDCDC"/>
<path d="M9.0383 32.7455C9.25682 32.1788 8.80064 31.4967 8.18274 31.5498C7.53458 31.5862 7.20619 32.3862 7.54385 32.9103C7.90743 33.5208 8.80003 33.4177 9.03398 32.7572L9.0383 32.7455Z" fill="#DCDCDC"/>
<path d="M7.44547 27.4553C7.74609 27.7682 8.30658 27.6707 8.493 27.2824C8.81955 26.63 7.99671 25.9867 7.44856 26.467C7.16831 26.7145 7.17201 27.1886 7.43683 27.446L7.44547 27.4547V27.4553Z" fill="#1E1E22"/>
<path d="M8.64377 32.3955C8.86229 31.8288 8.40612 31.1467 7.78821 31.1998C7.14006 31.2362 6.81166 32.0362 7.14931 32.5603C7.51289 33.1708 8.40549 33.0677 8.63944 32.4072L8.64377 32.3955Z" fill="#1E1E22"/>
<path d="M13.3281 24.652C13.0966 23.2057 12.5608 20.7613 10.7602 20.6316C7.52745 20.5421 5.98794 24.4206 5.45893 27.0706C4.79349 30.3669 4.26201 38.6922 8.82191 39.2132C10.2164 39.412 11.2515 38.878 11.8892 37.6793C12.2022 37.083 12.4182 36.5286 12.6225 35.8897C13.1565 34.186 13.3614 31.8496 13.5238 30.0718C13.68 28.2854 13.588 26.4311 13.3275 24.6514L13.3281 24.652ZM12.1441 33.8576C12.0133 34.7188 11.859 35.5811 11.6003 36.4126C11.4657 36.8212 11.3133 37.2299 11.0873 37.5965C10.5614 38.4731 9.86512 38.6644 8.89042 38.5601C5.41572 38.1743 5.27559 33.7811 5.42559 31.0657C5.50461 29.7607 5.65337 28.4527 5.9509 27.1786C6.46449 24.9088 7.95585 21.1249 10.7744 21.3458C13.5139 21.8644 12.4991 31.6761 12.1441 33.8576Z" fill="#1E1E22"/>
<path d="M45.2858 -6.64579C41.4327 -9.31494 35.7036 -7.90999 33.8641 -3.56059C31.3085 2.69685 37.84 8.47836 43.8753 6.01786C46.5259 4.94316 48.5679 2.0666 48.5598 -0.826623C48.5994 -3.24083 47.2716 -5.29393 45.2858 -6.64517V-6.64579Z" fill="white"/>
<path d="M39.8667 6.51913C39.305 5.10616 35.8506 0.601196 35.8506 0.601196C35.8506 0.601196 35.7414 2.55861 35.0605 2.61849C34.7512 2.64565 34.3228 2.42404 33.9463 2.17404C35.013 4.46479 37.2747 6.14567 39.8661 6.51913H39.8667Z" fill="#DCDCDC"/>
<path d="M45.2858 -6.64579C41.4327 -9.31494 35.7036 -7.90999 33.8641 -3.56059C31.3085 2.69685 37.84 8.47836 43.8753 6.01786C46.5259 4.94316 48.5679 2.0666 48.5598 -0.826623C48.5994 -3.24083 47.2716 -5.29393 45.2858 -6.64517V-6.64579ZM45.858 4.25056C43.8018 6.12341 40.6845 6.64378 38.1265 5.59871C35.59 4.60982 33.7234 2.03141 33.7869 -0.732798C33.8777 -5.64146 39.016 -8.55506 43.429 -6.9711C46.066 -6.07665 48.0777 -3.59145 48.0753 -0.732798C48.1012 1.1524 47.2561 3.00488 45.858 4.25056Z" fill="#1E1E22"/>
<path d="M41.711 6.6159C45.475 6.6159 48.5264 3.60624 48.5264 -0.106356C48.5264 -3.81896 45.475 -6.82861 41.711 -6.82861C37.9469 -6.82861 34.8955 -3.81896 34.8955 -0.106356C34.8955 3.60624 37.9469 6.6159 41.711 6.6159Z" fill="white"/>
<path d="M47.4925 0.731964C47.1419 2.0758 45.4956 5.22087 40.6579 4.79926C37.527 4.52581 35.7628 2.01962 34.9072 0.284431C35.1122 3.81531 38.0795 6.61656 41.711 6.61656C45.3425 6.61656 48.5264 3.60667 48.5264 -0.105695C48.5264 -1.36558 48.1752 -2.54398 47.5641 -3.55139C47.6746 -2.03287 47.7573 -0.279773 47.4931 0.732578L47.4925 0.731964Z" fill="#DCDCDC"/>
<path d="M45.8866 -5.8643C42.2983 -8.40628 36.8532 -7.00319 35.1402 -2.86058C32.76 3.09995 38.9575 8.66726 44.5779 6.32404C47.0464 5.29996 48.9477 2.56044 48.9403 -0.195748C48.9773 -2.49514 47.736 -4.57664 45.8866 -5.8643ZM46.4248 4.64069C44.51 6.42465 41.6069 6.92034 39.2248 5.92527C36.8625 4.98329 35.1248 2.52711 35.1834 -0.105623C35.268 -4.78157 40.0532 -7.5569 44.1625 -6.04763C46.6187 -5.19577 48.4915 -2.82848 48.4897 -0.105623C48.5137 1.69007 47.7267 3.45427 46.4248 4.64069Z" fill="#1E1E22"/>
<path d="M47.7579 0.0498409C47.7548 -0.0149743 47.7134 -0.0853439 47.6474 -0.0995415C47.6363 -0.102628 47.6245 -0.104478 47.6128 -0.105713C47.611 -0.105713 47.6091 -0.105712 47.6072 -0.105095C47.5443 -0.0970703 47.4764 -0.0631216 47.4622 0.0084837C47.3721 0.460955 47.3048 0.903551 47.1634 1.34429C47.0906 1.57207 47.4332 1.66528 47.5103 1.44306C47.6622 1.00355 47.7782 0.519596 47.7572 0.0498409H47.7579Z" fill="#1E1E22"/>
<path d="M46.7952 2.18635C46.6292 1.5345 46.1242 1.04499 45.6384 0.619678C45.4409 0.453628 45.3563 0.335106 45.1434 0.188809C45.9804 -0.318601 46.8582 -1.39638 46.881 -2.397C46.8958 -3.04145 46.3532 -3.52787 45.8421 -3.65997C45.1174 -3.87973 44.4211 -3.18405 44.1347 -2.60688C43.8131 -1.96429 43.7452 -1.5291 43.6094 -0.827243C43.5964 -0.776626 43.5619 -0.785885 43.544 -0.819836C43.3082 -1.25688 43.2254 -1.29824 42.973 -1.63219C42.4211 -2.35256 41.6865 -2.97417 40.7612 -3.18713C39.573 -3.44269 38.381 -2.81553 37.605 -1.94638C37.1353 -1.41922 36.7865 -0.79206 36.5884 -0.11181C36.2328 1.25795 36.6402 2.8345 37.5742 3.88821C38.2106 4.6197 39.2396 5.01044 40.1989 4.87896C41.9847 4.69254 43.2872 3.35179 43.8625 1.72647C44.26 2.42771 44.831 3.24747 45.4989 3.50117C45.8748 3.64747 46.2792 3.50796 46.531 3.20611C46.7792 2.94561 46.8884 2.53389 46.7958 2.18635H46.7952Z" fill="#DCDCDC"/>
<path d="M46.6976 1.27827C46.5315 0.626417 46.0266 0.136908 45.5408 -0.288403C45.3432 -0.454453 45.2587 -0.572971 45.0457 -0.719269C45.8827 -1.22668 46.7605 -2.30446 46.7834 -3.30508C46.7982 -3.94953 46.2556 -4.43596 45.7445 -4.56806C45.0198 -4.78781 44.3235 -4.09213 44.0371 -3.51496C43.7154 -2.87237 43.6475 -2.43718 43.5117 -1.73532C43.4988 -1.68471 43.4642 -1.69397 43.4463 -1.72792C43.2105 -2.16496 43.1278 -2.20631 42.8753 -2.54027C42.3235 -3.26064 41.5889 -3.88225 40.6636 -4.09521C39.4753 -4.35077 38.2833 -3.72361 37.5074 -2.85447C37.0376 -2.3273 36.6889 -1.70014 36.4907 -1.01989C36.1352 0.349873 36.5426 1.92642 37.4765 2.98013C38.1129 3.71162 39.142 4.10236 40.1012 3.97088C41.887 3.78446 43.1895 2.44371 43.7648 0.818392C44.1624 1.51963 44.7334 2.33939 45.4013 2.59309C45.7772 2.73939 46.1815 2.59988 46.4334 2.29803C46.6815 2.03754 46.7908 1.6258 46.6982 1.27827H46.6976Z" fill="white"/>
<path d="M40.3827 -3.96313L40.2432 3.69369L41.0345 3.47147L41.0728 -3.81622L40.3827 -3.96313Z" fill="#DCDCDC"/>
<path d="M46.6977 1.27819C46.639 1.04733 46.5365 0.836835 46.4088 0.64239C46.3409 1.83993 45.1149 1.16153 44.6371 0.541154C44.139 -0.105146 43.997 -0.689716 43.6575 -0.531074C43.318 -0.372431 42.8989 0.608439 42.0803 1.50659C41.2618 2.40536 39.6668 2.5924 38.5007 1.9461C37.5445 1.41647 36.7198 -0.271195 36.4532 -0.861938C36.1674 0.46955 36.5778 1.96647 37.476 2.98006C38.1124 3.71154 39.1414 4.10228 40.1007 3.9708C41.8865 3.78438 43.189 2.44363 43.7643 0.818315C44.1618 1.51955 44.7328 2.33931 45.4007 2.59302C45.7767 2.73931 46.181 2.59981 46.4328 2.29795C46.681 2.03746 46.7902 1.62573 46.6977 1.27819Z" fill="#DCDCDC"/>
<path d="M46.6976 1.27827C46.5315 0.626417 46.0266 0.136908 45.5408 -0.288403C45.3432 -0.454453 45.2587 -0.572971 45.0457 -0.719269C45.8827 -1.22668 46.7605 -2.30446 46.7834 -3.30508C46.7982 -3.94953 46.2556 -4.43596 45.7445 -4.56806C45.0198 -4.78781 44.3235 -4.09213 44.0371 -3.51496C43.7154 -2.87237 43.6475 -2.43718 43.5117 -1.73532C43.4988 -1.68471 43.4642 -1.69397 43.4463 -1.72792C43.2105 -2.16496 43.1278 -2.20631 42.8753 -2.54027C42.3235 -3.26064 41.5889 -3.88225 40.6636 -4.09521C39.4753 -4.35077 38.2833 -3.72361 37.5074 -2.85447C37.0376 -2.3273 36.6889 -1.70014 36.4907 -1.01989C36.1352 0.349873 36.5426 1.92642 37.4765 2.98013C38.1129 3.71162 39.142 4.10236 40.1012 3.97088C41.887 3.78446 43.1895 2.44371 43.7648 0.818392C44.1624 1.51963 44.7334 2.33939 45.4013 2.59309C45.7772 2.73939 46.1815 2.59988 46.4334 2.29803C46.6815 2.03754 46.7908 1.6258 46.6982 1.27827H46.6976ZM46.371 1.73383C46.3068 1.96223 46.0945 2.20729 45.8704 2.27581C45.4685 2.37457 45.1192 2.01099 44.8642 1.73383C44.6685 1.50914 44.4938 1.25914 44.3334 0.999875C44.1741 0.741231 44.0241 0.467774 43.8963 0.19802C43.8704 0.144315 43.8216 0.101723 43.7599 0.0862908C43.6494 0.0591302 43.5377 0.126414 43.5105 0.236909C43.4864 0.332588 43.4525 0.441848 43.4185 0.538145C42.8994 2.04865 41.7037 3.32458 40.0488 3.45791C38.2438 3.64248 37.129 1.9647 36.9592 0.344934C36.8216 -0.704454 37.221 -1.72915 37.8864 -2.52483C38.5364 -3.30879 39.5531 -3.91003 40.5957 -3.74583C41.4364 -3.602 42.137 -2.99521 42.6994 -2.36743C42.9741 -2.06063 43.2253 -1.72668 43.4673 -1.39211C43.4871 -1.36495 43.5124 -1.32297 43.5457 -1.31248C43.5636 -1.31742 43.5685 -1.33347 43.571 -1.35199C43.5735 -1.3631 43.579 -1.39026 43.5815 -1.40261C43.7358 -2.09088 43.9482 -2.77977 44.2821 -3.402C44.5531 -3.90817 45.0463 -4.52855 45.6889 -4.31929C46.3908 -4.11188 46.5494 -3.55138 46.3019 -2.90693C45.971 -2.07113 45.3124 -1.39829 44.6124 -0.852605C44.5371 -0.797049 44.542 -0.675442 44.6229 -0.627293C45.234 -0.198896 45.8506 0.302959 46.2266 0.955432C46.3568 1.19432 46.4445 1.47272 46.371 1.73383Z" fill="#1E1E22"/>
<path d="M40.351 3.67579C40.4417 2.35294 40.4349 1.02145 40.4652 -0.303245C40.4812 -1.01992 40.5022 -1.7372 40.514 -2.45387C40.522 -2.93659 40.5584 -3.44215 40.5374 -3.93536C40.5189 -3.93783 40.501 -3.94153 40.4825 -3.944C40.3862 -3.95635 40.2899 -3.96191 40.1936 -3.96252C40.1485 -3.46499 40.1627 -2.95141 40.1491 -2.46251C40.1288 -1.74584 40.1177 -1.02856 40.1016 -0.311888C40.072 1.02886 40.0047 2.37578 40.0386 3.71715C40.1059 3.71097 40.1738 3.70356 40.243 3.69307C40.2794 3.68751 40.3152 3.68134 40.3504 3.67517L40.351 3.67579Z" fill="#1E1E22"/>
<path d="M39.5302 -0.873625C39.166 -1.65079 38.0067 -1.21005 38.1604 -0.308809C38.3678 0.696751 39.9709 0.107244 39.5302 -0.873625Z" fill="#DCDCDC"/>
<path d="M39.1552 -1.15817C38.791 -1.93534 37.6317 -1.49459 37.7854 -0.593355C37.9928 0.412205 39.5959 -0.177301 39.1552 -1.15817Z" fill="#1E1E22"/>
<path d="M35.1722 1.94177C34.9796 2.01153 34.7882 2.08683 34.5968 2.15288C34.4098 2.21708 34.2172 2.27449 34.0283 2.33931C34.1388 2.56215 34.2617 2.7782 34.3944 2.98869C34.5475 2.94301 34.6987 2.89239 34.8493 2.84363C35.0499 2.77881 35.2555 2.71647 35.4567 2.64425C35.361 2.45042 35.2586 2.21214 35.1722 1.94177Z" fill="#1E1E22"/>
</g>
</g>
<defs>
<radialGradient id="paint0_radial_457_81399" cx="0" cy="0" r="1" gradientUnits="userSpaceOnUse" gradientTransform="translate(-33.6693 -1.28512) rotate(90) scale(89.0251)">
<stop offset="0.265" stop-color="#D27C71"/>
<stop offset="1" stop-color="#D27C71" stop-opacity="0"/>
</radialGradient>
<radialGradient id="paint1_radial_457_81399" cx="0" cy="0" r="1" gradientUnits="userSpaceOnUse" gradientTransform="translate(106.061 126.312) rotate(90) scale(126.144)">
<stop stop-color="#B68EFF"/>
<stop offset="1" stop-color="#B68EFF" stop-opacity="0"/>
</radialGradient>
<clipPath id="clip0_457_81399">
<rect width="64" height="64" rx="32" fill="white"/>
</clipPath>
<clipPath id="clip1_457_81399">
<rect width="64" height="64" fill="white"/>
</clipPath>
</defs>
</svg>
