<svg width="64" height="65" viewBox="0 0 64 65" fill="none" xmlns="http://www.w3.org/2000/svg">
<g clip-path="url(#clip0_457_81346)">
<rect y="0.5" width="64" height="64" rx="32" fill="#8B47F4"/>
<mask id="mask0_457_81346" style="mask-type:alpha" maskUnits="userSpaceOnUse" x="0" y="0" width="64" height="65">
<circle cx="32" cy="32.5" r="32" fill="#8B47F4"/>
</mask>
<g mask="url(#mask0_457_81346)">
<circle cx="-33.6693" cy="-0.785118" r="89.0251" fill="url(#paint0_radial_457_81346)"/>
<circle cx="106.061" cy="126.812" r="126.144" fill="url(#paint1_radial_457_81346)"/>
</g>
<path d="M10.933 52.3268C17.006 52.3268 23.079 52.3268 29.1525 52.3268C35.1879 52.3268 41.2228 52.3268 47.2581 52.3268C50.6741 52.3268 54.0905 52.3268 57.5065 52.3268C57.8882 52.3268 57.8887 51.7338 57.5065 51.7338C51.4335 51.7338 45.3605 51.7338 39.2869 51.7338C33.2515 51.7338 27.2167 51.7338 21.1813 51.7338H10.933C10.5513 51.7338 10.5507 52.3268 10.933 52.3268Z" fill="#1E1E22"/>
<path d="M7.62047 52.3268H8.98148C9.36318 52.3268 9.36375 51.7338 8.98148 51.7338H7.62047C7.23877 51.7338 7.2382 52.3268 7.62047 52.3268Z" fill="#1E1E22"/>
<path d="M34.9389 44.3921H31.2182L29.8823 44.4724L28.5463 44.3921H24.8256C24.8256 44.3921 22.1594 47.8046 22.2586 53.3951H37.5066C37.6057 47.8046 34.9395 44.3921 34.9395 44.3921H34.9389Z" fill="white"/>
<path d="M37.5058 53.3946C37.6049 47.8041 34.9387 44.3916 34.9387 44.3916H31.218L29.8821 44.4719L28.5462 44.3916H24.8254C24.8254 44.3916 24.2073 44.7984 23.4707 46.8795L32.8246 47.1769L32.9231 51.3454L22.2834 52.1236C22.2601 52.5332 22.251 52.957 22.2584 53.3946H37.5064H37.5058Z" fill="#DCDCDC"/>
<path d="M35.6093 45.3344C35.406 44.9989 35.1934 44.6667 34.9479 44.3693C34.1127 44.3614 32.0316 44.3392 31.2226 44.3323L31.1435 44.3357C31.152 44.3403 29.8502 44.3944 29.8856 44.3995C29.66 44.387 28.5052 44.293 28.3052 44.3044C28.0973 44.3033 27.5731 44.2964 27.3561 44.2953L24.8255 44.2714C24.7964 44.2714 24.7674 44.2845 24.7463 44.3118C24.2769 44.9396 23.9049 45.6295 23.5665 46.3513C22.5661 48.5122 22.0693 50.9591 22.0989 53.3974C22.1 53.4954 22.1713 53.5751 22.2579 53.574C25.7797 53.5899 30.1892 53.6583 33.6934 53.6509C34.6448 53.6492 36.5533 53.6292 37.5053 53.6196C37.6141 53.6213 37.7035 53.5216 37.7047 53.3979C37.728 50.554 37.0176 47.6941 35.6088 45.3333L35.6093 45.3344ZM22.4151 53.2134C22.4071 52.4784 22.4459 51.7424 22.5325 51.0132C22.7979 48.8489 23.4856 46.7382 24.5891 44.9408C24.6808 44.7938 24.7771 44.6468 24.8756 44.5106C25.6134 44.5044 27.6546 44.4839 28.3012 44.4787C28.5103 44.4639 29.6486 44.5357 29.8787 44.5443C29.885 44.5437 31.1395 44.4588 31.1463 44.4565L31.2249 44.4514C32.0356 44.444 34.0871 44.4229 34.9297 44.4144C36.5533 46.9182 37.3492 50.0692 37.3104 53.1655C32.5147 53.0977 27.2222 53.182 22.4151 53.2128V53.2134Z" fill="#1E1E22"/>
<path d="M36.22 49.1993C36.1437 48.8387 36.0571 48.4348 35.8748 48.1214C35.8115 48.0132 35.6212 48.0405 35.6366 48.1944C35.6708 48.5424 35.7711 48.882 35.8223 49.2278C35.8782 49.6009 35.8981 49.9798 35.9095 50.3575C35.9198 50.6919 36.3829 50.6919 36.3687 50.3575C36.3522 49.9667 36.3003 49.5799 36.22 49.1987V49.1993Z" fill="#1E1E22"/>
<path d="M37.9023 53.0083H21.8464C21.0473 53.0083 20.3994 53.6562 20.3994 54.4553V54.6251C20.3994 55.4243 21.0473 56.0721 21.8464 56.0721H37.9023C38.7015 56.0721 39.3493 55.4243 39.3493 54.6251V54.4553C39.3493 53.6562 38.7015 53.0083 37.9023 53.0083Z" fill="white"/>
<path d="M37.9964 53.0083H35.3068L34.8932 55.3862C34.8932 55.3862 29.3552 55.3025 24.9548 55.274C22.4196 55.258 21.1071 55.0928 20.4502 54.9561C20.6103 55.5999 21.1321 56.0721 21.7514 56.0721H37.9964C38.7432 56.0721 39.3488 55.3862 39.3488 54.5402C39.3488 53.6942 38.7432 53.0083 37.9964 53.0083Z" fill="#DCDCDC"/>
<path d="M38.064 56.2397C34.7586 56.214 31.0681 56.1639 27.7507 56.1964C27.2272 56.2004 22.2149 56.2363 21.827 56.2391C21.7854 56.2403 21.6993 56.238 21.6578 56.2351C21.3017 56.2163 20.9565 56.0409 20.6995 55.7611C19.9578 54.9544 20.1412 53.5387 21.0567 53.0049C21.2704 52.8796 21.5108 52.8118 21.7512 52.8095L26.8745 52.7622C30.3958 52.7258 34.243 52.7679 37.7609 52.8944L37.921 52.8995L38.0013 52.9024C38.7681 52.879 39.3207 53.4248 39.4973 54.0765C39.7867 55.0866 39.0376 56.2534 38.1004 56.2391H38.0634L38.064 56.2397ZM37.9967 56.0471C38.8906 56.038 39.5298 55.0331 39.2267 54.072C39.0513 53.4972 38.5368 53.0938 38.0013 53.1137C37.856 53.1183 37.2801 53.1354 37.1211 53.1405C33.8265 53.2567 30.1702 53.2852 26.8751 53.2533L21.7518 53.206C21.5655 53.206 21.3803 53.2556 21.2134 53.3496C20.8779 53.537 20.6317 53.9187 20.577 54.3386C20.4568 55.1464 21.0265 55.8996 21.7478 55.9036C22.2052 55.9081 27.1611 55.9423 27.7507 55.9474C31.0715 55.9788 34.6879 56.0733 37.9967 56.0466V56.0471Z" fill="#1E1E22"/>
<path d="M25.1273 53.9006C24.8829 53.8071 24.5883 53.8271 24.332 53.8083C24.0352 53.7866 23.7378 53.7695 23.4404 53.7558C23.1572 53.7433 22.8735 53.7314 22.5904 53.7285C22.3238 53.7262 22.019 53.6943 21.7632 53.7895C21.6948 53.8151 21.6948 53.9211 21.7632 53.9461C22.0076 54.0373 22.2924 54.0133 22.5477 54.0242C22.845 54.0367 23.143 54.0447 23.4404 54.0612C23.7235 54.0766 24.0067 54.0954 24.2898 54.1182C24.5621 54.1398 24.8572 54.2105 25.1273 54.1643C25.2549 54.1427 25.2287 53.9393 25.1273 53.9V53.9006Z" fill="#DCDCDC"/>
<path d="M27.4675 53.8658C27.2009 53.8014 26.8984 53.8504 26.6267 53.8561C26.3492 53.8612 26.0626 53.8493 25.7881 53.8982C25.6844 53.917 25.7254 54.0749 25.8109 54.0874C26.0917 54.1295 26.3868 54.1051 26.6694 54.1028C26.928 54.1005 27.2151 54.1387 27.467 54.0703C27.5547 54.0464 27.5575 53.888 27.467 53.8663L27.4675 53.8658Z" fill="#DCDCDC"/>
<path d="M25.0394 53.7022C24.795 53.6088 24.5004 53.6287 24.2441 53.6099C23.9473 53.5882 23.6499 53.5712 23.3525 53.5575C23.0693 53.545 22.7856 53.533 22.5025 53.5301C22.2359 53.5279 21.9311 53.496 21.6753 53.5911C21.6069 53.6167 21.6069 53.7227 21.6753 53.7478C21.9197 53.8389 22.2045 53.815 22.4598 53.8258C22.7572 53.8383 23.0551 53.8463 23.3525 53.8628C23.6356 53.8782 23.9188 53.897 24.2019 53.9198C24.4742 53.9415 24.7693 54.0121 25.0394 53.966C25.167 53.9443 25.1408 53.7409 25.0394 53.7016V53.7022Z" fill="#1E1E22"/>
<path d="M27.3806 53.6674C27.114 53.603 26.8115 53.652 26.5397 53.6577C26.2623 53.6629 25.9757 53.6509 25.7011 53.6999C25.5975 53.7187 25.6385 53.8765 25.7239 53.889C26.0048 53.9312 26.2999 53.9067 26.5825 53.9044C26.8411 53.9021 27.1282 53.9403 27.3801 53.8719C27.4678 53.848 27.4706 53.6896 27.3801 53.668L27.3806 53.6674Z" fill="#1E1E22"/>
<path d="M44.9139 12.9419H14.7951C10.9325 12.9419 7.79004 16.0844 7.79004 19.9469V38.5379C7.79004 42.4005 10.9325 45.5429 14.7951 45.5429H44.9139C48.7765 45.5429 51.919 42.4005 51.919 38.5379V19.9469C51.919 16.0844 48.7765 12.9419 44.9139 12.9419Z" fill="white"/>
<path d="M46.8107 13.2029C49.2484 14.7302 49.8649 16.5322 50.0887 18.2567C50.7245 23.1453 50.2409 35.0412 50.1207 37.9455C50.001 40.8498 49.2843 41.6451 49.2843 41.6451C49.2843 41.6451 17.2097 42.4416 12.7848 42.0183C10.2366 41.7744 8.66591 40.0613 7.79199 38.6519C7.85295 42.4621 10.9709 45.543 14.7953 45.543H44.9142C48.7767 45.543 51.9192 42.4005 51.9192 38.538V19.947C51.9192 16.7413 49.7543 14.0318 46.8101 13.2029H46.8107Z" fill="#DCDCDC"/>
<path d="M10.4915 42.3299C10.6026 42.727 11.0242 43.0483 11.3518 43.2699C11.6976 43.5041 12.1648 43.8089 12.5949 43.6835C12.7943 43.6254 12.8421 43.3901 12.7117 43.2414C12.4593 42.9543 12.0104 42.8871 11.6839 42.7014C11.3638 42.5191 11.067 42.2257 10.7246 42.0963C10.5856 42.0439 10.4551 42.2 10.4915 42.3293V42.3299Z" fill="#1E1E22"/>
<path d="M11.4784 38.4439L10.6683 38.6918C10.6683 38.6918 10.3082 38.7818 10.1635 37.9614C10.0188 37.141 9.81602 19.9304 10.1635 18.3689C10.5111 16.8079 12.0134 15.4412 13.5897 15.374C14.851 15.3204 44.3443 15.2218 45.9538 15.7095C47.5626 16.1972 48.7692 17.7029 48.4314 19.9663C48.0935 22.2297 13.6381 17.4066 13.6381 17.4066L11.479 38.4439H11.4784Z" fill="#DCDCDC"/>
<path d="M14.875 15.7769H44.4931C46.8801 15.7769 48.8176 17.715 48.8176 20.1014V38.3278C48.8176 38.6702 48.5396 38.9482 48.1972 38.9482H11.1702C10.8278 38.9482 10.5498 38.6702 10.5498 38.3278V20.1014C10.5498 17.7144 12.4879 15.7769 14.8744 15.7769H14.875Z" fill="#1E1E22"/>
<path d="M16.5268 27.3041C16.9495 27.0614 17.3278 26.7384 17.714 26.441C18.1031 26.1414 18.494 25.844 18.8859 25.5483C19.6419 24.9792 20.4047 24.4203 21.171 23.8654C22.7337 22.7346 24.322 21.6396 25.9331 20.5782C26.2504 20.3692 25.953 19.8547 25.634 20.0661C24.0109 21.1434 22.4118 22.2549 20.8383 23.4028C20.0589 23.9714 19.2881 24.5525 18.523 25.1404C18.1584 25.4207 17.7949 25.7027 17.4332 25.9864C17.0355 26.298 16.6162 26.6005 16.2716 26.9714C16.1109 27.1446 16.3149 27.4249 16.5274 27.303L16.5268 27.3041Z" fill="white"/>
<path d="M34.4817 19.1215C28.7306 23.0433 23.1191 27.1696 17.6579 31.4862C16.8849 32.0969 16.1118 32.7082 15.3507 33.3337C14.5907 33.9581 13.8193 34.5694 13.1288 35.2713C13.0354 35.3664 13.1573 35.5356 13.2747 35.4599C14.724 34.5238 16.048 33.3736 17.4073 32.3117C18.7711 31.2464 20.1441 30.1924 21.5256 29.1499C24.2944 27.0608 27.0899 25.0076 29.9213 23.0045C31.5307 21.8657 33.1521 20.744 34.7814 19.633C35.0947 19.4194 34.7985 18.9055 34.4823 19.1209L34.4817 19.1215Z" fill="white"/>
<path d="M28.9041 27.8026C28.4216 27.9832 28.0427 28.366 27.6514 28.6913C27.264 29.0138 26.8794 29.3397 26.4977 29.6695C26.116 29.9994 25.7377 30.3321 25.3623 30.6688C24.9783 31.0129 24.5539 31.357 24.2457 31.7723C24.1033 31.9643 24.3762 32.2052 24.5636 32.0902C24.9749 31.8378 25.335 31.4726 25.6973 31.1559C26.0904 30.8118 26.4875 30.4711 26.8874 30.135C27.2737 29.8097 27.6628 29.4884 28.0547 29.1705C28.4432 28.8554 28.8933 28.5723 29.173 28.1518C29.283 27.9866 29.0984 27.7303 28.9047 27.8026H28.9041Z" fill="white"/>
<path d="M29.2531 40.1655C28.4356 40.4156 28.1564 41.7231 28.7814 42.2996C29.6177 43.0715 31.0118 42.5206 31.0761 41.412C31.1251 40.5637 30.3042 39.8436 29.2531 40.1655Z" fill="#DCDCDC"/>
<path d="M29.8271 42.6591C30.4328 42.6591 30.9238 42.163 30.9238 41.5511C30.9238 40.9391 30.4328 40.443 29.8271 40.443C29.2215 40.443 28.7305 40.9391 28.7305 41.5511C28.7305 42.163 29.2215 42.6591 29.8271 42.6591Z" fill="white"/>
<path d="M30.4795 40.66C30.651 41.4924 30.3519 42.0136 29.5919 41.9834C29.2632 41.9703 28.9869 41.9094 28.7676 41.837C28.8923 42.3105 29.3196 42.6597 29.8272 42.6597C30.4328 42.6597 30.9239 42.1635 30.9239 41.5516C30.9239 41.1864 30.749 40.8623 30.479 40.6606L30.4795 40.66Z" fill="#DCDCDC"/>
<path d="M29.3713 40.304C28.5537 40.5541 28.2746 41.8616 28.8995 42.4382C29.7359 43.2101 31.1299 42.6592 31.1943 41.5506C31.2433 40.7023 30.4223 39.9822 29.3713 40.304ZM29.1177 42.2678C28.7434 41.8833 28.7537 41.2241 29.1502 40.8669C29.7586 40.2807 30.8884 40.659 30.91 41.5511C30.9277 42.4917 29.7381 42.9366 29.1177 42.2678Z" fill="#1E1E22"/>
<path d="M44.914 12.9703C35.6308 12.976 25.5061 13.1304 16.1869 13.1942L15.0823 13.2022L14.806 13.2039C13.1225 13.209 11.4499 13.8648 10.2284 15.023C9.06284 16.106 8.29602 17.6077 8.1291 19.1897C8.08865 19.5367 8.08295 19.9087 8.0858 20.2596C8.09207 20.5764 8.08239 22.6495 8.08694 23.0221C8.08295 27.104 8.06701 34.4788 8.04992 38.4906C8.00377 40.9944 9.47645 43.4299 11.7125 44.5602C12.6599 45.0558 13.727 45.3087 14.7952 45.3156C22.4553 45.3332 37.1137 45.3703 44.6269 45.3879C44.967 45.3885 45.3721 45.3874 45.7122 45.3424C49.0227 44.9937 51.7043 42.1082 51.7931 38.7737C51.8239 33.2835 51.8854 25.5641 51.9008 20.0904C51.9487 16.2432 48.7635 12.9544 44.9146 12.9709L44.914 12.9703ZM45.2678 12.6775C49.1406 12.6701 52.3338 16.0233 52.3081 19.8967C52.3195 25.4274 52.1954 33.5467 52.1902 39.0922C52.0381 42.728 49.0643 45.9081 45.4233 46.0209C42.8335 46.0442 35.1767 45.7167 32.4729 45.7275L14.7952 45.7702C14.4152 45.7685 14.0352 45.74 13.6586 45.683C12.9066 45.564 12.1723 45.3293 11.4955 44.9806C9.09247 43.7837 7.49958 41.175 7.53035 38.4894C7.51268 34.5055 7.49845 27.0761 7.49332 23.021C7.50585 22.2769 7.47964 20.4254 7.50072 19.6962C7.56794 16.1812 10.4523 13.0666 13.948 12.7254C14.3098 12.6832 14.716 12.6741 15.0817 12.6809C15.7522 12.6952 17.6932 12.6923 18.3962 12.7043C26.9713 12.7949 36.2592 12.6564 44.7847 12.6792L45.2672 12.6769L45.2678 12.6775Z" fill="#1E1E22"/>
<path d="M10.523 16.1778C10.2626 16.2525 10.0929 16.5242 9.93449 16.7316C9.75504 16.9669 9.59439 17.2152 9.46051 17.4796C9.20757 17.9798 8.96601 18.5734 8.9888 19.1437C8.99108 19.2006 9.01842 19.2605 9.0714 19.2872C9.10331 19.3038 9.12667 19.318 9.16256 19.3112C9.38246 19.269 9.4024 18.9198 9.45538 18.7432C9.54368 18.4498 9.65022 18.1598 9.78524 17.8846C9.91513 17.6197 10.0672 17.3634 10.2387 17.1235C10.4005 16.8974 10.6854 16.6837 10.7594 16.4137C10.7976 16.2735 10.6643 16.1368 10.523 16.1773V16.1778Z" fill="#DCDCDC"/>
<path d="M11.7724 15.0464C11.5365 14.9974 11.3257 15.1991 11.2329 15.3979C11.1947 15.4793 11.1936 15.5836 11.2654 15.6491C11.3309 15.7095 11.438 15.7329 11.5166 15.6816C11.5736 15.6446 11.6339 15.6138 11.6915 15.5785C11.7758 15.5266 11.8664 15.4936 11.9159 15.3996C11.9843 15.2708 11.9308 15.0794 11.7724 15.0464Z" fill="#DCDCDC"/>
<path d="M10.4253 15.8423C10.165 15.9169 9.99521 16.1886 9.83684 16.396C9.65738 16.6313 9.49673 16.8797 9.36286 17.144C9.10991 17.6442 8.86835 18.2378 8.89114 18.8081C8.89342 18.8651 8.92076 18.9249 8.97375 18.9517C9.00565 18.9682 9.029 18.9824 9.06489 18.9756C9.28479 18.9334 9.30474 18.5842 9.35772 18.4076C9.44603 18.1142 9.55256 17.8242 9.68758 17.5491C9.81747 17.2842 9.96958 17.0278 10.1411 16.788C10.3029 16.5618 10.5877 16.3481 10.6618 16.0781C10.6999 15.938 10.5666 15.8012 10.4253 15.8417V15.8423Z" fill="#1E1E22"/>
<path d="M11.6747 14.7108C11.4389 14.6618 11.2281 14.8635 11.1352 15.0623C11.097 15.1438 11.0959 15.248 11.1677 15.3135C11.2332 15.3739 11.3403 15.3973 11.4189 15.346C11.4759 15.309 11.5363 15.2782 11.5938 15.2429C11.6781 15.1911 11.7687 15.158 11.8183 15.064C11.8867 14.9353 11.8331 14.7439 11.6747 14.7108Z" fill="#1E1E22"/>
<path d="M51.833 44.5118C51.833 44.5118 53.1108 44.101 54.6747 44.2713C55.8659 44.4007 56.9825 44.9766 57.2828 46.9711C57.583 48.9657 56.2436 50.2264 54.894 50.4799C53.5444 50.7334 53.0339 50.6993 51.6484 50.5603V49.6778C51.6484 49.6778 54.816 50.2321 55.5298 48.5253C56.2436 46.8185 55.2626 45.6363 53.9882 45.5475C52.7138 45.4586 51.7715 45.6101 51.7715 45.6101L51.833 44.5123V44.5118Z" fill="white"/>
<path d="M56.2083 47.9936C56.4544 47.0519 56.4128 46.0065 55.2387 45.2557C54.8553 45.0107 54.3887 44.8888 53.9136 44.8409C53.9552 44.5179 53.893 44.2194 53.893 44.2194L51.8079 44.4153V44.9896C51.8079 44.9896 51.8068 44.9896 51.8062 44.9896L51.7715 45.6094C51.7715 45.6094 52.7138 45.4579 53.9882 45.5468C55.2626 45.6356 56.2436 46.8178 55.5298 48.5246C54.816 50.2314 51.6484 49.6771 51.6484 49.6771V50.5595C53.0339 50.6986 53.5444 50.7327 54.894 50.4792C55.7486 50.3186 56.5991 49.754 57.0321 48.8556C56.4288 49.0874 55.9964 48.8071 56.2094 47.993L56.2083 47.9936Z" fill="#DCDCDC"/>
<path d="M51.4787 49.4829L51.4804 49.6778C51.4821 49.7592 51.4895 50.6457 51.4906 50.7055C51.849 50.7374 52.2062 50.7722 52.5679 50.7938C53.1963 50.8383 53.8418 50.8029 54.4616 50.6924C54.7761 50.6366 55.0946 50.5887 55.3937 50.4742C55.6979 50.3614 55.985 50.2036 56.2402 50.0042C57.334 49.1576 57.722 47.7773 57.3819 46.4766C57.0486 45.0718 56.0363 44.2229 54.5869 44.1187C53.6908 44.0406 52.6745 44.093 51.8068 44.3295C51.7766 44.3397 51.7282 45.3224 51.7003 45.6825C51.9418 45.6534 52.1868 45.6375 52.4318 45.6301C52.8676 45.6135 53.304 45.6255 53.7387 45.6551C53.7939 45.6591 53.929 45.6711 53.9825 45.6756C54.5112 45.7252 55.033 45.9952 55.3224 46.4476C55.719 47.0469 55.6306 47.8246 55.3543 48.4569C54.9493 49.3513 53.8498 49.5422 52.9565 49.5804C52.4648 49.5986 51.9624 49.5656 51.4775 49.4841L51.4787 49.4829ZM51.8074 50.4195C51.8091 50.2714 51.8114 50.0378 51.8125 49.8721C51.972 49.8943 52.1298 49.9097 52.2916 49.9222C53.5142 50.0042 55.184 49.8738 55.7155 48.56C55.9685 47.9385 56.0471 47.2081 55.7668 46.5792C55.4489 45.8562 54.6941 45.4233 53.9176 45.4181C53.2208 45.3919 52.5235 45.4233 51.8342 45.5361C51.837 45.2279 51.8467 44.8171 51.8467 44.5231C51.8496 44.5243 51.8507 44.5254 51.8518 44.5254L51.8655 44.5214L51.8934 44.5135C52.4745 44.3602 53.0767 44.2873 53.6766 44.2748C54.5778 44.2651 55.5805 44.346 56.275 44.9818C56.7883 45.4444 57.0418 46.1223 57.1591 46.7905C57.2252 47.1631 57.2514 47.5477 57.1985 47.9237C57.0737 48.981 56.3103 49.8914 55.3076 50.2349C55.0211 50.3392 54.7186 50.378 54.4195 50.4264C53.5473 50.5791 52.687 50.5209 51.8074 50.4195Z" fill="#1E1E22"/>
<path d="M53.1971 42.0968L47.3058 42.3606L41.4146 42.0968L41.4111 42.0581C41.4111 42.0581 41.4248 49.017 41.5672 51.5339C41.7097 54.0508 42.7089 56.0061 45.6526 56.4658C46.1163 56.5382 46.5344 56.5951 46.9674 56.6196C47.8305 56.6407 48.3865 56.6025 49.1021 56.4909C52.0457 56.0311 52.9031 54.0508 53.0455 51.5339C53.188 49.017 53.2016 42.0581 53.2016 42.0581L53.1982 42.0968H53.1971Z" fill="white"/>
<path d="M50.5295 42.2165L49.4425 42.0752C49.4425 42.0752 49.7166 50.9705 49.324 52.3662C48.9315 53.762 48.4251 55.7537 45.3595 55.4027C43.8276 55.2273 42.883 54.796 42.3213 54.4086C42.9383 55.462 43.982 56.2049 45.6529 56.4658C46.1166 56.5382 46.5348 56.5951 46.9678 56.6196C47.8309 56.6407 48.3869 56.6025 49.1024 56.4909C52.0461 56.0311 52.9035 54.0508 53.0459 51.5339C53.1883 49.017 53.202 42.0581 53.202 42.0581L53.1986 42.0968L50.5307 42.2165H50.5295Z" fill="#DCDCDC"/>
<path d="M53.3022 46.6186C53.2913 45.098 53.2868 43.6447 53.2418 42.1248L53.1774 42.0558C53.1774 42.0558 53.1774 42.0575 53.1774 42.0581C53.1774 42.0655 53.1774 42.0735 53.1768 42.0809C52.9854 42.0895 47.2799 42.29 47.3095 42.2923L41.42 41.9863C41.42 41.9863 41.4553 42.0199 41.486 42.049C41.4234 42.0518 41.3089 42.0963 41.3089 42.0963C41.3077 45.1391 41.2884 48.1379 41.3886 51.1813C41.4188 52.3247 41.5949 53.545 42.197 54.5528C42.9291 55.8044 44.22 56.4464 45.6129 56.6698C45.9924 56.7324 46.3735 56.7894 46.7586 56.8224C47.6291 56.8851 48.5116 56.831 49.3718 56.6766C50.6947 56.4385 51.8483 55.7924 52.5126 54.5886C52.9005 53.8936 53.0874 53.1183 53.182 52.3366C53.2298 51.9515 53.2498 51.563 53.2617 51.183C53.309 49.6596 53.3084 48.1402 53.3016 46.618L53.3022 46.6186ZM52.8629 51.1653C52.8419 51.5408 52.8185 51.9128 52.7655 52.2836C52.643 53.1803 52.381 54.0885 51.8181 54.8108C51.1476 55.6802 50.0765 56.1149 49.0123 56.2727C48.2791 56.39 47.5345 56.4299 46.7917 56.3906C46.2368 56.3456 45.6785 56.2767 45.1338 56.1553C43.7819 55.8454 42.7234 55.0598 42.197 53.7563C42.0193 53.3308 41.9053 52.879 41.829 52.4244C41.7931 52.1953 41.7635 51.9618 41.7447 51.7305C41.6364 50.0305 41.6165 48.322 41.5795 46.6151C41.5538 45.1476 41.535 43.6795 41.5219 42.2114C42.3377 42.2427 47.3021 42.4273 47.3055 42.429C47.3072 42.429 52.5126 42.2655 53.0133 42.2398C52.9615 43.7404 53.0788 45.1157 53.0321 46.6157C52.9837 48.1317 52.9438 49.6522 52.8618 51.1653H52.8629Z" fill="#1E1E22"/>
<path d="M51.7612 52.0296C51.7019 52.3481 51.6723 52.6699 51.6028 52.9873C51.5327 53.3063 51.4353 53.6145 51.347 53.9284C51.2843 54.1523 51.6022 54.2252 51.686 54.0218C51.9269 53.4339 52.0751 52.7036 52.0357 52.0666C52.0266 51.9191 51.7919 51.8655 51.7612 52.0296Z" fill="#1E1E22"/>
<path d="M42.7704 45.7371C42.7436 45.5092 42.7414 45.2665 42.6929 45.0432C42.661 44.8957 42.4588 44.9185 42.4161 45.0432C42.3375 45.2717 42.3585 45.5531 42.3944 45.7878C42.4263 45.9992 42.7961 45.9519 42.771 45.7371H42.7704Z" fill="#DCDCDC"/>
<path d="M42.7908 47.375C42.7833 47.0571 42.7987 46.7301 42.7475 46.4156C42.7281 46.2965 42.5224 46.2943 42.5048 46.4156C42.4586 46.7306 42.4786 47.0571 42.4763 47.375C42.474 47.682 42.4182 48.0427 42.5025 48.3389C42.5412 48.4739 42.7423 48.4773 42.7794 48.3389C42.8591 48.0415 42.7976 47.6809 42.7908 47.375Z" fill="#DCDCDC"/>
<path d="M42.5419 45.6552C42.5151 45.4273 42.5128 45.1846 42.4644 44.9613C42.4325 44.8138 42.2303 44.8365 42.1876 44.9613C42.1089 45.1898 42.13 45.4712 42.1659 45.7059C42.1978 45.9173 42.5675 45.87 42.5425 45.6552H42.5419Z" fill="#1E1E22"/>
<path d="M42.5622 47.2936C42.5548 46.9757 42.5702 46.6486 42.5189 46.3342C42.4996 46.2151 42.2939 46.2128 42.2762 46.3342C42.2301 46.6492 42.25 46.9757 42.2478 47.2936C42.2455 47.6006 42.1897 47.9612 42.274 48.2575C42.3127 48.3925 42.5138 48.3959 42.5508 48.2575C42.6306 47.9601 42.5691 47.5995 42.5622 47.2936Z" fill="#1E1E22"/>
<path d="M49.9087 48.8357C49.9087 50.1773 48.5209 51.3395 46.8995 51.3395C45.2782 51.3395 43.9229 50.1847 43.9229 48.8431C43.9229 47.5015 45.2947 46.4014 46.9155 46.4014C48.5363 46.4014 49.9081 47.4935 49.9081 48.8351L49.9087 48.8357Z" fill="white"/>
<path d="M47.8096 46.5165C48.7484 47.1711 49.2344 48.1282 49.1683 48.6705C49.0453 49.6817 48.5394 50.7106 46.5534 50.5602C45.4841 50.4793 44.6546 50.0703 44.1162 49.7096C44.5463 50.6462 45.6424 51.3401 46.8986 51.3401C48.52 51.3401 49.9078 50.1779 49.9078 48.8363C49.9078 47.751 49.0105 46.8292 47.8096 46.5165Z" fill="#DCDCDC"/>
<path d="M46.1025 48.6194C46.0598 48.0651 45.1773 48.281 45.3442 48.7931C45.4758 49.2335 46.1555 49.0643 46.1025 48.6194Z" fill="#DCDCDC"/>
<path d="M48.6046 48.6631C48.4923 48.2547 47.8412 48.4655 47.9472 48.8586C48.0594 49.2648 48.7174 49.0608 48.6046 48.6631Z" fill="#DCDCDC"/>
<path d="M47.6915 49.0147C47.6727 48.8489 47.7 48.5242 47.4653 48.5265C47.381 48.535 47.3274 48.6 47.3183 48.6814C47.3024 48.9236 47.3747 49.3241 47.0842 49.3976C46.8198 49.4642 46.7236 49.0546 46.6569 48.7487C46.6108 48.5367 46.5863 48.4393 46.5168 48.4547C46.4324 48.4735 46.433 48.6256 46.4233 48.7452C46.4011 49.0204 46.4888 49.3822 46.6603 49.593C47.0756 50.0658 47.7667 49.6704 47.6915 49.0153V49.0147Z" fill="#DCDCDC"/>
<path d="M46.9937 46.2203C45.5307 46.173 43.7356 47.2834 43.7442 48.8854C43.7476 50.0755 44.7155 51.065 45.8053 51.4046C46.53 51.6353 47.4296 51.6735 48.1536 51.441C49.3762 51.0485 50.1926 49.986 50.1846 48.8546C50.1481 47.329 48.884 46.1685 46.9937 46.2209V46.2203ZM47.9246 50.9836C46.9618 51.2565 45.8737 51.1044 45.0613 50.5164C44.3908 50.0527 43.9447 49.2107 44.1521 48.3949C44.2717 47.9066 44.5828 47.4879 44.9804 47.1786C46.0691 46.3263 47.7309 46.2984 48.8789 47.0686C49.4645 47.4577 49.8975 48.118 49.8855 48.837C49.8718 49.9217 48.9062 50.7272 47.9246 50.9841V50.9836Z" fill="#1E1E22"/>
<path d="M47.5274 48.8923C47.5086 48.7265 47.536 48.4018 47.3012 48.404C47.2169 48.4126 47.1634 48.4775 47.1542 48.559C47.1383 48.8011 47.2107 49.2016 46.9201 49.2751C46.6558 49.3418 46.5595 48.9321 46.4928 48.6262C46.4467 48.4143 46.4222 48.3169 46.3527 48.3323C46.2684 48.3511 46.2689 48.5032 46.2593 48.6228C46.237 48.898 46.3248 49.2597 46.4962 49.4705C46.9116 49.9434 47.6026 49.548 47.5274 48.8928V48.8923Z" fill="#1E1E22"/>
<path d="M45.9795 48.5374C45.9367 47.983 45.0543 48.199 45.2212 48.7111C45.3528 49.1515 46.0324 48.9823 45.9795 48.5374Z" fill="#1E1E22"/>
<path d="M48.4815 48.5816C48.3693 48.1731 47.7181 48.3839 47.8241 48.777C47.9363 49.1832 48.5943 48.9793 48.4815 48.5816Z" fill="#1E1E22"/>
<path d="M47.2448 43.8777C50.4418 43.8777 53.0335 43.0803 53.0335 42.0968C53.0335 41.1132 50.4418 40.3159 47.2448 40.3159C44.0478 40.3159 41.4561 41.1132 41.4561 42.0968C41.4561 43.0803 44.0478 43.8777 47.2448 43.8777Z" fill="white"/>
<path d="M48.1605 40.3381C48.5256 40.4709 48.8857 40.6737 48.9421 40.9677C49.0612 41.592 48.582 41.8142 47.8135 41.8649C47.8135 41.8649 45.0995 41.7795 44.1173 41.9766C43.2605 42.1486 42.2601 42.3492 42.2948 43.0209C43.31 43.5347 45.1473 43.8782 47.2455 43.8782C50.4427 43.8782 53.0342 43.0807 53.0342 42.0974C53.0342 41.2098 50.9229 40.4737 48.161 40.3387L48.1605 40.3381Z" fill="#DCDCDC"/>
<path d="M50.634 40.4891C48.2088 39.9792 44.8362 40.047 42.4998 40.9312C42.011 41.142 41.3308 41.4866 41.3086 42.0968C41.3234 42.7109 41.9991 43.0681 42.4884 43.2897C44.8669 44.2434 48.2173 44.3841 50.691 43.8161C51.4122 43.6384 53.209 43.2191 53.2427 42.1247C53.2113 41.2303 51.3621 40.6526 50.6346 40.4885L50.634 40.4891ZM52.2781 42.9354C51.2094 43.4572 49.9937 43.574 48.8218 43.6577C47.2517 43.7432 45.6617 43.6959 44.1138 43.4094C43.3709 43.2595 42.1814 42.9889 41.7068 42.3822C41.4727 42.0706 41.6772 41.7601 41.9455 41.5527C43.2165 40.6349 45.6856 40.431 47.2443 40.4076C48.8201 40.4099 50.4466 40.4919 51.9295 41.0702C52.3522 41.2548 52.9965 41.5709 53.0142 42.0968C52.9943 42.5035 52.6051 42.761 52.2776 42.9354H52.2781Z" fill="#1E1E22"/>
<path d="M45.5079 41.9839C45.9933 41.9628 46.4792 41.9571 46.9652 41.9736C47.0478 41.9765 47.1264 41.899 47.1224 41.8164C47.1184 41.7292 47.0535 41.6614 46.9652 41.6591C46.4792 41.6466 45.9933 41.6534 45.5079 41.6882C45.4282 41.6939 45.3604 41.752 45.3604 41.8358C45.3604 41.9132 45.4282 41.9867 45.5079 41.9833V41.9839Z" fill="#1E1E22"/>
<path d="M43.3413 42.1553C43.707 42.1513 44.071 42.0984 44.4351 42.0676C44.5154 42.0608 44.5781 42.0004 44.5667 41.9155C44.5553 41.8306 44.479 41.7907 44.3992 41.8038C44.0374 41.8637 43.6711 41.9275 43.3282 42.0613C43.2809 42.0801 43.2832 42.1559 43.3407 42.1553H43.3413Z" fill="#1E1E22"/>
<path d="M51.8743 43.0817C51.598 42.6117 51.1177 42.3513 50.6147 42.1861C50.3572 42.1013 50.0917 42.0437 49.8256 41.9902C49.4935 41.9235 49.1596 41.8671 48.8241 41.8198C48.4384 41.7657 48.0516 41.7241 47.6636 41.6962C47.5816 41.6905 47.5035 41.7725 47.5069 41.8529C47.5109 41.9429 47.5759 42.0027 47.6636 42.0095C48.3165 42.0597 48.9494 42.1457 49.592 42.2773C49.8615 42.3326 50.1316 42.3912 50.3948 42.4721C50.4523 42.4898 50.5098 42.5086 50.5668 42.5291C50.5953 42.5394 50.6232 42.5496 50.6517 42.5604C50.6659 42.5661 50.6796 42.5718 50.6933 42.5775C50.6961 42.5787 50.6978 42.5792 50.7001 42.5804C50.7069 42.5832 50.7144 42.5866 50.7212 42.5895C50.8289 42.6368 50.9343 42.6903 51.0345 42.7524C51.0636 42.7701 51.0915 42.7889 51.1194 42.8083C51.1314 42.8162 51.1433 42.8248 51.1547 42.8333C51.1587 42.8362 51.1781 42.851 51.1855 42.8567C51.2339 42.896 51.2806 42.9364 51.3245 42.9809C51.3479 43.0042 51.3707 43.0287 51.3923 43.0538C51.4014 43.0646 51.4105 43.076 51.4196 43.0868C51.4219 43.0897 51.4236 43.092 51.4253 43.0937C51.4282 43.0977 51.431 43.1017 51.4339 43.1051C51.4738 43.1598 51.5074 43.2184 51.5381 43.2788C51.5398 43.2828 51.5433 43.2857 51.5456 43.2897C51.6703 43.2469 51.7888 43.2025 51.8999 43.1563C51.8971 43.1313 51.8891 43.1062 51.8748 43.0823L51.8743 43.0817Z" fill="#1E1E22"/>
<path d="M56.3156 11.867C55.7618 12.3079 55.1517 12.9369 55.4473 14.5337C55.743 16.1306 57.5148 16.7755 58.8148 16.1841C60.1149 15.5928 61.0019 13.8928 60.0408 12.5626C59.0797 11.2323 57.4327 10.9771 56.315 11.8664L56.3156 11.867Z" fill="white"/>
<path d="M60.0413 12.5631C59.6744 12.0549 59.2073 11.7045 58.7082 11.5137C59.1822 13.1288 58.833 14.5371 57.2327 15.1142C56.6818 15.313 56.1605 15.321 55.7002 15.2338C56.3064 16.3071 57.726 16.6797 58.8153 16.1841C60.1154 15.5927 61.0024 13.8927 60.0413 12.5625V12.5631Z" fill="#DCDCDC"/>
<path d="M60.2043 12.4104C59.2803 11.149 57.349 10.7195 56.1224 11.7233C55.6331 12.1107 55.2508 12.6217 55.1277 13.2427C55.0514 13.6574 55.0457 14.1855 55.1625 14.5895C55.2428 14.8675 55.3704 15.3244 55.6171 15.6611C56.2449 16.5179 57.5376 16.7366 58.5488 16.4512C60.1992 15.9875 61.3523 13.8921 60.2037 12.4104H60.2043ZM59.2711 15.7021C58.2964 16.5384 56.7052 16.4119 55.9219 15.3779C55.5294 14.8652 55.4223 14.181 55.4251 13.548C55.4462 12.8234 55.7612 12.3146 56.3298 11.884C57.4316 11.0323 58.8889 11.4652 59.7058 12.4884C60.5951 13.5065 60.2619 14.8851 59.2717 15.7021H59.2711Z" fill="#1E1E22"/>
<path d="M49.7426 38.6688C49.4111 39.124 47.2941 40.3158 44.5339 37.6895C41.7737 35.0632 40.3563 31.02 43.3574 29.1241C46.3586 27.2281 49.1188 27.3324 49.742 25.5219C50.3653 23.7114 49.0841 21.1295 50.9937 19.2597C52.9027 17.39 55.7074 16.7172 58.2892 18.7675C60.8711 20.8179 61.2272 27.5397 56.82 30.3888C52.4128 33.2379 50.0981 31.457 50.1425 34.1283C50.187 36.7996 50.4325 37.7203 49.742 38.6688H49.7426Z" fill="white"/>
<path d="M56.8221 30.3883C61.2293 27.5392 60.8733 20.8173 58.2914 18.767C57.2232 17.9187 56.1168 17.537 55.0515 17.5131C54.794 19.1555 57.7074 19.523 58.1774 20.8817C58.7118 22.4261 57.9399 26.3423 55.0065 27.5591C52.6702 28.5282 49.3482 29.3252 47.9679 31.5596C46.588 33.7939 48.4578 36.2254 47.4335 37.7391C47.0267 38.3401 46.2815 38.5116 45.5312 38.5002C47.793 40.0316 49.4531 39.0676 49.7436 38.6688C50.4346 37.7203 50.1885 36.7991 50.1441 34.1283C50.0997 31.4576 52.4144 33.2379 56.8215 30.3888L56.8221 30.3883Z" fill="#DCDCDC"/>
<path d="M49.7436 25.5214C49.2292 27.0151 47.2609 27.2054 44.9023 28.2912C45.7125 28.4177 47.0644 28.5106 48.369 28.0651C50.2701 27.4162 50.7891 25.183 49.9271 23.6909C49.947 24.3449 49.9339 24.9693 49.7436 25.5214Z" fill="#DCDCDC"/>
<path d="M48.0367 39.6084C46.6717 39.5839 45.2327 38.7521 44.2824 37.8326C43.3185 36.9017 42.3961 35.6547 41.8635 34.4196C41.3336 33.185 41.0192 31.5608 41.6806 30.332C42.3443 29.0929 44.0112 28.5613 45.2201 27.9945C45.8371 27.725 46.4683 27.4949 47.0916 27.2607C47.6664 27.0397 48.2452 26.8278 48.7574 26.4865C49.1129 26.2524 49.4165 25.9276 49.5624 25.5248C49.8638 24.6697 49.7384 23.7713 49.7151 22.8604C49.6569 21.648 49.7646 20.3822 50.585 19.4142C51.6019 18.2486 53.0626 17.41 54.6264 17.2995C56.029 17.1947 57.4134 17.7371 58.4913 18.615L58.6947 18.7904C58.8787 18.9727 59.0695 19.1807 59.2171 19.3915C60.5844 21.3039 60.7524 24.1576 60.0819 26.3606C59.6307 27.8902 58.7083 29.294 57.4248 30.2516C56.2176 31.1187 55.2127 31.7676 53.7747 32.1396C53.4472 32.2234 52.9561 32.3031 52.6274 32.3669C52.1408 32.4672 51.4891 32.5361 51.0299 32.7133C50.4283 32.9475 50.2876 33.4608 50.2734 34.0561C50.2586 34.9739 50.54 36.156 50.5405 37.0761C50.5468 37.742 50.3218 38.5311 49.8358 39.0176C49.3607 39.4927 48.6719 39.6152 48.0379 39.6089L48.0367 39.6084ZM49.7219 38.653C50.3338 37.8201 50.1748 36.7348 50.1423 35.764C50.1133 35.2411 50.0888 34.6628 50.0689 34.1364C50.0677 34.0219 50.0649 33.8669 50.0751 33.753C50.0968 33.4021 50.1879 33.0363 50.4471 32.7788C50.7006 32.5225 51.0453 32.4017 51.3786 32.3043C51.7062 32.2125 52.0337 32.143 52.3568 32.065C53.1606 31.8787 53.9519 31.6354 54.7045 31.2988C55.3984 30.9934 56.0626 30.6117 56.6956 30.1958C58.0936 29.2598 59.1003 27.819 59.5617 26.2051C60.2385 23.9308 60.0391 20.659 58.1774 18.9955C57.6829 18.5899 57.1268 18.2464 56.5281 18.0276C54.5871 17.279 52.4485 18.039 51.047 19.4917C50.8829 19.6592 50.7348 19.8501 50.6118 20.0495C50.2728 20.5924 50.1275 21.2276 50.0865 21.8657C49.9805 23.1276 50.3594 24.7318 49.7606 25.8912C49.2394 26.8312 48.1387 27.1838 47.1958 27.5444C45.7927 28.0469 44.385 28.5688 43.1544 29.4182C42.7699 29.7059 42.4275 30.0688 42.1945 30.4903C41.5461 31.6582 41.7455 33.0813 42.2229 34.28C43.0672 36.3913 45.4674 39.2916 47.9148 39.3127C48.5364 39.3167 49.298 39.1361 49.7213 38.6536L49.7219 38.653Z" fill="#1E1E22"/>
<path d="M51.8486 22.7192C51.9796 22.5118 51.917 22.252 51.9255 22.0179C51.9363 21.7279 51.987 21.4345 52.1078 21.169C52.2086 20.9474 52.3516 20.7469 52.5265 20.5771C52.7254 20.3846 52.9777 20.2911 53.1902 20.1248C53.3817 19.9744 53.2905 19.6115 53.0176 19.6496C52.4001 19.7357 51.8406 20.388 51.6014 20.9281C51.4612 21.2437 51.3871 21.5843 51.3951 21.9301C51.402 22.2144 51.4549 22.6366 51.758 22.7517C51.7956 22.7659 51.8275 22.7528 51.8486 22.7198V22.7192Z" fill="#DCDCDC"/>
<path d="M51.6403 22.1169C51.7878 21.9209 51.7474 21.6571 51.7759 21.4247C51.8112 21.137 51.8858 20.8482 52.0288 20.5941C52.1479 20.3816 52.3068 20.1936 52.4954 20.0392C52.7096 19.8643 52.9688 19.7919 53.195 19.6438C53.3984 19.5099 53.3374 19.1408 53.0628 19.1556C52.4401 19.1898 51.8283 19.7925 51.544 20.3104C51.3782 20.6134 51.2757 20.9461 51.2546 21.2914C51.2375 21.5751 51.2546 22.0001 51.5474 22.1408C51.5833 22.1579 51.6163 22.1476 51.6403 22.1163V22.1169Z" fill="#1E1E22"/>
<path d="M44.1893 35.3459C44.1956 35.1339 44.0406 34.9311 43.9472 34.7505C43.8236 34.5113 43.721 34.264 43.6475 34.0042C43.4983 33.4767 43.5319 32.9873 43.5291 32.4501C43.5279 32.2199 43.1952 32.2154 43.1405 32.4216C42.9987 32.9594 43.1086 33.6123 43.2721 34.133C43.3536 34.3928 43.4635 34.6451 43.5957 34.8833C43.7091 35.0878 43.8675 35.3584 44.1136 35.4114C44.1569 35.4205 44.1882 35.3857 44.1899 35.3459H44.1893Z" fill="#DCDCDC"/>
<path d="M43.5593 31.6417C43.6937 31.5078 43.7404 31.3038 43.8452 31.146C43.9563 30.9779 44.1187 30.8743 44.2452 30.7244C44.4241 30.5131 44.2047 30.2504 43.9603 30.3558C43.7467 30.4476 43.5672 30.688 43.4442 30.8777C43.3211 31.0674 43.1821 31.3221 43.2385 31.5568C43.2727 31.6992 43.4596 31.7408 43.5593 31.6417Z" fill="#DCDCDC"/>
<path d="M43.7267 35.037C43.7461 34.8263 43.6037 34.6143 43.5217 34.428C43.4128 34.1814 43.3257 33.9284 43.2687 33.6646C43.1519 33.1291 43.2157 32.6426 43.2459 32.1059C43.259 31.8764 42.9269 31.8513 42.8602 32.0535C42.6853 32.5816 42.7554 33.2396 42.8864 33.77C42.952 34.0344 43.0459 34.293 43.1633 34.5391C43.2641 34.7499 43.4054 35.0302 43.6476 35.098C43.6903 35.11 43.7239 35.0769 43.7273 35.037H43.7267Z" fill="#1E1E22"/>
<path d="M43.4032 31.3005C43.5376 31.1666 43.5843 30.9626 43.6892 30.8048C43.8002 30.6368 43.9626 30.5331 44.0891 30.3832C44.268 30.1719 44.0486 29.9093 43.8042 30.0146C43.5906 30.1064 43.4111 30.3468 43.2881 30.5365C43.1627 30.729 43.026 30.9809 43.0824 31.2156C43.1166 31.358 43.3035 31.3996 43.4032 31.3005Z" fill="#1E1E22"/>
<path d="M52.0786 31.2424C52.4056 31.2384 52.7207 31.1244 53.0215 31.0054C53.3251 30.8852 53.6453 30.7598 53.9125 30.5701C54.1797 30.3804 53.9541 30.0015 53.6573 30.1331C53.3753 30.2585 53.1115 30.4209 52.8278 30.545C52.5492 30.667 52.2512 30.7547 51.9892 30.9102C51.8388 30.9991 51.9003 31.2441 52.0792 31.2418L52.0786 31.2424Z" fill="#1E1E22"/>
</g>
<defs>
<radialGradient id="paint0_radial_457_81346" cx="0" cy="0" r="1" gradientUnits="userSpaceOnUse" gradientTransform="translate(-33.6693 -0.785118) rotate(90) scale(89.0251)">
<stop offset="0.265" stop-color="#D27C71"/>
<stop offset="1" stop-color="#D27C71" stop-opacity="0"/>
</radialGradient>
<radialGradient id="paint1_radial_457_81346" cx="0" cy="0" r="1" gradientUnits="userSpaceOnUse" gradientTransform="translate(106.061 126.812) rotate(90) scale(126.144)">
<stop stop-color="#B68EFF"/>
<stop offset="1" stop-color="#B68EFF" stop-opacity="0"/>
</radialGradient>
<clipPath id="clip0_457_81346">
<rect y="0.5" width="64" height="64" rx="32" fill="white"/>
</clipPath>
</defs>
</svg>
