<svg width="64" height="65" viewBox="0 0 64 65" fill="none" xmlns="http://www.w3.org/2000/svg">
<g clip-path="url(#clip0_457_81373)">
<rect y="0.5" width="64" height="64" rx="32" fill="#8B47F4"/>
<mask id="mask0_457_81373" style="mask-type:alpha" maskUnits="userSpaceOnUse" x="0" y="0" width="64" height="65">
<circle cx="32" cy="32.5" r="32" fill="#8B47F4"/>
</mask>
<g mask="url(#mask0_457_81373)">
<circle cx="-33.6693" cy="-0.785118" r="89.0251" fill="url(#paint0_radial_457_81373)"/>
<circle cx="106.061" cy="126.812" r="126.144" fill="url(#paint1_radial_457_81373)"/>
</g>
<g clip-path="url(#clip1_457_81373)">
<mask id="mask1_457_81373" style="mask-type:luminance" maskUnits="userSpaceOnUse" x="0" y="7" width="63" height="71">
<path d="M53.3324 7.16675H9.35377C4.19322 7.16675 0.00976562 11.8689 0.00976562 17.6692V67.1003C0.00976562 72.9007 4.19322 77.6028 9.35377 77.6028H53.3324C58.493 77.6028 62.6764 72.9007 62.6764 67.1003V17.6692C62.6764 11.8689 58.493 7.16675 53.3324 7.16675Z" fill="white"/>
</mask>
<g mask="url(#mask1_457_81373)">
<path d="M24.1585 42.9174L21.5026 40.0502C20.7638 39.2531 19.7266 38.7999 18.6393 38.7999H13.156C11.0007 38.7999 9.25293 40.547 9.25293 42.703V67.7356C9.25293 69.891 11 71.6387 13.156 71.6387H50.367C52.5224 71.6387 54.2701 69.8916 54.2701 67.7356V48.0714C54.2701 45.9161 52.523 44.1683 50.367 44.1683H27.0218C25.9352 44.1683 24.8973 43.7152 24.1585 42.918V42.9174Z" fill="#DCDCDC"/>
<path d="M54.6133 52.2832C54.6095 51.5438 54.6166 49.443 54.6133 48.7312C54.6133 48.3435 54.5633 46.807 54.4683 46.4296C54.2687 44.5811 53.3425 43.8346 51.768 43.5599C51.3868 43.4835 50.3374 43.4585 49.9555 43.463C49.2828 43.461 47.1686 43.4071 46.4927 43.4026C40.7918 43.4533 34.8592 43.5862 29.1577 43.5836C28.7707 43.5753 27.1468 43.6754 26.7765 43.6382C25.8419 43.5502 25.2553 43.2409 24.6199 42.5509C24.1295 42.0149 22.8028 40.6003 22.3362 40.0862C21.5037 39.0746 20.2129 38.3487 18.8747 38.3282C17.6898 38.3198 16.0788 38.3231 14.8696 38.3102C14.4922 38.3064 12.7759 38.3744 12.4229 38.4193C10.6161 38.5901 9.23031 39.8795 8.97935 41.6812C8.91838 42.006 8.91838 42.9533 8.90682 43.2762C8.90682 43.2762 8.87024 44.8166 8.87088 44.8166C8.80669 48.0849 8.87601 52.5342 8.83108 55.8153C8.81247 59.3313 8.77332 64.262 8.78551 67.7613C8.78872 68.398 8.9325 69.0341 9.20592 69.6098C9.74828 70.7677 10.8227 71.649 12.0602 71.9628C12.4184 72.0546 12.7919 72.0976 13.161 72.0996C23.5704 72.0527 39.356 71.9898 49.7026 71.9468C50.0357 71.9391 50.3399 73.1394 50.6621 73.088C52.2969 72.9032 53.9933 70.7838 54.4317 69.201C54.5459 68.8108 54.6692 67.9898 54.6673 67.588C54.6531 63.4648 54.6268 56.4757 54.6127 52.2832H54.6133ZM54.044 51.78C54.0286 55.9469 53.9997 63.6137 53.985 67.7049C53.9869 68.4135 53.7822 69.1111 53.3958 69.6984C52.822 70.5829 51.8496 71.1901 50.8021 71.3062C50.1442 71.3717 45.8592 71.2934 45.1525 71.3127C36.8644 71.2934 21.4966 71.1984 13.161 71.1772C12.7014 71.1759 12.2419 71.0842 11.8182 70.9051C10.7348 70.4519 9.92928 69.4166 9.75791 68.2555C9.70592 67.9975 9.72261 67.4372 9.71812 67.1901C9.71491 60.6657 9.66677 53.2447 9.56343 46.7158C9.54867 45.9841 9.5262 44.004 9.51016 43.3031L9.50117 42.7345C9.47871 41.8384 9.79064 40.9495 10.3767 40.264C11.0146 39.504 11.9774 39.0207 12.9723 38.9636C13.8304 38.9341 15.7951 38.9334 16.6616 38.9116C17.0634 38.911 17.9678 38.8943 18.3676 38.8949C18.5666 38.8988 18.7187 38.8815 18.9293 38.902C20.1301 38.9809 21.0287 39.5599 21.7938 40.4565C22.2726 40.963 23.6385 42.4322 24.125 42.9488C24.7778 43.6529 25.6924 44.1035 26.6475 44.1908C29.7033 44.2344 34.3862 44.1998 37.4568 44.2319C41.4234 44.264 46.5858 44.2877 50.5306 44.3371C52.4349 44.4097 54.0344 46.0451 54.062 47.9482C54.0671 48.9045 54.0447 50.8076 54.0447 51.7806L54.044 51.78Z" fill="#1E1E22"/>
<path d="M43.3273 20.6915H21.292C18.659 20.6915 16.5244 22.8261 16.5244 25.4592V50.212C16.5244 52.8451 18.659 54.9796 21.292 54.9796H43.3273C45.9604 54.9796 48.0949 52.8451 48.0949 50.212V25.4592C48.0949 22.8261 45.9604 20.6915 43.3273 20.6915Z" fill="#DCDCDC"/>
<path d="M43.0069 20.2917C38.6706 20.2936 25.8246 20.3642 21.2919 20.3835C19.2213 20.3636 17.2509 21.7493 16.5545 23.696C16.4036 24.0914 16.3157 24.5202 16.2688 24.9386C16.247 25.1594 16.2425 25.4701 16.2451 25.6902C16.2817 31.5984 15.8901 44.3962 15.9569 50.4122C16.0256 53.0079 18.0179 54.6465 20.0705 55.0971C20.5499 55.2145 21.1764 55.2813 21.6655 55.2691C28.8644 55.2036 36.1616 55.2255 43.3541 55.2511C45.7873 55.2909 48.4889 53.6966 48.7411 51.2819C48.9048 42.9989 48.7745 34.1594 48.8137 25.8738C48.9959 22.7044 46.1789 20.146 43.0069 20.291V20.2917ZM47.9979 50.4578L47.9818 50.694C47.7822 53.0689 45.7065 54.9495 43.3272 54.9405C36.1327 54.9687 28.8131 54.9077 21.6122 54.8461C21.1366 54.85 20.6687 54.8237 20.2091 54.7056C18.2996 54.2576 16.8189 52.4854 16.7201 50.5284C16.7149 44.5535 16.7919 31.5567 16.8035 25.6896C16.8035 25.4829 16.8067 25.2012 16.8298 24.9951C16.8722 24.6229 16.9556 24.2435 17.091 23.895C17.7181 22.1806 19.4639 20.9682 21.2913 20.9984C25.7476 21.0176 38.7457 21.0882 43.0062 21.0901C44.6782 21.0035 46.2668 21.8116 47.1089 23.2692C47.4818 23.9053 47.6885 24.6383 47.7026 25.3764C47.7058 25.4476 47.7052 25.5304 47.7058 25.6107L47.7065 25.852C47.7212 33.9746 47.9067 42.0984 48.0011 50.2203L47.9972 50.4572L47.9979 50.4578Z" fill="#1E1E22"/>
<path d="M40.4288 22.6313H18.3936C15.7605 22.6313 13.626 24.7659 13.626 27.399V52.1518C13.626 54.7849 15.7605 56.9194 18.3936 56.9194H40.4288C43.0619 56.9194 45.1965 54.7849 45.1965 52.1518V27.399C45.1965 24.7659 43.0619 22.6313 40.4288 22.6313Z" fill="white"/>
<path d="M19.3496 42.0589C19.3496 42.0589 22.7347 41.6057 24.1487 42.331C24.7315 42.6295 28.1981 47.1699 28.1981 47.1699C28.1981 47.1699 27.4767 49.0005 24.399 48.4928C21.3214 47.985 19.3464 42.8054 19.3496 42.0589Z" fill="#DCDCDC"/>
<path d="M40.4286 22.6313H37.1006C38.5839 23.3226 40.6218 24.5787 41.064 26.4009C41.546 28.3868 41.1737 51.6017 41.0826 56.8739C43.4061 56.5549 45.1962 54.5632 45.1962 52.1524V27.3996C45.1962 24.7668 43.0614 22.632 40.4286 22.632V22.6313Z" fill="#DCDCDC"/>
<path d="M21.0327 29.309C25.5526 29.309 30.0725 29.309 34.593 29.309H38.4306C39.0205 29.309 39.0217 28.3918 38.4306 28.3918C33.9107 28.3918 29.3908 28.3918 24.8703 28.3918H21.0327C20.4429 28.3918 20.4416 29.309 21.0327 29.309Z" fill="#DCDCDC"/>
<path d="M21.0327 34.8097C25.5526 34.8097 30.0725 34.8097 34.593 34.8097H38.4306C39.0205 34.8097 39.0217 33.8925 38.4306 33.8925C33.9107 33.8925 29.3908 33.8925 24.8703 33.8925H21.0327C20.4429 33.8925 20.4416 34.8097 21.0327 34.8097Z" fill="#DCDCDC"/>
<path d="M21.0327 40.3104C25.5526 40.3104 30.0725 40.3104 34.593 40.3104H38.4306C39.0205 40.3104 39.0217 39.3932 38.4306 39.3932C33.9107 39.3932 29.3908 39.3932 24.8703 39.3932H21.0327C20.4429 39.3932 20.4416 40.3104 21.0327 40.3104Z" fill="#DCDCDC"/>
<path d="M20.7124 28.8598C25.2323 28.8598 29.7522 28.8598 34.2727 28.8598H38.1103C38.7001 28.8598 38.7014 27.9426 38.1103 27.9426C33.5904 27.9426 29.0705 27.9426 24.55 27.9426H20.7124C20.1225 27.9426 20.1213 28.8598 20.7124 28.8598Z" fill="#1E1E22"/>
<path d="M20.7124 34.3604C25.2323 34.3604 29.7522 34.3604 34.2727 34.3604H38.1103C38.7001 34.3604 38.7014 33.4432 38.1103 33.4432C33.5904 33.4432 29.0705 33.4432 24.55 33.4432H20.7124C20.1225 33.4432 20.1213 34.3604 20.7124 34.3604Z" fill="#1E1E22"/>
<path d="M20.7124 39.861C25.2323 39.861 29.7522 39.861 34.2727 39.861H38.1103C38.7001 39.861 38.7014 38.9438 38.1103 38.9438C33.5904 38.9438 29.0705 38.9438 24.55 38.9438H20.7124C20.1225 38.9438 20.1213 39.861 20.7124 39.861Z" fill="#1E1E22"/>
<path d="M40.1084 22.2314C35.7721 22.2333 22.9262 22.3039 18.3935 22.3232C16.3229 22.3033 14.3524 23.689 13.656 25.6357C13.5052 26.0311 13.4173 26.4599 13.3704 26.8783C13.3486 27.0991 13.3441 27.4098 13.3466 27.6299C13.3832 33.5381 12.9917 46.3359 13.0585 52.352C13.1271 54.9476 15.1194 56.5862 17.1721 57.0368C17.6515 57.1543 18.278 57.221 18.767 57.2088C25.966 57.1433 33.2631 57.1652 40.4557 57.1908C42.8889 57.2306 45.5904 55.6363 45.8427 53.2216C46.0064 44.9386 45.8761 36.0991 45.9152 27.8135C46.0975 24.6441 43.2804 22.0857 40.1084 22.2307V22.2314ZM45.0988 52.3982L45.0827 52.6344C44.8831 55.0092 42.8074 56.8898 40.4281 56.8808C33.2336 56.9091 25.914 56.8481 18.7131 56.7865C18.2375 56.7903 17.7696 56.764 17.31 56.6459C15.4006 56.1979 13.9198 54.4257 13.821 52.4688C13.8158 46.4938 13.8929 33.4971 13.9044 27.6299C13.9044 27.4233 13.9076 27.1415 13.9307 26.9355C13.9731 26.5632 14.0565 26.1839 14.192 25.8353C14.819 24.121 16.5649 22.9085 18.3922 22.9387C22.8485 22.9579 35.8466 23.0286 40.1071 23.0305C41.7792 22.9438 43.3677 23.7519 44.2098 25.2095C44.5827 25.8456 44.7894 26.5786 44.8035 27.3167C44.8067 27.388 44.8061 27.4708 44.8067 27.551L44.8074 27.7923C44.8222 35.9149 45.0076 44.0387 45.102 52.1607L45.0981 52.3975L45.0988 52.3982Z" fill="#1E1E22"/>
<path d="M22.6341 44.6325L19.9782 41.7653C19.2394 40.9682 18.2022 40.515 17.1149 40.515H11.6316C9.47626 40.515 7.72852 42.2621 7.72852 44.4181V69.4507C7.72852 71.6061 9.47562 73.3538 11.6316 73.3538H48.8426C50.9979 73.3538 52.7457 71.6067 52.7457 69.4507V49.7865C52.7457 47.6312 50.9986 45.8834 48.8426 45.8834H25.4974C24.4107 45.8834 23.3729 45.4303 22.6341 44.6331V44.6325Z" fill="white"/>
<path d="M52.7447 69.45V49.7857C52.7447 47.6304 50.9976 45.8827 48.8416 45.8827H47.5657C48.1895 46.1927 48.3102 47.3891 48.3102 47.3891C48.3102 47.3891 48.9386 68.3512 47.7422 69.1028C46.5458 69.8544 15.1216 71.1778 12.8379 70.3909C11.0606 69.7786 8.69095 67.3191 7.72754 66.2587V69.45C7.72754 71.6053 9.47464 73.3531 11.6306 73.3531H48.8416C50.997 73.3531 52.7447 71.606 52.7447 69.45Z" fill="#DCDCDC"/>
<path d="M53.0899 53.9976C53.0861 53.2582 53.0931 51.1574 53.0899 50.4456C53.0899 50.0579 53.0398 48.5213 52.9449 48.1439C52.7452 46.2954 51.819 45.5489 50.2446 45.2742C49.8633 45.1979 48.8139 45.1728 48.432 45.1773C47.7594 45.1754 45.6451 45.1215 44.9693 45.117C39.2684 45.1677 33.3358 45.3005 27.6343 45.298C27.2472 45.2896 25.6234 45.3898 25.253 45.3525C24.3185 45.2646 23.7319 44.9552 23.0964 44.2653C22.6061 43.7293 21.2794 42.3147 20.8127 41.8006C19.9803 40.789 18.6895 40.0631 17.3513 40.0425C16.1664 40.0342 14.5554 40.0374 13.3461 40.0246C12.9687 40.0207 11.2524 40.0888 10.8994 40.1337C9.09262 40.3044 7.70688 41.5939 7.45591 43.3955C7.39494 43.7203 7.39494 44.6677 7.38339 44.9905C7.38339 44.9905 7.3468 46.531 7.34744 46.531C7.28326 49.7992 7.35258 54.2485 7.30765 57.5296C7.28903 61.0457 7.24988 65.9763 7.26208 69.4757C7.26529 70.1124 7.40906 70.7485 7.68249 71.3242C8.22485 72.4821 9.2993 73.3634 10.5368 73.6772C10.8949 73.769 11.2685 73.812 11.6375 73.8139C22.047 73.7671 37.8326 73.7042 48.1791 73.6612C48.5123 73.6535 49.0296 73.6772 49.3518 73.6252C50.9866 73.4404 52.4699 72.4981 52.9083 70.9147C53.0225 70.5245 53.1457 69.7035 53.1438 69.3017C53.1297 65.1785 53.1034 58.1895 53.0893 53.9969L53.0899 53.9976ZM52.5206 53.4943C52.5052 57.6612 52.4763 65.3281 52.4615 69.4192C52.4635 70.1278 52.2587 70.8255 51.8723 71.4128C51.2985 72.2972 50.3261 72.9044 49.2786 73.0206C48.6207 73.0861 44.3358 73.0078 43.6291 73.027C35.3409 73.0078 19.9732 72.9128 11.6375 72.8916C11.178 72.8903 10.7184 72.7985 10.2948 72.6194C9.21136 72.1663 8.40585 71.131 8.23447 69.9699C8.18248 69.7119 8.19917 69.1516 8.19468 68.9044C8.19147 62.3801 8.14333 54.959 8.03999 48.4302C8.02523 47.6985 8.00277 45.7184 7.98672 45.0175L7.97773 44.4488C7.95527 43.5528 8.26721 42.6638 8.85321 41.9783C9.49121 41.2184 10.454 40.7351 11.4488 40.678C12.307 40.6484 14.2717 40.6478 15.1382 40.626C15.54 40.6253 16.4443 40.6086 16.8442 40.6093C17.0432 40.6131 17.1953 40.5958 17.4058 40.6164C18.6067 40.6953 19.5053 41.2742 20.2704 42.1709C20.7492 42.6773 22.115 44.1465 22.6016 44.6632C23.2543 45.3673 24.169 45.8179 25.124 45.9052C28.1798 45.9488 32.8628 45.9142 35.9334 45.9462C39.9 45.9783 45.0623 46.0021 49.0071 46.0515C50.9115 46.124 52.511 47.7595 52.5386 49.6625C52.5437 50.6189 52.5212 52.522 52.5212 53.495L52.5206 53.4943Z" fill="#1E1E22"/>
<path d="M11.7163 52.5997C11.6823 51.6607 11.6483 50.7223 11.6143 49.7833C11.5803 48.8462 11.5784 47.8982 11.4699 46.9668C11.4192 46.5342 10.8036 46.5131 10.7799 46.9668C10.7318 47.9027 10.7914 48.8475 10.8184 49.7833L10.8993 52.5997C10.9147 53.1241 11.7343 53.1254 11.7151 52.5997H11.7163Z" fill="#DCDCDC"/>
<path d="M11.7638 55.7139C11.7484 55.3558 11.7279 54.9996 11.6977 54.6427C11.6631 54.2287 11.0103 54.3077 10.9853 54.7011C10.9647 55.0246 10.9545 55.3468 10.9474 55.6709C10.9352 56.203 11.7869 56.2338 11.7645 55.7146L11.7638 55.7139Z" fill="#DCDCDC"/>
<path d="M11.1499 52.1298C11.1159 51.1908 11.0819 50.2524 11.0479 49.3134C11.0139 48.3763 11.0119 47.4283 10.9035 46.497C10.8528 46.0644 10.2372 46.0432 10.2135 46.497C10.1654 47.4328 10.225 48.3776 10.252 49.3134L10.3329 52.1298C10.3483 52.6542 11.1679 52.6555 11.1487 52.1298H11.1499Z" fill="#1E1E22"/>
<path d="M11.3274 55.2955C11.2927 54.9386 11.2536 54.5844 11.2048 54.2288C11.1483 53.8173 10.5007 53.931 10.4962 54.3244C10.4923 54.6485 10.4994 54.9707 10.5097 55.2949C10.5257 55.827 11.3781 55.8122 11.328 55.2949L11.3274 55.2955Z" fill="#1E1E22"/>
<path d="M42.5657 56.5291C42.9951 55.6472 43.0689 54.5163 42.2807 53.877C41.8892 53.5336 41.2422 53.3121 40.7345 53.2249C38.9399 52.9257 36.9662 53.8885 35.4187 54.8198C35.3892 54.2544 35.3269 53.7698 35.2377 53.2127C35.0144 51.9572 34.6209 50.5573 33.7217 49.6003C32.9829 48.8231 31.6806 48.6979 30.8584 49.4129C29.4046 50.6575 28.6954 53.1421 28.3969 54.9829C28.3796 55.0881 28.3879 55.3879 27.8732 55.3661C25.7461 55.2768 21.0022 55.0323 20.4836 57.807C20.0645 60.5066 24.7044 61.0933 27.2102 61.2094C26.1569 62.2492 25.1819 63.3526 24.3514 64.5932C23.4932 65.8827 22.4566 68.0091 23.9932 69.2145C25.0131 70.0361 26.4438 69.633 27.4752 69.0746C29.049 68.2171 30.3437 67.0124 31.5831 65.755C32.11 65.21 32.6145 64.6581 33.1036 64.0798C33.5978 64.5246 34.1023 64.945 34.626 65.357C35.8744 66.3217 37.1697 67.2357 38.6556 67.8217C39.4251 68.1086 40.3269 68.3262 41.1331 68.0085C41.7627 67.7582 42.2114 67.1587 42.3629 66.5085C42.5111 65.8814 42.3654 65.2081 42.1241 64.6407C41.4052 63.0085 39.9232 61.5451 38.5343 60.4001C39.9996 59.445 41.8276 58.0477 42.567 56.5291H42.5657Z" fill="#DCDCDC"/>
<path d="M37.2749 50.2666C36.9386 50.5844 36.644 50.9624 36.3654 51.3302C36.0888 51.6954 35.8224 52.0503 35.6741 52.4881C35.6356 52.6023 35.6806 52.7352 35.7614 52.8186C35.7788 52.8372 35.798 52.8533 35.8198 52.8674L35.8301 52.8719C35.9341 52.9194 36.0708 52.947 36.1729 52.8719C36.5265 52.6113 36.7948 52.2833 37.0926 51.9643C37.3943 51.6408 37.7171 51.3327 38.0111 51.0028C38.4553 50.5048 37.7653 49.8032 37.2749 50.2666Z" fill="#DCDCDC"/>
<path d="M25.1348 52.1954C24.8967 51.9881 24.6573 51.7827 24.4159 51.5799C24.1765 51.379 23.9423 51.1036 23.6277 51.0394C23.2869 50.9701 23.077 51.2878 23.2067 51.5875C23.3331 51.8796 23.674 52.0625 23.9185 52.2551C24.1611 52.4463 24.4063 52.6344 24.6521 52.8212C25.1431 53.1941 25.6271 53.6588 26.208 53.8809C26.4172 53.9611 26.6098 53.6851 26.4955 53.5067C26.1611 52.9823 25.5989 52.6004 25.1348 52.1954Z" fill="#DCDCDC"/>
<path d="M43.9666 61.0644C43.4217 60.9777 42.8344 60.979 42.2837 61.0015C41.7946 61.0214 41.1855 61.031 40.7503 61.2736C40.6206 61.3461 40.6085 61.5644 40.7503 61.6337C41.1855 61.8461 41.7452 61.8494 42.2214 61.8994C42.7509 61.9553 43.3016 62.038 43.8331 62.0502C44.3844 62.0631 44.5366 61.1536 43.9666 61.0631V61.0644Z" fill="#DCDCDC"/>
<path d="M21.9004 63.5708C21.0788 63.728 20.2572 64.1337 19.5281 64.5342C18.9768 64.8372 19.4652 65.6651 20.0204 65.3757C20.7348 65.0028 21.5005 64.651 22.1616 64.1889C22.4787 63.9675 22.2848 63.497 21.901 63.5701L21.9004 63.5708Z" fill="#DCDCDC"/>
<path d="M36.8892 50.0453C36.5528 50.363 36.2582 50.7411 35.9797 51.1089C35.703 51.4741 35.4367 51.829 35.2884 52.2668C35.2499 52.381 35.2948 52.5139 35.3757 52.5973C35.393 52.6159 35.4123 52.632 35.4341 52.6461L35.4444 52.6506C35.5483 52.6981 35.6851 52.7257 35.7871 52.6506C36.1408 52.39 36.4091 52.062 36.7069 51.743C37.0085 51.4195 37.3314 51.1114 37.6254 50.7815C38.0695 50.2834 37.3795 49.5819 36.8892 50.0453Z" fill="#1E1E22"/>
<path d="M24.6866 52.1506C24.4484 51.9433 24.209 51.7379 23.9677 51.535C23.7283 51.3341 23.494 51.0588 23.1795 50.9946C22.8387 50.9253 22.6288 51.243 22.7585 51.5427C22.8849 51.8348 23.2257 52.0177 23.4703 52.2103C23.7129 52.4015 23.9581 52.5896 24.2039 52.7764C24.6949 53.1493 25.1789 53.614 25.7597 53.8361C25.969 53.9163 26.1615 53.6403 26.0473 53.4619C25.7129 52.9375 25.1506 52.5556 24.6866 52.1506Z" fill="#1E1E22"/>
<path d="M43.7137 60.6967C43.1687 60.6101 42.5814 60.6113 42.0307 60.6338C41.5417 60.6537 40.9325 60.6633 40.4974 60.9059C40.3677 60.9785 40.3555 61.1967 40.4974 61.266C40.9325 61.4785 41.4922 61.4817 41.9685 61.5317C42.498 61.5876 43.0487 61.6704 43.5802 61.6826C44.1315 61.6954 44.2836 60.7859 43.7137 60.6954V60.6967Z" fill="#1E1E22"/>
<path d="M21.5146 63.3489C20.6931 63.5061 19.8715 63.9118 19.1424 64.3123C18.591 64.6152 19.0795 65.4432 19.6347 65.1537C20.349 64.7808 21.1148 64.4291 21.7759 63.967C22.0929 63.7455 21.8991 63.2751 21.5153 63.3482L21.5146 63.3489Z" fill="#1E1E22"/>
<path d="M27.2141 55.1028C27.2141 55.1028 28.0806 48.3493 30.908 48.4944C33.7353 48.6394 33.811 54.5771 33.811 54.5771C33.811 54.5771 38.5081 51.4976 40.752 53.6888C43.0896 55.9725 36.7828 59.7235 36.7828 59.7235C36.7828 59.7235 42.4368 64.0726 40.3348 66.6098C38.2327 69.1471 31.7263 62.9308 31.7263 62.9308C31.7263 62.9308 25.6917 70.3069 22.9369 68.2767C20.1821 66.2466 26.7064 60.2305 26.7064 60.2305C26.7064 60.2305 18.933 60.3429 19.3682 57.2254C19.8034 54.108 27.2141 55.1015 27.2141 55.1015V55.1028Z" fill="white"/>
<path d="M32.6989 55.1331C33.2034 55.1138 33.8106 54.5772 33.8106 54.5772C33.8106 54.5772 33.7349 48.6395 30.9075 48.4945C30.6316 48.4803 30.3748 48.5323 30.1348 48.637C31.9185 49.0522 31.5147 51.8282 31.6354 53.212C31.7561 54.5959 32.0584 55.1575 32.6983 55.1331H32.6989Z" fill="#DCDCDC"/>
<path d="M36.7836 59.7241C36.7836 59.7241 43.0903 55.9726 40.7527 53.6895C40.7046 53.6427 40.6552 53.599 40.6045 53.5566C40.5448 53.9931 40.3047 54.4276 40.0583 54.807C39.5871 55.5316 37.0692 57.8179 36.0833 58.5618C34.9113 59.4462 35.7207 60.9084 36.523 61.8262C37.3246 62.7447 39.5146 64.9193 38.4517 65.9321C37.9857 66.3762 37.3381 66.5451 36.7579 66.5951C38.1847 67.2909 39.5608 67.547 40.3362 66.6105C42.4382 64.0733 36.7842 59.7241 36.7842 59.7241H36.7836Z" fill="#DCDCDC"/>
<path d="M29.5831 62.2857C27.8675 63.2041 25.4047 65.7414 24.4009 66.3691C23.7808 66.7574 22.8803 66.7394 22.2995 66.4641C22.1749 67.1907 22.3315 67.8312 22.9381 68.2779C25.6929 70.3075 31.7275 62.932 31.7275 62.932C31.7275 62.932 31.2988 61.3672 29.5831 62.2857Z" fill="#DCDCDC"/>
<path d="M19.3679 57.2267C19.332 57.4841 19.3531 57.7197 19.4205 57.9347C19.8024 57.486 20.1099 57.1689 20.8037 56.9693C23.6535 56.1497 26.3685 56.7761 26.9366 56.341C27.5046 55.9058 27.2145 55.1028 27.2145 55.1028C27.2145 55.1028 19.8037 54.1093 19.3685 57.2267H19.3679Z" fill="#DCDCDC"/>
<path d="M41.2239 55.8763C41.6533 54.9944 41.7271 53.8634 40.9389 53.2241C40.5474 52.8807 39.9004 52.6593 39.3927 52.572C37.5981 52.2729 35.6244 53.2357 34.0769 54.167C34.0474 53.6015 33.9852 53.117 33.8959 52.5598C33.6726 51.3044 33.2791 49.9045 32.3799 48.9475C31.6411 48.1702 30.3388 48.0451 29.5166 48.7601C28.0628 50.0046 27.3536 52.4892 27.0551 54.33C27.0378 54.4353 27.0461 54.735 26.5314 54.7132C24.4043 54.624 19.6604 54.3795 19.1418 57.1542C18.7227 59.8538 23.3626 60.4404 25.8684 60.5566C24.8151 61.5964 23.8401 62.6997 23.0096 63.9404C22.1514 65.2299 21.1148 67.3563 22.6514 68.5617C23.6713 69.3833 25.102 68.9802 26.1334 68.4218C27.7073 67.5643 29.0019 66.3595 30.2413 65.1021C30.7682 64.5572 31.2727 64.0052 31.7618 63.4269C32.256 63.8717 32.7605 64.2921 33.2843 64.7042C34.5326 65.6689 35.8279 66.5829 37.3138 67.1689C38.0833 67.4558 38.9851 67.6734 39.7913 67.3557C40.4209 67.1054 40.8696 66.5059 41.0211 65.8557C41.1693 65.2286 41.0236 64.5553 40.7823 63.9879C40.0634 62.3557 38.5814 60.8923 37.1925 59.7472C38.6578 58.7922 40.4858 57.3949 41.2252 55.8763H41.2239ZM38.2534 58.4372C37.7406 58.8223 37.204 59.1895 36.6597 59.5174C36.5172 59.6002 36.5025 59.8146 36.636 59.9141C38.0089 61.0425 39.5743 62.5521 40.2804 64.1946C40.4177 64.5316 40.5121 64.882 40.5236 65.2254C40.5544 65.8852 40.1969 66.5707 39.5763 66.8184C37.5005 67.5546 33.4524 64.0816 31.9633 62.6843C31.8202 62.547 31.5866 62.5611 31.4614 62.7151C31.1918 63.0361 30.903 63.3576 30.6142 63.6702C29.2477 65.133 25.6816 68.7459 23.5853 68.1612C22.3125 67.7183 22.5827 66.4423 23.0532 65.4462C23.5937 64.312 24.3748 63.3069 25.1912 62.3429C25.7438 61.7023 26.335 61.072 26.9441 60.4886C27.1784 60.2806 27.0218 59.8724 26.7021 59.882C26.3504 59.8871 25.9839 59.8794 25.6296 59.8672C24.5584 59.8262 23.4743 59.7241 22.4306 59.4956C21.7535 59.3416 21.0648 59.14 20.4743 58.7812C19.9069 58.4417 19.4987 57.9077 19.6084 57.228C19.6893 56.5528 20.2208 56.0624 20.8209 55.7761C22.1245 55.1689 23.6065 55.0855 25.0301 55.0547C25.7092 55.0502 26.396 55.0727 27.0731 55.1285L27.1411 55.1343L27.1752 55.1375C27.1957 55.1413 27.2188 55.1388 27.2374 55.133C27.2535 55.1195 27.2535 55.0951 27.2567 55.0778C27.3016 54.7774 27.3581 54.4584 27.4191 54.1619C27.7695 52.5188 28.3863 50.1208 29.6995 49.0123C30.4537 48.3711 31.5057 48.4925 32.1642 49.2043C32.5943 49.6568 32.8651 50.2428 33.068 50.8313C33.4659 52.0309 33.6264 53.3198 33.6623 54.5791C33.6623 54.6048 33.67 54.6317 33.6854 54.6555C33.7297 54.7254 33.8228 54.7466 33.8927 54.7017C34.1604 54.5335 34.4447 54.375 34.7297 54.2274C35.0153 54.0791 35.3061 53.9411 35.6013 53.814C37.1892 53.1388 39.5506 52.4809 40.8067 54.0553C41.8754 55.5489 39.3407 57.6067 38.2541 58.4372H38.2534Z" fill="#1E1E22"/>
<path d="M29.5413 51.3024C29.2826 51.4757 29.2049 51.7543 29.0875 52.0328C28.9681 52.3159 28.8583 52.6022 28.7582 52.8929C28.6568 53.1894 28.5464 53.4924 28.4803 53.7992C28.4277 54.0405 28.3372 54.3704 28.4322 54.6047C28.4777 54.7164 28.5888 54.7453 28.6838 54.6708C28.8834 54.5142 28.9726 54.192 29.0657 53.9603C29.1696 53.7029 29.2556 53.4385 29.3596 53.1811C29.4675 52.9154 29.5836 52.6529 29.703 52.3923C29.823 52.1304 30.0239 51.8621 30.0028 51.5669C29.9874 51.3512 29.7486 51.1631 29.5413 51.3018V51.3024Z" fill="#DCDCDC"/>
<path d="M30.725 49.5933C30.4298 49.4559 30.2346 49.7422 30.1396 49.9758C30.1095 50.0496 30.0819 50.1247 30.0575 50.2005C30.019 50.3179 30.0074 50.4033 30.0665 50.5195C30.1024 50.5894 30.1807 50.6035 30.25 50.5939C30.372 50.5772 30.4253 50.5002 30.5081 50.4206C30.5697 50.3616 30.623 50.3211 30.6846 50.2723C30.7847 50.1934 30.8746 50.1177 30.9079 49.9867C30.949 49.8263 30.8746 49.6632 30.7257 49.5939L30.725 49.5933Z" fill="#DCDCDC"/>
<path d="M29.3499 50.9744C29.0912 51.1477 29.0135 51.4263 28.8961 51.7048C28.7767 51.9879 28.6669 52.2742 28.5668 52.5649C28.4654 52.8614 28.355 53.1644 28.2889 53.4712C28.2363 53.7125 28.1458 54.0425 28.2408 54.2767C28.2863 54.3884 28.3974 54.4173 28.4924 54.3428C28.692 54.1862 28.7812 53.864 28.8743 53.6323C28.9782 53.3749 29.0642 53.1105 29.1682 52.8531C29.2761 52.5874 29.3922 52.3249 29.5116 52.0643C29.6316 51.8024 29.8325 51.5341 29.8114 51.2389C29.7959 51.0232 29.5572 50.8351 29.3499 50.9738V50.9744Z" fill="#1E1E22"/>
<path d="M30.5336 49.2645C30.2384 49.1272 30.0432 49.4134 29.9482 49.6471C29.9181 49.7209 29.8905 49.796 29.8661 49.8717C29.8276 49.9892 29.816 50.0745 29.8751 50.1907C29.911 50.2607 29.9893 50.2748 30.0586 50.2652C30.1806 50.2485 30.2339 50.1715 30.3167 50.0919C30.3783 50.0328 30.4315 49.9924 30.4932 49.9436C30.5933 49.8647 30.6832 49.7889 30.7165 49.658C30.7576 49.4975 30.6832 49.3345 30.5342 49.2652L30.5336 49.2645Z" fill="#1E1E22"/>
<path d="M39.0829 64.1207C39.2947 64.55 39.5033 65.0096 39.6593 65.4788C39.8499 66.052 40.4879 65.6829 40.2639 65.1418C40.0136 64.5378 39.7203 64.0783 39.2768 63.7471C39.097 63.6129 38.9879 63.9268 39.0829 64.12V64.1207Z" fill="#1E1E22"/>
<path d="M21.4088 56.5417C21.6616 56.5 21.9062 56.4275 22.161 56.3928C22.4158 56.3582 22.6732 56.3755 22.9184 56.3145C23.1636 56.2536 23.1674 55.8729 22.9184 55.812C22.4088 55.6868 21.6835 55.8742 21.238 56.1367C21.0095 56.2715 21.1713 56.5815 21.4088 56.5417Z" fill="#1E1E22"/>
<path d="M6.6325 34.3553C7.73636 34.3553 8.63121 33.4605 8.63121 32.3566C8.63121 31.2528 7.73636 30.3579 6.6325 30.3579C5.52864 30.3579 4.63379 31.2528 4.63379 32.3566C4.63379 33.4605 5.52864 34.3553 6.6325 34.3553Z" fill="white"/>
<path d="M6.93472 34.3323C8.02586 34.1654 8.7749 33.1448 8.60802 32.0537C8.48735 31.2662 7.92317 30.6577 7.20815 30.442C7.65552 31.4946 7.53613 32.8643 6.26528 33.2815C5.74089 33.4536 5.3224 33.5068 4.99121 33.4972C5.4129 34.1031 6.15552 34.451 6.93472 34.3316V34.3323Z" fill="#DCDCDC"/>
<path d="M8.98066 31.9568C8.627 30.0826 6.06346 29.5101 4.82599 31.03C3.82727 32.279 4.47425 34.3663 6.06475 34.6654C8.01339 35.0319 9.27591 33.512 8.98066 31.9562V31.9568ZM8.5718 32.0595C8.76179 33.5865 6.85229 34.487 5.66231 33.677C4.36642 32.8259 4.86 30.8483 6.35743 30.5602C7.35743 30.3426 8.45178 30.9902 8.57244 32.0589L8.5718 32.0595Z" fill="#1E1E22"/>
<path d="M55.3707 37.4593C56.7022 37.4593 57.7815 36.3799 57.7815 35.0485C57.7815 33.717 56.7022 32.6377 55.3707 32.6377C54.0393 32.6377 52.96 33.717 52.96 35.0485C52.96 36.3799 54.0393 37.4593 55.3707 37.4593Z" fill="white"/>
<path d="M55.7353 37.4316C57.0511 37.2301 57.9548 35.9997 57.7533 34.6839C57.6076 33.7346 56.9272 32.9997 56.0646 32.7397C56.6044 34.0093 56.4606 35.6614 54.9272 36.1646C54.295 36.3719 53.7899 36.4368 53.3906 36.4252C53.8996 37.1556 54.795 37.5754 55.7346 37.4316H55.7353Z" fill="#DCDCDC"/>
<path d="M58.2027 34.5665C57.7759 32.3059 54.6841 31.6159 53.1918 33.449C51.9871 34.9555 52.7676 37.4734 54.6861 37.8341C57.0365 38.2764 58.5596 36.4432 58.2027 34.5671V34.5665ZM57.7098 34.6904C57.9389 36.5318 55.636 37.6185 54.2002 36.6416C52.6373 35.6153 53.2329 33.2295 55.0384 32.8829C56.2445 32.6204 57.5641 33.4015 57.7098 34.691V34.6904Z" fill="#1E1E22"/>
<path d="M49.4284 18.1616C51.0721 18.1616 52.4046 16.8291 52.4046 15.1853C52.4046 13.5416 51.0721 12.2091 49.4284 12.2091C47.7847 12.2091 46.4521 13.5416 46.4521 15.1853C46.4521 16.8291 47.7847 18.1616 49.4284 18.1616Z" fill="white"/>
<path d="M48.9849 18.1281C50.6101 18.3733 52.1267 17.2546 52.3719 15.6294C52.5491 14.4567 52.0157 13.3412 51.0947 12.7186C51.2647 14.4131 50.4894 16.3078 48.4971 16.3386C47.6755 16.3515 47.0568 16.2417 46.5908 16.0819C46.9227 17.13 47.8245 17.9535 48.9849 18.1281Z" fill="#DCDCDC"/>
<path d="M52.9446 15.6564C53.2713 12.8355 49.8798 10.8875 47.4485 12.5004C45.4761 13.8335 45.4722 17.0883 47.6012 18.2174C50.2097 19.6005 52.6776 17.9991 52.9453 15.6564H52.9446ZM52.3175 15.6217C51.9119 17.8765 48.7989 18.3123 47.4652 16.6339C45.9998 14.8509 47.5762 12.2572 49.8323 12.5107C51.3503 12.6442 52.6192 14.0486 52.3175 15.6217Z" fill="#1E1E22"/>
</g>
</g>
</g>
<defs>
<radialGradient id="paint0_radial_457_81373" cx="0" cy="0" r="1" gradientUnits="userSpaceOnUse" gradientTransform="translate(-33.6693 -0.785118) rotate(90) scale(89.0251)">
<stop offset="0.265" stop-color="#D27C71"/>
<stop offset="1" stop-color="#D27C71" stop-opacity="0"/>
</radialGradient>
<radialGradient id="paint1_radial_457_81373" cx="0" cy="0" r="1" gradientUnits="userSpaceOnUse" gradientTransform="translate(106.061 126.812) rotate(90) scale(126.144)">
<stop stop-color="#B68EFF"/>
<stop offset="1" stop-color="#B68EFF" stop-opacity="0"/>
</radialGradient>
<clipPath id="clip0_457_81373">
<rect y="0.5" width="64" height="64" rx="32" fill="white"/>
</clipPath>
<clipPath id="clip1_457_81373">
<rect width="64" height="64" fill="white" transform="translate(0 0.5)"/>
</clipPath>
</defs>
</svg>
