<svg width="69" height="32" viewBox="0 0 69 32" fill="none" xmlns="http://www.w3.org/2000/svg">
<path d="M56.3068 24.923C56.2268 24.4912 56.0829 24.1634 55.875 23.9395C55.6752 23.7157 55.3673 23.6037 54.9516 23.6037C54.6797 23.6037 54.4519 23.6517 54.268 23.7477C54.0921 23.8356 53.9482 23.9475 53.8362 24.0835C53.7323 24.2194 53.6563 24.3633 53.6084 24.5152C53.5684 24.6671 53.5444 24.803 53.5364 24.923H56.3068ZM53.5364 26.0023C53.5604 26.554 53.7003 26.9538 53.9562 27.2016C54.212 27.4495 54.5798 27.5734 55.0595 27.5734C55.4033 27.5734 55.6991 27.4895 55.947 27.3216C56.1949 27.1457 56.3468 26.9618 56.4027 26.7699H57.9019C57.662 27.5135 57.2942 28.0451 56.7985 28.365C56.3028 28.6848 55.7031 28.8447 54.9995 28.8447C54.5118 28.8447 54.0721 28.7687 53.6803 28.6168C53.2886 28.4569 52.9567 28.233 52.6849 27.9452C52.4131 27.6574 52.2012 27.3136 52.0493 26.9138C51.9054 26.514 51.8334 26.0743 51.8334 25.5946C51.8334 25.1308 51.9094 24.6991 52.0613 24.2993C52.2132 23.8996 52.4291 23.5558 52.7089 23.2679C52.9887 22.9721 53.3205 22.7402 53.7043 22.5723C54.0961 22.4044 54.5278 22.3205 54.9995 22.3205C55.5272 22.3205 55.987 22.4244 56.3787 22.6323C56.7705 22.8322 57.0903 23.104 57.3382 23.4478C57.594 23.7916 57.7779 24.1834 57.8899 24.6231C58.0018 25.0629 58.0418 25.5226 58.0098 26.0023H53.5364Z" fill="#1E1E22"/>
<path d="M48.0106 22.4693H49.6297V23.6206H49.6537C49.7336 23.4287 49.8416 23.2529 49.9775 23.0929C50.1134 22.925 50.2693 22.7851 50.4452 22.6732C50.6211 22.5533 50.809 22.4613 51.0089 22.3974C51.2088 22.3334 51.4166 22.3014 51.6325 22.3014C51.7444 22.3014 51.8684 22.3214 52.0043 22.3614V23.9444C51.9243 23.9285 51.8284 23.9165 51.7165 23.9085C51.6045 23.8925 51.4966 23.8845 51.3927 23.8845C51.0808 23.8845 50.817 23.9365 50.6011 24.0404C50.3852 24.1443 50.2093 24.2882 50.0734 24.4721C49.9455 24.648 49.8536 24.8559 49.7976 25.0958C49.7416 25.3356 49.7136 25.5955 49.7136 25.8753V28.6697H48.0106V22.4693Z" fill="#1E1E22"/>
<path d="M45.9401 24.9039C45.8601 24.4721 45.7162 24.1443 45.5083 23.9205C45.3084 23.6966 45.0006 23.5847 44.5849 23.5847C44.313 23.5847 44.0851 23.6326 43.9013 23.7286C43.7254 23.8165 43.5814 23.9285 43.4695 24.0644C43.3656 24.2003 43.2896 24.3442 43.2416 24.4961C43.2017 24.648 43.1777 24.784 43.1697 24.9039H45.9401ZM43.1697 25.9833C43.1937 26.5349 43.3336 26.9347 43.5894 27.1826C43.8453 27.4304 44.2131 27.5543 44.6928 27.5543C45.0366 27.5543 45.3324 27.4704 45.5803 27.3025C45.8281 27.1266 45.98 26.9427 46.036 26.7508H47.5351C47.2953 27.4944 46.9275 28.0261 46.4318 28.3459C45.9361 28.6657 45.3364 28.8256 44.6328 28.8256C44.1451 28.8256 43.7054 28.7496 43.3136 28.5977C42.9218 28.4378 42.59 28.214 42.3182 27.9261C42.0463 27.6383 41.8345 27.2945 41.6826 26.8947C41.5386 26.495 41.4667 26.0552 41.4667 25.5755C41.4667 25.1118 41.5426 24.68 41.6945 24.2803C41.8465 23.8805 42.0623 23.5367 42.3422 23.2489C42.622 22.953 42.9538 22.7212 43.3376 22.5533C43.7294 22.3854 44.1611 22.3014 44.6328 22.3014C45.1605 22.3014 45.6203 22.4053 46.012 22.6132C46.4038 22.8131 46.7236 23.085 46.9715 23.4287C47.2273 23.7725 47.4112 24.1643 47.5231 24.6041C47.6351 25.0438 47.6751 25.5035 47.6431 25.9833H43.1697Z" fill="#1E1E22"/>
<path d="M35.2999 20.1067H37.0029V23.3328H37.0388C37.2547 22.973 37.5306 22.7132 37.8664 22.5533C38.2022 22.3854 38.53 22.3014 38.8498 22.3014C39.3055 22.3014 39.6773 22.3654 39.9651 22.4933C40.261 22.6132 40.4928 22.7851 40.6607 23.009C40.8286 23.2249 40.9446 23.4927 41.0085 23.8125C41.0805 24.1243 41.1165 24.4721 41.1165 24.8559V28.6697H39.4135V25.1677C39.4135 24.656 39.3335 24.2763 39.1736 24.0284C39.0137 23.7725 38.7299 23.6446 38.3221 23.6446C37.8584 23.6446 37.5226 23.7845 37.3147 24.0644C37.1068 24.3362 37.0029 24.788 37.0029 25.4196V28.6697H35.2999V20.1067Z" fill="#1E1E22"/>
<path d="M31.7409 27.5543C32.0207 27.5543 32.2526 27.4984 32.4364 27.3864C32.6283 27.2745 32.7802 27.1306 32.8922 26.9547C33.0121 26.7708 33.0961 26.5589 33.144 26.3191C33.192 26.0792 33.216 25.8353 33.216 25.5875C33.216 25.3396 33.188 25.0958 33.132 24.8559C33.0841 24.6161 33.0001 24.4042 32.8802 24.2203C32.7603 24.0284 32.6044 23.8765 32.4125 23.7646C32.2286 23.6446 32.0007 23.5847 31.7289 23.5847C31.449 23.5847 31.2132 23.6446 31.0213 23.7646C30.8374 23.8765 30.6855 24.0244 30.5655 24.2083C30.4536 24.3922 30.3737 24.6041 30.3257 24.8439C30.2777 25.0838 30.2537 25.3316 30.2537 25.5875C30.2537 25.8353 30.2777 26.0792 30.3257 26.3191C30.3816 26.5589 30.4656 26.7708 30.5775 26.9547C30.6975 27.1306 30.8534 27.2745 31.0453 27.3864C31.2371 27.4984 31.469 27.5543 31.7409 27.5543ZM28.6107 22.4693H30.2297V23.2608H30.2537C30.4616 22.925 30.7254 22.6812 31.0453 22.5293C31.3651 22.3774 31.7169 22.3014 32.1006 22.3014C32.5884 22.3014 33.0081 22.3934 33.3599 22.5772C33.7117 22.7611 34.0035 23.005 34.2354 23.3088C34.4673 23.6126 34.6392 23.9684 34.7511 24.3762C34.863 24.776 34.919 25.1957 34.919 25.6355C34.919 26.0512 34.863 26.451 34.7511 26.8348C34.6392 27.2185 34.4673 27.5583 34.2354 27.8542C34.0115 28.15 33.7277 28.3859 33.3839 28.5618C33.0481 28.7376 32.6523 28.8256 32.1966 28.8256C31.8128 28.8256 31.457 28.7496 31.1292 28.5977C30.8094 28.4378 30.5456 28.206 30.3377 27.9021H30.3137V30.8404H28.6107V22.4693Z" fill="#1E1E22"/>
<path d="M22.9279 25.8273C22.9279 26.1152 22.9799 26.359 23.0838 26.5589C23.1877 26.7588 23.3237 26.9227 23.4916 27.0506C23.6675 27.1706 23.8713 27.2625 24.1032 27.3265C24.3351 27.3824 24.5749 27.4104 24.8228 27.4104C24.9907 27.4104 25.1706 27.3984 25.3625 27.3744C25.5544 27.3425 25.7343 27.2865 25.9022 27.2065C26.0701 27.1266 26.21 27.0187 26.3219 26.8827C26.4338 26.7388 26.4898 26.5589 26.4898 26.343C26.4898 26.1112 26.4139 25.9233 26.2619 25.7794C26.118 25.6355 25.9261 25.5155 25.6863 25.4196C25.4464 25.3236 25.1746 25.2397 24.8708 25.1677C24.5669 25.0958 24.2591 25.0158 23.9473 24.9279C23.6275 24.8479 23.3157 24.752 23.0118 24.64C22.708 24.5201 22.4362 24.3682 22.1963 24.1843C21.9565 24.0004 21.7606 23.7725 21.6087 23.5007C21.4647 23.2209 21.3928 22.8851 21.3928 22.4933C21.3928 22.0536 21.4847 21.6738 21.6686 21.354C21.8605 21.0262 22.1084 20.7543 22.4122 20.5384C22.716 20.3226 23.0598 20.1627 23.4436 20.0587C23.8274 19.9548 24.2111 19.9028 24.5949 19.9028C25.0427 19.9028 25.4704 19.9548 25.8782 20.0587C26.2939 20.1547 26.6617 20.3146 26.9815 20.5384C27.3013 20.7623 27.5532 21.0501 27.7371 21.4019C27.929 21.7457 28.0249 22.1655 28.0249 22.6612H26.202C26.186 22.4053 26.13 22.1935 26.0341 22.0256C25.9461 21.8577 25.8262 21.7257 25.6743 21.6298C25.5224 21.5339 25.3465 21.4659 25.1466 21.4259C24.9547 21.3859 24.7428 21.366 24.511 21.366C24.3591 21.366 24.2071 21.3819 24.0552 21.4139C23.9033 21.4459 23.7634 21.5019 23.6355 21.5818C23.5155 21.6618 23.4156 21.7617 23.3357 21.8817C23.2557 22.0016 23.2157 22.1535 23.2157 22.3374C23.2157 22.5053 23.2477 22.6412 23.3117 22.7451C23.3756 22.8491 23.4996 22.945 23.6834 23.033C23.8753 23.1209 24.1352 23.2089 24.463 23.2968C24.7988 23.3848 25.2345 23.4967 25.7702 23.6326C25.9301 23.6646 26.15 23.7246 26.4298 23.8125C26.7177 23.8925 27.0015 24.0244 27.2813 24.2083C27.5612 24.3922 27.801 24.64 28.0009 24.9519C28.2088 25.2557 28.3127 25.6475 28.3127 26.1272C28.3127 26.5189 28.2368 26.8827 28.0849 27.2185C27.933 27.5543 27.7051 27.8462 27.4013 28.094C27.1054 28.3339 26.7337 28.5218 26.2859 28.6577C25.8462 28.7936 25.3345 28.8616 24.7508 28.8616C24.2791 28.8616 23.8194 28.8016 23.3716 28.6817C22.9319 28.5697 22.5401 28.3899 22.1963 28.142C21.8605 27.8941 21.5927 27.5783 21.3928 27.1946C21.1929 26.8108 21.097 26.355 21.105 25.8273H22.9279Z" fill="#1E1E22"/>
<path d="M63.4378 11.3862H65.016V12.5084H65.0393C65.1173 12.3214 65.2225 12.1499 65.355 11.9941C65.4875 11.8304 65.6394 11.694 65.8109 11.5849C65.9824 11.468 66.1655 11.3784 66.3603 11.316C66.5552 11.2537 66.7578 11.2225 66.9682 11.2225C67.0774 11.2225 67.1982 11.242 67.3306 11.281V12.8241C67.2527 12.8085 67.1592 12.7968 67.0501 12.789C66.941 12.7734 66.8358 12.7656 66.7344 12.7656C66.4305 12.7656 66.1733 12.8163 65.9629 12.9176C65.7524 13.0189 65.581 13.1592 65.4485 13.3384C65.3238 13.5099 65.2342 13.7125 65.1796 13.9463C65.1251 14.1801 65.0978 14.4334 65.0978 14.7062V17.4301H63.4378V11.3862Z" fill="#1E1E22"/>
<path d="M61.4195 13.7593C61.3415 13.3384 61.2012 13.0189 60.9986 12.8007C60.8038 12.5825 60.5037 12.4734 60.0985 12.4734C59.8335 12.4734 59.6114 12.5201 59.4321 12.6136C59.2607 12.6994 59.1204 12.8085 59.0113 12.941C58.9099 13.0735 58.8359 13.2137 58.7891 13.3618C58.7502 13.5099 58.7268 13.6424 58.719 13.7593H61.4195ZM58.719 14.8114C58.7424 15.3492 58.8788 15.7389 59.1282 15.9805C59.3776 16.2221 59.7361 16.3429 60.2037 16.3429C60.5388 16.3429 60.8272 16.261 61.0688 16.0974C61.3104 15.9259 61.4584 15.7466 61.513 15.5596H62.9743C62.7405 16.2844 62.382 16.8027 61.8988 17.1144C61.4156 17.4262 60.8311 17.582 60.1452 17.582C59.6698 17.582 59.2412 17.508 58.8593 17.3599C58.4774 17.204 58.154 16.9858 57.889 16.7053C57.624 16.4247 57.4175 16.0896 57.2694 15.6999C57.1291 15.3102 57.059 14.8816 57.059 14.414C57.059 13.9619 57.133 13.5411 57.2811 13.1514C57.4292 12.7617 57.6396 12.4266 57.9124 12.146C58.1852 11.8577 58.5086 11.6317 58.8827 11.468C59.2645 11.3043 59.6854 11.2225 60.1452 11.2225C60.6596 11.2225 61.1077 11.3238 61.4896 11.5264C61.8715 11.7213 62.1832 11.9863 62.4248 12.3214C62.6742 12.6565 62.8535 13.0384 62.9626 13.467C63.0717 13.8957 63.1107 14.3438 63.0795 14.8114H58.719Z" fill="#1E1E22"/>
<path d="M55.1699 13.7593C55.092 13.3384 54.9517 13.0189 54.7491 12.8007C54.5543 12.5825 54.2542 12.4734 53.8489 12.4734C53.584 12.4734 53.3618 12.5201 53.1826 12.6136C53.0111 12.6994 52.8709 12.8085 52.7617 12.941C52.6604 13.0735 52.5864 13.2137 52.5396 13.3618C52.5007 13.5099 52.4773 13.6424 52.4695 13.7593H55.1699ZM52.4695 14.8114C52.4929 15.3492 52.6293 15.7389 52.8786 15.9805C53.128 16.2221 53.4865 16.3429 53.9542 16.3429C54.2893 16.3429 54.5776 16.261 54.8192 16.0974C55.0608 15.9259 55.2089 15.7466 55.2635 15.5596H56.7248C56.491 16.2844 56.1325 16.8027 55.6493 17.1144C55.1661 17.4262 54.5815 17.582 53.8957 17.582C53.4203 17.582 52.9917 17.508 52.6098 17.3599C52.2279 17.204 51.9045 16.9858 51.6395 16.7053C51.3745 16.4247 51.168 16.0896 51.0199 15.6999C50.8796 15.3102 50.8095 14.8816 50.8095 14.414C50.8095 13.9619 50.8835 13.5411 51.0316 13.1514C51.1797 12.7617 51.3901 12.4266 51.6629 12.146C51.9356 11.8577 52.2591 11.6317 52.6332 11.468C53.015 11.3043 53.4359 11.2225 53.8957 11.2225C54.4101 11.2225 54.8582 11.3238 55.2401 11.5264C55.622 11.7213 55.9337 11.9863 56.1753 12.3214C56.4247 12.6565 56.604 13.0384 56.7131 13.467C56.8222 13.8957 56.8611 14.3438 56.83 14.8114H52.4695Z" fill="#1E1E22"/>
<path d="M46.9539 11.3862H48.5321V12.5084H48.5555C48.6334 12.3214 48.7386 12.1499 48.8711 11.9941C49.0036 11.8304 49.1556 11.694 49.327 11.5849C49.4985 11.468 49.6816 11.3784 49.8765 11.316C50.0713 11.2537 50.2739 11.2225 50.4844 11.2225C50.5935 11.2225 50.7143 11.242 50.8468 11.281V12.8241C50.7688 12.8085 50.6753 12.7968 50.5662 12.789C50.4571 12.7734 50.3519 12.7656 50.2505 12.7656C49.9466 12.7656 49.6894 12.8163 49.479 12.9176C49.2686 13.0189 49.0971 13.1592 48.9646 13.3384C48.8399 13.5099 48.7503 13.7125 48.6957 13.9463C48.6412 14.1801 48.6139 14.4334 48.6139 14.7062V17.4301H46.9539V11.3862Z" fill="#1E1E22"/>
<path d="M40.7972 13.2449C40.8206 12.8552 40.918 12.5318 41.0895 12.2746C41.2609 12.0174 41.4791 11.8109 41.7441 11.655C42.0091 11.4992 42.3053 11.3901 42.6326 11.3277C42.9677 11.2576 43.3028 11.2225 43.638 11.2225C43.9419 11.2225 44.2498 11.2459 44.5615 11.2926C44.8732 11.3316 45.1577 11.4134 45.4149 11.5381C45.6721 11.6628 45.8825 11.8382 46.0462 12.0642C46.2098 12.2824 46.2917 12.5747 46.2917 12.941V16.0857C46.2917 16.3584 46.3072 16.6195 46.3384 16.8689C46.3696 17.1183 46.4241 17.3054 46.5021 17.4301H44.8187C44.7875 17.3365 44.7602 17.243 44.7368 17.1495C44.7213 17.0482 44.7096 16.9469 44.7018 16.8455C44.4368 17.1183 44.1251 17.3093 43.7666 17.4184C43.408 17.5275 43.0418 17.582 42.6677 17.582C42.3793 17.582 42.1104 17.547 41.861 17.4768C41.6116 17.4067 41.3934 17.2976 41.2064 17.1495C41.0193 17.0014 40.8713 16.8144 40.7621 16.5884C40.6608 16.3623 40.6102 16.0935 40.6102 15.7817C40.6102 15.4388 40.6686 15.1582 40.7855 14.94C40.9102 14.714 41.0661 14.5348 41.2531 14.4023C41.448 14.2698 41.6662 14.1724 41.9078 14.11C42.1572 14.0399 42.4066 13.9853 42.656 13.9463C42.9054 13.9074 43.1509 13.8762 43.3925 13.8528C43.6341 13.8294 43.8484 13.7944 44.0354 13.7476C44.2225 13.7008 44.3706 13.6346 44.4797 13.5489C44.5888 13.4553 44.6394 13.3229 44.6316 13.1514C44.6316 12.9721 44.6005 12.8319 44.5381 12.7306C44.4836 12.6214 44.4056 12.5396 44.3043 12.4851C44.2108 12.4227 44.0978 12.3837 43.9653 12.3682C43.8406 12.3448 43.7042 12.3331 43.5561 12.3331C43.2288 12.3331 42.9716 12.4032 42.7846 12.5435C42.5975 12.6838 42.4884 12.9176 42.4572 13.2449H40.7972ZM44.6316 14.4724C44.5615 14.5348 44.4719 14.5854 44.3628 14.6244C44.2614 14.6556 44.1484 14.6828 44.0237 14.7062C43.9068 14.7296 43.7821 14.7491 43.6496 14.7647C43.5172 14.7803 43.3847 14.7997 43.2522 14.8231C43.1275 14.8465 43.0028 14.8777 42.8781 14.9166C42.7612 14.9556 42.656 15.0102 42.5625 15.0803C42.4767 15.1427 42.4066 15.2245 42.352 15.3258C42.2975 15.4271 42.2702 15.5557 42.2702 15.7116C42.2702 15.8597 42.2975 15.9844 42.352 16.0857C42.4066 16.187 42.4806 16.2688 42.5741 16.3312C42.6677 16.3857 42.7768 16.4247 42.9015 16.4481C43.0262 16.4714 43.1548 16.4831 43.2872 16.4831C43.6146 16.4831 43.8679 16.4286 44.0471 16.3195C44.2264 16.2104 44.3589 16.0818 44.4446 15.9337C44.5303 15.7778 44.581 15.622 44.5966 15.4661C44.6199 15.3102 44.6316 15.1855 44.6316 15.092V14.4724Z" fill="#1E1E22"/>
<path d="M38.5686 11.8888C38.5374 11.6784 38.4673 11.4875 38.3582 11.316C38.249 11.1368 38.1127 10.9809 37.949 10.8484C37.7853 10.7159 37.5983 10.6146 37.3879 10.5445C37.1852 10.4665 36.9709 10.4276 36.7449 10.4276C36.3318 10.4276 35.9811 10.5094 35.6928 10.6731C35.4044 10.8289 35.1706 11.0433 34.9914 11.316C34.8121 11.581 34.6796 11.885 34.5939 12.2279C34.5159 12.5708 34.477 12.9254 34.477 13.2917C34.477 13.6424 34.5159 13.9853 34.5939 14.3204C34.6796 14.6478 34.8121 14.9439 34.9914 15.2089C35.1706 15.4739 35.4044 15.6882 35.6928 15.8519C35.9811 16.0077 36.3318 16.0857 36.7449 16.0857C37.306 16.0857 37.7425 15.9142 38.0542 15.5713C38.3737 15.2284 38.5686 14.7764 38.6387 14.2152H40.4157C40.3689 14.7374 40.2481 15.2089 40.0533 15.6297C39.8584 16.0506 39.6012 16.4091 39.2817 16.7053C38.9622 17.0014 38.5881 17.2274 38.1594 17.3833C37.7308 17.5392 37.2593 17.6171 36.7449 17.6171C36.1058 17.6171 35.5291 17.508 35.0147 17.2898C34.5082 17.0638 34.0795 16.7559 33.7288 16.3662C33.3781 15.9766 33.1092 15.5206 32.9222 14.9985C32.7351 14.4685 32.6416 13.8996 32.6416 13.2917C32.6416 12.6682 32.7351 12.0915 32.9222 11.5615C33.1092 11.0238 33.3781 10.5562 33.7288 10.1587C34.0795 9.76121 34.5082 9.44947 35.0147 9.22346C35.5291 8.99745 36.1058 8.88444 36.7449 8.88444C37.2047 8.88444 37.6373 8.95069 38.0425 9.08318C38.4556 9.21567 38.8219 9.4105 39.1414 9.66769C39.4687 9.91708 39.7376 10.2288 39.948 10.6029C40.1585 10.977 40.291 11.4056 40.3455 11.8888H38.5686Z" fill="#1E1E22"/>
<path fill-rule="evenodd" clip-rule="evenodd" d="M3.11032 13.4791C4.30116 13.4791 5.26653 14.4445 5.26653 15.6353C5.26653 16.97 5.52942 18.2916 6.04018 19.5247C6.55095 20.7578 7.29959 21.8783 8.24336 22.822C9.18713 23.7658 10.3075 24.5144 11.5406 25.0252C12.7737 25.536 14.0954 25.7988 15.43 25.7988C16.6209 25.7988 17.5863 26.7642 17.5863 27.9551C17.5863 29.1459 16.6209 30.1113 15.43 30.1113C13.529 30.1113 11.6466 29.7368 9.89034 29.0094C8.13404 28.2819 6.53822 27.2156 5.19401 25.8714C3.84979 24.5272 2.7835 22.9313 2.05602 21.175C1.32853 19.4187 0.954102 17.5363 0.954102 15.6353C0.954102 14.4445 1.91947 13.4791 3.11032 13.4791Z" fill="#1E1E22"/>
<path fill-rule="evenodd" clip-rule="evenodd" d="M27.7503 17.7918C26.5594 17.7918 25.5941 16.8264 25.5941 15.6355C25.5941 14.3009 25.3312 12.9792 24.8204 11.7461C24.3096 10.513 23.561 9.39262 22.6172 8.44885C21.6735 7.50508 20.553 6.75645 19.3199 6.24568C18.0869 5.73492 16.7652 5.47203 15.4305 5.47203C14.2397 5.47203 13.2743 4.50666 13.2743 3.31581C13.2743 2.12497 14.2397 1.1596 15.4305 1.1596C17.3315 1.1596 19.2139 1.53403 20.9702 2.26151C22.7265 2.989 24.3224 4.05529 25.6666 5.39951C27.0108 6.74372 28.0771 8.33954 28.8046 10.0958C29.5321 11.8521 29.9065 13.7345 29.9065 15.6355C29.9065 16.8264 28.9411 17.7918 27.7503 17.7918Z" fill="#1E1E22"/>
<path fill-rule="evenodd" clip-rule="evenodd" d="M15.4299 24.8866C16.6208 24.8866 17.5862 23.9212 17.5862 22.7304C17.5862 21.5395 16.6208 20.5741 15.4299 20.5741C14.4531 20.5741 13.4983 20.2845 12.6861 19.7418C11.8739 19.1991 11.2409 18.4278 10.8671 17.5253C10.4933 16.6229 10.3955 15.6299 10.586 14.6718C10.7766 13.7138 11.247 12.8338 11.9377 12.1431C12.6284 11.4524 13.5084 10.982 14.4664 10.7914C15.4245 10.6009 16.4175 10.6987 17.3199 11.0725C18.2224 11.4463 18.9937 12.0793 19.5364 12.8915C20.0791 13.7037 20.3687 14.6585 20.3687 15.6353C20.3687 16.8262 21.3341 17.7916 22.525 17.7916C23.7158 17.7916 24.6812 16.8262 24.6812 15.6353C24.6812 13.8056 24.1386 12.017 23.1221 10.4956C22.1055 8.97428 20.6607 7.78852 18.9702 7.08832C17.2798 6.38811 15.4197 6.20491 13.6251 6.56187C11.8305 6.91883 10.1821 7.79992 8.88833 9.09373C7.59452 10.3875 6.71343 12.036 6.35646 13.8305C5.9995 15.6251 6.18271 17.4852 6.88291 19.1756C7.58312 20.8661 8.76887 22.3109 10.2902 23.3275C11.8116 24.344 13.6002 24.8866 15.4299 24.8866ZM14.746 21.9592C15.167 21.5382 15.8496 21.5382 16.2706 21.9592C16.2961 21.9847 16.3199 22.0109 16.342 22.0378C16.6903 22.4606 16.6662 23.0883 16.2706 23.4839C15.875 23.8795 15.2474 23.9035 14.8246 23.5553C14.7977 23.5331 14.7714 23.5093 14.746 23.4839C14.3249 23.0628 14.3249 22.3802 14.746 21.9592Z" fill="#1E1E22"/>
</svg>
