<svg width="96" height="96" viewBox="0 0 96 96" fill="none" xmlns="http://www.w3.org/2000/svg">
<g clip-path="url(#clip0_2291_9265)">
<rect width="96" height="96" rx="48" fill="#8B47F4"/>
<mask id="mask0_2291_9265" style="mask-type:alpha" maskUnits="userSpaceOnUse" x="0" y="0" width="96" height="96">
<circle cx="48" cy="48" r="48" fill="#8B47F4"/>
</mask>
<g mask="url(#mask0_2291_9265)">
<circle cx="-50.5034" cy="-1.92773" r="133.538" fill="url(#paint0_radial_2291_9265)"/>
<circle cx="159.091" cy="189.468" r="189.216" fill="url(#paint1_radial_2291_9265)"/>
</g>
<g clip-path="url(#clip1_2291_9265)">
<path d="M70.8426 72.4556C70.8426 72.4556 68.6444 74.0142 68.9299 75.9147C69.2154 77.8153 70.7306 78.0726 75.6939 78.351C81.783 78.692 84.2223 77.0355 82.0756 73.4795C79.9288 69.9235 70.8426 72.4566 70.8426 72.4566V72.4556Z" fill="#1E1E22"/>
<path d="M60.0068 96.5697C60.0068 96.5697 61.3223 86.3879 63.5144 83.4654C65.7066 80.5429 68.045 77.571 72.868 76.9375C77.6911 76.304 84.8526 77.1806 87.6288 83.1245C90.406 89.0683 90.7954 95.5468 90.9417 97.2033L60.0068 96.5697Z" fill="#1E1E22"/>
<path d="M59.1807 23.6043L60.0482 25.2819L63.6628 25.629C63.6628 25.629 65.2012 16.9694 72.1508 14.5776C79.1004 12.1847 90.9568 12.7143 93.9439 24.0996L96.8745 21.8127C96.8745 21.8127 90.3233 11.1033 81.8918 10.6473C73.4602 10.1913 63.3006 10.1873 59.1807 23.6053V23.6043Z" fill="#DCDCDC"/>
<path d="M97.0772 21.6889C96.5274 20.8253 95.9322 20.0143 95.3078 19.2163C92.1866 15.3375 88.2149 11.5524 83.1477 10.6233C82.149 10.4508 81.1301 10.4498 80.1213 10.4034C69.5087 9.9192 62.4229 12.878 59.1504 23.6076L59.9877 25.3135C59.9968 25.3327 60.0159 25.3468 60.0391 25.3498C60.0412 25.3498 63.6476 25.7553 63.6496 25.7564C63.7142 25.7644 63.7767 25.717 63.7868 25.6524C64.9026 20.7638 68.043 15.7844 73.1808 14.5476C77.8324 13.2815 83.1528 13.3592 87.4422 15.7319C89.8805 17.119 91.7245 19.1891 92.8473 21.7615C92.919 21.9209 93.04 22.1852 93.0965 22.3476L93.3174 22.9458C93.4556 23.306 93.5797 23.7993 93.7008 24.1756C93.7492 24.343 93.9631 24.4106 94.0993 24.3007C94.1013 24.2956 97.0238 22.0016 97.0248 21.9966C97.1176 21.9229 97.1408 21.7908 97.0762 21.6889H97.0772ZM93.5303 22.0016C93.1359 21.0342 92.6597 20.099 92.0736 19.2294L91.6913 18.6887C91.5046 18.4365 91.2615 18.1611 91.0678 17.9149C90.9589 17.7969 90.7218 17.5498 90.6138 17.4317C90.2608 17.0595 89.7887 16.6378 89.3841 16.3221C89.1551 16.1243 88.8293 15.9084 88.5831 15.7329C83.9951 12.6652 77.8667 12.535 72.7117 14.1057C71.9823 14.3387 71.2409 14.6121 70.569 14.9824C66.6821 17.0756 64.4456 21.3015 63.5599 25.4941C63.35 25.4769 60.1562 25.2237 60.0886 25.2187C60.0533 25.1541 59.2089 23.6026 59.2089 23.6026C62.5975 12.9839 69.5521 10.1643 80.1072 10.7242C81.0999 10.7777 82.1077 10.7847 83.0882 10.9613C88.0485 11.9116 91.9122 15.6663 94.9487 19.4957C95.5136 20.2281 96.0604 20.9847 96.5557 21.7575L94.0811 23.6722C93.9964 23.3685 93.9106 23.0417 93.8077 22.7764C93.728 22.5635 93.6201 22.2407 93.5293 22.0016H93.5303Z" fill="#1E1E22"/>
<path d="M57.1991 45.6549C63.628 45.6549 68.8397 40.6926 68.8397 34.5712C68.8397 28.4499 63.628 23.4875 57.1991 23.4875C50.7702 23.4875 45.5586 28.4499 45.5586 34.5712C45.5586 40.6926 50.7702 45.6549 57.1991 45.6549Z" fill="#1E1E22"/>
<path d="M99.7401 62.5926H90.1505C88.2418 62.5926 86.3291 62.5593 84.4195 62.5694C84.2116 60.6869 82.6167 59.2222 80.6798 59.2222C78.6017 59.2222 76.916 60.9069 76.916 62.986C76.916 65.0651 78.6007 66.7498 80.6798 66.7498C82.0114 66.7498 83.1807 66.0578 83.8495 65.0147H99.1893C99.2276 65.0147 100.012 64.9875 100.978 64.9532C101.293 64.1491 101.568 63.3118 101.805 62.4503C100.775 62.53 99.9106 62.5936 99.7401 62.5936V62.5926Z" fill="#DCDCDC"/>
<path d="M50.5644 50.4427C50.2073 50.0725 49.6181 50.0513 49.1349 49.9676C48.5327 49.8626 47.9254 49.8001 47.3191 49.7254C46.7128 49.6508 46.1539 49.5943 45.5718 49.5247C45.0109 49.4581 44.3058 49.2442 43.763 49.4248C43.2597 49.5913 43.1719 50.244 43.6178 50.5335C44.0788 50.8321 44.7446 50.8028 45.2803 50.8644C45.8946 50.935 46.509 51.0066 47.1244 51.0611C47.7054 51.1136 48.2905 51.168 48.8736 51.1721C49.378 51.1751 50.0721 51.2719 50.4978 50.9542C50.6663 50.8291 50.7228 50.6061 50.5634 50.4417L50.5644 50.4427Z" fill="#1E1E22"/>
<path d="M50.5302 53.1433C50.0903 52.9194 49.595 52.9718 49.1118 52.9587C48.5458 52.9446 47.9769 52.9648 47.4119 52.9758C46.276 52.996 45.1431 53.0152 44.0072 52.993C43.2728 52.9789 43.2718 54.1279 44.0072 54.135C45.1411 54.145 46.2791 54.144 47.4119 54.0815C47.9234 54.0532 48.4399 54.0169 48.9474 53.9524C49.4548 53.8878 50.0994 53.8676 50.5302 53.5529C50.6633 53.456 50.7037 53.2311 50.5302 53.1423V53.1433Z" fill="#1E1E22"/>
<path d="M50.756 56.0463C50.6147 55.6065 50.075 55.5793 49.6765 55.547C49.0733 55.4985 48.471 55.546 47.8688 55.6004C46.6592 55.7104 45.4719 55.9081 44.2522 55.8365C43.4008 55.7861 43.3998 57.1217 44.2522 57.1631C45.5193 57.2236 46.7884 57.042 48.0373 56.8493C48.6375 56.7565 49.2397 56.6899 49.842 56.6082C50.0801 56.5759 50.9012 56.5013 50.755 56.0463H50.756Z" fill="#1E1E22"/>
<path d="M56.3368 33.6893C56.3368 33.6893 58.6207 24.2046 62.0385 24.2046C65.4563 24.2046 65.4563 31.8099 65.4563 31.8099L85.2813 31.7242C85.2813 31.7242 87.9304 23.7768 93.0571 23.6064C98.1838 23.4359 97.5856 33.6893 97.5856 33.6893C97.5856 33.6893 102.969 37.9051 103.054 41.9776C103.14 46.0501 104.935 64.9641 96.5596 71.2015C88.1856 77.44 66.0535 76.414 58.4482 71.2015C50.8428 65.9891 49.0482 60.7766 48.9634 56.9311C48.8777 53.0855 48.7072 42.2903 50.9286 39.3567C53.15 36.4232 56.3358 33.6883 56.3358 33.6883L56.3368 33.6893Z" fill="white"/>
<path d="M103.055 41.9789C103.047 41.5955 102.991 41.2112 102.898 40.8298H102.899C102.896 40.8157 102.892 40.8006 102.888 40.7865C102.884 40.7683 102.879 40.7511 102.874 40.733C102.852 40.6462 102.827 40.5585 102.8 40.4717C102.796 40.4596 102.792 40.4475 102.789 40.4354C102.763 40.3507 102.735 40.2669 102.705 40.1832C102.701 40.1731 102.698 40.162 102.694 40.1519C102.663 40.0652 102.631 39.9784 102.596 39.8927C102.589 39.8755 102.582 39.8574 102.575 39.8402C102.541 39.7565 102.506 39.6727 102.469 39.59C102.461 39.5719 102.453 39.5537 102.445 39.5355C102.407 39.4518 102.368 39.3681 102.327 39.2844C102.32 39.2702 102.313 39.2571 102.307 39.243C102.267 39.1623 102.226 39.0826 102.184 39.0019C102.179 38.9918 102.174 38.9827 102.169 38.9726C102.124 38.8889 102.078 38.8062 102.032 38.7235C102.021 38.7063 102.012 38.6892 102.002 38.672C101.957 38.5923 101.909 38.5126 101.862 38.4339C101.851 38.4158 101.84 38.3976 101.829 38.3795C101.78 38.3008 101.731 38.2221 101.68 38.1434C101.671 38.1293 101.662 38.1152 101.652 38.101C101.603 38.0254 101.552 37.9497 101.502 37.874C101.497 37.866 101.491 37.8579 101.486 37.8498C101.432 37.7712 101.378 37.6935 101.323 37.6168C101.312 37.6007 101.3 37.5845 101.289 37.5684C101.236 37.4947 101.182 37.4211 101.128 37.3485C101.115 37.3313 101.101 37.3142 101.089 37.297C101.035 37.2244 100.979 37.1517 100.924 37.0801C100.913 37.066 100.903 37.0529 100.892 37.0388C100.836 36.9681 100.781 36.8975 100.725 36.8289C100.72 36.8229 100.715 36.8158 100.709 36.8098C100.65 36.7381 100.593 36.6675 100.534 36.5969C100.522 36.5828 100.51 36.5687 100.499 36.5535C100.443 36.4859 100.386 36.4204 100.33 36.3548C100.317 36.3397 100.303 36.3245 100.29 36.3094C100.234 36.2438 100.176 36.1793 100.12 36.1157C100.109 36.1036 100.098 36.0905 100.087 36.0784C100.029 36.0138 99.9715 35.9503 99.914 35.8877L99.9009 35.8736C99.8434 35.811 99.7859 35.7485 99.7284 35.688C99.7183 35.6769 99.7072 35.6658 99.6971 35.6547C99.6406 35.5952 99.5852 35.5367 99.5297 35.4802C99.5176 35.4681 99.5065 35.456 99.4944 35.4438C99.4389 35.3874 99.3844 35.3319 99.331 35.2774C99.3209 35.2673 99.3108 35.2572 99.3007 35.2471C99.2442 35.1906 99.1887 35.1352 99.1342 35.0807C99.1322 35.0787 99.1292 35.0766 99.1272 35.0736C99.0727 35.0202 99.0192 34.9677 98.9658 34.9162C98.9587 34.9092 98.9506 34.9021 98.9436 34.8941C98.8921 34.8436 98.8407 34.7952 98.7912 34.7488C98.7822 34.7407 98.7731 34.7316 98.764 34.7236C98.7146 34.6772 98.6661 34.6318 98.6187 34.5874C98.6117 34.5803 98.6046 34.5743 98.5975 34.5682C98.5481 34.5228 98.5007 34.4784 98.4543 34.4371C98.4533 34.4371 98.4523 34.435 98.4513 34.434C98.4039 34.3907 98.3574 34.3493 98.3131 34.3089C98.31 34.3059 98.306 34.3029 98.303 34.2999C98.2586 34.2605 98.2172 34.2232 98.1759 34.1879C98.1739 34.1859 98.1718 34.1839 98.1698 34.1818C97.8117 33.8671 97.5867 33.6906 97.5867 33.6906C97.5867 33.6906 98.185 23.4361 93.0582 23.6076C91.2474 23.6681 89.7453 24.6991 88.56 26.0075C89.9965 26.0721 91.8053 26.7208 92.2038 29.9146C92.8877 35.3995 91.9344 37.869 94.3313 38.9928C95.0556 39.3318 96.3762 39.7867 97.8884 40.159C97.7724 47.3749 97.5161 60.1282 97.1277 61.6868C96.582 63.8759 97.1106 70.765 81.3309 71.9735C69.6299 72.8693 60.9138 68.8694 57.1883 66.7409C57.4547 65.4072 57.0642 64.5286 56.0786 64.8625C55.5147 65.0531 54.6421 65.1581 53.6716 65.2095L51.7227 64.8584C51.8145 64.9896 51.9103 65.1197 52.0081 65.2519C52.0142 65.2599 52.0202 65.268 52.0263 65.2751C52.0767 65.3427 52.1282 65.4103 52.1796 65.4778C52.1978 65.5021 52.217 65.5253 52.2351 65.5495C52.2785 65.606 52.3229 65.6625 52.3683 65.7189C52.3854 65.7411 52.4036 65.7633 52.4207 65.7855C52.5458 65.9419 52.6749 66.0993 52.8091 66.2566C52.8232 66.2728 52.8374 66.2899 52.8515 66.3061C52.907 66.3706 52.9635 66.4362 53.02 66.5008C53.0351 66.5179 53.0502 66.5351 53.0643 66.5522C53.2086 66.7156 53.3569 66.8791 53.5102 67.0435C53.5143 67.0475 53.5183 67.0526 53.5233 67.0566C53.597 67.1353 53.6716 67.213 53.7473 67.2917C53.7564 67.3007 53.7645 67.3098 53.7735 67.3189C54.0197 67.5731 54.2779 67.8294 54.5483 68.0856L54.5523 68.0896C55.6408 69.1216 56.9291 70.1637 58.4503 71.2068C66.0557 76.4193 88.1877 77.4452 96.5618 71.2068C104.936 64.9684 103.141 46.0554 103.056 41.9829L103.055 41.9789Z" fill="#DCDCDC"/>
<path d="M61.8786 36.5947C63.4907 36.509 65.5012 36.6431 67.4865 34.1837C67.9798 33.5723 68.4227 32.732 68.8081 31.7948L65.4558 31.809C65.4558 31.809 65.4558 24.2036 62.038 24.2036C61.3117 24.2036 60.6368 24.6334 60.0234 25.3083C60.3019 25.964 60.5379 27.0383 60.5864 28.7967C60.7185 33.5582 60.2666 36.6794 61.8786 36.5937V36.5947Z" fill="#DCDCDC"/>
<path d="M91.8369 38.005C91.8369 44.4866 96.9243 49.7636 103.271 49.9532C103.301 46.3286 103.084 43.3335 103.056 41.9787C102.97 37.9051 97.5871 33.6904 97.5871 33.6904C97.5871 33.6904 97.7586 30.7396 97.1271 28.031C93.9403 30.1707 91.8369 33.8387 91.8369 38.005Z" fill="#DCDCDC"/>
<path d="M59.5091 31.3984C59.7643 31.3813 59.8228 31.1725 59.9338 30.9687C60.1446 30.5823 60.3212 30.1768 60.5078 29.7773C60.878 28.9894 61.2563 28.2167 61.7254 27.4813C62.1118 26.876 61.1373 26.305 60.762 26.9184C60.2586 27.7426 59.7915 28.6232 59.5293 29.5574C59.4708 29.7642 59.0128 31.4327 59.5081 31.3984H59.5091Z" fill="#DCDCDC"/>
<path d="M59.181 30.7881C59.4362 30.7709 59.4947 30.5621 59.6057 30.3583C59.8165 29.972 59.993 29.5664 60.1797 29.1669C60.5499 28.3791 60.9282 27.6063 61.3973 26.8709C61.7837 26.2656 60.8092 25.6947 60.4339 26.308C59.9305 27.1322 59.4634 28.0129 59.2011 28.947C59.1426 29.1538 58.6846 30.8224 59.18 30.7881H59.181Z" fill="#1E1E22"/>
<path d="M88.3548 31.1623C88.5364 31.0503 88.6625 30.8566 88.7997 30.6962C88.948 30.5237 89.1003 30.3653 89.2789 30.2231C89.5008 30.0466 89.4635 29.6652 89.2789 29.4806C89.0902 29.292 88.721 29.2637 88.5364 29.4806C88.2166 29.8549 87.7697 30.4592 87.924 30.9868C87.9765 31.1653 88.1904 31.2632 88.3548 31.1623Z" fill="#DCDCDC"/>
<path d="M90.146 28.3419C90.4759 28.1341 90.6928 27.8355 90.9501 27.552C91.2285 27.2443 91.5997 27.0264 91.7621 26.638C91.9084 26.288 91.4948 25.9884 91.1861 26.062C90.7594 26.1639 90.4537 26.6431 90.2146 26.9841C89.9755 27.325 89.7738 27.7144 89.8111 28.1502C89.8252 28.3096 89.9927 28.4387 90.146 28.3419Z" fill="#DCDCDC"/>
<path d="M88.2073 30.6308C88.3889 30.5188 88.515 30.3251 88.6522 30.1647C88.8005 29.9922 88.9528 29.8339 89.1314 29.6916C89.3533 29.5151 89.316 29.1337 89.1314 28.9491C88.9428 28.7605 88.5735 28.7322 88.3889 28.9491C88.0691 29.3234 87.6222 29.9277 87.7766 30.4553C87.829 30.6338 88.0429 30.7317 88.2073 30.6308Z" fill="#1E1E22"/>
<path d="M89.9987 27.8102C90.3285 27.6023 90.5454 27.3037 90.8027 27.0203C91.0811 26.7126 91.4523 26.4947 91.6148 26.1063C91.761 25.7562 91.3474 25.4566 91.0387 25.5303C90.612 25.6322 90.3063 26.1113 90.0672 26.4523C89.8241 26.7983 89.6264 27.1827 89.6637 27.6185C89.6778 27.7779 89.8453 27.907 89.9987 27.8102Z" fill="#1E1E22"/>
<path d="M103.422 41.4463C102.994 38.3593 101.235 35.4046 98.9062 33.4535C98.9677 30.6914 98.4098 26.7601 96.7413 24.5287C95.8233 23.3333 93.7593 22.7461 92.2884 22.9832C90.976 23.1779 89.8149 23.8145 88.8605 24.7093C87.7317 25.7594 86.6119 27.1132 85.8886 28.46C85.4377 29.3104 84.905 30.5159 84.5782 31.4218C84.211 31.4248 66.8899 31.6256 66.5671 31.6286C66.4853 29.5858 65.7499 26.8499 64.7149 25.0744C63.9754 23.8003 61.7117 23.3363 60.4134 24.2059C58.1315 25.7302 56.6173 30.8488 55.9696 33.4485C54.977 34.2707 54.1508 35.1191 53.2348 36.026C52.2623 37.0075 51.3907 37.9518 50.5574 39.0645C50.3123 39.4055 49.9552 40.0914 49.7978 40.4788C49.4881 41.2425 49.3418 42.0152 49.1713 42.8142C48.4167 46.6517 48.5358 50.6374 48.5025 54.5314C48.5015 55.5039 48.4984 56.4945 48.5348 57.468C48.5398 57.7596 48.5943 58.1732 48.6195 58.4698C49.3902 64.3773 53.9308 68.924 58.7004 72.0623C63.0917 74.6862 69.3322 75.6647 74.3893 76.0128C81.3863 76.4234 91.5217 75.8191 97.2063 71.3723C104.585 65.2297 103.927 50.2551 103.421 41.4452L103.422 41.4463ZM102.586 55.0388C102.234 58.8319 101.57 62.6845 99.9089 66.1336C98.1909 69.8228 95.3945 71.8485 91.5399 73.0792C87.9153 74.2565 84.0465 74.7215 80.2323 74.8517C73.8677 75.0353 65.1255 74.2615 59.5105 71.1766C59.0485 70.9153 58.5743 70.5804 58.1416 70.2687C57.5322 69.8551 56.819 69.2851 56.239 68.8291C56.012 68.6304 55.3926 68.0988 55.1606 67.893C52.1654 65.1662 49.703 61.5496 49.4437 57.4125C49.4245 57.1825 49.4064 56.6882 49.3983 56.4612C49.2893 52.5985 49.25 48.7177 49.6525 44.8711C49.8048 43.5244 50.0106 42.1706 50.4273 40.8823C50.4989 40.6755 50.5968 40.4264 50.6855 40.2266C50.8106 39.9401 50.9599 39.6778 51.1455 39.4266C51.5279 38.9111 51.9294 38.4088 52.343 37.9155C53.5989 36.4366 54.9639 35.0404 56.3883 33.7229C56.8291 32.0614 57.3688 30.41 58.0528 28.8332C58.5703 27.664 59.1534 26.5049 59.9826 25.5274C60.8129 24.5297 62.0144 23.882 63.1916 24.7113C63.8635 25.2066 64.2478 26.0025 64.5263 26.7783C65.072 28.3843 65.2536 30.1205 65.2839 31.8102L65.2859 31.9817H65.4574L85.2823 31.9938H85.472C85.6515 31.4712 85.8644 30.9507 86.0974 30.4392C87.1264 28.2411 88.4711 26.0328 90.5594 24.7103C91.3694 24.216 92.3005 23.9194 93.2458 23.9284C96.711 24.0354 97.1751 29.5313 97.2386 32.1895C97.2487 32.7494 97.2406 33.3093 97.2084 33.8591L97.3597 33.9811C99.5942 35.8565 102.533 38.9434 102.648 41.987C102.822 46.3329 102.988 50.707 102.587 55.0388H102.586Z" fill="#1E1E22"/>
<path d="M72.3277 39.8422C72.3277 39.8422 68.4468 45.2191 63.8326 45.0517C59.2183 44.8842 57.9362 41.0387 59.8166 37.7913C61.697 34.544 63.5763 32.8351 68.1049 32.4084C72.6334 31.9806 83.2167 31.7244 86.6839 32.4084C90.1512 33.0923 90.4074 38.0718 87.9298 41.9052C85.4522 45.7387 78.6155 47.1621 80.4102 40.8107C80.4102 40.8107 77.8468 44.7127 74.77 44.628C71.6932 44.5432 72.3277 39.8422 72.3277 39.8422Z" fill="#DCDCDC"/>
<path d="M71.2173 38.3896C71.2173 38.3896 67.3365 43.7665 62.7222 43.599C58.108 43.4316 56.8258 39.586 58.7062 36.3387C60.5866 33.0914 62.466 31.3825 66.9945 30.9557C71.523 30.528 82.1063 30.2718 85.5736 30.9557C89.0408 31.6397 89.2971 36.6191 86.8194 40.4526C84.3418 44.286 77.5052 45.7094 79.2998 39.358C79.2998 39.358 76.7365 43.2601 73.6597 43.1753C70.5838 43.0896 71.2173 38.3896 71.2173 38.3896Z" fill="#1E1E22"/>
<path d="M78.1319 51.1115C77.8091 50.4336 76.8417 51.0257 77.1352 51.6946C77.6659 52.9041 76.6026 54.3054 75.275 53.921C74.0826 53.576 74.0685 52.4482 73.9202 51.4162C75.3154 50.7695 76.535 49.6639 76.6117 48.8044C76.7035 47.7784 75.2579 47.5978 73.2998 47.5797C71.3367 47.5615 69.6671 48.2626 70.1685 49.6265C70.6325 50.8865 71.7785 51.4232 72.6249 51.399C72.6108 51.7027 72.5956 52.0073 72.5139 52.2948C72.3455 52.892 72.0378 53.7223 71.4658 54.0511C69.9284 54.9338 68.9347 52.9505 68.9297 51.7117C68.9276 51.2013 68.2023 51.2235 68.1519 51.7117C67.9572 53.5831 69.4472 55.6339 71.4628 55.1628C72.3636 54.952 72.9306 54.144 73.2907 53.345C73.2947 53.3369 73.2978 53.3278 73.3018 53.3198C73.6549 54.3134 74.4488 55.0852 75.6836 55.1275C77.8 55.2002 78.9833 52.9021 78.1309 51.1125L78.1319 51.1115Z" fill="#DCDCDC"/>
<path d="M92.2153 55.6651C90.0192 55.304 89.539 52.3966 89.7801 50.4274C89.8759 49.6517 90.0787 48.882 90.4388 48.2393C91.1379 46.8603 92.9064 46.1168 94.1412 47.1549C95.2609 48.1132 95.4284 49.686 95.3759 51.2506C95.3164 53.2026 94.4478 55.7973 92.2426 55.6671L92.2153 55.6641V55.6651Z" fill="#DCDCDC"/>
<path d="M56.178 55.4515C55.4466 55.4777 54.6446 54.8089 54.3127 54.0089C53.7871 52.6309 54.0675 50.6486 54.3833 49.211C54.5407 48.5896 54.7707 48.0398 55.1298 47.6303C55.7522 46.913 56.865 46.5861 57.6387 47.1743C58.4346 47.8088 58.5597 49.1203 58.586 50.3197C58.5759 51.4758 58.5365 52.6591 58.1179 53.7274C57.7012 54.7019 57.0445 55.3869 56.2012 55.4525H56.179L56.178 55.4515Z" fill="#DCDCDC"/>
<path d="M61.8788 51.0205C62.349 51.0205 62.7302 50.6393 62.7302 50.1691C62.7302 49.6988 62.349 49.3176 61.8788 49.3176C61.4085 49.3176 61.0273 49.6988 61.0273 50.1691C61.0273 50.6393 61.4085 51.0205 61.8788 51.0205Z" fill="#DCDCDC"/>
<path d="M64.6958 52.1958C65.3454 52.1958 65.872 51.6692 65.872 51.0195C65.872 50.3699 65.3454 49.8433 64.6958 49.8433C64.0462 49.8433 63.5195 50.3699 63.5195 51.0195C63.5195 51.6692 64.0462 52.1958 64.6958 52.1958Z" fill="#DCDCDC"/>
<path d="M62.2601 54.4386C62.9403 54.4386 63.4918 53.8871 63.4918 53.2068C63.4918 52.5266 62.9403 51.9751 62.2601 51.9751C61.5798 51.9751 61.0283 52.5266 61.0283 53.2068C61.0283 53.8871 61.5798 54.4386 62.2601 54.4386Z" fill="#DCDCDC"/>
<path d="M82.692 52.2746C83.4447 52.2746 84.0549 51.6644 84.0549 50.9117C84.0549 50.159 83.4447 49.5488 82.692 49.5488C81.9393 49.5488 81.3291 50.159 81.3291 50.9117C81.3291 51.6644 81.9393 52.2746 82.692 52.2746Z" fill="#DCDCDC"/>
<path d="M85.7321 50.0553C86.267 50.0553 86.7006 49.6217 86.7006 49.0869C86.7006 48.552 86.267 48.1184 85.7321 48.1184C85.1973 48.1184 84.7637 48.552 84.7637 49.0869C84.7637 49.6217 85.1973 50.0553 85.7321 50.0553Z" fill="#DCDCDC"/>
<path d="M85.4331 54.4638C86.1328 54.4638 86.7001 53.8965 86.7001 53.1967C86.7001 52.497 86.1328 51.9297 85.4331 51.9297C84.7333 51.9297 84.166 52.497 84.166 53.1967C84.166 53.8965 84.7333 54.4638 85.4331 54.4638Z" fill="#DCDCDC"/>
<path d="M61.4383 50.7263C61.9086 50.7263 62.2898 50.3451 62.2898 49.8749C62.2898 49.4046 61.9086 49.0234 61.4383 49.0234C60.9681 49.0234 60.5869 49.4046 60.5869 49.8749C60.5869 50.3451 60.9681 50.7263 61.4383 50.7263Z" fill="#1E1E22"/>
<path d="M64.2544 51.9023C64.904 51.9023 65.4307 51.3757 65.4307 50.7261C65.4307 50.0764 64.904 49.5498 64.2544 49.5498C63.6048 49.5498 63.0781 50.0764 63.0781 50.7261C63.0781 51.3757 63.6048 51.9023 64.2544 51.9023Z" fill="#1E1E22"/>
<path d="M61.8187 54.1449C62.4989 54.1449 63.0504 53.5934 63.0504 52.9131C63.0504 52.2329 62.4989 51.6814 61.8187 51.6814C61.1384 51.6814 60.5869 52.2329 60.5869 52.9131C60.5869 53.5934 61.1384 54.1449 61.8187 54.1449Z" fill="#1E1E22"/>
<path d="M82.2516 51.8337C83.0043 51.8337 83.6145 51.2235 83.6145 50.4708C83.6145 49.7181 83.0043 49.1079 82.2516 49.1079C81.4989 49.1079 80.8887 49.7181 80.8887 50.4708C80.8887 51.2235 81.4989 51.8337 82.2516 51.8337Z" fill="#1E1E22"/>
<path d="M85.2897 49.6141C85.8246 49.6141 86.2582 49.1806 86.2582 48.6457C86.2582 48.1108 85.8246 47.6772 85.2897 47.6772C84.7549 47.6772 84.3213 48.1108 84.3213 48.6457C84.3213 49.1806 84.7549 49.6141 85.2897 49.6141Z" fill="#1E1E22"/>
<path d="M84.9926 54.0217C85.6924 54.0217 86.2597 53.4544 86.2597 52.7546C86.2597 52.0548 85.6924 51.4875 84.9926 51.4875C84.2928 51.4875 83.7256 52.0548 83.7256 52.7546C83.7256 53.4544 84.2928 54.0217 84.9926 54.0217Z" fill="#1E1E22"/>
<path d="M55.0705 54.392C54.3392 54.4182 53.5372 53.7555 53.2053 52.9615C52.6797 51.5956 52.9601 49.6295 53.2759 48.203C53.4333 47.5866 53.6632 47.0419 54.0224 46.6354C54.6448 45.9241 55.7575 45.5993 56.5313 46.1834C57.3272 46.8129 57.4523 48.1132 57.4785 49.3016C57.4684 50.4476 57.4291 51.6208 57.0105 52.6801C56.5938 53.6465 55.9371 54.3254 55.0937 54.39H55.0715L55.0705 54.392Z" fill="#1E1E22"/>
<path d="M55.3446 47.4265C55.3194 47.0139 55.0228 46.6093 54.6344 46.7102C53.9615 46.912 53.6205 48.2466 53.8758 48.9387C53.9857 49.2665 54.3095 49.4965 54.6162 49.3634C55.2276 49.0688 55.397 48.1246 55.3486 47.4567L55.3456 47.4255L55.3446 47.4265Z" fill="white"/>
<path d="M90.9808 54.7573C88.7393 54.379 88.249 51.3263 88.4951 49.2603C88.593 48.4462 88.7998 47.6382 89.167 46.9643C89.8812 45.5167 91.685 44.7369 92.946 45.8264C94.0889 46.8321 94.2594 48.4835 94.206 50.1249C94.1454 52.1737 93.2587 54.8975 91.0081 54.7603L90.9808 54.7573Z" fill="#1E1E22"/>
<path d="M91.1792 46.7271C90.1502 45.8283 89.3129 48.3624 89.8304 49.1644C90.0695 49.5205 90.5285 49.3833 90.7868 49.1129C91.3265 48.5773 91.622 47.4161 91.1984 46.7493L91.1792 46.7271Z" fill="white"/>
<path d="M72.4491 51.2172C72.4491 51.2172 70.1077 49.6304 69.8141 48.7457C69.3561 47.3666 70.6878 47.0438 72.6509 47.062C74.609 47.0801 76.0546 47.2617 75.9628 48.2867C75.871 49.3126 74.151 50.6876 72.4491 51.2172Z" fill="#1E1E22"/>
<path d="M70.8543 48.8587C71.3133 48.9918 71.9539 48.8556 72.4472 48.788C73.0434 48.7003 73.4106 48.0657 72.766 47.747C72.2646 47.5331 70.7282 47.6985 70.5809 48.3331C70.5163 48.5328 70.6394 48.7699 70.8139 48.8405L70.8543 48.8587Z" fill="white"/>
<path d="M77.4835 50.593C77.1607 49.915 76.1932 50.5072 76.4868 51.176C77.0174 52.3856 75.9541 53.7868 74.6266 53.4025C73.1154 52.9646 73.4967 51.2729 73.0992 50.1097C73.0609 49.9695 73.0095 49.8374 72.9358 49.7183C72.726 49.3753 72.2609 49.4762 72.1308 49.8232C71.9058 50.4255 72.0451 51.1417 71.8655 51.7773C71.697 52.3745 71.3893 53.2047 70.8173 53.5336C69.2799 54.4163 68.2863 52.433 68.2812 51.1942C68.2792 50.6837 67.5539 50.7059 67.5034 51.1942C67.3087 53.0655 68.7987 55.1164 70.8143 54.6453C71.7152 54.4345 72.2821 53.6264 72.6423 52.8274C72.6463 52.8194 72.6493 52.8103 72.6534 52.8022C73.0064 53.7959 73.8004 54.5676 75.0351 54.61C77.1516 54.6826 78.3349 52.3846 77.4825 50.595L77.4835 50.593Z" fill="#1E1E22"/>
<path d="M50.2477 36.9347C50.1832 35.8815 50.0611 34.8899 50.2245 33.8337C50.3849 32.7956 50.7521 31.813 51.2747 30.9041C51.5148 30.4865 50.8893 30.1263 50.6321 30.5278C50.0157 31.4882 49.6001 32.5686 49.4094 33.6934C49.2298 34.7537 49.1865 36.0026 49.5718 37.0245C49.6989 37.3614 50.2729 37.3493 50.2477 36.9327V36.9347Z" fill="white"/>
<path d="M52.1203 29.5946C52.4673 29.4524 52.7276 29.1942 53.0262 28.9752C53.347 28.7402 53.692 28.5626 54.0461 28.3821C54.5454 28.1279 54.1076 27.4177 53.6133 27.6406C52.9536 27.9382 52.0123 28.5505 51.8247 29.2971C51.7844 29.4575 51.9428 29.6673 52.1213 29.5936L52.1203 29.5946Z" fill="white"/>
<path d="M79.2375 65.4486C81.3162 65.4486 83.0013 63.7634 83.0013 61.6847C83.0013 59.606 81.3162 57.9209 79.2375 57.9209C77.1588 57.9209 75.4736 59.606 75.4736 61.6847C75.4736 63.7634 77.1588 65.4486 79.2375 65.4486Z" fill="#1E1E22"/>
<path d="M77.4531 62.426C77.6075 61.6058 77.553 60.8664 78.2834 60.2994C78.702 59.9746 78.1069 59.3602 77.6922 59.7083C76.98 60.3085 76.3798 61.8005 77.3018 62.4865C77.3523 62.5238 77.441 62.4865 77.4521 62.425L77.4531 62.426Z" fill="white"/>
<path d="M104.906 40.8337C104.884 45.9342 104.77 52.1726 104.237 56.697C104.183 57.2912 103.927 58.3979 103.796 58.7046C103.645 59.0435 103.459 59.3673 103.244 59.67C103.041 59.9151 102.814 60.1411 102.566 60.3428C102.276 60.5547 101.94 60.7393 101.621 60.8876C101.184 61.0591 100.729 61.1812 100.264 61.2568C93.9161 61.3839 87.5566 61.2094 81.2062 61.2911C79.576 61.1428 79.4338 63.6981 81.0781 63.7122H97.7475C101.917 64.1077 106.01 62.2343 106.521 57.6857C107.27 52.107 107.265 46.4527 107.326 40.8327C107.326 39.2751 104.905 39.272 104.905 40.8327L104.906 40.8337Z" fill="#1E1E22"/>
<path d="M66.4823 11.2164C60.5475 14.5586 58.9526 21.3569 58.083 23.5672C58.8043 23.6499 59.5044 23.7962 60.1773 24C60.4708 22.5624 61.3959 19.9728 64.2559 16.5147C68.7793 11.046 78.3609 10.1915 85.7332 13.5236C93.1055 16.8566 94.7902 27.3734 94.7902 27.3734L100.237 24.462C92.7171 5.663 73.7799 7.10861 66.4833 11.2175L66.4823 11.2164Z" fill="white"/>
<path d="M94.7888 27.3723L100.235 24.4609C96.3423 14.729 89.4734 10.5848 82.6963 9.33594C93.7971 13.8362 94.3389 18.9347 94.3389 18.9347C93.7043 19.428 92.8892 19.9788 92.2315 20.0706C94.2067 23.7416 94.7888 27.3713 94.7888 27.3713V27.3723Z" fill="#DCDCDC"/>
<path d="M100.706 24.2733C96.6905 13.7888 87.5528 7.33348 76.2805 8.13044C72.8677 8.38566 69.4287 8.79019 66.4537 10.5334C63.1338 12.5207 60.9992 14.3356 58.7778 19.548C58.2573 20.7697 57.7801 22.4715 57.5107 23.7779C58.3087 23.8707 59.5233 23.9383 60.286 24.1885C60.286 24.1885 60.3213 24.0301 60.3213 24.0291C60.8963 21.5697 62.2945 19.3765 63.8329 17.4033C64.4503 16.6144 65.1121 15.8558 65.8949 15.2263C71.4645 10.6353 81.2307 11.0307 87.1614 14.7472C91.353 17.6222 93.6581 23.2019 94.4318 28.0875C96.0812 27.2331 98.8191 25.7683 100.475 24.9078L100.875 24.6959C100.875 24.6959 100.706 24.2722 100.706 24.2733ZM93.3494 21.38C92.0571 18.5493 90.2029 15.8699 87.577 14.1247C84.9834 12.4733 81.7754 11.6542 78.743 11.3445C73.6697 10.8885 68.0113 12.0345 64.4523 15.9264C63.1126 17.486 61.9313 19.1929 61.0345 21.0471C60.6178 21.9308 60.2728 22.8549 60.066 23.8163C59.4638 23.6498 58.8484 23.5318 58.229 23.4612C59.2277 18.5281 62.124 13.8483 66.5082 11.2587C68.7286 9.97957 71.2486 9.29863 73.7746 8.95866C79.6489 8.21417 85.7965 9.50442 90.6791 12.8678C93.4492 14.7593 95.7543 17.2863 97.4986 20.1452C98.3056 21.4476 98.9926 22.8216 99.5908 24.2339C98.349 24.9078 96.4071 25.9539 95.1168 26.6601C94.7163 24.8422 94.114 23.0768 93.3484 21.379L93.3494 21.38Z" fill="#1E1E22"/>
<path d="M101.908 46.8907C108.418 46.8907 113.696 41.5386 113.696 34.9365C113.696 28.3343 108.418 22.9822 101.908 22.9822C95.3977 22.9822 90.1201 28.3343 90.1201 34.9365C90.1201 41.5386 95.3977 46.8907 101.908 46.8907Z" fill="#1E1E22"/>
<path d="M103.272 42.8623C107.543 42.8623 111.005 39.2197 111.005 34.7263C111.005 30.2329 107.543 26.5903 103.272 26.5903C99.002 26.5903 95.54 30.2329 95.54 34.7263C95.54 39.2197 99.002 42.8623 103.272 42.8623Z" fill="white"/>
<path d="M111.534 34.7628C111.497 29.056 105.632 24.58 100.104 26.9144C93.431 29.8348 93.3866 39.7433 99.9912 42.7898C102.553 43.9681 105.726 43.5828 107.892 41.776C109.98 40.0883 111.575 37.415 111.535 34.7618L111.534 34.7628ZM106.092 41.7558C101.166 43.6756 96.0882 39.9107 96.0246 34.7265C95.9207 30.6792 99.1307 26.9295 103.273 26.8932C105.299 26.8448 107.293 27.6851 108.715 29.1347C110.172 30.5995 110.973 32.6645 110.945 34.7265C110.94 37.7943 108.949 40.6774 106.092 41.7558Z" fill="#1E1E22"/>
<path d="M46.9539 57.3528V46.943C46.9539 43.16 43.8871 40.0933 40.1041 40.0933H17.2629C13.4799 40.0933 10.4131 43.16 10.4131 46.943V60.4226C10.4131 64.2056 13.4799 67.2724 17.2629 67.2724H46.9539C54.9294 67.2724 56.6948 64.5375 56.6948 64.5375C52.1936 63.9473 48.7919 60.0352 46.9539 57.3518V57.3528Z" fill="white"/>
<path d="M46.9538 57.3528V46.943C46.9538 43.9257 45.0018 41.3664 42.2932 40.4524C44.223 42.6143 44.6901 44.1628 44.8061 45.5872C45.021 48.2232 44.687 49.4226 44.687 56.1645C44.687 61.1207 48.1957 60.8645 48.4519 62.7439C48.7081 64.6243 45.3105 64.2823 45.3105 64.2823C45.3105 64.2823 22.6175 64.8139 16.8926 64.0452C13.5202 63.5923 11.5933 61.5636 10.4141 60.2683V60.4236C10.4141 64.2066 13.4808 67.2734 17.2638 67.2734H46.9548C54.9304 67.2734 56.6958 64.5385 56.6958 64.5385C52.1945 63.9484 48.7929 60.0362 46.9548 57.3528H46.9538Z" fill="#DCDCDC"/>
<path d="M31.2644 57.491C32.4757 57.491 33.4575 56.5091 33.4575 55.2979C33.4575 54.0866 32.4757 53.1047 31.2644 53.1047C30.0532 53.1047 29.0713 54.0866 29.0713 55.2979C29.0713 56.5091 30.0532 57.491 31.2644 57.491Z" fill="#DCDCDC"/>
<path d="M39.7039 57.491C40.9151 57.491 41.897 56.5091 41.897 55.2979C41.897 54.0866 40.9151 53.1047 39.7039 53.1047C38.4926 53.1047 37.5107 54.0866 37.5107 55.2979C37.5107 56.5091 38.4926 57.491 39.7039 57.491Z" fill="#DCDCDC"/>
<path d="M22.825 57.491C24.0362 57.491 25.0181 56.5091 25.0181 55.2979C25.0181 54.0866 24.0362 53.1047 22.825 53.1047C21.6137 53.1047 20.6318 54.0866 20.6318 55.2979C20.6318 56.5091 21.6137 57.491 22.825 57.491Z" fill="#DCDCDC"/>
<path d="M30.45 56.5872C31.6612 56.5872 32.6431 55.6053 32.6431 54.3941C32.6431 53.1828 31.6612 52.2009 30.45 52.2009C29.2387 52.2009 28.2568 53.1828 28.2568 54.3941C28.2568 55.6053 29.2387 56.5872 30.45 56.5872Z" fill="#1E1E22"/>
<path d="M38.8894 56.5872C40.1007 56.5872 41.0825 55.6053 41.0825 54.3941C41.0825 53.1828 40.1007 52.2009 38.8894 52.2009C37.6782 52.2009 36.6963 53.1828 36.6963 54.3941C36.6963 55.6053 37.6782 56.5872 38.8894 56.5872Z" fill="#1E1E22"/>
<path d="M22.0105 56.5872C23.2217 56.5872 24.2036 55.6053 24.2036 54.3941C24.2036 53.1828 23.2217 52.2009 22.0105 52.2009C20.7993 52.2009 19.8174 53.1828 19.8174 54.3941C19.8174 55.6053 20.7993 56.5872 22.0105 56.5872Z" fill="#1E1E22"/>
<path d="M42.7805 42.6345C42.2771 42.1906 40.7418 41.0346 40.539 41.7982C40.4492 42.1362 40.8598 42.3319 41.1019 42.5235C41.4146 42.7707 41.7152 43.0289 42.0048 43.3044C42.599 43.8713 43.0801 44.528 43.3888 45.2937C43.6471 45.9353 44.7023 45.6488 44.435 45.0052C44.0597 44.1003 43.52 43.2862 42.7815 42.6345H42.7805Z" fill="#DCDCDC"/>
<path d="M45.3983 47.4747C45.2167 47.1378 44.5862 47.2689 44.6367 47.6805C44.675 47.9943 44.7345 48.2989 44.7849 48.6096C44.8354 48.9213 44.8051 49.2704 44.9282 49.5609C45.0956 49.9574 45.6979 50.0502 45.8311 49.5609C46.0026 48.9304 45.6989 48.0306 45.3983 47.4747Z" fill="#DCDCDC"/>
<path d="M42.2102 42.9827C41.7068 42.5388 40.1714 41.3827 39.9687 42.1464C39.8789 42.4843 40.2895 42.68 40.5316 42.8717C40.8443 43.1188 41.1449 43.3771 41.4344 43.6525C42.0286 44.2194 42.5098 44.8762 42.8185 45.6418C43.0768 46.2834 44.132 45.9969 43.8646 45.3533C43.4894 44.4484 42.9497 43.6343 42.2112 42.9827H42.2102Z" fill="#1E1E22"/>
<path d="M44.828 47.8229C44.6464 47.4859 44.0159 47.6171 44.0663 48.0287C44.1047 48.3424 44.1642 48.6471 44.2146 48.9578C44.2651 49.2695 44.2348 49.6185 44.3579 49.9091C44.5254 50.3055 45.1276 50.3983 45.2608 49.9091C45.4323 49.2786 45.1286 48.3787 44.828 47.8229Z" fill="#1E1E22"/>
<path d="M56.6962 64.1956C55.6814 64.1169 54.7341 63.6801 53.807 63.2463C51.0036 61.9207 49.1928 60.0181 47.5787 57.1884C47.3315 54.5868 47.2226 51.1205 47.3023 48.0376C47.3154 47.7178 47.3235 46.9451 47.3265 46.6374C47.3094 45.8163 47.156 45.0001 46.8624 44.2294C45.8425 41.4703 43.0573 39.5264 40.1085 39.5193C39.9602 39.5193 39.1088 39.5012 38.9454 39.5032C37.0912 39.4699 33.3576 39.4396 31.5025 39.4174C28.1865 39.3791 23.655 39.3599 20.3381 39.3579C19.4897 39.3579 17.8897 39.3609 17.0625 39.37C13.7708 39.4134 10.7484 41.8618 9.98676 45.0536C9.82334 45.7093 9.75273 46.3882 9.76382 47.0631C9.76987 50.4476 9.87176 56.6619 9.86167 60.0877C9.86369 60.3924 9.86471 60.7515 9.89699 61.0643C10.1673 64.4548 12.9647 67.335 16.3442 67.6981C16.8779 67.7808 17.7333 67.7375 18.263 67.7455C19.4453 67.7405 26.2506 67.6911 27.5661 67.686C31.5721 67.6416 44.2386 67.6033 48.0427 67.5105C48.4997 67.5014 48.987 67.454 49.448 67.4197C49.5681 67.4136 49.796 67.3894 49.9151 67.3733L50.8482 67.2563L51.7753 67.0908C52.3846 66.9668 53.005 66.8033 53.6012 66.6147C54.7533 66.2051 55.9447 65.6876 56.7678 64.7484C56.8072 64.6959 56.8455 64.6273 56.8798 64.5598C56.9444 64.4286 56.9404 64.2158 56.6952 64.1966L56.6962 64.1956ZM53.0282 66.3282C52.6994 66.4331 52.2484 66.5158 51.9135 66.5935C51.8389 66.6106 51.7642 66.6258 51.6886 66.6369L50.7816 66.7842C50.4709 66.8154 49.9867 66.8749 49.6377 66.9082L49.4076 66.9214L48.9477 66.9486C47.2398 67.0575 44.1891 66.9597 42.454 66.9647C36.0653 66.9183 23.5975 66.8306 17.3339 66.7932C14.3972 66.8326 11.7098 64.6939 11.1096 61.8178C11.0137 61.4042 10.9734 60.9674 10.9653 60.5437C10.9966 56.9241 11.0127 50.6504 11.0632 47.0641C11.0107 43.8824 13.5186 41.1092 16.6862 40.8489C17.1543 40.8015 18.0158 40.8358 18.4778 40.8267L20.3381 40.8298C23.652 40.8298 28.1885 40.8096 31.5025 40.7702C33.7975 40.7551 37.5865 40.7006 39.8755 40.6714C43.1854 40.5079 46.0927 42.9462 46.5235 46.2339C46.5618 46.5345 46.58 46.8109 46.584 47.1216C46.6607 50.5142 46.7626 54.0148 46.8856 57.3751C49.1292 60.696 52.2515 63.9151 56.3361 64.6657C56.2816 64.7191 56.2251 64.7706 56.1727 64.821C55.2738 65.5746 54.15 66.0165 53.0272 66.3292L53.0282 66.3282Z" fill="#1E1E22"/>
</g>
</g>
<defs>
<radialGradient id="paint0_radial_2291_9265" cx="0" cy="0" r="1" gradientUnits="userSpaceOnUse" gradientTransform="translate(-50.5034 -1.92773) rotate(90) scale(133.538)">
<stop offset="0.265" stop-color="#D27C71"/>
<stop offset="1" stop-color="#D27C71" stop-opacity="0"/>
</radialGradient>
<radialGradient id="paint1_radial_2291_9265" cx="0" cy="0" r="1" gradientUnits="userSpaceOnUse" gradientTransform="translate(159.091 189.468) rotate(90) scale(189.216)">
<stop stop-color="#B68EFF"/>
<stop offset="1" stop-color="#B68EFF" stop-opacity="0"/>
</radialGradient>
<clipPath id="clip0_2291_9265">
<rect width="96" height="96" rx="48" fill="white"/>
</clipPath>
<clipPath id="clip1_2291_9265">
<rect width="96" height="96" fill="white"/>
</clipPath>
</defs>
</svg>
