<svg width="96" height="96" viewBox="0 0 96 96" fill="none" xmlns="http://www.w3.org/2000/svg">
<g clip-path="url(#clip0_2291_27335)">
<rect width="96" height="96" rx="48" fill="#8B47F4"/>
<mask id="mask0_2291_27335" style="mask-type:alpha" maskUnits="userSpaceOnUse" x="0" y="0" width="96" height="96">
<circle cx="48" cy="48" r="48" fill="#8B47F4"/>
</mask>
<g mask="url(#mask0_2291_27335)">
<circle cx="-50.5034" cy="-1.92773" r="133.538" fill="url(#paint0_radial_2291_27335)"/>
<circle cx="159.091" cy="189.468" r="189.216" fill="url(#paint1_radial_2291_27335)"/>
</g>
<g clip-path="url(#clip1_2291_27335)">
<path d="M74.6292 72.869L81.6013 73.1643C81.6013 73.1643 81.8362 74.5549 81.8582 75.8934C81.8655 76.3413 81.6251 77.0581 80.7236 77.3882C79.8231 77.7182 12.647 85.6831 12.647 85.6831C12.647 85.6831 11.9064 86.0927 9.9353 84.1042C7.76305 81.9137 -8.72815 66.7491 -8.72815 66.7491C-8.72815 66.7491 -9.46137 65.6063 -9.5016 65.0367C-9.54182 64.4671 -9.68262 62.5911 -9.68262 62.5911L74.6292 72.869Z" fill="#1E1E22"/>
<path d="M62.9496 56.0405L-8.10742 65.8879L10.8577 83.2659C11.2956 83.6672 11.8871 83.8565 12.4768 83.7852L79.3933 75.6438C81.1176 75.4344 81.8014 73.2988 80.5206 72.1267L62.9496 56.0405Z" fill="white"/>
<path d="M80.5214 72.1267L62.9504 56.0405L59.1646 56.5653C59.3611 56.7701 59.5019 56.8889 59.5019 56.8889C59.5019 56.8889 73.8547 69.5339 74.8869 71.4447C75.919 73.3554 73.329 73.6645 73.329 73.6645L10.2012 82.6643L10.8576 83.2659C11.2955 83.6672 11.8871 83.8565 12.4767 83.7852L79.3932 75.6438C81.1175 75.4344 81.8013 73.2988 80.5205 72.1267H80.5214Z" fill="#DCDCDC"/>
<path d="M15.567 70.4399C18.3335 70.1026 21.0991 69.7661 23.8656 69.4288C26.8954 69.0594 29.9262 68.69 32.956 68.3207C36.015 67.9477 39.0741 67.5756 42.1323 67.2026C44.9847 66.8551 47.8372 66.5077 50.6896 66.1594C53.1005 65.8659 55.5113 65.5715 57.9231 65.2781C59.6575 65.0669 61.3918 64.8557 63.1261 64.6445C63.9489 64.5439 64.7718 64.4461 65.5937 64.3437C65.6293 64.3391 65.665 64.3355 65.7007 64.3309C66.0682 64.2861 66.3863 64.0475 66.3863 63.6452C66.3863 63.3097 66.0709 62.9147 65.7007 62.9595C65.1375 63.0281 64.5743 63.0967 64.0111 63.1653C62.4788 63.3518 60.9457 63.5392 59.4134 63.7257C57.146 64.0018 54.8796 64.2779 52.6123 64.554C49.8458 64.8914 47.0802 65.2278 44.3137 65.5651C41.2838 65.9345 38.2531 66.3039 35.2233 66.6732C32.1642 67.0462 29.1052 67.4183 26.047 67.7913C23.1946 68.1388 20.3421 68.4862 17.4897 68.8345C15.0788 69.128 12.6679 69.4224 10.2561 69.7158C8.52181 69.927 6.78747 70.1382 5.05314 70.3494C4.23032 70.45 3.40752 70.5478 2.58561 70.6502C2.54996 70.6548 2.51431 70.6584 2.47865 70.663C2.11113 70.7078 1.79297 70.9464 1.79297 71.3487C1.79297 71.6842 2.10838 72.0792 2.47865 72.0344C3.04183 71.9658 3.605 71.8972 4.16818 71.8287C5.70046 71.6421 7.23365 71.4547 8.76593 71.2682C11.0333 70.9921 13.2996 70.716 15.567 70.4399Z" fill="#DCDCDC"/>
<path d="M68.4966 66.2125C67.9334 66.281 67.3702 66.3496 66.807 66.4182C65.2747 66.6047 63.7416 66.7921 62.2093 66.9786C59.9419 67.2547 57.6755 67.5308 55.4082 67.8069C52.6417 68.1443 49.8761 68.4807 47.1096 68.8181C44.0797 69.1874 41.049 69.5568 38.0192 69.9261C34.9601 70.2992 31.9011 70.6713 28.8429 71.0443C25.9905 71.3917 23.138 71.7391 20.2856 72.0874C17.8747 72.3809 15.4638 72.6753 13.052 72.9688C11.3177 73.1799 9.58337 73.3911 7.84904 73.6023C7.02622 73.7029 6.20342 73.8007 5.38151 73.9031C5.34586 73.9077 5.31021 73.9113 5.27455 73.9159C4.90703 73.9607 4.58887 74.1993 4.58887 74.6016C4.58887 74.9371 4.90428 75.3321 5.27455 75.2873C5.83773 75.2187 6.4009 75.1502 6.96408 75.0816C8.49636 74.8951 10.0296 74.7077 11.5618 74.5212C13.8292 74.245 16.0955 73.9689 18.3629 73.6928C21.1294 73.3555 23.895 73.019 26.6615 72.6817C29.6913 72.3123 32.7221 71.943 35.7519 71.5736C38.8109 71.2006 41.87 70.8285 44.9282 70.4555C47.7806 70.1081 50.633 69.7607 53.4855 69.4123C55.8964 69.1189 58.3072 68.8245 60.719 68.531C62.4534 68.3198 64.1877 68.1086 65.922 67.8974C66.7448 67.7969 67.5676 67.699 68.3895 67.5966C68.4252 67.5921 68.4609 67.5884 68.4966 67.5838C68.8641 67.539 69.1822 67.3004 69.1822 66.8982C69.1822 66.5626 68.8668 66.1677 68.4966 66.2125Z" fill="#DCDCDC"/>
<path d="M14.1696 69.6655C16.9361 69.3281 19.7017 68.9917 22.4682 68.6543C25.498 68.285 28.5287 67.9156 31.5585 67.5463C34.6176 67.1733 37.6767 66.8012 40.7348 66.4282C43.5873 66.0807 46.4397 65.7333 49.2922 65.385C51.703 65.0915 54.1139 64.7971 56.5257 64.5037C58.26 64.2925 59.9943 64.0813 61.7287 63.8701C62.5515 63.7695 63.3743 63.6717 64.1962 63.5693C64.2319 63.5647 64.2675 63.5611 64.3032 63.5565C64.6707 63.5117 64.9889 63.2731 64.9889 62.8708C64.9889 62.5353 64.6735 62.1403 64.3032 62.1851C63.74 62.2537 63.1768 62.3223 62.6137 62.3908C61.0814 62.5773 59.5482 62.7648 58.0159 62.9513C55.7486 63.2274 53.4822 63.5035 51.2148 63.7796C48.4483 64.1169 45.6827 64.4534 42.9162 64.7907C39.8864 65.1601 36.8557 65.5295 33.8259 65.8988C30.7668 66.2718 27.7077 66.6439 24.6496 67.0169C21.7971 67.3643 18.9447 67.7118 16.0922 68.0601C13.6813 68.3536 11.2705 68.6479 8.85867 68.9414C7.12435 69.1526 5.39005 69.3638 3.65573 69.575C2.8329 69.6756 2.01006 69.7734 1.18815 69.8758C1.1525 69.8804 1.11685 69.884 1.08119 69.8886C0.713666 69.9334 0.395508 70.172 0.395508 70.5743C0.395508 70.9098 0.710923 71.3047 1.08119 71.2599C1.64437 71.1914 2.20754 71.1228 2.77072 71.0542C4.303 70.8677 5.83619 70.6803 7.36847 70.4938C9.6358 70.2177 11.9022 69.9416 14.1696 69.6655Z" fill="#1E1E22"/>
<path d="M67.0991 65.4378C66.5359 65.5064 65.9727 65.575 65.4096 65.6435C63.8773 65.83 62.3441 66.0175 60.8118 66.204C58.5445 66.4801 56.278 66.7562 54.0107 67.0323C51.2442 67.3696 48.4786 67.7061 45.7121 68.0434C42.6823 68.4128 39.6515 68.7821 36.6217 69.1515C33.5627 69.5245 30.5036 69.8966 27.4455 70.2696C24.593 70.617 21.7406 70.9644 18.8881 71.3128C16.4772 71.6062 14.0664 71.9006 11.6546 72.1941C9.92025 72.4053 8.18591 72.6165 6.45158 72.8277C5.62876 72.9282 4.80596 73.0261 3.98405 73.1285C3.9484 73.133 3.91275 73.1367 3.87709 73.1413C3.50956 73.1861 3.19141 73.4247 3.19141 73.8269C3.19141 74.1625 3.50682 74.5574 3.87709 74.5126C4.44027 74.4441 5.00344 74.3755 5.56662 74.3069C7.0989 74.1204 8.63209 73.933 10.1644 73.7465C12.4317 73.4704 14.6981 73.1943 16.9654 72.9182C19.7319 72.5808 22.4975 72.2444 25.264 71.907C28.2939 71.5377 31.3246 71.1683 34.3544 70.799C37.4135 70.426 40.4726 70.0539 43.5307 69.6808C46.3832 69.3334 49.2356 68.986 52.0881 68.6377C54.4989 68.3442 56.9098 68.0498 59.3216 67.7563C61.0559 67.5452 62.7902 67.334 64.5246 67.1228C65.3474 67.0222 66.1702 66.9244 66.9921 66.822C67.0278 66.8174 67.0634 66.8138 67.0991 66.8092C67.4666 66.7644 67.7848 66.5258 67.7848 66.1235C67.7848 65.788 67.4694 65.393 67.0991 65.4378Z" fill="#1E1E22"/>
<path d="M34.825 81.1584L62.3813 77.7171L55.1514 70.9481C54.8013 70.6272 54.3286 70.4754 53.8569 70.533L30.8901 73.3315C29.5141 73.4988 28.9656 75.2011 29.985 76.141L34.825 81.1593V81.1584Z" fill="#DCDCDC"/>
<path d="M34.0902 81.1586L61.3256 77.8398L54.8126 71.8716C54.4624 71.5507 53.9897 71.399 53.518 71.4566L30.5512 74.2551C29.1753 74.4224 28.6267 76.1247 29.6461 77.0646L34.0902 81.1586Z" fill="white"/>
<path d="M34.0907 81.1586L61.3261 77.8398L54.813 71.8716C54.4629 71.5507 53.9902 71.399 53.5184 71.4566L49.1282 71.9914C50.6578 72.1011 51.5007 72.3214 52.585 73.0602C53.6025 73.7532 56.1305 76.6239 56.1305 76.6239L32.3984 79.5989L34.0916 81.1586H34.0907Z" fill="#DCDCDC"/>
<path d="M55.6137 72.1066L55.1209 71.6468L55.0579 71.5882C54.8796 71.4255 54.672 71.292 54.4462 71.2033C54.1408 71.0808 53.8035 71.036 53.4762 71.0717L53.4332 71.0763L53.2659 71.0955L52.9313 71.133C45.8148 71.9046 38.6252 72.7539 31.5334 73.7706L30.8659 73.8638C30.6538 73.8976 30.3448 73.9251 30.1437 74.0028C29.0923 74.3319 28.5291 75.6146 28.9954 76.6093C29.1033 76.8507 29.2651 77.0628 29.4562 77.2356C30.9885 78.5768 32.3105 80.1383 33.829 81.4182L34.3703 81.3807C42.369 80.4884 54.1098 78.9827 62.018 78.0684C60.4519 76.6203 57.1588 73.5319 55.6137 72.1075V72.1066ZM34.2761 81.1156H34.1051C32.6533 79.6601 31.2417 78.2641 29.8063 76.8653C29.0914 76.1796 29.3967 74.9042 30.3457 74.6427C30.4326 74.6162 30.5167 74.6043 30.6145 74.5934L30.95 74.5596C33.6891 74.2761 36.931 73.9296 39.6582 73.6142C44.1152 73.1114 48.5804 72.4934 53.0255 71.9119C53.1489 71.8963 53.4497 71.8552 53.5676 71.8406C53.9488 71.7885 54.342 71.9283 54.6153 72.198C56.0553 73.4945 58.9022 76.0635 60.6302 77.6223C53.0136 78.6133 41.7546 80.1136 34.2752 81.1147L34.2761 81.1156Z" fill="#1E1E22"/>
<path d="M53.1689 72.4841C53.1772 72.4905 53.1836 72.496 53.1689 72.4841V72.4841Z" fill="#1E1E22"/>
<path d="M53.8593 72.4668C53.7798 72.4028 53.6984 72.3406 53.6134 72.2848C53.5412 72.2373 53.4598 72.2016 53.3812 72.1669C53.3327 72.1459 53.2824 72.1194 53.2303 72.1093C53.1819 72.1002 53.1361 72.0947 53.0895 72.1148C53.031 72.1395 52.9981 72.1888 52.9935 72.2528C52.9881 72.326 53.0438 72.3881 53.0968 72.4302C53.1179 72.4467 53.1398 72.4622 53.1617 72.4787C53.1636 72.4796 53.1663 72.4823 53.1681 72.4841C53.1654 72.4814 53.1636 72.4805 53.1581 72.4759C53.1645 72.4814 53.1709 72.486 53.1773 72.4915C53.2413 72.5417 53.3007 72.5975 53.3638 72.6487C53.4909 72.7538 53.5978 72.8736 53.7121 72.9906C53.8008 73.0811 53.9663 73.0866 54.055 72.9906C54.1491 72.8882 54.1427 72.7511 54.055 72.6478C53.9974 72.5801 53.9279 72.5225 53.8593 72.4668Z" fill="#1E1E22"/>
<path d="M56.8462 75.3192C56.5573 74.885 56.1514 74.5248 55.7757 74.1673C55.5901 73.9899 55.3972 73.8217 55.2043 73.6526C55.1055 73.5657 55.0004 73.4871 54.8962 73.4075C54.7847 73.3225 54.6768 73.2539 54.536 73.2366C54.4345 73.2238 54.3796 73.339 54.3952 73.4213C54.419 73.5465 54.5058 73.6489 54.5853 73.7431C54.6703 73.8436 54.7572 73.9424 54.8495 74.0365C55.0287 74.2194 55.2061 74.4041 55.3889 74.5833C55.7555 74.9417 56.1167 75.3348 56.5455 75.62C56.7265 75.7407 56.966 75.5003 56.8453 75.3201L56.8462 75.3192Z" fill="#1E1E22"/>
<path d="M28.0414 76.366C27.7918 76.7582 27.6409 77.7401 28.1328 78.0044C28.2763 78.0811 28.493 78.0501 28.5707 77.8892C28.6923 77.6387 28.5954 77.4521 28.5561 77.1952C28.5195 76.9612 28.5451 76.7363 28.5424 76.5013C28.5387 76.2298 28.184 76.1429 28.0423 76.366H28.0414Z" fill="#DCDCDC"/>
<path d="M27.6312 76.0753C27.3816 76.4675 27.2308 77.4494 27.7226 77.7136C27.8662 77.7904 28.0829 77.7593 28.1606 77.5984C28.2822 77.3479 28.1852 77.1614 28.1459 76.9045C28.1094 76.6704 28.135 76.4455 28.1322 76.2106C28.1286 75.939 27.7739 75.8522 27.6322 76.0753H27.6312Z" fill="#1E1E22"/>
<path d="M76.3909 70.7417C75.9612 69.9554 75.2627 69.3575 74.6081 68.7623C74.2534 68.4396 73.8895 68.1269 73.5265 67.8134C73.1599 67.497 72.7567 67.0929 72.3133 66.8918C72.061 66.7766 71.7538 67.0207 71.9129 67.2922C72.1323 67.6671 72.498 67.9761 72.8088 68.2778C73.1526 68.6106 73.5055 68.936 73.8593 69.257C74.5167 69.854 75.1914 70.4107 75.7116 71.1385C76.0014 71.5435 76.6368 71.1933 76.3899 70.7417H76.3909Z" fill="#1E1E22"/>
<path d="M77.3232 72.1466C77.2821 71.9702 77.1303 71.7526 77.1011 71.716C77.0307 71.6274 76.9639 71.5698 76.857 71.5268C76.6604 71.4472 76.3761 71.5908 76.3331 71.7809C76.3075 71.8952 76.3358 71.9675 76.3715 72.0753C76.4017 72.1658 76.4272 72.4154 76.4812 72.5178C76.5854 72.7162 76.846 72.7848 77.0435 72.7016C77.2409 72.6184 77.3744 72.3661 77.3232 72.1457V72.1466Z" fill="#1E1E22"/>
<path d="M81.5808 73.0739C81.4711 72.5939 81.205 72.1542 80.8448 71.8232C80.8265 71.8049 80.811 71.7912 80.7964 71.7784L80.7516 71.7382L80.6611 71.6568C74.8456 66.4529 68.7997 61.0881 62.9695 55.9802C42.8936 58.6672 11.6766 62.7841 -8.16253 65.482L-9.47266 65.8303L-8.55658 66.6696C-3.82535 71.0342 5.72305 79.2268 10.3756 83.5173C10.5137 83.6417 10.6435 83.7733 10.8017 83.8739C11.299 84.2177 11.9225 84.3713 12.5232 84.3036L13.005 84.2478C34.317 81.7766 55.8137 79.2716 77.0955 76.4438L79.0063 76.1942C79.3254 76.154 79.7725 76.1055 80.0659 75.9785C81.2005 75.5533 81.867 74.2441 81.579 73.0748L81.5808 73.0739ZM79.2239 74.3529C78.0472 74.9088 12.7801 82.8024 12.7801 82.8024C12.7801 82.8024 12.2114 82.9569 11.2304 82.1313C10.5064 81.5215 0.810773 72.7082 -4.21118 68.1397L58.7256 59.2898L59.2476 59.2057C60.3035 59.0393 62.6522 58.6891 63.3407 58.744C64.1123 58.8062 64.6481 59.2066 66.2151 60.6374C66.4007 60.8065 66.5259 60.9144 66.6037 60.9738L79.2769 72.5446C79.2769 72.5446 80.7196 73.6471 79.2257 74.3529H79.2239Z" fill="#1E1E22"/>
<path d="M64.1338 52.8771L61.8746 20.723C61.7594 19.081 60.964 17.5396 59.6914 16.4946C58.4197 15.4496 56.7539 14.9678 55.1202 15.1735L-8.87344 23.2198C-12.0431 23.6184 -14.3498 26.4261 -14.1267 29.6132L-11.8676 61.7672C-11.7524 63.4092 -10.957 64.9506 -9.68439 65.9956C-8.60558 66.8824 -7.24243 67.3633 -5.85643 67.3633C-5.60867 67.3633 -5.36092 67.3478 -5.11316 67.3167L58.8805 59.2704C62.0502 58.8718 64.3568 56.0641 64.1338 52.8771ZM58.1427 53.3982L-5.85094 61.4445C-5.86739 61.4463 -5.89389 61.45 -5.92772 61.4225C-5.96063 61.3951 -5.96337 61.3677 -5.96428 61.3521L-8.22343 29.1981C-8.22708 29.1451 -8.18864 29.0984 -8.13562 29.0911L55.858 21.0448C55.8626 21.0448 55.868 21.0439 55.8754 21.0439C55.8909 21.0439 55.911 21.0476 55.9348 21.0677C55.9677 21.0951 55.9704 21.1225 55.9713 21.1381L58.2304 53.2921C58.2341 53.3452 58.1957 53.3918 58.1427 53.3991V53.3982Z" fill="#1E1E22"/>
<path d="M-5.48105 64.3803L58.5126 56.334C60.1244 56.131 61.2964 54.7048 61.1831 53.0838L58.924 20.9298C58.8006 19.1781 57.2326 17.8899 55.4901 18.1084L-8.50356 26.1547C-10.1154 26.3577 -11.2874 27.7839 -11.1741 29.4048L-8.91497 61.5589C-8.79154 63.3106 -7.22361 64.5988 -5.48105 64.3803Z" fill="#DCDCDC"/>
<path d="M15.1689 21.5038L16.1408 22.5807C16.9563 23.484 18.1613 23.932 19.369 23.7812L30.0977 22.4336C31.4096 22.269 32.5351 21.4206 33.0562 20.2055L33.3076 19.6177L15.1689 21.5038Z" fill="#1E1E22"/>
<path d="M26.8959 21.0991C26.2541 20.9976 25.5126 21.2271 24.8717 21.3231C24.1394 21.4328 23.4071 21.5416 22.6748 21.6513C21.2184 21.8689 19.7438 22.0225 18.2938 22.262C17.9262 22.3224 18.0698 22.816 18.3742 22.8544C19.0663 22.9431 19.8023 22.774 20.487 22.6743C21.2203 22.5683 21.9535 22.4622 22.6867 22.3562C23.3907 22.2547 24.0947 22.1523 24.7986 22.0508C25.1506 21.9996 25.5026 21.9493 25.8546 21.8981C26.2312 21.8433 26.6253 21.8287 26.97 21.6623C27.1976 21.5526 27.1565 21.1384 26.8959 21.0973V21.0991Z" fill="white"/>
<path d="M29.9756 20.9903C29.9482 20.7837 29.7644 20.6008 29.545 20.6099C29.3941 20.6163 29.2524 20.6621 29.1052 20.6922C28.9964 20.7142 28.8803 20.7242 28.7752 20.7608C28.5923 20.8239 28.4662 20.9903 28.4954 21.1887C28.5265 21.3935 28.6801 21.5059 28.8785 21.5269C28.9891 21.5388 29.1061 21.5288 29.2177 21.5242C29.3621 21.5187 29.5258 21.5196 29.662 21.4703C29.8696 21.3962 30.0067 21.2152 29.9756 20.9894V20.9903Z" fill="white"/>
<path d="M57.8857 26.099C58.1654 25.7315 58.063 25.225 58.0365 24.7898C58.01 24.3528 57.9698 23.9158 57.9168 23.4806C57.8244 22.7154 57.7613 21.6585 57.2164 21.0651C57.0217 20.853 56.6963 20.981 56.6121 21.2242C56.4732 21.6283 56.5627 22.1065 56.6002 22.5261C56.6368 22.932 56.6898 23.3361 56.7255 23.7421C56.7611 24.1489 56.7858 24.5566 56.7995 24.9644C56.8151 25.4416 56.7749 25.8128 57.0811 26.2023C57.3079 26.4912 57.7111 26.3285 57.8866 26.0981L57.8857 26.099Z" fill="#1E1E22"/>
<path d="M58.368 30.6471C58.3588 30.5401 58.3506 30.4332 58.3414 30.3262C58.3241 30.1122 58.3058 29.9001 58.2775 29.688C58.2272 29.3077 58.2299 28.868 57.9173 28.6047C57.7627 28.4748 57.515 28.4364 57.3641 28.6047C57.0441 28.9621 57.109 29.4714 57.1237 29.9248C57.1383 30.3765 57.1072 30.9259 57.2974 31.3392C57.4107 31.586 57.7381 31.6738 57.9803 31.6171L58.0233 31.607C58.4237 31.5129 58.3817 30.7266 58.3671 30.648L58.368 30.6471Z" fill="#1E1E22"/>
<path d="M48.3301 23.3663C47.3473 24.7605 46.3389 26.1374 45.3131 27.4996C44.7828 28.2045 44.2453 28.903 43.7013 29.5978C43.4746 29.8876 43.2524 30.1811 43.0303 30.4736C42.8355 30.7296 42.5667 30.9801 42.649 31.3193C42.6609 31.3678 42.7075 31.3989 42.755 31.4007C43.1025 31.4117 43.299 31.0844 43.5056 30.8412C43.7625 30.5376 44.0167 30.2332 44.2645 29.9214C44.7957 29.254 45.3195 28.5821 45.8388 27.9055C46.8938 26.5287 47.9123 25.1253 48.907 23.7036C49.1539 23.3498 48.5761 23.017 48.3301 23.3663Z" fill="white"/>
<path d="M8.16822 49.2978C8.35016 48.9879 7.91497 48.635 7.66355 48.9084C7.13238 49.4834 6.69906 50.1764 6.2337 50.8054C5.77932 51.4189 5.32495 52.0333 4.86966 52.6467C3.93255 53.912 2.93144 55.1691 2.1141 56.5158C1.97148 56.7508 2.31155 57.025 2.49989 56.8139C3.53025 55.6637 4.42713 54.3682 5.34687 53.1294C5.80216 52.516 6.25745 51.9025 6.71275 51.2891C7.19638 50.6372 7.75683 49.9972 8.16733 49.2978H8.16822Z" fill="white"/>
<path d="M9.07044 51.6878C8.77605 51.9795 8.59779 52.3918 8.38386 52.7438C8.14707 53.1333 7.90387 53.5172 7.66068 53.9021C7.41749 54.287 7.17248 54.6701 6.92289 55.0504C6.74553 55.3201 6.51696 55.5679 6.56907 55.8998C6.57638 55.9482 6.63306 55.9665 6.6742 55.9592C7.0015 55.8989 7.1752 55.5597 7.35805 55.3046C7.6241 54.9343 7.88556 54.5604 8.13972 54.1819C8.39296 53.8034 8.63707 53.4185 8.87844 53.0327C9.09694 52.6835 9.37489 52.3296 9.48734 51.9301C9.55499 51.6897 9.24691 51.5132 9.07137 51.6878H9.07044Z" fill="white"/>
<path d="M11.724 30.6417L34.2621 27.8953C35.9452 27.6905 37.4564 28.9367 37.5762 30.6271L38.3889 42.0844C38.5005 43.6588 37.3586 45.0448 35.7916 45.2359L13.2536 47.9823C11.5705 48.187 10.0592 46.9409 9.93944 45.2505L9.12666 33.7931C9.01512 32.2188 10.157 30.8328 11.724 30.6417Z" fill="white"/>
<path d="M37.578 30.6273C37.4582 28.9359 35.9461 27.6898 34.2638 27.8955L32.5944 28.0985C33.2774 28.7677 33.4904 29.3592 33.4904 29.3592C33.4904 29.3592 34.71 39.6143 34.6652 41.313C34.6204 43.0117 32.8577 43.3189 32.8577 43.3189C32.8577 43.3189 17.7681 45.5323 13.9621 45.578C12.0102 45.6008 10.6973 45.0066 9.88086 44.4214L9.93938 45.2498C10.0591 46.9411 11.5713 48.1872 13.2535 47.9815L35.7915 45.2351C37.3586 45.0441 38.5014 43.6581 38.3889 42.0837L37.5762 30.6264L37.578 30.6273Z" fill="#DCDCDC"/>
<path d="M9.14258 34.0199L9.24681 35.4845L37.1944 32.1374L37.6963 32.3002L37.5775 30.628C37.5775 30.6189 37.5757 30.6097 37.5748 30.6006L34.7095 31.0349L9.14258 34.0199Z" fill="#DCDCDC"/>
<path d="M12.6288 33.7934C13.001 33.7934 13.3027 33.4917 13.3027 33.1196C13.3027 32.7475 13.001 32.4458 12.6288 32.4458C12.2567 32.4458 11.9551 32.7475 11.9551 33.1196C11.9551 33.4917 12.2567 33.7934 12.6288 33.7934Z" fill="#DCDCDC"/>
<path d="M12.3281 33.6872C12.7002 33.6872 13.0019 33.3855 13.0019 33.0134C13.0019 32.6413 12.7002 32.3396 12.3281 32.3396C11.9559 32.3396 11.6543 32.6413 11.6543 33.0134C11.6543 33.3855 11.9559 33.6872 12.3281 33.6872Z" fill="#1E1E22"/>
<path d="M15.6709 33.4843C16.043 33.4843 16.3447 33.1827 16.3447 32.8105C16.3447 32.4384 16.043 32.1367 15.6709 32.1367C15.2988 32.1367 14.9971 32.4384 14.9971 32.8105C14.9971 33.1827 15.2988 33.4843 15.6709 33.4843Z" fill="#DCDCDC"/>
<path d="M15.3701 33.3791C15.7422 33.3791 16.0439 33.0774 16.0439 32.7053C16.0439 32.3332 15.7422 32.0315 15.3701 32.0315C14.9979 32.0315 14.6963 32.3332 14.6963 32.7053C14.6963 33.0774 14.9979 33.3791 15.3701 33.3791Z" fill="#1E1E22"/>
<path d="M18.7138 33.0663C19.086 33.0663 19.3876 32.7647 19.3876 32.3925C19.3876 32.0204 19.086 31.7188 18.7138 31.7188C18.3417 31.7188 18.04 32.0204 18.04 32.3925C18.04 32.7647 18.3417 33.0663 18.7138 33.0663Z" fill="#DCDCDC"/>
<path d="M18.412 32.9614C18.7842 32.9614 19.0859 32.6597 19.0859 32.2876C19.0859 31.9154 18.7842 31.6138 18.412 31.6138C18.0399 31.6138 17.7383 31.9154 17.7383 32.2876C17.7383 32.6597 18.0399 32.9614 18.412 32.9614Z" fill="#1E1E22"/>
<path d="M38.1992 35.7123C38.1324 34.83 37.9523 32.4969 37.8883 31.6457L37.8363 30.9683L37.8106 30.6291C37.7375 29.5302 37.1176 28.3115 36.1339 27.8233C35.5406 27.5197 34.7571 27.5243 34.1007 27.6203C26.8223 28.5519 18.9946 29.4314 11.7263 30.2744C10.8093 30.3786 9.81913 30.9226 9.35103 31.7198C9.07859 32.1632 8.98536 33.0098 8.96708 33.5309C8.95976 33.8454 8.98628 34.4735 8.99725 34.788C9.13073 37.4073 9.37847 40.2424 9.49732 42.8782C9.51652 43.3152 9.5787 44.4964 9.59607 44.9151C9.58235 46.2015 10.2114 47.3991 11.3743 48.008C11.9905 48.3344 12.7182 48.4487 13.4076 48.3582C19.9133 47.6432 29.2588 46.3825 35.8322 45.5532C37.4386 45.353 38.6837 43.9652 38.6938 42.3452C38.6664 41.5415 38.2595 36.6165 38.2001 35.7114L38.1992 35.7123ZM35.7536 44.9188C29.2734 45.6575 19.8695 46.7281 13.4807 47.5591C13.3043 47.5865 13.1041 47.6039 12.9303 47.6167C12.5116 47.6194 12.0929 47.5335 11.7153 47.3443C10.9071 46.9539 10.3366 46.1128 10.2644 45.2095C10.2415 45.0047 10.1949 44.4004 10.1702 44.1938C9.88865 41.1118 9.55858 37.7913 9.29162 34.7167C9.26602 34.4077 9.21027 33.8381 9.20296 33.5382C9.20845 33.0436 9.32729 32.5426 9.58419 32.1138C10.0258 31.3358 10.8422 30.7982 11.729 30.6821C18.9333 29.7569 26.7757 28.9725 34.0128 28.1314C34.2222 28.1067 34.4535 28.0774 34.662 28.0847C35.941 28.0884 37.1057 29.0931 37.3096 30.3493L37.3462 30.662L37.3681 31.0012C37.3992 31.4236 37.4678 32.6039 37.5016 33.0363C37.647 35.3237 37.9569 39.8721 38.0959 42.1842C38.1562 43.5574 37.114 44.7624 35.7527 44.9188H35.7536Z" fill="#1E1E22"/>
<path d="M37.658 31.7663C36.5526 31.9007 35.4464 32.036 34.3411 32.1704C32.0271 32.452 29.7132 32.7345 27.4001 33.0161C24.577 33.3598 21.7537 33.7045 18.9306 34.0483C15.8377 34.4249 12.7457 34.8016 9.65278 35.1783C9.51198 35.1956 9.37029 35.213 9.22949 35.2295L9.26329 35.7058C11.7473 35.4032 14.2322 35.1006 16.7162 34.7979C19.6272 34.4432 22.5382 34.0885 25.4491 33.7338C27.9094 33.4339 30.3696 33.134 32.8289 32.8341C34.4499 32.6367 36.0708 32.4392 37.6918 32.2417L37.658 31.7654V31.7663Z" fill="#1E1E22"/>
<path d="M12.0544 44.4696C11.952 44.2218 11.888 43.9713 11.8277 43.7117C11.7829 43.5188 11.7527 43.314 11.6448 43.1412C11.6055 43.0781 11.472 43.0799 11.4135 43.1366C11.0359 43.5023 11.4208 44.3635 11.5863 44.7576C11.8085 45.2888 12.2062 45.9306 12.7373 46.1966C13.0089 46.3328 13.2695 46.0064 13.0619 45.7761C12.6725 45.3454 12.2848 45.0282 12.0553 44.4696H12.0544Z" fill="#DCDCDC"/>
<path d="M11.6989 44.3309C11.5965 44.0832 11.5325 43.8327 11.4722 43.573C11.4274 43.3801 11.3972 43.1753 11.2893 43.0025C11.25 42.9394 11.1166 42.9413 11.0581 42.998C10.6805 43.3637 11.0653 44.2249 11.2308 44.6189C11.453 45.1501 11.8507 45.7919 12.3819 46.0579C12.6534 46.1942 12.914 45.8678 12.7064 45.6374C12.3169 45.2068 11.9293 44.8895 11.6999 44.3309H11.6989Z" fill="#1E1E22"/>
<path d="M21.3355 35.5358L46.5961 32.4576C48.4822 32.2281 50.1763 33.6241 50.3107 35.5194L51.2222 48.36C51.3474 50.1245 50.0675 51.6778 48.3112 51.8926L23.0506 54.9709C21.1645 55.2004 19.4704 53.8043 19.336 51.9091L18.4245 39.0685C18.2992 37.304 19.5792 35.7507 21.3355 35.5358Z" fill="white"/>
<path d="M50.311 35.5203C50.1766 33.6251 48.4825 32.2281 46.5964 32.4585L44.7259 32.6861C45.4911 33.4367 45.7306 34.0995 45.7306 34.0995C45.7306 34.0995 47.0974 45.5935 47.0471 47.4969C46.9969 49.4004 45.0221 49.7451 45.0221 49.7451C45.0221 49.7451 28.1103 52.2263 23.8445 52.2766C21.6567 52.3022 20.1857 51.6357 19.2705 50.9802L19.3364 51.9091C19.4707 53.8043 21.1648 55.2013 23.0509 54.9709L48.3115 51.8926C50.0678 51.6787 51.3477 50.1254 51.2225 48.36L50.311 35.5194V35.5203Z" fill="#DCDCDC"/>
<path d="M18.4424 39.3217L18.5585 40.9628L49.8815 37.2107L50.4438 37.3927L50.3112 35.5185C50.3112 35.5084 50.3093 35.4983 50.3084 35.4883L47.0976 35.9747L18.4424 39.3208V39.3217Z" fill="#DCDCDC"/>
<path d="M43.8406 41.3796C41.6373 41.6484 39.4349 41.9163 37.2315 42.1851C33.7153 42.6139 30.2001 43.0417 26.6839 43.4705C25.8711 43.5693 25.0584 43.6689 24.2447 43.7676C23.7354 43.8298 23.729 44.6371 24.2447 44.5749C26.448 44.3061 28.6504 44.0383 30.8538 43.7695C34.37 43.3407 37.8852 42.9128 41.4014 42.484C42.2142 42.3853 43.027 42.2856 43.8406 42.1869C44.3499 42.1247 44.3563 41.3175 43.8406 41.3796Z" fill="#DCDCDC"/>
<path d="M41.2685 44.925C37.0547 45.4388 32.8409 45.9517 28.6272 46.4656C28.0238 46.5387 27.4204 46.6127 26.8169 46.6859C26.3077 46.7481 26.3013 47.5553 26.8169 47.4932C31.0307 46.9794 35.2445 46.4665 39.4582 45.9527C40.0616 45.8795 40.6651 45.8055 41.2685 45.7323C41.7777 45.6702 41.7841 44.8629 41.2685 44.925Z" fill="#DCDCDC"/>
<path d="M43.5711 40.8411C41.3678 41.1098 39.1653 41.3777 36.962 41.6465C33.4458 42.0753 29.9305 42.5032 26.4143 42.9319C25.6016 43.0307 24.7888 43.1303 23.9752 43.2291C23.4659 43.2912 23.4595 44.0985 23.9752 44.0364C26.1785 43.7676 28.3809 43.4997 30.5842 43.2309C34.1004 42.8021 37.6157 42.3743 41.1319 41.9455C41.9446 41.8467 42.7574 41.7471 43.5711 41.6483C44.0803 41.5862 44.0867 40.7789 43.5711 40.8411Z" fill="#1E1E22"/>
<path d="M40.9999 44.3874C36.7862 44.9013 32.5724 45.4141 28.3586 45.928C27.7552 46.0011 27.1518 46.0751 26.5484 46.1483C26.0392 46.2105 26.0328 47.0177 26.5484 46.9556C30.7622 46.4418 34.9759 45.9289 39.1897 45.4151C39.7931 45.3419 40.3965 45.2679 40.9999 45.1947C41.5092 45.1326 41.5156 44.3253 40.9999 44.3874Z" fill="#1E1E22"/>
<path d="M22.3489 39.0672C22.766 39.0672 23.1041 38.7291 23.1041 38.3121C23.1041 37.895 22.766 37.5569 22.3489 37.5569C21.9318 37.5569 21.5938 37.895 21.5938 38.3121C21.5938 38.7291 21.9318 39.0672 22.3489 39.0672Z" fill="#DCDCDC"/>
<path d="M22.012 38.9495C22.429 38.9495 22.7671 38.6114 22.7671 38.1944C22.7671 37.7773 22.429 37.4392 22.012 37.4392C21.5949 37.4392 21.2568 37.7773 21.2568 38.1944C21.2568 38.6114 21.5949 38.9495 22.012 38.9495Z" fill="#1E1E22"/>
<path d="M25.7581 38.722C26.1751 38.722 26.5133 38.3839 26.5133 37.9668C26.5133 37.5498 26.1751 37.2117 25.7581 37.2117C25.341 37.2117 25.0029 37.5498 25.0029 37.9668C25.0029 38.3839 25.341 38.722 25.7581 38.722Z" fill="#DCDCDC"/>
<path d="M25.4212 38.6041C25.8383 38.6041 26.1764 38.266 26.1764 37.8489C26.1764 37.4319 25.8383 37.0938 25.4212 37.0938C25.0041 37.0938 24.666 37.4319 24.666 37.8489C24.666 38.266 25.0041 38.6041 25.4212 38.6041Z" fill="#1E1E22"/>
<path d="M29.1683 38.2537C29.5853 38.2537 29.9234 37.9156 29.9234 37.4986C29.9234 37.0815 29.5853 36.7434 29.1683 36.7434C28.7512 36.7434 28.4131 37.0815 28.4131 37.4986C28.4131 37.9156 28.7512 38.2537 29.1683 38.2537Z" fill="#DCDCDC"/>
<path d="M28.8304 38.1361C29.2475 38.1361 29.5855 37.798 29.5855 37.3809C29.5855 36.9638 29.2475 36.6257 28.8304 36.6257C28.4133 36.6257 28.0752 36.9638 28.0752 37.3809C28.0752 37.798 28.4133 38.1361 28.8304 38.1361Z" fill="#1E1E22"/>
<path d="M51.0084 41.2187C50.9335 40.2295 50.7314 37.6148 50.6601 36.6612L50.6016 35.9015L50.5723 35.522C50.4901 34.2896 49.7961 32.9238 48.6926 32.378C48.0271 32.0379 47.1494 32.0424 46.4144 32.1503C38.2565 33.1944 29.4834 34.1799 21.3375 35.1253C20.3099 35.2414 19.2 35.8521 18.6752 36.7444C18.3698 37.2417 18.2656 38.1907 18.2446 38.7749C18.2363 39.1269 18.2665 39.8318 18.2784 40.1847C18.4283 43.1204 18.7063 46.2983 18.8388 49.2522C18.8608 49.7422 18.9302 51.0652 18.9503 51.5351C18.9348 52.9768 19.6397 54.319 20.9434 55.001C21.6337 55.3667 22.4492 55.4947 23.2227 55.3932C30.5147 54.5914 40.9892 53.178 48.3553 52.25C50.1564 52.0251 51.5515 50.47 51.5625 48.6543C51.5314 47.7538 51.0761 42.2335 51.0093 41.2196L51.0084 41.2187ZM48.2675 51.5369C41.0048 52.3652 30.4644 53.5647 23.304 54.4954C23.1065 54.5256 22.8816 54.5457 22.6878 54.5603C22.2179 54.5631 21.7489 54.4671 21.3256 54.255C20.4196 53.817 19.7805 52.8754 19.6991 51.8624C19.6735 51.6329 19.6214 50.9564 19.5931 50.7241C19.2777 47.2692 18.9074 43.5482 18.6084 40.1024C18.5792 39.7559 18.5179 39.1178 18.5088 38.7813C18.5152 38.2264 18.6478 37.666 18.9357 37.1842C19.4303 36.312 20.3464 35.7095 21.3402 35.5796C29.4148 34.5429 38.2044 33.6634 46.3156 32.7217C46.5506 32.6943 46.8093 32.6614 47.0433 32.6696C48.4769 32.6742 49.7824 33.7996 50.011 35.2075L50.0521 35.5586L50.0768 35.9389C50.1116 36.4116 50.1884 37.7354 50.2258 38.2191C50.3886 40.7826 50.736 45.8805 50.8923 48.4714C50.96 50.0101 49.7916 51.3614 48.2666 51.5369H48.2675Z" fill="#1E1E22"/>
<path d="M50.4024 36.7964C49.1627 36.9472 47.9239 37.0981 46.6842 37.2499C44.0904 37.5662 41.4976 37.8816 38.9039 38.1979C35.7397 38.5837 32.5755 38.9686 29.4113 39.3544C25.9454 39.7768 22.4795 40.1992 19.0136 40.6216C18.8554 40.6408 18.6972 40.66 18.5391 40.6792L18.5766 41.2122C21.3614 40.873 24.1452 40.5338 26.93 40.1946C30.193 39.7969 33.455 39.3992 36.718 39.0025C39.4753 38.6669 42.2327 38.3305 44.9891 37.995C46.8058 37.7737 48.6224 37.5525 50.439 37.3312L50.4015 36.7982L50.4024 36.7964Z" fill="#1E1E22"/>
<path d="M21.7053 51.0342C21.591 50.7562 21.5188 50.4765 21.4511 50.1848C21.4008 49.9691 21.367 49.7387 21.2463 49.5448C21.2024 49.4735 21.0525 49.4763 20.9867 49.5394C20.5634 49.9489 20.9949 50.9144 21.1796 51.3569C21.4283 51.953 21.8744 52.6716 22.4696 52.9696C22.774 53.1214 23.0657 52.7566 22.8325 52.4988C22.3964 52.0161 21.9622 51.6604 21.7044 51.0351L21.7053 51.0342Z" fill="#DCDCDC"/>
<path d="M24.4834 53.1535C24.3243 53.0849 24.1799 53.095 24.0107 53.0904C23.8937 53.0867 23.7383 53.0666 23.6368 53.1334C23.5938 53.1617 23.5536 53.2138 23.5591 53.2687C23.5765 53.4296 23.7127 53.542 23.8471 53.6197C24.0089 53.713 24.2228 53.788 24.4066 53.7377C24.5282 53.7048 24.6205 53.596 24.6352 53.4725C24.6489 53.3583 24.5986 53.2047 24.4825 53.1544L24.4834 53.1535Z" fill="#DCDCDC"/>
<path d="M21.3059 50.8786C21.1916 50.6007 21.1194 50.3209 21.0517 50.0293C21.0014 49.8135 20.9676 49.5831 20.8469 49.3893C20.803 49.318 20.6531 49.3208 20.5873 49.3838C20.164 49.7934 20.5955 50.7589 20.7802 51.2014C21.0288 51.7975 21.475 52.516 22.0702 52.8141C22.3746 52.9659 22.6663 52.6011 22.4331 52.3433C21.997 51.8605 21.5628 51.5049 21.305 50.8795L21.3059 50.8786Z" fill="#1E1E22"/>
<path d="M24.2285 53.2677C24.0695 53.1992 23.925 53.2092 23.7558 53.2047C23.6388 53.201 23.4834 53.1809 23.3819 53.2476C23.339 53.276 23.2987 53.3281 23.3042 53.3829C23.3216 53.5438 23.4578 53.6563 23.5922 53.734C23.754 53.8273 23.968 53.9022 24.1517 53.8519C24.2733 53.819 24.3657 53.7102 24.3803 53.5868C24.394 53.4725 24.3437 53.3189 24.2276 53.2687L24.2285 53.2677Z" fill="#1E1E22"/>
<path d="M48.9301 34.6077C48.7518 34.3444 48.547 34.1022 48.3075 33.8937C48.185 33.7877 48.0551 33.6606 47.9162 33.5765C47.7772 33.4923 47.6711 33.4064 47.5139 33.3735C47.3173 33.3324 47.1875 33.5637 47.311 33.6743C47.4152 33.7675 47.5285 33.8407 47.6337 33.9339C47.7425 34.0299 47.8723 34.1223 47.9756 34.2237C48.0771 34.3243 48.1713 34.4313 48.2618 34.541C48.2846 34.5684 48.3066 34.5968 48.3285 34.6242C48.3285 34.6242 48.3285 34.6242 48.3285 34.6251C48.3303 34.6269 48.3313 34.6297 48.334 34.6333C48.3441 34.648 48.355 34.6617 48.366 34.6763C48.4098 34.7366 48.4519 34.7988 48.4922 34.8619C48.5635 34.9725 48.7198 35.0283 48.8368 34.9524C48.9456 34.882 49.0059 34.7238 48.9273 34.6077H48.9301Z" fill="#1E1E22"/>
<path d="M81.3563 74.8921C81.3243 74.6819 81.3024 74.4597 81.2119 74.2668C81.1525 74.1406 80.9678 74.073 80.838 74.115C80.6935 74.1616 80.6039 74.2832 80.5948 74.4341C80.5847 74.6188 80.6515 74.819 80.6835 75.0009C80.7155 75.1874 80.7237 75.2706 80.7411 75.4626C80.7557 75.619 80.7657 75.7716 80.7611 75.9289C80.7611 75.9554 80.7593 75.9819 80.7575 76.0075C80.7575 76.0102 80.7575 76.0121 80.7566 76.0148C80.752 76.0459 80.7474 76.077 80.7438 76.1081C80.741 76.12 80.7374 76.141 80.7356 76.1492C80.7255 76.1867 80.7255 76.2251 80.7328 76.2626C80.7328 76.2644 80.7319 76.2699 80.731 76.2809C80.7173 76.4162 80.8681 76.4985 80.9824 76.4729C81.0135 76.4665 81.0126 76.4655 80.9797 76.4701C81.0254 76.4701 81.0683 76.4582 81.1077 76.4354C81.1497 76.4125 81.1845 76.3778 81.2155 76.3421C81.2869 76.2608 81.3289 76.1684 81.3627 76.066C81.4194 75.8951 81.4203 75.6967 81.4213 75.5175C81.4213 75.309 81.3874 75.0969 81.3563 74.8912V74.8921Z" fill="white"/>
<path d="M78.7214 33.9706C77.0502 34.4826 75.3781 34.9918 73.7087 35.5084C72.9023 35.7579 72.0977 36.013 71.2932 36.2663C70.4978 36.5159 69.5278 36.6905 68.8238 37.1476C68.5605 37.3186 68.651 37.7638 68.9893 37.7583C69.8304 37.7446 70.7273 37.3542 71.5272 37.1165C72.3364 36.8761 73.1455 36.6393 73.9528 36.3952C75.6258 35.8905 77.2971 35.3785 78.9693 34.8702C79.5416 34.6965 79.2974 33.7951 78.7214 33.9715V33.9706Z" fill="#1E1E22"/>
<path d="M69.6422 41.9482C70.2867 41.9857 70.9459 41.9089 71.5914 41.9016C72.2377 41.8943 72.9033 41.9683 73.5451 41.919C74.0287 41.8815 74.2235 41.0879 73.6694 41.0038C72.992 40.9005 72.2752 40.9508 71.5922 40.9846C70.9184 41.0184 70.1981 41.0395 69.5435 41.2122C69.1211 41.3238 69.2308 41.9254 69.6431 41.9491L69.6422 41.9482Z" fill="#1E1E22"/>
<path d="M77.4965 47.3698C76.6974 47.1686 75.849 47.0891 75.0353 46.9565C74.2134 46.8221 73.3906 46.6887 72.5705 46.546C71.7486 46.4034 70.9258 46.2654 70.102 46.1374C69.8927 46.1045 68.7261 45.8247 68.8331 46.3202C68.8953 46.6064 69.1302 46.6384 69.388 46.7207C69.7272 46.8285 70.0746 46.9063 70.4211 46.9876C71.2019 47.1705 71.9836 47.3396 72.7689 47.4969C73.5259 47.6477 74.2829 47.7976 75.0426 47.933C75.8097 48.0692 76.5914 48.2548 77.3694 48.3105C77.9116 48.3498 78.0148 47.5005 77.4965 47.3698Z" fill="#1E1E22"/>
</g>
</g>
<defs>
<radialGradient id="paint0_radial_2291_27335" cx="0" cy="0" r="1" gradientUnits="userSpaceOnUse" gradientTransform="translate(-50.5034 -1.92773) rotate(90) scale(133.538)">
<stop offset="0.265" stop-color="#D27C71"/>
<stop offset="1" stop-color="#D27C71" stop-opacity="0"/>
</radialGradient>
<radialGradient id="paint1_radial_2291_27335" cx="0" cy="0" r="1" gradientUnits="userSpaceOnUse" gradientTransform="translate(159.091 189.468) rotate(90) scale(189.216)">
<stop stop-color="#B68EFF"/>
<stop offset="1" stop-color="#B68EFF" stop-opacity="0"/>
</radialGradient>
<clipPath id="clip0_2291_27335">
<rect width="96" height="96" rx="48" fill="white"/>
</clipPath>
<clipPath id="clip1_2291_27335">
<rect width="96" height="96" fill="white"/>
</clipPath>
</defs>
</svg>
