<svg width="96" height="96" viewBox="0 0 96 96" fill="none" xmlns="http://www.w3.org/2000/svg">
<g clip-path="url(#clip0_2291_1436)">
<rect width="96" height="96" rx="48" fill="#8B47F4"/>
<mask id="mask0_2291_1436" style="mask-type:alpha" maskUnits="userSpaceOnUse" x="0" y="0" width="96" height="96">
<circle cx="48" cy="48" r="48" fill="#8B47F4"/>
</mask>
<g mask="url(#mask0_2291_1436)">
<circle cx="-50.5034" cy="-1.92773" r="133.538" fill="url(#paint0_radial_2291_1436)"/>
<circle cx="159.091" cy="189.468" r="189.216" fill="url(#paint1_radial_2291_1436)"/>
</g>
<g clip-path="url(#clip1_2291_1436)">
<path d="M6.87097 31.512C7.07471 31.088 7.01845 30.5641 7.05823 30.1062C7.10286 29.6008 7.15234 29.0972 7.25615 28.5995C7.46862 27.5799 7.9052 26.6932 8.37962 25.7773C8.67261 25.2098 7.781 24.6723 7.41428 25.202C6.77299 26.1266 6.38589 27.2578 6.1676 28.3551C6.05991 28.8974 5.99202 29.4533 6.00075 30.0073C6.00851 30.5195 6.01918 31.1569 6.35486 31.5741C6.49941 31.7536 6.77201 31.7196 6.87097 31.513V31.512Z" fill="#1E1E22"/>
<path d="M10.911 37.8112C11.0614 37.2815 10.8848 36.6247 10.8266 36.0873C10.7616 35.4896 10.684 34.8939 10.6433 34.2934C10.5627 33.1282 10.5355 31.965 10.6287 30.7998C10.7228 29.6278 10.9052 28.4578 11.1807 27.315C11.3126 26.7678 11.4689 26.2284 11.6503 25.6948C11.8511 25.102 12.1402 24.5306 12.3187 23.9329C12.4274 23.5711 12.3585 23.2034 12.0122 22.9967C11.724 22.825 11.235 22.8512 11.0429 23.1723C10.3852 24.2686 10.0311 25.6201 9.71866 26.8512C9.40335 28.0959 9.20349 29.3649 9.12879 30.6465C9.05505 31.9087 9.06088 33.1893 9.23357 34.4438C9.31992 35.0725 9.4286 35.6972 9.5945 36.3104C9.75264 36.8935 9.91463 37.5968 10.3658 38.0257C10.5714 38.2216 10.8499 38.0276 10.912 37.8103L10.911 37.8112Z" fill="#1E1E22"/>
<path d="M82.8181 48.8558C82.8714 49.3845 83.1052 49.8851 83.2731 50.3857C83.4409 50.8873 83.5835 51.4054 83.6874 51.9244C83.7892 52.4318 83.8494 52.9441 83.8843 53.4602C83.9211 54.0064 83.7776 54.7088 84.024 55.2017C84.2626 55.68 84.9971 55.9264 85.3521 55.3957C85.7315 54.8291 85.649 54.1073 85.6054 53.4486C85.5637 52.8373 85.4492 52.2358 85.3007 51.6411C85.031 50.5574 84.5663 49.0964 83.6224 48.4105C83.2789 48.1611 82.7744 48.4192 82.8181 48.8558Z" fill="#1E1E22"/>
<path d="M84.9365 42.341C85.0985 43.0085 85.4419 43.6333 85.7068 44.2649C85.9794 44.9178 86.189 45.6144 86.5596 46.2188C86.8584 46.7048 87.7208 46.3595 87.6112 45.8036C87.4686 45.075 87.0941 44.4026 86.7458 43.7536C86.416 43.1385 86.0851 42.4759 85.5874 41.9801C85.3527 41.7463 84.8559 42.0121 84.9365 42.341Z" fill="#1E1E22"/>
<path d="M87.7943 49.0681C87.9873 50.6718 88.3405 52.2552 88.5345 53.8608C88.6286 54.6369 88.6936 55.417 88.7305 56.1979C88.7499 56.618 88.7751 57.0371 88.7945 57.4572C88.8129 57.8569 88.7693 58.2819 88.9497 58.6467C89.136 59.025 89.6143 59.025 89.8142 58.6612C90.0101 58.3042 89.9772 57.8822 89.9878 57.4844C89.9995 57.0701 90.0082 56.6568 89.9888 56.2435C89.95 55.4024 89.8733 54.5632 89.7657 53.7288C89.5551 52.1009 89.2223 50.3856 88.5277 48.8877C88.3521 48.5093 87.739 48.6238 87.7923 49.0691L87.7943 49.0681Z" fill="#1E1E22"/>
<path d="M50.576 13.3065L21.1991 22.0536C15.6177 23.7155 12.4288 29.6084 14.0907 35.1898L33.0983 99.0261C34.7602 104.608 40.653 107.796 46.2344 106.135L75.6112 97.3875C81.1926 95.7256 84.3816 89.8328 82.7197 84.2514L64.2903 19.0131C62.6284 13.4317 56.1564 11.6446 50.575 13.3065H50.576ZM74.9098 86.5769C75.2891 87.8517 74.5615 89.1973 73.2867 89.5767L43.9099 98.3237C42.6351 98.7031 41.2895 97.9754 40.9101 96.7006L21.9025 32.8643C21.5231 31.5894 22.2508 30.2438 23.5256 29.8645L52.9024 21.1174C54.1772 20.7381 55.5229 21.4657 55.9022 22.7405L74.9098 86.5769Z" fill="#1E1E22"/>
<path d="M54.1081 13.2679L24.7313 22.015C19.1499 23.6769 15.961 29.5697 17.6229 35.1511L36.6305 98.9875C38.2924 104.569 44.1852 107.758 49.7666 106.096L79.1434 97.3489C84.7248 95.687 87.9138 89.7941 86.2519 84.2127L67.2443 20.3764C65.5824 14.795 59.6895 11.606 54.1081 13.2679ZM78.442 86.5382C78.8213 87.813 78.0937 89.1587 76.8189 89.538L47.4421 98.2851C46.1673 98.6644 44.8217 97.9368 44.4423 96.662L25.4347 32.8256C25.0554 31.5508 25.783 30.2052 27.0578 29.8258L56.4346 21.0788C57.7094 20.6994 59.055 21.4271 59.4344 22.7019L78.442 86.5382Z" fill="#1E1E22"/>
<path d="M55.2738 17.1844L25.8966 25.931C22.4631 26.9533 20.5084 30.5654 21.5307 33.9989L40.537 97.8357C41.5593 101.269 45.1714 103.224 48.6049 102.202L77.9821 93.4551C81.4155 92.4328 83.3702 88.8207 82.348 85.3872L63.3416 21.5504C62.3194 18.1169 58.7073 16.1622 55.2738 17.1844Z" fill="white"/>
<path d="M55.271 17.1729L25.8941 25.9199C22.4607 26.9425 20.5058 30.5545 21.5284 33.9879L40.536 97.8243C41.3092 100.419 43.562 102.17 46.099 102.428L23.6666 33.5678C23.6666 33.5678 22.4248 29.854 25.215 28.4356C28.0043 27.0172 54.6694 19.088 54.6694 19.088C54.6694 19.088 60.9591 18.0189 63.9482 23.5809L63.3399 21.5377C62.3173 18.1042 58.7054 16.1493 55.2719 17.1719L55.271 17.1729Z" fill="#DCDCDC"/>
<path d="M56.3352 16.9517C55.9801 16.9953 55.6251 17.0671 55.2709 17.1729L29.6836 24.7916L31.1767 26.4205C31.8364 27.1404 32.8376 27.4392 33.7845 27.1996C33.7845 27.1996 41.5789 25.3427 44.1372 24.5811C46.6956 23.8195 54.2367 21.1098 54.2367 21.1098C55.1603 20.7926 55.8346 19.9941 55.9927 19.0307L56.3352 16.9517Z" fill="#DCDCDC"/>
<path d="M64.2323 22.7697C64.1546 22.5048 63.9082 21.6957 63.8364 21.4493C62.8857 18.0178 59.233 15.8077 55.7549 16.5557C55.4474 16.6246 55.1165 16.7032 54.8245 16.8031L53.9445 17.067L25.7843 25.5483C22.9456 26.3593 20.8694 29.1457 20.8908 32.094C20.8704 33.0545 21.1343 33.9907 21.4224 34.8949C24.7404 45.9413 31.7839 69.3768 35.1737 80.6637C35.9479 83.1687 39.7926 96.0516 40.5115 98.2627C41.4662 100.948 44.2865 102.775 47.1213 102.566C47.7403 102.536 48.3593 102.387 48.9443 102.201C58.6169 99.261 68.3002 96.3543 77.9951 93.4894C81.0444 92.6376 83.0885 89.4671 82.6413 86.3393C82.5637 85.7261 82.3706 85.1353 82.1998 84.5435C82.1998 84.5435 81.1744 81.013 81.1734 81.013C75.7666 62.1936 69.8651 41.5551 64.2313 22.7687L64.2323 22.7697ZM82.5404 87.2667C82.5656 90.0269 80.6223 92.6318 77.9689 93.3963C68.2856 96.301 58.5897 99.1649 48.8851 101.995C48.302 102.175 47.718 102.305 47.1107 102.332C44.3922 102.505 41.7039 100.726 40.8191 98.1501C40.107 95.846 36.398 83.0465 35.6403 80.524C32.3349 69.3205 25.3477 45.6444 22.1151 34.6873C21.8522 33.8403 21.6058 32.9905 21.6271 32.096C21.6194 29.4697 23.4792 27.0006 26.0065 26.2895L54.2191 17.9848C54.6043 17.8713 55.3697 17.6404 55.7384 17.5463C57.4643 17.1291 59.3581 17.5405 60.762 18.6261C61.7797 19.4003 62.5257 20.5043 62.876 21.7326L63.0059 22.173C63.1321 22.5815 63.6725 24.451 63.7899 24.8158C69.5294 44.2445 76.0994 65.2623 82.0165 84.5949C82.2959 85.4622 82.5549 86.3431 82.5404 87.2629V87.2667Z" fill="#1E1E22"/>
<path d="M18.2742 26.8416C17.6969 27.023 17.2273 27.6274 16.9266 28.1261C16.5958 28.6742 16.3823 29.2951 16.2873 29.9277C16.1776 30.6534 16.2252 31.4052 16.3435 32.1261C16.459 32.8304 16.5783 33.6997 16.9237 34.3313C17.0605 34.5806 17.4117 34.5069 17.4098 34.2119C17.404 33.5503 17.1391 32.876 17.0372 32.2221C16.9353 31.5721 16.8849 30.9085 16.9654 30.2527C17.0353 29.6822 17.1934 29.1234 17.4728 28.6189C17.7736 28.0746 18.2295 27.7758 18.6525 27.349C18.9019 27.0977 18.5507 26.7552 18.2752 26.8425L18.2742 26.8416Z" fill="white"/>
<path d="M17.5861 37.7016C18.4137 40.7935 19.4906 43.8282 20.4734 46.8736C21.4717 49.9704 22.4487 53.0739 23.4082 56.1824C25.3485 62.4642 27.2229 68.7655 29.072 75.0745C30.0917 78.5526 31.1035 82.0336 32.1145 85.5146C32.2794 86.0831 33.1361 85.7416 32.9711 85.176C31.1637 78.9785 29.3524 72.781 27.5013 66.5962C25.6163 60.2988 23.6895 54.014 21.6764 47.7564C20.5704 44.3191 19.5187 40.8216 18.1188 37.491C17.9723 37.1427 17.493 37.3533 17.5861 37.7016Z" fill="white"/>
<path d="M26.4453 23.8341L28.3857 25.95C29.0454 26.6699 30.0466 26.9687 30.9935 26.729C30.9935 26.729 38.7878 24.8721 41.3462 24.1106C43.9045 23.349 51.4457 20.6393 51.4457 20.6393C52.3693 20.322 53.0436 19.5236 53.2017 18.5602L53.6684 15.7273L26.4453 23.8331V23.8341Z" fill="#1E1E22"/>
<path d="M31.4295 24.6887C33.5367 24.0852 35.64 23.4731 37.7443 22.8599C38.9696 22.5029 40.196 22.1468 41.4213 21.7898C42.6767 21.4241 43.9621 21.1359 45.2088 20.744C45.918 20.5208 45.5135 19.4721 44.8111 19.669C43.5867 20.0134 42.3866 20.4626 41.169 20.8332C39.9185 21.2135 38.6669 21.5938 37.4164 21.9742C35.3218 22.6106 33.2262 23.2461 31.1297 23.8786C30.5951 24.0397 30.8988 24.841 31.4295 24.6887Z" fill="white"/>
<path d="M48.6007 18.6299C48.0069 17.878 46.9193 18.7385 47.2841 19.5408C47.8293 20.5392 49.172 19.5195 48.6103 18.6444L48.5997 18.6299H48.6007Z" fill="white"/>
<path d="M47.8972 68.8829C47.8972 68.8829 46.3032 59.7206 51.9049 56.9265C57.5067 54.1315 62.7039 64.4745 62.7039 64.4745C62.7039 64.4745 55.5315 69.5543 47.8972 68.8839V68.8829Z" fill="#1E1E22"/>
<path d="M48.59 57.4437C48.59 57.4437 45.339 60.8694 47.2696 62.41C49.2003 63.9507 52.7735 60.3998 53.2576 58.5691C53.2576 58.5691 55.9032 60.5822 57.4865 60.0253C59.0699 59.4685 60.2602 57.6969 57.8998 55.0144L48.59 57.4437Z" fill="white"/>
<path d="M58.934 56.556C58.8351 56.3358 58.7089 56.1059 58.5537 55.8682C58.5382 55.8439 58.5227 55.8197 58.5052 55.7944C58.479 55.7546 58.4509 55.7149 58.4227 55.6751C58.3975 55.6392 58.3723 55.6033 58.3451 55.5674C58.3199 55.5335 58.2947 55.4985 58.2675 55.4636C58.2326 55.418 58.1967 55.3714 58.1588 55.3258C58.1365 55.2987 58.1152 55.2705 58.0929 55.2434C58.0308 55.1677 57.9668 55.092 57.8988 55.0154L56.3795 55.4122L48.5891 57.4447C48.5891 57.4447 46.6332 59.5063 46.6575 61.1498C47.5811 60.9761 48.9519 60.6841 50.5178 60.2427C50.2675 60.751 49.9473 61.1934 49.5369 61.5068C48.7889 62.0773 48.1263 62.4129 47.583 62.6099C49.2391 63.4268 51.7732 61.2643 52.8258 59.5199C52.8258 59.5199 52.8258 59.5199 52.8268 59.5199C52.8316 59.5112 52.8365 59.5034 52.8414 59.4947C52.8511 59.4791 52.8598 59.4626 52.8695 59.4471C52.8967 59.4006 52.9228 59.354 52.948 59.3074C52.9539 59.2968 52.9607 59.2851 52.9665 59.2744C52.9956 59.2201 53.0218 59.1667 53.048 59.1144C53.0548 59.0998 53.0616 59.0853 53.0684 59.0707C53.0916 59.0222 53.113 58.9737 53.1324 58.9261C53.1353 58.9203 53.1372 58.9145 53.1401 58.9087C53.1615 58.8563 53.1809 58.8058 53.1983 58.7554C53.2032 58.7428 53.2071 58.7302 53.2109 58.7185C53.2274 58.6681 53.244 58.6186 53.2566 58.5701C53.2566 58.5701 53.5583 58.7991 54.0172 59.0814C55.1212 58.6526 56.2321 58.151 57.2838 57.5708C57.5079 58.2839 57.6078 58.9349 57.4138 59.3045C57.2217 59.6693 56.9054 59.9245 56.561 60.1039C56.8889 60.1418 57.2042 60.1253 57.4855 60.0253C58.7419 59.5829 59.749 58.3761 58.9321 56.556H58.934Z" fill="#DCDCDC"/>
<path d="M58.0177 54.9104C57.9799 54.8667 57.9197 54.8463 57.8606 54.8619C55.1518 55.5953 51.3187 56.6703 48.575 57.4173C47.6408 58.339 46.4833 59.7971 46.4542 61.1602C46.4028 62.1566 47.3177 63.0288 48.2947 63.0482C50.0206 63.0889 51.7242 61.5483 52.6934 60.2415C52.9699 59.8592 53.2261 59.4576 53.4036 58.9977C54.4407 59.6817 55.7029 60.355 56.935 60.3453C57.4298 60.3356 57.8955 60.1241 58.302 59.8544C59.1421 59.3023 59.5817 58.3031 59.3682 57.3164C59.1829 56.386 58.6289 55.6021 58.0177 54.9113V54.9104ZM57.5074 59.7826C56.5751 60.1444 55.343 59.54 54.5174 59.0743C54.14 58.8561 53.7654 58.6087 53.4249 58.3496C53.2745 58.2313 53.0368 58.3118 52.9922 58.4981C52.4906 60.0106 50.5736 61.8946 49.0659 62.3962C47.6165 62.8852 46.5095 61.8461 46.9626 60.3686C47.2605 59.3043 47.9231 58.3351 48.6061 57.4677C50.9015 56.9021 55.4865 55.7729 57.8431 55.1898C58.1079 55.5031 58.3495 55.834 58.5513 56.1852C59.4128 57.6278 59.1654 59.1471 57.5084 59.7826H57.5074Z" fill="#1E1E22"/>
<path d="M34.6784 40.6548C34.6784 40.6548 33.4423 35.9543 34.9975 35.4149C36.5517 34.8755 38.5047 38.1052 38.5047 38.1052C38.5047 38.1052 44.5993 36.1765 47.8339 35.1365C47.8339 35.1365 47.1111 30.8929 49.131 30.5204C51.1509 30.1479 52.7293 34.5553 52.7293 34.5553C52.7293 34.5553 56.8759 34.274 58.5902 37.3456C60.3045 40.4171 62.0721 48.6558 61.0292 52.3202C59.9863 55.9845 47.698 60.0243 44.315 60.3076C40.9311 60.5909 37.9187 59.0493 36.3693 57.3001C34.82 55.5508 32.7545 51.1744 32.1986 47.2617C31.6437 43.349 33.9498 41.0623 34.6784 40.6548Z" fill="white"/>
<path d="M39.578 37.7657C38.9144 37.9763 38.504 38.1063 38.504 38.1063C38.504 38.1063 36.552 34.8766 34.9968 35.416C34.438 35.61 34.2401 36.3415 34.2148 37.1992C34.569 37.008 35.0812 36.8761 35.5906 37.2496C36.5045 37.921 37.8433 40.2086 37.8433 40.2086C37.8433 40.2086 39.7448 39.3966 39.577 37.7667L39.578 37.7657Z" fill="#DCDCDC"/>
<path d="M58.5891 37.3456C56.8739 34.274 52.7283 34.5553 52.7283 34.5553C52.7283 34.5553 51.1489 30.1479 49.13 30.5204C48.4654 30.6426 48.0977 31.185 47.9036 31.8573C48.2354 31.867 48.6196 32.0145 48.9951 32.4666C49.9847 33.6579 50.3853 35.7487 50.819 36.192C51.2517 36.6344 55.4002 38.3788 57.3347 42.7116C59.2692 47.0444 57.1377 50.6592 55.7941 52.0883C54.4504 53.5174 48.0696 57.2467 42.2456 58.2567C39.9376 58.6573 38.1515 58.3246 36.835 57.7774C38.4784 59.318 41.2434 60.5657 44.3159 60.3076C47.6999 60.0243 59.9871 55.9845 61.0301 52.3202C62.073 48.6558 60.3063 40.4171 58.5911 37.3456H58.5891Z" fill="#DCDCDC"/>
<path d="M56.2728 45.7803C55.9497 45.9452 55.5888 45.9937 55.2871 45.9966C55.7382 46.7078 56.6347 47.025 57.4778 47.059C58.349 47.0987 59.5277 47.09 60.3553 46.8911C60.6599 46.8184 60.916 46.766 61.1557 46.7155L61.0974 46.2576C59.9303 46.4953 58.7205 46.5351 57.5631 46.3381C57.0877 46.2363 56.6046 46.0801 56.2728 45.7812V45.7803Z" fill="#DCDCDC"/>
<path d="M43.1521 48.2949C43.3035 48.4647 43.4286 48.6762 43.5179 48.9362C43.6692 49.3515 43.6595 50.2605 43.4334 50.7C42.6806 51.9709 41.3262 52.8373 39.9942 53.4058C38.5864 54.0374 37.042 54.5341 35.5023 54.4788C35.2792 54.4788 35.0454 54.4526 34.8145 54.4031C34.9163 54.6719 35.0502 55.027 35.1433 55.2744C35.2743 55.2763 35.4043 55.2734 35.5333 55.2608C36.1901 55.1967 36.8304 55.1521 37.4572 54.962C38.3556 54.6894 39.4354 54.3799 40.2717 53.9666C41.6037 53.4485 43.1647 52.3493 44.002 51.155C44.1843 50.8824 44.327 50.5584 44.359 50.2139C44.4104 49.7289 44.4036 49.2147 44.2542 48.7373C44.1747 48.4657 44.0573 48.2348 43.9118 48.0388L43.1511 48.2959L43.1521 48.2949Z" fill="#DCDCDC"/>
<path d="M48.5657 36.2154C51.7624 36.0989 48.2543 41.8812 46.1829 42.1645C44.4066 42.407 44.5783 39.739 44.5783 39.739C42.9474 42.2188 40.653 44.325 38.2149 45.3563C38.2149 45.3563 33.5067 47.5208 32.9537 44.4317C32.8625 43.9224 33.0885 43.2055 34.2431 42.0898C35.3976 40.9741 42.1858 36.4472 48.5657 36.2144V36.2154Z" fill="#DCDCDC"/>
<path d="M47.8605 34.9678C51.0572 34.8513 47.5238 40.8033 45.4525 41.0866C43.6761 41.3292 43.8479 38.6612 43.8479 38.6612C42.217 41.141 39.9225 43.2472 37.4845 44.2785C37.4845 44.2785 32.7762 46.4429 32.2232 43.3539C32.132 42.8446 32.3581 42.1276 33.5126 41.0119C34.6671 39.8962 41.4806 35.1996 47.8614 34.9678H47.8605Z" fill="#1E1E22"/>
<path d="M58.5834 36.8555C57.5317 35.2838 55.6408 34.5251 53.8189 34.3621C53.5055 34.334 53.5181 34.3117 53.1989 34.3194C53.0466 33.9333 52.8196 33.3755 52.6352 33.0058C51.9765 31.7233 49.9013 29.3182 48.1715 30.1574C46.8482 30.9132 46.7812 33.8596 46.9704 35.2392C46.7172 35.3216 39.0247 37.7548 38.8821 37.8014C38.2039 36.7769 36.5449 34.8395 35.2245 35.0054C34.9975 35.0354 34.6958 35.0771 34.4474 35.3944C33.616 36.4102 33.9274 39.3566 34.2127 40.5809L34.622 40.5858L34.6318 40.6246C34.6318 40.6246 34.6347 40.6362 34.6366 40.643C34.4833 40.0832 33.8217 40.87 33.5801 41.1145C32.3247 42.4301 31.9182 44.4558 31.9424 46.2661C31.9424 46.9899 32.053 47.7136 32.1869 48.4228C32.3965 49.5667 32.7312 50.7076 33.1105 51.8068C33.6897 53.4231 34.3902 54.9938 35.3215 56.4442C35.6407 56.9477 36.0152 57.4348 36.4305 57.8646C38.3757 59.7865 41.1445 60.8139 43.8698 60.7227C44.968 60.6936 46.0555 60.4297 47.1082 60.1707C48.5052 59.8165 49.8741 59.379 51.2256 58.8958C54.1788 57.8093 58.5717 56.028 60.6469 53.6521C61.0282 53.2116 61.3115 52.6722 61.4231 52.0949C62.2652 48.3287 60.6237 40.123 58.5824 36.8564L58.5834 36.8555ZM60.9147 47.2606C61.0437 48.6489 61.0971 50.0712 60.8846 51.4449C60.8429 51.7292 60.7692 52.029 60.6877 52.3035C59.9804 54.1653 56.6702 55.7554 54.9006 56.58C52.3277 57.7394 49.6364 58.6727 46.9103 59.3955C45.8926 59.6497 44.8855 59.9048 43.8426 59.9388C41.454 60.0261 39.0043 59.215 37.1998 57.6356C36.6856 57.1874 36.2432 56.6518 35.8668 56.0833C34.7967 54.4796 33.9895 52.6916 33.3414 50.8764C33.0611 50.0459 32.7981 49.1902 32.6128 48.3355C32.4605 47.6535 32.3295 46.9579 32.3062 46.2584C32.1927 44.1958 33.0213 41.9227 34.7171 40.6692C34.722 40.6488 34.7132 40.6236 34.7094 40.6062C34.7035 40.579 34.687 40.5179 34.6812 40.4897C34.4193 39.3042 34.2039 38.076 34.3009 36.8603C34.4484 35.0199 35.7261 35.1441 36.8389 36.187C37.455 36.7585 37.974 37.4473 38.4183 38.1584L38.4611 38.2273L38.5376 38.203L47.8863 35.2925L48.0192 35.2508C47.9416 34.7628 47.8969 34.2632 47.8863 33.7655C47.8834 32.9098 47.9212 31.9474 48.3975 31.2256C48.7361 30.7017 49.4298 30.5561 49.9711 30.8491C51.2168 31.5292 52.0949 33.487 52.579 34.7842L52.7468 34.7774C54.106 34.7434 55.5399 35.0374 56.708 35.7475C57.6015 36.2811 58.2467 37.0932 58.6581 38.041C59.9241 40.9457 60.5781 44.1172 60.9167 47.2596L60.9147 47.2606Z" fill="#1E1E22"/>
<path d="M59.6641 51.1269C59.536 51.4626 59.4409 51.7944 59.2789 52.1194C59.1237 52.4288 58.9151 52.7073 58.7667 53.0197C58.6774 53.2069 58.8705 53.367 59.0451 53.2816C59.7165 52.9537 60.2675 52.0272 60.3587 51.2967C60.416 50.8358 59.829 50.6971 59.665 51.1269H59.6641Z" fill="#1E1E22"/>
<path d="M60.393 49.4768C60.294 49.3458 60.0699 49.3167 59.9875 49.4894C59.9409 49.5884 59.9234 49.6883 59.8972 49.7931C59.8613 49.9357 59.8274 50.0463 59.8623 50.1976C59.9292 50.4838 60.3726 50.5294 60.4977 50.2636C60.5725 50.1045 60.554 49.9619 60.5181 49.796C60.4939 49.6844 60.4628 49.569 60.393 49.4768Z" fill="#1E1E22"/>
<path d="M49.1692 34.442C49.5321 33.8056 49.47 32.9761 49.7775 32.3038C49.9871 31.8458 49.2915 31.4713 49.0897 31.9312C48.9199 32.3202 48.8044 32.7258 48.7394 33.1449C48.6774 33.5436 48.591 33.9996 48.7055 34.3935C48.7676 34.6069 49.0625 34.6293 49.1692 34.442Z" fill="#DCDCDC"/>
<path d="M48.8049 34.079C49.1678 33.4425 49.1057 32.613 49.4132 31.9407C49.6228 31.4828 48.9272 31.1083 48.7254 31.5682C48.5556 31.9572 48.4402 32.3627 48.3752 32.7819C48.3131 33.1806 48.2267 33.6366 48.3412 34.0305C48.4033 34.2439 48.6982 34.2662 48.8049 34.079Z" fill="#1E1E22"/>
<path d="M34.2472 54.283L34.3054 54.2461C33.93 54.0928 33.5991 53.8629 33.3886 53.5505C32.7589 52.6541 33.2382 51.5384 33.9949 50.866C35.651 49.3448 38.2142 48.264 40.4078 47.8051C41.4546 47.583 42.6751 47.5684 43.2863 48.4678L43.9702 48.1204C43.2348 47.0193 41.6438 46.9339 40.3913 47.1493C38.1192 47.5034 33.8349 49.077 32.5591 51.0455C31.9217 52.0293 31.9285 53.3235 32.6716 54.2063C33.311 54.1811 34.2472 54.283 34.2472 54.283Z" fill="#DCDCDC"/>
<path d="M64.5957 41.1321C64.5957 41.1321 64.5278 40.9604 64.4831 40.7586C64.1232 40.5471 63.7167 40.4044 63.3296 40.322C61.0904 39.8553 58.7368 40.4898 56.8149 41.6763C56.0785 42.1488 55.3538 42.8493 55.0812 43.736C54.9114 44.2696 54.9066 44.8469 55.0404 45.3872C55.0618 45.4843 55.089 45.5774 55.1229 45.6647C55.3664 45.8296 55.7332 45.9325 56.2648 45.7724C56.1173 45.6376 56.0009 45.4726 55.9301 45.2718C55.7273 44.6228 55.8389 43.9553 56.2231 43.3703C56.7567 42.5262 57.7026 41.9635 58.6146 41.5434C60.0398 40.8827 61.6686 40.5655 63.2306 40.8216C63.74 40.9128 64.2396 41.0826 64.6248 41.3921C64.6684 41.426 64.7092 41.4619 64.749 41.4998C64.65 41.1709 64.5976 41.133 64.5976 41.133L64.5957 41.1321Z" fill="#DCDCDC"/>
<path d="M54.8577 43.8467C51.9054 44.1144 49.0347 44.9624 46.4007 46.3245C45.2792 46.9047 44.1586 47.5692 43.1865 48.3803C43.2709 48.5569 43.3611 48.8256 43.3893 49.1943C43.497 49.1972 43.6085 49.1632 43.7085 49.0769C43.8317 48.9711 43.7085 49.072 43.8579 48.9566C44.0665 48.7965 44.278 48.6393 44.4943 48.488C45.2171 47.9835 45.9767 47.5294 46.7587 47.1191C49.2734 45.8016 52.0413 44.9789 54.8683 44.7208C54.8082 44.4297 54.8237 44.1057 54.8567 43.8457L54.8577 43.8467Z" fill="#DCDCDC"/>
<path d="M39.7232 46.9435C37.451 47.2976 33.1667 48.8712 31.891 50.8397C31.1682 51.9554 31.274 53.4727 32.3431 54.3333C33.0445 54.9076 33.9992 55.1385 34.8655 55.0531C35.5223 54.9891 36.1627 54.9445 36.7894 54.7543C37.6878 54.4817 38.7675 54.1722 39.6038 53.7589C40.9359 53.2409 42.4969 52.1417 43.3342 50.9474C43.5166 50.6748 43.6591 50.3507 43.6912 50.0063C43.7426 49.5212 43.7358 49.007 43.5864 48.5297C43.0906 46.8465 41.1775 46.6922 39.7222 46.9425L39.7232 46.9435ZM42.7647 50.4943C42.0118 51.7652 40.6574 52.6316 39.3254 53.2001C37.9177 53.8317 36.3732 54.3284 34.8335 54.2731C34.0564 54.2722 33.1425 53.9753 32.7185 53.3456C32.0889 52.4492 32.5681 51.3335 33.3249 50.6612C34.9809 49.1399 37.5441 48.0592 39.7377 47.6003C40.9417 47.3451 42.3746 47.3626 42.8481 48.7315C42.9994 49.1467 42.9897 50.0558 42.7637 50.4953L42.7647 50.4943Z" fill="#1E1E22"/>
<path d="M64.9026 41.3243C64.5417 40.4861 63.622 40.0418 62.7925 39.8642C60.5533 39.3976 58.1997 40.0321 56.2778 41.2186C55.5414 41.691 54.8167 42.3915 54.5441 43.2783C54.3743 43.8118 54.3694 44.3891 54.5033 44.9295C54.7498 46.0743 55.8878 46.5603 56.9414 46.6021C57.8126 46.6418 58.9913 46.6331 59.8189 46.4342C60.6736 46.2285 61.1539 46.1859 61.9213 45.8967C62.9623 45.5659 64.1361 44.9673 64.8065 44.0757C65.3256 43.3791 65.2489 42.1354 64.9016 41.3263L64.9026 41.3243ZM64.4311 43.7022C63.8597 44.62 62.8206 45.1798 61.798 45.4679C60.2691 45.9792 58.6003 46.147 57.0267 45.8793C56.333 45.7299 55.621 45.466 55.393 44.8131C55.1902 44.164 55.3018 43.4965 55.686 42.9115C56.2196 42.0675 57.1655 41.5048 58.0774 41.0847C59.5026 40.424 61.1315 40.1068 62.6935 40.3629C63.2029 40.4541 63.7025 40.6239 64.0877 40.9333C64.9075 41.562 64.9656 42.8572 64.4321 43.7022H64.4311Z" fill="#1E1E22"/>
<path d="M54.7477 43.6082C51.7121 43.8507 48.7569 44.7093 46.0521 46.1083C44.9888 46.6584 43.9265 47.2841 42.9902 48.0399C43.0746 48.2446 43.1978 48.5764 43.2755 48.9218C43.3046 48.9053 43.3337 48.8859 43.3608 48.8617C43.484 48.7559 43.3608 48.8568 43.5102 48.7413C43.7188 48.5813 43.9303 48.4241 44.1467 48.2728C44.8695 47.7683 45.6291 47.3142 46.411 46.9038C48.9965 45.5485 51.8499 44.7161 54.7594 44.4833C55.3308 44.4377 55.3201 43.5626 54.7468 43.6082H54.7477Z" fill="#1E1E22"/>
<path d="M33.2936 53.0176C33.6564 52.941 33.7583 52.5908 33.9717 52.3181C34.2298 51.9912 34.5354 51.7186 34.9098 51.5313C35.3639 51.3043 35.0922 50.5515 34.6372 50.7833C34.1822 51.0152 33.7689 51.314 33.4449 51.7176C33.2014 52.0203 32.823 52.5364 33.0801 52.9167C33.1218 52.9788 33.2169 53.0322 33.2936 53.0167V53.0176Z" fill="#DCDCDC"/>
<path d="M33.1227 52.5462C33.4855 52.4696 33.5874 52.1193 33.8008 51.8467C34.0589 51.5198 34.3645 51.2471 34.7389 51.0599C35.193 50.8329 34.9213 50.08 34.4663 50.3119C34.0084 50.5457 33.598 50.8426 33.274 51.2462C33.0305 51.5489 32.6521 52.065 32.9092 52.4453C32.9509 52.5074 33.046 52.5608 33.1227 52.5452V52.5462Z" fill="#1E1E22"/>
<path d="M63.4852 42.795C63.1855 42.9891 63.0719 43.3956 62.8139 43.6517C62.5481 43.9146 62.2007 44.066 61.9358 44.324C61.833 44.424 61.8825 44.649 62.0377 44.6665C62.4966 44.7179 62.9332 44.4501 63.265 44.1523C63.591 43.8593 63.9917 43.4189 63.9121 42.9561C63.8801 42.7708 63.6278 42.7029 63.4852 42.795Z" fill="#DCDCDC"/>
<path d="M64.0936 41.8072C64.0674 41.781 64.0363 41.7626 64.0014 41.7519C63.9684 41.7354 63.9325 41.7286 63.8947 41.7305C63.8171 41.7325 63.7482 41.7664 63.6939 41.8198C63.6415 41.8712 63.6192 41.9469 63.6172 42.0187C63.6153 42.1157 63.6793 42.2185 63.7656 42.2612C63.787 42.2719 63.8103 42.2806 63.8336 42.2874C63.8695 42.2981 63.9054 42.2981 63.9413 42.2894C63.9548 42.2874 63.9675 42.2855 63.981 42.2835C64.0189 42.2738 64.0509 42.2554 64.0781 42.2292C64.1081 42.2079 64.1314 42.1807 64.1489 42.1468C64.1722 42.1031 64.1838 42.0565 64.1828 42.0061C64.178 41.9304 64.1499 41.8586 64.0936 41.8053V41.8072Z" fill="#DCDCDC"/>
<path d="M63.3368 42.4584C63.037 42.6524 62.9235 43.0589 62.6654 43.315C62.3996 43.5779 62.0523 43.7293 61.7874 43.9874C61.6846 44.0873 61.734 44.3124 61.8893 44.3298C62.3482 44.3812 62.7847 44.1135 63.1165 43.8156C63.4425 43.5226 63.8432 43.0822 63.7636 42.6194C63.7316 42.4341 63.4794 42.3662 63.3368 42.4584Z" fill="#1E1E22"/>
<path d="M63.9461 41.4708C63.9199 41.4446 63.8889 41.4261 63.854 41.4155C63.821 41.399 63.7851 41.3922 63.7472 41.3941C63.6696 41.3961 63.6007 41.43 63.5464 41.4834C63.494 41.5348 63.4717 41.6105 63.4698 41.6823C63.4678 41.7793 63.5318 41.8821 63.6182 41.9248C63.6395 41.9355 63.6628 41.9442 63.6861 41.951C63.722 41.9617 63.7579 41.9617 63.7938 41.9529C63.8074 41.951 63.82 41.9491 63.8336 41.9471C63.8714 41.9374 63.9034 41.919 63.9306 41.8928C63.9607 41.8714 63.984 41.8443 64.0014 41.8103C64.0247 41.7667 64.0364 41.7201 64.0354 41.6696C64.0305 41.594 64.0024 41.5222 63.9461 41.4688V41.4708Z" fill="#1E1E22"/>
<path d="M39.1244 52.1557C39.7858 51.9587 40.1268 51.1434 39.8859 50.3346C39.6451 49.5258 38.9137 49.0298 38.2523 49.2267C37.5909 49.4236 37.2499 50.2389 37.4907 51.0477C37.7315 51.8566 38.4629 52.3526 39.1244 52.1557Z" fill="#DCDCDC"/>
<path d="M38.5179 52.1337C39.1793 51.9368 39.5203 51.1214 39.2795 50.3126C39.0387 49.5038 38.3073 49.0078 37.6459 49.2047C36.9844 49.4016 36.6435 50.217 36.8843 51.0258C37.1251 51.8346 37.8565 52.3306 38.5179 52.1337Z" fill="#1E1E22"/>
<path d="M58.6196 44.7566C59.2394 44.572 59.5805 43.8804 59.3814 43.2118C59.1824 42.5432 58.5185 42.1507 57.8987 42.3353C57.2788 42.5198 56.9377 43.2115 57.1368 43.8801C57.3359 44.5487 57.9997 44.9411 58.6196 44.7566Z" fill="#DCDCDC"/>
<path d="M58.1411 44.5903C58.7609 44.4058 59.102 43.7141 58.9029 43.0455C58.7039 42.3769 58.04 41.9845 57.4202 42.169C56.8004 42.3536 56.4592 43.0452 56.6583 43.7138C56.8574 44.3824 57.5213 44.7749 58.1411 44.5903Z" fill="#1E1E22"/>
<path d="M52.4862 48.2523C52.3348 48.0049 51.9953 48.1242 51.9225 48.3629C51.8565 48.5792 51.9011 48.7898 51.7508 48.9809C51.6052 49.1652 51.3715 49.238 51.1435 49.1914C50.8456 49.1303 50.6574 48.8334 50.4954 48.5919C50.769 48.2484 51.3045 47.7012 51.3307 47.2191C51.3705 46.4759 50.3984 46.441 49.4476 46.7087C48.6239 46.9406 48.004 47.4014 48.2388 48.0165C48.3872 48.4056 48.8985 48.8878 49.6542 48.9295C49.726 49.4107 49.7299 49.6726 49.2186 49.9947C48.4939 50.4517 47.7236 50.1946 47.4898 49.3884C47.4587 49.2816 47.2337 49.1361 47.1716 49.3593C46.898 50.344 48.3464 50.9009 49.1682 50.6554C49.6319 50.5176 50.1539 50.0219 50.3673 49.5785C50.4022 49.5058 50.4459 49.4243 50.4653 49.3496C50.7127 49.6406 50.9484 49.9103 51.352 49.9006C52.0816 49.8822 52.9295 48.9809 52.4852 48.2533L52.4862 48.2523Z" fill="#DCDCDC"/>
<path d="M52.1557 48.1029C52.0044 47.8555 51.6648 47.9748 51.5921 48.2135C51.5261 48.4298 51.5707 48.6404 51.4203 48.8315C51.2748 49.0158 51.041 49.0886 50.813 49.042C50.5151 48.9809 50.327 48.684 50.1649 48.4424C50.4385 48.099 50.9741 47.5518 51.0002 47.0696C51.04 46.3265 50.0679 46.2916 49.1171 46.5593C48.2935 46.7912 47.6735 47.252 47.9083 47.8671C48.0567 48.2562 48.863 48.5036 49.4393 48.6229C49.511 49.1041 49.3985 49.5232 48.8882 49.8443C48.1635 50.3013 47.364 49.9918 47.1302 49.1856C47.0992 49.0789 46.9139 49.0808 46.9032 49.1992C46.814 50.2179 47.9956 50.6399 48.8174 50.3954C49.2811 50.2576 49.7177 49.9404 49.9311 49.498C49.966 49.4252 49.9913 49.3515 50.0116 49.2768C50.259 49.5678 50.618 49.7609 51.0226 49.7502C51.7521 49.7318 52.6001 48.8305 52.1557 48.1029Z" fill="#1E1E22"/>
<path d="M52.7275 46.7639C52.4559 46.7028 52.2609 47.0521 52.4695 47.2432C52.843 47.5488 53.2117 46.9279 52.745 46.7678L52.7275 46.7639Z" fill="#DCDCDC"/>
<path d="M53.6149 45.983C53.8332 45.6871 53.3937 45.365 53.1774 45.6619C52.9853 45.9442 53.3772 46.2566 53.6042 45.9956L53.6149 45.9821V45.983Z" fill="#DCDCDC"/>
<path d="M54.3571 46.899C54.1874 46.7098 53.8662 46.8553 53.8692 47.1017C53.908 47.6441 54.686 47.3423 54.3688 46.9106L54.3581 46.899H54.3571Z" fill="#DCDCDC"/>
<path d="M52.5742 46.7271C52.3026 46.6659 52.1076 47.0152 52.3161 47.2063C52.6897 47.5119 53.0584 46.891 52.5917 46.7309L52.5742 46.7271Z" fill="#1E1E22"/>
<path d="M53.4616 45.9462C53.6799 45.6503 53.2404 45.3282 53.024 45.625C52.832 45.9074 53.2239 46.2198 53.451 45.9588L53.4616 45.9452V45.9462Z" fill="#1E1E22"/>
<path d="M54.2048 46.8621C54.0351 46.6729 53.7139 46.8184 53.7168 47.0649C53.7556 47.6072 54.5337 47.3055 54.2164 46.8737L54.2058 46.8621H54.2048Z" fill="#1E1E22"/>
<path d="M45.7943 49.5358C45.9884 49.336 46.3425 49.5213 46.2726 49.7958C46.1271 50.2557 45.479 49.9384 45.7817 49.5484L45.7943 49.5358Z" fill="#DCDCDC"/>
<path d="M44.6255 49.367C44.2801 49.239 44.4722 48.7287 44.8166 48.8587C45.1319 48.9896 44.9747 49.466 44.642 49.3719L44.6255 49.367Z" fill="#DCDCDC"/>
<path d="M44.5037 50.5409C44.5425 50.2896 44.8918 50.2362 45.0237 50.4438C45.2876 50.9182 44.4717 51.0919 44.5018 50.5573L44.5047 50.5409H44.5037Z" fill="#DCDCDC"/>
<path d="M45.5316 49.5309C45.7257 49.3311 46.0798 49.5164 46.0099 49.7909C45.8644 50.2508 45.2163 49.9336 45.519 49.5436L45.5316 49.5309Z" fill="#1E1E22"/>
<path d="M44.3608 49.3631C44.0155 49.2351 44.2076 48.7248 44.552 48.8548C44.8673 48.9857 44.7101 49.4621 44.3774 49.368L44.3608 49.3631Z" fill="#1E1E22"/>
<path d="M44.241 50.536C44.2798 50.2847 44.6291 50.2313 44.761 50.439C45.0249 50.9134 44.209 51.087 44.2391 50.5525L44.242 50.536H44.241Z" fill="#1E1E22"/>
<path d="M68.1369 68.8355C64.8713 69.7455 61.6328 70.7671 58.3847 71.7344C55.1346 72.7026 51.8865 73.6796 48.6393 74.6556C46.8203 75.2028 44.8789 75.6306 43.1627 76.4523C42.6989 76.6745 42.9454 77.504 43.4557 77.4361C45.1244 77.2139 46.7611 76.6114 48.3725 76.1361C49.983 75.6607 51.5945 75.1853 53.205 74.7109C56.458 73.7514 59.708 72.7822 62.9581 71.8149C64.815 71.2619 66.6826 70.7371 68.5288 70.1511C69.3709 69.8843 68.9896 68.5969 68.1369 68.8345V68.8355Z" fill="#DCDCDC"/>
<path d="M63.175 74.633C60.8301 75.3403 58.4842 76.0456 56.1412 76.7577C55.0003 77.104 53.8555 77.4397 52.7214 77.8074C52.3944 77.9132 50.0398 78.5409 50.6267 79.2248C50.9333 79.5819 51.4718 79.4324 51.8705 79.3529C52.44 79.2384 52.9998 79.0851 53.5596 78.928C54.6762 78.6146 55.788 78.2789 56.9008 77.9539C59.1283 77.3039 61.354 76.6471 63.5795 75.9922C64.4556 75.7351 64.0501 74.3681 63.175 74.632V74.633Z" fill="#DCDCDC"/>
<path d="M67.8878 67.9981C64.6222 68.9081 61.3838 69.9297 58.1357 70.897C54.8856 71.8652 51.6374 72.8422 48.3903 73.8182C46.5712 74.3654 44.6299 74.7932 42.9137 75.6149C42.4499 75.8371 42.6963 76.6666 43.2067 76.5987C44.8754 76.3765 46.512 75.774 48.1235 75.2987C49.7339 74.8233 51.3454 74.3479 52.9559 73.8735C56.2089 72.914 59.459 71.9448 62.7091 70.9775C64.566 70.4245 66.4335 69.8996 68.2798 69.3137C69.1219 69.0469 68.7406 67.7594 67.8878 67.9971V67.9981Z" fill="#1E1E22"/>
<path d="M62.9259 73.7968C60.581 74.5041 58.2351 75.2094 55.8922 75.9215C54.7512 76.2679 53.6064 76.6035 52.4723 76.9712C52.1453 77.077 49.7908 77.7047 50.3777 78.3887C50.6843 78.7457 51.2227 78.5963 51.6215 78.5167C52.1909 78.4022 52.7508 78.2489 53.3105 78.0918C54.4272 77.7784 55.539 77.4427 56.6518 77.1177C58.8793 76.4677 61.1049 75.8109 63.3305 75.156C64.2065 74.8989 63.801 73.532 62.9259 73.7959V73.7968Z" fill="#1E1E22"/>
</g>
</g>
<defs>
<radialGradient id="paint0_radial_2291_1436" cx="0" cy="0" r="1" gradientUnits="userSpaceOnUse" gradientTransform="translate(-50.5034 -1.92773) rotate(90) scale(133.538)">
<stop offset="0.265" stop-color="#D27C71"/>
<stop offset="1" stop-color="#D27C71" stop-opacity="0"/>
</radialGradient>
<radialGradient id="paint1_radial_2291_1436" cx="0" cy="0" r="1" gradientUnits="userSpaceOnUse" gradientTransform="translate(159.091 189.468) rotate(90) scale(189.216)">
<stop stop-color="#B68EFF"/>
<stop offset="1" stop-color="#B68EFF" stop-opacity="0"/>
</radialGradient>
<clipPath id="clip0_2291_1436">
<rect width="96" height="96" rx="48" fill="white"/>
</clipPath>
<clipPath id="clip1_2291_1436">
<rect width="96" height="96" fill="white"/>
</clipPath>
</defs>
</svg>
