<svg width="96" height="96" viewBox="0 0 96 96" fill="none" xmlns="http://www.w3.org/2000/svg">
<g clip-path="url(#clip0_2565_10461)">
<rect width="96" height="96" rx="48" fill="#8B47F4"/>
<mask id="mask0_2565_10461" style="mask-type:alpha" maskUnits="userSpaceOnUse" x="0" y="0" width="96" height="96">
<circle cx="48" cy="48" r="48" fill="#8B47F4"/>
</mask>
<g mask="url(#mask0_2565_10461)">
<circle cx="-50.5034" cy="-1.92773" r="133.538" fill="url(#paint0_radial_2565_10461)"/>
<circle cx="159.091" cy="189.468" r="189.216" fill="url(#paint1_radial_2565_10461)"/>
</g>
<g clip-path="url(#clip1_2565_10461)">
<path d="M35.6929 21.3948L15.1645 32.6524C13.9691 33.3079 13.5314 34.8084 14.187 36.0038L25.4446 56.5322C26.1001 57.7276 27.6006 58.1653 28.796 57.5097L49.3244 46.2521C50.5199 45.5966 50.9575 44.0961 50.3019 42.9007L39.0443 22.3723C38.3888 21.1769 36.8883 20.7392 35.6929 21.3948Z" fill="#F1F1F1"/>
<path d="M35.9094 20.5594L35.6518 20.6522L35.4054 20.7693C35.3605 20.7908 35.3323 20.8068 35.3014 20.8236L35.2077 20.8751C32.6717 22.2476 29.3431 24.1082 26.8108 25.5153L15.0526 32.4498C13.7222 33.1759 13.1142 34.5999 13.7185 35.9864C13.8056 36.1569 13.964 36.5054 14.0717 36.6862C14.3846 37.2558 15.0123 38.455 15.327 39.0321C17.4612 42.8572 22.9426 52.7465 25.1517 56.7056C25.4702 57.2677 25.9836 57.7164 26.5841 57.9478C27.2596 58.2101 28.0287 58.1886 28.6901 57.9066C29.0424 57.7426 29.6851 57.351 30.0223 57.1693C36.2729 53.6102 43.0529 49.7214 49.3615 46.3235C50.5747 45.6817 51.2455 44.1828 50.6094 42.9668C46.9792 36.0707 43.3442 28.9132 39.6446 22.0584C38.957 20.7515 37.3156 20.0901 35.9104 20.5585L35.9094 20.5594ZM48.8631 45.9825C42.3446 49.6333 35.619 53.57 28.9993 57.0803C28.7632 57.2021 28.5328 57.3417 28.2789 57.4176C27.3205 57.7295 26.2075 57.2714 25.7447 56.3805C23.6218 52.4373 18.0907 42.1742 16.0381 38.3613C15.7196 37.7767 15.0338 36.4876 14.7237 35.9208C14.7031 35.8861 14.6422 35.7644 14.6282 35.7391L14.5551 35.5864C14.1775 34.6814 14.5645 33.5965 15.4292 33.1384C15.4292 33.1384 26.957 26.7379 27.3373 26.5074C29.9268 25.1228 33.2685 23.2482 35.8289 21.841C36.6786 21.3229 37.9799 21.7839 38.6057 22.8125C42.6566 29.465 46.0104 36.3845 49.8627 43.1579C50.4885 44.2849 49.9883 45.3576 48.8631 45.9815V45.9825Z" fill="#1E1E22"/>
<path d="M38.2437 17.3498L17.7152 28.6075C16.5198 29.263 16.0822 30.7635 16.7378 31.9589L27.9954 52.4873C28.6509 53.6827 30.1514 54.1204 31.3468 53.4648L51.8752 42.2072C53.0706 41.5516 53.5083 40.0512 52.8527 38.8558L41.5951 18.3273C40.9396 17.1319 39.4391 16.6943 38.2437 17.3498Z" fill="white"/>
<path d="M36.3084 24.9061C34.3176 25.9647 32.3231 27.0187 30.3417 28.0961C29.3796 28.6197 28.4212 29.1509 27.4618 29.6784C26.9531 29.9576 26.4482 30.2414 25.9451 30.5309C25.5048 30.7839 24.923 31.0302 24.6813 31.4949C24.5258 31.7919 24.7075 32.1226 25.041 32.1516C25.5319 32.1947 26.0228 31.8696 26.4482 31.6486C26.9625 31.3806 27.474 31.1089 27.9837 30.8298C28.973 30.2883 29.9641 29.7515 30.9506 29.2053C32.9236 28.1139 34.8854 26.999 36.848 25.8898C37.4767 25.5347 36.9474 24.5651 36.3084 24.9052V24.9061Z" fill="#F1F1F1"/>
<path d="M36.7837 28.9579C35.1593 29.7177 33.5994 30.6498 32.0255 31.5089C31.2358 31.9398 30.4432 32.3661 29.66 32.8092C28.9377 33.2177 28.0524 33.5812 27.5352 34.2492C27.3254 34.5199 27.5924 35.0061 27.9325 34.9743C28.7747 34.8965 29.5551 34.3466 30.2886 33.9569C31.0831 33.5344 31.8681 33.095 32.6569 32.6612C34.2271 31.7965 35.8525 30.9824 37.3665 30.0212C38.0251 29.6034 37.492 28.6281 36.7837 28.9588V28.9579Z" fill="#F1F1F1"/>
<path d="M35.9842 24.3124C33.9934 25.371 31.9989 26.4249 30.0175 27.5023C29.0553 28.026 28.0969 28.5572 27.1376 29.0846C26.6289 29.3638 26.124 29.6477 25.6209 29.9372C25.1806 30.1901 24.5988 30.4365 24.3571 30.9012C24.2016 31.1981 24.3833 31.5288 24.7168 31.5579C25.2077 31.601 25.6986 31.2759 26.124 31.0548C26.6383 30.7869 27.1498 30.5152 27.6595 30.236C28.6488 29.6945 29.6399 29.1577 30.6264 28.6115C32.5994 27.5201 34.5611 26.4053 36.5238 25.296C37.1524 24.941 36.6231 23.9714 35.9842 24.3114V24.3124Z" fill="#1E1E22"/>
<path d="M36.4615 28.3641C34.837 29.1239 33.2771 30.0561 31.7033 30.9152C30.9135 31.3461 30.1209 31.7724 29.3377 32.2155C28.6154 32.6239 27.7301 32.9874 27.213 33.6554C27.0031 33.9262 27.2701 34.4124 27.6102 34.3805C28.4524 34.3028 29.2328 33.7528 29.9663 33.3631C30.7608 32.9406 31.5459 32.5012 32.3347 32.0675C33.9048 31.2028 35.5303 30.3886 37.0442 29.4274C37.7028 29.0096 37.1697 28.0344 36.4615 28.3651V28.3641Z" fill="#1E1E22"/>
<path d="M27.3247 36.5191C27.1495 36.4273 26.9687 36.3308 26.7785 36.2287C24.5676 35.038 23.7834 35.5589 23.7834 35.5589C23.7834 35.5589 21.4001 36.4011 19.6895 37.3445L27.9992 52.4998C28.655 53.6952 30.1558 54.1327 31.3512 53.4778L51.8793 42.2217C53.0747 41.5659 53.5122 40.0651 52.8574 38.8697L47.3534 28.8324L41.6012 18.3416C41.1712 17.5575 40.3768 17.0984 39.5439 17.0619C39.5046 17.06 39.4643 17.0591 39.4249 17.0591C39.0268 17.061 38.623 17.1584 38.2501 17.3636L36.0701 18.559L41.56 28.9101L27.3256 36.5201L27.3247 36.5191Z" fill="#F1F1F1"/>
<path d="M38.4597 16.5145L38.2021 16.6073L37.9557 16.7244C37.9107 16.7459 37.8826 16.7619 37.8517 16.7787L37.758 16.8303C35.222 18.2027 31.8934 20.0633 29.3611 21.4704L17.4595 28.1435C16.1292 28.8696 15.553 30.5578 16.1582 31.9443C16.2454 32.1148 16.2697 32.1879 16.3774 32.3696C16.6903 32.9392 17.4136 34.2124 17.7284 34.7895C19.8625 38.6146 25.4938 48.7025 27.702 52.6616C28.0205 53.2237 28.5339 53.6725 29.1344 53.9039C29.8099 54.1662 30.579 54.1446 31.2404 53.8626C31.5927 53.6987 32.2354 53.3071 32.5726 53.1253C38.8232 49.5663 45.6031 45.6775 51.9118 42.2795C53.125 41.6378 53.6075 40.0686 52.9704 38.8526C49.3402 31.9565 45.8945 24.8693 42.194 18.0144C41.5063 16.7075 39.865 16.0461 38.4597 16.5145ZM51.8462 42.1606C45.3277 45.8114 38.1702 49.5241 31.5496 53.0354C31.3135 53.1572 31.083 53.2968 30.8291 53.3727C29.8708 53.6846 28.7578 53.2265 28.295 52.3356C26.1721 48.3924 20.641 38.1293 18.5884 34.3164C18.2699 33.7318 17.5841 32.4427 17.274 31.8759C17.2534 31.8413 17.1925 31.7195 17.1784 31.6942L17.1054 31.5415C16.7278 30.6365 17.1147 29.5516 17.9794 29.0935L30.0047 22.6462C32.5941 21.2615 35.9649 19.4159 38.5253 18.0097C39.375 17.4917 40.5208 17.7924 41.0042 18.6655C44.7918 25.4717 48.9223 32.1813 52.7756 38.9547C53.4014 40.0817 52.9704 41.5357 51.8444 42.1606H51.8462Z" fill="#1E1E22"/>
<path d="M14.31 41.7382C14.31 41.7382 13.8547 38.9305 15.4136 37.7753C16.9725 36.6202 20.4828 35.3798 20.4828 35.3798C20.4828 35.3798 21.2679 34.8589 23.4779 36.0497C25.6888 37.2404 26.8795 37.7294 28.2923 37.2554C29.7051 36.7813 46.4755 27.2846 46.4755 27.2846C46.4755 27.2846 48.4962 26.2363 49.9399 28.8697C51.3836 31.5032 57.9695 43.5125 57.9695 43.5125C57.9695 43.5125 59.1219 45.404 57.1835 47.1278C55.2443 48.8516 28.8881 62.6438 28.8881 62.6438C28.8881 62.6438 26.5947 63.7211 25.2017 61.6011C23.8086 59.481 14.31 41.7382 14.31 41.7382Z" fill="white"/>
<path d="M24.2552 39.3842C25.0759 39.5491 28.4663 37.9686 30.6998 36.4116C30.0206 36.7629 28.4841 37.192 28.2921 37.2557C26.8793 37.7297 25.6886 37.2416 23.4776 36.05C21.2667 34.8593 20.3561 35.3961 20.3561 35.3961C20.3561 35.3961 18.385 36.1708 16.8008 37.0384C17.3273 36.8678 18.2032 36.836 18.9181 37.0102C19.9757 37.2679 22.6823 39.0666 24.2543 39.3833L24.2552 39.3842Z" fill="#F1F1F1"/>
<path d="M49.941 28.8697C48.4973 26.2363 46.4756 27.2846 46.4756 27.2846C46.4756 27.2846 43.667 28.8753 40.2513 30.7865C43.1442 34.8852 46.4812 42.3396 46.5618 44.4597C46.6499 46.7681 44.8839 49.9955 34.8007 55.4254C30.1765 57.9165 26.7486 59.3789 24.3887 60.2351C24.754 60.8731 25.036 61.3491 25.2018 61.6011C26.5949 63.7211 28.8883 62.6438 28.8883 62.6438C28.8883 62.6438 55.2445 48.8525 57.1837 47.1278C59.123 45.404 57.9697 43.5125 57.9697 43.5125L49.9401 28.8697H49.941Z" fill="#F1F1F1"/>
<path d="M25.048 43.9697C25.9305 43.8255 26.7718 43.3036 27.5719 42.9205C28.3532 42.5457 29.1326 42.1663 29.9093 41.7822C31.4082 41.0412 32.8987 40.2814 34.3808 39.5047C37.2775 37.9861 40.1564 36.4319 43.0372 34.8833C43.8907 34.4243 44.7413 33.9615 45.592 33.4968C46.0117 33.2673 46.4323 33.0377 46.852 32.8082C47.312 32.5571 47.7964 32.3295 48.2226 32.0241C48.5983 31.7552 48.8428 31.2643 48.5739 30.8212C48.3041 30.3771 47.8292 30.275 47.3711 30.4699C46.5569 30.8165 45.7972 31.3458 45.0318 31.7899C44.2832 32.2246 43.5328 32.6583 42.7862 33.0968C41.3434 33.9427 39.8998 34.7868 38.4505 35.6215C35.6184 37.2535 32.717 38.7796 29.809 40.2701C28.9462 40.7123 28.0806 41.1489 27.2121 41.5789C26.783 41.7916 26.353 42.0024 25.9221 42.2122C25.4321 42.4502 24.9515 42.6778 24.5384 43.0394C24.1018 43.4226 24.5496 44.0512 25.0489 43.9697H25.048Z" fill="#F1F1F1"/>
<path d="M24.0422 43.4644C24.9247 43.3201 25.7659 42.7983 26.566 42.4151C27.3473 42.0404 28.1268 41.6609 28.9034 41.2768C30.4024 40.5358 31.8929 39.776 33.3749 38.9994C36.2717 37.4808 39.1506 35.9265 42.0314 34.3779C42.8848 33.9189 43.7355 33.4561 44.5861 32.9914C45.0058 32.7619 45.4265 32.5324 45.8462 32.3028C46.3062 32.0518 46.7905 31.8241 47.2168 31.5187C47.5924 31.2498 47.837 30.7589 47.5681 30.3158C47.2983 29.8717 46.8233 29.7696 46.3652 29.9645C45.5511 30.3111 44.7913 30.8404 44.0259 31.2845C43.2774 31.7192 42.527 32.1529 41.7803 32.5914C40.3376 33.4373 38.8939 34.2814 37.4446 35.1162C34.6125 36.7481 31.7111 38.2743 28.8032 39.7648C27.9404 40.207 27.0747 40.6435 26.2063 41.0735C25.7772 41.2862 25.3472 41.497 24.9162 41.7068C24.4263 41.9448 23.9457 42.1725 23.5325 42.5341C23.0959 42.9172 23.5438 43.5459 24.0431 43.4644H24.0422Z" fill="#1E1E22"/>
<path d="M27.1372 55.6409C27.4192 55.4264 27.5241 55.0367 27.3461 54.7163C27.0932 54.26 26.7709 53.8357 26.4908 53.3944C26.22 52.9672 25.9493 52.5381 25.6861 52.1062C25.4219 51.6744 25.1764 51.2322 24.915 50.7993C24.7801 50.5754 24.6396 50.3506 24.4944 50.1333C24.3473 49.9122 24.204 49.677 23.952 49.5665C23.7355 49.4718 23.4461 49.5224 23.3795 49.7904C23.2549 50.2925 23.5753 50.8462 23.7739 51.2968C23.9922 51.7933 24.2546 52.2739 24.5084 52.7527C25.0143 53.7073 25.5343 54.7088 26.1929 55.5679C26.4083 55.8499 26.8815 55.8358 27.1382 55.6409H27.1372Z" fill="#F1F1F1"/>
<path d="M26.1528 55.6727C26.4348 55.4581 26.5398 55.0684 26.3618 54.748C26.1088 54.2918 25.7865 53.8674 25.5064 53.4261C25.2357 52.9989 24.9649 52.5699 24.7017 52.138C24.4375 51.7061 24.192 51.2639 23.9307 50.8311C23.7958 50.6072 23.6552 50.3823 23.51 50.165C23.3629 49.9439 23.2196 49.7088 22.9676 49.5982C22.7512 49.5036 22.4617 49.5542 22.3952 49.8221C22.2706 50.3243 22.591 50.8779 22.7896 51.3286C23.0079 51.8251 23.2702 52.3057 23.5241 52.7844C24.03 53.739 24.5499 54.7405 25.2085 55.5996C25.424 55.8816 25.8971 55.8675 26.1538 55.6727H26.1528Z" fill="#1E1E22"/>
<path d="M27.4574 57.5398C27.7441 58.3015 28.1282 59.0088 28.6275 59.5531C29.1316 60.103 29.9307 59.4023 29.6552 58.783C29.3573 58.1132 28.9236 57.285 28.3512 56.8344C28.028 56.5796 27.3131 57.0442 27.4068 57.403L27.4574 57.5398Z" fill="#F1F1F1"/>
<path d="M26.5668 57.7542C26.8535 58.5158 27.2376 59.2232 27.7369 59.7675C28.2409 60.3174 29.0401 59.6166 28.7646 58.9974C28.4667 58.3275 28.033 57.4994 27.4605 57.0487C27.1373 56.7939 26.4225 57.2586 26.5162 57.6174L26.5668 57.7542Z" fill="#1E1E22"/>
<path d="M50.1973 35.9655C50.26 36.6072 50.572 37.2461 50.8306 37.8335C51.1144 38.4772 51.4273 39.1095 51.7356 39.7409C52.1066 40.5007 53.257 39.8674 52.8869 39.1095C52.5928 38.5062 52.2949 37.9047 51.9848 37.3098C51.699 36.7627 51.3908 36.1041 50.9393 35.6769C50.6994 35.4493 50.1588 35.5692 50.1973 35.9664V35.9655Z" fill="#1E1E22"/>
<path d="M58.5481 43.1435L58.3326 42.7585C56.1292 38.8275 52.6254 32.5113 50.421 28.5981C49.6181 27.1086 48.1211 26.1136 46.4179 26.7516C46.3739 26.7685 46.3317 26.7863 46.283 26.8088C46.2689 26.8163 46.2614 26.8181 46.2296 26.8359L46.2043 26.85L46.1546 26.879L45.9588 26.9924L45.5766 27.2135C40.4736 30.1364 35.9421 32.5675 30.8111 35.3471C30.4007 35.5617 29.1988 36.1397 28.7753 36.3233C28.6844 36.3533 27.7504 36.4901 27.6567 36.5004C25.9817 36.6859 24.5689 35.5598 23.1477 34.9003C22.3579 34.5237 20.7709 34.3447 20.102 34.6895C18.931 35.1298 17.9436 35.7144 16.8297 36.2812C16.2722 36.5632 15.2267 37.1777 14.7189 37.5478C13.5001 38.4574 12.8425 39.1844 14.228 41.7664C15.9846 45.48 17.8546 49.2171 19.7104 52.882C21.2122 55.7646 22.8666 59.1063 24.4996 61.9066C25.4964 63.6482 27.4853 64.1475 29.2784 63.3737C36.9867 59.4708 44.8346 55.2662 52.3303 50.9605C53.8705 50.0696 55.4247 49.1871 56.9217 48.2128L57.3096 47.9448L57.3583 47.9111L57.4117 47.8689C57.66 47.6825 57.8773 47.468 58.0825 47.2375C58.3729 46.8956 58.6184 46.5096 58.7833 46.0899L58.8685 45.8248C58.8816 45.7807 58.8966 45.7367 58.9078 45.6917C58.9303 45.5596 58.9697 45.4125 58.9819 45.2795L59.0034 45.0022C59.0193 44.4017 58.8919 43.8031 58.6184 43.27L58.5818 43.2016L58.549 43.1445L58.5481 43.1435ZM49.5067 29.2268C51.7242 33.3451 55.153 39.7447 57.3855 43.8686C57.927 44.975 57.4586 46.0496 56.5124 46.7363C55.9072 47.1438 55.2729 47.5176 54.6368 47.8821C49.9311 50.5774 43.8987 53.6418 39.0974 56.2209C36.6579 57.5137 31.4575 60.3205 28.9842 61.6536L28.5964 61.8635L28.5551 61.886L28.5364 61.8963C28.3715 61.9843 27.9293 62.093 27.6651 62.1061C26.8819 62.1801 26.1868 61.7623 25.7755 61.0831C25.5498 60.729 25.309 60.3561 25.0963 59.9889C21.527 53.9406 18.2021 47.8446 15.0131 41.5884C14.1924 39.977 14.3648 38.7066 15.5321 37.8672C17.0798 36.8367 18.8701 36.2043 20.5995 35.5542C20.814 35.468 21.0801 35.4727 21.3255 35.5017C21.8792 35.5748 22.417 35.7921 22.9238 36.0357C24.4911 36.8142 26.1962 38.0546 28.0483 37.6321C28.1589 37.6068 28.2853 37.5721 28.394 37.5375C28.5598 37.4691 28.7753 37.3791 28.9355 37.3051C34.7214 34.4225 41.1041 30.7857 46.7861 27.7109C48.033 27.2762 48.9755 28.1625 49.5076 29.2258L49.5067 29.2268Z" fill="#1E1E22"/>
<path d="M85.9905 11.4555L58.6798 -6.16531C55.3973 -8.28315 51.0195 -7.33903 48.9016 -4.05656L37.97 12.8866C35.8521 16.1691 36.7962 20.5469 40.0787 22.6647L67.3894 40.2855C70.6719 42.4034 75.0497 41.4592 77.1675 38.1768L88.0992 21.2336C90.2171 17.9511 89.273 13.5733 85.9905 11.4555Z" fill="white"/>
<path d="M85.999 11.4432L58.6882 -6.17593C58.662 -6.1928 58.6357 -6.20872 58.6095 -6.22559C57.3776 -5.47799 56.3677 -4.37439 55.6454 -2.86326C55.6454 -2.86326 51.409 5.83905 54.5652 13.8116L47.0236 15.392L46.1214 16.045C46.1214 16.045 46.098 16.6736 47.0451 16.8872C47.6672 17.0277 52.3252 16.2314 55.4495 15.6684C55.8955 16.461 56.4267 17.2376 57.0562 17.9899C60.5169 22.126 64.7617 23.8892 68.2739 24.5983C68.3939 25.6017 68.5363 26.8505 68.6768 28.2258C69.0272 31.6574 69.2014 32.8678 69.2014 32.8678C69.2014 32.8678 69.5968 33.6033 70.5355 33.37C71.4742 33.1377 71.4161 32.3104 71.433 31.1384C71.4414 30.537 71.2409 27.6506 71.0423 24.9787C73.51 25.1605 75.1775 24.8757 75.1775 24.8757C75.1775 24.8757 77.9993 24.9291 82.0474 23.7852C79.2359 27.8201 77.4869 30.5407 75.9448 32.2748C71.3449 37.4443 69.1986 36.2067 69.1986 36.2067C69.1986 36.2067 49.6346 23.8807 42.7872 19.1675C39.7359 17.0671 38.326 14.9976 37.7002 13.3488C35.9567 16.5678 36.9619 20.6364 40.0891 22.6544L67.3999 40.2736C70.6826 42.3918 75.0604 41.4474 77.1777 38.1647L88.1088 21.222C90.227 17.9393 89.2826 13.5614 85.9999 11.4442L85.999 11.4432Z" fill="#F1F1F1"/>
<path d="M67.311 11.7935C64.3571 11.9331 61.4145 12.2657 58.486 12.6742C55.563 13.0817 52.6466 13.566 49.7593 14.175C48.9592 14.3436 48.1601 14.516 47.3638 14.7015C46.9431 14.7999 46.5281 14.9226 46.1131 15.0416C45.7346 15.1502 45.3299 15.2065 45.1088 15.5671C45.0273 15.7011 45.0592 15.8847 45.1959 15.9709C45.5032 16.1648 45.7805 16.103 46.1206 16.0449C46.4794 15.984 46.8382 15.925 47.1961 15.8632C47.9343 15.7348 48.666 15.5681 49.4014 15.4247C50.8507 15.1428 52.3028 14.8748 53.7587 14.6266C56.6479 14.1347 59.5511 13.7347 62.4638 13.4133C64.1098 13.2325 65.7577 13.0723 67.4047 12.9009C68.0324 12.8353 67.9471 11.7626 67.311 11.7926V11.7935Z" fill="#1E1E22"/>
<path d="M69.6328 32.245C69.5813 29.9497 69.3358 27.6414 69.0567 25.3639C68.7784 23.1024 68.4346 20.8305 67.9184 18.6102C67.6289 17.3652 67.4415 16.0358 66.9619 14.8469C66.8485 14.5649 66.3745 14.6717 66.3829 14.9715C66.4017 15.6788 66.5459 16.3796 66.649 17.0775C66.7549 17.7961 66.8532 18.5156 66.9338 19.2379C67.0959 20.6806 67.3066 22.1178 67.4594 23.5624C67.6121 25.006 67.7573 26.4478 67.8866 27.8934C68.014 29.3211 68.0805 30.7517 68.1967 32.1794C68.2285 32.5654 68.4608 32.9111 68.8833 32.9289C69.2515 32.9448 69.6422 32.6319 69.6328 32.2422V32.245Z" fill="#1E1E22"/>
<path d="M82.4136 24.0413C82.4839 23.735 82.1551 23.3284 81.8281 23.5457C81.3438 23.8671 80.8641 24.4048 80.5512 24.8929C80.0959 25.603 81.147 26.2616 81.6426 25.5974C81.9602 25.1721 82.2956 24.5603 82.4136 24.0422V24.0413Z" fill="#1E1E22"/>
<path d="M79.4652 27.1816C78.8984 27.4908 78.4993 28.1869 78.119 28.6881C77.7114 29.2258 77.3067 29.7655 76.8889 30.2957C76.027 31.389 75.1192 32.4439 74.1702 33.4632C73.9425 33.7067 73.8835 34.0712 74.1205 34.3363C74.3201 34.5593 74.7735 34.6398 74.9937 34.386C75.9389 33.2889 76.8467 32.161 77.7021 30.9927C78.1274 30.4109 78.5452 29.8226 78.934 29.2146C79.276 28.6797 79.7575 28.0538 79.8081 27.4037C79.8212 27.2294 79.6189 27.0992 79.4652 27.1826V27.1816Z" fill="#1E1E22"/>
<path d="M85.9992 11.443L58.6885 -6.17618C57.272 -7.0896 55.6512 -7.43342 54.097 -7.26479C53.444 8.99409 56.6602 19.0904 65.9368 20.9369C73.2704 22.3965 84.357 18.6239 89.2098 16.7493C89.0187 14.6573 87.9019 12.6703 86.0002 11.443H85.9992Z" fill="white"/>
<path d="M61.5991 15.428C61.6319 15.0711 61.3555 14.776 61.1663 14.5043C61.096 14.4031 61.0323 14.2972 60.9677 14.1923C60.8243 13.9637 60.6941 13.8232 60.4627 13.6911C60.0355 13.4475 59.4481 13.693 59.4322 14.2232C59.4144 14.8537 59.8341 15.3072 60.339 15.6407C60.6979 15.8777 61.5382 16.0829 61.5982 15.4271L61.5991 15.428Z" fill="#F1F1F1"/>
<path d="M59.4958 9.43067C59.3281 8.75802 59.167 8.08537 59.0443 7.40241C58.8035 6.05898 58.7688 4.68838 58.529 3.34964C58.3988 2.62546 57.387 2.78472 57.3074 3.45269C57.1425 4.8439 57.4179 6.32785 57.7093 7.69002C57.8535 8.36642 58.0184 9.04469 58.2311 9.70329C58.336 10.0293 58.4372 10.3731 58.588 10.6804C58.7304 10.9718 58.9244 11.3615 59.2682 11.4393C59.4228 11.4739 59.5464 11.4271 59.6429 11.3034C59.8425 11.0477 59.7628 10.7057 59.7216 10.4087C59.6757 10.0771 59.5764 9.75482 59.4958 9.42973V9.43067Z" fill="#F1F1F1"/>
<path d="M85.9983 11.4432L80.8522 8.12305C81.8546 9.80468 82.1872 10.9223 81.5089 11.1603C80.1711 11.6287 68.3641 15.2543 63.2471 14.472C60.0197 13.9783 56.9609 10.7631 55.1406 8.45469C56.7529 15.4623 60.1752 19.7895 65.9349 20.9362C73.2685 22.3958 84.3551 18.6232 89.2079 16.7485C89.0168 14.6566 87.9001 12.6695 85.9983 11.4423V11.4432Z" fill="#F1F1F1"/>
<path d="M62.2612 14.6609C62.294 14.304 62.0176 14.0089 61.8284 13.7372C61.7581 13.636 61.6944 13.5301 61.6298 13.4252C61.4864 13.1966 61.3562 13.0561 61.1248 12.924C60.6976 12.6804 60.1102 12.9259 60.0943 13.4561C60.0765 14.0866 60.4962 14.5401 61.0012 14.8736C61.36 15.1106 62.2003 15.3158 62.2603 14.66L62.2612 14.6609Z" fill="#1E1E22"/>
<path d="M60.156 8.66309C59.9883 7.99044 59.8272 7.31779 59.7044 6.63483C59.4637 5.2914 59.429 3.9208 59.1892 2.58206C59.0589 1.85788 58.0472 2.01714 57.9675 2.68511C57.8026 4.07632 58.0781 5.56028 58.3694 6.92244C58.5137 7.59884 58.6786 8.27711 58.8913 8.93571C58.9962 9.26173 59.0974 9.60555 59.2482 9.91284C59.3906 10.2042 59.5845 10.5939 59.9283 10.6717C60.0829 10.7063 60.2066 10.6595 60.3031 10.5358C60.5026 10.2801 60.423 9.93813 60.3818 9.64115C60.3359 9.30951 60.2366 8.98724 60.156 8.66215V8.66309Z" fill="#1E1E22"/>
<path d="M89.3917 16.7325C89.1472 14.5637 87.889 12.5401 86.0387 11.3813C78.1524 6.39634 70.505 1.0451 62.6964 -4.05881L58.7917 -6.62669C57.2759 -7.59819 55.4125 -7.95513 53.6334 -7.70499L53.6138 -7.28529C53.447 -3.69719 53.4348 -0.0659919 53.7739 3.51836C54.4878 11.1508 57.0061 19.8231 65.5276 21.6237C69.9326 22.5456 74.8426 21.6734 79.1061 20.5183C82.5743 19.5646 85.9582 18.2998 89.2746 16.9199L89.4067 16.8646L89.3917 16.7316V16.7325ZM78.8476 19.4409C76.5373 19.9093 74.2158 20.2803 71.8662 20.4461C69.986 20.567 68.1151 20.5623 66.2677 20.2204C62.2992 19.499 59.3894 17.0838 57.5925 13.5079C54.5862 7.38658 54.4457 -0.0809822 54.5703 -6.82155C55.8809 -6.89275 57.2075 -6.56486 58.3326 -5.88096L62.2702 -3.3974C70.1396 1.61376 78.1665 6.37479 85.9591 11.5049C87.6914 12.6282 88.8502 14.5665 89.0151 16.622C85.6949 17.7874 82.2923 18.7298 78.8476 19.4409Z" fill="#1E1E22"/>
<path d="M66.5248 40.9594C59.0544 36.0813 51.1128 30.567 43.5047 25.8107C42.5089 25.1764 40.5677 23.8171 39.5784 23.1866C37.3909 21.8394 36.0747 19.0354 36.158 16.4629C36.1899 15.1251 36.6227 13.7414 37.3366 12.6097C39.8351 8.67774 44.3872 2.03647 46.8886 -1.88327L48.1468 -3.85626C48.5721 -4.54765 49.0593 -5.24747 49.6607 -5.8002C52.1134 -8.17041 56.1521 -8.54983 59.0048 -6.67053C65.5308 -2.50627 72.2236 1.7067 78.7599 5.87658C80.9062 7.25467 84.2704 9.41316 86.383 10.7884C89.8765 13.0134 91.0129 17.7417 88.8516 21.2867C86.7493 24.5122 83.624 28.8329 81.8028 32.2468C80.9212 33.8994 78.2512 37.9015 77.2291 39.4164C75.05 42.6954 70.3059 43.3858 67.0185 41.2114L66.5238 40.9585L66.5248 40.9594ZM67.4382 40.2127C70.066 41.9234 73.7029 41.5702 75.9335 39.3724C76.4881 38.859 76.9181 38.1901 77.305 37.5455L78.5313 35.5519C81.2913 31.0279 84.6124 25.5783 87.407 21.0871C89.424 18.1024 88.6249 13.9924 85.5605 12.0644C83.4498 10.7144 80.0781 8.52971 77.943 7.14413C71.4441 2.91054 64.8572 -1.45513 58.3677 -5.68216C55.9563 -7.30664 52.5068 -7.01435 50.3943 -5.01326C49.85 -4.53453 49.4181 -3.89467 49.0293 -3.28572C48.2292 -2.05659 46.023 1.31791 45.192 2.59389C43.8982 4.57344 39.5278 11.2466 38.3062 13.1184C37.6542 14.1236 37.2766 15.3003 37.2326 16.4994C37.1333 18.8247 38.3203 21.1396 40.2886 22.3996C40.4197 22.4868 40.8778 22.7875 41.0212 22.8831C49.5389 28.5116 58.8436 34.7556 67.4373 40.2137L67.4382 40.2127Z" fill="#1E1E22"/>
<path d="M55.8431 51.9619C42.198 51.9619 31.1367 63.0232 31.1367 76.6683C31.1367 90.3134 42.198 101.375 55.8431 101.375C69.4882 101.375 80.5494 90.3134 80.5494 76.6683C80.5494 63.0232 69.4882 51.9619 55.8431 51.9619ZM55.8431 96.8769C44.6816 96.8769 35.6336 87.8289 35.6336 76.6673C35.6336 65.5058 44.6816 56.4578 55.8431 56.4578C67.0046 56.4578 76.0526 65.5058 76.0526 76.6673C76.0526 87.8289 67.0046 96.8769 55.8431 96.8769Z" fill="white"/>
<path d="M69.0662 89.407C76.9585 81.5147 76.9585 68.7187 69.0662 60.8264C61.1739 52.9341 48.3779 52.9341 40.4856 60.8264C32.5933 68.7187 32.5933 81.5147 40.4856 89.407C48.3779 97.2993 61.1739 97.2993 69.0662 89.407Z" fill="#F1F1F1"/>
<path d="M70.1326 90.9583C78.0249 83.066 78.0249 70.27 70.1326 62.3777C62.2403 54.4854 49.4443 54.4854 41.552 62.3777C33.6597 70.27 33.6597 83.0659 41.552 90.9583C49.4443 98.8506 62.2403 98.8506 70.1326 90.9583Z" fill="white"/>
<path d="M70.4799 62.7338C71.783 65.4057 72.5147 68.4074 72.5147 71.5795C72.5147 82.741 63.4667 91.789 52.3052 91.789C46.5455 91.789 41.3488 89.3795 37.668 85.5141C40.9488 92.2415 47.8533 96.877 55.8427 96.877C67.0042 96.877 76.0522 87.829 76.0522 76.6675C76.0522 71.2657 73.9331 66.3594 70.4799 62.7329V62.7338Z" fill="#F1F1F1"/>
<path d="M56.3268 62.3221C57.1836 62.3221 57.8782 61.6275 57.8782 60.7706C57.8782 59.9138 57.1836 59.2192 56.3268 59.2192C55.47 59.2192 54.7754 59.9138 54.7754 60.7706C54.7754 61.6275 55.47 62.3221 56.3268 62.3221Z" fill="#F1F1F1"/>
<path d="M56.3268 95.6653C57.1836 95.6653 57.8782 94.9707 57.8782 94.1139C57.8782 93.2571 57.1836 92.5625 56.3268 92.5625C55.47 92.5625 54.7754 93.2571 54.7754 94.1139C54.7754 94.9707 55.47 95.6653 56.3268 95.6653Z" fill="#F1F1F1"/>
<path d="M72.9987 78.9939C73.8555 78.9939 74.5501 78.2993 74.5501 77.4425C74.5501 76.5857 73.8555 75.8911 72.9987 75.8911C72.1419 75.8911 71.4473 76.5857 71.4473 77.4425C71.4473 78.2993 72.1419 78.9939 72.9987 78.9939Z" fill="#F1F1F1"/>
<path d="M39.6549 78.9944C40.5117 78.9944 41.2063 78.2998 41.2063 77.443C41.2063 76.5862 40.5117 75.8916 39.6549 75.8916C38.7981 75.8916 38.1035 76.5862 38.1035 77.443C38.1035 78.2998 38.7981 78.9944 39.6549 78.9944Z" fill="#F1F1F1"/>
<path d="M66.1908 72.6425C65.8386 72.0401 65.0825 71.879 64.4848 72.1956C63.1339 72.9104 61.7961 73.6496 60.4742 74.4178C59.8268 74.7944 59.1861 75.1813 58.5509 75.5767C58.1771 75.809 57.5241 75.7762 57.3639 75.4643C56.8233 74.4094 56.0055 73.0931 55.4734 72.0345C54.9534 71.0002 54.3651 70.1542 53.8657 69.1097C53.6184 68.5944 53.3083 68.0239 53.0638 67.5077C52.7931 66.9353 52.5635 66.3404 52.1626 65.8485C51.8422 65.455 51.1667 65.426 50.7545 65.6668C50.2907 65.9375 50.1165 66.4706 50.2205 66.9784C50.3432 67.5761 50.7283 68.1691 50.9953 68.7162C51.2594 69.2567 51.5264 69.7945 51.7944 70.3332C52.3518 71.4499 52.9176 72.5619 53.4985 73.6665C54.0625 74.7382 54.6461 75.8034 55.2804 76.8349C55.5998 77.3539 55.9586 77.8748 56.353 78.3404C56.413 78.4116 56.4861 78.4828 56.5676 78.5493C56.8065 78.8228 57.184 78.9718 57.6431 78.85C58.401 78.6505 59.0568 78.1624 59.7219 77.7651C60.3918 77.3651 61.0644 76.9707 61.7371 76.5772C63.0571 75.8071 64.393 75.0642 65.743 74.3475C66.3379 74.0318 66.5206 73.2055 66.1899 72.6416L66.1908 72.6425Z" fill="#F1F1F1"/>
<path d="M64.643 71.8676C64.2907 71.2652 63.5347 71.1041 62.937 71.4208C61.5861 72.1356 60.2483 72.8747 58.9264 73.6429C58.2791 74.0196 57.6383 74.4065 57.0031 74.8018C56.6293 75.0342 56.2189 75.259 55.8395 75.5176C55.6934 75.2 55.5425 74.8852 55.3833 74.5742C54.8427 73.5193 54.3115 72.4588 53.7794 71.4001C53.2594 70.3659 52.7517 69.326 52.2523 68.2823C52.005 67.7671 51.7614 67.2499 51.5169 66.7337C51.2462 66.1613 51.0166 65.5664 50.6157 65.0746C50.2953 64.6811 49.6198 64.6521 49.2076 64.8928C48.7439 65.1636 48.5696 65.6967 48.6736 66.2044C48.7963 66.8021 49.1814 67.3952 49.4484 67.9423C49.7126 68.4828 49.9796 69.0206 50.2475 69.5593C50.8049 70.676 51.3708 71.788 51.9516 72.8925C52.5156 73.9643 53.0992 75.0295 53.7335 76.0609C54.0529 76.5799 54.4118 77.1008 54.8062 77.5664C54.8661 77.6376 54.9392 77.7088 55.0207 77.7753C55.2596 78.0489 55.6371 78.1979 56.0962 78.0761C56.8541 77.8765 57.5099 77.3884 58.1751 76.9912C58.8449 76.5912 59.5176 76.1968 60.1902 75.8033C61.5102 75.0332 62.8462 74.2903 64.1961 73.5736C64.791 73.2579 64.9737 72.4316 64.643 71.8676Z" fill="#1E1E22"/>
<path d="M55.8424 61.5476C56.6992 61.5476 57.3938 60.8531 57.3938 59.9962C57.3938 59.1394 56.6992 58.4448 55.8424 58.4448C54.9856 58.4448 54.291 59.1394 54.291 59.9962C54.291 60.8531 54.9856 61.5476 55.8424 61.5476Z" fill="#1E1E22"/>
<path d="M55.8424 94.8919C56.6992 94.8919 57.3938 94.1973 57.3938 93.3405C57.3938 92.4837 56.6992 91.7891 55.8424 91.7891C54.9856 91.7891 54.291 92.4837 54.291 93.3405C54.291 94.1973 54.9856 94.8919 55.8424 94.8919Z" fill="#1E1E22"/>
<path d="M72.5143 78.22C73.3711 78.22 74.0657 77.5254 74.0657 76.6686C74.0657 75.8118 73.3711 75.1172 72.5143 75.1172C71.6575 75.1172 70.9629 75.8118 70.9629 76.6686C70.9629 77.5254 71.6575 78.22 72.5143 78.22Z" fill="#1E1E22"/>
<path d="M39.1706 78.2195C40.0274 78.2195 40.722 77.5249 40.722 76.6681C40.722 75.8113 40.0274 75.1167 39.1706 75.1167C38.3137 75.1167 37.6191 75.8113 37.6191 76.6681C37.6191 77.5249 38.3137 78.2195 39.1706 78.2195Z" fill="#1E1E22"/>
<path d="M75.6467 61.8906C77.778 65.5434 79.0005 69.791 79.0005 74.3244C79.0005 87.9695 67.9393 99.0307 54.2942 99.0307C46.1905 99.0307 38.9975 95.1288 34.4922 89.1012C38.7754 96.4413 46.7339 101.374 55.8456 101.374C69.4907 101.374 80.552 90.3125 80.552 76.6674C80.552 71.126 78.7279 66.0118 75.6476 61.8906H75.6467Z" fill="#F1F1F1"/>
<path d="M78.071 79.8228C77.6025 80.1385 77.462 80.813 77.2971 81.3264C77.1088 81.9091 76.9327 82.4899 76.721 83.0652C76.2863 84.2437 75.7485 85.3445 75.1593 86.4518C74.7349 87.2491 75.875 87.9105 76.3659 87.1573C77.077 86.0668 77.6344 84.8414 78.0785 83.6198C78.2949 83.0239 78.4804 82.4 78.6097 81.7789C78.7221 81.2421 78.9216 80.442 78.5853 79.9586C78.4747 79.8003 78.2499 79.7028 78.071 79.8237V79.8228Z" fill="#1E1E22"/>
<path d="M34.2275 71.0435C33.567 72.593 33.3384 74.2756 33.226 75.946C33.1698 76.7844 33.1623 77.6164 33.2307 78.4539C33.2841 79.1041 33.3131 80.1468 33.8743 80.5833C33.9811 80.6667 34.1497 80.6817 34.2444 80.5646C34.6622 80.0531 34.562 79.1902 34.5732 78.5672C34.5872 77.7597 34.6088 76.9484 34.6659 76.1418C34.7774 74.5604 35.1325 73.0174 35.3461 71.451C35.4313 70.8243 34.5132 70.3736 34.2275 71.0435Z" fill="#F1F1F1"/>
<path d="M36.5475 65.0321C36.1372 65.5033 35.8252 66.0776 35.6107 66.6622C35.4298 67.1549 35.2172 67.7817 35.4158 68.2969C35.4683 68.4328 35.6191 68.4534 35.7221 68.3616C36.0959 68.0262 36.2739 67.4735 36.5194 67.0444C36.7986 66.5572 37.1218 66.1122 37.4394 65.6513C37.7954 65.1351 36.9485 64.5693 36.5475 65.0311V65.0321Z" fill="#F1F1F1"/>
<path d="M33.79 69.94C33.1295 71.4895 32.901 73.1721 32.7885 74.8425C32.7323 75.6809 32.7248 76.5128 32.7932 77.3504C32.8466 78.0005 32.8757 79.0432 33.4368 79.4798C33.5436 79.5632 33.7123 79.5782 33.8069 79.4611C34.2247 78.9496 34.1245 78.0867 34.1357 77.4637C34.1498 76.6562 34.1713 75.8449 34.2285 75.0383C34.3399 73.4569 34.695 71.9139 34.9086 70.3475C34.9939 69.7207 34.0758 69.2701 33.79 69.94Z" fill="#1E1E22"/>
<path d="M36.11 63.9285C35.6997 64.3998 35.3877 64.9741 35.1732 65.5586C34.9923 66.0514 34.7797 66.6782 34.9783 67.1934C35.0308 67.3293 35.1816 67.3499 35.2846 67.2581C35.6584 66.9227 35.8364 66.37 36.0819 65.9409C36.3611 65.4537 36.6843 65.0087 37.0019 64.5478C37.3579 64.0316 36.511 63.4657 36.11 63.9276V63.9285Z" fill="#1E1E22"/>
<path d="M76.9191 62.0863C72.2321 55.3439 64.0628 50.788 55.8749 50.8808C46.0352 50.833 35.8574 57.4227 32.0425 66.5138C23.4414 87.3717 44.6637 108.408 65.5618 100.131C80.4088 94.1619 86.176 75.2349 76.9191 62.0863ZM55.8439 100.755C34.1411 100.64 23.5529 74.9098 38.4889 59.3133C42.9783 54.6694 49.3835 51.9844 55.8439 52.0397C65.5899 51.9919 74.636 58.4036 78.077 67.4601C84.2733 83.2552 72.9263 100.613 55.8439 100.756V100.755Z" fill="#1E1E22"/>
<path d="M63.8407 57.3612C46.6703 50.5813 30.002 67.614 36.8156 84.8622C40.3138 93.7172 47.9865 97.3962 56.0312 97.3624C62.7418 97.4449 69.2191 93.7022 73.092 88.1945C80.7741 77.3946 76.074 62.2524 63.8398 57.3612H63.8407ZM73.9211 84.1558C71.1537 91.555 63.7995 96.8312 55.8438 96.8003C50.5638 96.8509 45.3268 94.6503 41.6685 90.8439C29.5448 78.1113 38.1534 57.1588 55.8438 57.0792C69.724 57.2179 78.8976 71.3211 73.9211 84.1567V84.1558Z" fill="#1E1E22"/>
</g>
</g>
<defs>
<radialGradient id="paint0_radial_2565_10461" cx="0" cy="0" r="1" gradientUnits="userSpaceOnUse" gradientTransform="translate(-50.5034 -1.92773) rotate(90) scale(133.538)">
<stop offset="0.265" stop-color="#D27C71"/>
<stop offset="1" stop-color="#D27C71" stop-opacity="0"/>
</radialGradient>
<radialGradient id="paint1_radial_2565_10461" cx="0" cy="0" r="1" gradientUnits="userSpaceOnUse" gradientTransform="translate(159.091 189.468) rotate(90) scale(189.216)">
<stop stop-color="#B68EFF"/>
<stop offset="1" stop-color="#B68EFF" stop-opacity="0"/>
</radialGradient>
<clipPath id="clip0_2565_10461">
<rect width="96" height="96" rx="48" fill="white"/>
</clipPath>
<clipPath id="clip1_2565_10461">
<rect width="96" height="96" fill="white"/>
</clipPath>
</defs>
</svg>
