<svg width="96" height="96" viewBox="0 0 96 96" fill="none" xmlns="http://www.w3.org/2000/svg">
<g clip-path="url(#clip0_2565_13152)">
<rect width="96" height="96" rx="48" fill="#8B47F4"/>
<mask id="mask0_2565_13152" style="mask-type:alpha" maskUnits="userSpaceOnUse" x="0" y="0" width="96" height="96">
<circle cx="48" cy="48" r="48" fill="#8B47F4"/>
</mask>
<g mask="url(#mask0_2565_13152)">
<circle cx="-50.5034" cy="-1.92773" r="133.538" fill="url(#paint0_radial_2565_13152)"/>
<circle cx="159.091" cy="189.468" r="189.216" fill="url(#paint1_radial_2565_13152)"/>
</g>
<g clip-path="url(#clip1_2565_13152)">
<path d="M68.5721 14.5361H28.9912C23.689 14.5361 19.3906 18.8345 19.3906 24.1368V69.4694C19.3906 74.7717 23.689 79.0701 28.9912 79.0701H68.5721C73.8744 79.0701 78.1728 74.7717 78.1728 69.4694V24.1368C78.1728 18.8345 73.8744 14.5361 68.5721 14.5361Z" fill="#F1F1F1"/>
<path d="M29.3291 79.9046C26.8818 79.9305 23.8005 78.8041 22.0007 77.1407C20.0651 75.3861 19.2175 72.3611 19.1515 69.7478C19.0951 60.0752 19.0602 36.4897 19.0254 27.0374C19.0321 26.2631 19.0069 24.6591 19.0232 23.8811C19.0521 22.4803 19.3814 21.0846 19.9858 19.8187C21.0581 17.5613 23.004 15.7407 25.3319 14.8256C26.4932 14.3643 27.7428 14.127 28.9924 14.1218L57.7616 14.0232L64.9536 14.0046L68.5495 14.0002C71.0813 13.9839 73.6072 14.9672 75.4582 16.6981C77.3886 18.4653 78.5647 21.0053 78.6863 23.6171C78.7145 24.5189 78.6863 26.0903 78.6923 27.0151C78.6648 38.9117 78.8332 50.5495 78.7019 62.4639C78.676 64.0724 78.7212 67.3569 78.6997 68.9513C78.6997 69.2487 78.5833 70.7519 78.5566 71.0485C78.0226 77.0087 74.0002 79.8816 69.0086 79.8223C69.0086 79.8223 42.4404 79.8186 29.3291 79.9061V79.9046ZM68.5725 79.0191C73.4856 79.0503 77.3937 74.9782 77.6563 70.0637C77.7045 68.0658 77.9803 65.0135 77.9766 62.9756C77.8113 49.9302 77.6859 36.6995 77.6348 23.6698C77.4783 20.1806 75.1326 16.9362 71.8667 15.6984C70.8129 15.2876 69.6849 15.077 68.5495 15.0755L64.9536 15.0711C60.3639 15.0748 34.1672 14.9628 28.9924 14.9539C25.521 14.9124 22.1668 17.0177 20.6814 20.1547C20.117 21.319 19.8063 22.6071 19.7722 23.9019C19.7514 24.6784 19.7662 26.2387 19.7573 27.0388C19.7366 36.4177 19.6602 60.1375 19.6446 69.7359C19.6891 72.2262 20.7896 74.6667 22.6169 76.3605C24.33 77.975 26.6593 78.8945 29.0146 78.899C42.1296 78.9791 55.4709 79.0599 68.5718 79.0214L68.5725 79.0191Z" fill="#1E1E22"/>
<path d="M65.5546 17.6079H25.9737C20.6714 17.6079 16.373 21.9063 16.373 27.2085V72.5412C16.373 77.8435 20.6714 82.1418 25.9737 82.1418H65.5546C70.8568 82.1418 75.1552 77.8435 75.1552 72.5412V27.2085C75.1552 21.9063 70.8568 17.6079 65.5546 17.6079Z" fill="white"/>
<path d="M67.9067 17.8984C70.7359 22.1633 70.9235 27.1157 70.9235 27.1157L69.8482 74.6271C69.8482 74.6271 69.7674 78.8957 63.584 82.1409H65.5544C70.8568 82.1409 75.155 77.8427 75.155 72.5403V27.2084C75.155 22.7173 72.0715 18.9478 67.9067 17.8984Z" fill="#F1F1F1"/>
<path d="M67.1543 71.8016C67.1543 71.8016 68.8852 72.9014 70.2675 72.5892C71.6498 72.277 72.7592 70.9762 73.3243 69.9284C75.4883 65.9223 74.413 64.7706 74.413 64.7706C74.413 64.7706 72.0258 64.402 71.9005 64.4154C71.7751 64.4287 68.3824 69.2817 68.3824 69.2817L67.1543 71.8016Z" fill="#F1F1F1"/>
<path d="M45.4202 62.5502C57.8985 62.5502 68.0142 53.5777 68.0142 42.5095C68.0142 31.4413 57.8985 22.4688 45.4202 22.4688C32.9419 22.4688 22.8262 31.4413 22.8262 42.5095C22.8262 53.5777 32.9419 62.5502 45.4202 62.5502Z" fill="#F1F1F1"/>
<path d="M43.9667 54.4221C40.6355 55.269 38.6488 58.8078 37.5371 61.8068C40.0771 62.6418 42.7557 63.0668 45.4187 63.026C48.4155 63.0438 51.4293 62.4757 54.2466 61.4138C52.5313 54.3353 49.0711 53.1243 43.9667 54.4221Z" fill="white"/>
<path d="M43.9672 54.4221C42.8341 54.7098 41.8566 55.3097 41.0157 56.0936C41.8514 56.8322 43.4362 57.8764 45.9005 58.1174C49.8102 58.5001 50.2151 58.041 50.2151 58.041C50.2151 58.041 50.2685 58.9806 50.4027 60.4119C47.2554 62.3459 40.2934 62.4943 40.2934 62.4943C40.2934 62.4943 40.1717 62.4854 39.9648 62.4698C41.7573 62.8621 43.592 63.0542 45.4192 63.026C48.416 63.0438 51.4298 62.4757 54.2471 61.4138C52.5318 54.3353 49.0716 53.1243 43.9672 54.4221Z" fill="#F1F1F1"/>
<path d="M41.8439 57.3998C41.7275 57.4258 41.6459 57.5244 41.5814 57.6179C41.5183 57.7083 41.4575 57.7996 41.3982 57.8923C41.3411 57.982 41.2855 58.0732 41.2313 58.1652C41.2024 58.2141 41.175 58.2631 41.1475 58.3127C41.1171 58.3669 41.0793 58.424 41.0667 58.4855C41.0519 58.5545 41.0763 58.6264 41.1386 58.6628C41.1972 58.6969 41.2825 58.6895 41.3292 58.6383C41.4034 58.5567 41.4449 58.4403 41.4976 58.3439C41.5495 58.2475 41.6036 58.1518 41.66 58.0569C41.7141 57.9649 41.7705 57.8745 41.8283 57.7855C41.8884 57.6928 41.9514 57.5875 41.9396 57.4725C41.9344 57.4228 41.8958 57.3895 41.8454 57.4006L41.8439 57.3998Z" fill="#F1F1F1"/>
<path d="M39.3475 60.1055C39.2437 60.1292 39.1606 60.2345 39.0991 60.3153C39.0345 60.3999 38.9737 60.4866 38.9174 60.5771C38.8632 60.6639 38.8121 60.7521 38.7639 60.8426C38.7387 60.8901 38.7134 60.9383 38.6897 60.9872C38.6549 61.0577 38.6111 61.1318 38.6155 61.2126C38.62 61.3002 38.666 61.3751 38.7483 61.4099C38.8254 61.4425 38.9248 61.4284 38.9841 61.3654C39.0687 61.2749 39.0872 61.1318 39.125 61.0161C39.1584 60.9168 39.1947 60.8189 39.2348 60.7217C39.2363 60.7173 39.2377 60.715 39.2377 60.7136C39.2377 60.7121 39.2385 60.7113 39.2392 60.7098C39.2444 60.698 39.2496 60.6861 39.2548 60.6743C39.2652 60.6505 39.2756 60.6268 39.2859 60.6038C39.3067 60.5563 39.3275 60.5089 39.349 60.4622C39.3935 60.3672 39.4439 60.2597 39.4298 60.1529C39.4246 60.1158 39.3786 60.0988 39.3475 60.1062V60.1055Z" fill="#F1F1F1"/>
<path d="M44.3038 58.8559C44.2519 58.9538 44.2311 59.0665 44.2088 59.1748C44.1873 59.2786 44.1732 59.3846 44.1577 59.4899C44.1258 59.7095 44.0813 59.9408 44.0887 60.1626C44.0924 60.2671 44.1584 60.3539 44.2578 60.385C44.2993 60.3977 44.3386 60.3954 44.3802 60.385C44.4855 60.3591 44.5403 60.2627 44.5492 60.1626C44.5685 59.9549 44.5544 59.7413 44.5626 59.533C44.567 59.4306 44.5752 59.3283 44.5796 59.2252C44.5848 59.114 44.5952 59.0012 44.5752 58.8915C44.5515 58.7654 44.3609 58.7476 44.303 58.8559H44.3038Z" fill="#F1F1F1"/>
<path d="M48.1696 58.3932C48.1481 58.2523 48.1214 58.1121 48.0917 57.9727C48.0591 57.8206 48.0279 57.6753 47.9605 57.5344C47.8833 57.3742 47.6445 57.461 47.6408 57.6212C47.6379 57.7628 47.6668 57.9022 47.6831 58.0431C47.6987 58.1796 47.7098 58.3168 47.7194 58.454C47.7283 58.5919 47.7409 58.7291 47.7469 58.867C47.7536 59.0228 47.718 59.2386 47.8507 59.3491C47.9397 59.4232 48.0517 59.4284 48.1407 59.3491C48.2734 59.2304 48.2311 59.0242 48.22 58.867C48.2089 58.7091 48.1941 58.5496 48.1703 58.3932H48.1696Z" fill="#F1F1F1"/>
<path d="M50.5484 60.534C50.5195 60.4294 50.4861 60.3271 50.4535 60.224C50.4186 60.115 50.3882 59.9941 50.3178 59.9036C50.2651 59.8362 50.1339 59.8732 50.1205 59.9556C50.1027 60.0668 50.1339 60.184 50.1546 60.2937C50.1761 60.4042 50.1962 60.5147 50.2221 60.6245C50.2473 60.7298 50.2718 60.8351 50.2963 60.9404C50.3222 61.0501 50.3341 61.1866 50.3927 61.2837C50.4839 61.4343 50.7079 61.3661 50.7153 61.1962C50.7197 61.0872 50.6663 60.9641 50.6374 60.8596C50.6077 60.7513 50.5781 60.643 50.5484 60.5347V60.534Z" fill="#F1F1F1"/>
<path d="M51.602 57.2303C51.55 57.1346 51.4952 57.0434 51.4344 56.9529C51.3691 56.8573 51.3061 56.7453 51.2163 56.6711C51.1296 56.6 50.9946 56.6652 51.0235 56.7839C51.0495 56.8914 51.1118 56.99 51.1577 57.0901C51.2052 57.1917 51.2519 57.2933 51.3001 57.3942C51.3936 57.5907 51.4692 57.7724 51.5441 57.9786C51.5827 58.0854 51.6895 58.1484 51.8007 58.1017C51.9142 58.0535 51.9364 57.937 51.8919 57.8317C51.8044 57.6271 51.7087 57.4253 51.6027 57.2296L51.602 57.2303Z" fill="#F1F1F1"/>
<path d="M41.6605 61.5767C41.5974 61.6116 41.5796 61.6739 41.5515 61.7369C41.5248 61.7955 41.5033 61.8541 41.4825 61.9149C41.4372 62.0499 41.3928 62.1841 41.3475 62.3191C41.3045 62.4489 41.2637 62.5809 41.2207 62.7114C41.3401 62.7307 41.4588 62.7492 41.5782 62.767C41.6056 62.6461 41.636 62.526 41.6627 62.4058C41.6924 62.2724 41.722 62.1389 41.7517 62.0054C41.7673 61.9372 41.7799 61.8704 41.788 61.8007C41.7954 61.7325 41.8117 61.6694 41.7754 61.6064C41.7524 61.5664 41.6998 61.5545 41.6605 61.576V61.5767Z" fill="#F1F1F1"/>
<path d="M47.2213 62.8431C47.2013 62.6792 47.1813 62.5138 47.1471 62.3521C47.1145 62.1979 47.0975 61.991 47.001 61.8627C46.918 61.7514 46.737 61.7529 46.694 61.9027C46.6518 62.0518 46.6948 62.2231 46.7052 62.3758C46.7155 62.5375 46.7304 62.6992 46.7393 62.8609C46.7415 62.9053 46.743 62.9498 46.7452 62.9936C46.9083 62.9854 47.0722 62.9751 47.2354 62.9639C47.2309 62.9239 47.2272 62.8831 47.222 62.8431H47.2213Z" fill="#F1F1F1"/>
<path d="M41.8439 57.019C41.7275 57.0449 41.6459 57.1436 41.5814 57.237C41.5183 57.3275 41.4575 57.4187 41.3982 57.5114C41.3411 57.6011 41.2855 57.6923 41.2313 57.7843C41.2024 57.8332 41.175 57.8822 41.1475 57.9319C41.1171 57.986 41.0793 58.0431 41.0667 58.1047C41.0519 58.1736 41.0763 58.2456 41.1386 58.2819C41.1972 58.316 41.2825 58.3086 41.3292 58.2574C41.4034 58.1759 41.4449 58.0594 41.4976 57.963C41.5495 57.8666 41.6036 57.771 41.66 57.676C41.7141 57.5841 41.7705 57.4936 41.8283 57.4046C41.8884 57.3119 41.9514 57.2066 41.9396 57.0917C41.9344 57.042 41.8958 57.0086 41.8454 57.0197L41.8439 57.019Z" fill="#1E1E22"/>
<path d="M39.2733 59.7998C39.1695 59.8235 39.0864 59.9288 39.0248 60.0097C38.9603 60.0942 38.8995 60.181 38.8432 60.2714C38.789 60.3582 38.7379 60.4465 38.6896 60.5369C38.6644 60.5844 38.6392 60.6326 38.6155 60.6815C38.5806 60.752 38.5369 60.8261 38.5413 60.907C38.5458 60.9945 38.5918 61.0694 38.6741 61.1042C38.7512 61.1369 38.8506 61.1228 38.9099 61.0597C38.9944 60.9693 39.013 60.8262 39.0508 60.7105C39.0842 60.6111 39.1205 60.5132 39.1606 60.416C39.162 60.4116 39.1635 60.4094 39.1635 60.4079C39.1635 60.4064 39.1643 60.4057 39.165 60.4042C39.1702 60.3923 39.1754 60.3805 39.1806 60.3686C39.191 60.3449 39.2013 60.3211 39.2117 60.2981C39.2325 60.2507 39.2533 60.2032 39.2748 60.1565C39.3193 60.0616 39.3697 59.954 39.3556 59.8472C39.3504 59.8102 39.3044 59.7931 39.2733 59.8005V59.7998Z" fill="#1E1E22"/>
<path d="M44.1065 58.5956C44.0546 58.6935 44.0338 58.8062 44.0116 58.9145C43.9901 59.0183 43.976 59.1244 43.9604 59.2297C43.9285 59.4492 43.884 59.6806 43.8914 59.9023C43.8952 60.0069 43.9612 60.0936 44.0605 60.1248C44.1021 60.1374 44.1414 60.1352 44.1829 60.1248C44.2882 60.0988 44.3431 60.0024 44.352 59.9023C44.3713 59.6947 44.3572 59.4811 44.3653 59.2727C44.3698 59.1704 44.3779 59.068 44.3824 58.9649C44.3876 58.8537 44.3979 58.741 44.3779 58.6312C44.3542 58.5052 44.1636 58.4874 44.1058 58.5956H44.1065Z" fill="#1E1E22"/>
<path d="M47.8727 58.1822C47.8512 58.0413 47.8245 57.9012 47.7948 57.7617C47.7622 57.6097 47.7311 57.4644 47.6636 57.3235C47.5865 57.1633 47.3477 57.25 47.344 57.4102C47.341 57.5519 47.3699 57.6913 47.3862 57.8322C47.4018 57.9686 47.4129 58.1058 47.4226 58.243C47.4315 58.381 47.4441 58.5182 47.45 58.6561C47.4567 58.8118 47.4211 59.0276 47.5538 59.1381C47.6428 59.2123 47.7548 59.2175 47.8438 59.1381C47.9765 59.0195 47.9343 58.8133 47.9231 58.6561C47.912 58.4981 47.8972 58.3387 47.8735 58.1822H47.8727Z" fill="#1E1E22"/>
<path d="M50.2965 60.3455C50.2675 60.241 50.2342 60.1386 50.2015 60.0355C50.1667 59.9265 50.1363 59.8056 50.0658 59.7152C50.0132 59.6477 49.8819 59.6848 49.8686 59.7671C49.8508 59.8783 49.8819 59.9955 49.9027 60.1052C49.9242 60.2157 49.9442 60.3262 49.9702 60.436C49.9954 60.5413 50.0199 60.6466 50.0443 60.7519C50.0703 60.8617 50.0821 60.9981 50.1407 61.0953C50.232 61.2458 50.4559 61.1776 50.4633 61.0078C50.4678 60.8988 50.4144 60.7756 50.3855 60.6711C50.3558 60.5628 50.3261 60.4545 50.2965 60.3463V60.3455Z" fill="#1E1E22"/>
<path d="M51.1547 56.9642C51.1028 56.8685 51.0479 56.7773 50.9871 56.6868C50.9218 56.5912 50.8588 56.4792 50.7691 56.405C50.6823 56.3338 50.5473 56.3991 50.5763 56.5178C50.6022 56.6253 50.6645 56.7239 50.7105 56.824C50.7579 56.9256 50.8047 57.0272 50.8529 57.1281C50.9463 57.3246 51.022 57.5063 51.0969 57.7125C51.1354 57.8192 51.2422 57.8823 51.3534 57.8356C51.4669 57.7874 51.4891 57.6709 51.4447 57.5656C51.3571 57.3609 51.2615 57.1592 51.1554 56.9634L51.1547 56.9642Z" fill="#1E1E22"/>
<path d="M46.8854 62.5794C46.8653 62.4155 46.8453 62.2501 46.8112 62.0884C46.7786 61.9342 46.7615 61.7273 46.6651 61.599C46.5821 61.4878 46.4011 61.4892 46.3581 61.639C46.3158 61.7881 46.3588 61.9594 46.3692 62.1122C46.3796 62.2738 46.3944 62.4355 46.4033 62.5972C46.4107 62.7344 46.4152 62.8723 46.4167 63.0102C46.5865 63.0043 46.7563 62.9954 46.9261 62.9858C46.9158 62.8501 46.9032 62.7144 46.8861 62.5794H46.8854Z" fill="#1E1E22"/>
<path d="M53.1345 61.3741C53.0759 61.2354 53.0121 61.1042 52.935 60.9751C52.8979 60.9128 52.8542 60.855 52.8104 60.7964C52.7592 60.7289 52.714 60.6948 52.6391 60.657C52.605 60.6399 52.5471 60.6511 52.5405 60.697C52.5293 60.7734 52.5219 60.8335 52.5412 60.9099C52.5575 60.9751 52.5724 61.0404 52.5909 61.1042C52.6309 61.2428 52.6717 61.3815 52.7118 61.5202C52.7489 61.6477 52.7815 61.7775 52.8111 61.9066C52.9669 61.8584 53.1226 61.8079 53.2776 61.756C53.2346 61.6262 53.1864 61.4994 53.133 61.3734L53.1345 61.3741Z" fill="#1E1E22"/>
<path d="M41.4695 61.4366C41.4065 61.4715 41.3887 61.5338 41.3605 61.5968C41.3338 61.6554 41.3123 61.714 41.2915 61.7748C41.2463 61.9097 41.2018 62.044 41.1565 62.1789C41.1024 62.3421 41.052 62.509 40.9941 62.6721C41.1172 62.6936 41.2403 62.7144 41.3635 62.7337C41.3968 62.5772 41.4361 62.4207 41.471 62.2657C41.5006 62.1322 41.5303 61.9987 41.56 61.8653C41.5755 61.797 41.5882 61.7303 41.5963 61.6606C41.6037 61.5923 41.62 61.5293 41.5837 61.4663C41.5607 61.4262 41.5081 61.4144 41.4688 61.4359L41.4695 61.4366Z" fill="#1E1E22"/>
<path d="M45.9725 53.7415C43.5297 54.0411 41.8863 54.6381 40.2333 56.5262C38.9451 58.0294 38.0315 59.8471 37.3789 61.7537C37.4842 61.7893 37.5888 61.8241 37.6948 61.8575C38.406 60.0473 39.3226 58.3179 40.6226 56.874C42.2259 55.1202 43.7469 54.6129 46.0407 54.3311C50.4301 53.7586 52.5007 56.3579 53.6991 60.2356C53.8266 60.6502 53.9416 61.0677 54.0461 61.4882C54.1781 61.44 54.3101 61.391 54.4407 61.3399C54.3843 61.1003 54.325 60.8615 54.2619 60.6235C53.108 56.3082 50.884 53.1438 45.9732 53.7415H45.9725Z" fill="#1E1E22"/>
<path d="M41.019 53.3858C41.019 53.3858 39.9764 55.2813 42.8411 56.0904C45.7066 56.8994 51.3635 55.787 50.8102 53.6201C50.257 51.4532 41.019 53.3858 41.019 53.3858Z" fill="#F1F1F1"/>
<path d="M49.3511 53.1313C49.5365 53.8544 49.6596 54.5923 49.7567 55.3324C49.865 55.2701 49.9673 55.2056 50.0623 55.1388C50.023 54.8667 49.9814 54.5952 49.9332 54.3246C49.8398 53.798 49.7248 53.2752 49.5728 52.7628C49.4645 52.7376 49.3511 52.7161 49.2324 52.6968C49.274 52.8414 49.3133 52.986 49.3503 53.1313H49.3511Z" fill="#1E1E22"/>
<path d="M48.1894 55.4748C48.0752 54.5775 47.9239 53.6861 47.7236 52.8036C47.7073 52.7332 47.6903 52.6627 47.6732 52.5923C47.5657 52.5923 47.4567 52.5938 47.3477 52.596C47.4337 53.0669 47.519 53.5378 47.5916 54.0117C47.6947 54.6851 47.7711 55.3614 47.8304 56.0399C47.9699 56.0073 48.1078 55.9725 48.242 55.9346C48.2257 55.7811 48.2094 55.6276 48.1901 55.4741L48.1894 55.4748Z" fill="#1E1E22"/>
<path d="M46.2103 55.4983C46.1925 54.6595 46.1762 53.82 46.1362 52.9813C46.131 52.873 46.1258 52.7655 46.1199 52.6572C46.0316 52.6639 45.9441 52.6706 45.8558 52.678C45.8536 53.143 45.8618 53.6079 45.8662 54.0729C45.8736 54.8242 45.8774 55.5754 45.8796 56.3266C45.9938 56.3192 46.108 56.3096 46.2222 56.2992C46.2192 56.0322 46.2155 55.7645 46.2103 55.4975V55.4983Z" fill="#1E1E22"/>
<path d="M44.0572 52.8781C43.9957 53.3023 43.9504 53.7273 43.9141 54.1544C43.854 54.8619 43.8207 55.5716 43.8125 56.2813C43.9163 56.2946 44.0224 56.3058 44.1299 56.3154C44.1314 56.0989 44.1351 55.8816 44.1403 55.665C44.1625 54.7877 44.2352 53.9164 44.3175 53.0435C44.3242 52.976 44.3324 52.9093 44.339 52.8418C44.2441 52.8537 44.1499 52.8663 44.0572 52.8789V52.8781Z" fill="#1E1E22"/>
<path d="M42.3538 53.138C42.2619 53.4917 42.1818 53.8484 42.115 54.2074C42.0223 54.7094 41.9556 55.2174 41.9141 55.7269C41.9942 55.7699 42.0802 55.8122 42.1721 55.853C42.1766 55.7884 42.1803 55.7239 42.1855 55.6594C42.2559 54.8258 42.3931 53.9968 42.5963 53.1847C42.6037 53.1543 42.6119 53.1239 42.6193 53.0942C42.5273 53.1098 42.4391 53.1246 42.3531 53.1387L42.3538 53.138Z" fill="#1E1E22"/>
<path d="M41.0368 53.4087C40.296 55.6083 43.2319 56.0918 44.8367 56.0658C46.4823 56.0451 48.9081 55.8107 50.1977 54.7354C50.5136 54.4588 50.7183 54.0724 50.6056 53.6579C50.3675 52.9096 48.9155 52.8214 48.231 52.768C45.826 52.6694 43.4069 53.0187 41.0368 53.4087ZM41.0027 53.3627C41.9378 53.1455 42.9294 52.9638 43.8764 52.8125C44.8367 52.6619 45.8023 52.5388 46.7767 52.4721C47.7616 52.4187 48.7479 52.3868 49.7253 52.6071C50.1005 52.7005 50.5084 52.8473 50.7843 53.1521C51.2945 53.7261 51.0401 54.6057 50.5106 55.0691C48.8658 56.5375 45.4374 56.9105 43.3387 56.4626C42.3746 56.2394 41.2563 55.8308 40.847 54.8467C40.6601 54.358 40.7298 53.7988 41.0034 53.3627H41.0027Z" fill="#1E1E22"/>
<path d="M35.3534 31.7885C35.3534 31.7885 36.9345 25.8743 39.5108 26.1673C41.2609 26.366 41.0525 31.0076 41.0525 31.0076L49.1722 30.6176C49.1722 30.6176 50.8119 26.2066 53.0759 26.5381C55.34 26.8696 54.7156 31.0855 54.7156 31.0855C54.7156 31.0855 58.4628 31.9443 59.088 35.3014C59.7124 38.6586 59.4781 49.7306 57.5262 51.8456C55.5744 53.9613 43.0437 54.875 40.2138 54.5746C37.3839 54.2743 31.6054 52.6369 30.2787 48.1072C28.9513 43.5776 30.0599 37.7598 30.5323 35.9652C31.1182 33.7404 33.7138 32.0221 35.3534 31.7885Z" fill="white"/>
<path d="M59.0877 35.3021C58.4633 31.9449 54.7153 31.0861 54.7153 31.0861C54.7153 31.0861 55.3397 26.8702 53.0756 26.5387C52.7144 26.4861 52.3696 26.5535 52.0448 26.7048C52.0693 26.9844 52.0307 27.3567 51.875 27.8543C51.3284 29.6015 50.6588 31.8463 51.7875 32.2363C52.9162 32.6264 54.6337 33.0158 54.6596 34.1096C54.6856 35.2034 54.7649 45.2898 54.205 47.9759C53.6451 50.6619 48.8092 53.2382 39.75 52.2237C34.6456 51.6519 32.2317 50.6263 30.9844 49.6986C33.026 53.0328 37.7417 54.3127 40.2127 54.576C43.0434 54.8771 55.5733 53.9627 57.5251 51.847C59.477 49.7312 59.7114 38.66 59.0869 35.3028L59.0877 35.3021Z" fill="#F1F1F1"/>
<path d="M41.995 32.4634C42.1908 32.258 42.5393 31.6091 42.879 30.9201L41.0524 31.0076C41.0524 31.0076 41.2608 26.366 39.5107 26.1673C39.0672 26.1168 38.6534 26.2503 38.2715 26.5062C38.3264 26.5062 38.3805 26.5106 38.4339 26.5203C39.6864 26.7591 39.3223 33.4267 39.3223 33.4267C39.3223 33.4267 41.5234 32.958 41.9958 32.4634H41.995Z" fill="#F1F1F1"/>
<path d="M44.4022 36.0357C45.6214 35.9964 46.8317 33.8495 46.8317 33.8495C46.8317 33.8495 47.9641 35.7339 49.1543 35.2993C49.9842 34.9967 50.0279 32.1194 49.141 30.8179L41.487 31.7627C41.487 31.7627 38.3738 34.2114 39.5775 35.2993C40.7811 36.3872 44.4022 34.1617 44.4022 34.1617C44.4022 34.1617 43.1831 36.0743 44.4022 36.0357Z" fill="#F1F1F1"/>
<path d="M59.8777 37.9236C59.7991 36.7912 59.6967 35.4623 59.3304 34.3729C58.8091 32.8926 57.3578 31.8574 55.9524 31.2426C55.6336 31.1032 55.4741 31.0194 55.0551 30.8562C55.1055 30.4172 55.1478 30.0383 55.1397 29.5985C55.1048 28.6478 54.9194 27.4857 54.246 26.7508C53.7203 26.1827 52.593 26.1813 51.9145 26.5202C51.2515 26.8368 50.702 27.3708 50.2815 27.9507C49.7416 28.7138 49.1773 29.4806 48.7182 30.352C48.5914 30.3586 41.6835 30.705 41.5344 30.7124C41.5463 30.1985 41.5092 29.8573 41.4692 29.3464C41.3698 28.2881 40.8774 25.7793 39.4424 25.7778C38.4146 25.7771 37.9882 26.1486 37.5944 26.5209C36.4004 27.6948 35.0262 31.6208 35.0262 31.6208C33.2754 31.8833 31.4896 33.0944 30.6264 34.6287C30.4373 34.9632 30.1369 35.9473 30.0405 36.3188C29.8485 37.053 29.7528 37.8635 29.646 38.5391C29.1299 41.8036 29.0765 44.9687 29.959 48.1946C30.0932 48.6618 30.3387 49.3107 30.5708 49.7386C31.6846 51.8002 33.635 52.9757 35.7634 53.8181C37.1924 54.375 38.8432 54.6924 40.3739 54.8437C41.8963 54.9616 43.4047 54.9268 44.9243 54.8726C48.1761 54.7206 54.9743 54.5968 57.512 52.6182C59.9904 50.6701 60.0431 41.0724 59.8769 37.9258L59.8777 37.9236ZM57.4964 51.1647C56.1556 53.8188 47.7475 54.2542 44.9065 54.3787C42.6728 54.4336 40.4109 54.5308 38.2292 53.9701C35.1026 53.1907 31.6921 51.5244 30.5582 48.2947C29.9827 46.5216 29.8233 44.6394 29.8225 42.781C29.8425 40.537 30.1021 38.2796 30.6153 36.0926C31.0854 34.0421 33.3443 32.2052 35.3681 31.8062C35.6759 30.7784 36.0474 29.7631 36.5361 28.8057C36.9025 28.0975 37.3252 27.4027 37.9081 26.8531C38.3716 26.4141 39.0383 26.0722 39.6827 26.2576C40.0594 26.3822 40.2967 26.7278 40.4599 27.0771C40.7847 27.8061 40.8863 28.6129 40.9508 29.405C40.9886 29.9367 40.9998 30.4728 40.9805 31.0038L40.9775 31.0824L41.0554 31.0787L49.1765 30.7183L49.2425 30.7153C49.4176 30.2607 49.6267 29.8136 49.8558 29.3797C50.4395 28.3133 51.4139 26.753 52.7354 26.6448C54.8401 26.5884 54.7659 29.7186 54.562 31.1885C56.3522 31.6431 58.1142 32.8244 58.746 34.6213C59.0923 35.6781 59.1138 36.8194 59.1843 37.9273C59.3215 41.4521 59.1368 48.1212 57.4964 51.1632V51.1647Z" fill="#1E1E22"/>
<path d="M43.9674 35.2806C45.1866 35.2413 46.3969 33.0944 46.3969 33.0944C46.3969 33.0944 47.5293 34.9788 48.7195 34.5442C49.5494 34.2416 49.4967 31.9613 49.2831 30.6123L41.0515 31.0083C41.0515 31.0083 37.9383 33.457 39.1419 34.545C40.3455 35.6329 43.9667 33.4074 43.9667 33.4074C43.9667 33.4074 42.7475 35.3199 43.9667 35.2814L43.9674 35.2806Z" fill="#1E1E22"/>
<path d="M37.3763 30.2421C37.6478 29.9581 37.7901 29.5369 37.9859 29.1987C38.1654 28.888 38.4932 28.555 38.4998 28.185C38.5021 28.067 38.3753 27.9603 38.2581 28.001C37.8873 28.1301 37.6811 28.5906 37.4994 28.9147C37.3029 29.2662 37.0448 29.6904 37.0352 30.1012C37.0315 30.2725 37.2569 30.3667 37.3756 30.2421H37.3763Z" fill="#F1F1F1"/>
<path d="M37.1009 29.9658C37.3724 29.6817 37.5148 29.2605 37.7105 28.9223C37.89 28.6116 38.2178 28.2786 38.2245 27.9086C38.2267 27.7907 38.0999 27.6839 37.9827 27.7247C37.6119 27.8537 37.4057 28.3142 37.224 28.6383C37.0275 28.9898 36.7695 29.414 36.7598 29.8249C36.7561 29.9962 36.9816 30.0903 37.1002 29.9658H37.1009Z" fill="#1E1E22"/>
<path d="M34.0423 34.3676C33.7115 34.4611 33.4675 34.8052 33.2451 35.0551C33.0107 35.3183 32.7912 35.5949 32.585 35.8805C32.2009 36.4122 31.7018 37.093 31.6914 37.7745C31.6892 37.9132 31.8575 37.9688 31.9525 37.8828C32.4338 37.4474 32.7037 36.7615 33.0834 36.2379C33.2814 35.9643 33.4972 35.7032 33.7249 35.454C33.9451 35.213 34.2521 35.0024 34.3649 34.6909C34.4346 34.4989 34.2232 34.3164 34.0415 34.3676H34.0423Z" fill="#F1F1F1"/>
<path d="M35.5842 33.4373C35.4804 33.2593 35.2549 33.2511 35.1059 33.3757C34.9464 33.5092 34.6965 33.6494 34.6023 33.8652C34.5096 34.0787 34.698 34.2767 34.9153 34.1781C35.0836 34.1017 35.2379 33.9319 35.4025 33.8844C35.5909 33.8303 35.6843 33.6078 35.5842 33.4373Z" fill="#F1F1F1"/>
<path d="M33.8352 34.0219C33.5045 34.1154 33.2605 34.4594 33.038 34.7094C32.8037 34.9726 32.5842 35.2492 32.378 35.5348C31.9939 36.0665 31.4948 36.7473 31.4844 37.4288C31.4822 37.5675 31.6505 37.6231 31.7454 37.537C32.2267 37.1017 32.4967 36.4158 32.8764 35.8922C33.0744 35.6186 33.2902 35.3575 33.5178 35.1083C33.7381 34.8673 34.0451 34.6567 34.1578 34.3452C34.2275 34.1532 34.0162 33.9707 33.8345 34.0219H33.8352Z" fill="#1E1E22"/>
<path d="M35.3772 33.092C35.2733 32.9141 35.0479 32.9059 34.8988 33.0305C34.7394 33.164 34.4895 33.3041 34.3953 33.5199C34.3026 33.7335 34.491 33.9315 34.7083 33.8329C34.8766 33.7565 35.0308 33.5867 35.1955 33.5392C35.3838 33.4851 35.4773 33.2626 35.3772 33.092Z" fill="#1E1E22"/>
<path d="M57.0562 33.6564C56.9413 33.5303 56.6847 33.6201 56.6699 33.7884C56.6424 34.0873 56.7655 34.4195 56.9064 34.6805C56.9828 34.8229 57.189 34.8593 57.3225 34.7918C57.4523 34.7258 57.5642 34.5448 57.4923 34.3958C57.4278 34.2616 57.3492 34.1362 57.2802 34.0042C57.2135 33.8774 57.1534 33.7639 57.0562 33.6564Z" fill="#1E1E22"/>
<path d="M31.584 48.0299C31.5944 48.5075 31.9911 48.9925 32.3004 49.3284C32.5903 49.6436 33.1428 50.2057 33.607 50.1523C33.8414 50.1257 34.0253 49.8943 33.8881 49.6629C33.765 49.4567 33.5848 49.3952 33.389 49.2728C33.1932 49.1505 33.0056 49.0192 32.8343 48.8687C32.6778 48.7315 32.5332 48.5817 32.3975 48.4244C32.2462 48.2487 32.1187 48.0255 31.937 47.8838C31.8057 47.7822 31.581 47.8341 31.5855 48.0292L31.584 48.0299Z" fill="#F1F1F1"/>
<path d="M31.5195 47.4952C31.5299 47.9728 31.9267 48.4578 32.2359 48.7938C32.5259 49.1089 33.0783 49.6711 33.5426 49.6177C33.7769 49.591 33.9608 49.3596 33.8236 49.1282C33.7005 48.9221 33.5203 48.8605 33.3246 48.7382C33.131 48.6173 32.9412 48.4845 32.7699 48.334C32.6134 48.1968 32.4688 48.047 32.3331 47.8898C32.1818 47.714 32.0542 47.4908 31.8725 47.3492C31.7413 47.2476 31.5166 47.2995 31.521 47.4945L31.5195 47.4952Z" fill="#1E1E22"/>
<path d="M62.3224 41.7583C61.6253 41.8762 60.926 41.9696 60.2281 42.0831C59.936 42.1306 59.6453 42.1847 59.3553 42.244C59.3494 42.3731 59.3405 42.5392 59.3301 42.7327C59.6534 42.6912 59.976 42.6497 60.2993 42.6089C61.0046 42.5207 61.7046 42.4547 62.4158 42.4458C62.9127 42.4398 62.8378 41.6715 62.3231 41.7583H62.3224Z" fill="#1E1E22"/>
<path d="M62.7288 43.699C62.0028 43.6375 61.2538 43.6834 60.5256 43.7012C60.1221 43.7109 59.689 43.7086 59.2656 43.7398C59.2545 43.8992 59.2419 44.0646 59.2285 44.2337C59.6631 44.2381 60.1043 44.2129 60.5256 44.2107C61.2575 44.2063 61.9984 44.2589 62.7288 44.2241C63.0699 44.2077 63.0633 43.7272 62.7288 43.699Z" fill="#1E1E22"/>
<path d="M62.2364 45.3802C61.5334 45.3112 60.8252 45.2808 60.1206 45.2207C59.8225 45.1948 59.4851 45.1429 59.1499 45.1206C59.1314 45.309 59.1113 45.4981 59.0898 45.6835C59.4199 45.7287 59.7573 45.745 60.0524 45.7762C60.7733 45.8533 61.5096 45.946 62.2357 45.9415C62.6035 45.9393 62.5887 45.415 62.2357 45.3802H62.2364Z" fill="#1E1E22"/>
<path d="M29.6516 43.2184C29.4477 42.9292 28.7736 42.9084 28.4317 42.858C27.8362 42.8142 27.2348 42.7015 26.6393 42.7453C26.4776 42.7683 26.201 42.815 26.2285 42.9707C26.2692 43.2028 26.6816 43.2392 26.9085 43.2799C27.4143 43.3378 27.923 43.3548 28.4295 43.4068C28.6586 43.4208 29.6591 43.5454 29.6546 43.2288L29.6509 43.2184H29.6516Z" fill="#1E1E22"/>
<path d="M29.6948 44.3939C29.4234 44.3198 29.1312 44.3509 28.8516 44.3561C28.5409 44.362 28.2324 44.3709 27.9217 44.3865C27.6117 44.4021 27.3017 44.4154 26.991 44.4281C26.7062 44.4399 26.4022 44.4184 26.1293 44.5074C25.912 44.5786 25.8927 44.9056 26.1293 44.9679C26.4081 45.0413 26.7047 45.0035 26.991 44.9931C27.3232 44.9813 27.6555 44.965 27.9877 44.9479C28.5313 44.9197 29.2306 44.9323 29.7364 44.7136C29.8802 44.6513 29.8283 44.4303 29.6948 44.3939Z" fill="#1E1E22"/>
<path d="M29.6682 45.4448C29.1669 45.5575 28.6648 45.8416 28.2043 46.05C27.6763 46.2888 27.1119 46.5127 26.618 46.816C26.3866 46.9577 26.5357 47.3767 26.8101 47.2721C27.3344 47.0726 27.835 46.793 28.3437 46.5565C28.7872 46.3496 29.3018 46.176 29.7275 45.9143L29.6682 45.4448Z" fill="#1E1E22"/>
<path d="M47.3242 41.8819C47.1521 41.5207 46.636 41.8359 46.7925 42.1926C47.075 42.8378 46.5084 43.5853 45.8009 43.3799C45.1647 43.196 45.1572 42.5945 45.0779 42.0443C45.8217 41.6994 46.4728 41.1099 46.5136 40.6516C46.5626 40.1043 45.7913 40.0079 44.7471 39.9982C43.7 39.9886 42.8101 40.3623 43.0778 41.0898C43.3248 41.7617 43.9366 42.048 44.3882 42.0346C44.3808 42.1963 44.3726 42.3587 44.3289 42.5122C44.2392 42.8304 44.0753 43.2731 43.7697 43.4488C42.9503 43.919 42.42 42.8622 42.4178 42.2015C42.4171 41.9293 42.03 41.9412 42.0033 42.2015C41.8994 43.1997 42.6937 44.2928 43.769 44.0421C44.2495 43.9301 44.5514 43.4985 44.7434 43.0729C44.7457 43.0684 44.7471 43.064 44.7494 43.0595C44.9377 43.5898 45.3612 44.0006 46.0197 44.0236C47.1484 44.0621 47.7795 42.837 47.3249 41.8826L47.3242 41.8819Z" fill="#F1F1F1"/>
<path d="M44.2934 41.9382C44.2934 41.9382 43.0445 41.092 42.888 40.6196C42.6441 39.8847 43.3538 39.7119 44.4009 39.7216C45.445 39.7312 46.2163 39.8276 46.1673 40.3749C46.1184 40.9222 45.2011 41.6556 44.2934 41.9374V41.9382Z" fill="#1E1E22"/>
<path d="M54.058 43.9938C53.1118 43.844 52.9049 42.6396 53.0087 41.8239C53.0502 41.5028 53.137 41.1832 53.292 40.9177C53.593 40.3466 54.3547 40.0381 54.8871 40.4683C55.3692 40.8658 55.4418 41.5169 55.4188 42.165C55.3936 42.9741 55.0191 44.0487 54.0691 43.9945L54.0573 43.993L54.058 43.9938Z" fill="#F1F1F1"/>
<path d="M36.2525 43.677C35.9084 43.6881 35.5317 43.4115 35.3759 43.08C35.129 42.5104 35.261 41.6902 35.4093 41.0955C35.4835 40.8382 35.591 40.6112 35.7601 40.4414C36.053 40.1448 36.5758 40.0091 36.9392 40.253C37.313 40.5156 37.3723 41.0577 37.3842 41.5538C37.3797 42.0314 37.3604 42.5216 37.1639 42.9628C36.9681 43.3662 36.6596 43.6488 36.2629 43.6762H36.2525V43.677Z" fill="#F1F1F1"/>
<path d="M39.3497 41.6085C39.5708 41.6085 39.7501 41.4292 39.7501 41.2081C39.7501 40.9869 39.5708 40.8076 39.3497 40.8076C39.1285 40.8076 38.9492 40.9869 38.9492 41.2081C38.9492 41.4292 39.1285 41.6085 39.3497 41.6085Z" fill="#F1F1F1"/>
<path d="M40.6743 42.1611C40.9799 42.1611 41.2275 41.9135 41.2275 41.6079C41.2275 41.3024 40.9799 41.0547 40.6743 41.0547C40.3688 41.0547 40.1211 41.3024 40.1211 41.6079C40.1211 41.9135 40.3688 42.1611 40.6743 42.1611Z" fill="#F1F1F1"/>
<path d="M39.5304 43.2155C39.8502 43.2155 40.1095 42.9562 40.1095 42.6363C40.1095 42.3164 39.8502 42.0571 39.5304 42.0571C39.2105 42.0571 38.9512 42.3164 38.9512 42.6363C38.9512 42.9562 39.2105 43.2155 39.5304 43.2155Z" fill="#F1F1F1"/>
<path d="M48.9259 41.9372C49.2798 41.9372 49.5666 41.6504 49.5666 41.2965C49.5666 40.9426 49.2798 40.6558 48.9259 40.6558C48.572 40.6558 48.2852 40.9426 48.2852 41.2965C48.2852 41.6504 48.572 41.9372 48.9259 41.9372Z" fill="#F1F1F1"/>
<path d="M50.3538 40.8941C50.6053 40.8941 50.8091 40.6902 50.8091 40.4387C50.8091 40.1873 50.6053 39.9834 50.3538 39.9834C50.1023 39.9834 49.8984 40.1873 49.8984 40.4387C49.8984 40.6902 50.1023 40.8941 50.3538 40.8941Z" fill="#F1F1F1"/>
<path d="M50.2146 42.9659C50.5435 42.9659 50.8101 42.6993 50.8101 42.3704C50.8101 42.0415 50.5435 41.7749 50.2146 41.7749C49.8858 41.7749 49.6191 42.0415 49.6191 42.3704C49.6191 42.6993 49.8858 42.9659 50.2146 42.9659Z" fill="#F1F1F1"/>
<path d="M39.1426 41.4708C39.3638 41.4708 39.5431 41.2915 39.5431 41.0704C39.5431 40.8492 39.3638 40.6699 39.1426 40.6699C38.9215 40.6699 38.7422 40.8492 38.7422 41.0704C38.7422 41.2915 38.9215 41.4708 39.1426 41.4708Z" fill="#1E1E22"/>
<path d="M40.4673 42.0239C40.7728 42.0239 41.0205 41.7762 41.0205 41.4707C41.0205 41.1652 40.7728 40.9175 40.4673 40.9175C40.1618 40.9175 39.9141 41.1652 39.9141 41.4707C39.9141 41.7762 40.1618 42.0239 40.4673 42.0239Z" fill="#1E1E22"/>
<path d="M39.3214 43.0778C39.6412 43.0778 39.9006 42.8185 39.9006 42.4986C39.9006 42.1787 39.6412 41.9194 39.3214 41.9194C39.0015 41.9194 38.7422 42.1787 38.7422 42.4986C38.7422 42.8185 39.0015 43.0778 39.3214 43.0778Z" fill="#1E1E22"/>
<path d="M48.7189 41.7302C49.0727 41.7302 49.3596 41.4433 49.3596 41.0895C49.3596 40.7356 49.0727 40.4487 48.7189 40.4487C48.365 40.4487 48.0781 40.7356 48.0781 41.0895C48.0781 41.4433 48.365 41.7302 48.7189 41.7302Z" fill="#1E1E22"/>
<path d="M50.1467 40.687C50.3982 40.687 50.6021 40.4832 50.6021 40.2317C50.6021 39.9802 50.3982 39.7764 50.1467 39.7764C49.8953 39.7764 49.6914 39.9802 49.6914 40.2317C49.6914 40.4832 49.8953 40.687 50.1467 40.687Z" fill="#1E1E22"/>
<path d="M50.0076 42.7589C50.3365 42.7589 50.6031 42.4923 50.6031 42.1634C50.6031 41.8345 50.3365 41.5679 50.0076 41.5679C49.6787 41.5679 49.4121 41.8345 49.4121 42.1634C49.4121 42.4923 49.6787 42.7589 50.0076 42.7589Z" fill="#1E1E22"/>
<path d="M43.4451 40.6799C43.6898 40.7511 44.0317 40.6784 44.2942 40.6428C44.6123 40.5961 44.8081 40.2579 44.464 40.0873C44.197 39.9731 43.3769 40.0614 43.2982 40.3996C43.2641 40.5063 43.3294 40.6324 43.4228 40.6702L43.4443 40.6799H43.4451Z" fill="white"/>
<path d="M35.6295 43.4006C35.2854 43.4117 34.9086 43.1351 34.7529 42.8036C34.5059 42.2341 34.6379 41.4139 34.7863 40.8191C34.8604 40.5618 34.968 40.3349 35.137 40.165C35.43 39.8684 35.9528 39.7327 36.3162 39.9767C36.6899 40.2392 36.7493 40.7813 36.7611 41.2774C36.7567 41.755 36.7374 42.2452 36.5409 42.6864C36.3451 43.0899 36.0366 43.3724 35.6398 43.3999H35.6295V43.4006Z" fill="#1E1E22"/>
<path d="M35.7593 40.4952C35.7474 40.3231 35.608 40.1548 35.4255 40.1963C35.1096 40.2801 34.9494 40.8371 35.0688 41.1255C35.1208 41.262 35.2728 41.3584 35.4166 41.3028C35.7044 41.1804 35.7837 40.7859 35.7607 40.5078L35.7593 40.4944V40.4952Z" fill="white"/>
<path d="M53.644 43.5787C52.6977 43.4289 52.4908 42.2246 52.5946 41.4089C52.6361 41.0877 52.7229 40.7681 52.8779 40.5026C53.179 39.9316 53.9406 39.6231 54.4731 40.0532C54.9551 40.4507 55.0278 41.1018 55.0048 41.75C54.9796 42.5591 54.6051 43.6336 53.6551 43.5795L53.6432 43.578L53.644 43.5787Z" fill="#1E1E22"/>
<path d="M53.7277 40.409C53.2931 40.0545 52.9401 41.0549 53.1581 41.3708C53.259 41.511 53.4526 41.4568 53.5623 41.3508C53.79 41.1394 53.9146 40.6811 53.7358 40.4179L53.7277 40.409Z" fill="white"/>
<path d="M46.9785 41.6047C46.8064 41.2436 46.2903 41.5587 46.4467 41.9154C46.7293 42.5606 46.1627 43.3081 45.4552 43.1027C44.6499 42.8691 44.8523 41.9666 44.6402 41.3466C44.6202 41.2717 44.592 41.2013 44.5535 41.1375C44.4415 40.9543 44.1938 41.0085 44.1241 41.1939C44.004 41.515 44.0781 41.8969 43.9832 42.2358C43.8935 42.5539 43.7296 42.9967 43.424 43.1724C42.6046 43.6426 42.0743 42.5858 42.0721 41.9251C42.0714 41.6529 41.6843 41.6648 41.6576 41.9251C41.5537 42.9233 42.348 44.0164 43.4233 43.7657C43.9038 43.6537 44.2057 43.2221 44.3977 42.7964C44.4 42.792 44.4014 42.7876 44.4037 42.7831C44.592 43.3133 45.0155 43.7242 45.674 43.7472C46.8027 43.7857 47.4338 42.5606 46.9792 41.6062L46.9785 41.6047Z" fill="#1E1E22"/>
<path d="M34.7426 26.3919C34.5231 26.3415 34.2984 26.4831 34.1033 26.5721C33.9239 26.6537 33.7474 26.7405 33.5738 26.8332C33.2208 27.0208 32.8797 27.2314 32.5527 27.4628C31.8986 27.9263 31.2972 28.4639 30.7721 29.0691C30.474 29.4132 30.2063 29.7877 30.0038 30.1955C29.9326 30.3394 30.1225 30.5159 30.2411 30.3787C30.7454 29.7928 31.2289 29.1929 31.8014 28.6716C32.3687 28.1547 32.9991 27.7105 33.6732 27.3426C33.8683 27.2358 34.067 27.1365 34.2687 27.0438C34.4704 26.9511 34.7396 26.8932 34.8694 26.7041C34.945 26.5929 34.8694 26.4216 34.7426 26.3919Z" fill="#1E1E22"/>
<path d="M63.5379 50.1713C63.4504 50.1201 63.3021 50.1246 63.2354 50.2106C63.1175 50.3626 63.0418 50.5436 62.9513 50.7127C62.8638 50.8758 62.7741 51.0375 62.6806 51.1984C62.4953 51.5188 62.298 51.8325 62.0903 52.1395C61.6832 52.7417 61.242 53.3216 60.7629 53.8681C60.4878 54.1818 60.1845 54.4785 59.9264 54.8062C59.8745 54.873 59.8582 54.9546 59.913 55.0265C59.9605 55.088 60.0606 55.1177 60.1296 55.0695C60.4366 54.8544 60.7125 54.5793 60.9705 54.3086C61.2308 54.0357 61.4815 53.7547 61.7218 53.464C62.2083 52.8774 62.6465 52.2522 63.0403 51.5989C63.1464 51.4224 63.2494 51.2444 63.3488 51.0642C63.4549 50.8714 63.5936 50.6652 63.6514 50.4524C63.6803 50.3456 63.6321 50.2262 63.5364 50.1706L63.5379 50.1713Z" fill="#1E1E22"/>
<path d="M37.2322 23.1706C27.5462 26.378 20.3758 36.4874 22.8134 46.8103C25.1368 56.8551 33.5591 62.9948 45.42 63.2684C58.3534 63.5665 68.4857 54.7268 68.7097 42.7323C69.0301 25.5778 50.8173 18.3599 37.2322 23.1706ZM53.5152 60.7996C48.31 62.5231 42.5382 62.5009 37.3567 60.7047C29.5923 58.1373 23.162 50.9343 23.2072 42.5091C23.1456 36.9783 25.9103 31.6729 30.1292 28.1637C36.495 22.7753 45.7456 21.347 53.5872 24.0123C61.5726 26.6175 68.0423 33.8488 67.9666 42.5083C67.9814 51.1286 61.4703 58.2612 53.516 60.7989L53.5152 60.7996Z" fill="#1E1E22"/>
<path d="M29.2437 68.5722C37.9374 68.5722 46.6318 68.5722 55.3255 68.5722H62.7503C63.4807 68.5722 63.4822 67.436 62.7503 67.436C54.0566 67.436 45.3622 67.436 36.6685 67.436H29.2437C28.5133 67.436 28.5118 68.5722 29.2437 68.5722Z" fill="#F1F1F1"/>
<path d="M29.2437 74.1674H62.7503C63.4807 74.1674 63.4822 73.0312 62.7503 73.0312H36.6685C34.1938 73.0312 31.7184 73.0312 29.2437 73.0312C28.5133 73.0312 28.5118 74.1674 29.2437 74.1674Z" fill="#F1F1F1"/>
<path d="M28.7672 67.809C37.4608 67.809 46.1552 67.809 54.8489 67.809H62.2737C63.0041 67.809 63.0056 66.6729 62.2737 66.6729C53.58 66.6729 44.8856 66.6729 36.192 66.6729H28.7672C28.0367 66.6729 28.0352 67.809 28.7672 67.809Z" fill="#1E1E22"/>
<path d="M28.7672 73.4047H62.2737C63.0041 73.4047 63.0056 72.2686 62.2737 72.2686H36.192C33.7173 72.2686 31.2418 72.2686 28.7672 72.2686C28.0367 72.2686 28.0352 73.4047 28.7672 73.4047Z" fill="#1E1E22"/>
<path d="M21.6885 23.0342C21.2176 23.3694 20.8594 23.9285 20.5524 24.4121C20.2186 24.9386 19.9435 25.5015 19.724 26.0843C19.5156 26.6376 19.3621 27.2279 19.2991 27.8167C19.2553 28.2283 19.1107 29.0952 19.4466 29.4015C19.4711 29.4237 19.5067 29.4245 19.5312 29.4015C19.6802 29.2613 19.6758 29.1241 19.7047 28.9246C19.7477 28.6302 19.7996 28.3388 19.8649 28.0481C19.9895 27.4919 20.1304 26.9468 20.3247 26.4106C20.5257 25.8552 20.7882 25.3235 21.1011 24.8229C21.4022 24.3409 21.8234 23.9426 22.1164 23.4628C22.2721 23.2077 21.9495 22.8488 21.6885 23.0349V23.0342Z" fill="#F1F1F1"/>
<path d="M24.293 20.8309C23.8073 21.023 23.0353 21.3864 22.9715 21.9767C22.9589 22.0953 23.0939 22.2348 23.214 22.2192C23.4625 22.1866 23.6375 22.0353 23.8503 21.9129C24.0639 21.7898 24.2752 21.6934 24.5126 21.6252C25.0309 21.4769 24.7788 20.6381 24.2938 20.8302L24.293 20.8309Z" fill="#F1F1F1"/>
<path d="M21.4014 22.6226C20.9305 22.9578 20.5723 23.5169 20.2652 24.0004C19.9315 24.527 19.6564 25.0898 19.4369 25.6727C19.2285 26.226 19.075 26.8163 19.012 27.4051C18.9682 27.8167 18.8236 28.6836 19.1595 28.9899C19.184 29.0121 19.2196 29.0128 19.2441 28.9899C19.3931 28.8497 19.3887 28.7125 19.4176 28.513C19.4606 28.2186 19.5125 27.9272 19.5778 27.6365C19.7024 27.0803 19.8433 26.5352 20.0376 25.999C20.2385 25.4436 20.5011 24.9119 20.814 24.4113C21.1151 23.9292 21.5363 23.531 21.8293 23.0512C21.985 22.7961 21.6624 22.4372 21.4014 22.6233V22.6226Z" fill="#1E1E22"/>
<path d="M24.0059 20.4193C23.5202 20.6114 22.7482 20.9748 22.6844 21.5651C22.6718 21.6837 22.8068 21.8231 22.9269 21.8076C23.1753 21.7749 23.3504 21.6236 23.5632 21.5013C23.7768 21.3782 23.9881 21.2818 24.2254 21.2135C24.7438 21.0652 24.4917 20.2265 24.0067 20.4186L24.0059 20.4193Z" fill="#1E1E22"/>
<path d="M23.4144 76.8707C22.3487 76.471 21.579 75.627 21.0806 74.6162C20.5141 73.4668 20.4733 72.2172 20.4399 70.9639C20.4243 70.3847 19.5908 70.3959 19.5478 70.9639C19.435 72.4582 19.7094 74.0897 20.4696 75.3942C20.7981 75.9578 21.2275 76.465 21.7614 76.8447C22.2323 77.1799 22.9079 77.5856 23.4611 77.2237C23.6072 77.128 23.5709 76.9293 23.4152 76.8707H23.4144Z" fill="#F1F1F1"/>
<path d="M23.889 76.2208C22.8234 75.8211 22.0536 74.9771 21.5552 73.9663C20.9887 72.8169 20.9479 71.5673 20.9145 70.314C20.8989 69.7348 20.0654 69.746 20.0224 70.314C19.9096 71.8083 20.184 73.4398 20.9442 74.7443C21.2727 75.3079 21.7021 75.8151 22.236 76.1948C22.7069 76.53 23.3825 76.9357 23.9357 76.5738C24.0818 76.4781 24.0455 76.2794 23.8898 76.2208H23.889Z" fill="#1E1E22"/>
<path d="M26.3115 82.9754C23.8642 83.0013 20.7829 81.8749 18.9831 80.2115C17.0475 78.4569 16.1999 75.4319 16.1339 72.8186C16.0775 63.146 16.0427 39.5605 16.0078 30.1082C16.0145 29.3339 15.9893 27.7299 16.0056 26.9519C16.0345 25.5511 16.3638 24.1554 16.9682 22.8895C18.0405 20.6321 19.9865 18.8115 22.3143 17.8964C23.4756 17.4351 24.7252 17.1978 25.9748 17.1926L54.744 17.094L61.936 17.0754L65.532 17.071C68.0638 17.0547 70.5896 18.038 72.4406 19.7689C74.371 21.5361 75.5471 24.0761 75.6688 26.6879C75.6969 27.5897 75.6688 29.1611 75.6747 30.0859C75.6472 41.9825 75.8156 53.6203 75.6843 65.5347C75.6584 67.1432 75.7036 70.4277 75.6821 72.0221C75.6821 72.3195 75.5657 73.8227 75.539 74.1193C75.005 80.0795 70.9826 82.9524 65.991 82.8931C65.991 82.8931 39.4228 82.8894 26.3115 82.9769V82.9754ZM65.5542 82.0899C70.4672 82.1211 74.3754 78.049 74.6379 73.1345C74.6861 71.1366 74.962 68.0843 74.9583 66.0464C74.7929 53.001 74.6676 39.7703 74.6164 26.7406C74.46 23.2514 72.1143 20.007 68.8484 18.7692C67.7946 18.3584 66.6666 18.1478 65.5312 18.1463L61.9353 18.1419C57.3456 18.1456 31.1489 18.0336 25.9741 18.0247C22.5027 17.9832 19.1485 20.0885 17.663 23.2255C17.0987 24.3898 16.788 25.6779 16.7539 26.9727C16.7331 27.7492 16.7479 29.3095 16.739 30.1096C16.7183 39.4885 16.6419 63.2083 16.6263 72.8067C16.6708 75.297 17.7713 77.7375 19.5986 79.4313C21.3117 81.0458 23.641 81.9653 25.9963 81.9698C39.1113 82.0499 52.4525 82.1307 65.5535 82.0921L65.5542 82.0899Z" fill="#1E1E22"/>
<path d="M78.0038 49.4675L59.6004 47.8961C56.841 47.6603 54.8617 50.4998 56.0371 53.0071L63.8779 69.7307C65.0534 72.238 68.5025 72.5324 70.0858 70.261L72.9046 66.2171L77.8236 69.6462C80.0149 71.1739 83.0303 70.6355 84.5572 68.4441C86.0849 66.2527 85.5465 63.2374 83.3551 61.7104L78.4361 58.2813L80.6475 55.1088C82.2308 52.8373 80.7617 49.7026 78.0023 49.4675H78.0038Z" fill="white"/>
<path d="M80.6493 55.1089C82.2326 52.8374 80.7635 49.7027 78.004 49.4676L77.9061 49.4595C79.2781 50.9145 78.4801 52.4058 78.4801 52.4058C78.4801 52.4058 76.7767 54.9962 76.2524 56.1872C75.7281 57.3789 78.067 58.2948 78.067 58.2948L78.4512 58.2621L80.6485 55.1096L80.6493 55.1089Z" fill="#F1F1F1"/>
<path d="M75.294 64.5248C72.5879 62.5478 71.5912 62.9534 70.1436 65.176C68.696 67.3985 68.6441 68.3522 66.6819 66.78C64.7196 65.2079 62.1827 57.8824 58.8514 53.6064C57.1398 51.4091 56.5317 50.1387 56.3441 49.4224C55.6507 50.4161 55.449 51.7539 56.0371 53.008L63.8779 69.7316C65.0534 72.2389 68.5025 72.5333 70.0858 70.2618L72.9046 66.2179L77.8235 69.647C80.0149 71.1747 83.0302 70.6363 84.5572 68.4449C85.2179 67.4971 85.4916 66.3959 85.413 65.3273C81.8185 70.3382 77.8391 66.3855 75.2932 64.5248H75.294Z" fill="#F1F1F1"/>
<path d="M78.7055 48.6489C72.7179 48.181 66.0399 47.8428 60.0657 47.2303C59.6044 47.1754 58.9184 47.1999 58.4557 47.2696C55.8045 47.6678 54.2813 50.365 55.3551 53.0718C55.9602 54.5965 61.6349 66.6599 62.4506 68.4323L63.2456 70.0201C63.7974 71.2422 65.1011 72.3702 66.4322 72.5519C67.8954 72.7877 69.6255 71.9423 70.4902 70.7357C70.5154 70.7023 70.9774 70.0371 70.9774 70.0371C71.2414 69.6656 72.3679 67.9317 73.0346 66.9966C74.3472 67.931 76.3258 69.3393 77.4345 70.1187C80.5284 72.3331 84.8897 70.7431 85.8352 67.0596C86.3602 65.0633 85.6023 62.8066 83.9649 61.5585C83.7491 61.3776 83.1076 60.9786 82.8792 60.8229L81.4576 59.8907C81.4576 59.8907 79.5183 58.4624 79.1105 58.1969C79.7979 57.1364 80.6604 56.136 81.3404 55.0718C83.6356 51.7547 81.4316 48.8536 78.7048 48.6489H78.7055ZM80.3155 55.2461C79.6155 56.1983 78.8954 57.1631 78.1901 58.1094C78.0937 58.2384 78.1212 58.4209 78.2502 58.5165C79.1461 59.1839 81.491 60.9326 82.3579 61.5704L83.0409 62.0761C83.098 62.1162 83.1395 62.154 83.1966 62.1963C84.5567 63.2456 85.1655 65.1182 84.7006 66.7608C84.1733 68.7282 82.2296 70.0838 80.2021 69.8784C79.5257 69.8184 78.8628 69.5951 78.2925 69.2236L78.2146 69.1724L78.1753 69.1472L78.1323 69.1175L77.433 68.6355C76.5394 68.0215 74.1381 66.3803 73.2156 65.7522C72.9634 65.5802 72.6193 65.6447 72.4473 65.8976L70.4413 68.838L69.9385 69.5721C69.8087 69.7598 69.5973 70.0838 69.4505 70.2477C68.4427 71.4662 66.5383 71.6649 65.2746 70.7283C64.8571 70.4265 64.5204 70.0178 64.2927 69.5469C63.9509 68.8417 57.8958 56.1427 57.3863 55.0963C57.258 54.839 56.5335 53.3017 56.4252 53.0896C56.242 52.724 56.0826 52.325 56.0292 51.9193C55.7214 49.9245 57.3633 48.0705 59.3782 48.1179C65.5156 48.5199 71.8725 48.9641 77.9988 49.5255C80.8309 49.808 82.1525 53.0747 80.3163 55.2446L80.3155 55.2461Z" fill="#1E1E22"/>
<path d="M63.9026 61.6797C63.6015 62.2315 64.0368 62.7046 64.3216 63.18C64.6115 63.6635 64.9089 64.1678 65.2797 64.5949C65.6557 65.028 66.3906 64.5875 66.1392 64.0528C65.9086 63.5634 65.6068 63.1014 65.3368 62.6334C65.0899 62.2063 64.8882 61.5166 64.3223 61.4832C64.1718 61.4743 63.9804 61.5396 63.9033 61.6812L63.9026 61.6797Z" fill="#F1F1F1"/>
<path d="M58.8516 53.6057C59.0014 54.1619 59.364 54.684 59.6384 55.189C59.9239 55.7155 60.2131 56.2406 60.5046 56.7634C60.7856 57.2669 61.0756 57.7631 61.3767 58.254C61.6889 58.7627 62.0085 59.3107 62.3993 59.7624C62.6411 60.0412 63.0371 59.7564 62.9221 59.4324C62.7338 58.9014 62.4416 58.3823 62.182 57.8817C61.9069 57.3507 61.6221 56.8249 61.3359 56.2999C61.0608 55.7956 60.7886 55.2891 60.5194 54.7811C60.2524 54.2776 60.0285 53.665 59.6606 53.229C59.3803 52.8967 58.727 53.1422 58.8516 53.605V53.6057Z" fill="#F1F1F1"/>
<path d="M62.9768 61.3248C62.6757 61.8765 63.111 62.3496 63.3958 62.825C63.6858 63.3085 63.9831 63.8128 64.3539 64.24C64.7299 64.673 65.4648 64.2325 65.2134 63.6978C64.9828 63.2084 64.681 62.7464 64.411 62.2784C64.1641 61.8513 63.9624 61.1616 63.3965 61.1282C63.246 61.1193 63.0547 61.1846 62.9775 61.3262L62.9768 61.3248Z" fill="#1E1E22"/>
<path d="M57.9258 53.2502C58.0756 53.8064 58.4382 54.3285 58.7126 54.8335C58.9981 55.3601 59.2873 55.8851 59.5788 56.4079C59.8598 56.9115 60.1498 57.4076 60.4509 57.8985C60.7631 58.4072 61.0827 58.9553 61.4735 59.4069C61.7153 59.6857 62.1113 59.401 61.9964 59.0769C61.808 58.5459 61.5158 58.0268 61.2563 57.5262C60.9811 56.9953 60.6964 56.4695 60.4101 55.9444C60.135 55.4401 59.8628 54.9336 59.5936 54.4256C59.3266 53.9221 59.1027 53.3096 58.7348 52.8735C58.4545 52.5413 57.8012 52.7867 57.9258 53.2495V53.2502Z" fill="#1E1E22"/>
<path d="M74.3612 51.9183C74.7586 52.1704 75.2088 52.3543 75.6486 52.5175C76.0905 52.6814 76.5615 52.9328 77.0212 52.7289C77.352 52.582 77.3817 52.1994 77.2014 51.9302C76.9486 51.5512 76.3798 51.5089 75.9689 51.394C75.5581 51.279 75.0998 51.1485 74.6578 51.0885C74.2106 51.0276 73.9829 51.6795 74.3604 51.919L74.3612 51.9183Z" fill="#F1F1F1"/>
<path d="M73.9569 52.4984C74.3544 52.7505 74.8045 52.9344 75.2443 53.0976C75.6862 53.2615 76.1572 53.5129 76.6169 53.3089C76.9477 53.1621 76.9774 52.7794 76.7972 52.5102C76.5443 52.1313 75.9755 52.089 75.5646 51.9741C75.136 51.8539 74.6955 51.7286 74.2535 51.6685C73.8063 51.6077 73.5786 52.2596 73.9561 52.4991L73.9569 52.4984Z" fill="#1E1E22"/>
<path d="M78.9682 68.0558C78.8132 68.4347 79.2129 68.8515 79.5021 69.025C79.9263 69.2801 80.438 69.3654 80.8993 69.1875C81.3183 69.0265 81.2308 68.2916 80.7954 68.2145C80.5893 68.1781 80.392 68.1937 80.1873 68.1678C80.0131 68.1455 79.8499 68.0743 79.6838 68.0224C79.5177 67.9705 79.069 67.8103 78.9689 68.055L78.9682 68.0558Z" fill="#1E1E22"/>
</g>
</g>
<defs>
<radialGradient id="paint0_radial_2565_13152" cx="0" cy="0" r="1" gradientUnits="userSpaceOnUse" gradientTransform="translate(-50.5034 -1.92773) rotate(90) scale(133.538)">
<stop offset="0.265" stop-color="#D27C71"/>
<stop offset="1" stop-color="#D27C71" stop-opacity="0"/>
</radialGradient>
<radialGradient id="paint1_radial_2565_13152" cx="0" cy="0" r="1" gradientUnits="userSpaceOnUse" gradientTransform="translate(159.091 189.468) rotate(90) scale(189.216)">
<stop stop-color="#B68EFF"/>
<stop offset="1" stop-color="#B68EFF" stop-opacity="0"/>
</radialGradient>
<clipPath id="clip0_2565_13152">
<rect width="96" height="96" rx="48" fill="white"/>
</clipPath>
<clipPath id="clip1_2565_13152">
<rect width="96" height="96" fill="white"/>
</clipPath>
</defs>
</svg>
