<svg width="64" height="64" viewBox="0 0 64 64" fill="none" xmlns="http://www.w3.org/2000/svg">
<g clip-path="url(#clip0_457_81386)">
<rect width="64" height="64" rx="32" fill="#8B47F4"/>
<mask id="mask0_457_81386" style="mask-type:alpha" maskUnits="userSpaceOnUse" x="0" y="0" width="64" height="64">
<circle cx="32" cy="32" r="32" fill="#8B47F4"/>
</mask>
<g mask="url(#mask0_457_81386)">
<circle cx="-33.6693" cy="-1.28512" r="89.0251" fill="url(#paint0_radial_457_81386)"/>
<circle cx="106.061" cy="126.312" r="126.144" fill="url(#paint1_radial_457_81386)"/>
</g>
<g clip-path="url(#clip1_457_81386)">
<path d="M34.5898 43.0495C34.5898 43.0495 35.3126 48.0079 42.1222 49.2897C48.9317 50.5715 54.3185 46.1068 56.1628 42.0788C58.0071 38.0507 58.298 36.6284 57.3763 36.1505C56.4542 35.6727 54.6473 37.7654 54.6473 37.7654C54.6473 37.7654 55.6291 34.6324 54.0762 34.7643C52.5232 34.8962 51.7291 37.6893 51.7291 37.6893C51.7291 37.6893 51.4554 34.9568 50.4847 35.1936C49.514 35.4304 48.8552 37.7658 48.8552 37.7658C48.8552 37.7658 48.0654 34.6659 46.8 35.1936C45.5345 35.7217 45.7111 37.6988 45.5985 39.1366C45.4859 40.5748 45.4511 41.5318 43.7211 42.3637C41.9915 43.1956 37.9935 42.3538 34.6784 39.3046C31.3632 36.2554 34.5898 43.0499 34.5898 43.0499V43.0495Z" fill="white"/>
<path d="M56.1628 42.0788C58.0071 38.0507 58.298 36.6284 57.3763 36.1505C56.4542 35.6727 54.6473 37.7654 54.6473 37.7654C54.6473 37.7654 55.6291 34.6324 54.0762 34.7643C53.6254 34.8025 53.2391 35.0651 52.9173 35.4179C53.6727 35.6607 54.1557 37.3412 53.6357 39.3003C53.3319 40.4437 51.7575 44.287 48.8557 45.8155C45.9539 47.344 41.2516 47.0861 41.2516 47.0861C41.6198 44.6772 40.8451 43.1595 40.3019 42.4268C38.5509 42.0001 36.5106 40.9895 34.6784 39.3042C31.3632 36.255 34.5898 43.0495 34.5898 43.0495C34.5898 43.0495 35.3126 48.0079 42.1222 49.2897C48.9317 50.5715 54.3185 46.1068 56.1628 42.0788Z" fill="#DCDCDC"/>
<path d="M50.9226 37.2743C51.0923 38.2205 51.73 37.6894 51.73 37.6894C51.73 37.6894 51.4563 34.9569 50.4856 35.1936C50.3051 35.2375 50.1354 35.3543 49.9785 35.515C50.4731 35.6173 50.7984 36.5837 50.9221 37.2747L50.9226 37.2743Z" fill="#DCDCDC"/>
<path d="M46.7993 35.1935C46.3137 35.3958 46.0408 35.8122 45.8818 36.3296C46.177 36.098 46.5629 35.9983 46.9299 36.5187C47.669 37.5659 47.9573 38.366 48.4077 38.4515C48.858 38.5366 48.8545 37.7661 48.8545 37.7661C48.8545 37.7661 48.0647 34.6662 46.7993 35.1939V35.1935Z" fill="#DCDCDC"/>
<path d="M41.6553 42.6478C42.1254 42.9954 42.7772 43.3198 43.4012 43.0985C44.1312 42.8394 44.3573 42.408 44.3216 42.0269C44.148 42.142 43.9495 42.2542 43.7209 42.3642C43.2069 42.6113 42.4923 42.7109 41.6553 42.6482V42.6478Z" fill="#DCDCDC"/>
<path d="M47.5873 46.3458C47.2658 46.1804 46.892 46.2053 46.5624 46.2921C46.5233 46.3028 46.4851 46.3148 46.4468 46.3273C46.6531 45.6608 46.6226 44.9123 45.8852 44.5947C45.1336 44.3167 43.9799 44.6386 43.4139 45.0941C43.4041 45.1022 43.3843 45.1435 43.4505 45.238C43.5446 45.3725 43.7341 45.253 43.8372 45.1912C44.2102 44.9969 44.3623 44.9995 44.7245 44.8801C45.058 44.7731 45.4465 44.6979 45.773 44.8538C46.0781 45.0047 46.2221 45.3313 46.1864 45.666C46.1611 45.9676 46.0382 46.2766 45.883 46.5409C45.8659 46.5697 45.8319 46.6247 45.8143 46.6492C45.7687 46.711 45.7554 46.7953 45.7872 46.8713C45.8418 47.0032 45.9969 47.0454 46.1185 46.9788C46.479 46.8378 46.9986 46.681 47.372 46.806C47.9315 47.0643 47.7458 47.8059 47.5533 48.2782C47.5413 48.304 47.5731 48.3276 47.5946 48.3091C47.7071 48.206 47.8017 48.087 47.8833 47.9559C48.2327 47.4226 48.2009 46.6745 47.5877 46.3462L47.5873 46.3458Z" fill="#DCDCDC"/>
<path d="M47.313 46.069C46.9915 45.9035 46.6177 45.9285 46.2881 46.0153C46.249 46.026 46.2108 46.038 46.1725 46.0505C46.3788 45.384 46.3483 44.6355 45.6109 44.3179C44.8593 44.0399 43.9522 44.6118 43.3863 45.0673C43.3764 45.0755 43.3738 45.0905 43.3811 45.1013C43.3893 45.1133 43.4061 45.1167 43.4177 45.1082C43.7391 44.9006 44.088 44.7227 44.4498 44.6028C44.7833 44.4958 45.1717 44.4206 45.4983 44.5766C45.8034 44.7274 45.9474 45.054 45.9117 45.3887C45.8863 45.6904 45.7634 45.9994 45.6083 46.2636C45.5911 46.2924 45.5572 46.3474 45.5396 46.3719C45.494 46.4338 45.4807 46.518 45.5125 46.5941C45.5671 46.726 45.7222 46.7681 45.8438 46.7015C46.2043 46.5606 46.7238 46.4037 47.0972 46.5288C47.6567 46.787 47.4711 47.5287 47.2786 48.0009C47.2665 48.0267 47.2983 48.0504 47.3198 48.0319C47.4324 47.9287 47.527 47.8097 47.6086 47.6786C47.9579 47.1454 47.9262 46.3973 47.313 46.069Z" fill="#1E1E22"/>
<path d="M53.1646 41.9623C52.9158 41.3096 52.1523 40.8945 51.4707 41.0677C50.8769 41.2151 50.3866 41.6439 49.9921 42.1363C50.0145 41.7114 49.9741 41.2529 49.6806 40.9366C49.4167 40.6612 48.9591 40.6401 48.6605 40.8649C48.3055 41.127 48.2011 41.148 48.0408 41.533C48.0232 41.5777 47.8831 41.8274 47.8668 41.8721C47.7675 41.512 47.6476 41.3001 47.3494 41.1321C46.6576 40.8266 46.0569 41.2421 45.7754 42.1123C45.7711 42.1252 45.7535 42.3276 46.0057 42.2919C46.0203 42.2898 46.0349 42.2906 46.0397 42.2769C46.1437 42.0229 46.2794 41.7775 46.4535 41.5696C46.6851 41.2765 47.1221 41.0389 47.4096 41.3895C47.5754 41.5889 47.6567 41.8562 47.7142 42.1097C47.7426 42.2403 47.7645 42.3774 47.7761 42.5068C47.7804 42.5532 47.8118 42.5944 47.859 42.609C47.9235 42.6292 47.9918 42.5901 48.0086 42.5248C48.1676 42.0465 48.4155 41.4205 48.8379 41.1304C49.0296 41.0036 49.2724 41.0221 49.4236 41.1833C49.5826 41.3706 49.6037 41.6293 49.6062 41.8833C49.6041 42.1561 49.5615 42.4389 49.5005 42.7083C49.4799 42.7985 49.4558 42.8926 49.4309 42.9756C49.4034 43.0662 49.4382 43.1681 49.522 43.2214C49.623 43.2858 49.7571 43.2562 49.8215 43.1552C49.8576 43.098 49.8997 43.0357 49.9423 42.976C50.0626 42.8063 50.1936 42.6413 50.332 42.4866C50.6809 42.108 51.0887 41.7234 51.5932 41.5876C52.0461 41.4621 52.5545 41.72 52.7616 42.1346C52.8673 42.3469 52.8974 42.6099 52.8763 42.8776C52.8277 43.4396 52.6189 43.9764 52.3727 44.4843C52.3598 44.5113 52.3946 44.535 52.4157 44.5126C52.5123 44.4005 52.5987 44.2819 52.6804 44.159C53.0912 43.5252 53.4409 42.719 53.1646 41.9619V41.9623Z" fill="#DCDCDC"/>
<path d="M52.8863 41.8309C52.6375 41.1781 51.8739 40.763 51.1924 40.9362C50.5986 41.0836 50.1083 41.5124 49.7138 42.0049C49.7362 41.5799 49.6958 41.1214 49.4023 40.8051C49.1384 40.5297 48.6808 40.5086 48.3822 40.7334C48.0272 40.9955 47.8467 41.3749 47.6865 41.7604C47.6688 41.8051 47.6521 41.8498 47.6358 41.8949C47.5365 41.5348 47.3693 41.1691 47.0715 41.0007C46.3797 40.6951 45.8916 41.5889 45.7132 42.1286C45.7089 42.1415 45.7154 42.1553 45.7279 42.1604C45.7412 42.166 45.7571 42.1592 45.7618 42.1454C45.8658 41.8914 46.0016 41.6461 46.1756 41.4381C46.4072 41.145 46.8442 40.9074 47.1317 41.2581C47.2976 41.4574 47.3788 41.7247 47.4364 41.9782C47.4647 42.1089 47.4866 42.2459 47.4982 42.3753C47.5025 42.4217 47.5339 42.463 47.5812 42.4776C47.6456 42.4978 47.714 42.4586 47.7307 42.3933C47.8897 41.9151 48.1376 41.289 48.5601 40.9989C48.7517 40.8722 48.9945 40.8907 49.1457 41.0518C49.3047 41.2391 49.3258 41.4978 49.3284 41.7518C49.3262 42.0246 49.2837 42.3074 49.2227 42.5768C49.202 42.6671 49.178 42.7612 49.153 42.8441C49.1255 42.9348 49.1603 43.0366 49.2441 43.0899C49.3451 43.1544 49.4792 43.1247 49.5436 43.0237C49.5797 42.9666 49.6219 42.9043 49.6644 42.8445C49.7847 42.6748 49.9158 42.5098 50.0541 42.3551C50.4031 41.9765 50.8109 41.5919 51.3153 41.4562C51.7682 41.3307 52.2766 41.5885 52.4837 42.0032C52.5894 42.2154 52.6195 42.4784 52.5984 42.7461C52.5499 43.3082 52.341 43.8449 52.0948 44.3528C52.0819 44.3799 52.1167 44.4035 52.1378 44.3812C52.2345 44.269 52.3208 44.1504 52.4025 44.0275C52.8133 43.3937 53.1631 42.5876 52.8868 41.8304L52.8863 41.8309Z" fill="#1E1E22"/>
<path d="M57.9613 36.2515C57.7366 35.9331 57.3511 35.7345 56.9631 35.7771C56.3125 35.854 55.6684 36.3563 55.1536 36.8333C55.2653 36.1634 55.3109 35.3684 54.9521 34.8644C54.6229 34.411 54.0273 34.4265 53.5577 34.6194C53.3153 34.7247 53.0846 34.882 52.8981 35.0616C52.4142 35.5334 52.0804 36.1097 51.8187 36.7194C51.7718 36.5132 51.7164 36.3082 51.6494 36.1037C51.3851 35.2709 50.8196 34.512 49.9494 35.2219C49.4321 35.6782 49.1064 36.3954 48.861 37.0533C48.476 35.9812 47.6415 34.2542 46.3743 35.2116C45.5067 35.8978 45.5149 37.2424 45.4637 38.247C45.4448 38.834 45.4143 39.4227 45.3469 39.9994C45.2824 40.5606 45.1122 41.1011 44.7092 41.5051C44.4694 41.7539 44.1673 41.961 43.8553 42.1247C43.7492 42.1823 43.5842 42.2674 43.4733 42.3078C43.4432 42.3189 43.3534 42.3499 43.3251 42.3602C42.1924 42.6872 40.972 42.4887 39.8552 42.1788C38.0264 41.6426 36.3419 40.6547 34.9123 39.3999C34.7228 39.2302 34.431 38.9715 34.2325 38.8224C33.8806 38.5483 33.1737 38.1112 33.1165 38.8688C33.1045 39.1773 33.1776 39.4695 33.2519 39.763C33.3292 40.0509 33.4221 40.3328 33.5222 40.6121C33.8234 41.4453 34.1775 42.2605 34.5578 43.0597C34.6141 43.4443 34.7305 43.819 34.8685 44.1817C35.2539 45.1889 35.8808 46.0969 36.6457 46.8545C36.9203 47.1218 37.2361 47.3916 37.5438 47.6198C37.9387 47.9141 38.3615 48.1698 38.7947 48.4031C39.8414 48.9527 40.9789 49.3107 42.1339 49.5453C45.2433 50.1839 48.5611 49.5694 51.2669 47.9167C53.6355 46.4802 55.6138 44.3433 56.6864 41.7741C57.1569 40.7028 57.6283 39.6234 57.9643 38.4933C58.0907 38.0481 58.2024 37.5934 58.2032 37.1208C58.2028 36.8187 58.1435 36.5076 57.9622 36.251L57.9613 36.2515ZM57.5591 37.2462C57.532 37.599 57.4392 37.9604 57.3335 38.3059C56.9902 39.3943 56.5184 40.4411 56.047 41.4866C54.9714 44.0004 53.0081 46.0875 50.6662 47.4767C47.1774 49.6016 42.6603 49.7877 38.9683 48.0551C37.5992 47.3985 36.3797 46.4119 35.544 45.1331C35.1293 44.4924 34.7902 43.7872 34.6222 43.0395C34.2561 42.2334 33.9119 41.4127 33.6249 40.5756C33.5299 40.2972 33.4423 40.0157 33.3705 39.7317C33.303 39.4541 33.2377 39.161 33.2528 38.8778C33.2609 38.7412 33.3069 38.6058 33.4113 38.5942C33.4766 38.5813 33.569 38.6045 33.6391 38.6355C33.8204 38.7111 33.979 38.8263 34.1362 38.947C34.3206 39.088 34.633 39.3707 34.7993 39.5258C36.2349 40.8201 37.9318 41.8437 39.7843 42.4139C40.9329 42.7491 42.1743 42.9643 43.3547 42.6554L43.4106 42.6403L43.466 42.6219L43.5765 42.5841C43.6972 42.5432 43.8841 42.4487 43.9959 42.3907L44.0973 42.3391L44.1957 42.2811C45.5269 41.5257 45.6721 40.5588 45.7723 39.1528C45.847 38.281 45.8092 37.3902 46.0206 36.542C46.1379 36.0843 46.3506 35.6477 46.7726 35.4264C47.6496 34.9108 48.3174 36.7847 48.5207 37.4082C48.5641 37.5449 48.6062 37.6863 48.6405 37.8199C48.6595 37.8925 48.7149 37.954 48.7918 37.9767C48.9091 38.0116 49.032 37.9449 49.0668 37.8276C49.1012 37.7116 49.142 37.5891 49.1837 37.4706C49.3083 37.1178 49.454 36.7667 49.6254 36.4371C49.7956 36.1204 49.9812 35.8102 50.2498 35.5824C50.3813 35.4814 50.5476 35.3667 50.7006 35.4419C51.199 35.7453 51.4126 37.1388 51.4783 37.7142C51.5071 37.9823 51.887 38.0249 51.9695 37.7606C52.0563 37.4757 52.168 37.1878 52.2896 36.9149C52.6153 36.2008 53.1993 35.1652 54.0359 35.0418C55.1124 34.8279 54.5439 37.1255 54.3698 37.6785C54.2792 37.9707 54.6517 38.1912 54.8631 37.9574C55.1102 37.6815 55.3831 37.4134 55.6624 37.1698C56.038 36.8539 56.6043 36.3928 57.0856 36.3881C57.175 36.3928 57.2484 36.4294 57.3185 36.4805C57.5574 36.6545 57.5772 36.9497 57.5587 37.2458L57.5591 37.2462Z" fill="#1E1E22"/>
<path d="M46.7931 36.178C46.5941 36.4079 46.5185 36.7835 46.4669 37.0774C46.4154 37.3709 46.347 37.7344 46.454 38.0206C46.4974 38.1371 46.6925 38.2032 46.7553 38.0601C46.8709 37.7967 46.8807 37.4895 46.9504 37.2106C47.0208 36.9279 47.1747 36.6314 47.1931 36.3439C47.206 36.1467 46.9237 36.0268 46.7927 36.178H46.7931Z" fill="#DCDCDC"/>
<path d="M46.6437 35.881C46.4447 36.1109 46.3691 36.4865 46.3175 36.7804C46.266 37.0739 46.1976 37.4374 46.3046 37.7236C46.348 37.8401 46.5431 37.9062 46.6059 37.7631C46.7214 37.4997 46.7313 37.1925 46.8009 36.9136C46.8714 36.6309 47.0252 36.3344 47.0437 36.0469C47.0566 35.8497 46.7743 35.7298 46.6432 35.881H46.6437Z" fill="#1E1E22"/>
<path d="M42.9393 48.2119C42.7361 48.1573 42.5148 48.1728 42.3051 48.1535C42.0906 48.1337 41.8792 48.0997 41.6674 48.0624C41.4564 48.025 41.2471 47.9833 41.04 47.9291C40.8453 47.8784 40.6515 47.7972 40.4479 47.8234C40.3138 47.8406 40.2532 47.9743 40.3409 48.0817C40.4745 48.2454 40.6812 48.3116 40.8733 48.3838C41.098 48.468 41.3275 48.5441 41.5604 48.6021C41.78 48.6562 42.0043 48.6936 42.2281 48.7241C42.4632 48.7563 42.7047 48.8006 42.9393 48.7563C43.2208 48.703 43.1954 48.2802 42.9393 48.2115V48.2119Z" fill="#1E1E22"/>
<path d="M44.6456 48.2572C44.4299 48.2872 44.1674 48.2872 43.9701 48.3848C43.8941 48.4222 43.8941 48.5481 43.9701 48.5854C44.1674 48.683 44.4299 48.6826 44.6456 48.7131C45.0268 48.7664 45.0294 48.2034 44.6456 48.2572Z" fill="#1E1E22"/>
<path d="M21.3403 26.8522C21.3403 26.8522 19.0108 12.4747 23.7428 11.3828C28.4747 10.2909 28.8386 22.5934 28.7656 24.8502C28.7656 24.8502 32.1143 16.7696 35.026 17.4975C37.9377 18.2254 35.026 25.7234 35.026 25.7234C35.026 25.7234 41.796 22.666 44.6351 24.9224C47.4742 27.1792 41.5777 32.4203 36.7001 34.2406C36.7001 34.2406 44.3197 36.934 43.2033 39.6759C42.0616 42.4802 34.6616 39.9913 34.6616 39.9913C34.6616 39.9913 40.4854 46.1065 38.0103 48.3629C35.5352 50.6197 29.9297 42.7574 29.9297 42.7574C29.9297 42.7574 32.3322 53.1674 29.1287 53.6771C25.9257 54.1867 23.6688 44.3589 23.6688 44.3589C23.6688 44.3589 19.5922 54.6233 15.443 54.6233C11.2937 54.6233 12.3856 47.9989 17.9907 43.3396C17.9907 43.3396 5.9791 48.5081 5.9791 42.83C5.9791 37.1518 16.1709 36.1326 16.1709 36.1326C16.1709 36.1326 4.66893 35.1864 5.17856 31.8377C5.68819 28.489 16.3166 29.8722 16.3166 29.8722C16.3166 29.8722 6.81961 20.3357 10.1851 16.6961C13.5505 13.0561 21.3398 26.8513 21.3398 26.8513L21.3403 26.8522Z" fill="white"/>
<path d="M34.6611 39.9924C33.9818 39.7844 33.2053 39.7741 34.0931 41.3391C34.9808 42.9041 37.9737 46.1071 36.6631 47.3812C36.1239 47.9054 35.5274 48.0537 35.0126 48.0464C36.1402 48.7816 37.2304 49.0747 38.0103 48.364C40.4854 46.1071 34.6616 39.9924 34.6616 39.9924H34.6611Z" fill="#DCDCDC"/>
<path d="M36.7007 34.2411C36.7029 34.2402 36.7055 34.2394 36.7076 34.2385C35.9805 34.0799 35.2836 33.9622 35.0266 34.0228C34.4078 34.1685 34.5535 35.1512 35.9402 35.9156C37.3268 36.6801 40.3773 38.6456 40.3773 39.8943C40.3773 40.3648 40.1809 40.7322 39.936 41.0077C41.4297 41.0446 42.7699 40.7438 43.2043 39.6769C44.3207 36.9349 36.7012 34.2415 36.7012 34.2415L36.7007 34.2411Z" fill="#DCDCDC"/>
<path d="M44.6362 24.9234C41.7971 22.6666 35.0271 25.7244 35.0271 25.7244C34.3357 26.6706 35.3545 26.8528 38.1936 26.3066C41.0327 25.7605 41.9063 27.9808 41.8697 29.1002C41.8457 29.8453 41.2084 31.2315 40.7852 32.075C44.1768 29.7443 46.688 26.5541 44.6362 24.9234Z" fill="#DCDCDC"/>
<path d="M34.0943 20.1549C35.3297 19.6186 35.9451 20.6937 36.2025 21.3838C36.4723 19.5821 36.3593 17.8306 35.0268 17.4976C32.1151 16.7696 28.7664 24.8503 28.7664 24.8503C28.7681 24.7957 28.7698 24.7347 28.7707 24.6685C28.5567 25.9791 29.1304 25.8695 29.9309 25.2508C30.7319 24.632 32.3334 20.9193 34.0943 20.1549Z" fill="#DCDCDC"/>
<path d="M23.7434 11.3828C19.0115 12.4747 21.3409 26.8522 21.3409 26.8522C21.7414 28.0898 22.3756 27.4156 22.4934 27.0989C22.7521 26.4032 23.8886 18.4442 24.9689 15.8599C25.6006 14.3491 26.7041 14.4556 27.5119 14.8045C26.7617 12.558 25.5825 10.9582 23.743 11.3828H23.7434Z" fill="#DCDCDC"/>
<path d="M13.4969 16.8478C12.237 15.9836 11.0618 15.7499 10.1856 16.6969C6.82012 20.337 16.3171 29.873 16.3171 29.873C17.1907 30.4192 17.2633 28.9994 16.1714 27.5685C15.0791 26.1376 11.6947 21.6833 11.5125 18.9172C11.4038 17.2663 12.5524 16.886 13.4965 16.8478H13.4969Z" fill="#DCDCDC"/>
<path d="M14.8252 34.3868C14.8252 34.3868 7.98208 33.5858 7.39983 31.9482C7.08228 31.0553 7.61941 30.3342 8.17373 29.8633C6.58124 30.1619 5.3454 30.7502 5.17953 31.8391C4.6699 35.1878 16.1719 36.134 16.1719 36.134C17.3514 35.9621 16.4993 34.6051 14.8252 34.3868Z" fill="#DCDCDC"/>
<path d="M16.1728 36.1339C16.1728 36.1339 16.1212 36.1391 16.0254 36.1507C16.0813 36.1455 16.1311 36.1399 16.1728 36.1339Z" fill="#DCDCDC"/>
<path d="M16.354 41.6664C14.3885 42.0304 8.92869 43.0496 8.01857 41.6664C7.48358 40.8534 7.57769 39.8891 7.74613 39.2325C6.69507 40.1504 5.98047 41.3274 5.98047 42.8309C5.98047 48.5091 17.9921 43.3405 17.9921 43.3405C19.2661 42.4669 18.3195 41.302 16.354 41.6664Z" fill="#DCDCDC"/>
<path d="M21.377 45.0151C20.0303 46.544 17.7008 49.747 15.3714 50.7658C14.2774 51.2445 13.5847 50.8565 13.158 50.3104C12.5164 52.758 13.2422 54.6242 15.4444 54.6242C19.5937 54.6242 23.6703 44.3598 23.6703 44.3598C23.7068 43.4136 22.7241 43.4862 21.3774 45.0151H21.377Z" fill="#DCDCDC"/>
<path d="M29.9362 42.7828C29.7179 42.4128 29.5005 42.2027 29.3483 42.4313C28.9118 43.0866 29.3483 50.1115 27.8925 51.0577C27.327 51.4251 26.6627 51.3314 26.0615 51.0792C26.9154 52.6699 27.9595 53.8645 29.1301 53.678C32.2441 53.1826 30.0599 43.329 29.9362 42.7824V42.7828Z" fill="#DCDCDC"/>
<path d="M42.5082 23.6856C40.993 23.5898 39.3919 23.9726 37.9464 24.3813C37.0926 24.6301 36.5988 24.7341 35.7785 25.077C36.0097 24.4294 36.1163 24.0263 36.2963 23.362C36.6852 21.8567 37.3465 18.4513 35.9079 17.3603C35.1658 16.8116 33.8977 17.0896 33.2084 17.5868C31.3706 18.9219 29.9427 21.5525 28.9479 23.7582C29.033 23.1029 29.0412 22.6577 29.0205 22.1567C28.8847 19.3223 28.3657 10.7639 24.6165 10.6668C23.0592 10.662 21.6816 12.2201 21.2072 13.5544C20.7556 14.8358 20.5407 16.476 20.4548 17.8252C20.3112 20.5247 20.6821 22.8885 21.025 25.566C21.0576 25.804 20.4539 24.7977 20.4101 24.7207C19.0191 22.3324 12.9143 12.8041 9.70092 16.2762C7.27049 19.0039 11.3441 24.811 13.1386 27.0824C13.839 27.9521 14.3993 28.54 15.1608 29.3551C12.1296 29.0371 5.66554 28.7965 4.92644 31.6132C4.56592 33.0343 5.98094 33.9594 7.09045 34.4699C8.04182 34.9082 9.04003 35.2052 10.049 35.46C11.311 35.7694 12.583 36.007 13.8639 36.19C10.7185 36.875 6.87688 38.3304 5.86062 41.3564C5.54135 42.3572 5.48162 43.6167 6.08751 44.5281C7.71911 46.882 12.6186 45.5233 14.9154 44.8319C15.4139 44.6759 15.9072 44.5113 16.397 44.3364C14.7298 46.0385 13.3715 48.083 12.7836 50.3979C12.3952 51.9384 12.494 54.0233 14.1944 54.725C14.6868 54.9265 15.2317 54.9867 15.7581 54.9334C16.159 54.89 16.5565 54.7611 16.911 54.5892C19.347 53.3517 21.2201 50.0502 22.4653 47.686C22.8697 46.8992 23.2483 46.1004 23.6032 45.2899C24.3002 47.8751 25.4707 51.3621 27.1277 53.0964C27.4976 53.4707 27.9398 53.7999 28.4714 53.9262C29.3982 54.1286 30.1386 53.6662 30.5322 52.842C31.5141 50.7842 30.9452 46.5825 30.4128 43.8212C30.7058 44.1929 31.0066 44.5577 31.3165 44.9195C32.5489 46.3328 34.5087 48.4543 36.3444 48.9364C36.8012 49.0529 37.3195 49.0516 37.7552 48.8324C38.1939 48.609 38.5243 48.227 38.7048 47.7758C39.514 45.6573 36.9924 42.3843 35.6814 40.7978C35.5817 40.6792 35.6191 40.7222 35.5181 40.6053C36.735 40.9512 37.9447 41.2327 39.2089 41.3577C39.9858 41.4277 40.7391 41.4041 41.5142 41.2606C42.1012 41.1484 42.9761 40.9851 43.3908 40.5163C43.8355 40.0256 44.1918 39.1898 43.9167 38.4537C43.218 36.5832 40.0588 35.0689 37.9958 34.2637C40.6183 33.1576 42.6186 32.1065 44.499 29.9606C45.1423 29.1768 46.1302 27.699 46.2462 26.6604C46.4224 24.8514 44.0173 23.7642 42.5094 23.6839L42.5082 23.6856ZM44.7285 27.9251C43.4982 29.9902 41.3428 31.5771 39.2957 32.7893C38.441 33.2805 37.5524 33.7154 36.6319 34.0574C36.4665 34.1167 36.4596 34.3646 36.6332 34.4252C38.0414 34.9508 39.431 35.5837 40.7107 36.3718C41.6122 36.9472 43.087 37.96 43.1029 39.1237C43.099 39.6298 42.7862 40.0841 42.35 40.3402C40.7403 41.2683 37.573 40.5597 35.8163 40.0961C35.4532 39.9972 35.088 39.8902 34.7356 39.7747C34.516 39.7016 34.3326 39.974 34.4967 40.1498C35.6238 41.3809 36.6762 42.7229 37.4935 44.1787C37.8849 44.8942 38.236 45.6629 38.3538 46.4669C38.4079 46.8592 38.3911 47.2554 38.2536 47.5983C37.9344 48.3542 37.2623 48.6735 36.463 48.459C34.4941 47.9202 32.1849 45.2079 30.9035 43.6111C30.6431 43.2811 30.3848 42.9446 30.1421 42.6077C29.9792 42.3843 29.6182 42.5368 29.678 42.8166C30.0798 44.6763 30.3784 46.5778 30.4927 48.4771C30.5434 49.4173 30.5499 50.3712 30.4128 51.2994C30.2869 52.0673 30.023 53.1725 29.1825 53.3839C28.7799 53.4823 28.3785 53.3611 28.0344 53.1287C26.2059 51.8486 24.9422 47.8252 24.3213 45.6745C24.1928 45.216 24.0699 44.7511 23.9625 44.293C23.9405 44.2024 23.8765 44.1216 23.7833 44.0838C23.6294 44.0214 23.4545 44.0958 23.3927 44.2496C23.1757 44.782 22.9359 45.3183 22.6922 45.8417C21.5299 48.3138 18.393 54.4448 15.2996 54.291C14.7362 54.2717 14.1527 54.0736 13.7883 53.6284C13.4596 53.2344 13.316 52.7127 13.2834 52.1958C13.1979 49.9755 14.4668 47.7672 15.8075 46.0595C16.5234 45.1649 17.3372 44.348 18.2194 43.6137C18.3363 43.5161 18.3814 43.3502 18.3191 43.2033C18.2426 43.0224 18.0334 42.9382 17.8529 43.0159C17.6019 43.1221 17.3394 43.2261 17.0798 43.3266C14.6438 44.2449 10.7872 45.5074 8.23046 45.0282C6.73809 44.7356 6.19451 43.7885 6.36467 42.334C6.8034 38.822 11.58 37.3339 14.5656 36.7255C15.1075 36.6185 15.6605 36.5244 16.2075 36.4621C16.5968 36.4118 16.599 35.8506 16.1998 35.8059C13.9821 35.6168 6.0252 34.641 5.47819 32.2496C5.39096 31.7709 5.623 31.3142 5.99813 31.0095C7.79559 29.5915 12.4884 29.8166 14.7727 29.9739C15.2794 30.0126 15.7894 30.059 16.2896 30.1183C16.5135 30.1466 16.6579 29.8639 16.4924 29.7002C15.5668 28.7608 14.6816 27.7626 13.8437 26.7412C12.1683 24.6627 8.0676 19.373 10.2862 16.8318C13.0758 13.7198 19.4806 23.8755 20.7972 26.0137C20.8965 26.1783 21.0847 26.4838 21.1848 26.6544L21.2484 26.7619L21.2798 26.8156L21.2875 26.8289C21.291 26.8349 21.297 26.8448 21.3043 26.8525C21.3193 26.8701 21.3408 26.8787 21.3524 26.8847C21.3597 26.8809 21.3735 26.8654 21.3739 26.8495C21.3739 26.831 21.3726 26.8358 21.3726 26.8315L21.37 26.816L21.3653 26.7846C21.3468 26.663 21.3198 26.4739 21.3021 26.3472C20.8595 23.0629 19.8476 13.1986 23.3407 11.5962C28.2299 9.70421 28.7386 21.8769 28.6579 24.8471C28.6566 24.8905 28.6815 24.9326 28.7236 24.9506C28.779 24.9743 28.8435 24.9485 28.8667 24.8922C29.8288 22.7368 30.9237 20.5642 32.5213 18.8071C33.2437 18.0388 34.4383 17.1162 35.4713 17.848C36.9396 18.9902 35.7751 22.9886 35.2796 24.5501C35.1576 24.9266 35.0283 25.3034 34.8882 25.67C34.8388 25.7899 34.9698 25.9149 35.0888 25.8599C35.5375 25.664 36.0024 25.4861 36.4678 25.321C38.6502 24.5673 42.2031 23.5919 44.2876 24.8832C45.4994 25.6395 45.3528 26.8194 44.7297 27.9251H44.7285Z" fill="#1E1E22"/>
<path d="M20.1725 36.6753C20.7892 36.4147 21.0331 35.5976 20.7172 34.8502C20.4013 34.1028 19.6454 33.7082 19.0287 33.9688C18.412 34.2294 18.1682 35.0466 18.484 35.7939C18.7999 36.5413 19.5559 36.936 20.1725 36.6753Z" fill="#DCDCDC"/>
<path d="M19.6032 36.543C20.2199 36.2824 20.4637 35.4652 20.1479 34.7178C19.832 33.9705 19.076 33.5758 18.4594 33.8365C17.8427 34.0971 17.5988 34.9142 17.9147 35.6616C18.2306 36.409 18.9865 36.8036 19.6032 36.543Z" fill="#1E1E22"/>
<path d="M31.9275 31.4298C32.5732 31.1569 32.8286 30.3013 32.4979 29.5187C32.1671 28.7361 31.3755 28.3229 30.7298 28.5958C30.084 28.8687 29.8287 29.7244 30.1594 30.507C30.4901 31.2896 31.2817 31.7027 31.9275 31.4298Z" fill="#DCDCDC"/>
<path d="M31.3582 31.2971C32.0039 31.0242 32.2593 30.1686 31.9285 29.386C31.5978 28.6034 30.8062 28.1902 30.1604 28.4631C29.5147 28.736 29.2593 29.5917 29.5901 30.3743C29.9208 31.1569 30.7124 31.57 31.3582 31.2971Z" fill="#1E1E22"/>
<path d="M34.036 30.0714C33.5319 30.1264 33.4382 30.8002 33.8993 31.003C34.1481 31.1186 34.4721 30.9884 34.5602 30.7258C34.687 30.3967 34.3918 30.0314 34.0445 30.0705L34.036 30.0714Z" fill="#DCDCDC"/>
<path d="M33.71 28.6549C33.71 28.6549 33.7104 28.6545 33.7108 28.6541C33.7108 28.6532 33.71 28.6528 33.71 28.652C33.71 28.6528 33.71 28.6536 33.71 28.6545V28.6549Z" fill="#DCDCDC"/>
<path d="M33.7087 28.6515C33.7087 28.6515 33.7076 28.6504 33.707 28.6499C33.7076 28.6515 33.7081 28.6521 33.7087 28.6515Z" fill="#DCDCDC"/>
<path d="M33.8242 28.1773C33.4757 28.1726 33.1414 28.5198 33.2222 28.8713C33.2982 29.2473 33.7825 29.3581 34.0833 29.1381C34.5156 28.8472 34.3884 28.1812 33.8328 28.1777H33.8242V28.1773Z" fill="#DCDCDC"/>
<path d="M36.1322 28.7535C35.9568 28.6706 35.7287 28.7359 35.6127 28.8897C35.4313 29.1093 35.5405 29.4844 35.8133 29.5712C36.286 29.7229 36.5816 28.974 36.1395 28.757L36.1322 28.7535Z" fill="#DCDCDC"/>
<path d="M33.6863 30.0168C33.1823 30.0718 33.0886 30.7456 33.5497 30.9484C33.7985 31.064 34.1225 30.9338 34.2106 30.6713C34.3374 30.3421 34.0421 29.9768 33.6949 30.0159L33.6863 30.0168Z" fill="#1E1E22"/>
<path d="M33.3604 28.6C33.3604 28.6 33.3608 28.5996 33.3612 28.5991C33.3612 28.5983 33.3604 28.5979 33.3604 28.597C33.3604 28.5979 33.3604 28.5987 33.3604 28.5995V28.6Z" fill="#1E1E22"/>
<path d="M33.3591 28.5969C33.3591 28.5969 33.358 28.5958 33.3574 28.5952C33.358 28.5968 33.3585 28.5974 33.3591 28.5969Z" fill="#1E1E22"/>
<path d="M33.4746 28.1226C33.1261 28.1179 32.7918 28.4651 32.8725 28.8166C32.9486 29.1926 33.4329 29.3034 33.7337 29.0834C34.166 28.7925 34.0388 28.1265 33.4832 28.123H33.4746V28.1226Z" fill="#1E1E22"/>
<path d="M35.7845 28.6988C35.6092 28.6159 35.381 28.6812 35.265 28.835C35.0837 29.0546 35.1928 29.4298 35.4657 29.5166C35.9383 29.6682 36.234 28.9193 35.7918 28.7023L35.7845 28.6988Z" fill="#1E1E22"/>
<path d="M16.2754 37.2528C15.9896 37.4032 15.8762 37.8243 16.1146 38.061C16.5212 38.4534 17.1932 37.9403 16.9788 37.447C16.8671 37.1831 16.5242 37.1071 16.2831 37.2485L16.2754 37.2528Z" fill="#DCDCDC"/>
<path d="M18.9902 37.1668C18.6129 37.0035 18.1346 37.3512 18.1591 37.7602C18.1763 38.2381 18.7628 38.4009 19.0903 38.0958C19.3885 37.8488 19.367 37.3224 18.9975 37.1698L18.9897 37.1668H18.9902Z" fill="#DCDCDC"/>
<path d="M16.5076 39.3531C16.5794 40.0144 17.4452 39.8997 17.5415 39.3226C17.5729 39.1159 17.4375 38.9183 17.2441 38.8461C16.8969 38.7013 16.4793 38.9556 16.5072 39.3445V39.3531H16.5076Z" fill="#DCDCDC"/>
<path d="M15.9394 37.2368C15.6537 37.3872 15.5402 37.8083 15.7787 38.045C16.1852 38.4374 16.8573 37.9243 16.6429 37.431C16.5311 37.1672 16.1882 37.0911 15.9472 37.2325L15.9394 37.2368Z" fill="#1E1E22"/>
<path d="M18.6542 37.1508C18.2769 36.9875 17.7987 37.3352 17.8232 37.7442C17.8404 38.2221 18.4269 38.3849 18.7543 38.0798C19.0526 37.8328 19.0311 37.3064 18.6615 37.1538L18.6538 37.1508H18.6542Z" fill="#1E1E22"/>
<path d="M16.1736 39.3371C16.2454 39.9985 17.1113 39.8837 17.2075 39.3066C17.2389 39.0999 17.1035 38.9023 16.9102 38.8301C16.5629 38.6853 16.1453 38.9397 16.1732 39.3285V39.3371H16.1736Z" fill="#1E1E22"/>
<path d="M22.4103 32.5195C22.2633 33.4072 22.6518 34.3943 23.1675 35.1084C23.6526 35.7805 24.344 36.2893 25.1514 36.4942C25.9859 36.7061 26.9076 36.5303 27.5904 35.9988C28.2621 35.4758 28.6144 34.6358 28.6784 33.8021C28.7188 33.2727 28.6643 32.7412 28.5611 32.2217C28.4576 31.6996 28.3575 31.1006 28.0923 30.6335C27.984 30.4427 27.798 30.3181 27.5715 30.3834C27.3622 30.444 27.2213 30.6404 27.2488 30.8625C27.2995 31.2746 27.4546 31.6764 27.5466 32.0812C27.6321 32.458 27.7013 32.84 27.7254 33.2263C27.7649 33.8614 27.6424 34.5387 27.232 35.0431C26.8333 35.533 26.1419 35.7436 25.5274 35.6787C24.9048 35.6129 24.3259 35.279 23.91 34.8171C23.6238 34.4991 23.4266 34.1266 23.2744 33.7287C23.1223 33.3307 23.045 32.8727 22.9131 32.4507C22.8306 32.1864 22.4486 32.2818 22.4095 32.5195H22.4103Z" fill="#DCDCDC"/>
<path d="M21.8429 32.4223C21.696 33.3101 22.0844 34.2971 22.6001 35.0113C23.0852 35.6833 23.7766 36.1921 24.584 36.3971C25.3914 36.602 26.3402 36.4332 27.023 35.9016C27.6947 35.3787 28.047 34.5386 28.1111 33.705C28.1514 33.1756 28.0969 32.644 27.9937 32.1245C27.8902 31.6024 27.7901 31.0034 27.5249 30.5363C27.4166 30.3455 27.2306 30.2209 27.0041 30.2862C26.7949 30.3468 26.6539 30.5432 26.6814 30.7653C26.7321 31.1774 26.8873 31.5792 26.9792 31.984C27.0647 32.3608 27.1339 32.7429 27.158 33.1292C27.1975 33.7643 27.075 34.4415 26.6647 34.946C26.2659 35.4358 25.5745 35.6464 24.96 35.5815C24.3374 35.5158 23.7586 35.1819 23.3426 34.7199C23.0564 34.4019 22.8592 34.0294 22.7071 33.6315C22.5481 33.216 22.4776 32.7755 22.3457 32.3535C22.2632 32.0893 21.8812 32.1847 21.8421 32.4223H21.8429Z" fill="#1E1E22"/>
<path d="M21.9342 15.8976C21.7988 16.1353 21.792 16.4489 21.7563 16.7171C21.7215 16.9779 21.6918 17.2396 21.6729 17.5022C21.6355 18.0225 21.6067 18.5979 21.7795 19.0968C21.8474 19.2927 22.1409 19.3142 22.1997 19.0968C22.3351 18.597 22.3209 18.0578 22.3647 17.5438C22.3858 17.2989 22.4086 17.054 22.4421 16.8103C22.4803 16.5336 22.5654 16.2534 22.5246 15.9754C22.4829 15.6909 22.0605 15.6755 21.9338 15.8981L21.9342 15.8976Z" fill="#1E1E22"/>
<path d="M22.8567 13.8376C22.6969 13.7955 22.5422 13.8905 22.4923 14.0443C22.4275 14.2446 22.369 14.4637 22.3617 14.6751C22.3583 14.7757 22.375 15.0249 22.5259 15.0219C22.6574 15.0193 22.7265 14.8634 22.7725 14.7615C22.8494 14.5909 22.9294 14.4293 23.0333 14.2729C23.1008 14.1715 23.0819 13.9949 22.9869 13.9141C22.9457 13.8789 22.9096 13.8523 22.8563 13.8381L22.8567 13.8376Z" fill="#1E1E22"/>
<path d="M11.356 20.4439C11.274 20.2497 11.2014 20.0503 11.1274 19.8526C11.0643 19.6833 10.9947 19.4844 10.809 19.4242C10.7592 19.4079 10.7046 19.4272 10.6681 19.4616C10.5254 19.5944 10.5594 19.8256 10.5929 20.0005C10.638 20.2338 10.7076 20.4577 10.7918 20.6798C10.9569 21.1147 11.1614 21.5272 11.4184 21.9152C11.6495 22.2637 12.215 21.9371 11.9817 21.5856C11.7424 21.2247 11.5249 20.8435 11.356 20.4443V20.4439Z" fill="#1E1E22"/>
<path d="M42.4406 38.5569C42.2099 38.1999 41.726 37.8325 41.298 37.7689C41.0681 37.7345 40.867 37.9919 41.057 38.1831C41.1902 38.3167 41.3457 38.4285 41.4789 38.5634C41.6182 38.7039 41.7166 38.8685 41.8425 39.0189C42.1205 39.3498 42.6735 38.9188 42.4402 38.5574L42.4406 38.5569Z" fill="#1E1E22"/>
<path d="M27.4027 48.5399C27.3263 48.3904 27.2554 48.2383 27.187 48.0844C27.0555 47.7896 26.9339 47.4596 26.7539 47.1915C26.6306 47.0076 26.3465 47.0767 26.3371 47.3045C26.3233 47.6495 26.4368 48.0298 26.5601 48.3487C26.6267 48.521 26.7019 48.6912 26.7805 48.8587C26.8579 49.0242 26.9262 49.2059 27.0659 49.3276C27.3258 49.5536 27.6683 49.3314 27.6163 49.007C27.5897 48.8398 27.4792 48.6894 27.4027 48.5399Z" fill="#DCDCDC"/>
<path d="M28.4733 50.8065C28.3805 50.6269 28.3267 50.4138 28.1476 50.3021C28.0633 50.2496 27.9443 50.2836 27.8953 50.3682C27.7772 50.5724 27.8592 50.8276 27.9159 51.0416C27.9813 51.2874 28.0732 51.5237 28.1781 51.7549C28.2318 51.8735 28.3813 51.9401 28.5038 51.9418C28.5167 51.9418 28.5296 51.9418 28.5429 51.9423C28.6469 51.944 28.7668 51.883 28.814 51.7867C28.8192 51.776 28.8243 51.7657 28.8295 51.7549C28.8854 51.6415 28.9111 51.4855 28.8295 51.3738C28.6972 51.1929 28.5755 51.0055 28.4728 50.8061L28.4733 50.8065Z" fill="#DCDCDC"/>
<path d="M26.8656 48.4106C26.7891 48.2611 26.7182 48.109 26.6499 47.9551C26.5184 47.6604 26.3968 47.3303 26.2168 47.0622C26.0934 46.8783 25.8094 46.9475 25.8 47.1752C25.7862 47.5203 25.8997 47.9006 26.023 48.2194C26.0896 48.3917 26.1648 48.5619 26.2434 48.7295C26.3208 48.8949 26.3891 49.0767 26.5287 49.1983C26.7887 49.4243 27.1312 49.2022 27.0792 48.8777C27.0526 48.7106 26.9421 48.5602 26.8656 48.4106Z" fill="#1E1E22"/>
<path d="M27.9371 50.6773C27.8443 50.4977 27.7906 50.2845 27.6114 50.1728C27.5272 50.1204 27.4082 50.1543 27.3592 50.239C27.241 50.4431 27.3231 50.6983 27.3798 50.9123C27.4451 51.1581 27.5371 51.3945 27.6419 51.6256C27.6957 51.7442 27.8452 51.8108 27.9677 51.8126C27.9805 51.8126 27.9934 51.8126 28.0068 51.813C28.1107 51.8147 28.2306 51.7537 28.2779 51.6574C28.2831 51.6467 28.2882 51.6364 28.2934 51.6256C28.3492 51.5122 28.375 51.3562 28.2934 51.2445C28.161 51.0636 28.0394 50.8762 27.9367 50.6768L27.9371 50.6773Z" fill="#1E1E22"/>
<path d="M52.7266 22.1299C49.3186 19.6956 44.2515 20.977 42.6246 24.9437C40.3639 30.651 46.1413 35.9235 51.4792 33.6796C53.8236 32.6994 55.6297 30.0756 55.6224 27.4368C55.6576 25.235 54.4832 23.3623 52.7266 22.1299Z" fill="white"/>
<path d="M47.9323 34.1364C47.4351 32.8482 44.3803 28.7389 44.3803 28.7389C44.3803 28.7389 44.2836 30.5239 43.6816 30.5789C43.4079 30.6038 43.0289 30.4014 42.6963 30.1737C43.6395 32.2629 45.6398 33.7961 47.9323 34.1364Z" fill="#DCDCDC"/>
<path d="M43.5992 27.7893V28.4472L42.4192 28.5163L42.2812 27.7068L43.5992 27.7893Z" fill="#DCDCDC"/>
<path d="M42.7686 25.3042L43.1622 24.5767L44.6713 25.7541L44.4745 26.0639L42.7686 25.3042Z" fill="#DCDCDC"/>
<path d="M44.751 22.8424L46.1673 24.3541L46.4436 24.0263L45.2344 22.4028L44.751 22.8424Z" fill="#DCDCDC"/>
<path d="M47.3701 21.4387L48.633 23.1975L49 22.9384L47.9339 21.3149L47.3701 21.4387Z" fill="#DCDCDC"/>
<path d="M52.7266 22.1299C49.3186 19.6956 44.2515 20.977 42.6246 24.9437C40.3639 30.651 46.1413 35.9235 51.4792 33.6796C53.8236 32.6994 55.6297 30.0756 55.6224 27.4368C55.6576 25.235 54.4832 23.3623 52.7266 22.1299ZM53.2328 32.0678C51.4143 33.7758 48.6573 34.2507 46.3944 33.2976C44.1509 32.3956 42.5 30.0438 42.5563 27.5232C42.6367 23.0461 47.1812 20.3888 51.0843 21.8339C53.4167 22.6494 55.1957 24.9162 55.194 27.5232C55.2167 29.2424 54.4695 30.932 53.2328 32.0682V32.0678Z" fill="#1E1E22"/>
<path d="M48.7319 21.9981C48.5552 21.7622 48.3834 21.5233 48.2046 21.2891C48.12 21.1778 48.0362 21.0644 47.9524 20.9509C47.7861 20.972 47.6206 20.9991 47.4561 21.0321C47.5665 21.2161 47.6829 21.3965 47.7947 21.577C47.9506 21.8293 48.1161 22.075 48.2802 22.3217C48.453 22.5808 48.6115 22.8816 48.8629 23.0677C49.0773 23.2262 49.3072 22.9834 49.2307 22.7548C49.1349 22.4695 48.9089 22.234 48.7323 21.9981H48.7319Z" fill="#1E1E22"/>
<path d="M44.9731 22.6569C45.1708 22.91 45.3684 23.1627 45.5648 23.4166C45.7689 23.6805 45.9528 23.9911 46.2167 24.1918C46.3542 24.2967 46.5776 24.2455 46.6911 24.1287C46.8234 23.992 46.823 23.8059 46.7521 23.6396C46.6258 23.3431 46.3353 23.0776 46.1316 22.8322C45.9275 22.5864 45.7204 22.3432 45.5089 22.1043C45.4372 22.0231 45.3659 21.9414 45.2941 21.8602C45.0792 21.9879 44.8717 22.1279 44.6719 22.2796C44.7724 22.4051 44.8738 22.5301 44.9727 22.6569H44.9731Z" fill="#1E1E22"/>
<path d="M44.8198 25.2148C44.4545 24.8101 43.9153 24.5698 43.4507 24.3043C43.3257 24.233 43.1955 24.153 43.0614 24.0748C42.948 24.2635 42.844 24.4607 42.749 24.6648C42.8732 24.7486 42.9961 24.8285 43.1091 24.9076C43.5509 25.2153 44.0012 25.5968 44.5186 25.7494C44.8249 25.8396 45.026 25.443 44.8202 25.2148H44.8198Z" fill="#1E1E22"/>
<path d="M43.6194 27.4708C43.4535 27.4699 43.2872 27.4707 43.1213 27.4729C42.8124 27.4772 42.4579 27.4536 42.1231 27.4811C42.1223 27.6762 42.1291 27.8695 42.1459 28.0599C42.4566 28.0762 42.7793 28.0573 43.0685 28.0741C43.2425 28.0844 43.4161 28.0973 43.5901 28.1106C43.5944 27.8889 43.6047 27.6736 43.6198 27.4699L43.6194 27.4708Z" fill="#1E1E22"/>
<path d="M43.7825 29.9621C43.6119 30.0261 43.443 30.0949 43.2733 30.1546C43.1078 30.2135 42.9377 30.2659 42.7705 30.3248C42.8685 30.528 42.9768 30.7253 43.0941 30.9169C43.2294 30.8752 43.3635 30.8288 43.4967 30.7846C43.6742 30.7257 43.8559 30.6685 44.0343 30.6024C43.9501 30.4257 43.8594 30.2079 43.7829 29.9617L43.7825 29.9621Z" fill="#1E1E22"/>
<path d="M49.565 34.2254C52.8942 34.2254 55.593 31.4804 55.593 28.0943C55.593 24.7082 52.8942 21.9633 49.565 21.9633C46.2359 21.9633 43.5371 24.7082 43.5371 28.0943C43.5371 31.4804 46.2359 34.2254 49.565 34.2254Z" fill="white"/>
<path d="M54.679 28.8587C54.3692 30.0842 52.9129 32.9529 48.6339 32.5679C45.8644 32.3187 44.3041 30.0326 43.5479 28.45C43.7292 31.6707 46.3538 34.2253 49.5655 34.2253C52.7771 34.2253 55.5934 31.4803 55.5934 28.0942C55.5934 26.9456 55.2823 25.8705 54.7421 24.9518C54.8397 26.3367 54.9127 27.9357 54.6794 28.8591L54.679 28.8587Z" fill="#DCDCDC"/>
<path d="M53.2582 22.8424C50.0849 20.5237 45.2687 21.8038 43.7536 25.5818C41.6484 31.018 47.1302 36.0959 52.1006 33.9585C54.2835 33.0247 55.9658 30.5256 55.9589 28.0122C55.9916 25.9148 54.8937 24.0164 53.2582 22.8424ZM53.7339 32.4236C52.0405 34.0505 49.473 34.5029 47.3657 33.595C45.2764 32.736 43.7389 30.4955 43.7914 28.0943C43.8661 23.8295 48.0983 21.2985 51.7328 22.6748C53.9049 23.4517 55.5615 25.611 55.5597 28.0943C55.5808 29.7319 54.8851 31.3416 53.7335 32.4236H53.7339Z" fill="#1E1E22"/>
<path d="M54.9134 28.2366C54.9108 28.1777 54.8743 28.1137 54.8158 28.1008C54.8059 28.0982 54.7956 28.0961 54.7853 28.0952C54.7836 28.0952 54.7819 28.0956 54.7802 28.0961C54.7247 28.1034 54.6646 28.1343 54.6521 28.1996C54.5726 28.6122 54.5124 29.0161 54.3878 29.4179C54.3234 29.6258 54.6268 29.7105 54.6947 29.5077C54.8287 29.1067 54.9314 28.6654 54.9129 28.2375L54.9134 28.2366Z" fill="#1E1E22"/>
<path d="M47.3696 23.2884C46.9566 23.4625 46.5411 23.67 46.175 23.939C45.8935 24.1461 45.5145 24.4482 45.4539 24.8302C45.438 24.9299 45.5304 25.0279 45.6232 24.9686C45.7741 24.8723 45.8888 24.7232 46.0216 24.602C46.1539 24.4813 46.2936 24.3713 46.4423 24.2742C46.7903 24.0469 47.1706 23.8995 47.5419 23.722C47.7701 23.6129 47.6055 23.1887 47.3696 23.288V23.2884Z" fill="#DCDCDC"/>
<path d="M48.4993 22.8463C48.3489 22.8708 48.1478 22.912 48.0438 23.041C47.9669 23.1364 47.9837 23.3151 48.119 23.3443C48.2608 23.3744 48.4159 23.3263 48.5599 23.3246C48.6978 23.3228 48.8035 23.1939 48.7851 23.0487C48.7653 22.8923 48.6355 22.8244 48.4989 22.8463H48.4993Z" fill="#DCDCDC"/>
<path d="M47.3696 23.0328C46.9566 23.2068 46.5411 23.4144 46.175 23.6834C45.8935 23.8905 45.5145 24.1926 45.4539 24.5746C45.438 24.6743 45.5304 24.7723 45.6232 24.713C45.7741 24.6167 45.8888 24.4676 46.0216 24.3464C46.1539 24.2257 46.2936 24.1157 46.4423 24.0186C46.7903 23.7912 47.1706 23.6439 47.5419 23.4664C47.7701 23.3572 47.6055 22.9331 47.3696 23.0324V23.0328Z" fill="#1E1E22"/>
<path d="M48.4993 22.5907C48.3489 22.6152 48.1478 22.6564 48.0438 22.7853C47.9669 22.8807 47.9837 23.0595 48.119 23.0887C48.2608 23.1188 48.4159 23.0707 48.5599 23.0689C48.6978 23.0672 48.8035 22.9383 48.7851 22.7931C48.7653 22.6367 48.6355 22.5688 48.4989 22.5907H48.4993Z" fill="#1E1E22"/>
<path d="M53.6903 29.6713C53.5498 29.1673 53.1235 28.7887 52.7127 28.4595C52.5456 28.3311 52.4747 28.2391 52.2942 28.1265C53.0011 27.7338 53.7432 26.9006 53.7621 26.1271C53.7745 25.6291 53.316 25.2531 52.8846 25.1504C52.2727 24.9806 51.684 25.5182 51.4421 25.9647C51.1701 26.4614 51.1133 26.7983 50.9982 27.341C50.987 27.3801 50.9582 27.3728 50.9428 27.3466C50.7434 27.0089 50.6738 26.9771 50.4602 26.7184C49.994 26.161 49.373 25.6806 48.5914 25.5156C47.5876 25.318 46.5804 25.8031 45.9246 26.4747C45.528 26.8821 45.2328 27.3672 45.0657 27.8936C44.7653 28.9528 45.1095 30.1719 45.8984 30.9866C46.436 31.5521 47.3053 31.8542 48.1157 31.7528C49.6244 31.6084 50.7249 30.5716 51.2113 29.3151C51.5474 29.8574 52.0299 30.4912 52.5941 30.6876C52.9117 30.801 53.2533 30.6927 53.4664 30.4594C53.6757 30.2583 53.7685 29.9395 53.6903 29.6709V29.6713Z" fill="#DCDCDC"/>
<path d="M53.6073 28.9692C53.4668 28.4651 53.0405 28.0866 52.6297 27.7574C52.4626 27.6289 52.3917 27.537 52.2112 27.4244C52.9181 27.0316 53.6602 26.1984 53.6791 25.425C53.6915 24.9269 53.233 24.5509 52.8016 24.4482C52.1897 24.2785 51.601 24.8161 51.3591 25.2625C51.0871 25.7593 51.0303 26.0962 50.9152 26.6389C50.904 26.678 50.8752 26.6707 50.8598 26.6445C50.6604 26.3067 50.5908 26.2749 50.3772 26.0162C49.911 25.4589 49.29 24.9785 48.5084 24.8135C47.5046 24.6158 46.4974 25.101 45.8416 25.7726C45.445 26.1799 45.1498 26.6651 44.9827 27.1915C44.6823 28.2507 45.0265 29.4698 45.8154 30.2845C46.353 30.85 47.2223 31.1521 48.0327 31.0507C49.5414 30.9063 50.6419 29.8694 51.1283 28.6129C51.4643 29.1552 51.9469 29.789 52.5111 29.9854C52.8287 30.0989 53.1703 29.9906 53.3834 29.7573C53.5927 29.5562 53.6855 29.2373 53.6073 28.9687V28.9692Z" fill="white"/>
<path d="M48.2734 24.9165L48.1553 30.837L48.8243 30.6651L48.8566 25.03L48.2734 24.9165Z" fill="#DCDCDC"/>
<path d="M52.8028 24.4485C52.527 24.372 52.2558 24.4395 52.0191 24.5774C52.5459 24.7085 52.7268 24.849 52.7268 25.3767C52.7268 26.0075 51.8665 26.6448 51.7144 26.9954C51.5627 27.3456 51.8162 27.4565 51.8162 27.4565L52.2528 27.4015C52.9472 27.0001 53.6614 26.1841 53.6803 25.4252C53.6928 24.9272 53.2343 24.5512 52.8028 24.4485Z" fill="#DCDCDC"/>
<path d="M53.6084 28.9691C53.5586 28.7903 53.4727 28.6279 53.3644 28.4775C53.3072 29.4035 52.2712 28.8788 51.8677 28.3993C51.447 27.8995 51.3267 27.4475 51.0401 27.5704C50.7535 27.6933 50.399 28.4513 49.7071 29.1461C49.0153 29.8409 47.6677 29.9853 46.6824 29.486C45.8746 29.0765 45.1776 27.7715 44.9529 27.3147C44.7114 28.3443 45.0586 29.5015 45.817 30.2853C46.3546 30.8508 47.2239 31.1528 48.0343 31.0514C49.543 30.907 50.6435 29.8702 51.1299 28.6137C51.4659 29.156 51.9485 29.7898 52.5127 29.9862C52.8302 30.0996 53.1719 29.9913 53.385 29.758C53.5943 29.5569 53.6871 29.2381 53.6089 28.9695L53.6084 28.9691Z" fill="#DCDCDC"/>
<path d="M53.6073 28.9692C53.4668 28.4651 53.0405 28.0866 52.6297 27.7574C52.4626 27.6289 52.3917 27.537 52.2112 27.4244C52.9181 27.0316 53.6602 26.1984 53.6791 25.425C53.6915 24.9269 53.233 24.5509 52.8016 24.4482C52.1897 24.2785 51.601 24.8161 51.3591 25.2625C51.0871 25.7593 51.0303 26.0962 50.9152 26.6389C50.904 26.678 50.8752 26.6707 50.8598 26.6445C50.6604 26.3067 50.5908 26.2749 50.3772 26.0162C49.911 25.4589 49.29 24.9785 48.5084 24.8135C47.5046 24.6158 46.4974 25.101 45.8416 25.7726C45.445 26.1799 45.1498 26.6651 44.9827 27.1915C44.6823 28.2507 45.0265 29.4698 45.8154 30.2845C46.353 30.85 47.2223 31.1521 48.0327 31.0507C49.5414 30.9063 50.6419 29.8694 51.1283 28.6129C51.4643 29.1552 51.9469 29.789 52.5111 29.9854C52.8287 30.0989 53.1703 29.9906 53.3834 29.7573C53.5927 29.5562 53.6855 29.2373 53.6073 28.9687V28.9692ZM53.3314 29.322C53.2773 29.4986 53.0977 29.6881 52.9086 29.7409C52.5691 29.8174 52.2739 29.536 52.0582 29.3215C51.8928 29.1479 51.7454 28.9541 51.6096 28.7539C51.4751 28.5541 51.3483 28.3427 51.2405 28.1338C51.219 28.0926 51.1773 28.0595 51.1249 28.0475C51.0316 28.0264 50.9375 28.0784 50.9143 28.1639C50.8941 28.2378 50.8649 28.3225 50.837 28.3968C50.3982 29.5647 49.388 30.5513 47.9902 30.6545C46.4656 30.7971 45.5232 29.4999 45.3797 28.2473C45.2633 27.4355 45.6006 26.6436 46.1631 26.0283C46.7122 25.4219 47.5712 24.957 48.4517 25.0842C49.162 25.1951 49.7541 25.6647 50.2289 26.1499C50.4614 26.3871 50.6733 26.6453 50.8778 26.904C50.8946 26.9251 50.916 26.9577 50.944 26.9655C50.9594 26.9616 50.9629 26.9491 50.9655 26.9349C50.9672 26.9263 50.9723 26.9053 50.9745 26.8958C51.1047 26.3634 51.2843 25.831 51.5666 25.3502C51.7957 24.9587 52.2125 24.4787 52.7552 24.6407C53.3482 24.8014 53.4823 25.2346 53.273 25.7326C52.9937 26.3789 52.4368 26.8993 51.8455 27.3212C51.7815 27.3642 51.7862 27.4579 51.8545 27.4957C52.3706 27.8266 52.8923 28.215 53.2098 28.7199C53.3198 28.9047 53.3937 29.12 53.3319 29.322H53.3314Z" fill="#1E1E22"/>
<path d="M48.2444 30.8233C48.3209 29.8006 48.3157 28.7706 48.3411 27.7466C48.3548 27.1923 48.3725 26.638 48.3823 26.0837C48.3892 25.7102 48.4197 25.3196 48.4021 24.938C48.3866 24.9359 48.3716 24.9329 48.3557 24.9312C48.2745 24.9217 48.1928 24.917 48.1116 24.917C48.0738 25.302 48.0859 25.6986 48.0738 26.0772C48.0566 26.6315 48.0472 27.1858 48.0339 27.7402C48.0089 28.777 47.9518 29.8182 47.9806 30.856C48.0373 30.8512 48.0949 30.8457 48.1533 30.8375C48.1838 30.8332 48.2139 30.8285 48.244 30.8237L48.2444 30.8233Z" fill="#1E1E22"/>
<path d="M47.5503 27.3053C47.2426 26.7046 46.2629 27.0453 46.3926 27.7419C46.5675 28.5197 47.922 28.0637 47.5503 27.3053Z" fill="#DCDCDC"/>
<path d="M47.2338 27.0855C46.9262 26.4847 45.9464 26.8255 46.0762 27.522C46.2511 28.2998 47.6055 27.8439 47.2338 27.0855Z" fill="#1E1E22"/>
<path d="M41.9031 20.9942C41.7295 20.8322 41.5564 20.6702 41.3802 20.5112C41.1804 20.3307 40.9621 20.054 40.6875 20.0102C40.3725 19.9594 40.0477 20.2005 40.1486 20.549C40.235 20.8472 40.5113 21.0182 40.7378 21.2129C40.95 21.3955 41.1666 21.5734 41.3815 21.7526C41.5929 21.9288 41.8043 22.1037 42.0222 22.2717C42.2417 22.4414 42.4893 22.5918 42.7638 22.4625C42.925 22.3864 42.9396 22.1793 42.8747 22.0392C42.6805 21.619 42.2353 21.304 41.9031 20.9942Z" fill="#1E1E22"/>
<path d="M46.9737 18.0869C46.953 17.8252 46.9522 17.5738 46.8473 17.331C46.7115 17.0169 46.1761 17.1041 46.113 17.4269C46.0653 17.6705 46.1224 17.9107 46.1564 18.1543C46.1894 18.3933 46.2225 18.6326 46.2573 18.8711C46.3239 19.3223 46.3433 19.8199 46.4868 20.2539C46.6011 20.6002 47.063 20.516 47.0983 20.171C47.1447 19.715 47.0574 19.2239 47.0252 18.7671C47.0093 18.5402 46.9913 18.3133 46.9732 18.0864L46.9737 18.0869Z" fill="#1E1E22"/>
<path d="M52.2027 18.3104C52.0411 18.2159 51.7661 18.2232 51.6424 18.3826C51.4412 18.6421 51.3364 18.9769 51.2311 19.2875C51.1336 19.5767 50.981 19.8823 51.0425 20.1904C51.0837 20.3971 51.3519 20.4886 51.522 20.3854C51.7751 20.232 51.8907 19.9197 52.0295 19.6691C52.1679 19.4199 52.3673 19.1144 52.415 18.8321C52.4493 18.6267 52.3922 18.4208 52.2027 18.31V18.3104Z" fill="#1E1E22"/>
<path d="M41.3136 28.3453C41.1288 28.3242 40.9402 28.3706 40.7571 28.4007C40.5492 28.4347 40.3429 28.4746 40.1366 28.5167C39.7276 28.6009 39.2665 28.6951 38.8918 28.8837C38.4389 29.1114 38.7612 29.7908 39.227 29.6791C39.4104 29.6348 39.5892 29.5433 39.7658 29.4767C39.9695 29.3998 40.1719 29.3229 40.3734 29.2408C40.5578 29.1656 40.7421 29.0912 40.926 29.0152C41.0979 28.9443 41.2805 28.8897 41.4305 28.7793C41.623 28.6379 41.5478 28.3723 41.3132 28.3457L41.3136 28.3453Z" fill="#1E1E22"/>
</g>
</g>
<defs>
<radialGradient id="paint0_radial_457_81386" cx="0" cy="0" r="1" gradientUnits="userSpaceOnUse" gradientTransform="translate(-33.6693 -1.28512) rotate(90) scale(89.0251)">
<stop offset="0.265" stop-color="#D27C71"/>
<stop offset="1" stop-color="#D27C71" stop-opacity="0"/>
</radialGradient>
<radialGradient id="paint1_radial_457_81386" cx="0" cy="0" r="1" gradientUnits="userSpaceOnUse" gradientTransform="translate(106.061 126.312) rotate(90) scale(126.144)">
<stop stop-color="#B68EFF"/>
<stop offset="1" stop-color="#B68EFF" stop-opacity="0"/>
</radialGradient>
<clipPath id="clip0_457_81386">
<rect width="64" height="64" rx="32" fill="white"/>
</clipPath>
<clipPath id="clip1_457_81386">
<rect width="64" height="64" fill="white"/>
</clipPath>
</defs>
</svg>
