<svg width="64" height="65" viewBox="0 0 64 65" fill="none" xmlns="http://www.w3.org/2000/svg">
<g clip-path="url(#clip0_457_81425)">
<rect y="0.5" width="64" height="64" rx="32" fill="#8B47F4"/>
<mask id="mask0_457_81425" style="mask-type:alpha" maskUnits="userSpaceOnUse" x="0" y="0" width="64" height="65">
<circle cx="32" cy="32.5" r="32" fill="#8B47F4"/>
</mask>
<g mask="url(#mask0_457_81425)">
<circle cx="-33.6693" cy="-0.785118" r="89.0251" fill="url(#paint0_radial_457_81425)"/>
<circle cx="106.061" cy="126.812" r="126.144" fill="url(#paint1_radial_457_81425)"/>
</g>
<g clip-path="url(#clip1_457_81425)">
<path d="M48.6675 18.1442C48.9487 15.6173 47.0268 13.3296 44.3749 13.0345C41.7229 12.7394 39.3451 14.5486 39.0638 17.0754C38.7826 19.6023 40.7045 21.89 43.3565 22.1851C46.0085 22.4803 48.3863 20.6711 48.6675 18.1442Z" fill="white"/>
<path d="M39.8955 20.1914C40.6676 21.2631 41.902 22.0257 43.3567 22.188C46.0089 22.4832 48.3869 20.6737 48.6678 18.1467C48.9492 15.6198 47.0271 13.3318 44.3749 13.0366C44.0824 13.004 43.7933 12.9985 43.5102 13.015C43.9097 13.3285 45.451 14.1563 45.6569 15.5436C46.0216 18.006 44.7756 19.5865 43.5289 20.3768C42.9224 20.7614 41.2338 20.8265 39.8955 20.1908V20.1914Z" fill="#DCDCDC"/>
<path d="M43.1912 12.5609C40.933 12.7689 38.906 14.664 38.7057 17.0375C38.3619 20.6212 42.2795 23.4638 45.467 22.4225C47.5161 21.7531 48.9283 19.9794 49.1639 18.0496C49.5618 14.7876 46.3312 12.1856 43.1912 12.5609ZM40.3961 20.3359C39.6533 19.464 39.2653 18.2742 39.4248 17.1175C39.7184 14.7335 42.13 13.2794 44.3247 13.5012C46.6452 13.6739 48.8747 15.5652 48.6242 18.1412C48.1485 22.2338 42.7889 23.231 40.3961 20.3359Z" fill="#1E1E22"/>
<path d="M41.1604 18.4237C41.1538 18.1058 41.1207 17.7918 41.1896 17.4751C41.2603 17.15 41.4247 16.8929 41.5853 16.6081C41.7354 16.3427 41.3894 16.0976 41.1781 16.3029C40.6345 16.8333 40.4369 17.879 40.8022 18.5335C40.8961 18.7013 41.1643 18.6179 41.1598 18.4231L41.1604 18.4237Z" fill="#DCDCDC"/>
<path d="M41.9885 15.6463C42.1628 15.5425 42.3141 15.4162 42.4978 15.3268C42.7754 15.1921 42.5298 14.7418 42.2578 14.9107C42.0481 15.0409 41.8395 15.2534 41.8041 15.5094C41.7898 15.6148 41.8869 15.7059 41.9879 15.6457L41.9885 15.6463Z" fill="#DCDCDC"/>
<path d="M40.9758 18.0552C40.9692 17.7373 40.9361 17.4233 41.0051 17.1065C41.0757 16.7815 41.2402 16.5243 41.4008 16.2396C41.5509 15.9741 41.2048 15.7291 40.9935 15.9344C40.4499 16.4647 40.2524 17.5105 40.6177 18.165C40.7115 18.3327 40.9797 18.2494 40.9753 18.0546L40.9758 18.0552Z" fill="#1E1E22"/>
<path d="M41.965 15.2942C42.1394 15.1905 42.2906 15.0641 42.4744 14.9747C42.752 14.8401 42.5064 14.3898 42.2343 14.5586C42.0246 14.6889 41.816 14.9013 41.7807 15.1574C41.7664 15.2628 41.8635 15.3538 41.9645 15.2937L41.965 15.2942Z" fill="#1E1E22"/>
<path d="M15.1245 19.8244C15.1245 19.8244 12.3232 20.2355 12.3232 18.3553C12.3232 16.4751 14.3016 16.7097 14.3016 16.7097C14.3016 16.7097 13.8298 14.7539 15.1245 14.2307C16.4566 13.6927 17.1812 15.9316 17.1812 15.9316C17.1812 15.9316 17.5339 13.9918 19.1795 14.0873C20.8251 14.1827 20.4134 16.4161 20.4134 16.4161C20.4134 16.4161 21.9023 14.7512 23.0187 15.9067C24.331 17.2654 22.3526 18.4828 22.3526 18.4828C22.3526 18.4828 23.4299 19.8641 22.4702 20.6278C21.0983 21.7194 20.0608 19.4723 20.0608 19.4723C20.0608 19.4723 20.1392 21.1764 18.9637 21.2939C17.7883 21.4115 17.6757 19.7659 17.6757 19.7659C17.6757 19.7659 17.7491 21.5627 16.2409 21.534C14.6863 21.5047 15.1245 19.8244 15.1245 19.8244Z" fill="white"/>
<path d="M23.468 16.8814C23.468 16.8449 23.4663 16.808 23.4624 16.771C23.4602 16.7467 23.4569 16.7224 23.4525 16.6976C23.4321 16.574 23.3901 16.4465 23.3217 16.3174C23.2864 16.2506 23.2439 16.1827 23.1937 16.1148C23.1429 16.0464 23.085 15.9769 23.0176 15.9073C22.9983 15.8875 22.9784 15.8682 22.9591 15.8494C22.9531 15.8433 22.9464 15.8378 22.9404 15.8323C22.9266 15.8201 22.9133 15.808 22.8995 15.7964C22.8924 15.7903 22.8852 15.7843 22.878 15.7787C22.8648 15.7683 22.8515 15.7578 22.8383 15.7478C22.8311 15.7423 22.8239 15.7374 22.8168 15.7318C22.8024 15.7214 22.7875 15.7114 22.7732 15.7015C22.7676 15.6976 22.7621 15.6938 22.7561 15.6899C22.7152 15.6634 22.6738 15.6402 22.6324 15.6198C22.6269 15.617 22.622 15.6148 22.6164 15.6121C22.601 15.6049 22.585 15.5977 22.5695 15.5911C22.5635 15.5884 22.5574 15.5862 22.5513 15.5834C22.5359 15.5773 22.5204 15.5712 22.505 15.5657C22.4994 15.5635 22.4939 15.5619 22.4884 15.5597C22.4702 15.5536 22.4525 15.5481 22.4343 15.5431C22.4316 15.5426 22.4288 15.5414 22.426 15.5409C22.3824 15.5288 22.3394 15.5199 22.2958 15.5133C22.293 15.5133 22.2903 15.5128 22.2881 15.5122C22.2693 15.5094 22.2506 15.5072 22.2318 15.5056C22.2279 15.5056 22.2246 15.505 22.2208 15.5045C22.202 15.5028 22.1832 15.5017 22.1645 15.5006C22.1617 15.5006 22.1595 15.5006 22.1567 15.5006C22.0905 15.4984 22.0249 15.5012 21.9597 15.5089C21.4978 15.5624 21.0652 15.8439 20.776 16.0801C21.005 16.3709 21.9261 17.644 21.0795 18.3178C19.7076 19.4094 18.7054 17.5066 18.7054 17.5066C18.7054 17.5066 18.7838 19.2107 17.6084 19.3283C16.4329 19.4458 16.3203 17.8002 16.3203 17.8002C16.3203 17.8002 15.3424 19.3586 14.2823 19.1666C12.847 18.9067 12.7134 17.8129 12.7702 17.154C12.5109 17.4006 12.3232 17.7781 12.3232 18.357C12.3232 20.2377 15.1245 19.8261 15.1245 19.8261C15.1245 19.8261 14.8127 21.0219 15.6487 21.4137C15.7105 21.443 15.779 21.4673 15.854 21.4866C15.9666 21.5158 16.0952 21.5329 16.2409 21.5357C16.5234 21.5412 16.7508 21.4822 16.9334 21.3828C17.0548 21.3166 17.1569 21.2327 17.2419 21.1378C17.2635 21.1141 17.2833 21.0898 17.3026 21.065C17.6492 20.6158 17.6757 19.9833 17.6762 19.8117C17.6762 19.783 17.6757 19.7676 17.6757 19.7676C17.6757 19.7676 17.6779 19.7957 17.6834 19.8437C17.6856 19.863 17.6889 19.8862 17.6928 19.9116C17.7005 19.9629 17.7116 20.0264 17.727 20.0965C17.7336 20.1285 17.7419 20.1616 17.7502 20.1958C17.7667 20.2615 17.7872 20.3316 17.812 20.4033C17.8263 20.4458 17.8429 20.4888 17.8606 20.5319C17.9042 20.6373 17.9582 20.7427 18.0239 20.8404C18.0311 20.8514 18.0388 20.8624 18.0465 20.8729C18.0752 20.9132 18.1067 20.9518 18.1398 20.9882C18.1415 20.9899 18.1425 20.9916 18.1436 20.9927C18.3324 21.1963 18.5962 21.3315 18.9632 21.2951C19.4041 21.2509 19.6684 20.9838 19.8268 20.6671C19.8798 20.5617 19.9206 20.4502 19.9526 20.3404C20.0481 20.0098 20.0608 19.6875 20.0613 19.5468C20.0613 19.4999 20.0603 19.4734 20.0603 19.4734C20.0603 19.4734 20.8268 21.1334 21.9128 20.9071C21.9327 20.9033 21.9526 20.8983 21.9724 20.8928C22.1319 20.8497 22.2986 20.7653 22.4696 20.629C22.7699 20.39 22.8708 20.0915 22.8675 19.7929C22.8675 19.7598 22.8653 19.7267 22.8626 19.6942C22.8559 19.6147 22.8427 19.5358 22.8245 19.4585C22.7958 19.3366 22.7555 19.2185 22.7097 19.1097C22.6987 19.0838 22.6876 19.0584 22.6766 19.0336C22.6429 18.9591 22.607 18.8901 22.5728 18.8272C22.5497 18.7853 22.527 18.7466 22.5055 18.7113C22.4194 18.57 22.3521 18.4834 22.3521 18.4834C22.3521 18.4834 22.4189 18.442 22.5193 18.3669C22.5298 18.3587 22.5408 18.3504 22.5524 18.3416C22.5618 18.3344 22.5712 18.3272 22.5806 18.3195C22.6093 18.2969 22.6396 18.272 22.6716 18.2455C22.6987 18.2229 22.7263 18.1986 22.7544 18.1732C22.782 18.1484 22.8101 18.1225 22.8388 18.0949C22.8504 18.0838 22.862 18.0723 22.8736 18.0612C22.926 18.0088 22.979 17.9525 23.0309 17.8924C23.0452 17.8752 23.0601 17.8581 23.0745 17.8405C23.0877 17.8245 23.1004 17.8079 23.1137 17.7914C23.1352 17.7632 23.1567 17.734 23.1777 17.7047C23.1915 17.6848 23.2053 17.6639 23.2185 17.6435C23.2781 17.5513 23.3305 17.4531 23.3719 17.3504C23.3802 17.3289 23.3885 17.3079 23.3962 17.2859C23.4409 17.1578 23.4674 17.0232 23.468 16.883V16.8819V16.8814Z" fill="#DCDCDC"/>
<path d="M23.6143 16.569C23.5437 16.2793 23.3787 16.0348 23.1927 15.8333C22.7992 15.3797 22.1977 15.2136 21.6232 15.4106C21.2386 15.5387 20.9069 15.7506 20.61 16.0099C20.6271 15.6297 20.5891 15.2517 20.4583 14.8847C20.3275 14.5006 20.0102 14.1463 19.6079 14.0255C19.2205 13.9063 18.7911 13.9228 18.4125 14.0669C17.7724 14.3169 17.369 14.9173 17.1604 15.5552C17.1085 15.4382 17.0522 15.324 16.9904 15.2109C16.6472 14.5586 15.863 13.6469 15.044 13.946C14.0165 14.292 13.8316 15.5392 14.0154 16.4669C13.7648 16.4569 13.4254 16.5342 13.1948 16.633C12.5403 16.9133 12.3123 17.2996 12.1904 17.8901C12.1071 18.3007 12.1573 18.8178 12.3742 19.1886C12.8819 20.0032 13.9304 20.055 14.7891 19.975C14.7891 19.975 14.9772 19.9618 14.9734 19.9756C14.767 20.8955 15.2035 21.7073 16.2305 21.7432C17.0009 21.7818 17.491 21.2029 17.699 20.5622C17.9175 21.124 18.3546 21.5644 19.0417 21.4661C19.7265 21.3916 20.0952 20.7482 20.2066 20.1312C20.5113 20.5798 20.9135 20.9783 21.4312 21.1091C22.0918 21.2713 22.871 20.7945 23.0382 20.1411C23.1717 19.5683 22.9444 19.0054 22.6342 18.5325C23.2264 18.0844 23.8124 17.3636 23.6138 16.5684L23.6143 16.569ZM22.3158 20.4733L22.2546 20.5175L22.2242 20.5396C22.174 20.5672 22.1182 20.6074 22.0642 20.6273C21.254 20.9971 20.5714 20.0065 20.248 19.3862C20.1553 19.1859 19.8474 19.2565 19.8567 19.4817C19.8656 19.8266 19.8176 20.1974 19.6846 20.5147C19.5847 20.7443 19.439 20.938 19.2161 21.039C19.0063 21.135 18.7343 21.151 18.5268 21.0594C18.1361 20.8856 17.96 20.4187 17.8673 20.0197C17.848 19.9325 17.832 19.8387 17.8232 19.7559C17.8177 19.677 17.7503 19.6147 17.6698 19.6185C17.5886 19.6218 17.5257 19.6908 17.529 19.7719C17.5329 19.8613 17.529 19.9656 17.5196 20.0622C17.4374 20.9485 16.9661 21.5357 16.0225 21.4291C15.1963 21.353 15.017 20.5705 15.1373 19.8674L15.1406 19.8486L15.1423 19.8393C15.1439 19.831 15.1461 19.8172 15.1395 19.8111C15.1279 19.8023 15.108 19.8061 15.0959 19.8078C15.076 19.8106 15.0418 19.8128 15.0197 19.8161C14.2736 19.8713 13.3912 19.842 12.7881 19.3481C12.479 19.0843 12.3504 18.6726 12.3775 18.2748C12.389 17.8818 12.5165 17.4701 12.8101 17.2008C13.2058 16.8306 13.7941 16.745 14.3161 16.7847C14.3581 16.7759 14.3851 16.7345 14.3757 16.6926C14.3283 16.4641 14.304 16.2224 14.3007 15.9862C14.2979 15.5271 14.3763 15.0304 14.6754 14.6728C14.9541 14.3362 15.4529 14.143 15.8679 14.3224C16.2879 14.5078 16.5721 14.9217 16.7873 15.3207C16.8972 15.5287 16.9937 15.7511 17.0677 15.9697C17.1046 16.0828 17.2752 16.0756 17.2989 15.9559C17.454 15.287 17.8342 14.5724 18.508 14.318C18.8281 14.201 19.194 14.1899 19.519 14.2937C20.0924 14.4763 20.2877 15.1231 20.3026 15.6772C20.312 15.9106 20.2971 16.1606 20.259 16.3885C20.2508 16.4387 20.2668 16.4934 20.3065 16.5309C20.3705 16.591 20.4721 16.5872 20.5311 16.5221C20.6095 16.4387 20.7027 16.3515 20.7949 16.2732C21.2949 15.8444 22.0636 15.4222 22.6762 15.8488C23.0316 16.106 23.3257 16.5292 23.2766 16.9751C23.1949 17.5573 22.7032 18.0071 22.2314 18.32C22.1409 18.3873 22.1221 18.5154 22.1894 18.6059C22.2181 18.6434 22.2501 18.692 22.2794 18.7372C22.4714 19.0385 22.6392 19.4039 22.6547 19.7554C22.6701 20.0523 22.5487 20.3039 22.3147 20.4739L22.3158 20.4733Z" fill="#1E1E22"/>
<path d="M1.71612 22.4946C1.71612 22.4946 2.94455 20.29 4.91577 20.684C7.09725 21.1205 6.8274 23.6966 6.8274 23.6966C6.8274 23.6966 7.59614 21.626 9.21638 22.1177C10.8366 22.6094 10.3797 24.5691 10.3797 24.5691C10.3797 24.5691 12.5264 23.5989 13.1014 25.5872C13.6003 27.3118 11.1898 27.5607 11.1898 27.5607C11.1898 27.5607 12.3012 29.3575 10.5977 29.9601C8.91396 30.5556 7.62704 28.2461 7.62704 28.2461C7.62704 28.2461 7.68222 30.4772 5.53882 30.7128C3.02512 30.9888 2.96277 28.3708 2.96277 28.3708C2.96277 28.3708 -0.153558 30.3028 -1.27548 28.1213C-2.3974 25.9399 0.0335186 24.7556 0.0335186 24.7556C0.0335186 24.7556 -1.84223 23.5227 -0.7766 22.169C0.289031 20.8153 1.71667 22.4941 1.71667 22.4941L1.71612 22.4946Z" fill="white"/>
<path d="M6.25466 21.4792C6.2519 21.5411 6.24805 21.5764 6.24805 21.5764C6.24805 21.5764 6.25743 21.551 6.27619 21.5068C6.26902 21.4975 6.26184 21.4881 6.25466 21.4792Z" fill="#DCDCDC"/>
<path d="M9.80588 22.4213C9.80257 22.4389 9.7998 22.4489 9.7998 22.4489C9.7998 22.4489 9.80919 22.4444 9.82685 22.4373C9.82022 22.4318 9.8125 22.4268 9.80588 22.4213Z" fill="#DCDCDC"/>
<path d="M13.1011 25.5872C12.9504 25.0668 12.6927 24.7495 12.3936 24.5641C11.8942 25.3074 10.6095 25.4404 10.6095 25.4404C10.6095 25.4404 11.7209 27.2373 10.0173 27.8399C8.33362 28.4354 7.04671 26.1258 7.04671 26.1258C7.04671 26.1258 7.10189 28.357 4.95849 28.5926C2.44479 28.8686 2.38243 26.2506 2.38243 26.2506C2.38243 26.2506 -0.194724 27.8482 -1.50538 26.4967C-1.62679 26.9536 -1.59699 27.4966 -1.27581 28.1219C-0.153892 30.3034 2.96243 28.3713 2.96243 28.3713C2.96243 28.3713 3.02479 30.9893 5.53849 30.7134C7.68189 30.4783 7.62671 28.2466 7.62671 28.2466C7.62671 28.2466 8.91362 30.5561 10.5973 29.9607C12.3009 29.358 11.1895 27.5612 11.1895 27.5612C11.1895 27.5612 13.5994 27.3118 13.1011 25.5878V25.5872Z" fill="#DCDCDC"/>
<path d="M13.3008 25.8898C13.2417 25.4527 13.0784 25.0372 12.7721 24.7071C12.2589 24.1476 11.4167 24.1249 10.7346 24.3203C10.6651 24.3396 10.5972 24.3606 10.5299 24.3837C10.5376 24.3214 10.5431 24.259 10.5476 24.1961C10.5945 23.5322 10.5553 22.583 10.0134 22.1465C9.34065 21.6179 8.30316 21.6929 7.65253 22.2712C7.34349 22.5372 7.09516 22.9677 6.91084 23.3258C6.90918 23.285 6.90752 23.2436 6.90531 23.2022C6.85675 22.3391 6.63325 21.3022 5.86066 20.8375C5.32701 20.5136 4.46778 20.3629 3.85853 20.5026C2.90106 20.7272 2.21511 21.5279 1.70906 22.3391L1.69029 22.3342C1.21073 21.7911 0.459106 21.3519 -0.291967 21.6659C-0.657295 21.8342 -0.937084 22.151 -1.1043 22.5124C-1.45803 23.2988 -0.944258 24.1238 -0.359844 24.6348C-0.321766 24.6691 -0.283697 24.7016 -0.244515 24.7336C-0.259967 24.743 -0.274858 24.7518 -0.29031 24.7612C-1.59103 25.5542 -2.19421 26.8892 -1.40947 28.2942C-0.549683 29.8786 1.41602 29.4443 2.77303 28.7373C2.78131 28.7859 2.78959 28.8339 2.79952 28.8836C2.9568 29.7185 3.48823 30.5513 4.33367 30.8206C4.997 31.0319 5.69233 30.9817 6.33524 30.729C7.13819 30.4039 7.62051 29.6253 7.76896 28.798C8.00184 29.1109 8.26674 29.3957 8.57302 29.6473C9.2827 30.2262 10.1386 30.4376 10.9725 29.9768C11.8819 29.4818 11.8334 28.4923 11.4278 27.6761C11.92 27.5823 12.393 27.4145 12.7925 27.0934C13.1523 26.8069 13.3559 26.3489 13.3008 25.8887V25.8898ZM11.9338 27.2297C11.6927 27.3147 11.4261 27.3776 11.1745 27.4079C11.0663 27.4184 10.9995 27.547 11.0586 27.6408C11.4173 28.2649 11.622 29.2053 10.8908 29.6363C10.5994 29.8129 10.2518 29.9128 9.91071 29.8786C9.49627 29.8421 9.11991 29.6286 8.80149 29.3681C8.49908 29.1165 8.23252 28.8102 8.00571 28.4857C7.93066 28.3775 7.85506 28.2616 7.79436 28.154C7.76125 28.0961 7.69888 28.0569 7.62714 28.0569C7.52119 28.0569 7.43565 28.143 7.43565 28.2489C7.42351 29.1021 7.00465 30.0193 6.17245 30.3405C5.6515 30.5402 5.00859 30.5805 4.47771 30.4017C3.78237 30.1733 3.38393 29.4823 3.24873 28.792C3.2261 28.6849 3.20955 28.5762 3.19851 28.4675C3.18858 28.3891 3.20072 28.3218 3.15823 28.2539C3.09256 28.1452 2.95073 28.1104 2.84202 28.1761C2.23553 28.5276 1.56392 28.8074 0.867479 28.9112C0.0694978 29.0243 -0.650127 28.8273 -1.05684 28.0966C-1.70527 26.9758 -1.32946 25.9317 -0.339433 25.1806C-0.203677 25.0763 -0.0486082 24.9731 0.0992888 24.8937C0.123019 24.8815 0.144546 24.8639 0.159998 24.8401C0.206354 24.77 0.186485 24.6751 0.1164 24.6293C0.0231361 24.5681 -0.0767436 24.4914 -0.167248 24.4147C-0.687647 23.982 -1.18819 23.2905 -0.907846 22.5946C-0.772641 22.274 -0.537544 21.9744 -0.224643 21.8127C0.457449 21.4948 1.18866 22.0042 1.66712 22.4754L1.68312 22.492L1.69084 22.5003L1.69581 22.5052C1.70133 22.5113 1.71071 22.5157 1.71788 22.5163C1.72561 22.5146 1.7361 22.5047 1.73886 22.4986L1.74271 22.492L1.75045 22.4787L1.76645 22.4528C2.27361 21.6653 3.0164 20.9402 3.95566 20.7338C4.73267 20.5704 5.61398 20.8188 6.13493 21.4308C6.65422 22.0444 6.80432 22.9037 6.74969 23.6873C6.74086 23.7745 6.86833 23.8071 6.90034 23.7226C6.99361 23.4942 7.11722 23.2696 7.2585 23.0632C7.40087 22.8568 7.56478 22.6653 7.75572 22.5091C8.34399 21.9986 9.16295 22.0378 9.75674 22.5146C10.1359 22.8303 10.2992 23.3231 10.3196 23.8065C10.3318 24.0482 10.313 24.3059 10.2639 24.5399C10.2418 24.6304 10.3401 24.716 10.4278 24.6757C10.6629 24.578 10.9289 24.509 11.1838 24.4759C12.0282 24.3595 12.6926 24.7071 12.9448 25.5443C13.245 26.4113 12.7224 26.9559 11.9338 27.2275V27.2297Z" fill="#1E1E22"/>
<path d="M51.1334 21.2667C51.1334 21.2667 50.8012 19.6668 52.1516 19.3137C53.502 18.9605 53.6267 20.664 53.6267 20.664C53.6267 20.664 53.7724 19.051 55.0604 19.2656C56.3485 19.4803 56.1614 21.2667 56.1614 21.2667C56.1614 21.2667 57.0339 20.3732 57.7816 20.9968C58.5294 21.6199 57.0753 22.7628 57.0753 22.7628C57.0753 22.7628 58.1138 23.1783 57.5322 23.9884C56.9505 24.7985 55.7249 23.6562 55.7249 23.6562C55.7249 23.6562 56.3898 24.7781 55.3303 25.2146C54.2707 25.6512 53.6891 24.1341 53.6891 24.1341C53.6891 24.1341 53.6681 25.2268 52.5258 25.2936C51.3829 25.3603 51.5909 23.532 51.5909 23.532C51.5909 23.532 49.4928 24.9658 49.1396 23.6981C48.7864 22.4305 50.2615 22.271 50.2615 22.271C50.2615 22.271 49.0358 21.4957 49.5137 20.8313C49.9916 20.1663 51.134 21.2678 51.134 21.2678L51.1334 21.2667Z" fill="white"/>
<path d="M55.563 24.1734C54.5035 24.61 53.9218 23.0929 53.9218 23.0929C53.9218 23.0929 53.9008 24.1856 52.7585 24.2524C51.6156 24.3191 51.8237 22.4908 51.8237 22.4908C51.8237 22.4908 49.7261 23.924 49.3723 22.6575C49.1455 22.8711 49.0004 23.1978 49.1394 23.6978C49.4926 24.9648 51.5908 23.5316 51.5908 23.5316C51.5908 23.5316 51.3833 25.3599 52.5256 25.2932C53.6685 25.2264 53.6889 24.1337 53.6889 24.1337C53.6889 24.1337 54.2706 25.6502 55.3301 25.2143C56.0166 24.9317 55.9791 24.3611 55.8676 23.9941C55.7871 24.0614 55.6872 24.1221 55.5625 24.1734H55.563Z" fill="#DCDCDC"/>
<path d="M51.129 21.2376L51.1848 21.3474C51.1848 21.3474 51.2201 20.9192 51.3327 20.5097C51.4259 20.1731 51.6456 19.6444 52.0506 19.3436C50.9177 19.7161 51.0932 21.029 51.1285 21.237L51.129 21.2376Z" fill="#DCDCDC"/>
<path d="M50.445 22.1752C50.3357 22.0869 49.801 21.3806 49.7077 20.9909C49.6641 20.8094 49.7469 20.6941 49.8479 20.6234C49.7204 20.6411 49.6045 20.7034 49.5129 20.8309C49.035 21.4959 50.2607 22.2707 50.2607 22.2707C50.2607 22.2707 50.237 22.2735 50.1967 22.2801C50.429 22.3154 50.5162 22.2326 50.445 22.1752Z" fill="#DCDCDC"/>
<path d="M57.0765 22.7624C57.0765 22.7624 58.5306 21.6195 57.7828 20.9964C57.6046 20.848 57.4197 20.7862 57.2409 20.7773C57.2619 20.7972 57.284 20.8182 57.3088 20.8402C57.9909 21.4429 57.3541 22.0659 56.8342 22.2707C56.3144 22.4748 55.7333 22.3987 55.7333 22.3987C55.7437 24.227 53.9155 22.9908 53.9155 22.9908C54.0297 23.5416 53.666 24.0294 53.666 24.0294L53.687 24.1701C53.6886 24.1475 53.6892 24.1337 53.6892 24.1337C53.6892 24.1337 54.2708 25.6502 55.3304 25.2142C56.39 24.7777 55.725 23.6558 55.725 23.6558C55.725 23.6558 56.9507 24.7987 57.5323 23.988C58.114 23.1779 57.0754 22.7624 57.0754 22.7624H57.0765Z" fill="#DCDCDC"/>
<path d="M57.2768 22.7351C57.6686 22.382 58.1476 21.8621 58.0914 21.3401C58.0141 20.861 57.4424 20.6061 57.0026 20.6977C56.7222 20.7534 56.4772 20.8875 56.2598 21.063C56.2664 20.3059 56.0059 19.4201 55.1996 19.2204C54.3227 18.9991 53.8056 19.5984 53.628 20.3495C53.6048 20.2535 53.5766 20.1596 53.5424 20.0664C53.3625 19.557 52.9602 19.1658 52.3874 19.2331C52.085 19.2701 51.7859 19.3815 51.5569 19.5857C51.1049 19.988 51.0232 20.6497 51.1104 21.2192C50.7898 20.9223 50.3958 20.5984 49.9438 20.5614C49.584 20.531 49.2876 20.8881 49.3301 21.2385C49.3715 21.5779 49.6011 21.8373 49.8323 22.0619C49.8875 22.1138 49.9443 22.1629 50.0023 22.2098C49.9774 22.2159 49.9521 22.2225 49.9272 22.2296C49.3428 22.3875 48.8864 22.8218 48.9587 23.4675C48.9764 23.6407 49.0167 23.8107 49.1005 23.9674C49.3842 24.49 50.0724 24.4073 50.5403 24.2395C50.8477 24.1319 51.1347 23.9967 51.4128 23.8355C51.4067 24.4934 51.5552 25.2836 52.2605 25.4447C52.8394 25.5468 53.485 25.2511 53.7185 24.6964C53.7312 24.6683 53.7427 24.6396 53.7538 24.6109C54.1892 25.314 54.9055 25.7648 55.714 25.1572C56.0638 24.8901 56.1234 24.4553 56.0285 24.053C56.4231 24.3107 56.9728 24.5634 57.417 24.2726C57.5627 24.1716 57.6642 24.0314 57.7415 23.8758C57.9865 23.3946 57.6918 22.9658 57.2785 22.7346L57.2768 22.7351ZM57.5235 23.7715C57.162 24.5474 56.2542 23.9531 55.8166 23.558C55.7068 23.4586 55.5352 23.5916 55.6102 23.7241C55.7515 23.989 55.8403 24.3239 55.7636 24.5943C55.6781 24.9117 55.3393 25.1009 55.0291 25.1407C54.7725 25.1661 54.5308 25.0402 54.3509 24.862C54.1842 24.7014 54.0479 24.4967 53.9403 24.2881C53.8647 24.1738 53.8608 23.9829 53.6991 23.9707C53.6086 23.9658 53.5314 24.0353 53.5264 24.1253C53.5248 24.1562 53.5198 24.2014 53.5143 24.2351C53.4729 24.4873 53.3531 24.7422 53.1528 24.9012C52.9304 25.0772 52.6103 25.1528 52.3289 25.1076C52.0375 25.0529 51.8929 24.7809 51.8206 24.5055C51.7605 24.2781 51.7417 24.0281 51.7445 23.7892C51.7456 23.7086 51.7494 23.6236 51.7566 23.5491C51.7599 23.5122 51.7517 23.4735 51.7296 23.4404C51.6788 23.3632 51.5751 23.3422 51.4978 23.3935C51.0067 23.7064 50.2092 24.1788 49.6204 24.0408C49.4063 23.9834 49.2948 23.7798 49.2523 23.5762C49.137 23.138 49.3202 22.7583 49.7241 22.5558C49.8908 22.4675 50.0884 22.4051 50.2732 22.3759C50.3041 22.372 50.3328 22.3555 50.3505 22.3273C50.3825 22.2777 50.3687 22.2109 50.3185 22.1789C50.0746 22.021 49.8345 21.8262 49.6601 21.5961C49.5751 21.4802 49.5051 21.3522 49.4868 21.2192C49.4554 21.0255 49.563 20.8053 49.7423 20.7159C49.9416 20.626 50.1662 20.6916 50.3643 20.7766C50.6308 20.8975 50.8775 21.0697 51.101 21.2589L51.1121 21.2683L51.1176 21.2733C51.1176 21.2733 51.1165 21.2733 51.1231 21.2777C51.1286 21.2816 51.138 21.2821 51.1419 21.2805C51.149 21.276 51.1512 21.2617 51.1485 21.254L51.1468 21.2451L51.1441 21.2269C51.0105 20.2921 51.3626 19.4157 52.3935 19.3081C53.1677 19.2276 53.5154 20.0151 53.5733 20.6679C53.5783 20.7308 53.6738 20.7336 53.6804 20.669C53.7041 20.4786 53.7543 20.2849 53.825 20.105C53.9602 19.754 54.2195 19.4179 54.6014 19.3401C54.9657 19.2662 55.3779 19.3699 55.6417 19.6376C55.9115 19.9135 56.0225 20.3015 56.065 20.6784C56.0854 20.8704 56.0892 21.0696 56.0727 21.2578C56.0705 21.2827 56.0787 21.3086 56.0975 21.3279C56.1323 21.3638 56.1897 21.3649 56.225 21.3296C56.4457 21.1215 56.7338 20.9394 57.0346 20.8859C57.3243 20.8274 57.646 20.9521 57.8176 21.1833C58.1261 21.6739 57.3602 22.3803 57.0059 22.675C56.9407 22.7258 56.9551 22.8367 57.0335 22.8676C57.4043 23.0304 57.7382 23.3753 57.5224 23.7726L57.5235 23.7715Z" fill="#1E1E22"/>
<path d="M-0.463229 39.9013C-0.463229 39.9013 4.39806 33.2675 7.67056 33.5616C10.9431 33.8558 12.3254 40.6772 12.3254 40.6772C12.3254 40.6772 21.6882 19.2642 29.7315 19.1742C37.7748 19.0843 38.6848 40.6507 38.6848 40.6507C38.6848 40.6507 47.2231 25.4416 51.0998 26.4697C54.9766 27.4984 57.0334 32.0744 58.9969 39.4626C60.9604 46.8508 61.334 68.5404 61.334 68.5404C61.334 68.5404 -0.650305 68.9145 -2.23965 67.3252C-3.82899 65.7359 -0.463229 39.9008 -0.463229 39.9008V39.9013Z" fill="white"/>
<path d="M48.4627 45.2338C48.4627 45.2338 48.5686 49.5697 50.5812 49.7568C52.5933 49.9438 53.2467 45.2338 53.2467 45.2338C53.2467 45.2338 52.8085 49.8296 56.2383 49.7623C59.6675 49.6944 59.1736 45.0577 59.1736 45.0577C59.1736 45.0577 59.5704 45.7354 60.1289 46.5224C59.8281 43.6952 59.4562 41.1892 58.9981 39.4636C58.1179 36.1513 57.2189 33.4048 56.1456 31.2895C55.0491 29.7261 53.7654 28.7074 52.1761 28.2858C48.2993 27.2571 39.761 42.4668 39.761 42.4668C39.761 42.4668 38.5105 46.2856 40.2411 46.5577C41.9718 46.8297 44.3955 44.5246 44.3955 44.5246C44.3955 44.5246 43.5346 47.6614 44.9165 48.8655C46.2989 50.0697 48.4632 45.2349 48.4632 45.2349L48.4627 45.2338Z" fill="#DCDCDC"/>
<path d="M-0.566038 40.7047C-0.673098 41.5546 -0.855768 43.0242 -1.06934 44.8525C-0.449051 44.8608 0.564152 44.8872 0.73633 44.826C2.23241 44.2946 3.58777 43.4138 3.58777 43.4138C3.58777 43.4138 3.40068 46.364 4.70968 46.9186C6.01868 47.4732 8.81715 43.5214 8.81715 43.5214C8.81715 43.5214 9.15873 46.0494 10.8607 46.8551C12.5626 47.6603 14.0587 46.4683 14.7595 44.2598C14.9251 43.7377 14.4356 42.9353 13.9957 42.3537C13.6773 41.9326 13.3843 41.6269 13.3843 41.6269L12.3247 40.6777C12.3247 40.6777 11.5714 36.9621 9.86125 34.897C9.51248 34.6851 9.13556 34.5477 8.72995 34.5113C5.92598 34.2591 0.834017 39.2666 -0.566038 40.7047Z" fill="#DCDCDC"/>
<path d="M2.52801 42.4641C2.52801 42.4641 2.34093 45.4144 3.64993 45.969C4.95893 46.5236 7.75738 42.5718 7.75738 42.5718C7.75738 42.5718 8.09898 45.0998 9.8009 45.9055C11.5028 46.7107 12.9989 45.5187 13.6998 43.3101C13.8653 42.7881 13.3758 41.9857 12.936 41.404C12.6176 40.983 12.3245 40.6772 12.3245 40.6772C12.3245 40.6772 10.9421 33.8558 7.66965 33.5616C4.3977 33.2675 -0.464144 39.9013 -0.464144 39.9013C-0.464144 39.9013 -0.678815 41.5508 -0.974609 44.0419C-0.778701 44.0137 -0.56182 43.9613 -0.323971 43.8769C1.17211 43.3454 2.52746 42.4647 2.52746 42.4647L2.52801 42.4641Z" fill="white"/>
<path d="M-0.973633 44.0419C-0.777724 44.0137 -0.560843 43.9613 -0.322994 43.8769C1.17308 43.3454 2.52843 42.4647 2.52843 42.4647C3.46327 40.7423 2.80878 40.3075 0.0511647 41.4046C-0.210966 41.5089 -0.454334 41.579 -0.680042 41.6203C-0.761717 42.2782 -0.861606 43.0999 -0.973633 44.0424V44.0419Z" fill="#DCDCDC"/>
<path d="M12.3238 40.6778C12.3238 40.6778 10.9414 33.8563 7.66893 33.5622C7.09611 33.5108 6.47527 33.672 5.83953 33.9722C6.75671 34.5069 8.11979 35.7205 9.15342 38.4406C9.37306 39.0189 9.8907 41.0552 10.0502 41.5199C8.95144 40.2164 7.38251 40.6099 5.52111 42.6369C4.07801 44.2085 3.20774 44.5921 2.72266 44.6318C2.88214 45.2262 3.16193 45.7637 3.64867 45.9701C4.95767 46.5247 7.75612 42.5728 7.75612 42.5728C7.75612 42.5728 8.09772 45.1009 9.79964 45.9066C10.7599 46.3608 11.6544 46.1792 12.3773 45.5385C12.3426 44.1622 12.3227 40.6783 12.3227 40.6783L12.3238 40.6778Z" fill="#DCDCDC"/>
<path d="M6.66238 38.3714C6.4455 38.7075 6.28546 39.1027 6.11549 39.4658C5.97807 39.7583 5.78934 40.0767 5.74409 40.4001C5.72091 40.5651 5.91462 40.7328 6.05424 40.5805C6.28105 40.3327 6.41902 39.995 6.58181 39.7036C6.78434 39.3411 7.01391 38.9702 7.15905 38.5811C7.27053 38.2815 6.82242 38.1242 6.66238 38.372V38.3714Z" fill="#DCDCDC"/>
<path d="M11.1418 43.273C11.0778 43.0649 11.0138 42.8547 10.9001 42.667C10.7726 42.4568 10.4652 42.507 10.3918 42.7333C10.3223 42.9479 10.4062 43.2051 10.4509 43.4176C10.5016 43.6598 10.5518 43.9142 10.6611 44.1372C10.8101 44.4412 11.3222 44.2978 11.3024 43.9633C11.2886 43.7283 11.2113 43.497 11.1418 43.273Z" fill="#DCDCDC"/>
<path d="M9.68563 36.4201C9.61168 36.3516 9.45825 36.3693 9.43894 36.4852C9.40031 36.7208 9.49192 36.9697 9.5438 37.2004C9.59843 37.4415 9.62436 37.7517 9.81641 37.9211C9.9483 38.037 10.201 38.0094 10.2402 37.8091C10.2904 37.5497 10.1514 37.3207 10.0454 37.0867C9.94721 36.8687 9.86112 36.584 9.68452 36.4201H9.68563Z" fill="#DCDCDC"/>
<path d="M8.95313 40.2157C8.94099 40.0712 8.74729 40.0391 8.69928 40.1815C8.58228 40.5264 8.49289 40.9922 8.5696 41.3531C8.62699 41.623 9.00004 41.5352 9.02156 41.2919C9.03701 41.1158 8.99617 40.9298 8.98513 40.7527C8.97409 40.5728 8.96803 40.3951 8.95313 40.2152V40.2157Z" fill="#DCDCDC"/>
<path d="M4.44382 37.3418C4.64304 37.201 4.82404 37.0333 5.00615 36.8716C5.17833 36.7182 5.45205 36.5747 5.50448 36.3374C5.53759 36.1873 5.43384 36.0151 5.26497 36.0228C4.99898 36.035 4.81797 36.2767 4.64358 36.4577C4.46588 36.642 4.2926 36.8412 4.17008 37.0675C4.08124 37.2314 4.27107 37.4637 4.44436 37.3418H4.44382Z" fill="#DCDCDC"/>
<path d="M7.45213 34.9699C7.26836 35.099 7.16847 35.2761 7.05478 35.466C6.95324 35.6354 6.71871 35.8793 6.7441 36.0874C6.76562 36.2651 6.89144 36.3677 7.07134 36.3368C7.32685 36.2932 7.39694 35.9626 7.45985 35.7557C7.52386 35.5449 7.5807 35.3302 7.64968 35.1216C7.685 35.0146 7.54815 34.9025 7.45213 34.9699Z" fill="#DCDCDC"/>
<path d="M5.26014 42.4861C5.01456 42.645 4.85784 42.9215 4.72098 43.1731C4.57915 43.4331 4.35897 43.7548 4.37056 44.0567C4.38159 44.3514 4.69836 44.4452 4.90917 44.2796C5.12715 44.1085 5.22758 43.7405 5.32912 43.4855C5.43397 43.2234 5.55593 42.9221 5.52117 42.6356C5.50627 42.5148 5.3821 42.4072 5.26014 42.4861Z" fill="#DCDCDC"/>
<path d="M4.66101 39.8582C4.79566 39.6347 4.56994 39.3069 4.30726 39.3985C3.99822 39.5061 3.76535 39.8162 3.56944 40.0673C3.3934 40.293 3.14451 40.5998 3.20852 40.9006C3.2306 41.0049 3.35587 41.0706 3.4552 41.0408C3.70795 40.9646 3.86633 40.6683 4.03851 40.4801C4.23111 40.2698 4.51532 40.0999 4.66045 39.8582H4.66101Z" fill="#DCDCDC"/>
<path d="M6.38699 38.0404C6.17011 38.3765 6.01007 38.7716 5.8401 39.1347C5.70268 39.4272 5.51395 39.7456 5.4687 40.069C5.44552 40.234 5.63923 40.4018 5.77885 40.2495C6.00566 40.0017 6.14363 39.664 6.30642 39.3726C6.50895 39.01 6.73852 38.6392 6.88366 38.2501C6.99514 37.9504 6.54703 37.7932 6.38699 38.0409V38.0404Z" fill="#1E1E22"/>
<path d="M10.8664 42.9419C10.8024 42.7339 10.7384 42.5236 10.6247 42.336C10.4972 42.1257 10.1898 42.1759 10.1164 42.4022C10.0469 42.6169 10.1308 42.874 10.1755 43.0865C10.2262 43.3288 10.2765 43.5832 10.3857 43.8061C10.5347 44.1102 11.0468 43.9667 11.027 43.6323C11.0132 43.3972 10.9359 43.166 10.8664 42.9419Z" fill="#1E1E22"/>
<path d="M9.41024 36.0889C9.33629 36.0205 9.18286 36.0381 9.16354 36.154C9.12492 36.3896 9.21653 36.6385 9.26841 36.8692C9.32304 37.1104 9.34897 37.4205 9.54102 37.5899C9.67291 37.7058 9.92566 37.6782 9.96484 37.4779C10.0151 37.2185 9.876 36.9895 9.77005 36.7555C9.67182 36.5375 9.58572 36.2528 9.40913 36.0889H9.41024Z" fill="#1E1E22"/>
<path d="M8.67579 39.8844C8.66365 39.7399 8.46994 39.7078 8.42193 39.8502C8.30494 40.1951 8.21555 40.6609 8.29225 41.0218C8.34965 41.2917 8.7227 41.2039 8.74422 40.9606C8.75967 40.7845 8.71883 40.5985 8.70779 40.4214C8.69675 40.2415 8.69069 40.0638 8.67579 39.8839V39.8844Z" fill="#1E1E22"/>
<path d="M4.1694 37.0106C4.36862 36.8699 4.54963 36.7021 4.73174 36.5404C4.90392 36.387 5.17764 36.2435 5.23006 36.0062C5.26318 35.8561 5.15942 35.6839 4.99055 35.6917C4.72456 35.7038 4.54355 35.9455 4.36917 36.1265C4.19147 36.3108 4.01818 36.5101 3.89567 36.7363C3.80682 36.9002 3.99666 37.1325 4.16994 37.0106H4.1694Z" fill="#1E1E22"/>
<path d="M7.17674 34.6386C6.99297 34.7677 6.89307 34.9448 6.77939 35.1347C6.67785 35.3041 6.44332 35.548 6.4687 35.7561C6.49023 35.9338 6.61605 36.0364 6.79595 36.0055C7.05146 35.9619 7.12155 35.6313 7.18446 35.4244C7.24847 35.2136 7.30531 34.9989 7.37429 34.7903C7.40961 34.6833 7.27276 34.5712 7.17674 34.6386Z" fill="#1E1E22"/>
<path d="M4.98573 42.1549C4.74015 42.3138 4.58342 42.5903 4.44656 42.842C4.30474 43.1019 4.08455 43.4236 4.09614 43.7255C4.10718 44.0202 4.42394 44.114 4.63475 43.9484C4.85274 43.7774 4.95317 43.4093 5.05471 43.1543C5.15956 42.8922 5.28152 42.5909 5.24675 42.3045C5.23185 42.1836 5.10768 42.076 4.98573 42.1549Z" fill="#1E1E22"/>
<path d="M4.38562 39.5269C4.52027 39.3034 4.29455 38.9756 4.03187 39.0672C3.72283 39.1748 3.48995 39.4849 3.29405 39.736C3.11801 39.9617 2.86912 40.2685 2.93313 40.5693C2.95521 40.6736 3.08048 40.7393 3.17981 40.7095C3.43256 40.6333 3.59094 40.337 3.76312 40.1488C3.95572 39.9385 4.23993 39.7686 4.38506 39.5269H4.38562Z" fill="#1E1E22"/>
<path d="M12.4836 44.9617C12.4483 45.0732 12.4041 45.183 12.3429 45.2619C11.4119 46.2144 10.0577 46.1029 9.14269 45.146C8.56931 44.5373 8.2233 43.7112 8.02629 42.8989C7.99814 42.7813 7.97275 42.6572 7.95454 42.5457C7.94737 42.4927 7.91923 42.443 7.87232 42.4099C7.78347 42.3476 7.66041 42.3691 7.59805 42.4579C7.1527 43.0893 6.66541 43.7057 6.14832 44.2813C5.63565 44.8386 5.08435 45.4197 4.41054 45.7646C4.05514 45.9379 3.74942 45.9677 3.43818 45.7084C2.69703 45.0804 2.58501 43.6803 2.55189 42.7587C2.55189 42.6903 2.54803 42.5694 2.55079 42.5021C2.54913 42.4839 2.55742 42.4596 2.54086 42.4452C2.51437 42.4425 2.48898 42.4651 2.46691 42.4778C2.2114 42.6356 1.94817 42.7852 1.68383 42.9276C1.11873 43.2316 0.536514 43.5054 -0.0627998 43.7349C-0.340934 43.8392 -0.621273 43.9369 -0.914307 43.9827C-0.845877 43.4573 -0.382865 39.9117 -0.382865 39.9117C0.998979 38.1816 2.77484 36.1282 4.72951 34.7745C6.67204 33.4528 8.30276 33.1068 9.86948 35.1613C10.8325 36.4549 11.4014 38.0017 11.8451 39.543C11.9533 39.9315 12.0537 40.3272 12.1343 40.7168C12.1415 40.7533 12.1591 40.788 12.1873 40.8162C12.2833 40.9111 12.3821 41.0027 12.4836 41.0904V40.4933C12.3076 39.7345 12.0852 38.9978 11.8236 38.2649C11.3998 37.1038 10.8832 35.9532 10.1222 34.966C9.48594 34.1393 8.55607 33.397 7.45898 33.4108C5.1285 33.4599 2.47683 36.275 1.01111 37.9399C0.475256 38.5602 -0.0401694 39.1948 -0.527457 39.8559C-0.535183 39.8664 -0.54015 39.8786 -0.541253 39.8918L-1.02192 44.0368C-1.02688 44.0688 -0.997081 44.0975 -0.965074 44.092C-0.80338 44.0671 -0.6439 44.0291 -0.488277 43.9811C0.543139 43.6295 1.51496 43.1207 2.44042 42.549L2.49174 42.5164C2.49174 42.5164 2.49836 42.512 2.50498 42.5082C2.50388 42.5192 2.50332 42.5297 2.50277 42.5379C2.44538 43.5423 2.49616 45.1664 3.29855 45.8789C3.86034 46.3904 4.52256 46.0638 5.05455 45.7034C5.87184 45.1278 6.54566 44.3817 7.18526 43.6224C7.3442 43.4309 7.49926 43.2383 7.65158 43.0418C7.90874 44.1786 8.4446 45.3337 9.44952 45.9688C10.4395 46.5803 11.6078 46.5223 12.4847 45.7503V44.9628L12.4836 44.9617Z" fill="#1E1E22"/>
<path d="M12.4851 50.6503C13.9851 51.9593 17.0699 48.2812 17.0699 48.2812C17.0699 48.2812 17.0076 51.4919 19.3138 52.0763C21.62 52.6607 24.0078 47.5963 24.0078 47.5963C24.0078 47.5963 24.2142 52.2352 27.4669 52.8527C30.7195 53.4703 31.874 48.359 31.874 48.359C31.874 48.359 33.1085 51.7082 35.5107 51.7998C39.2749 51.9433 39.0155 43.3746 39.0155 43.3746C39.0155 43.3746 38.1055 21.8082 30.0622 21.8981C22.019 21.9881 12.6562 43.4011 12.6562 43.4011C12.6562 43.4011 10.9857 49.3413 12.4851 50.6497V50.6503Z" fill="#DCDCDC"/>
<path d="M12.1541 47.9263C13.654 49.2353 16.7389 45.5572 16.7389 45.5572C16.7389 45.5572 16.6765 48.7678 18.9827 49.3523C21.2889 49.9367 23.6768 44.8723 23.6768 44.8723C23.6768 44.8723 23.8832 49.5112 27.1358 50.1287C30.3884 50.7463 31.5429 45.635 31.5429 45.635C31.5429 45.635 32.7774 48.9842 35.1796 49.0758C38.9438 49.2193 38.6845 40.6506 38.6845 40.6506C38.6845 40.6506 37.7745 19.0842 29.7312 19.1741C21.6879 19.2641 12.3251 40.6771 12.3251 40.6771C12.3251 40.6771 10.6547 46.6173 12.1541 47.9257V47.9263Z" fill="white"/>
<path d="M31.1736 19.4071C32.0709 21.1261 32.184 23.3799 32.4456 27.0006C32.8198 32.1737 31.9467 41.3979 31.2194 42.3874C30.4915 43.3769 28.9143 42.9487 28.2626 41.6054C27.6108 40.2622 27.0827 38.2778 25.1087 40.6513C23.1347 43.0254 21.2264 43.8283 20.0973 42.1071C18.9682 40.3859 17.3623 41.585 14.246 44.0518C12.8686 45.1417 12.1004 44.6936 11.6716 43.8537C11.4464 45.4911 11.4106 47.278 12.1545 47.9269C13.6544 49.2359 16.7393 45.5578 16.7393 45.5578C16.7393 45.5578 16.6769 48.7685 18.9831 49.3529C21.2893 49.9373 23.6772 44.873 23.6772 44.873C23.6772 44.873 23.8836 49.5119 27.1362 50.1294C30.3889 50.7469 31.5433 45.6356 31.5433 45.6356C31.5433 45.6356 32.7778 48.9848 35.1801 49.0764C38.9443 49.2199 38.6849 40.6513 38.6849 40.6513C38.6849 40.6513 37.8863 21.7271 31.1736 19.4071Z" fill="#DCDCDC"/>
<path d="M24.7803 24.1523C24.3807 24.7483 24.0226 25.3775 23.6722 26.0033C23.3515 26.5761 22.9183 27.2245 22.862 27.8934C22.8471 28.0689 23.0723 28.1257 23.1843 28.0269C23.6826 27.5893 23.9641 26.8691 24.2891 26.3029C24.639 25.6937 25.0181 25.1043 25.3835 24.505C25.6197 24.1176 25.0286 23.782 24.7803 24.1523Z" fill="#DCDCDC"/>
<path d="M28.0405 27.0485C28.0003 26.8901 27.7917 26.9127 27.7414 27.0485C27.588 27.4618 27.5825 27.9695 27.5273 28.4055C27.4672 28.8801 27.4214 29.3558 27.3651 29.8309C27.3088 30.3066 28.1316 30.332 28.1255 29.8309C28.12 29.3558 28.125 28.8806 28.115 28.4055C28.1062 27.9678 28.1493 27.4739 28.0405 27.0485Z" fill="#DCDCDC"/>
<path d="M32.879 25.2952C32.8034 24.9762 32.7372 24.6015 32.5352 24.335C32.4717 24.2511 32.31 24.2395 32.2846 24.3675C32.2206 24.6937 32.3017 25.0419 32.336 25.3686C32.3729 25.7218 32.3746 26.0805 32.4292 26.4309C32.4861 26.7957 33.097 26.7113 33.0743 26.3437C33.0528 25.9917 32.9601 25.6374 32.879 25.2952Z" fill="#DCDCDC"/>
<path d="M35.9108 30.3773C35.8832 30.1566 35.8556 29.9342 35.8153 29.7151C35.7369 29.2863 35.6249 28.868 35.4279 28.4784C35.3462 28.3172 35.1161 28.4061 35.1078 28.565C35.0857 28.996 35.1266 29.427 35.1597 29.8564C35.1906 30.252 35.1222 30.7642 35.3054 31.1201C35.4483 31.3977 35.8153 31.2851 35.9108 31.0412C35.9936 30.8293 35.9384 30.5981 35.9108 30.3779V30.3773Z" fill="#DCDCDC"/>
<path d="M16.0998 37.7204C15.8024 37.8986 15.6611 38.3092 15.506 38.6083C15.3355 38.9372 15.1755 39.2711 15.0243 39.6093C14.8753 39.9421 14.7285 40.2771 14.6209 40.6259C14.5298 40.9217 14.3957 41.277 14.4697 41.5872C14.4868 41.6589 14.5878 41.7086 14.6523 41.6611C14.9078 41.4724 15.0403 41.1385 15.1843 40.8632C15.3477 40.5514 15.4911 40.2302 15.6468 39.9145C15.8029 39.5983 15.9657 39.2849 16.1346 38.9753C16.2974 38.6756 16.5772 38.3467 16.5866 37.999C16.5932 37.754 16.3068 37.5956 16.0998 37.7198V37.7204Z" fill="#DCDCDC"/>
<path d="M30.4032 21.1028C30.3298 20.9676 30.1631 20.9373 30.0947 21.1028C29.9854 21.3672 29.9893 21.6629 29.9634 21.9565C29.9341 22.2943 29.8993 22.6303 29.8513 22.9642C29.7525 23.6469 30.5417 23.7892 30.5726 23.0917C30.5886 22.7352 30.5958 22.3798 30.5726 22.0239C30.5522 21.7121 30.5456 21.3661 30.4026 21.1034L30.4032 21.1028Z" fill="#DCDCDC"/>
<path d="M24.4502 23.8765C24.0507 24.4725 23.6925 25.1016 23.3421 25.7274C23.0215 26.3002 22.5882 26.9486 22.532 27.6175C22.5171 27.793 22.7422 27.8498 22.8542 27.751C23.3526 27.3134 23.634 26.5932 23.9591 26.027C24.3089 25.4178 24.6881 24.8284 25.0534 24.2291C25.2896 23.8417 24.6985 23.5062 24.4502 23.8765Z" fill="#1E1E22"/>
<path d="M27.7105 26.7726C27.6702 26.6142 27.4616 26.6368 27.4114 26.7726C27.2579 27.1859 27.2524 27.6936 27.1972 28.1296C27.1371 28.6042 27.0913 29.0799 27.035 29.555C26.9787 30.0307 27.8015 30.0561 27.7954 29.555C27.7899 29.0799 27.7949 28.6047 27.785 28.1296C27.7761 27.692 27.8192 27.1981 27.7105 26.7726Z" fill="#1E1E22"/>
<path d="M32.5489 25.0193C32.4733 24.7004 32.4071 24.3257 32.2051 24.0591C32.1416 23.9752 31.9799 23.9636 31.9546 24.0917C31.8905 24.4178 31.9717 24.766 32.0059 25.0927C32.0429 25.4459 32.0445 25.8046 32.0991 26.1551C32.156 26.5198 32.7669 26.4354 32.7443 26.0679C32.7227 25.7158 32.63 25.3615 32.5489 25.0193Z" fill="#1E1E22"/>
<path d="M35.5807 30.1014C35.5531 29.8807 35.5255 29.6583 35.4852 29.4392C35.4069 29.0104 35.2948 28.5921 35.0978 28.2025C35.0161 28.0414 34.786 28.1302 34.7777 28.2891C34.7557 28.7201 34.7965 29.1511 34.8296 29.5805C34.8605 29.9762 34.7921 30.4883 34.9753 30.8442C35.1182 31.1218 35.4852 31.0092 35.5807 30.7653C35.6635 30.5534 35.6083 30.3222 35.5807 30.102V30.1014Z" fill="#1E1E22"/>
<path d="M15.7698 37.4444C15.4723 37.6226 15.331 38.0332 15.176 38.3323C15.0054 38.6612 14.8454 38.9951 14.6942 39.3333C14.5452 39.6661 14.3984 40.0011 14.2908 40.3499C14.1997 40.6457 14.0656 41.001 14.1396 41.3112C14.1567 41.3829 14.2577 41.4326 14.3222 41.3851C14.5778 41.1964 14.7102 40.8625 14.8542 40.5872C15.0176 40.2754 15.1611 39.9542 15.3167 39.6385C15.4729 39.3223 15.6357 39.0089 15.8045 38.6993C15.9673 38.3996 16.2471 38.0707 16.2565 37.723C16.2631 37.478 15.9767 37.3196 15.7698 37.4438V37.4444Z" fill="#1E1E22"/>
<path d="M30.0741 20.8269C30.0007 20.6917 29.834 20.6614 29.7656 20.8269C29.6563 21.0913 29.6602 21.3871 29.6342 21.6807C29.605 22.0184 29.5702 22.3545 29.5222 22.6883C29.4234 23.371 30.2126 23.5134 30.2435 22.8158C30.2595 22.4593 30.2667 22.1039 30.2435 21.748C30.2231 21.4362 30.2165 21.0902 30.0735 20.8275L30.0741 20.8269Z" fill="#1E1E22"/>
<path d="M15.4007 45.1843C14.9829 45.447 14.6082 45.8007 14.2126 46.0965C14.0376 46.2273 13.8627 46.3514 13.6695 46.4552C13.4747 46.56 13.265 46.5904 13.0664 46.6792C12.9665 46.7239 12.9764 46.8829 13.0664 46.9303C13.478 47.1489 14.0205 46.8707 14.3731 46.6467C14.5977 46.5038 14.8091 46.3377 15.0216 46.1782C15.2605 45.9994 15.5221 45.8272 15.7346 45.6164C15.9536 45.3995 15.67 45.0143 15.4007 45.1837V45.1843Z" fill="#1E1E22"/>
<path d="M16.8108 44.4824C16.7479 44.4012 16.6243 44.3461 16.5211 44.3836C16.4527 44.4084 16.3953 44.4333 16.3434 44.4851C16.3147 44.5138 16.2882 44.5458 16.2601 44.5751C16.2016 44.6352 16.1282 44.7026 16.0918 44.7776C16.02 44.9244 16.1056 45.1137 16.2838 45.112C16.3881 45.1109 16.493 45.064 16.5835 45.0138C16.6812 44.9597 16.7866 44.8935 16.8329 44.7887C16.8793 44.6838 16.8853 44.5784 16.8114 44.4829L16.8108 44.4824Z" fill="#1E1E22"/>
<path d="M38.8797 40.5977C38.5585 34.9781 37.4151 25.6165 33.9301 21.168C32.0395 18.7796 29.6069 18.2641 26.9116 19.6658C22.3743 22.1205 18.5174 28.4685 16.0467 32.9225C14.6715 35.4428 13.4028 38.0172 12.2544 40.6484C11.6898 41.9514 11.4481 43.1252 11.3162 44.3713C11.2235 45.3966 11.0784 47.6244 11.8979 48.3777C12.9911 49.2977 14.9921 47.769 15.8122 47.0091C16.135 46.7028 16.2746 46.5632 16.5671 46.2271C16.5749 46.6929 16.6968 47.1681 16.811 47.6189C17.0412 48.5554 17.5174 49.094 18.5356 49.5305C18.7591 49.6266 19.0902 49.6806 19.3352 49.6862C20.0913 49.7011 20.769 49.2033 21.2987 48.7099C22.0062 48.0356 22.5387 47.157 23.0492 46.3287C23.2506 45.9976 23.4532 45.6659 23.6325 45.321C23.845 47.4776 24.8345 49.8777 27.2019 50.2623C29.4485 50.6519 30.8199 48.3292 31.4402 46.5036C31.4876 46.3657 31.5323 46.2294 31.5737 46.0914C31.6653 46.2901 31.7636 46.4843 31.8712 46.678C32.4098 47.6305 33.1366 48.5593 34.1652 49.0079C34.8639 49.3131 35.7065 49.3429 36.3859 48.9654C38.6264 47.7061 38.9029 42.9315 38.8797 40.5966V40.5977ZM34.2938 48.7072C33.0538 48.1719 32.1835 46.7945 31.6841 45.5831C31.6355 45.4479 31.4275 45.4568 31.3955 45.6019C31.0136 47.0891 30.2233 48.9886 28.82 49.7579C28.0981 50.1646 27.1947 50.1183 26.4497 49.791C24.6297 48.9991 23.9211 46.7012 23.76 44.8685C23.7578 44.784 23.6364 44.757 23.5994 44.8365C23.393 45.2691 23.1618 45.6951 22.9168 46.1096C22.6712 46.5246 22.408 46.9297 22.1226 47.3182C21.4317 48.2392 20.2563 49.6238 18.9699 49.3065C17.8668 49.0355 17.2167 48.0356 16.9534 46.987C16.8927 46.7536 16.8464 46.5169 16.8149 46.2774C16.7835 46.0384 16.763 45.7967 16.763 45.5572C16.763 45.55 16.7597 45.5428 16.7542 45.5373C16.7437 45.5279 16.7272 45.5296 16.7183 45.5401C16.4165 45.8927 16.0931 46.2288 15.7565 46.5494C14.9761 47.2779 13.224 48.8021 12.171 47.9048C11.383 47.1636 11.5524 45.3552 11.654 44.3459C11.8041 43.1141 12.1048 42.1241 12.5778 40.7892C13.7543 38.2457 14.937 35.5592 16.3613 33.1002C18.8728 28.8586 22.8207 22.5266 27.176 20.1752C29.5429 18.9512 31.5897 19.2768 33.3424 21.3059C36.0581 24.5437 37.2126 30.3514 37.8505 34.4931C38.1529 36.6083 38.4002 38.7396 38.4896 40.8764C38.5105 43.2847 38.1071 50.1591 34.2932 48.7066L34.2938 48.7072Z" fill="#1E1E22"/>
<path d="M8.25134 49.1707C8.05433 49.1144 7.77343 49.2396 7.73922 49.4615C7.50744 50.9542 7.32864 52.4553 7.19012 53.9591C7.12169 54.7013 7.07202 55.4452 7.03118 56.1891C7.01132 56.5517 6.98814 56.9154 6.97876 57.2785C6.96883 57.6609 6.94068 58.0754 7.04553 58.4473C7.12886 58.7431 7.51958 58.7128 7.61615 58.4473C7.73701 58.1145 7.73867 57.7376 7.76736 57.3878C7.79661 57.0252 7.81371 56.661 7.83964 56.2984C7.89207 55.5539 7.9583 54.8112 8.02563 54.0678C8.15862 52.6015 8.33688 51.1402 8.54272 49.6828C8.57418 49.4587 8.48753 49.238 8.25189 49.1707H8.25134Z" fill="#DCDCDC"/>
<path d="M11.1816 57.0041C11.085 57.3893 11.0817 57.8121 11.0525 58.2072C11.0227 58.6067 11.0006 59.0074 10.9851 59.4075C10.9697 59.807 10.9653 60.2104 10.984 60.6099C11 60.9549 10.9885 61.3715 11.2197 61.6469C11.2931 61.7341 11.4719 61.7385 11.5442 61.6469C11.7682 61.3632 11.7506 60.9576 11.7748 60.6099C11.8013 60.2281 11.8184 59.8445 11.8389 59.4621C11.8593 59.0797 11.8858 58.6978 11.9189 58.3159C11.9531 57.9224 12.0375 57.513 12.0292 57.1184C12.0193 56.641 11.303 56.5207 11.1816 57.0036V57.0041Z" fill="#DCDCDC"/>
<path d="M16.3008 57.0385C16.3455 56.7918 16.3775 56.5451 16.4057 56.2957C16.4653 55.7698 16.4995 55.2428 16.5464 54.7152C16.5933 54.1893 16.6369 53.6634 16.6893 53.138C16.7429 52.6005 16.8549 52.0492 16.8615 51.51C16.8676 50.9996 16.0801 50.8776 15.9603 51.3881C15.8284 51.951 15.8135 52.5624 15.7611 53.138C15.7114 53.6816 15.6679 54.2252 15.6414 54.7698C15.6143 55.3156 15.5945 55.8581 15.6099 56.405C15.6165 56.6401 15.5663 57.6494 16.0122 57.5446C16.2495 57.4888 16.2644 57.2405 16.3008 57.0385Z" fill="#DCDCDC"/>
<path d="M52.878 55.0347C52.867 54.6528 52.8581 54.2709 52.8449 53.8891C52.8322 53.5083 52.8228 53.1231 52.7908 52.7434C52.7605 52.3825 52.7345 51.9713 52.5706 51.6441C52.4956 51.494 52.2434 51.4907 52.1694 51.6441C52.0099 51.9741 51.9901 52.3814 51.9625 52.7434C51.9338 53.1231 51.9316 53.5083 51.9238 53.8891C51.9161 54.2709 51.9123 54.6528 51.9062 55.0347C51.9001 55.4359 51.856 55.8586 51.9365 56.2532C52.0292 56.7074 52.7743 56.7145 52.862 56.2532C52.937 55.8564 52.889 55.437 52.8775 55.0347H52.878Z" fill="#DCDCDC"/>
<path d="M50.4206 51.9476C50.4321 51.6441 50.4415 51.3406 50.4515 51.0376C50.4708 50.446 50.4995 49.8616 50.4504 49.2706C50.4206 48.9135 49.845 48.7695 49.7743 49.179C49.6711 49.7788 49.6419 50.377 49.6088 50.9841C49.5933 51.2694 49.5768 51.5552 49.5619 51.8405C49.5459 52.1579 49.4967 52.4928 49.563 52.8057C49.6502 53.2163 50.2368 53.17 50.3488 52.8057C50.4316 52.5353 50.4101 52.229 50.4206 51.9476Z" fill="#DCDCDC"/>
<path d="M12.5811 50.0421C12.4161 50.3848 12.3604 50.7782 12.3068 51.1518C12.2583 51.4934 12.085 51.9835 12.2836 52.2887C12.3896 52.4515 12.6181 52.4945 12.7627 52.3505C13.0248 52.0878 12.9613 51.5928 12.9839 51.2434C13.0082 50.8654 13.0375 50.4598 12.9459 50.0895C12.9067 49.9311 12.6572 49.8853 12.5816 50.0421H12.5811Z" fill="#DCDCDC"/>
<path d="M16.7196 60.5764C16.6606 60.4478 16.4398 60.4478 16.3808 60.5764C16.2765 60.8038 16.245 61.0692 16.2119 61.3164C16.1749 61.5929 16.1368 61.8926 16.1517 62.1713C16.1799 62.6834 16.9205 62.6845 16.9486 62.1713C16.9641 61.8926 16.926 61.5929 16.8885 61.3164C16.8554 61.0692 16.8239 60.8038 16.7196 60.5764Z" fill="#DCDCDC"/>
<path d="M50.9415 58.6404C50.8643 58.5588 50.7506 58.5604 50.6562 58.6035C50.4162 58.7133 50.3831 59.0444 50.3511 59.2773C50.3113 59.5637 50.2512 59.8749 50.473 60.099C50.6369 60.2645 50.8692 60.1994 50.9945 60.0316C51.1479 59.8264 51.0646 59.5333 51.0646 59.2922C51.0646 59.0648 51.111 58.8181 50.9421 58.6399L50.9415 58.6404Z" fill="#DCDCDC"/>
<path d="M7.75525 48.6536C7.55823 48.5973 7.27734 48.7225 7.24312 48.9444C7.01134 50.4372 6.83255 51.9382 6.69403 53.442C6.6256 54.1842 6.57593 54.9281 6.53509 55.672C6.51522 56.0346 6.49205 56.3983 6.48267 56.7614C6.47273 57.1438 6.44459 57.5583 6.54944 57.9302C6.63277 58.226 7.02349 58.1957 7.12006 57.9302C7.24092 57.5975 7.24257 57.2205 7.27127 56.8707C7.30052 56.5081 7.31761 56.1439 7.34355 55.7813C7.39598 55.0369 7.46221 54.2941 7.52953 53.5507C7.66253 52.0844 7.84077 50.6231 8.04661 49.1657C8.07807 48.9416 7.99144 48.7209 7.7558 48.6536H7.75525Z" fill="#1E1E22"/>
<path d="M10.6845 56.4871C10.588 56.8722 10.5846 57.295 10.5554 57.6901C10.5256 58.0896 10.5035 58.4903 10.4881 58.8904C10.4726 59.2899 10.4682 59.6933 10.487 60.0929C10.503 60.4378 10.4914 60.8544 10.7226 61.1298C10.796 61.217 10.9748 61.2214 11.0471 61.1298C11.2712 60.8462 11.2535 60.4405 11.2778 60.0929C11.3043 59.711 11.3214 59.3274 11.3418 58.945C11.3622 58.5626 11.3887 58.1807 11.4218 57.7988C11.456 57.4053 11.5405 56.9959 11.5322 56.6013C11.5222 56.1239 10.8059 56.0036 10.6845 56.4865V56.4871Z" fill="#1E1E22"/>
<path d="M15.8047 56.5214C15.8494 56.2747 15.8814 56.0281 15.9096 55.7786C15.9692 55.2527 16.0034 54.7257 16.0503 54.1981C16.0972 53.6722 16.1408 53.1463 16.1932 52.6209C16.2468 52.0834 16.3588 51.5321 16.3654 50.9929C16.3715 50.4825 15.584 50.3605 15.4642 50.871C15.3323 51.4339 15.3174 52.0453 15.265 52.6209C15.2154 53.1645 15.1718 53.7081 15.1453 54.2527C15.1182 54.7985 15.0984 55.341 15.1138 55.8879C15.1204 56.123 15.0702 57.1323 15.5161 57.0275C15.7534 56.9717 15.7683 56.7234 15.8047 56.5214Z" fill="#1E1E22"/>
<path d="M52.3829 54.5176C52.3718 54.1357 52.363 53.7538 52.3498 53.3719C52.3371 52.9912 52.3277 52.606 52.2957 52.2263C52.2653 51.8654 52.2394 51.4543 52.0755 51.127C52.0004 50.9769 51.7482 50.9736 51.6743 51.127C51.5148 51.457 51.4949 51.8643 51.4674 52.2263C51.4387 52.606 51.4365 52.9912 51.4287 53.3719C51.421 53.7538 51.4171 54.1357 51.4111 54.5176C51.405 54.9188 51.3608 55.3415 51.4414 55.7361C51.5341 56.1903 52.2791 56.1974 52.3669 55.7361C52.4419 55.3393 52.3939 54.9199 52.3823 54.5176H52.3829Z" fill="#1E1E22"/>
<path d="M49.9225 51.4305C49.9341 51.127 49.9435 50.8235 49.9534 50.5205C49.9727 49.9289 50.0014 49.3445 49.9523 48.7535C49.9225 48.3964 49.3469 48.2524 49.2763 48.6619C49.1731 49.2617 49.1438 49.8599 49.1107 50.467C49.0953 50.7523 49.0787 51.0382 49.0638 51.3235C49.0478 51.6408 48.9987 51.9758 49.0649 52.2887C49.1521 52.6992 49.7387 52.6529 49.8508 52.2887C49.9335 52.0182 49.912 51.712 49.9225 51.4305Z" fill="#1E1E22"/>
<path d="M12.086 49.525C11.921 49.8677 11.8652 50.2611 11.8117 50.6347C11.7631 50.9763 11.5898 51.4664 11.7885 51.7716C11.8945 51.9344 12.123 51.9774 12.2675 51.8334C12.5297 51.5707 12.4662 51.0757 12.4888 50.7264C12.5131 50.3483 12.5423 49.9427 12.4507 49.5724C12.4116 49.414 12.1621 49.3682 12.0865 49.525H12.086Z" fill="#1E1E22"/>
<path d="M16.2225 60.0588C16.1635 59.9303 15.9427 59.9303 15.8837 60.0588C15.7794 60.2862 15.7479 60.5517 15.7148 60.7989C15.6779 61.0754 15.6398 61.375 15.6547 61.6537C15.6828 62.1658 16.4234 62.1669 16.4516 61.6537C16.467 61.375 16.4289 61.0754 16.3914 60.7989C16.3583 60.5517 16.3268 60.2862 16.2225 60.0588Z" fill="#1E1E22"/>
<path d="M50.4445 58.1233C50.3672 58.0417 50.2535 58.0433 50.1592 58.0864C49.9191 58.1962 49.886 58.5273 49.854 58.7602C49.8142 59.0466 49.7541 59.3578 49.9759 59.5819C50.1398 59.7474 50.3722 59.6823 50.4974 59.5146C50.6509 59.3093 50.5675 59.0162 50.5675 58.7751C50.5675 58.5477 50.6139 58.301 50.445 58.1228L50.4445 58.1233Z" fill="#1E1E22"/>
<path d="M39.1644 44.7416C40.895 45.0136 43.3188 42.7085 43.3188 42.7085C43.3188 42.7085 42.4579 45.8453 43.8397 47.0494C45.2221 48.2536 47.3865 43.4188 47.3865 43.4188C47.3865 43.4188 47.4925 47.7547 49.5051 47.9418C51.5171 48.1288 52.1705 43.4188 52.1705 43.4188C52.1705 43.4188 51.7324 48.0146 55.1621 47.9473C58.5914 47.8794 58.0975 43.2427 58.0975 43.2427C58.0975 43.2427 59.0433 44.8591 60.0709 45.9976C59.7806 43.3857 59.4269 41.0817 58.997 39.4631C57.0335 32.0748 54.9767 27.4989 51.0999 26.4702C47.2232 25.4416 38.6849 40.6512 38.6849 40.6512C38.6849 40.6512 37.4344 44.4701 39.165 44.7421L39.1644 44.7416Z" fill="white"/>
<path d="M58.9956 39.4631C57.0321 32.0749 54.9753 27.4989 51.0985 26.4703C50.6454 26.35 50.1289 26.4515 49.5693 26.7247C51.6117 27.5762 53.0995 32.3933 53.541 33.8872C54.0261 35.5284 56.7517 44.5761 55.0377 45.8834C54.1089 46.592 53.4445 46.8994 53.03 47.0329C53.4792 47.5837 54.1525 47.9672 55.1607 47.9473C58.5899 47.8795 58.096 43.2428 58.096 43.2428C58.096 43.2428 59.0419 44.8592 60.0695 45.9976C59.7792 43.3857 59.4254 41.0817 58.9956 39.4631Z" fill="#DCDCDC"/>
<path d="M52.1709 43.4196C52.1709 43.4196 52.1593 43.5443 52.1543 43.7512C52.1664 43.5426 52.1709 43.4196 52.1709 43.4196Z" fill="#DCDCDC"/>
<path d="M51.8393 42.4642C51.4138 42.5961 50.9249 43.6193 49.6015 45.3725C49.0099 46.1561 48.4586 46.4884 48.0293 46.6158C48.3439 47.3194 48.8107 47.8774 49.505 47.9419C51.517 48.129 52.1704 43.4189 52.1704 43.4189C52.1704 43.4189 52.2648 42.3323 51.8393 42.4642Z" fill="#DCDCDC"/>
<path d="M47.398 42.7086C46.6773 42.617 45.5946 44.3896 44.2944 45.0932C43.7083 45.4105 43.3243 45.3967 43.0781 45.2858C43.1449 45.9657 43.353 46.6268 43.8386 47.0495C45.221 48.2537 47.3854 43.4189 47.3854 43.4189C47.3854 43.4189 47.3909 43.6368 47.4218 43.9762C47.6414 43.2732 47.6966 42.7456 47.3986 42.7081L47.398 42.7086Z" fill="#DCDCDC"/>
<path d="M43.2384 41.4581C42.814 41.3935 40.606 42.804 39.5459 43.1456C39.148 43.2737 38.722 42.7604 38.344 42.069C38.1586 43.1859 38.142 44.5816 39.1629 44.7416C40.8936 45.0137 43.3173 42.7086 43.3173 42.7086C43.3173 42.7086 43.6622 41.5221 43.2378 41.4581H43.2384Z" fill="#DCDCDC"/>
<path d="M49.8548 29.5396C49.6324 29.8371 49.5248 30.236 49.3846 30.5776C49.239 30.9325 49.0475 31.3127 48.9752 31.6896C48.9045 32.0577 49.4354 32.3474 49.6231 31.9628C49.798 31.603 49.883 31.1847 49.9834 30.7984C50.08 30.4253 50.2345 30.0297 50.234 29.6422C50.234 29.4243 49.9691 29.3873 49.8554 29.5396H49.8548Z" fill="#DCDCDC"/>
<path d="M52.4081 33.2651C52.1939 33.5543 52.1686 33.9947 52.1034 34.3396C52.0322 34.7148 51.9655 35.0901 51.9097 35.4681C51.7949 36.2451 51.7216 37.0282 51.6421 37.8096C51.5891 38.3251 52.4147 38.3322 52.4544 37.8096C52.5135 37.0249 52.5891 36.2418 52.6365 35.4565C52.6591 35.0741 52.6696 34.6916 52.6829 34.3087C52.6945 33.9698 52.7497 33.5841 52.6139 33.2656C52.5753 33.174 52.4544 33.2033 52.4086 33.2656L52.4081 33.2651Z" fill="#DCDCDC"/>
<path d="M55.1559 41.1875C55.1559 40.9016 55.1626 40.6152 55.157 40.3293C55.1515 40.0446 55.1443 39.7554 55.1239 39.4712C55.1085 39.2538 55.0919 39.0651 54.9115 38.9282C54.8767 38.9017 54.8138 38.905 54.7785 38.9282C54.5875 39.054 54.5676 39.2571 54.5412 39.4712C54.5064 39.7554 54.4805 40.0435 54.4589 40.3293C54.4374 40.6147 54.4269 40.9016 54.4104 41.1875C54.3944 41.4678 54.3309 41.7266 54.5522 41.9397C54.6775 42.0605 54.8568 42.0495 54.9837 41.9397C55.2111 41.7438 55.1559 41.4606 55.1565 41.1875H55.1559Z" fill="#DCDCDC"/>
<path d="M50.5719 41.6003C50.3639 42.1803 50.3518 42.821 50.1912 43.4164C50.0626 43.8944 50.8346 44.0947 50.9246 43.6184C51.0465 42.9739 51.137 42.2465 51.0162 41.5997C50.9709 41.3575 50.642 41.4055 50.5719 41.5997V41.6003Z" fill="#DCDCDC"/>
<path d="M49.5228 29.2086C49.3004 29.506 49.1928 29.905 49.0526 30.2466C48.9069 30.6014 48.7154 30.9817 48.6431 31.3586C48.5725 31.7267 49.1034 32.0164 49.291 31.6317C49.466 31.2719 49.5509 30.8536 49.6514 30.4673C49.748 30.0943 49.9025 29.6986 49.9019 29.3112C49.9019 29.0932 49.637 29.0562 49.5234 29.2086H49.5228Z" fill="#1E1E22"/>
<path d="M52.076 32.934C51.8619 33.2232 51.8365 33.6636 51.7714 34.0085C51.7002 34.3838 51.6334 34.759 51.5777 35.1371C51.4629 35.9141 51.3895 36.6971 51.3101 37.4786C51.2571 37.994 52.0827 38.0012 52.1224 37.4786C52.1814 36.6938 52.257 35.9108 52.3045 35.1255C52.3271 34.743 52.3376 34.3606 52.3509 33.9776C52.3624 33.6388 52.4176 33.253 52.2819 32.9346C52.2432 32.843 52.1224 32.8722 52.0766 32.9346L52.076 32.934Z" fill="#1E1E22"/>
<path d="M54.8239 40.8564C54.8239 40.5706 54.8305 40.2842 54.825 39.9983C54.8195 39.7135 54.8123 39.4244 54.7919 39.1402C54.7764 38.9227 54.7599 38.734 54.5794 38.5971C54.5447 38.5706 54.4817 38.574 54.4464 38.5971C54.2555 38.723 54.2356 38.926 54.2091 39.1402C54.1744 39.4244 54.1484 39.7124 54.1269 39.9983C54.1054 40.2836 54.0949 40.5706 54.0783 40.8564C54.0623 41.1368 53.9989 41.3956 54.2202 41.6086C54.3454 41.7295 54.5248 41.7184 54.6517 41.6086C54.8791 41.4127 54.8239 41.1296 54.8245 40.8564H54.8239Z" fill="#1E1E22"/>
<path d="M50.2399 41.2692C50.0319 41.8492 50.0197 42.4899 49.8591 43.0854C49.7306 43.5633 50.5026 43.7636 50.5925 43.2874C50.7145 42.6428 50.805 41.9155 50.6842 41.2687C50.6389 41.0264 50.31 41.0744 50.2399 41.2687V41.2692Z" fill="#1E1E22"/>
<path d="M60.2813 45.9739C60.0363 43.7957 59.7764 41.6115 59.2471 39.4786C58.3321 36.094 57.4128 32.6389 55.5216 29.6362C54.7843 28.5077 53.8522 27.468 52.6624 26.8014C52.1895 26.5343 51.679 26.3345 51.1542 26.1938C51.1062 26.1844 51.0107 26.1651 50.9627 26.1568C49.135 25.9316 46.9551 28.3913 45.8514 29.6738C44.1589 31.6869 42.6943 33.8844 41.2986 36.1062C40.3743 37.5951 39.4775 39.1 38.6276 40.6325C38.333 41.6457 37.6249 44.5131 39.1596 44.7686C40.3119 44.9149 41.5194 44.1351 42.4178 43.4839C42.7136 43.2632 43 43.0303 43.2743 42.782C43.0828 43.581 42.9801 44.405 43.0397 45.2267C43.0927 45.9093 43.2963 46.6438 43.8371 47.1057C44.7201 47.8044 45.7664 46.3238 46.219 45.6775C46.6295 45.0683 46.9893 44.4298 47.3149 43.772C47.406 45.1533 47.7487 47.2316 48.9302 47.8949C49.37 48.141 49.9484 48.1311 50.3689 47.8518C51.2221 47.295 51.7347 45.975 52.0416 44.7747C52.2358 46.5715 53.1149 48.1857 55.2142 48.1189C57.4928 48.061 58.2676 46.0037 58.315 44.0264C58.315 44.0093 58.315 43.9922 58.3156 43.9751C58.7968 44.7322 59.3161 45.4596 59.9121 46.1383C60.049 46.2929 60.3023 46.1753 60.2802 45.9728L60.2813 45.9739ZM58.2692 43.1418C58.1638 42.9624 57.8774 43.0518 57.8989 43.2637C58.0176 44.8751 57.7251 47.1195 55.9294 47.6559C55.665 47.7315 55.3858 47.7691 55.1104 47.7707C54.8958 47.7691 54.6772 47.7586 54.4686 47.7106C53.1497 47.4644 52.5548 46.1725 52.3848 44.9541C52.3114 44.4541 52.2871 43.937 52.3219 43.4331C52.3351 43.2394 52.0515 43.2041 52.0195 43.3978C51.8302 44.6252 51.1652 47.7426 49.6471 47.8182C48.7117 47.837 48.2073 46.8668 47.9446 46.092C47.6604 45.2333 47.5252 44.3167 47.4761 43.4144C47.4733 43.3228 47.3414 43.2946 47.3033 43.3818C47.1323 43.7643 46.9435 44.1428 46.7449 44.5137C46.5456 44.8845 46.3343 45.2493 46.1036 45.6014C45.6748 46.2377 44.6081 47.8038 43.7809 46.9308C43.3333 46.4827 43.1633 45.8387 43.1076 45.2206C43.037 44.3818 43.1418 43.5297 43.3427 42.7146C43.3499 42.6915 43.3178 42.671 43.3002 42.6892C43.0116 42.9574 42.7047 43.2085 42.3891 43.4458C41.5127 44.0865 40.2926 44.8614 39.1674 44.7135C37.7005 44.4541 38.4284 41.6363 38.7386 40.6684C40.9261 36.9831 43.3758 33.2625 46.2151 29.9889C47.071 29.0336 47.9705 28.0855 49.0295 27.3598C49.609 26.9774 50.3832 26.5453 51.0869 26.7611C53.222 27.34 54.6976 29.1716 55.702 31.0512C57.1197 33.7349 57.9806 36.6812 58.783 39.5989C59.2648 41.4735 59.5363 43.3934 59.773 45.3183C59.5716 45.0666 59.3768 44.8084 59.1886 44.5446C58.8664 44.0899 58.554 43.6175 58.2676 43.1407L58.2692 43.1418Z" fill="#1E1E22"/>
<path d="M41.2654 29.2042L24.4691 29.1164C21.2778 29.0999 18.6686 31.7813 18.6526 35.0935L18.4688 72.98C18.4528 76.2928 21.0361 79.0013 24.2269 79.0179L41.0231 79.1056C44.2145 79.1222 46.8237 76.4407 46.8397 73.1285L47.5499 34.5743C47.5659 31.2615 44.4568 29.2207 41.2654 29.2042ZM42.3741 73.1053C42.3702 73.8619 41.7742 74.4739 41.0457 74.4706L24.2495 74.3828C23.5205 74.379 22.9306 73.7603 22.9344 73.0037L23.1182 35.1173C23.1221 34.3607 23.7181 33.7487 24.4465 33.752L41.2428 33.8397C41.9718 33.8436 42.5617 34.4622 42.5578 35.2188L42.3741 73.1053Z" fill="#1E1E22"/>
<path d="M42.6101 29.7654L25.9088 29.6782C22.7357 29.6616 20.1408 32.3431 20.1248 35.6553L19.9405 73.5418C19.9245 76.8546 22.4928 79.5625 25.666 79.5796L42.3673 79.6668C45.5405 79.6834 48.1353 77.0019 48.1513 73.6897L48.3356 35.8032C48.3516 32.4904 45.7833 29.7825 42.6101 29.7654ZM43.7111 73.666C43.7072 74.4225 43.1151 75.0351 42.3899 75.0312L25.6886 74.944C24.964 74.9402 24.3774 74.3216 24.3807 73.565L24.565 35.6785C24.5689 34.9219 25.161 34.3094 25.8862 34.3132L42.5875 34.4004C43.3121 34.4043 43.8987 35.0229 43.8954 35.7795L43.7111 73.666Z" fill="#1E1E22"/>
<path d="M42.6669 32.0835L26.0056 31.9963C24.0053 31.9858 22.3753 33.5988 22.3648 35.5991L22.1657 73.6213C22.1553 75.6216 23.7683 77.2516 25.7685 77.2621L42.4299 77.3493C44.4302 77.3598 46.0602 75.7467 46.0706 73.7465L46.2697 35.7242C46.2802 33.724 44.6672 32.094 42.6669 32.0835Z" fill="white"/>
<path d="M42.7266 32.0836L25.9303 31.9959C23.9674 31.9854 22.3676 33.6294 22.3576 35.6668L22.1739 73.5533C22.1662 75.0941 23.0695 76.418 24.3592 76.977L23.9282 35.7562C23.9282 35.7562 24.0485 33.6377 25.7366 33.3259C27.4248 33.0141 42.1063 33.0262 42.1063 33.0262C42.1063 33.0262 45.5747 33.4826 46.2574 37.004L46.2634 35.7916C46.2733 33.7536 44.6901 32.0936 42.7266 32.0831V32.0836Z" fill="#DCDCDC"/>
<path d="M43.319 32.139C43.1259 32.1042 42.9278 32.0849 42.7258 32.0838L28.0967 32.0071L28.6209 33.14C28.8527 33.6406 29.3301 33.9689 29.8643 33.9949C29.8643 33.9949 34.2465 34.2708 35.7095 34.2785C37.1725 34.2862 41.5575 34.0561 41.5575 34.0561C42.0923 34.0357 42.5729 33.7123 42.8091 33.2145L43.3196 32.139H43.319Z" fill="#DCDCDC"/>
<path d="M46.5349 36.6094C46.5365 36.4521 46.5354 35.9709 46.5371 35.8252C46.584 33.8004 45.02 31.9948 43.077 31.8276C42.9048 31.8143 42.7188 31.8027 42.5499 31.8088L42.0461 31.8071L25.9303 31.7751C24.3128 31.7481 22.7809 32.9219 22.3234 34.5305C22.16 35.0498 22.1495 35.6033 22.1567 36.1431C22.1396 42.7035 22.107 56.6235 22.0894 63.3269C22.0971 64.8185 22.0646 72.4656 22.0899 73.7878C22.1633 75.4069 23.352 76.8671 24.8718 77.2214C25.2013 77.307 25.5495 77.328 25.8856 77.323C31.4251 77.3197 36.9652 77.3362 42.5047 77.3765C44.2392 77.4162 45.8153 76.0278 46.0785 74.2514C46.1353 73.9048 46.1276 73.5511 46.1326 73.2012L46.1558 71.1102C46.3136 59.9732 46.5007 47.7651 46.5338 36.6088L46.5349 36.6094ZM45.8787 74.7397C45.4532 76.2463 44.0201 77.3434 42.5063 77.3219C36.9668 77.3048 31.4268 77.2628 25.8878 77.2016C25.5534 77.2032 25.2267 77.1778 24.9033 77.0923C23.4497 76.738 22.3234 75.3258 22.2687 73.7773C22.2616 72.4054 22.3526 64.8257 22.3559 63.3279C22.4045 56.6836 22.5055 42.6428 22.5529 36.1447C22.5496 35.6403 22.5557 35.137 22.7091 34.6536C23.1225 33.2226 24.4905 32.1857 25.9292 32.2161L42.0444 32.3529C42.2646 32.3546 42.7028 32.3551 42.9108 32.3651C43.8827 32.423 44.8103 32.9594 45.3738 33.7822C45.7844 34.3716 46.0001 35.0956 45.988 35.8219L45.9863 36.0834C45.988 36.3268 45.9736 37.4333 45.9775 37.6518C45.8975 49.1751 46.0007 61.7005 46.0288 73.2012C46.0371 73.7194 46.0332 74.2414 45.8793 74.7403L45.8787 74.7397Z" fill="#1E1E22"/>
<path d="M22.2048 31.7746C21.8732 31.7779 21.531 32.0296 21.2943 32.2514C21.0338 32.4953 20.823 32.7983 20.6723 33.1267C20.4996 33.5036 20.4052 33.9208 20.3523 34.333C20.3004 34.7359 20.2253 35.2281 20.3059 35.6288C20.3379 35.7871 20.5338 35.8053 20.5796 35.6437C20.6817 35.2827 20.6503 34.8722 20.7005 34.4986C20.7507 34.1277 20.8296 33.758 20.9764 33.4147C21.1039 33.1156 21.2755 32.8375 21.5023 32.609C21.7468 32.3623 22.0332 32.2746 22.3229 32.1123C22.494 32.0163 22.3638 31.7724 22.2054 31.7741L22.2048 31.7746Z" fill="white"/>
<path d="M20.1176 37.5724C20.0602 39.3919 20.1419 41.2218 20.1728 43.0418C20.2042 44.8922 20.2224 46.7425 20.2318 48.5935C20.25 52.3334 20.2313 56.0728 20.1976 59.8127C20.1794 61.8744 20.1562 63.9361 20.133 65.9979C20.1292 66.3345 20.6325 66.2898 20.6358 65.9554C20.6733 62.2833 20.7092 58.6113 20.7219 54.9387C20.7346 51.1999 20.7241 47.4605 20.6634 43.7217C20.6303 41.6683 20.6347 39.5911 20.4305 37.5465C20.409 37.3329 20.1242 37.3682 20.1176 37.5729V37.5724Z" fill="white"/>
<path d="M26.5508 30.9512L27.2318 32.4235C27.4636 32.924 27.9409 33.2524 28.4751 33.2784C28.4751 33.2784 32.8574 33.5543 34.3203 33.562C35.7833 33.5697 40.1683 33.3396 40.1683 33.3396C40.7031 33.3192 41.1838 32.9958 41.4199 32.498L42.1153 31.0328L26.5508 30.9512Z" fill="#1E1E22"/>
<path d="M29.0301 32.2392C30.2309 32.2585 31.4318 32.2723 32.6326 32.2861C33.3318 32.2943 34.0315 32.3021 34.7307 32.3103C35.4476 32.3186 36.1672 32.3738 36.8835 32.3661C37.2908 32.3617 37.2455 31.7237 36.8454 31.7154C36.149 31.7005 35.4481 31.7474 34.7506 31.748C34.0343 31.748 33.318 31.7491 32.6011 31.7497C31.4014 31.7502 30.2011 31.7502 29.0014 31.7485C28.6957 31.7485 28.7277 32.2342 29.0301 32.2392Z" fill="white"/>
<path d="M38.9982 31.7756C38.8067 31.2679 38.0992 31.5571 38.1633 32.0543C38.2907 32.6878 39.1566 32.3545 39.0015 31.7856L38.9982 31.7756Z" fill="white"/>
<path d="M43.6963 50.6335C43.2548 49.9581 43.2504 47.999 43.2394 47.6066V39.5258C43.2394 38.0076 42.0043 36.7726 40.4861 36.7726H28.8255C27.3073 36.7726 26.0723 38.0076 26.0723 39.5258V49.3781C26.0723 50.8962 27.3073 52.1312 28.8255 52.1312H40.9194C40.9194 52.1312 44.9192 52.3752 45.1217 52.0661C45.3585 51.7052 44.151 51.3289 43.6957 50.6324L43.6963 50.6335Z" fill="#DCDCDC"/>
<path d="M43.2135 49.9245C42.8465 49.206 42.7709 47.1917 42.7599 46.7993V38.7185C42.7599 37.2004 41.5248 35.9653 40.0067 35.9653H28.346C26.8278 35.9653 25.5928 37.2004 25.5928 38.7185V48.5708C25.5928 50.0889 26.8278 51.324 28.346 51.324H40.4399C40.4399 51.324 44.5197 51.6082 44.7559 51.324C44.8961 51.1551 43.5716 50.6253 43.2135 49.9239V49.9245Z" fill="white"/>
<path d="M43.2135 49.9246C42.8465 49.2061 42.7709 47.1918 42.7599 46.7994V38.7186C42.7599 37.4394 41.883 36.3616 40.6992 36.0537C41.4293 36.7673 41.4834 37.5189 41.4834 37.5189C41.4834 37.5189 41.8261 48.221 41.8427 49.0212C41.8526 49.5035 41.7384 49.8672 41.4062 49.9086C41.1876 49.9362 30.4364 50.1266 28.1015 49.9086C26.7908 49.7861 26.0183 48.8314 25.5928 48.0163V48.5703C25.5928 50.0885 26.8278 51.3235 28.346 51.3235H40.4399C40.4399 51.3235 44.5197 51.6077 44.7559 51.3235C44.8961 51.1547 43.5716 50.6249 43.2135 49.9235V49.9246Z" fill="#DCDCDC"/>
<path d="M28.6583 49.3517C32.5329 49.3517 36.4075 49.3517 40.282 49.3517C40.6413 49.3517 40.6418 48.7932 40.282 48.7932C36.4075 48.7932 32.5329 48.7932 28.6583 48.7932C28.2991 48.7932 28.2985 49.3517 28.6583 49.3517Z" fill="#DCDCDC"/>
<path d="M28.4913 49.0756C32.3659 49.0756 36.2405 49.0756 40.115 49.0756C40.4743 49.0756 40.4748 48.5171 40.115 48.5171C36.2405 48.5171 32.3659 48.5171 28.4913 48.5171C28.1321 48.5171 28.1315 49.0756 28.4913 49.0756Z" fill="#1E1E22"/>
<path d="M42.1659 38.3792C42.1399 38.0062 42.024 37.6563 41.8016 37.3533C41.6339 37.1243 41.3182 36.7838 41.0037 36.8142C40.9363 36.8208 40.8828 36.8898 40.9231 36.9549C41.0583 37.1751 41.3243 37.307 41.4832 37.5194C41.672 37.7716 41.7779 38.0658 41.795 38.3798C41.8077 38.6182 42.1824 38.6176 42.1664 38.3798L42.1659 38.3792Z" fill="#1E1E22"/>
<path d="M42.1391 39.0023C42.096 38.8941 41.9614 38.8941 41.9178 39.0023C41.8654 39.1342 41.8604 39.2975 41.8427 39.4377C41.8306 39.5376 41.9371 39.6231 42.0282 39.6231C42.1192 39.6231 42.2263 39.5376 42.2136 39.4377C42.1959 39.2975 42.191 39.1336 42.1385 39.0023H42.1391Z" fill="#1E1E22"/>
<path d="M27.1862 49.7497C27.0058 49.6912 26.864 49.5985 26.7442 49.45C26.6372 49.317 26.5704 49.1559 26.4617 49.0251C26.4567 49.0196 26.4462 49.0212 26.4429 49.0273C26.2056 49.5069 26.6598 50.0736 27.1349 50.1288C27.3601 50.1547 27.3833 49.8131 27.1862 49.7491V49.7497Z" fill="#1E1E22"/>
<path d="M39.6758 37.3451H28.0151C27.5003 37.3451 27.083 37.7624 27.083 38.2772V46.1985C27.083 46.7133 27.5003 47.1306 28.0151 47.1306H39.6758C40.1905 47.1306 40.6078 46.7133 40.6078 46.1985V38.2772C40.6078 37.7624 40.1905 37.3451 39.6758 37.3451Z" fill="#DCDCDC"/>
<path d="M40.0068 37.7865H28.3461C27.8314 37.7865 27.4141 38.2038 27.4141 38.7186V46.6399C27.4141 47.1547 27.8314 47.572 28.3461 47.572H40.0068C40.5216 47.572 40.9389 47.1547 40.9389 46.6399V38.7186C40.9389 38.2038 40.5216 37.7865 40.0068 37.7865Z" fill="white"/>
<path d="M40.2412 37.8174C40.4366 38.1866 40.3941 38.59 40.3941 38.59C40.3941 38.59 40.5034 44.7785 40.329 45.5742C40.1546 46.37 39.7468 46.4009 39.7468 46.4009C39.7468 46.4009 28.6148 46.5863 28.0436 46.4009C27.7048 46.2911 27.5138 45.7144 27.415 45.2641V46.6393C27.415 47.1542 27.8322 47.5714 28.3471 47.5714H40.0078C40.5227 47.5714 40.9399 47.1542 40.9399 46.6393V38.7186C40.9399 38.2848 40.643 37.9211 40.2418 37.8174H40.2412Z" fill="#DCDCDC"/>
<path d="M31.7331 44.928C31.599 45.114 31.5907 45.4164 31.5427 45.6355C31.4737 45.9523 31.9742 46.0146 31.9764 45.694C31.9781 45.4517 32.0322 45.1554 31.9356 44.928C31.8975 44.8386 31.7778 44.8662 31.7331 44.928Z" fill="#DCDCDC"/>
<path d="M34.2301 46.304C34.2164 46.1787 34.0436 46.1412 34.0022 46.2731C33.9481 46.4458 33.9178 46.6152 33.8913 46.794C33.8394 47.1428 34.3654 47.1274 34.298 46.794C34.2655 46.6335 34.2478 46.4668 34.2301 46.304Z" fill="#DCDCDC"/>
<path d="M37.0635 44.6841C37.0001 44.917 36.9747 45.1631 36.9576 45.4032C36.9394 45.656 37.3671 45.6571 37.3505 45.4032C37.3356 45.1753 37.3329 44.9457 37.3141 44.7178C37.3031 44.5798 37.1033 44.5379 37.0635 44.6841Z" fill="#DCDCDC"/>
<path d="M38.9667 46.1326C38.8806 46.2375 38.8591 46.3721 38.8281 46.5029C38.7945 46.6447 38.7388 46.8053 38.752 46.951C38.7713 47.1629 39.0472 47.2054 39.1212 47.0012C39.1714 46.8633 39.1587 46.6939 39.1615 46.5482C39.1642 46.4135 39.178 46.2766 39.1212 46.153C39.0964 46.099 39.0047 46.0868 38.9667 46.1332V46.1326Z" fill="#DCDCDC"/>
<path d="M39.9229 43.3867C39.913 43.3161 39.7976 43.3034 39.7684 43.3663C39.7093 43.4938 39.6696 43.6235 39.6404 43.7609C39.6122 43.8939 39.5537 44.0412 39.6006 44.1731C39.6426 44.2923 39.7844 44.305 39.8561 44.2062C39.9373 44.0942 39.9229 43.9342 39.9339 43.8001C39.9455 43.6605 39.9433 43.5253 39.9235 43.3862L39.9229 43.3867Z" fill="#DCDCDC"/>
<path d="M28.64 44.5528C28.5506 44.6428 28.5202 44.7786 28.4855 44.8983C28.4463 45.0335 28.4143 45.1704 28.3856 45.3078C28.3249 45.597 28.7702 45.6593 28.7851 45.3619C28.7917 45.2305 28.8017 45.0997 28.8166 44.9695C28.8304 44.8503 28.8646 44.7201 28.8304 44.6031C28.8066 44.5214 28.7012 44.491 28.64 44.5528Z" fill="#DCDCDC"/>
<path d="M29.685 46.5804C29.5983 46.7587 29.4593 47.0512 29.5321 47.2493C29.5901 47.4066 29.7793 47.4297 29.8759 47.294C29.9979 47.1224 29.9399 46.8028 29.903 46.6086C29.8842 46.5103 29.7291 46.4899 29.685 46.5799V46.5804Z" fill="#DCDCDC"/>
<path d="M31.5124 44.7071C31.3783 44.893 31.37 45.1955 31.322 45.4146C31.253 45.7313 31.7535 45.7937 31.7557 45.4731C31.7574 45.2308 31.8115 44.9344 31.7149 44.7071C31.6768 44.6177 31.5571 44.6453 31.5124 44.7071Z" fill="#1E1E22"/>
<path d="M34.0094 46.0828C33.9956 45.9575 33.8229 45.92 33.7815 46.0519C33.7274 46.2246 33.6971 46.3941 33.6706 46.5729C33.6187 46.9216 34.1446 46.9062 34.0773 46.5729C34.0448 46.4123 34.0271 46.2456 34.0094 46.0828Z" fill="#1E1E22"/>
<path d="M36.8409 44.4632C36.7774 44.6961 36.752 44.9422 36.7349 45.1823C36.7167 45.435 37.1444 45.4361 37.1279 45.1823C37.113 44.9543 37.1102 44.7248 37.0914 44.4968C37.0804 44.3589 36.8806 44.3169 36.8409 44.4632Z" fill="#1E1E22"/>
<path d="M38.746 45.9117C38.6599 46.0165 38.6383 46.1512 38.6074 46.282C38.5738 46.4238 38.518 46.5844 38.5313 46.7301C38.5506 46.942 38.8265 46.9845 38.9005 46.7803C38.9507 46.6423 38.938 46.4729 38.9408 46.3272C38.9435 46.1926 38.9573 46.0557 38.9005 45.9321C38.8756 45.878 38.784 45.8659 38.746 45.9122V45.9117Z" fill="#1E1E22"/>
<path d="M39.7022 43.1658C39.6923 43.0952 39.5769 43.0825 39.5477 43.1454C39.4886 43.2728 39.4489 43.4025 39.4197 43.54C39.3915 43.673 39.333 43.8203 39.3799 43.9522C39.4219 44.0714 39.5637 44.0841 39.6354 43.9853C39.7166 43.8733 39.7022 43.7132 39.7132 43.5791C39.7248 43.4395 39.7226 43.3043 39.7028 43.1652L39.7022 43.1658Z" fill="#1E1E22"/>
<path d="M28.4193 44.3319C28.3299 44.4219 28.2995 44.5576 28.2648 44.6774C28.2256 44.8126 28.1936 44.9494 28.1649 45.0868C28.1042 45.376 28.5495 45.4384 28.5644 45.1409C28.571 45.0096 28.581 44.8788 28.5959 44.7486C28.6097 44.6294 28.6439 44.4991 28.6097 44.3821C28.5859 44.3005 28.4805 44.2701 28.4193 44.3319Z" fill="#1E1E22"/>
<path d="M29.4653 46.3592C29.3786 46.5375 29.2395 46.83 29.3124 47.0281C29.3703 47.1854 29.5596 47.2085 29.6562 47.0728C29.7782 46.9012 29.7202 46.5816 29.6832 46.3874C29.6645 46.2891 29.5094 46.2687 29.4653 46.3587V46.3592Z" fill="#1E1E22"/>
<path d="M36.8574 38.2387C36.8574 39.1079 37.5274 39.8126 38.3535 39.8126C39.1796 39.8126 39.8496 39.1079 39.8496 38.2387C39.8496 38.0814 39.8275 37.9302 39.7867 37.7867H36.9209C36.8801 37.9297 36.858 38.0814 36.858 38.2387H36.8574Z" fill="white"/>
<path d="M39.2078 37.7866C39.1648 38.2485 38.9964 38.7518 38.5285 39.0123C38.14 39.2286 37.6405 39.2772 37.2217 39.2689C37.496 39.6017 37.9005 39.8125 38.3519 39.8125C39.178 39.8125 39.8479 39.1078 39.8479 38.2386C39.8479 38.0813 39.8259 37.9301 39.785 37.7866H39.2078Z" fill="#DCDCDC"/>
<path d="M39.9508 37.7866C39.9508 37.7866 38.9116 37.7292 38.4337 37.7513C37.9558 37.7745 37.3962 37.7209 36.9189 37.7502L36.8891 37.7519C36.8532 37.9124 36.8355 38.0758 36.8394 38.238C36.8471 39.1751 37.6092 40.0316 38.5943 39.8848C39.5838 39.7579 40.2024 38.7259 39.9502 37.7866H39.9508ZM39.1224 39.456C38.1765 40.1513 36.9426 39.4229 36.9685 38.2645C36.9718 38.1233 36.947 37.9974 36.9917 37.8644C37.4608 37.8942 37.8835 37.9191 38.3526 37.9417C38.7897 37.9621 39.2267 37.9621 39.6638 37.95C39.677 38.0068 39.6875 38.0642 39.6936 38.1221C39.7499 38.6254 39.5319 39.1519 39.1224 39.456Z" fill="#1E1E22"/>
<path d="M40.9394 41.1074C40.6023 41.3784 40.2171 41.8425 39.8523 42.343C39.8363 42.7177 39.8644 42.9263 40.1067 42.9688C40.4919 43.0367 40.7667 42.6697 40.9394 42.3806V41.1074Z" fill="#DCDCDC"/>
<path d="M40.938 41.8486V40.677C40.5777 40.9303 40.1511 41.4386 39.7488 41.9904C39.7328 42.3651 39.7609 42.5737 40.0032 42.6162C40.4756 42.6996 40.7824 42.1278 40.938 41.8486Z" fill="white"/>
<path d="M40.938 41.8485V41.6046C40.7211 41.8949 40.4204 42.2519 40.1693 42.2034C39.959 42.1625 39.8845 41.9848 39.8591 41.8414C39.8222 41.8905 39.7858 41.9401 39.7488 41.9904C39.7328 42.3651 39.7609 42.5737 40.0032 42.6162C40.4756 42.6995 40.7824 42.1278 40.938 41.8485Z" fill="#DCDCDC"/>
<path d="M40.9232 40.6555C40.4376 41.0065 40.0712 41.4916 39.707 41.9601C39.7014 41.9673 39.6976 41.9766 39.697 41.9866C39.692 42.0732 39.6876 42.1599 39.6926 42.2493C39.697 42.3806 39.7334 42.5583 39.8703 42.6289C40.3929 42.8546 40.7676 42.2575 40.9437 41.8497L40.9646 40.677C40.9657 40.6566 40.9403 40.6434 40.9238 40.6549L40.9232 40.6555ZM40.4602 42.4303C40.3074 42.5611 39.9895 42.6549 39.8571 42.4623C39.7886 42.3331 39.7991 42.1577 39.8002 42.0075C40.1291 41.5506 40.4713 41.0848 40.9128 40.7322L40.9326 41.8475C40.7947 42.0555 40.6584 42.2757 40.4608 42.4303H40.4602Z" fill="#1E1E22"/>
<path d="M28.6277 44.147C29.5002 44.3341 30.0614 42.62 30.0614 42.62C30.0614 42.62 30.4979 45.1458 31.2143 44.3661C31.9306 43.5863 31.962 42.4329 31.962 42.4329C31.962 42.4329 32.9923 44.2535 33.372 43.4616C33.3417 43.37 33.3063 43.2679 33.2666 43.1575C32.781 41.9318 31.8732 40.1698 30.5907 39.9093C29.6464 39.7173 28.2828 41.1559 27.4131 42.5174V43.3705C27.5527 43.328 27.726 43.2513 27.8479 43.1189C28.0499 42.8998 28.285 42.8043 28.285 42.8043C28.285 42.8043 27.918 43.9952 28.6272 44.1475L28.6277 44.147Z" fill="#DCDCDC"/>
<path d="M31.0287 40.8299C31.517 42.0351 32.3641 43.9291 32.4 44.1068C32.4833 44.5201 33.3244 45.0251 33.5219 43.9456C33.5219 43.9456 32.4315 39.9055 30.4365 39.5004C30.2831 39.4695 30.1291 39.4756 29.9746 39.5109C30.2848 39.7096 30.734 40.1031 31.0287 40.8299Z" fill="#DCDCDC"/>
<path d="M29.9093 42.2118C29.9093 42.2118 30.3458 44.7376 31.0621 43.9578C31.7784 43.1781 31.8099 42.0247 31.8099 42.0247C31.8099 42.0247 32.8518 43.8657 33.2265 43.0401C32.7767 41.8238 31.827 39.782 30.4391 39.5005C29.3536 39.2798 28.2223 40.8685 27.416 42.3624V42.9253C27.5027 42.8707 27.5959 42.8 27.6963 42.7101C27.9182 42.5114 28.1334 42.3955 28.1334 42.3955C28.1334 42.3955 27.7664 43.5864 28.4756 43.7387C29.3481 43.9258 29.9093 42.2118 29.9093 42.2118Z" fill="white"/>
<path d="M30.5862 39.538C31.733 40.4039 31.4803 41.6102 31.3633 41.9518C31.2281 42.3464 31.0724 42.97 30.7297 43.3248C30.5355 43.5263 30.3578 43.4992 30.2402 43.438C30.4378 43.9429 30.7176 44.332 31.0619 43.9573C31.7788 43.1775 31.8097 42.0241 31.8097 42.0241C31.8097 42.0241 32.8516 43.8651 33.2263 43.0395C32.7926 41.8669 31.8941 39.9276 30.5862 39.5375V39.538Z" fill="#DCDCDC"/>
<path d="M29.8776 41.9518C29.7424 41.9518 29.1089 42.9385 28.6144 43.1465C28.3495 43.258 28.1619 43.2199 28.0449 43.1609C28.0698 43.4269 28.1774 43.6747 28.4754 43.7387C29.2419 43.9031 29.7678 42.6008 29.8843 42.2818C29.9096 42.2112 29.9946 41.9523 29.8776 41.9523V41.9518Z" fill="#DCDCDC"/>
<path d="M27.5302 42.4815C27.4988 42.503 27.4596 42.5162 27.416 42.5234V42.9246C27.5027 42.87 27.5959 42.7994 27.6963 42.7094C27.9182 42.5107 28.1334 42.3948 28.1334 42.3948C28.2482 42.1945 27.7902 42.3043 27.5302 42.4809V42.4815Z" fill="#DCDCDC"/>
<path d="M33.1277 42.5562C32.8175 41.8062 32.722 41.6048 32.3032 40.9641C31.7281 40.0607 30.5814 38.9156 29.4661 39.6672C28.5373 40.2886 27.89 41.3973 27.374 42.362L27.3773 42.9248C27.3762 42.9541 27.4115 42.9734 27.4353 42.9569C27.5628 42.8774 27.677 42.7736 27.7885 42.6765C27.8812 42.5993 27.9805 42.527 28.0831 42.4629C27.9987 42.8244 27.9016 43.3023 28.1163 43.6241C28.2658 43.8299 28.5969 43.9016 28.8254 43.8161C28.9783 43.762 29.1477 43.6196 29.2592 43.5043C29.5489 43.1947 29.7326 42.7852 29.8839 42.3884C29.9633 42.8669 30.0588 43.9999 30.7657 44.1555C31.0389 44.1682 31.2 43.8724 31.3468 43.6892C31.5648 43.3614 31.711 42.9911 31.7988 42.6092C31.8253 42.4944 31.8462 42.3791 31.8622 42.2621C32.0537 42.5744 32.2651 42.8746 32.5366 43.1252C32.7248 43.2996 33.0399 43.4872 33.2402 43.2361C33.27 43.1991 33.2684 43.1616 33.2689 43.1141C33.2706 42.8597 33.1359 42.5755 33.1277 42.5551V42.5562ZM32.1564 42.4188C32.0576 42.2786 31.9632 42.1329 31.8766 41.9867C31.8402 41.921 31.7337 41.9464 31.732 42.0226C31.7022 42.5805 31.5416 43.1467 31.2436 43.6224C31.1421 43.7637 31.035 43.9441 30.886 44.0297C30.386 44.2642 30.0108 42.623 29.9313 42.2803C29.9291 42.2692 29.9219 42.2383 29.9197 42.2273C29.9186 42.2234 29.9175 42.2157 29.9164 42.2119C29.9175 42.2119 29.9126 42.2025 29.9087 42.203C29.8977 42.208 29.8982 42.2163 29.8954 42.2229C29.8921 42.2312 29.8839 42.256 29.8805 42.2648C29.678 42.7869 29.2404 43.7372 28.5892 43.7295C27.9286 43.7013 28.0318 42.8526 28.1637 42.405C28.1725 42.3785 28.1422 42.3526 28.1174 42.3669C27.9844 42.4414 27.8613 42.527 27.7438 42.6224C27.6477 42.7041 27.5556 42.7841 27.4535 42.8537C27.454 42.7477 27.4562 42.3912 27.4562 42.3724C28.0053 41.4117 28.5887 40.388 29.5257 39.7644C30.5842 39.0652 31.6426 40.1921 32.1757 41.0452C32.5708 41.6672 32.9853 42.4028 33.0581 43.0209C33.1166 43.5181 32.3109 42.6279 32.1558 42.4177L32.1564 42.4188Z" fill="#1E1E22"/>
<path d="M34.9524 43.3233C35.6147 43.4684 36.0744 42.6688 36.0744 42.6688C36.0744 42.6688 35.7863 43.5413 36.4171 43.666C36.9397 43.7692 37.1339 42.8244 37.1339 42.8244C37.1339 42.8244 37.2333 43.687 37.8193 43.6886C37.9805 43.6886 38.1504 43.6235 38.3055 43.512C38.2608 43.0733 38.1747 42.4784 38.0125 41.9232C37.7901 41.3317 37.4623 40.8444 36.9777 40.7362C36.2283 40.5696 35.3282 41.601 34.6517 42.5976C34.5154 42.9177 34.6925 43.2659 34.9519 43.3227L34.9524 43.3233Z" fill="#DCDCDC"/>
<path d="M37.5271 44.1069C37.8389 44.6935 38.3289 44.2719 38.3289 44.2719L38.351 44.1235C38.3328 43.6925 38.1595 40.6622 36.8571 40.3731C36.7506 40.3493 36.6408 40.3504 36.5293 40.3714C37.1612 41.3581 37.2428 43.5716 37.5271 44.1069Z" fill="#DCDCDC"/>
<path d="M34.8304 42.9595C35.4926 43.1047 35.9523 42.305 35.9523 42.305C35.9523 42.305 35.6642 43.1775 36.295 43.3022C36.8176 43.4054 37.0118 42.4607 37.0118 42.4607C37.0118 42.4607 37.1112 43.3232 37.6972 43.3249C37.8832 43.3249 38.0802 43.2388 38.2535 43.0942C38.1067 42.0413 37.7436 40.57 36.8557 40.3724C36.1062 40.2058 35.2062 41.2372 34.5296 42.2338C34.3933 42.5539 34.5704 42.9021 34.8298 42.959L34.8304 42.9595Z" fill="white"/>
<path d="M36.056 41.952C35.9418 41.931 35.3083 42.4818 34.9341 42.4818C34.7288 42.4818 34.646 42.2886 34.6124 42.1148C34.5848 42.1545 34.5572 42.1948 34.5296 42.2345C34.3933 42.5546 34.5704 42.9028 34.8298 42.9597C35.492 43.1048 35.9517 42.3052 35.9517 42.3052C35.9517 42.3052 35.9457 42.324 35.9368 42.3565C36.0334 42.1308 36.0935 41.9592 36.0555 41.952H36.056Z" fill="#DCDCDC"/>
<path d="M36.9309 42.1077C36.809 42.1286 36.7516 42.409 36.4503 42.8521C36.2527 43.1429 36.0645 43.1164 35.958 43.0635C36.0176 43.1772 36.1214 43.2677 36.2946 43.3019C36.8173 43.4051 37.0115 42.4603 37.0115 42.4603C37.0115 42.4603 37.0137 42.4796 37.0198 42.5127C36.9994 42.4134 37.0534 42.0867 36.9315 42.1071L36.9309 42.1077Z" fill="#DCDCDC"/>
<path d="M38.2543 43.0944C38.1185 42.1225 37.7984 40.7953 37.0518 40.441C37.5722 41.265 37.8845 42.84 37.5418 42.9283C37.3509 42.9774 37.2294 42.9625 37.1566 42.9371C37.2576 43.1368 37.4248 43.3239 37.698 43.325C37.884 43.325 38.081 43.2389 38.2543 43.0944Z" fill="#DCDCDC"/>
<path d="M38.327 43.0843C38.1891 42.2499 37.9661 41.0905 37.2851 40.5281C36.4049 39.8483 35.4932 40.9338 34.9822 41.5833C34.8211 41.7935 34.5783 42.1307 34.4326 42.352C34.3134 42.623 34.4491 42.9999 34.756 43.0766C35.1693 43.166 35.5942 42.8835 35.8497 42.5711C35.8205 42.7113 35.8249 42.7676 35.8475 42.9133C35.8784 43.2057 36.1748 43.4315 36.4662 43.3763C36.7443 43.3056 36.9005 43.0507 36.9998 42.7852C37.0682 42.9944 37.1803 43.1859 37.3734 43.3156C37.672 43.5054 38.0594 43.3641 38.3011 43.1517C38.3204 43.1357 38.3309 43.1108 38.327 43.0843ZM37.2134 42.8608C37.1565 42.7322 37.1157 42.5877 37.0958 42.4503C37.0831 42.3586 36.9485 42.352 36.9281 42.4442C36.8624 42.708 36.7647 43.0082 36.5451 43.1776C36.3166 43.3338 35.9987 43.1539 35.9574 42.8917C35.916 42.7085 35.9386 42.5027 35.9877 42.3145C35.9987 42.2731 35.9397 42.2488 35.9187 42.2869C35.8646 42.3835 35.7962 42.4767 35.7234 42.5628C35.5087 42.8222 35.1572 42.9508 34.8101 42.8779C34.5104 42.8073 34.4193 42.4927 34.5363 42.2394C34.9916 41.6059 35.4817 40.9492 36.1649 40.5535C37.0108 40.069 37.5743 40.8432 37.832 41.5772C38.0064 42.054 38.1052 42.5573 38.1736 43.0623C37.8171 43.3371 37.4049 43.3194 37.2128 42.8608H37.2134Z" fill="#1E1E22"/>
<path d="M40.9151 40.6416C40.6116 40.8596 40.3644 41.135 40.1293 41.4153C39.4836 42.199 38.9318 43.0516 38.4152 43.9241C38.397 43.6117 38.365 43.3021 38.3209 42.9925C38.1862 42.0456 37.7497 40.0169 36.4401 40.3072C35.7029 40.5291 35.1196 41.2945 34.6742 41.8872C34.2498 42.4771 33.8779 43.0979 33.5413 43.7409C33.0992 42.3336 32.2985 40.4281 31.0436 39.6693C30.1192 39.1213 29.4338 39.5534 28.7716 40.2531C28.2032 40.8756 27.7655 41.5991 27.366 42.3358C27.3621 42.3436 27.3594 42.3529 27.3594 42.3618L27.3643 44.7198L27.3665 45.8992L27.3676 46.4885C27.3627 46.6889 27.3765 46.9041 27.4758 47.0823C27.6381 47.4074 27.9912 47.6187 28.3533 47.6143H28.5006C31.8702 47.606 36.3292 47.5796 39.7021 47.579C39.8716 47.579 40.1298 47.5906 40.2899 47.5354C40.674 47.4179 40.9504 47.0398 40.9471 46.6386C40.9532 45.153 40.9653 42.1625 40.9824 40.6764C40.9847 40.6422 40.9405 40.6207 40.914 40.6411L40.9151 40.6416ZM40.286 47.5205C40.0989 47.5812 39.8992 47.5591 39.7033 47.563C37.8556 47.5647 33.9264 47.5476 32.0391 47.5409C31.2726 47.5382 29.2395 47.5293 28.5017 47.5288H28.3544C28.1187 47.5293 27.8886 47.435 27.7214 47.2689C27.5553 47.1022 27.4615 46.8721 27.4615 46.637V46.4896C27.4637 45.4202 27.4681 43.4506 27.4703 42.3629C27.8136 41.7702 28.3135 40.9076 28.8604 40.3359C29.2622 39.9154 29.7975 39.4535 30.4189 39.5628C32.0242 39.9198 33.028 42.5356 33.448 43.9666C33.464 44.0333 33.5639 44.0444 33.5931 43.9809C33.7703 43.6355 33.9634 43.2939 34.1648 42.9605C34.3674 42.6272 34.5793 42.2994 34.8078 41.9838C35.225 41.4264 35.9915 40.4099 36.7464 40.4402C37.7243 40.5655 38.0295 42.2084 38.1636 43.0163C38.2215 43.4004 38.2624 43.7905 38.2795 44.1768C38.2806 44.2502 38.3816 44.2767 38.4185 44.211C38.9599 43.2685 39.5333 42.3342 40.2104 41.4821C40.4196 41.2238 40.6408 40.9705 40.898 40.7658C40.9135 42.2784 40.9256 45.1823 40.9322 46.6397C40.9355 47.0349 40.6629 47.4052 40.2866 47.5211L40.286 47.5205Z" fill="#1E1E22"/>
<path d="M40.0238 47.6613C36.1553 47.6673 32.2691 47.6773 28.4006 47.6828C28.2748 47.685 28.1401 47.6712 28.0193 47.6303C27.7687 47.5492 27.5535 47.3693 27.4282 47.1381C27.3328 46.9714 27.2958 46.7628 27.3013 46.5752V46.3992C27.3019 45.9593 27.3024 43.3816 27.3057 42.8822C27.3096 42.0097 27.3173 39.6776 27.3206 38.8377C27.2732 38.2334 27.7296 37.6953 28.3471 37.6986H39.9658C40.468 37.6721 41.0955 37.9503 41.1186 38.5584C41.2136 41.0252 41.1556 44.3744 41.064 46.8401C41.0408 47.4714 40.5083 47.6706 40.0238 47.6618V47.6613ZM39.9576 47.4703C40.4299 47.478 40.8537 47.1745 40.8692 46.504C40.9288 43.9412 40.9167 41.0732 40.8874 38.6125C40.84 38.1572 40.3543 37.8311 39.9007 37.8636L28.3465 37.8741C27.83 37.8763 27.4591 38.3305 27.5083 38.8366C27.5105 39.1484 27.511 39.7482 27.5127 40.0677C27.5237 41.8055 27.527 44.6652 27.5276 46.3986C27.5259 46.6271 27.5132 46.8329 27.6252 47.0299C27.7737 47.3103 28.0855 47.4769 28.4001 47.4604C32.2686 47.4659 36.0885 47.4637 39.957 47.4698L39.9576 47.4703Z" fill="#1E1E22"/>
<path d="M28.019 38.633C27.9666 38.7688 27.9363 38.9166 27.9158 39.0607C27.9054 39.1346 27.8949 39.2086 27.8932 39.2836C27.8916 39.3482 27.8855 39.4304 27.9158 39.4895C27.9285 39.5143 27.9628 39.5104 27.9765 39.4895C28.013 39.4337 28.0174 39.3504 28.0301 39.2864C28.0433 39.2202 28.0538 39.1529 28.0682 39.0866C28.098 38.9481 28.1382 38.8129 28.1741 38.676C28.2006 38.5745 28.056 38.5392 28.0196 38.6335L28.019 38.633Z" fill="#DCDCDC"/>
<path d="M28.349 38.2876C28.3474 38.2809 28.3441 38.2754 28.3391 38.2705C28.3336 38.2622 28.3264 38.2556 28.3176 38.2506C28.3115 38.2478 28.3054 38.2456 28.2988 38.2429C28.2922 38.2418 28.285 38.2412 28.2784 38.2401C28.2679 38.2401 28.258 38.2418 28.2486 38.2467C28.2392 38.25 28.2304 38.255 28.2237 38.2627C28.2226 38.2638 28.221 38.2649 28.2199 38.2655C28.2199 38.2655 28.2199 38.266 28.2193 38.2666C28.2155 38.2721 28.2111 38.2771 28.2072 38.2826C28.2072 38.2832 28.2066 38.2843 28.2061 38.2848C28.2044 38.2881 28.2028 38.2909 28.2011 38.2942C28.1978 38.3003 28.1945 38.3058 28.1917 38.3124C28.189 38.3185 28.1862 38.3245 28.184 38.3306C28.1835 38.3323 28.1829 38.3334 28.1818 38.335C28.1801 38.3383 28.179 38.3416 28.1774 38.3455C28.1741 38.351 28.173 38.3566 28.173 38.3626C28.1724 38.3659 28.1719 38.3687 28.1719 38.372C28.1719 38.3748 28.1719 38.3775 28.1724 38.3803C28.1724 38.3913 28.1752 38.4013 28.1807 38.4106C28.1846 38.4178 28.1895 38.4233 28.1962 38.4277C28.2022 38.4333 28.2089 38.4366 28.2166 38.4388C28.2271 38.4415 28.2381 38.4415 28.2486 38.4388C28.2513 38.4382 28.2541 38.4377 28.2569 38.4371C28.2596 38.436 28.2624 38.4349 28.2651 38.4338C28.2707 38.4322 28.2756 38.4294 28.28 38.425C28.2828 38.4228 28.2855 38.4206 28.2883 38.4184C28.2894 38.4173 28.2911 38.4161 28.2922 38.415C28.2977 38.4106 28.3027 38.4062 28.3082 38.4018C28.3131 38.3974 28.3181 38.3924 28.3225 38.388C28.3247 38.3858 28.3269 38.3836 28.3297 38.3814C28.333 38.3781 28.3347 38.3759 28.3374 38.3714C28.3452 38.3615 28.3435 38.3648 28.3485 38.3532C28.3507 38.3488 28.3523 38.3439 28.354 38.3394C28.3551 38.3328 28.3556 38.3256 28.3567 38.319C28.3567 38.3085 28.3551 38.2986 28.3501 38.2892L28.349 38.2876Z" fill="#DCDCDC"/>
<path d="M27.9507 38.5899C27.8983 38.7257 27.8679 38.8736 27.8475 39.0176C27.837 39.0916 27.8265 39.1655 27.8249 39.2405C27.8232 39.3051 27.8171 39.3873 27.8475 39.4464C27.8602 39.4712 27.8944 39.4674 27.9082 39.4464C27.9446 39.3906 27.949 39.3073 27.9617 39.2433C27.975 39.1771 27.9854 39.1098 27.9998 39.0435C28.0296 38.905 28.0699 38.7698 28.1058 38.633C28.1322 38.5314 27.9877 38.4961 27.9512 38.5905L27.9507 38.5899Z" fill="#1E1E22"/>
<path d="M28.2807 38.2445C28.279 38.2379 28.2757 38.2323 28.2707 38.2274C28.2652 38.2191 28.258 38.2125 28.2492 38.2075C28.2431 38.2047 28.2371 38.2025 28.2304 38.1998C28.2238 38.1987 28.2166 38.1981 28.21 38.197C28.1995 38.197 28.1896 38.1987 28.1802 38.2037C28.1708 38.207 28.162 38.2119 28.1554 38.2196C28.1543 38.2207 28.1526 38.2219 28.1515 38.2224C28.1515 38.2224 28.1515 38.223 28.151 38.2235C28.1471 38.229 28.1427 38.234 28.1388 38.2395C28.1388 38.2401 28.1383 38.2412 28.1377 38.2417C28.1361 38.245 28.1344 38.2478 28.1328 38.2511C28.1295 38.2572 28.1261 38.2627 28.1234 38.2693C28.1206 38.2754 28.1179 38.2814 28.1157 38.2875C28.1151 38.2892 28.1145 38.2903 28.1134 38.2919C28.1118 38.2952 28.1107 38.2986 28.109 38.3024C28.1057 38.3079 28.1046 38.3135 28.1046 38.3195C28.1041 38.3228 28.1035 38.3256 28.1035 38.3289C28.1035 38.3317 28.1035 38.3344 28.1041 38.3372C28.1041 38.3482 28.1068 38.3582 28.1123 38.3675C28.1162 38.3747 28.1212 38.3802 28.1278 38.3846C28.1339 38.3902 28.1405 38.3935 28.1482 38.3957C28.1587 38.3985 28.1697 38.3985 28.1802 38.3957C28.183 38.3951 28.1857 38.3946 28.1885 38.394C28.1913 38.3929 28.194 38.3918 28.1968 38.3907C28.2023 38.3891 28.2073 38.3863 28.2117 38.3819C28.2144 38.3797 28.2172 38.3775 28.2199 38.3753C28.2211 38.3742 28.2227 38.3731 28.2238 38.372C28.2293 38.3675 28.2343 38.3631 28.2398 38.3587C28.2448 38.3543 28.2498 38.3493 28.2542 38.3449C28.2564 38.3427 28.2586 38.3405 28.2613 38.3383C28.2646 38.335 28.2663 38.3328 28.2691 38.3284C28.2768 38.3184 28.2751 38.3217 28.2801 38.3102C28.2823 38.3057 28.284 38.3008 28.2856 38.2964C28.2867 38.2897 28.2873 38.2826 28.2884 38.2759C28.2884 38.2654 28.2867 38.2555 28.2818 38.2461L28.2807 38.2445Z" fill="#1E1E22"/>
<path d="M44.5477 50.8649C44.1432 50.5873 43.6663 50.2639 43.423 49.8236C43.2856 49.5272 43.157 49.2016 43.1035 48.881C43.0008 48.221 42.9594 47.4605 42.9401 46.7928C42.928 46.1035 42.8717 42.6975 42.8772 41.9365C42.8899 41.2119 42.9169 39.5 42.9291 38.797C42.9368 38.4951 42.9009 38.1678 42.8181 37.8765C42.5036 36.744 41.4556 35.871 40.2824 35.764L40.012 35.7485L39.5092 35.7446C36.6148 35.7364 32.3462 35.7336 29.4633 35.7584C29.2939 35.7584 28.3403 35.7634 28.1979 35.7728C28.0224 35.7822 27.8347 35.8042 27.6659 35.85C27.2305 35.9532 26.8182 36.1607 26.4744 36.4466C25.7819 37.0156 25.3884 37.9112 25.4132 38.803C25.4292 40.298 25.4292 47.4572 25.4695 48.8628C25.5904 50.0989 26.5749 51.1728 27.7967 51.3936L28.056 51.4317L28.3176 51.4438C32.0139 51.4394 36.6854 51.5222 40.3845 51.4984C41.2194 51.5376 42.0649 51.5768 42.9009 51.5917C43.4037 51.6 44.0902 51.6088 44.5918 51.563C45.3506 51.4979 44.8396 51.0741 44.5477 50.8644V50.8649ZM44.6619 51.2462C44.61 51.2904 44.5306 51.2915 44.4125 51.3058C44.2469 51.3218 44.0653 51.3069 43.8981 51.3108C42.7481 51.3279 41.571 51.3323 40.438 51.2876C40.0859 51.2876 39.225 51.2771 38.8669 51.2777C35.6628 51.2346 31.2684 51.2352 28.0798 51.1888C27.6852 51.1425 27.2917 51.0128 26.9584 50.797C26.2774 50.3732 25.821 49.6299 25.7421 48.8346C25.7151 47.4307 25.7714 40.2958 25.7703 38.8025C25.7548 38.0155 26.1036 37.2369 26.7167 36.7407C26.9888 36.52 27.3061 36.3539 27.6433 36.2612C27.7923 36.2203 27.9468 36.1905 28.1007 36.1762C28.2199 36.174 28.3358 36.1602 28.4583 36.1657C30.2767 36.1789 33.6425 36.1911 35.4906 36.1939C35.9956 36.1999 39.8348 36.1707 40.2421 36.1916C40.938 36.2518 41.5963 36.6111 42.0295 37.1601C42.3226 37.5211 42.5047 37.9791 42.5665 38.4388C42.604 38.7522 42.593 39.606 42.6073 39.926C42.6427 41.7483 42.6846 45.1267 42.7205 46.96C42.7569 47.6299 42.8077 48.2999 42.9191 48.9627C42.9787 49.2888 43.0494 49.6337 43.1929 49.9334C43.4417 50.382 43.8976 50.6585 44.3093 50.9388C44.445 51.0321 44.5168 51.0487 44.6332 51.164C44.6602 51.1927 44.6851 51.2275 44.6613 51.2451L44.6619 51.2462Z" fill="#1E1E22"/>
<path d="M38.3739 54.2446H27.6431C26.7546 54.2446 26.0344 54.9648 26.0344 55.8533V56.2263C26.003 56.9299 25.9003 58.4465 25.5918 59.0496C25.2337 59.751 23.9092 60.2808 24.0494 60.4497C24.1576 60.5799 25.0736 60.591 26.0344 60.5645V60.5761H38.3739C39.2624 60.5761 39.9826 59.8559 39.9826 58.9674V55.8533C39.9826 54.9648 39.2624 54.2446 38.3739 54.2446Z" fill="#DCDCDC"/>
<path d="M37.8221 53.6926H27.0913C26.2028 53.6926 25.4827 54.4128 25.4827 55.3013V55.6743C25.4512 56.3779 25.3486 57.8945 25.0401 58.4976C24.6819 59.199 23.3575 59.7288 23.4976 59.8977C23.6058 60.0279 24.5219 60.039 25.4827 60.0125V60.0241H37.8221C38.7106 60.0241 39.4308 59.3039 39.4308 58.4154V55.3013C39.4308 54.4128 38.7106 53.6926 37.8221 53.6926Z" fill="white"/>
<path d="M39.4278 55.1981C39.4272 55.1887 39.4261 55.1793 39.4256 55.1694C39.4234 55.1418 39.4206 55.1148 39.4168 55.0877C39.4156 55.0806 39.4151 55.0734 39.414 55.0662C39.409 55.0331 39.4029 55 39.3963 54.9674C39.3947 54.9608 39.393 54.9542 39.3919 54.9476C39.3859 54.9205 39.3792 54.8935 39.3715 54.867C39.3693 54.8593 39.3671 54.851 39.3649 54.8433C39.3456 54.7787 39.3224 54.7158 39.2959 54.6545C39.2931 54.6485 39.2904 54.6424 39.2876 54.6358C39.2749 54.6082 39.2617 54.5811 39.2479 54.5541C39.2462 54.5513 39.2451 54.5486 39.2435 54.5453C39.2269 54.5144 39.2098 54.4846 39.1916 54.4553C39.1905 54.4531 39.1888 54.4515 39.1877 54.4492C39.1706 54.4222 39.1524 54.3952 39.1342 54.3692C39.132 54.3659 39.1298 54.3631 39.1276 54.3598C39.0867 54.3035 39.042 54.2495 38.9946 54.1993C38.9929 54.1976 38.9918 54.1965 38.9902 54.1948C38.8666 54.0651 38.722 53.9559 38.5614 53.8726C38.6044 54.0182 38.6281 54.1722 38.6281 54.3317V57.4458C38.6281 58.3343 37.908 59.0545 37.0195 59.0545H25.9642C25.5266 59.0545 24.9267 59.0545 25.0928 58.7636C25.1734 58.6224 25.1756 58.3978 25.1568 58.2046C25.1221 58.3166 25.084 58.4165 25.042 58.4987C24.6839 59.2002 23.3594 59.7299 23.4996 59.8988C23.6078 60.029 24.5239 60.0401 25.4846 60.0136V60.0252H37.8241C38.7126 60.0252 39.4328 59.305 39.4328 58.4165V55.3024C39.4328 55.2676 39.4311 55.2334 39.4289 55.1992L39.4278 55.1981Z" fill="#DCDCDC"/>
<path d="M37.7354 56.0745H27.7628C27.4036 56.0745 27.403 56.6329 27.7628 56.6329H37.7354C38.0946 56.6329 38.0952 56.0745 37.7354 56.0745Z" fill="#DCDCDC"/>
<path d="M36.9261 57.6013H28.5743C28.2151 57.6013 28.2145 58.1598 28.5743 58.1598H36.9261C37.2854 58.1598 37.2859 57.6013 36.9261 57.6013Z" fill="#DCDCDC"/>
<path d="M37.7354 55.7434H27.7628C27.4036 55.7434 27.403 56.3019 27.7628 56.3019H37.7354C38.0946 56.3019 38.0952 55.7434 37.7354 55.7434Z" fill="#1E1E22"/>
<path d="M36.9261 57.2703H28.5743C28.2151 57.2703 28.2145 57.8287 28.5743 57.8287H36.9261C37.2854 57.8287 37.2859 57.2703 36.9261 57.2703Z" fill="#1E1E22"/>
<path d="M26.9258 55.0017C26.8993 55.0276 26.9147 55.0105 26.9258 55.0017V55.0017Z" fill="#DCDCDC"/>
<path d="M27.1338 54.8822C27.1443 54.8783 27.1526 54.8755 27.1338 54.8822V54.8822Z" fill="#DCDCDC"/>
<path d="M27.3041 54.4748C27.2225 54.4467 27.1485 54.4682 27.0718 54.4974C27.0128 54.5201 26.9543 54.5449 26.8991 54.5758C26.7975 54.6326 26.7021 54.706 26.6198 54.7888C26.5382 54.8705 26.4703 54.9698 26.4184 55.073C26.361 55.1878 26.35 55.3098 26.3688 55.435C26.3776 55.4946 26.4703 55.5178 26.5073 55.4715C26.5426 55.4273 26.558 55.4069 26.5956 55.3655C26.6165 55.3423 26.6353 55.3169 26.6541 55.2916C26.6309 55.3225 26.6546 55.2916 26.6585 55.2866C26.6728 55.2689 26.6839 55.2529 26.6966 55.2347C26.7032 55.2248 26.7103 55.2154 26.717 55.206C26.717 55.2055 26.7175 55.2049 26.7181 55.2044C26.7186 55.2038 26.7192 55.2033 26.7197 55.2022C26.7363 55.1828 26.7523 55.1635 26.7694 55.1448C26.8025 55.1089 26.8384 55.0752 26.8742 55.0427C26.8919 55.0272 26.9112 55.0134 26.9283 54.9969C26.9272 54.998 26.9267 54.9985 26.9256 54.9996C26.9267 54.9985 26.9278 54.998 26.9289 54.9969C26.9383 54.9902 26.9482 54.9831 26.9576 54.9765C26.9995 54.9478 27.0437 54.9224 27.0895 54.8997C27.1 54.8948 27.1104 54.8898 27.1215 54.8848C27.1248 54.8832 27.1298 54.8815 27.1342 54.8799C27.1303 54.8815 27.1253 54.8832 27.1193 54.8854C27.1413 54.8777 27.1629 54.8683 27.1849 54.8606C27.207 54.8528 27.2296 54.8462 27.2523 54.8407C27.3052 54.8269 27.3428 54.8015 27.3814 54.7645C27.4813 54.6691 27.4239 54.514 27.3041 54.4726V54.4748Z" fill="#DCDCDC"/>
<path d="M27.9465 54.4046C27.9404 54.3936 27.9322 54.3836 27.9233 54.3748C27.9057 54.3577 27.8852 54.3456 27.8615 54.339C27.8427 54.3329 27.8245 54.3323 27.8058 54.3362C27.7892 54.3384 27.7727 54.3423 27.7556 54.345C27.7451 54.3467 27.7346 54.3505 27.7241 54.3527C27.7175 54.3544 27.7109 54.355 27.7042 54.3566C27.691 54.3572 27.6783 54.3599 27.6661 54.3665C27.6512 54.3715 27.638 54.3798 27.627 54.3914L27.6082 54.4157C27.5994 54.4294 27.5944 54.4444 27.5939 54.4609C27.5911 54.4714 27.5911 54.4824 27.5939 54.4929C27.5944 54.5089 27.5994 54.5238 27.6082 54.5382C27.6143 54.5465 27.6209 54.5547 27.627 54.5625C27.6419 54.5774 27.6601 54.5878 27.6805 54.5934C27.7009 54.6011 27.7213 54.6071 27.7429 54.6105C27.7594 54.6132 27.7765 54.6171 27.7931 54.6165C27.7986 54.6165 27.8041 54.616 27.8096 54.6149C27.8267 54.6132 27.8438 54.611 27.861 54.6082C27.8847 54.6016 27.9051 54.5895 27.9228 54.5724C27.9322 54.5636 27.9399 54.5536 27.9454 54.5426C27.9581 54.5205 27.9642 54.4973 27.9642 54.4719C27.9642 54.4466 27.9581 54.4256 27.9459 54.4041L27.9465 54.4046Z" fill="#DCDCDC"/>
<path d="M26.9121 54.8196C26.8856 54.8455 26.901 54.8284 26.9121 54.8196V54.8196Z" fill="#1E1E22"/>
<path d="M27.1201 54.6998C27.1306 54.6959 27.1389 54.6932 27.1201 54.6998V54.6998Z" fill="#1E1E22"/>
<path d="M27.2905 54.2924C27.2088 54.2643 27.1349 54.2858 27.0582 54.3151C26.9991 54.3377 26.9406 54.3625 26.8854 54.3934C26.7839 54.4503 26.6884 54.5237 26.6062 54.6065C26.5245 54.6881 26.4566 54.7875 26.4048 54.8907C26.3474 55.0054 26.3363 55.1274 26.3551 55.2527C26.3639 55.3123 26.4566 55.3354 26.4936 55.2891C26.5289 55.2449 26.5444 55.2245 26.5819 55.1831C26.6029 55.16 26.6216 55.1346 26.6404 55.1092C26.6172 55.1401 26.6409 55.1092 26.6448 55.1042C26.6592 55.0866 26.6702 55.0706 26.6829 55.0523C26.6895 55.0424 26.6967 55.033 26.7033 55.0236C26.7033 55.0231 26.7039 55.0225 26.7044 55.022C26.705 55.0214 26.7055 55.0209 26.7061 55.0198C26.7226 55.0005 26.7386 54.9812 26.7557 54.9624C26.7888 54.9265 26.8247 54.8929 26.8606 54.8603C26.8782 54.8448 26.8976 54.8311 26.9147 54.8145C26.9136 54.8156 26.913 54.8161 26.9119 54.8173C26.913 54.8161 26.9141 54.8156 26.9152 54.8145C26.9246 54.8079 26.9345 54.8007 26.9439 54.7941C26.9859 54.7654 27.03 54.74 27.0758 54.7174C27.0863 54.7124 27.0968 54.7074 27.1078 54.7025C27.1111 54.7008 27.1161 54.6992 27.1205 54.6975C27.1166 54.6992 27.1117 54.7008 27.1056 54.703C27.1277 54.6953 27.1492 54.6859 27.1713 54.6782C27.1933 54.6705 27.216 54.6638 27.2386 54.6583C27.2916 54.6445 27.3291 54.6191 27.3677 54.5822C27.4676 54.4867 27.4102 54.3316 27.2905 54.2902V54.2924Z" fill="#1E1E22"/>
<path d="M27.9318 54.2225C27.9258 54.2115 27.9175 54.2015 27.9087 54.1927C27.891 54.1756 27.8706 54.1634 27.8469 54.1568C27.8281 54.1508 27.8099 54.1502 27.7911 54.1541C27.7746 54.1563 27.758 54.1601 27.7409 54.1629C27.7304 54.1646 27.7199 54.1684 27.7094 54.1706C27.7028 54.1723 27.6962 54.1728 27.6896 54.1745C27.6763 54.175 27.6636 54.1778 27.6515 54.1844C27.6366 54.1894 27.6234 54.1977 27.6123 54.2092L27.5936 54.2335C27.5847 54.2473 27.5798 54.2622 27.5792 54.2788C27.5765 54.2893 27.5765 54.3003 27.5792 54.3108C27.5798 54.3268 27.5847 54.3417 27.5936 54.356C27.5996 54.3643 27.6063 54.3726 27.6123 54.3803C27.6272 54.3952 27.6454 54.4057 27.6658 54.4112C27.6863 54.419 27.7067 54.425 27.7282 54.4283C27.7448 54.4311 27.7619 54.435 27.7784 54.4344C27.7839 54.4344 27.7895 54.4339 27.795 54.4327C27.8121 54.4311 27.8292 54.4289 27.8463 54.4261C27.87 54.4195 27.8905 54.4074 27.9081 54.3903C27.9175 54.3814 27.9252 54.3715 27.9307 54.3605C27.9434 54.3384 27.9495 54.3152 27.9495 54.2898C27.9495 54.2644 27.9434 54.2435 27.9313 54.2219L27.9318 54.2225Z" fill="#1E1E22"/>
<path d="M39.526 58.2383C39.526 58.0971 39.6137 55.3235 39.6137 55.1143C39.6308 54.2115 38.7358 53.3914 37.8296 53.408C34.5632 53.4229 30.8139 53.6331 27.5392 53.6099C27.3455 53.6111 27.0806 53.6 26.8869 53.6204C26.6628 53.6464 26.4437 53.7181 26.2473 53.8301C25.7765 54.0934 25.4521 54.5934 25.3952 55.1303C25.3853 55.2539 25.3842 55.4162 25.3847 55.5398C25.3869 55.7197 25.3643 55.9951 25.3527 56.1761C25.3213 56.601 25.2788 57.0259 25.2109 57.4437C25.1342 57.8432 25.0812 58.2693 24.8378 58.6048C24.515 59.0148 24.0321 59.2725 23.6067 59.5716C23.5316 59.629 23.4516 59.6787 23.3947 59.7686C23.3401 59.8476 23.3627 59.9656 23.451 60.0164C23.4814 60.033 23.5167 60.0446 23.5487 60.0528C23.7408 60.0964 23.9361 60.1053 24.1304 60.1196C28.6269 60.2179 33.1355 60.2074 37.6337 60.1715C37.8561 60.1715 38.095 60.1616 38.3086 60.0926C39.1254 59.8409 39.5955 59.075 39.526 58.2394V58.2383ZM39.3897 55.3461C39.3869 55.5447 39.3373 58.107 39.3362 58.2383C39.3693 58.985 38.9548 59.6252 38.2319 59.8277C38.0432 59.884 37.8285 59.8818 37.6337 59.8779C33.1416 59.7935 28.6352 59.9303 24.1447 59.8674C23.9891 59.8564 23.8302 59.8531 23.6773 59.8255C23.7777 59.7383 23.9008 59.6682 24.0101 59.5904C24.1883 59.4712 24.3688 59.3487 24.5409 59.2129C24.7551 59.0424 24.9741 58.8443 25.1154 58.5965C25.1976 58.4453 25.249 58.2842 25.2948 58.1203C25.4548 57.4878 25.51 56.8372 25.5547 56.191C25.5635 56.0061 25.5856 55.7258 25.5806 55.5436C25.5795 55.4244 25.5784 55.2677 25.5862 55.1502C25.6331 54.6717 25.9162 54.2258 26.335 53.9852C26.51 53.8831 26.7053 53.8169 26.9062 53.7921C27.0778 53.7705 27.3604 53.7805 27.5381 53.7766C30.8106 53.7556 34.5577 53.6938 37.8213 53.7104C38.7043 53.7071 39.4272 54.4675 39.3886 55.3472L39.3897 55.3461Z" fill="#1E1E22"/>
</g>
</g>
<defs>
<radialGradient id="paint0_radial_457_81425" cx="0" cy="0" r="1" gradientUnits="userSpaceOnUse" gradientTransform="translate(-33.6693 -0.785118) rotate(90) scale(89.0251)">
<stop offset="0.265" stop-color="#D27C71"/>
<stop offset="1" stop-color="#D27C71" stop-opacity="0"/>
</radialGradient>
<radialGradient id="paint1_radial_457_81425" cx="0" cy="0" r="1" gradientUnits="userSpaceOnUse" gradientTransform="translate(106.061 126.812) rotate(90) scale(126.144)">
<stop stop-color="#B68EFF"/>
<stop offset="1" stop-color="#B68EFF" stop-opacity="0"/>
</radialGradient>
<clipPath id="clip0_457_81425">
<rect y="0.5" width="64" height="64" rx="32" fill="white"/>
</clipPath>
<clipPath id="clip1_457_81425">
<rect width="64" height="64" fill="white" transform="translate(0 0.5)"/>
</clipPath>
</defs>
</svg>
