<svg width="64" height="64" viewBox="0 0 64 64" fill="none" xmlns="http://www.w3.org/2000/svg">
<g clip-path="url(#clip0_457_81412)">
<rect width="64" height="64" rx="32" fill="#8B47F4"/>
<mask id="mask0_457_81412" style="mask-type:alpha" maskUnits="userSpaceOnUse" x="0" y="0" width="64" height="64">
<circle cx="32" cy="32" r="32" fill="#8B47F4"/>
</mask>
<g mask="url(#mask0_457_81412)">
<circle cx="-33.6693" cy="-1.28512" r="89.0251" fill="url(#paint0_radial_457_81412)"/>
<circle cx="106.061" cy="126.312" r="126.144" fill="url(#paint1_radial_457_81412)"/>
</g>
<g clip-path="url(#clip1_457_81412)">
<path d="M45.3713 31.0925C45.8979 31.19 46.5002 31.0652 47.0303 31.0279C47.6027 30.9876 48.1766 30.9637 48.7484 30.9279C49.0433 30.9095 49.0453 30.447 48.7484 30.4664C48.1761 30.5037 47.6022 30.5564 47.0303 30.6037C46.7528 30.6265 46.4748 30.6474 46.1983 30.6787C45.9263 30.7096 45.6264 30.721 45.3713 30.825C45.2599 30.8707 45.2206 31.0647 45.3713 31.0925Z" fill="#1E1E22"/>
<path d="M48.7727 31.9399C48.1928 31.9285 47.6125 31.9315 47.0321 31.93C46.7422 31.9295 46.4528 31.9339 46.1628 31.9384C45.8913 31.9424 45.5964 31.9235 45.3343 32.0046C45.1578 32.0593 45.1558 32.3109 45.3343 32.3646C45.5969 32.4442 45.8903 32.4243 46.1628 32.4288C46.4528 32.4332 46.7422 32.4387 47.0321 32.4387C47.6125 32.4387 48.1923 32.4442 48.7727 32.4293C49.0874 32.4213 49.0884 31.9459 48.7727 31.9394V31.9399Z" fill="#1E1E22"/>
<path d="M47.8659 33.2975C47.56 33.2657 47.2542 33.2344 46.9488 33.1981C46.6569 33.1633 46.366 33.1205 46.0736 33.0887C45.808 33.0598 45.4689 32.9773 45.2103 33.0623C45.1148 33.0936 45.1049 33.211 45.1834 33.2667C45.3958 33.4164 45.724 33.4368 45.9741 33.483C46.278 33.5387 46.5848 33.5805 46.8912 33.6233C47.1706 33.6626 47.4501 33.7008 47.7306 33.7327C47.9847 33.7615 48.3259 33.8475 48.5571 33.7108C48.6357 33.664 48.6685 33.5308 48.5884 33.4661C48.392 33.3075 48.1086 33.3229 47.8659 33.2975Z" fill="#1E1E22"/>
<path d="M16.3074 31.4934C16.6466 31.4909 16.9857 31.4884 17.3254 31.4859C17.6476 31.4834 17.9709 31.4819 18.2926 31.469C18.5283 31.4596 18.8849 31.5013 19.0614 31.3173C19.0933 31.2845 19.0933 31.2323 19.0614 31.1995C18.8919 31.0229 18.5676 31.0612 18.3404 31.0513C18.0027 31.0368 17.663 31.0383 17.3254 31.0373C17.0021 31.0368 16.6789 31.0359 16.3556 31.0354C16.0558 31.0344 15.6863 30.9747 15.3998 31.0707C15.2084 31.1348 15.2074 31.3969 15.3998 31.461C15.6748 31.553 16.0195 31.4959 16.3074 31.4939V31.4934Z" fill="#1E1E22"/>
<path d="M15.8362 32.9132C16.0938 32.9391 16.3797 32.8734 16.6388 32.854C16.9173 32.8331 17.1958 32.8172 17.4748 32.8038C17.7379 32.7909 18.0014 32.7829 18.2645 32.7645C18.5236 32.7461 18.8165 32.7491 19.0622 32.6581C19.184 32.6128 19.2089 32.4194 19.0622 32.3851C18.8195 32.3284 18.5579 32.3537 18.3102 32.3597C18.0158 32.3667 17.7219 32.3826 17.428 32.398C17.1495 32.4124 16.8711 32.4288 16.5931 32.4502C16.334 32.4701 16.0331 32.4631 15.7874 32.5522C15.5875 32.6248 15.6288 32.8928 15.8362 32.9137V32.9132Z" fill="#1E1E22"/>
<path d="M19.05 33.4175C18.8163 33.3936 18.5522 33.4652 18.3244 33.5164C18.0847 33.5701 17.8465 33.6298 17.6093 33.6935C17.3438 33.7646 17.0787 33.8372 16.8137 33.9088C16.4601 34.0038 16.0772 34.0779 15.745 34.232C15.5863 34.3056 15.6624 34.5782 15.835 34.5642C16.1875 34.5359 16.5451 34.4121 16.8848 34.3146C17.1618 34.2355 17.4378 34.1544 17.7148 34.0759C17.9415 34.0112 18.1683 33.9456 18.3966 33.8854C18.6328 33.8228 18.9003 33.7775 19.1157 33.6601C19.2385 33.593 19.1689 33.4299 19.05 33.4175Z" fill="#1E1E22"/>
<path d="M23.9711 20.1529C23.9711 20.1529 25.1209 15.0158 26.4298 14.7965C27.7391 14.5772 28.3846 19.0494 28.3846 19.0494C28.3846 19.0494 34.6909 18.5233 37.2217 18.9619C37.2217 18.9619 38.5688 15.1476 39.7086 15.0601C40.8485 14.9725 41.1448 16.1999 40.9748 19.5323C40.9748 19.5323 43.786 20.4971 44.8383 22.163C45.8906 23.829 47.0742 27.1609 46.3292 33.3866C45.5837 39.6123 44.1371 41.5413 39.6211 42.243C35.1051 42.9447 28.0594 42.5936 23.1426 40.4895C18.2258 38.3849 18.4451 34.7462 18.3133 31.7649C18.182 28.7836 18.182 24.9852 19.1901 23.5664C20.5417 21.6642 21.9983 21.0307 23.9716 20.1539L23.9711 20.1529Z" fill="white"/>
<path d="M44.8379 22.1626C43.7856 20.4966 40.9744 19.5318 40.9744 19.5318C41.0972 17.1284 40.9769 15.82 40.4731 15.3103C40.4492 15.2859 40.4244 15.264 40.399 15.2431C40.398 15.2421 40.3965 15.2411 40.3955 15.2406C40.3707 15.2208 40.3448 15.2029 40.3184 15.1864C40.3169 15.1854 40.316 15.185 40.3145 15.184C40.2871 15.1671 40.2593 15.1521 40.2304 15.1387C40.2304 15.1387 40.2299 15.1387 40.2294 15.1382C40.1996 15.1248 40.1692 15.1123 40.1374 15.1024C40.1066 15.0925 40.0748 15.0845 40.0419 15.0775C40.0395 15.0775 40.037 15.0765 40.035 15.076C40.0041 15.0701 39.9723 15.0651 39.94 15.0621C39.937 15.0621 39.9335 15.0616 39.9305 15.0611C39.8977 15.0581 39.8644 15.0566 39.8301 15.0562C39.8276 15.0562 39.8246 15.0562 39.8221 15.0562C39.7853 15.0562 39.748 15.0576 39.7092 15.0601C39.484 15.0775 39.2512 15.2406 39.0215 15.4903C39.108 15.4639 39.1901 15.451 39.2537 15.4644C39.3964 15.4943 39.3691 15.8349 39.3233 16.1298C39.0996 16.923 38.8743 17.8311 38.8161 18.4457C38.6913 19.7611 38.7206 19.8193 39.4512 20.2286C40.1817 20.6378 41.2424 20.9884 41.4428 22.2451C41.6432 23.5018 42.0525 29.7275 41.8481 32.0076C41.6437 34.2872 39.7142 37.2427 38.0483 38.0155C36.3823 38.7883 30.7121 40.7089 24.6615 38.93C20.9208 37.8305 19.2921 35.7463 18.3965 33.6432C18.5681 36.1601 19.2245 38.8112 23.1427 40.4885C28.0595 42.5931 35.1052 42.9437 39.6212 42.242C44.1372 41.5403 45.5838 39.6113 46.3293 33.3856C47.0747 27.1599 45.8907 23.828 44.8384 22.1621L44.8379 22.1626Z" fill="#DCDCDC"/>
<path d="M30.3542 18.9153C29.1959 18.9819 28.3839 19.0495 28.3839 19.0495C28.3839 19.0495 27.7384 14.5773 26.429 14.7966C26.2295 14.8299 26.0351 14.9796 25.8486 15.2084C25.7163 16.1428 25.6104 17.5944 26.0117 18.5915C26.5896 20.0272 28.5519 19.9148 30.3542 18.9153Z" fill="#DCDCDC"/>
<path d="M39.5027 16.0363C39.3033 16.1214 39.1531 16.4148 39.0551 16.5998C38.9597 16.7803 38.8343 17.0041 38.8721 17.213C38.8811 17.2617 38.9467 17.2851 38.9865 17.2597C39.1541 17.1513 39.2436 16.936 39.3565 16.7758C39.4778 16.6033 39.6847 16.4208 39.7354 16.2154C39.7713 16.0692 39.6255 15.9841 39.5027 16.0363Z" fill="#DCDCDC"/>
<path d="M25.6272 17.0221C25.4029 17.3756 25.115 18.0027 25.2925 18.421C25.3079 18.4573 25.3602 18.4488 25.3781 18.421C25.486 18.2534 25.5099 18.0286 25.574 17.8401C25.6551 17.6039 25.7615 17.3891 25.8858 17.1732C25.9828 17.0052 25.7302 16.8589 25.6267 17.0216L25.6272 17.0221Z" fill="#DCDCDC"/>
<path d="M26.2389 16.013C26.0857 16.0185 25.9853 16.1687 25.9271 16.299C25.8729 16.4208 25.8157 16.5615 25.8485 16.6958C25.8684 16.7779 25.9753 16.8012 26.033 16.7445C26.1096 16.6695 26.1499 16.5635 26.2145 16.4785C26.2861 16.384 26.3965 16.2945 26.395 16.1687C26.394 16.0866 26.3244 16.01 26.2394 16.013H26.2389Z" fill="#DCDCDC"/>
<path d="M40.6141 30.6974C40.6141 30.6974 40.6141 31.511 41.3352 31.7646C42.0562 32.0177 42.6406 31.6915 42.9136 30.8317C43.1866 29.9718 42.3765 29.2701 42.1343 29.3094C41.8921 29.3487 40.5365 29.7863 40.6146 30.6979L40.6141 30.6974Z" fill="#DCDCDC"/>
<path d="M22.6456 30.9588C22.6456 30.9588 22.4924 31.9897 23.2915 32.1837C24.0907 32.3781 24.6298 31.8395 24.8406 30.5575C25.133 28.7826 24.2931 28.4464 23.7192 28.5564C23.1453 28.6663 22.65 30.2352 22.6456 30.9588Z" fill="#DCDCDC"/>
<path d="M21.002 36.9076C20.8946 36.7206 20.7916 36.5286 20.7151 36.3267C20.6315 36.1064 20.6047 35.8826 20.549 35.6564C20.4923 35.4266 20.1745 35.4947 20.1571 35.7096C20.1163 36.2089 20.4147 36.7444 20.6594 37.1597C20.8836 37.5406 21.1417 38.0484 21.6052 38.1677C21.7246 38.1985 21.8066 38.0528 21.7236 37.9643C21.4297 37.6495 21.2153 37.2805 21.002 36.9081V36.9076Z" fill="#DCDCDC"/>
<path d="M22.8324 38.9206C22.6753 38.7829 22.5161 38.6516 22.366 38.5059C22.271 38.4139 22.0636 38.1712 21.9363 38.3661C21.8259 38.5347 22.0576 38.7108 22.1715 38.7998C22.3351 38.9276 22.5345 39.036 22.7379 39.0837C22.8269 39.1046 22.9095 38.9888 22.8324 38.9211V38.9206Z" fill="#DCDCDC"/>
<path d="M21.67 23.3034C21.1081 23.7351 20.5421 24.4243 20.3228 25.1051C20.2731 25.2603 20.4869 25.3289 20.571 25.21C20.7774 24.9171 20.945 24.6014 21.1692 24.3204C21.3856 24.0494 21.6342 23.8186 21.8789 23.5749C22.0127 23.4417 21.8292 23.1811 21.6695 23.3039L21.67 23.3034Z" fill="#DCDCDC"/>
<path d="M22.8078 22.3451C22.6531 22.3795 22.5084 22.5092 22.3911 22.6102C22.2956 22.6923 22.1409 22.8419 22.1563 22.9802C22.1613 23.0249 22.1902 23.0617 22.2384 23.0622C22.3662 23.0642 22.491 22.9389 22.589 22.8673C22.7093 22.7793 22.859 22.7206 22.9674 22.6196C23.0933 22.5023 22.9605 22.3113 22.8078 22.3451Z" fill="#DCDCDC"/>
<path d="M22.6118 23.3607C22.496 23.4457 22.4055 23.5586 22.316 23.67C22.2424 23.7615 22.1394 23.8759 22.1469 24.0007C22.1484 24.028 22.1712 24.0594 22.2021 24.0559C22.3199 24.0424 22.4079 23.949 22.4935 23.8739C22.5939 23.7849 22.7098 23.7038 22.7988 23.6033C22.9072 23.4805 22.7615 23.2512 22.6118 23.3611V23.3607Z" fill="#DCDCDC"/>
<path d="M35.0997 30.0786C35.0509 29.7768 34.671 29.8106 34.671 29.8106C34.6501 29.9996 34.3691 30.8773 33.8425 31.1891C33.3158 31.5009 32.5664 31.1697 32.5664 31.1697C32.9657 31.8714 33.8231 32.0564 34.486 31.569C35.1484 31.0817 35.1484 30.3805 35.0997 30.0781V30.0786Z" fill="#DCDCDC"/>
<path d="M33.327 31.0389C33.0754 30.9355 32.9282 30.6445 32.8421 30.3571C32.9018 30.3422 32.963 30.3233 33.0251 30.2984C33.4732 30.1174 33.8631 29.649 33.97 29.367C34.0774 29.085 33.97 28.5589 33.3076 28.4808C32.6452 28.4027 30.8037 29.1894 30.8037 29.1894C30.8037 29.1894 30.9305 29.644 31.1936 29.9145C31.4567 30.1855 32.1778 30.3621 32.1778 30.3621C32.1778 30.3621 32.2046 30.37 32.2519 30.3785C32.2613 30.4073 32.2717 30.4352 32.2832 30.4625C32.2275 30.3974 32.1778 30.3626 32.1778 30.3626C32.1778 30.3626 31.6312 30.8166 31.4611 30.935C31.398 30.9787 31.2652 31.0787 31.1061 31.1727C31.2816 31.029 31.4517 30.8216 31.3204 30.8877C31.1255 30.9852 30.7749 30.9265 30.5799 30.7062C30.385 30.4859 30.5212 30.1085 30.3069 29.8797C30.0926 29.6509 29.9076 29.9155 29.9076 29.9155C29.9076 29.9155 29.8588 30.2353 30.0344 30.7062C30.2025 31.1583 30.6744 31.295 30.8589 31.299C30.6505 31.3865 30.4352 31.4223 30.2875 31.299C30.2875 31.299 30.6868 31.7252 31.1449 31.7152C31.6029 31.7053 32.2538 31.4328 32.3961 31.0235C32.4443 30.8852 32.4349 30.7654 32.4015 30.6664C32.8362 31.2463 33.7925 31.2299 33.3275 31.0389H33.327Z" fill="#DCDCDC"/>
<path d="M36.5951 30.3507C36.7695 30.3507 36.9109 30.2093 36.9109 30.0349C36.9109 29.8605 36.7695 29.7191 36.5951 29.7191C36.4207 29.7191 36.2793 29.8605 36.2793 30.0349C36.2793 30.2093 36.4207 30.3507 36.5951 30.3507Z" fill="#DCDCDC"/>
<path d="M37.9992 29.73C38.2117 29.73 38.3841 29.5577 38.3841 29.3451C38.3841 29.1325 38.2117 28.9602 37.9992 28.9602C37.7866 28.9602 37.6143 29.1325 37.6143 29.3451C37.6143 29.5577 37.7866 29.73 37.9992 29.73Z" fill="#DCDCDC"/>
<path d="M37.8962 31.4542C38.1543 31.4542 38.3636 31.2449 38.3636 30.9868C38.3636 30.7286 38.1543 30.5193 37.8962 30.5193C37.638 30.5193 37.4287 30.7286 37.4287 30.9868C37.4287 31.2449 37.638 31.4542 37.8962 31.4542Z" fill="#DCDCDC"/>
<path d="M28.2887 29.6672C28.4562 29.6672 28.5921 29.5314 28.5921 29.3639C28.5921 29.1964 28.4562 29.0605 28.2887 29.0605C28.1212 29.0605 27.9854 29.1964 27.9854 29.3639C27.9854 29.5314 28.1212 29.6672 28.2887 29.6672Z" fill="#DCDCDC"/>
<path d="M27.0282 29.4186C27.218 29.4186 27.3718 29.2647 27.3718 29.075C27.3718 28.8852 27.218 28.7313 27.0282 28.7313C26.8384 28.7313 26.6846 28.8852 26.6846 29.075C26.6846 29.2647 26.8384 29.4186 27.0282 29.4186Z" fill="#DCDCDC"/>
<path d="M27.0853 30.8617C27.3325 30.8617 27.5328 30.6613 27.5328 30.4141C27.5328 30.1669 27.3325 29.9666 27.0853 29.9666C26.8381 29.9666 26.6377 30.1669 26.6377 30.4141C26.6377 30.6613 26.8381 30.8617 27.0853 30.8617Z" fill="#DCDCDC"/>
<path d="M41.3638 31.3864C41.3638 31.3864 40.6258 31.3789 40.4796 30.5022C40.3334 29.6254 40.5657 28.4707 41.2097 28.2514C41.8537 28.0321 42.4236 28.3827 42.5111 29.3037C42.5986 30.2247 42.4017 31.5102 41.3638 31.3864Z" fill="#1E1E22"/>
<path d="M41.3607 28.8567C41.2483 28.7512 41.0896 28.7851 40.9812 28.8746C40.9464 28.9034 40.9166 28.9462 40.8823 28.987C40.7619 29.1292 40.7067 29.3465 40.8659 29.4853C40.9817 29.5862 41.1583 29.5952 41.2692 29.4793C41.3433 29.4017 41.3955 29.2973 41.4208 29.1938C41.4492 29.077 41.4562 28.9462 41.3607 28.8567Z" fill="white"/>
<path d="M41.1014 29.9905C41.085 29.9806 41.0536 29.9542 40.9576 29.9542C40.8617 29.9542 40.7727 30.0224 40.7463 30.1163C40.7264 30.187 40.7373 30.2616 40.7697 30.3272C40.8393 30.4669 41.0487 30.4659 41.1441 30.3565C41.1969 30.2964 41.2197 30.2213 41.2018 30.1427C41.1884 30.083 41.1531 30.0224 41.1009 29.9905H41.1014Z" fill="white"/>
<path d="M22.9957 31.5644C22.9957 31.5644 22.4889 31.6132 22.2358 31.0283C21.9827 30.444 22.0896 29.3455 22.3527 28.7452C22.6157 28.1445 23.1807 27.9401 23.5024 28.0276C23.8242 28.1152 24.1355 28.427 24.2235 29.4211C24.311 30.4147 23.9117 31.6231 22.9957 31.5644Z" fill="#1E1E22"/>
<path d="M22.8801 28.7452C22.7652 28.7433 22.6628 28.8169 22.6116 28.9163C22.5653 29.0063 22.535 29.1391 22.5514 29.251C22.5514 29.2689 22.5539 29.2868 22.5583 29.3047C22.5932 29.435 22.7205 29.5186 22.8532 29.4962C22.9756 29.4758 23.0551 29.4091 23.0914 29.2918C23.1133 29.2212 23.1277 29.1844 23.1412 29.0004C23.1511 28.8611 23.0208 28.7477 22.8801 28.7448V28.7452Z" fill="white"/>
<path d="M22.6713 29.7796C22.5395 29.7746 22.4565 29.9084 22.4505 30.0257C22.4455 30.1262 22.4992 30.249 22.6052 30.2739C22.6718 30.2898 22.7613 30.2649 22.7927 30.1978C22.8344 30.1073 22.8394 30.0033 22.8394 30.0004C22.8439 29.8532 22.7897 29.784 22.6713 29.7796Z" fill="white"/>
<path d="M28.0817 29.5112C28.2492 29.5112 28.385 29.3754 28.385 29.2079C28.385 29.0404 28.2492 28.9045 28.0817 28.9045C27.9141 28.9045 27.7783 29.0404 27.7783 29.2079C27.7783 29.3754 27.9141 29.5112 28.0817 29.5112Z" fill="#1E1E22"/>
<path d="M26.8212 29.2631C27.011 29.2631 27.1648 29.1092 27.1648 28.9194C27.1648 28.7297 27.011 28.5758 26.8212 28.5758C26.6314 28.5758 26.4775 28.7297 26.4775 28.9194C26.4775 29.1092 26.6314 29.2631 26.8212 29.2631Z" fill="#1E1E22"/>
<path d="M26.8773 30.7057C27.1244 30.7057 27.3248 30.5053 27.3248 30.2581C27.3248 30.0109 27.1244 29.8105 26.8773 29.8105C26.6301 29.8105 26.4297 30.0109 26.4297 30.2581C26.4297 30.5053 26.6301 30.7057 26.8773 30.7057Z" fill="#1E1E22"/>
<path d="M36.3861 30.1949C36.5605 30.1949 36.7019 30.0535 36.7019 29.8791C36.7019 29.7047 36.5605 29.5634 36.3861 29.5634C36.2117 29.5634 36.0703 29.7047 36.0703 29.8791C36.0703 30.0535 36.2117 30.1949 36.3861 30.1949Z" fill="#1E1E22"/>
<path d="M37.7902 29.5748C38.0028 29.5748 38.1751 29.4024 38.1751 29.1898C38.1751 28.9773 38.0028 28.8049 37.7902 28.8049C37.5776 28.8049 37.4053 28.9773 37.4053 29.1898C37.4053 29.4024 37.5776 29.5748 37.7902 29.5748Z" fill="#1E1E22"/>
<path d="M37.6891 31.2983C37.9473 31.2983 38.1566 31.089 38.1566 30.8309C38.1566 30.5727 37.9473 30.3634 37.6891 30.3634C37.431 30.3634 37.2217 30.5727 37.2217 30.8309C37.2217 31.089 37.431 31.2983 37.6891 31.2983Z" fill="#1E1E22"/>
<path d="M34.2886 29.8687C34.2726 30.1288 34.2189 30.4371 34.0494 30.645C33.8718 30.8623 33.5431 30.9588 33.2726 30.9648C32.9598 30.9717 32.7778 30.8594 32.6271 30.5928C32.4844 30.3402 32.3973 30.0612 32.2581 29.8086C32.2128 29.7265 32.0621 29.7355 32.0452 29.8364C32.0393 29.8722 32.0353 29.908 32.0328 29.9443C31.9746 29.922 31.905 29.9384 31.8617 30.002C31.6026 30.3874 31.4057 30.9041 30.8741 30.9698C30.2276 31.0498 30.0968 30.3735 30.159 29.8797C30.1973 29.5788 29.6691 29.5042 29.6254 29.8076C29.5642 30.2268 29.5821 30.6589 29.8283 31.02C30.0416 31.3328 30.3947 31.5337 30.7786 31.5118C31.1591 31.4899 31.5082 31.2985 31.7692 31.0274C31.8995 30.8922 32.0308 30.7176 32.1029 30.5291C32.1492 30.6853 32.2133 30.8355 32.2879 30.9688C32.5062 31.3601 32.8792 31.5138 33.3173 31.4969C33.7167 31.4815 34.1573 31.3358 34.4333 31.0344C34.7162 30.7256 34.8192 30.275 34.8435 29.8687C34.8654 29.5117 34.3094 29.5127 34.2881 29.8687H34.2886Z" fill="#1E1E22"/>
<path d="M32.1325 30.2581C32.1325 30.2581 31.022 29.8031 30.7684 29.3162C30.5152 28.8289 30.554 28.2933 31.1384 28.2057C31.7227 28.1182 32.7262 28.1471 33.1549 28.2057C33.5836 28.2644 33.7004 28.7518 33.5736 29.0536C33.4468 29.3555 32.5407 30.2263 32.1315 30.2586L32.1325 30.2581Z" fill="#1E1E22"/>
<path d="M31.8693 28.7776C31.844 28.5941 31.6157 28.5473 31.4621 28.5573C31.3835 28.5623 31.3094 28.5777 31.2368 28.6065C31.1189 28.6538 31.0652 28.7139 31.0488 28.8442C31.0384 28.9288 31.1159 29.0024 31.1875 29.0267C31.2263 29.0397 31.4417 29.0571 31.5158 29.0526C31.6824 29.0427 31.8997 28.9959 31.8693 28.7776Z" fill="white"/>
<path d="M46.8078 29.7703C46.8118 29.4813 46.8003 28.9472 46.7854 28.6598C46.7795 28.343 46.7347 27.8686 46.7113 27.5498C46.6631 27.0948 46.6029 26.6203 46.5239 26.1688C46.2797 24.7968 45.8619 23.4153 45.1428 22.2148C44.4665 21.0531 43.2596 20.326 42.0835 19.7546C41.7915 19.6179 41.5031 19.4931 41.2018 19.3802C41.242 18.395 41.2754 17.3905 41.1272 16.4038C41.0347 15.8558 40.8541 15.1894 40.2897 14.9462C39.5925 14.6807 39.1414 15.0144 38.7327 15.5271C38.2085 16.2044 37.8534 16.9653 37.5133 17.7381C37.3676 18.0787 37.2308 18.4199 37.1035 18.769C35.6678 18.579 34.2371 18.6273 32.7989 18.6636C31.3557 18.7133 30.0045 18.7625 28.5664 18.8873C28.4127 18.0907 28.2088 17.1448 27.9089 16.3004C27.6991 15.7519 27.2053 14.6195 26.523 14.5782C25.8133 14.5638 24.8431 15.8787 24.3895 17.2293C23.9241 18.6153 23.7455 19.1987 23.6128 19.8078C23.5595 19.8208 22.9747 20.0833 22.7654 20.1952C21.3406 20.9551 19.5528 22.078 18.7636 23.9016C17.9997 25.667 17.771 28.622 17.8038 30.5585C17.861 31.8544 18.0042 33.8615 18.2285 35.1287C18.4125 36.2361 18.9943 37.2944 19.6851 38.1895C20.2535 38.94 20.996 39.5467 21.7991 40.031C26.4384 42.6612 34.43 43.2779 39.6596 42.4907C43.2815 41.9466 45.0648 40.5084 45.9728 36.9179C46.3339 35.4793 46.5278 34.0107 46.6725 32.5387C46.7093 32.2344 46.7337 31.741 46.7581 31.4337C46.7844 31.1219 46.7904 30.6405 46.8053 30.3257C46.8138 30.1726 46.8083 29.9244 46.8098 29.7707L46.8078 29.7703ZM46.305 30.1775C46.2961 30.4242 46.2782 30.8857 46.2697 31.1304C46.2538 31.4402 46.211 31.9076 46.1931 32.2185C46.1757 32.3975 46.1265 32.846 46.1081 33.033C45.9713 34.2937 45.7799 35.5618 45.4711 36.7886C45.2886 37.4814 45.0702 38.1637 44.749 38.8037C43.6266 41.143 41.4355 41.7616 39.042 42.0685C35.5231 42.5081 31.9306 42.3718 28.4371 41.7766C28.0233 41.704 27.5086 41.598 27.0993 41.509C26.8601 41.4538 26.4041 41.3379 26.1709 41.2862C25.8725 41.2042 25.417 41.0729 25.1221 40.9898C25.0345 40.9625 24.573 40.8048 24.4761 40.775C24.1727 40.683 23.7575 40.5109 23.4566 40.3956C23.3034 40.3374 23.108 40.2573 22.9568 40.1857C22.2248 39.8575 21.5142 39.4432 20.8995 38.925C18.3071 36.7687 18.5756 33.7198 18.4001 30.6773C18.3439 28.8323 18.5363 25.0464 19.8029 23.3322C20.7553 21.8388 22.2009 21.0839 24.0121 20.234C24.0012 20.239 23.9957 20.2415 23.9937 20.2425C23.9972 20.241 24.0081 20.235 24.0136 20.2291C24.2244 19.3334 24.4741 18.4467 24.773 17.578C25.0012 16.929 25.2484 16.282 25.595 15.6872C26.5538 14.0322 27.243 15.1934 27.6573 16.3939C27.9597 17.2925 28.1511 18.2349 28.2864 19.1723C29.7902 19.0659 31.2995 18.9908 32.8068 18.958C34.3132 18.9401 35.8528 18.9067 37.3352 19.1619L37.387 19.0221C37.7047 18.1707 38.8152 15.3923 39.7302 15.26C40.4434 15.1884 40.6234 15.908 40.7139 16.471C40.8601 17.5327 40.794 18.6168 40.7432 19.6865C42.0506 20.1579 43.5714 20.9293 44.4511 22.0248C44.8171 22.5156 45.0921 23.0915 45.3239 23.6594C45.5576 24.2264 45.7371 24.8614 45.8803 25.4592C45.9012 25.5651 45.9962 26.0241 46.0151 26.1216C46.0459 26.3135 46.0912 26.5975 46.122 26.7899C46.1549 27.059 46.1872 27.3285 46.216 27.598C46.2289 27.7865 46.2667 28.2281 46.2762 28.4106C46.2822 28.5862 46.2996 29.0437 46.306 29.2257C46.306 29.4744 46.3065 29.9344 46.306 30.1785L46.305 30.1775Z" fill="#1E1E22"/>
<path d="M24.0122 20.2279C24.0122 20.2279 24.0112 20.2314 24.0107 20.2334L24.0132 20.2269C24.0132 20.2269 24.0122 20.2279 24.0117 20.2284L24.0122 20.2279Z" fill="#1E1E22"/>
<path d="M24.0146 20.2269C24.0146 20.2269 24.0168 20.2232 24.0168 20.2216L24.0146 20.2269Z" fill="#1E1E22"/>
<path d="M21.5665 23.1481C21.0046 23.5798 20.4386 24.269 20.2193 24.9498C20.1696 25.105 20.3834 25.1736 20.4675 25.0548C20.6739 24.7619 20.8414 24.4461 21.0657 24.1651C21.2821 23.8941 21.5307 23.6633 21.7754 23.4197C21.9091 23.2864 21.7256 23.0258 21.566 23.1486L21.5665 23.1481Z" fill="#1E1E22"/>
<path d="M22.7043 22.1894C22.5496 22.2237 22.4049 22.3535 22.2876 22.4544C22.1921 22.5365 22.0374 22.6862 22.0528 22.8244C22.0578 22.8692 22.0866 22.906 22.1349 22.9065C22.2627 22.9085 22.3875 22.7832 22.4855 22.7115C22.6058 22.6235 22.7555 22.5648 22.8639 22.4639C22.9897 22.3465 22.857 22.1556 22.7043 22.1894Z" fill="#1E1E22"/>
<path d="M22.5073 23.2054C22.3915 23.2904 22.301 23.4033 22.2115 23.5147C22.1379 23.6062 22.0349 23.7206 22.0424 23.8454C22.0439 23.8728 22.0667 23.9041 22.0976 23.9006C22.2154 23.8872 22.3035 23.7937 22.389 23.7186C22.4894 23.6296 22.6053 23.5485 22.6943 23.4481C22.8027 23.3252 22.657 23.096 22.5073 23.2059V23.2054Z" fill="#1E1E22"/>
<path d="M25.5237 16.8668C25.2994 17.2204 25.0115 17.8475 25.189 18.2657C25.2044 18.302 25.2566 18.2935 25.2746 18.2657C25.3825 18.0981 25.4063 17.8733 25.4705 17.6848C25.5515 17.4486 25.658 17.2338 25.7823 17.018C25.8793 16.8499 25.6266 16.7037 25.5232 16.8663L25.5237 16.8668Z" fill="#1E1E22"/>
<path d="M26.1334 15.8579C25.9802 15.8633 25.8798 16.0135 25.8216 16.1438C25.7674 16.2657 25.7102 16.4064 25.743 16.5407C25.7629 16.6227 25.8698 16.6461 25.9275 16.5894C26.0041 16.5143 26.0444 16.4084 26.109 16.3233C26.1807 16.2289 26.2911 16.1393 26.2896 16.0135C26.2886 15.9315 26.219 15.8549 26.1339 15.8579H26.1334Z" fill="#1E1E22"/>
<path d="M39.451 15.8289C39.2515 15.914 39.1014 16.2074 39.0034 16.3924C38.9079 16.5729 38.7826 16.7967 38.8204 17.0056C38.8293 17.0543 38.895 17.0777 38.9348 17.0523C39.1023 16.9439 39.1919 16.7286 39.3047 16.5684C39.4261 16.3959 39.633 16.2134 39.6837 16.008C39.7195 15.8618 39.5738 15.7767 39.451 15.8289Z" fill="#1E1E22"/>
<path d="M44.1603 36.8837C44.0454 37.1676 43.946 37.4531 43.8072 37.7271C43.673 37.9931 43.4974 38.2224 43.3293 38.4666C43.1801 38.6829 43.5143 38.9365 43.6919 38.7461C44.131 38.2751 44.4582 37.5744 44.492 36.9284C44.503 36.723 44.2265 36.7201 44.1603 36.8837Z" fill="#1E1E22"/>
<path d="M20.6905 36.7518C20.5831 36.5648 20.4801 36.3729 20.4035 36.171C20.32 35.9507 20.2931 35.7269 20.2374 35.5006C20.1807 35.2708 19.863 35.339 19.8456 35.5538C19.8048 36.0531 20.1032 36.5887 20.3478 37.0039C20.5721 37.3849 20.8302 37.8926 21.2937 38.012C21.4131 38.0428 21.4951 37.8971 21.4121 37.8086C21.1182 37.4938 20.9038 37.1248 20.6905 36.7523V36.7518Z" fill="#1E1E22"/>
<path d="M22.0535 38.3507C21.9585 38.2587 21.7511 38.016 21.6238 38.211C21.5134 38.3796 21.7451 38.5556 21.859 38.6446C22.0226 38.7724 22.222 38.8808 22.4254 38.9286C22.5144 38.9495 22.597 38.8336 22.5199 38.766C22.3628 38.6282 22.2036 38.4969 22.0535 38.3512V38.3507Z" fill="#1E1E22"/>
<path d="M47.9656 32.9404L13.7272 35.5869C11.6461 35.7478 10.0894 37.5653 10.2503 39.6464L11.7572 59.1416C11.918 61.2227 13.7355 62.7794 15.8167 62.6185L50.0551 59.972C52.1362 59.8112 53.6929 57.9936 53.532 55.9125L52.0251 36.4173C51.8643 34.3362 50.0468 32.7795 47.9656 32.9404Z" fill="white"/>
<path d="M53.5419 55.9045L52.0336 36.4094C51.8734 34.3366 50.0464 32.7721 47.9736 32.9327L46.061 33.0809C47.9801 34.4321 47.8274 35.925 47.8274 35.925C47.8274 35.925 48.5142 49.1716 48.4381 52.5577C48.362 55.9438 46.2634 56.1129 46.2634 56.1129L11.7871 59.3284C12.0412 61.3052 13.8186 62.7697 15.8272 62.6141L50.0653 59.9649C52.138 59.8048 53.7025 57.9777 53.5419 55.905V55.9045Z" fill="#DCDCDC"/>
<path d="M12.1569 45.5675C11.6889 45.3636 11.1922 45.2651 10.6934 45.2577L11.307 53.1876C11.5636 53.1319 11.8178 53.0489 12.0664 52.9365C13.4648 52.3074 14.543 50.7131 14.5066 49.1918C14.4997 47.6984 13.529 46.1533 12.1574 45.5675H12.1569Z" fill="#DCDCDC"/>
<path d="M49.5264 51.3322C45.832 48.6936 40.3388 50.0825 38.5749 54.3827C37.643 56.7364 37.9717 59.0215 39.0553 60.8157L50.0655 59.9639C50.985 59.8928 51.8046 59.4929 52.4177 58.8897C52.5803 58.3004 52.6679 57.6932 52.6659 57.0855C52.7042 54.6985 51.4311 52.6685 49.5269 51.3322H49.5264Z" fill="#DCDCDC"/>
<path d="M52.0629 36.9046L10.2881 40.1337L10.8214 47.0335L52.5963 43.8044L52.0629 36.9046Z" fill="#1E1E22"/>
<path d="M17.4258 44.4924C17.7435 44.3233 18.0111 43.9862 18.2662 43.735C18.5447 43.461 18.8257 43.1895 19.1121 42.9234C19.3985 42.6574 19.6805 42.4057 19.9709 42.1541C20.1127 42.0313 20.2554 41.9099 20.3991 41.7896C20.5513 41.6623 20.7263 41.5564 20.8089 41.3714C20.8934 41.1819 20.7184 41.0252 20.5359 41.068C20.3534 41.1108 20.2091 41.2689 20.0659 41.3908C19.9113 41.5225 19.7576 41.6553 19.6049 41.7896C19.319 42.0417 19.036 42.2978 18.758 42.5584C18.4731 42.8255 18.1916 43.0965 17.9161 43.3735C17.656 43.6356 17.3168 43.9255 17.1607 44.2652C17.0796 44.4412 17.2736 44.5725 17.4253 44.4919L17.4258 44.4924Z" fill="white"/>
<path d="M19.4299 45.4134C19.6592 45.2802 19.8497 45.0559 20.0371 44.8699C20.2535 44.6551 20.4668 44.4377 20.6786 44.2184C21.0909 43.7922 21.5076 43.3705 21.9239 42.9483C22.7564 42.1039 23.5998 41.2709 24.4561 40.4509C24.7093 40.2082 24.2925 39.8531 24.0419 40.0963C23.191 40.9208 22.3506 41.7568 21.525 42.6072C21.1237 43.0209 20.7289 43.4407 20.3355 43.8619C20.1276 44.0842 19.9228 44.3085 19.7233 44.5382C19.5408 44.7481 19.322 44.9649 19.2012 45.2175C19.1306 45.3657 19.3001 45.4885 19.4299 45.4134Z" fill="white"/>
<path d="M23.3531 44.1787C23.553 44.1016 23.7086 43.8917 23.8628 43.748C24.0224 43.5993 24.293 43.4491 24.2756 43.2064C24.2691 43.1169 24.198 43.0359 24.109 43.02C23.8588 42.9742 23.6703 43.2492 23.5301 43.4243C23.3983 43.5894 23.1999 43.8156 23.184 44.0339C23.1775 44.1254 23.2531 44.217 23.3526 44.1782L23.3531 44.1787Z" fill="white"/>
<path d="M15.0798 50.5307C20.5641 50.1065 26.0483 49.6818 31.533 49.2576C33.0856 49.1372 34.6386 49.0174 36.1912 48.897C36.7611 48.8528 36.6935 47.9676 36.1226 48.0113C30.6384 48.4355 25.1541 48.8602 19.6694 49.2844C18.1169 49.4048 16.5638 49.5246 15.0112 49.645C14.4413 49.6892 14.5089 50.5744 15.0798 50.5307Z" fill="#DCDCDC"/>
<path d="M15.3054 53.4428C19.8244 53.0932 24.3429 52.7436 28.8618 52.394C30.1483 52.2946 31.4344 52.1951 32.7209 52.0956C33.2908 52.0514 33.2231 51.1662 32.6522 51.2099C28.1333 51.5595 23.6148 51.9092 19.0959 52.2588C17.8093 52.3582 16.5233 52.4577 15.2368 52.5571C14.6669 52.6014 14.7345 53.4866 15.3054 53.4428Z" fill="#DCDCDC"/>
<path d="M15.6668 58.1092C16.8304 58.0192 17.9936 57.9292 19.1573 57.8392C19.7272 57.7949 19.6596 56.9097 19.0887 56.9535C17.925 57.0435 16.7618 57.1335 15.5981 57.2235C15.0282 57.2678 15.0959 58.153 15.6668 58.1092Z" fill="#DCDCDC"/>
<path d="M25.4793 57.3502C26.6429 57.2602 27.8061 57.1701 28.9698 57.0801C29.5397 57.0359 29.4721 56.1507 28.9012 56.1944C27.7375 56.2845 26.5743 56.3745 25.4106 56.4645C24.8407 56.5087 24.9084 57.3939 25.4793 57.3502Z" fill="#DCDCDC"/>
<path d="M35.7906 47.5886C30.3063 48.0128 24.8221 48.4375 19.3374 48.8617C17.7848 48.982 16.2318 49.1019 14.6792 49.2222C14.1093 49.2665 14.1769 50.1517 14.7478 50.1079C20.232 49.6837 25.7163 49.259 31.201 48.8348C32.7535 48.7145 34.3066 48.5946 35.8592 48.4743C36.4291 48.43 36.3615 47.5448 35.7906 47.5886Z" fill="#1E1E22"/>
<path d="M32.3212 50.7862C27.8022 51.1358 23.2838 51.4854 18.7648 51.835C17.4783 51.9345 16.1923 52.034 14.9058 52.1334C14.3358 52.1777 14.4035 53.0629 14.9744 53.0191C19.4933 52.6695 24.0118 52.3199 28.5308 51.9703L32.3898 51.6719C32.9597 51.6277 32.8921 50.7425 32.3212 50.7862Z" fill="#1E1E22"/>
<path d="M18.7567 56.5305C17.593 56.6205 16.4298 56.7105 15.2661 56.8005C14.6962 56.8448 14.7638 57.73 15.3347 57.6862C16.4984 57.5962 17.6616 57.5062 18.8253 57.4162C19.3952 57.3719 19.3276 56.4867 18.7567 56.5305Z" fill="#1E1E22"/>
<path d="M28.5682 55.7711C27.4045 55.8611 26.2413 55.9511 25.0776 56.0411C24.5077 56.0854 24.5754 56.9706 25.1463 56.9268C26.3099 56.8368 27.4731 56.7468 28.6368 56.6568C29.2067 56.6125 29.1391 55.7273 28.5682 55.7711Z" fill="#1E1E22"/>
<path d="M13.3215 37.1055C12.8888 37.3253 12.4567 37.5496 12.1469 37.9375C11.8659 38.2896 11.5899 38.7904 11.6898 39.2524C11.7177 39.3807 11.9226 39.411 11.9952 39.3081C12.121 39.129 12.1921 38.9207 12.3 38.7312C12.4124 38.5338 12.5666 38.3552 12.7342 38.2026C12.8893 38.0618 13.0704 37.944 13.2633 37.8624C13.4926 37.7654 13.7487 37.6491 13.7019 37.3507C13.6771 37.1901 13.5 37.0145 13.322 37.105L13.3215 37.1055Z" fill="#DCDCDC"/>
<path d="M14.6054 36.5696C14.3766 36.5373 14.0454 36.6586 13.9907 36.9053C13.9579 37.1644 14.2657 37.2146 14.4781 37.1464C14.6422 37.1017 14.7958 37.0037 14.8411 36.8804C14.9042 36.7262 14.769 36.592 14.6153 36.5711L14.6054 36.5696Z" fill="#DCDCDC"/>
<path d="M13.2473 36.7957C12.8146 37.0155 12.3825 37.2398 12.0727 37.6277C11.7917 37.9798 11.5157 38.4806 11.6156 38.9426C11.6435 39.0709 11.8484 39.1012 11.921 38.9983C12.0468 38.8192 12.1179 38.6109 12.2258 38.4214C12.3382 38.224 12.4924 38.0454 12.66 37.8928C12.8151 37.752 12.9961 37.6342 13.1891 37.5526C13.4183 37.4556 13.6745 37.3393 13.6277 37.0409C13.6028 36.8803 13.4258 36.7047 13.2478 36.7952L13.2473 36.7957Z" fill="#1E1E22"/>
<path d="M14.5311 36.2592C14.3024 36.2268 13.9712 36.3482 13.9165 36.5948C13.8837 36.8539 14.1915 36.9042 14.4038 36.836C14.568 36.7913 14.7216 36.6933 14.7669 36.57C14.83 36.4158 14.6948 36.2815 14.5411 36.2606L14.5311 36.2592Z" fill="#1E1E22"/>
<path d="M50.8541 48.6434C50.7964 48.8826 50.8233 49.1516 50.8258 49.3968C50.8283 49.6415 50.8412 49.8862 50.8501 50.1303C50.8596 50.3745 50.8695 50.6192 50.881 50.8634C50.8934 51.1299 50.8621 51.3805 51.0879 51.5641C51.2241 51.6749 51.42 51.66 51.5379 51.5292C51.7329 51.3129 51.6632 51.0702 51.6344 50.8052C51.608 50.562 51.5807 50.3188 51.5518 50.0761C51.523 49.8334 51.4981 49.5898 51.4633 49.3476C51.428 49.1049 51.4136 48.8349 51.3196 48.6076C51.2276 48.3843 50.9103 48.4082 50.8536 48.6439L50.8541 48.6434Z" fill="#1E1E22"/>
<path d="M52.3367 35.2427C51.8399 33.7562 50.1312 32.7577 48.5637 32.6408C48.4254 32.6309 48.2872 32.6259 48.1485 32.6279L48.0102 32.6338L47.9416 32.6373L47.8774 32.6418L47.7491 32.6507L46.7242 32.7204C35.9756 33.4499 24.7018 34.3878 13.9422 35.2636C13.5856 35.2889 13.2092 35.3322 12.8685 35.4416C11.0693 35.9603 9.80666 37.7983 9.97972 39.6632C10.0707 40.9079 11.4129 57.2904 11.4651 58.0986C11.498 58.4501 11.5457 59.3304 11.6248 59.6581C11.6606 59.8356 11.7123 60.0097 11.773 60.1803C12.3409 61.8184 14.0536 62.9502 15.7827 62.8135C26.3926 61.9835 37.0711 61.5001 47.683 60.6427L49.5031 60.5045C49.8452 60.4831 50.7886 60.3653 51.1183 60.2643C52.8052 59.7824 54.3184 58.0603 54.1643 56.3108C53.6774 49.829 53.0906 43.6207 52.6803 37.1314C52.658 36.7729 52.4566 35.5863 52.3372 35.2427H52.3367ZM49.8403 59.7715C38.9713 60.5945 27.9019 61.4976 17.0359 62.3251L16.011 62.4012L15.8827 62.4106C15.638 62.4315 15.3938 62.4295 15.1501 62.4027C13.6478 62.2525 12.33 61.0525 12.045 59.5701C11.9634 59.2712 11.9436 58.3676 11.9033 58.0642L11.7511 56.0149L10.5352 39.6199C10.4894 38.9863 10.6192 38.3443 10.9082 37.7799C11.3403 36.933 12.1246 36.2756 13.0376 36.0115C13.331 35.9185 13.6866 35.8837 13.988 35.8638C25.1439 35.0512 36.7996 34.2063 47.9227 33.2346C49.6791 33.0371 51.361 34.2491 51.7325 35.9792C51.7683 36.1378 51.7922 36.294 51.8066 36.4571C52.3979 42.9319 52.9907 49.4276 53.5054 55.9065C53.6784 58.0518 51.9289 59.5248 49.8398 59.771L49.8403 59.7715Z" fill="#1E1E22"/>
<path d="M47.2112 51.0608C43.5168 48.4221 38.0236 49.8111 36.2597 54.1112C33.809 60.2986 40.072 66.0146 45.8586 63.5818C48.3998 62.519 50.3582 59.675 50.3502 56.814C50.3885 54.427 49.1154 52.397 47.2112 51.0608Z" fill="white"/>
<path d="M42.015 64.0771C41.476 62.6801 38.1645 58.2258 38.1645 58.2258C38.1645 58.2258 38.0595 60.1613 37.4071 60.2205C37.1107 60.2473 36.6994 60.028 36.3389 59.7809C37.3613 62.0456 39.53 63.7081 42.015 64.0771Z" fill="#DCDCDC"/>
<path d="M37.3174 57.196V57.9091L36.0384 57.9842L35.8887 57.1064L37.3174 57.196Z" fill="#DCDCDC"/>
<path d="M36.417 54.5015L36.8437 53.7133L38.4798 54.9893L38.2664 55.3255L36.417 54.5015Z" fill="#DCDCDC"/>
<path d="M38.5654 51.833L40.1011 53.4721L40.4005 53.1165L39.0901 51.3566L38.5654 51.833Z" fill="#DCDCDC"/>
<path d="M41.4043 50.3108L42.7734 52.2179L43.1712 51.937L42.0155 50.177L41.4043 50.3108Z" fill="#DCDCDC"/>
<path d="M47.2112 51.0608C43.5168 48.4221 38.0236 49.8111 36.2597 54.1112C33.809 60.2986 40.072 66.0146 45.8586 63.5818C48.3998 62.519 50.3582 59.675 50.3502 56.814C50.3885 54.427 49.1154 52.397 47.2112 51.0608ZM47.7598 61.8343C45.7885 63.6857 42.7992 64.2009 40.3465 63.1675C37.9142 62.1898 36.1249 59.6402 36.1856 56.9075C36.2726 52.0539 41.1994 49.173 45.4309 50.7395C47.9597 51.6237 49.8882 54.0809 49.8862 56.9075C49.9106 58.7714 49.101 60.6029 47.7603 61.8343H47.7598Z" fill="#1E1E22"/>
<path d="M42.8791 50.9174C42.6876 50.6618 42.5011 50.4027 42.3077 50.1486C42.2157 50.0283 42.1252 49.9049 42.0342 49.7821C41.8537 49.805 41.6746 49.8343 41.4961 49.8701C41.6154 50.0695 41.7423 50.265 41.8631 50.4609C42.0322 50.7344 42.2112 51.001 42.3892 51.268C42.5767 51.549 42.7483 51.8752 43.0213 52.0766C43.254 52.2482 43.5032 51.9851 43.4197 51.7375C43.3157 51.4282 43.0705 51.1731 42.8791 50.9169V50.9174Z" fill="#1E1E22"/>
<path d="M38.8057 51.6315C39.0201 51.9055 39.2344 52.18 39.4472 52.455C39.6685 52.741 39.868 53.0776 40.1539 53.2955C40.3031 53.4088 40.5453 53.3537 40.6681 53.2268C40.8113 53.0791 40.8113 52.8767 40.7342 52.6967C40.5975 52.3755 40.2822 52.0875 40.0614 51.8215C39.8401 51.5549 39.6158 51.2913 39.3866 51.0323C39.309 50.9442 39.2314 50.8557 39.1538 50.7677C38.9211 50.9059 38.6958 51.0581 38.4795 51.2227C38.5884 51.359 38.6983 51.4942 38.8057 51.632V51.6315Z" fill="#1E1E22"/>
<path d="M38.6389 54.4051C38.243 53.9665 37.6582 53.7059 37.1544 53.418C37.0187 53.3404 36.8774 53.2543 36.7322 53.1693C36.6094 53.3742 36.4965 53.5875 36.3936 53.8088C36.5278 53.8998 36.6611 53.9864 36.7839 54.0719C37.2628 54.4056 37.7512 54.8189 38.3121 54.9845C38.6443 55.0824 38.8626 54.6523 38.6394 54.4051H38.6389Z" fill="#1E1E22"/>
<path d="M37.3371 56.8501C37.1571 56.8491 36.9771 56.8501 36.797 56.8526C36.4619 56.8571 36.078 56.8317 35.7149 56.8616C35.7139 57.0729 35.7219 57.2823 35.7393 57.4892C36.0765 57.5066 36.4261 57.4862 36.7394 57.5046C36.9278 57.5155 37.1163 57.5295 37.3048 57.5444C37.3098 57.3042 37.3207 57.0704 37.3366 56.8501H37.3371Z" fill="#1E1E22"/>
<path d="M37.514 59.5516C37.3295 59.6208 37.146 59.6954 36.962 59.7605C36.7825 59.8242 36.5985 59.8808 36.417 59.945C36.5234 60.1653 36.6403 60.3791 36.7676 60.587C36.9143 60.5418 37.0595 60.4915 37.2037 60.4438C37.3962 60.3801 37.5931 60.318 37.7861 60.2464C37.6946 60.0549 37.5961 59.8192 37.5135 59.5516H37.514Z" fill="#1E1E22"/>
<path d="M43.7816 64.1736C47.3905 64.1736 50.3161 61.1976 50.3161 57.5267C50.3161 53.8557 47.3905 50.8798 43.7816 50.8798C40.1727 50.8798 37.2471 53.8557 37.2471 57.5267C37.2471 61.1976 40.1727 64.1736 43.7816 64.1736Z" fill="white"/>
<path d="M49.3258 58.3551C48.9896 59.6839 47.4112 62.7935 42.7723 62.3763C39.7702 62.1063 38.0788 59.6277 37.2588 57.912C37.4552 61.4036 40.3008 64.173 43.7824 64.173C47.264 64.173 50.3169 61.1972 50.3169 57.5261C50.3169 56.2809 49.9797 55.1157 49.3939 54.1191C49.4998 55.6205 49.5789 57.3541 49.3258 58.3546V58.3551Z" fill="#DCDCDC"/>
<path d="M47.7869 51.8331C44.3466 49.3198 39.1255 50.7072 37.4829 54.803C35.2008 60.6965 41.143 66.2016 46.5318 63.8842C48.8984 62.8717 50.722 60.1629 50.7145 57.4377C50.7499 55.164 49.5598 53.1057 47.7864 51.8331H47.7869ZM48.3026 62.2197C46.4666 63.9831 43.6832 64.474 41.3991 63.4898C39.1339 62.5584 37.4675 60.1301 37.5242 57.5267C37.6052 52.9033 42.1933 50.1592 46.1334 51.6516C48.4881 52.494 50.2844 54.8343 50.2824 57.5267C50.3053 59.3021 49.5509 61.0466 48.3026 62.2197Z" fill="#1E1E22"/>
<path d="M49.5801 57.6808C49.5771 57.6171 49.5378 57.5475 49.4742 57.5335C49.4633 57.5306 49.4523 57.5286 49.4414 57.5276C49.4394 57.5276 49.4379 57.5276 49.4359 57.5281C49.3757 57.536 49.3106 57.5699 49.2972 57.6405C49.2111 58.0875 49.146 58.5257 49.0107 58.9608C48.9406 59.1861 49.2698 59.2781 49.3434 59.0583C49.4891 58.6236 49.6 58.1452 49.5801 57.6813V57.6808Z" fill="#1E1E22"/>
<path d="M41.4 52.317C40.9524 52.506 40.5019 52.7303 40.105 53.0227C39.8002 53.247 39.3889 53.5747 39.3233 53.989C39.3059 54.0969 39.4063 54.2033 39.5068 54.1386C39.6704 54.0342 39.7947 53.8726 39.9389 53.7413C40.0826 53.6105 40.2338 53.4912 40.395 53.3857C40.7724 53.1391 41.1847 52.9794 41.587 52.7875C41.8341 52.6691 41.6561 52.2091 41.4005 52.317H41.4Z" fill="#DCDCDC"/>
<path d="M42.6257 51.8376C42.4625 51.864 42.2447 51.9088 42.1318 52.0485C42.0483 52.1519 42.0662 52.3459 42.2134 52.3772C42.3671 52.41 42.5351 52.3578 42.6913 52.3558C42.841 52.3543 42.9554 52.2141 42.9355 52.0569C42.9141 51.8874 42.7734 51.8138 42.6257 51.8376Z" fill="#DCDCDC"/>
<path d="M41.4 52.0395C40.9524 52.2284 40.5019 52.4527 40.105 52.7451C39.8002 52.9694 39.3889 53.2971 39.3233 53.7114C39.3059 53.8193 39.4063 53.9257 39.5068 53.8611C39.6704 53.7566 39.7947 53.595 39.9389 53.4637C40.0826 53.3329 40.2338 53.2136 40.395 53.1082C40.7724 52.8615 41.1847 52.7019 41.587 52.5099C41.8341 52.3915 41.6561 51.9315 41.4005 52.0395H41.4Z" fill="#1E1E22"/>
<path d="M42.6257 51.5601C42.4625 51.5864 42.2447 51.6312 42.1318 51.7709C42.0483 51.8743 42.0662 52.0683 42.2134 52.0996C42.3671 52.1324 42.5351 52.0802 42.6913 52.0782C42.841 52.0767 42.9554 51.9365 42.9355 51.7794C42.9141 51.6098 42.7734 51.5362 42.6257 51.5601Z" fill="#1E1E22"/>
<path d="M48.2545 59.2363C48.1024 58.6898 47.6399 58.2795 47.1948 57.923C47.0138 57.7837 46.9367 57.6843 46.7413 57.5619C47.5076 57.1362 48.3117 56.2331 48.3326 55.3942C48.346 54.8541 47.8492 54.4463 47.3813 54.3354C46.7179 54.1514 46.0798 54.7343 45.8178 55.2186C45.5229 55.7572 45.4612 56.1222 45.3364 56.7105C45.3245 56.7528 45.2931 56.7454 45.2762 56.717C45.0604 56.351 44.9848 56.3162 44.7531 56.0357C44.2478 55.4315 43.5745 54.9108 42.7271 54.7318C41.639 54.5175 40.5469 55.0436 39.8363 55.7716C39.4061 56.2132 39.0863 56.7394 38.9048 57.3098C38.5791 58.458 38.9526 59.7794 39.8074 60.6631C40.3902 61.2763 41.3326 61.604 42.2114 61.4936C43.847 61.3374 45.04 60.213 45.5671 58.8509C45.9312 59.4387 46.4543 60.126 47.066 60.3388C47.4101 60.4617 47.7806 60.3443 48.0114 60.0917C48.2386 59.8734 48.3386 59.5282 48.254 59.2368L48.2545 59.2363Z" fill="#DCDCDC"/>
<path d="M48.1637 58.4752C48.0115 57.9287 47.5491 57.5184 47.104 57.1618C46.923 57.0226 46.8459 56.9231 46.6504 56.8008C47.4168 56.3751 48.2209 55.472 48.2418 54.6331C48.2552 54.093 47.7584 53.6852 47.2905 53.5743C46.6271 53.3903 45.989 53.9732 45.727 54.4575C45.4321 54.9961 45.3704 55.3611 45.2456 55.9494C45.2336 55.9917 45.2023 55.9842 45.1854 55.9559C44.9696 55.5899 44.894 55.5551 44.6622 55.2746C44.157 54.6704 43.4836 54.1497 42.6362 53.9707C41.5481 53.7563 40.4561 54.2825 39.7454 55.0105C39.3153 55.4521 38.9955 55.9783 38.814 56.5487C38.4883 57.697 38.8617 59.0183 39.7166 59.902C40.2994 60.5151 41.2418 60.8429 42.1205 60.7325C43.7562 60.5763 44.9492 59.4519 45.4763 58.0898C45.8403 58.6776 46.3635 59.3649 46.9752 59.5777C47.3193 59.7006 47.6898 59.5832 47.9205 59.3306C48.1478 59.1123 48.2478 58.7671 48.1632 58.4757L48.1637 58.4752Z" fill="white"/>
<path d="M42.3793 54.0819L42.251 60.5001L42.976 60.3136L43.0108 54.2047L42.3793 54.0819Z" fill="#DCDCDC"/>
<path d="M47.2892 53.5742C46.9899 53.4912 46.6965 53.5643 46.4394 53.714C47.0108 53.8562 47.2067 54.0084 47.2067 54.5808C47.2067 55.265 46.2738 55.9558 46.1091 56.3352C45.9445 56.7152 46.2195 56.835 46.2195 56.835L46.693 56.7753C47.4459 56.3402 48.2202 55.4555 48.2401 54.633C48.2535 54.0929 47.7567 53.6851 47.2887 53.5742H47.2892Z" fill="#DCDCDC"/>
<path d="M48.1627 58.4752C48.109 58.2817 48.0155 58.1052 47.8982 57.9421C47.836 58.9456 46.7131 58.3772 46.2755 57.8575C45.8195 57.3154 45.6892 56.8261 45.3784 56.9589C45.0675 57.0917 44.6831 57.9137 43.9337 58.6671C43.1838 59.4205 41.7227 59.5772 40.655 59.0356C39.7793 58.5915 39.0239 57.1772 38.7797 56.6814C38.5176 57.7978 38.8941 59.052 39.7166 59.9019C40.2994 60.5151 41.2418 60.8428 42.1205 60.7324C43.7562 60.5762 44.9492 59.4519 45.4763 58.0898C45.8403 58.6776 46.3635 59.3648 46.9752 59.5777C47.3193 59.7005 47.6898 59.5831 47.9206 59.3305C48.1478 59.1122 48.2478 58.7671 48.1632 58.4757L48.1627 58.4752Z" fill="#DCDCDC"/>
<path d="M48.1637 58.4752C48.0115 57.9287 47.5491 57.5184 47.104 57.1618C46.923 57.0226 46.8459 56.9231 46.6504 56.8008C47.4168 56.3751 48.2209 55.472 48.2418 54.6331C48.2552 54.093 47.7584 53.6852 47.2905 53.5743C46.6271 53.3903 45.989 53.9732 45.727 54.4575C45.4321 54.9961 45.3704 55.3611 45.2456 55.9494C45.2336 55.9917 45.2023 55.9842 45.1854 55.9559C44.9696 55.5899 44.894 55.5551 44.6622 55.2746C44.157 54.6704 43.4836 54.1497 42.6362 53.9707C41.5481 53.7563 40.4561 54.2825 39.7454 55.0105C39.3153 55.4521 38.9955 55.9783 38.814 56.5487C38.4883 57.697 38.8617 59.0183 39.7166 59.902C40.2994 60.5151 41.2418 60.8429 42.1205 60.7325C43.7562 60.5763 44.9492 59.4519 45.4763 58.0898C45.8403 58.6776 46.3635 59.3649 46.9752 59.5777C47.3193 59.7006 47.6898 59.5832 47.9205 59.3306C48.1478 59.1123 48.2478 58.7671 48.1632 58.4757L48.1637 58.4752ZM47.8643 58.8576C47.8057 59.0491 47.6112 59.2545 47.4058 59.3117C47.0378 59.3947 46.7181 59.0899 46.4838 58.8571C46.3043 58.6692 46.1447 58.4588 45.9975 58.242C45.8513 58.0252 45.714 57.7959 45.5972 57.5696C45.5738 57.5249 45.529 57.4891 45.4718 57.4761C45.3709 57.4533 45.2684 57.5095 45.2436 57.6025C45.2217 57.6825 45.1904 57.7745 45.1595 57.8551C44.6836 59.1212 43.5886 60.1909 42.0733 60.3023C40.4203 60.457 39.3988 59.0506 39.2432 57.6925C39.1168 56.8128 39.4829 55.9539 40.0925 55.287C40.6878 54.6296 41.6188 54.1258 42.5741 54.2636C43.3444 54.3839 43.9859 54.8927 44.5006 55.4193C44.7522 55.6764 44.9825 55.9569 45.2043 56.2369C45.2227 56.2598 45.2456 56.2951 45.2759 56.3035C45.2923 56.2995 45.2968 56.2856 45.2993 56.2707C45.3013 56.2612 45.3067 56.2384 45.3087 56.2284C45.45 55.6511 45.6444 55.0742 45.9507 54.5525C46.1989 54.1283 46.6509 53.6081 47.2392 53.7837C47.8822 53.9578 48.0275 54.4277 47.8007 54.9678C47.4978 55.668 46.8941 56.2324 46.2531 56.6899C46.184 56.7367 46.1884 56.8381 46.263 56.8789C46.8225 57.2379 47.3879 57.6587 47.7321 58.2057C47.8514 58.4056 47.9315 58.6393 47.8643 58.8581V58.8576Z" fill="#1E1E22"/>
<path d="M42.3506 60.4853C42.4336 59.3763 42.4276 58.2598 42.4555 57.1499C42.4704 56.5491 42.4893 55.9479 42.5003 55.3467C42.5077 54.9419 42.541 54.5182 42.5216 54.1049C42.5047 54.1024 42.4883 54.0994 42.4714 54.0975C42.3834 54.0875 42.2949 54.082 42.2068 54.082C42.1661 54.4993 42.179 54.9294 42.1661 55.3397C42.1472 55.9404 42.1372 56.5417 42.1228 57.1429C42.0954 58.2668 42.0343 59.3957 42.0651 60.5206C42.1268 60.5156 42.1889 60.5091 42.2526 60.5007C42.2859 60.4962 42.3182 60.4907 42.3511 60.4858L42.3506 60.4853Z" fill="#1E1E22"/>
<path d="M41.5975 56.6716C41.2643 56.0201 40.2021 56.3896 40.3428 57.145C40.5328 57.9879 42.0008 57.4941 41.5975 56.6716Z" fill="#DCDCDC"/>
<path d="M41.2538 56.4328C40.9206 55.7814 39.8584 56.1509 39.9991 56.9062C40.1891 57.7492 41.6571 57.2554 41.2538 56.4328Z" fill="#1E1E22"/>
<path d="M53.0729 11.7404C50.1105 9.6244 45.7064 10.7383 44.2921 14.1861C42.3273 19.1472 47.349 23.7298 51.9883 21.7794C54.0262 20.927 55.5962 18.6469 55.5897 16.3529C55.6201 14.4388 54.5996 12.8111 53.0729 11.7399V11.7404Z" fill="white"/>
<path d="M48.9072 22.1768C48.4751 21.0568 45.82 17.4852 45.82 17.4852C45.82 17.4852 45.736 19.0368 45.2128 19.0845C44.9751 19.1059 44.6454 18.9304 44.3564 18.7325C45.1765 20.5486 46.9151 21.8814 48.9077 22.1768H48.9072Z" fill="#DCDCDC"/>
<path d="M45.1399 16.6596V17.2315L44.1145 17.2917L43.9941 16.588L45.1399 16.6596Z" fill="#DCDCDC"/>
<path d="M44.4189 14.4994L44.7611 13.8673L46.0725 14.8908L45.9019 15.1603L44.4189 14.4994Z" fill="#DCDCDC"/>
<path d="M46.1396 12.36L47.3705 13.6738L47.6107 13.3889L46.5599 11.9775L46.1396 12.36Z" fill="#DCDCDC"/>
<path d="M48.416 11.1396L49.5136 12.6683L49.8323 12.4431L48.9059 11.0322L48.416 11.1396Z" fill="#DCDCDC"/>
<path d="M53.0729 11.7404C50.1105 9.6244 45.7064 10.7383 44.2921 14.1861C42.3273 19.1472 47.349 23.7298 51.9883 21.7794C54.0262 20.927 55.5962 18.6469 55.5897 16.3529C55.6201 14.4388 54.5996 12.8111 53.0729 11.7399V11.7404ZM53.5125 20.379C51.9316 21.8634 49.5351 22.2767 47.5688 21.4477C45.6184 20.664 44.1837 18.6196 44.2329 16.4284C44.3025 12.5366 48.2531 10.2271 51.6457 11.4833C53.6732 12.1925 55.2193 14.1623 55.2178 16.4284C55.2377 17.9228 54.5882 19.3914 53.513 20.379H53.5125Z" fill="#1E1E22"/>
<path d="M49.6002 11.626C49.447 11.4211 49.2973 11.2132 49.1417 11.0098C49.0681 10.9134 48.9955 10.8144 48.9224 10.7159C48.7777 10.7343 48.6339 10.7577 48.4912 10.7866C48.5872 10.9467 48.6886 11.1033 48.7856 11.26C48.9209 11.4793 49.0651 11.6931 49.2078 11.907C49.358 12.1323 49.4958 12.3938 49.7146 12.5555C49.9011 12.6932 50.101 12.4824 50.0343 12.2834C49.9508 12.0353 49.7544 11.8309 49.6012 11.6255L49.6002 11.626Z" fill="#1E1E22"/>
<path d="M46.3338 12.1984C46.5054 12.4182 46.6775 12.638 46.8485 12.8588C47.0261 13.088 47.1857 13.3581 47.415 13.5326C47.5343 13.6236 47.7288 13.5794 47.8272 13.4779C47.9421 13.3595 47.9421 13.1974 47.8804 13.0527C47.7705 12.7951 47.5179 12.5644 47.3409 12.351C47.1633 12.1372 46.9838 11.9263 46.7998 11.718C46.7377 11.6473 46.6755 11.5767 46.6133 11.5056C46.4268 11.6165 46.2458 11.7384 46.0723 11.8701C46.1598 11.979 46.2478 12.088 46.3338 12.1984Z" fill="#1E1E22"/>
<path d="M46.2006 14.4218C45.8833 14.0702 45.4144 13.8608 45.0106 13.6301C44.9017 13.5679 44.7888 13.4988 44.6719 13.4307C44.5734 13.5948 44.4829 13.7658 44.4004 13.9434C44.5083 14.0165 44.6152 14.0861 44.7132 14.1542C45.0971 14.4218 45.4885 14.7535 45.9385 14.8858C46.2051 14.9643 46.3796 14.6197 46.2006 14.4213V14.4218Z" fill="#1E1E22"/>
<path d="M45.1559 16.3826C45.0117 16.3821 44.8675 16.3826 44.7233 16.3846C44.4547 16.3881 44.1469 16.3677 43.8555 16.392C43.855 16.5616 43.861 16.7297 43.8749 16.8953C44.1449 16.9092 44.4254 16.8928 44.6765 16.9077C44.8277 16.9167 44.9789 16.9276 45.1301 16.9396C45.1341 16.7471 45.1425 16.5596 45.1559 16.3826Z" fill="#1E1E22"/>
<path d="M45.2967 18.5485C45.1485 18.6042 45.0018 18.6638 44.8541 18.7161C44.7104 18.7673 44.5627 18.8125 44.417 18.8643C44.502 19.0408 44.596 19.2124 44.698 19.379C44.8153 19.3427 44.9322 19.3024 45.0481 19.2641C45.2022 19.2129 45.3604 19.1631 45.515 19.1059C45.4419 18.9523 45.3629 18.7633 45.2962 18.549L45.2967 18.5485Z" fill="#1E1E22"/>
<path d="M50.3235 22.2542C53.2173 22.2542 55.5631 19.8681 55.5631 16.9247C55.5631 13.9812 53.2173 11.5951 50.3235 11.5951C47.4298 11.5951 45.084 13.9812 45.084 16.9247C45.084 19.8681 47.4298 22.2542 50.3235 22.2542Z" fill="white"/>
<path d="M54.7682 17.5892C54.4987 18.6544 53.2331 21.1479 49.5138 20.8132C47.1068 20.5969 45.7507 18.6096 45.0928 17.2341C45.2504 20.0334 47.5315 22.2539 50.3234 22.2539C53.1152 22.2539 55.5629 19.8678 55.5629 16.9243C55.5629 15.9257 55.2929 14.9913 54.8229 14.1926C54.908 15.3966 54.9711 16.786 54.7682 17.5887V17.5892Z" fill="#DCDCDC"/>
<path d="M53.5337 12.36C50.7752 10.3444 46.5889 11.4574 45.2721 14.7411C43.4425 19.4664 48.2071 23.8804 52.5277 22.022C54.4254 21.2104 55.8874 19.0382 55.8815 16.8531C55.9098 15.03 54.9555 13.3799 53.5337 12.3595V12.36ZM53.9475 20.6878C52.4755 22.1021 50.2436 22.4949 48.412 21.7057C46.5959 20.9588 45.2596 19.0119 45.3054 16.9247C45.3705 13.2178 49.0491 11.0178 52.2084 12.2143C54.0967 12.8896 55.5363 14.7664 55.5349 16.9247C55.5533 18.3485 54.9485 19.7469 53.9475 20.6878Z" fill="#1E1E22"/>
<path d="M54.9702 17.0484C54.9682 16.9972 54.9364 16.9415 54.8856 16.93C54.8772 16.9275 54.8682 16.926 54.8593 16.925C54.8578 16.925 54.8563 16.925 54.8548 16.9255C54.8066 16.932 54.7544 16.9589 54.7434 17.0156C54.6743 17.3741 54.6221 17.7252 54.5137 18.0743C54.4575 18.2548 54.721 18.3289 54.7802 18.1524C54.8971 17.8038 54.9861 17.4204 54.9702 17.0479V17.0484Z" fill="#1E1E22"/>
<path d="M48.4122 12.7477C48.0531 12.8989 47.6921 13.0794 47.3738 13.3131C47.1291 13.4931 46.7999 13.7557 46.7467 14.0879C46.7328 14.1744 46.8133 14.26 46.8939 14.2082C47.0252 14.1242 47.1246 13.9949 47.2405 13.8895C47.3559 13.7845 47.4767 13.6891 47.606 13.6045C47.9084 13.4066 48.2391 13.2788 48.5618 13.1246C48.7603 13.0296 48.617 12.6611 48.4122 12.7477Z" fill="#DCDCDC"/>
<path d="M49.3945 12.3633C49.2637 12.3842 49.0891 12.4205 48.9986 12.5324C48.932 12.6154 48.9464 12.7711 49.0643 12.796C49.1876 12.8223 49.3224 12.78 49.4477 12.7785C49.5675 12.7771 49.6596 12.6647 49.6431 12.5389C49.6257 12.4031 49.5128 12.3439 49.3945 12.3628V12.3633Z" fill="#DCDCDC"/>
<path d="M48.4122 12.525C48.0531 12.6762 47.6921 12.8567 47.3738 13.0904C47.1291 13.2705 46.7999 13.533 46.7467 13.8652C46.7328 13.9518 46.8133 14.0373 46.8939 13.9856C47.0252 13.9015 47.1246 13.7722 47.2405 13.6668C47.3559 13.5619 47.4767 13.4664 47.606 13.3819C47.9084 13.1839 48.2391 13.0561 48.5618 12.902C48.7603 12.807 48.617 12.4385 48.4122 12.525Z" fill="#1E1E22"/>
<path d="M49.3945 12.1405C49.2637 12.1614 49.0891 12.1977 48.9986 12.3096C48.932 12.3927 48.9464 12.5483 49.0643 12.5732C49.1876 12.5995 49.3224 12.5573 49.4477 12.5558C49.5675 12.5543 49.6596 12.4419 49.6431 12.3161C49.6257 12.1803 49.5128 12.1211 49.3945 12.14V12.1405Z" fill="#1E1E22"/>
<path d="M53.9087 18.2956C53.7869 17.8575 53.4159 17.5283 53.0593 17.2423C52.9141 17.1304 52.8524 17.0509 52.6953 16.9529C53.31 16.6118 53.9544 15.8872 53.9714 15.2148C53.9823 14.7817 53.5835 14.455 53.2085 14.366C52.6764 14.2183 52.1647 14.6857 51.9548 15.0741C51.7186 15.5058 51.6689 15.7987 51.5689 16.2701C51.5595 16.3039 51.5341 16.298 51.5207 16.2751C51.3476 15.9817 51.2869 15.9538 51.1014 15.7291C50.6961 15.2447 50.1566 14.8269 49.4768 14.6837C48.604 14.5122 47.7288 14.9339 47.1589 15.5177C46.8137 15.8718 46.5576 16.2935 46.4119 16.751C46.1508 17.6715 46.4502 18.7312 47.1355 19.4399C47.6029 19.9317 48.3583 20.1943 49.063 20.1058C50.3744 19.9805 51.3307 19.0794 51.7534 17.9868C52.0453 18.4582 52.465 19.0092 52.9554 19.1798C53.2314 19.2783 53.5283 19.1843 53.7138 18.9814C53.8958 18.8063 53.9763 18.5293 53.9082 18.2956H53.9087Z" fill="#DCDCDC"/>
<path d="M53.8374 17.6856C53.7156 17.2475 53.3446 16.9183 52.988 16.6324C52.8428 16.5205 52.7811 16.4409 52.624 16.3429C53.2387 16.0018 53.8832 15.2772 53.9001 14.6049C53.911 14.1717 53.5122 13.845 53.1372 13.756C52.6051 13.6083 52.0934 14.0757 51.8835 14.4641C51.6473 14.8958 51.5976 15.1887 51.4976 15.6601C51.4882 15.6939 51.4628 15.688 51.4494 15.6651C51.2763 15.3717 51.2157 15.3438 51.0302 15.1191C50.6249 14.6347 50.0853 14.217 49.4055 14.0737C48.5327 13.9022 47.6575 14.3239 47.0876 14.9077C46.7424 15.2618 46.4863 15.6835 46.3406 16.141C46.0795 17.0615 46.3789 18.1213 47.0642 18.8299C47.5317 19.3217 48.2871 19.5843 48.9917 19.4958C50.3031 19.3705 51.2594 18.4694 51.6821 17.3768C51.974 17.8482 52.3938 18.3993 52.8841 18.5698C53.1601 18.6683 53.457 18.5743 53.6425 18.3714C53.8245 18.1964 53.905 17.9194 53.8369 17.6856H53.8374Z" fill="white"/>
<path d="M49.2006 14.1627L49.0977 19.3088L49.679 19.1596L49.7068 14.2612L49.2006 14.1627Z" fill="#DCDCDC"/>
<path d="M53.1373 13.756C52.8976 13.6893 52.6619 13.748 52.456 13.8678C52.914 13.9817 53.0712 14.1041 53.0712 14.5626C53.0712 15.1111 52.3232 15.6651 52.1914 15.9694C52.0596 16.2738 52.28 16.3703 52.28 16.3703L52.6594 16.3225C53.2631 15.9734 53.8837 15.2643 53.9002 14.6048C53.9111 14.1717 53.5123 13.845 53.1373 13.756Z" fill="#DCDCDC"/>
<path d="M53.8372 17.6855C53.7939 17.5303 53.7193 17.3886 53.6248 17.2578C53.5751 18.0625 52.6745 17.6064 52.3239 17.1902C51.9579 16.7556 51.8539 16.3632 51.6043 16.4696C51.3551 16.576 51.0468 17.2354 50.4456 17.8392C49.8443 18.4429 48.6727 18.5687 47.8164 18.1346C47.1142 17.7785 46.5085 16.6442 46.313 16.2473C46.1032 17.1425 46.405 18.148 47.0639 18.8293C47.5314 19.3211 48.2868 19.5837 48.9915 19.4952C50.3029 19.3699 51.2592 18.4688 51.6819 17.3762C51.9738 17.8476 52.3935 18.3986 52.8838 18.5692C53.1598 18.6677 53.4567 18.5737 53.6422 18.3708C53.8242 18.1957 53.9048 17.9187 53.8367 17.685L53.8372 17.6855Z" fill="#DCDCDC"/>
<path d="M53.8374 17.6856C53.7156 17.2475 53.3446 16.9183 52.988 16.6324C52.8428 16.5205 52.7811 16.4409 52.624 16.3429C53.2387 16.0018 53.8832 15.2772 53.9001 14.6049C53.911 14.1717 53.5122 13.845 53.1372 13.756C52.6051 13.6083 52.0934 14.0757 51.8835 14.4641C51.6473 14.8958 51.5976 15.1887 51.4976 15.6601C51.4882 15.6939 51.4628 15.688 51.4494 15.6651C51.2763 15.3717 51.2157 15.3438 51.0302 15.1191C50.6249 14.6347 50.0853 14.217 49.4055 14.0737C48.5327 13.9022 47.6575 14.3239 47.0876 14.9077C46.7424 15.2618 46.4863 15.6835 46.3406 16.141C46.0795 17.0615 46.3789 18.1213 47.0642 18.8299C47.5317 19.3217 48.2871 19.5843 48.9917 19.4958C50.3031 19.3705 51.2594 18.4694 51.6821 17.3768C51.974 17.8482 52.3938 18.3993 52.8841 18.5698C53.1601 18.6683 53.457 18.5743 53.6425 18.3714C53.8245 18.1964 53.905 17.9194 53.8369 17.6856H53.8374ZM53.5972 17.992C53.55 18.1451 53.3943 18.3102 53.2297 18.356C52.9348 18.4226 52.6782 18.178 52.4907 17.9915C52.347 17.8408 52.2187 17.6722 52.1008 17.4981C51.984 17.3246 51.8736 17.1406 51.7801 16.9591C51.7612 16.9233 51.7254 16.8944 51.6796 16.884C51.5986 16.8656 51.5165 16.9108 51.4966 16.9849C51.4792 17.0491 51.4539 17.1227 51.4295 17.1873C51.0481 18.2028 50.1698 19.0602 48.9549 19.1497C47.6296 19.274 46.8106 18.1461 46.6858 17.057C46.5848 16.3519 46.8777 15.6631 47.3666 15.1285C47.844 14.6014 48.5904 14.1971 49.3562 14.308C49.9739 14.4044 50.4886 14.8127 50.9009 15.2344C51.1028 15.4408 51.2873 15.6651 51.4648 15.8899C51.4792 15.9083 51.4981 15.9366 51.5225 15.9431C51.5359 15.9396 51.5389 15.9287 51.5409 15.9167C51.5424 15.9093 51.5468 15.8909 51.5483 15.8829C51.6612 15.4199 51.8174 14.9574 52.0631 14.5392C52.262 14.1991 52.6245 13.7818 53.0964 13.9226C53.6121 14.0623 53.7285 14.4388 53.5465 14.8719C53.3038 15.4334 52.8199 15.8859 52.3057 16.2529C52.25 16.2902 52.254 16.3718 52.3137 16.4046C52.7623 16.6925 53.2153 17.0297 53.4918 17.4688C53.5878 17.6294 53.6519 17.8164 53.5977 17.992H53.5972Z" fill="#1E1E22"/>
<path d="M49.1756 19.2968C49.2422 18.4077 49.2372 17.5125 49.2596 16.6224C49.2715 16.1405 49.287 15.6586 49.2954 15.1767C49.3014 14.852 49.3277 14.5123 49.3128 14.1811C49.2994 14.1791 49.286 14.1766 49.2725 14.1752C49.2019 14.1672 49.1313 14.1632 49.0602 14.1627C49.0274 14.4974 49.0378 14.842 49.0274 15.1712C49.0124 15.6531 49.004 16.135 48.9926 16.6169C48.9707 17.518 48.9214 18.4231 48.9463 19.3252C48.9955 19.3212 49.0458 19.3162 49.0965 19.3093C49.1233 19.3058 49.1492 19.3013 49.1756 19.2973V19.2968Z" fill="#1E1E22"/>
<path d="M48.571 16.2388C48.3039 15.7167 47.452 16.0131 47.5649 16.6183C47.7171 17.2941 48.8942 16.8982 48.571 16.2388Z" fill="#DCDCDC"/>
<path d="M48.2966 16.0479C48.0295 15.5257 47.1776 15.8221 47.2905 16.4273C47.4427 17.1032 48.6198 16.7073 48.2966 16.0479Z" fill="#1E1E22"/>
<path d="M12.5123 22.7237C10.1397 21.0289 6.61133 21.9211 5.47848 24.6831C3.90453 28.657 7.92718 32.3281 11.6435 30.7655C13.2756 30.0828 14.5333 28.2562 14.5283 26.4187C14.5527 24.8855 13.7351 23.5816 12.5123 22.7237Z" fill="white"/>
<path d="M9.17548 31.0838C8.82936 30.1867 6.70241 27.3257 6.70241 27.3257C6.70241 27.3257 6.63527 28.5684 6.21605 28.6067C6.02558 28.6241 5.76152 28.4834 5.53027 28.3243C6.18721 29.7789 7.57964 30.8466 9.17597 31.0833L9.17548 31.0838Z" fill="#DCDCDC"/>
<path d="M6.15776 26.6644V27.1224L5.33671 27.1706L5.24023 26.6072L6.15776 26.6644Z" fill="#DCDCDC"/>
<path d="M5.58008 24.9342L5.85409 24.4275L6.90488 25.247L6.76813 25.4629L5.58008 24.9342Z" fill="#DCDCDC"/>
<path d="M6.95996 23.22L7.9461 24.2728L8.13806 24.0441L7.29663 22.9137L6.95996 23.22Z" fill="#DCDCDC"/>
<path d="M8.7832 22.2423L9.66243 23.4671L9.91755 23.2866L9.17557 22.1562L8.7832 22.2423Z" fill="#DCDCDC"/>
<path d="M12.5123 22.7237C10.1397 21.0289 6.61133 21.9211 5.47848 24.6831C3.90453 28.657 7.92718 32.3281 11.6435 30.7655C13.2756 30.0828 14.5333 28.2562 14.5283 26.4187C14.5527 24.8855 13.7351 23.5816 12.5123 22.7237ZM12.8649 29.6432C11.5987 30.8322 9.67917 31.1629 8.10373 30.4995C6.54171 29.8714 5.39245 28.2338 5.43124 26.4788C5.48693 23.3613 8.65125 21.5113 11.369 22.5173C12.9932 23.0853 14.2319 24.6637 14.2305 26.4788C14.2464 27.6758 13.7262 28.8524 12.8649 29.6432Z" fill="#1E1E22"/>
<path d="M9.73095 22.6322C9.60812 22.4681 9.48827 22.3015 9.36394 22.1384C9.30476 22.0609 9.24658 21.9818 9.18839 21.9027C9.07252 21.9176 8.95715 21.9365 8.84277 21.9594C8.91936 22.0877 9.00091 22.213 9.07849 22.3388C9.1869 22.5144 9.30227 22.6855 9.41665 22.857C9.537 23.0375 9.6474 23.2469 9.82245 23.3762C9.97164 23.4866 10.1318 23.3175 10.0786 23.1584C10.0119 22.9595 9.85428 22.7959 9.73145 22.6317L9.73095 22.6322Z" fill="#1E1E22"/>
<path d="M7.11366 23.0909C7.25142 23.2669 7.38916 23.4429 7.52592 23.62C7.66815 23.8035 7.79596 24.0198 7.97996 24.1596C8.07593 24.2327 8.23159 24.1969 8.31016 24.1158C8.40216 24.0208 8.40216 23.891 8.35293 23.7752C8.26491 23.5688 8.06251 23.3838 7.92078 23.2132C7.77855 23.0421 7.63483 22.873 7.48714 22.7064C7.43741 22.6503 7.38768 22.5931 7.33745 22.5364C7.18776 22.6254 7.04304 22.7229 6.9043 22.8283C6.97442 22.9158 7.04504 23.0028 7.11366 23.0909Z" fill="#1E1E22"/>
<path d="M7.00662 24.8716C6.7525 24.5896 6.37704 24.4225 6.0533 24.2375C5.96627 24.1878 5.87527 24.1321 5.78227 24.0779C5.7032 24.2092 5.63109 24.3464 5.56445 24.4887C5.65098 24.5468 5.73652 24.603 5.81509 24.6577C6.12292 24.8721 6.43622 25.1376 6.79627 25.2441C7.00961 25.3072 7.14984 25.0307 7.00612 24.8721L7.00662 24.8716Z" fill="#1E1E22"/>
<path d="M6.17078 26.4426C6.05541 26.4421 5.93954 26.4426 5.82416 26.4441C5.60883 26.4471 5.36217 26.4307 5.12894 26.4501C5.12844 26.5858 5.13342 26.7206 5.14486 26.8534C5.36118 26.8648 5.58596 26.8514 5.78736 26.8633C5.90871 26.8703 6.02955 26.8792 6.1504 26.8887C6.15338 26.7345 6.16034 26.5843 6.17078 26.4426Z" fill="#1E1E22"/>
<path d="M6.28377 28.1771C6.16492 28.2214 6.04755 28.2696 5.9292 28.3114C5.81382 28.3522 5.69547 28.389 5.5791 28.4297C5.64723 28.571 5.72282 28.7087 5.80437 28.842C5.89836 28.8127 5.99186 28.7808 6.08485 28.75C6.20818 28.7092 6.33499 28.6694 6.45882 28.6232C6.40014 28.4999 6.33698 28.3487 6.28377 28.1771Z" fill="#1E1E22"/>
<path d="M10.3095 31.1456C12.6276 31.1456 14.5067 29.2343 14.5067 26.8767C14.5067 24.5191 12.6276 22.6079 10.3095 22.6079C7.99146 22.6079 6.1123 24.5191 6.1123 26.8767C6.1123 29.2343 7.99146 31.1456 10.3095 31.1456Z" fill="white"/>
<path d="M13.8686 27.4088C13.6527 28.2622 12.6388 30.2593 9.65943 29.9913C7.7314 29.8177 6.6448 28.2259 6.11816 27.1244C6.24448 29.3667 8.07205 31.1455 10.3079 31.1455C12.5438 31.1455 14.5051 29.2344 14.5051 26.8767C14.5051 26.0771 14.2888 25.3286 13.9123 24.6886C13.9805 25.6529 14.0312 26.7663 13.8686 27.4088Z" fill="#DCDCDC"/>
<path d="M12.881 23.22C10.6715 21.6057 7.31818 22.4969 6.26341 25.1276C4.79787 28.9131 8.61415 32.4484 12.0754 30.96C13.5956 30.31 14.7667 28.5699 14.7618 26.8194C14.7846 25.3589 14.0203 24.037 12.881 23.22ZM13.2122 29.8908C12.0331 31.0236 10.2453 31.3384 8.77826 30.7063C7.32366 30.1081 6.25297 28.5485 6.28977 26.8766C6.34199 23.9072 9.28849 22.1448 11.8192 23.1031C13.3315 23.6442 14.4853 25.1475 14.4838 26.8766C14.4987 28.0169 14.0138 29.1373 13.2122 29.8908Z" fill="#1E1E22"/>
<path d="M14.0343 26.9757C14.0323 26.9349 14.0069 26.8901 13.9667 26.8812C13.9597 26.8792 13.9527 26.8782 13.9458 26.8772C13.9448 26.8772 13.9433 26.8772 13.9423 26.8772C13.9035 26.8822 13.8617 26.904 13.8533 26.9493C13.7981 27.2362 13.7563 27.5177 13.6693 27.7972C13.6245 27.9419 13.8354 28.0011 13.8831 27.8599C13.9766 27.5809 14.0477 27.2735 14.0353 26.9752L14.0343 26.9757Z" fill="#1E1E22"/>
<path d="M8.7808 23.5309C8.49336 23.6523 8.20392 23.7965 7.94881 23.984C7.75287 24.1282 7.48881 24.3385 7.44654 24.6046C7.4356 24.6742 7.49975 24.7423 7.5644 24.7011C7.66933 24.6339 7.7494 24.53 7.8419 24.4459C7.9339 24.3619 8.03137 24.2853 8.13481 24.2177C8.37699 24.0595 8.64205 23.9566 8.90014 23.8333C9.05928 23.7572 8.94441 23.4618 8.7803 23.5314L8.7808 23.5309Z" fill="#DCDCDC"/>
<path d="M9.56791 23.2227C9.46298 23.2396 9.32324 23.2684 9.25063 23.3585C9.19692 23.4251 9.20886 23.5494 9.30335 23.5698C9.40181 23.5907 9.51022 23.5574 9.61018 23.5559C9.70616 23.5549 9.77976 23.4649 9.76683 23.3639C9.7529 23.255 9.6624 23.2078 9.56791 23.2232V23.2227Z" fill="#DCDCDC"/>
<path d="M8.7808 23.3523C8.49336 23.4737 8.20392 23.6179 7.94881 23.8054C7.75287 23.9496 7.48881 24.1599 7.44654 24.426C7.4356 24.4956 7.49975 24.5637 7.5644 24.5225C7.66933 24.4553 7.7494 24.3514 7.8419 24.2674C7.9339 24.1833 8.03137 24.1067 8.13481 24.0391C8.37699 23.881 8.64205 23.778 8.90014 23.6547C9.05928 23.5786 8.94441 23.2832 8.7803 23.3528L8.7808 23.3523Z" fill="#1E1E22"/>
<path d="M9.56791 23.0445C9.46298 23.0614 9.32324 23.0902 9.25063 23.1802C9.19692 23.2469 9.20886 23.3712 9.30335 23.3916C9.40181 23.4125 9.51022 23.3791 9.61018 23.3777C9.70616 23.3767 9.77976 23.2866 9.76683 23.1857C9.7529 23.0768 9.6624 23.0295 9.56791 23.045V23.0445Z" fill="#1E1E22"/>
<path d="M13.1808 27.975C13.0833 27.6239 12.7859 27.3603 12.5 27.1316C12.3836 27.0421 12.3344 26.9784 12.2086 26.8998C12.7009 26.6263 13.2176 26.0464 13.2305 25.5074C13.239 25.1608 12.9197 24.8987 12.6193 24.8276C12.1932 24.7092 11.7834 25.0837 11.6148 25.3945C11.4253 25.7401 11.3855 25.9748 11.3055 26.3528C11.2975 26.3801 11.2776 26.3752 11.2667 26.3568C11.1279 26.1215 11.0792 26.0992 10.931 25.9191C10.6063 25.5312 10.1741 25.1966 9.62958 25.0817C8.93038 24.9439 8.22968 25.2821 7.77266 25.7496C7.49616 26.033 7.29078 26.3712 7.17441 26.7372C6.96555 27.4747 7.20524 28.3236 7.75426 28.891C8.12872 29.2849 8.73394 29.4952 9.29838 29.4246C10.3487 29.3242 11.115 28.6021 11.4537 27.7273C11.6874 28.1048 12.0236 28.5464 12.4164 28.6831C12.6377 28.7622 12.8755 28.6866 13.0236 28.5245C13.1694 28.3843 13.234 28.1625 13.1793 27.9755L13.1808 27.975Z" fill="#DCDCDC"/>
<path d="M13.1232 27.4862C13.0257 27.1351 12.7283 26.8715 12.4424 26.6428C12.326 26.5533 12.2768 26.4896 12.151 26.4111C12.6433 26.1375 13.16 25.5577 13.1729 25.0186C13.1814 24.672 12.8621 24.4099 12.5617 24.3388C12.1355 24.2204 11.7258 24.5949 11.5572 24.9057C11.3677 25.2513 11.3279 25.4861 11.2479 25.864C11.2399 25.8914 11.22 25.8864 11.2091 25.868C11.0703 25.6328 11.0216 25.6104 10.8734 25.4304C10.5487 25.0425 10.1165 24.7078 9.57196 24.5929C8.87276 24.4552 8.17206 24.7933 7.71505 25.2608C7.43855 25.5443 7.23316 25.8824 7.11679 26.2484C6.90793 26.9859 7.14763 27.8348 7.69665 28.4022C8.07111 28.7961 8.67632 29.0065 9.24076 28.9358C10.2911 28.8354 11.0574 28.1133 11.3961 27.2386C11.6298 27.616 11.966 28.0576 12.3588 28.1944C12.5801 28.2734 12.8178 28.1978 12.966 28.0357C13.1117 27.8955 13.1764 27.6737 13.1217 27.4867L13.1232 27.4862Z" fill="white"/>
<path d="M9.40774 24.6644L9.3252 28.7866L9.79116 28.6672L9.81354 24.7435L9.40774 24.6644Z" fill="#DCDCDC"/>
<path d="M12.5617 24.3381C12.3697 24.2849 12.1807 24.3316 12.0161 24.4276C12.3831 24.5191 12.509 24.6166 12.509 24.9841C12.509 25.4232 11.9097 25.8673 11.8043 26.111C11.6984 26.3552 11.8754 26.4317 11.8754 26.4317L12.1792 26.3934C12.6626 26.114 13.1599 25.5461 13.1729 25.0174C13.1813 24.6708 12.862 24.4087 12.5617 24.3376V24.3381Z" fill="#DCDCDC"/>
<path d="M13.1231 27.4861C13.0883 27.3618 13.0286 27.2484 12.953 27.1435C12.9132 27.788 12.1916 27.4229 11.9107 27.0893C11.6177 26.7411 11.5342 26.4269 11.3343 26.5119C11.1344 26.5974 10.8877 27.1251 10.4063 27.6089C9.92494 28.0928 8.98653 28.1933 8.30026 27.8456C7.73782 27.5602 7.25245 26.6521 7.0958 26.3339C6.92771 27.051 7.1694 27.8566 7.69753 28.4021C8.07199 28.796 8.67721 29.0064 9.24165 28.9357C10.2919 28.8353 11.0583 28.1132 11.3969 27.2384C11.6307 27.6159 11.9668 28.0575 12.3597 28.1943C12.581 28.2733 12.8187 28.1977 12.9669 28.0356C13.1126 27.8954 13.1773 27.6736 13.1226 27.4866L13.1231 27.4861Z" fill="#DCDCDC"/>
<path d="M13.1232 27.4862C13.0257 27.1351 12.7283 26.8715 12.4424 26.6428C12.326 26.5533 12.2768 26.4896 12.151 26.4111C12.6433 26.1375 13.16 25.5577 13.1729 25.0186C13.1814 24.672 12.8621 24.4099 12.5617 24.3388C12.1355 24.2204 11.7258 24.5949 11.5572 24.9057C11.3677 25.2513 11.3279 25.4861 11.2479 25.864C11.2399 25.8914 11.22 25.8864 11.2091 25.868C11.0703 25.6328 11.0216 25.6104 10.8734 25.4304C10.5487 25.0425 10.1165 24.7078 9.57196 24.5929C8.87276 24.4552 8.17206 24.7933 7.71505 25.2608C7.43855 25.5443 7.23316 25.8824 7.11679 26.2484C6.90793 26.9859 7.14763 27.8348 7.69665 28.4022C8.07111 28.7961 8.67632 29.0065 9.24076 28.9358C10.2911 28.8354 11.0574 28.1133 11.3961 27.2386C11.6298 27.616 11.966 28.0576 12.3588 28.1944C12.5801 28.2734 12.8178 28.1978 12.966 28.0357C13.1117 27.8955 13.1764 27.6737 13.1217 27.4867L13.1232 27.4862ZM12.9307 27.7319C12.8929 27.8547 12.7681 27.987 12.6363 28.0238C12.4001 28.077 12.1942 27.8811 12.0445 27.7319C11.9292 27.611 11.8267 27.4763 11.7322 27.3365C11.6382 27.1973 11.5502 27.0501 11.4751 26.9049C11.4602 26.876 11.4314 26.8531 11.3946 26.8447C11.3294 26.8298 11.2638 26.8661 11.2479 26.9257C11.2339 26.9775 11.2135 27.0362 11.1937 27.0879C10.8883 27.901 10.1846 28.5877 9.21142 28.6598C8.14968 28.7593 7.49374 27.8557 7.39379 26.9839C7.31273 26.419 7.54746 25.8675 7.93933 25.4388C8.32175 25.0166 8.9195 24.6929 9.53317 24.7814C10.028 24.859 10.4402 25.1857 10.7705 25.5234C10.9321 25.6885 11.0798 25.8685 11.222 26.0485C11.2339 26.0629 11.2489 26.0858 11.2682 26.0913C11.2787 26.0888 11.2817 26.0798 11.2832 26.0704C11.2847 26.0644 11.2881 26.0495 11.2891 26.043C11.3796 25.6726 11.505 25.3016 11.7014 24.9669C11.861 24.6944 12.151 24.3602 12.5289 24.4731C12.9417 24.585 13.0352 24.8868 12.8894 25.2334C12.695 25.6835 12.3071 26.0455 11.8953 26.3394C11.8511 26.3693 11.8541 26.4349 11.9018 26.4608C12.2614 26.691 12.6244 26.9616 12.8452 27.3131C12.9218 27.4415 12.9735 27.5916 12.9302 27.7324L12.9307 27.7319Z" fill="#1E1E22"/>
<path d="M9.3884 28.7771C9.44161 28.065 9.43813 27.3479 9.45554 26.6347C9.46498 26.2488 9.47741 25.8629 9.48438 25.4765C9.48935 25.2164 9.51024 24.9444 9.4983 24.6789C9.48736 24.6774 9.47692 24.6754 9.46598 24.6744C9.40928 24.6679 9.35259 24.6644 9.2959 24.6644C9.26954 24.9325 9.278 25.209 9.26955 25.472C9.25761 25.8579 9.25114 26.2439 9.24169 26.6303C9.22429 27.3523 9.18451 28.0774 9.20489 28.7995C9.24468 28.7965 9.28446 28.792 9.32524 28.7866C9.34663 28.7836 9.36751 28.7801 9.3884 28.7771Z" fill="#1E1E22"/>
<path d="M8.9041 26.3274C8.68977 25.9092 8.00797 26.1464 8.09798 26.6313C8.21982 27.1729 9.1627 26.8556 8.9041 26.3274Z" fill="#DCDCDC"/>
<path d="M8.68438 26.1743C8.47005 25.756 7.78824 25.9932 7.87826 26.4781C8.00009 27.0197 8.94298 26.7024 8.68438 26.1743Z" fill="#1E1E22"/>
<path d="M57.9731 42.9008C58.2329 40.5662 56.4573 38.4525 54.0071 38.1798C51.557 37.9072 49.3601 39.5788 49.1003 41.9134C48.8405 44.2481 50.6161 46.3618 53.0663 46.6344C55.5164 46.9071 57.7133 45.2355 57.9731 42.9008Z" fill="white"/>
<path d="M49.8691 44.7913C50.5828 45.7814 51.7226 46.4861 53.0668 46.6358C55.517 46.9083 57.7135 45.2369 57.9736 42.9026C58.2332 40.5677 56.4579 38.4542 54.0077 38.1817C53.7376 38.1519 53.4706 38.1464 53.2085 38.1618C53.5775 38.4512 55.0018 39.2161 55.1917 40.4981C55.5289 42.7728 54.3772 44.2333 53.2259 44.9634C52.6655 45.3184 51.1054 45.3791 49.8691 44.7918V44.7913Z" fill="#DCDCDC"/>
<path d="M52.9116 37.7421C50.8254 37.9341 48.9526 39.6851 48.7676 41.8782C48.4498 45.1892 52.0697 47.815 55.0142 46.8527C56.9069 46.2345 58.2118 44.5954 58.4296 42.8126C58.7971 39.799 55.8128 37.395 52.9116 37.7421ZM50.3296 44.9252C49.6433 44.1195 49.2848 43.02 49.432 41.9518C49.703 39.7498 51.9309 38.4055 53.9589 38.6109C56.1028 38.7701 58.1621 40.5181 57.9308 42.8977C57.4912 46.6786 52.5401 47.5996 50.3296 44.9252Z" fill="#1E1E22"/>
<path d="M51.0369 43.1586C51.0309 42.8652 51.0001 42.5747 51.0637 42.2823C51.1289 41.9819 51.281 41.7442 51.4292 41.4812C51.568 41.2355 51.2482 41.0092 51.0533 41.1997C50.551 41.6895 50.3685 42.6558 50.7062 43.2605C50.7927 43.4152 51.0404 43.3381 51.0369 43.1586Z" fill="#DCDCDC"/>
<path d="M51.8023 40.5925C51.9634 40.4965 52.1031 40.3797 52.2727 40.2976C52.5293 40.1733 52.3021 39.7575 52.0509 39.9132C51.857 40.0335 51.6645 40.2295 51.6322 40.4667C51.6188 40.5642 51.7088 40.6482 51.8023 40.5925Z" fill="#DCDCDC"/>
<path d="M50.8669 42.818C50.861 42.5246 50.8301 42.2342 50.8938 41.9417C50.9589 41.6414 51.1111 41.4037 51.2593 41.1406C51.3981 40.8949 51.0783 40.6687 50.8834 40.8591C50.3811 41.349 50.1986 42.3152 50.5362 42.9199C50.6228 43.0746 50.8704 42.9975 50.8669 42.818Z" fill="#1E1E22"/>
<path d="M51.7818 40.2679C51.9429 40.1719 52.0826 40.0551 52.2522 39.973C52.5088 39.8487 52.2815 39.433 52.0304 39.5886C51.8365 39.709 51.644 39.9049 51.6117 40.1421C51.5983 40.2396 51.6883 40.3236 51.7818 40.2679Z" fill="#1E1E22"/>
<path d="M9.43271 52.1324C11.5173 52.1324 13.2072 50.5044 13.2072 48.4961C13.2072 46.4879 11.5173 44.8599 9.43271 44.8599C7.34811 44.8599 5.6582 46.4879 5.6582 48.4961C5.6582 50.5044 7.34811 52.1324 9.43271 52.1324Z" fill="white"/>
<path d="M13.2058 48.4962C13.2058 47.5597 12.8383 46.7069 12.2351 46.0624C12.2097 46.6293 12.0869 47.1356 11.9904 47.4314C11.7363 48.2107 10.2101 49.9945 7.82004 49.8394C6.86523 49.7772 6.23266 49.6593 5.81543 49.54C6.2809 51.0393 7.72357 52.1324 9.43129 52.1324C11.516 52.1324 13.2058 50.5043 13.2058 48.4962Z" fill="#DCDCDC"/>
<path d="M13.6138 48.4961C13.6068 47.0028 12.6361 45.4576 11.2645 44.8718C8.75116 43.7783 5.41081 45.7133 5.3745 48.4961C5.32875 51.3745 8.5617 53.4204 11.1735 52.2408C12.5719 51.6117 13.6501 50.0174 13.6138 48.4961ZM13.1707 48.4961C13.1647 49.9468 12.0975 51.1796 10.7458 51.5903C8.56916 52.3219 5.99414 50.9006 5.93993 48.4961C5.91805 45.9888 8.51992 44.4357 10.8045 45.2513C12.1825 45.7138 13.2035 47.0187 13.1702 48.4961H13.1707Z" fill="#1E1E22"/>
<path d="M11.4351 49.5176C11.1014 49.6986 10.8582 50.0238 10.5414 50.2357C10.2833 50.4082 9.88848 50.4918 9.69255 50.7325C9.60701 50.8379 9.60651 50.9945 9.73581 51.0701C10.0824 51.272 10.535 51.0398 10.8378 50.8473C11.1999 50.6176 11.6251 50.2973 11.8339 49.9164C11.9757 49.6578 11.6927 49.3773 11.4346 49.5171L11.4351 49.5176Z" fill="#1E1E22"/>
<path d="M12.3704 48.4047C12.3088 48.2983 12.1725 48.2923 12.0865 48.3679C12.0208 48.4256 11.994 48.5042 11.9542 48.5793C11.9164 48.6509 11.8796 48.7215 11.8329 48.7882C11.7528 48.9035 11.8115 49.0766 11.9259 49.1437C12.0427 49.2123 12.2158 49.1751 12.2814 49.0507C12.3779 48.8667 12.4848 48.6022 12.3704 48.4047Z" fill="#1E1E22"/>
</g>
</g>
<defs>
<radialGradient id="paint0_radial_457_81412" cx="0" cy="0" r="1" gradientUnits="userSpaceOnUse" gradientTransform="translate(-33.6693 -1.28512) rotate(90) scale(89.0251)">
<stop offset="0.265" stop-color="#D27C71"/>
<stop offset="1" stop-color="#D27C71" stop-opacity="0"/>
</radialGradient>
<radialGradient id="paint1_radial_457_81412" cx="0" cy="0" r="1" gradientUnits="userSpaceOnUse" gradientTransform="translate(106.061 126.312) rotate(90) scale(126.144)">
<stop stop-color="#B68EFF"/>
<stop offset="1" stop-color="#B68EFF" stop-opacity="0"/>
</radialGradient>
<clipPath id="clip0_457_81412">
<rect width="64" height="64" rx="32" fill="white"/>
</clipPath>
<clipPath id="clip1_457_81412">
<rect width="64" height="64" fill="white"/>
</clipPath>
</defs>
</svg>
