<svg width="64" height="64" viewBox="0 0 64 64" fill="none" xmlns="http://www.w3.org/2000/svg">
<g clip-path="url(#clip0_457_81333)">
<rect width="64" height="64" rx="32" fill="#8B47F4"/>
<mask id="mask0_457_81333" style="mask-type:alpha" maskUnits="userSpaceOnUse" x="0" y="0" width="64" height="64">
<circle cx="32" cy="32" r="32" fill="#8B47F4"/>
</mask>
<g mask="url(#mask0_457_81333)">
<circle cx="-33.6693" cy="-1.28512" r="89.0251" fill="url(#paint0_radial_457_81333)"/>
<circle cx="106.061" cy="126.312" r="126.144" fill="url(#paint1_radial_457_81333)"/>
</g>
<g clip-path="url(#clip1_457_81333)">
<path d="M22.3222 23.7739C22.3433 23.7811 22.364 23.7878 22.3857 23.7935C22.7903 23.9041 26.9212 25.15 28.6394 30.2204C29.9541 34.1001 29.8895 37.2027 29.7561 38.6062C29.7117 39.0749 29.335 39.4428 28.8653 39.478L-5.56846 42.0426C-6.09968 42.0824 -6.56321 41.685 -6.60403 41.1543C-6.85259 37.936 -6.83553 27.5498 3.26696 24.6281C14.8101 21.2899 21.8018 23.592 22.3227 23.7739H22.3222Z" fill="#1E1E22"/>
<path d="M8.40465 49.3933C8.40465 49.3933 3.25574 50.7942 0.935006 58.6519C-1.38572 66.5097 2.2672 67.4843 3.66914 67.6667C5.07109 67.8496 6.13973 64.0122 6.54951 62.5503C6.9593 61.0884 8.40465 49.3933 8.40465 49.3933Z" fill="white"/>
<path d="M8.33772 49.2637C7.50575 49.5179 6.7208 50.0833 6.00923 50.5788C4.63157 51.5555 3.50196 52.8561 2.61366 54.286C1.07271 56.7907 -0.177311 60.6472 -0.00213215 63.5984C0.0965673 65.2701 0.785914 66.8456 2.4204 67.5133C2.83948 67.6833 3.27872 67.7913 3.72778 67.8331C4.00786 67.8445 4.27399 67.7148 4.47914 67.5422C4.84242 67.2342 5.08425 66.8363 5.30491 66.4286C5.51677 66.0271 5.69247 65.6121 5.85215 65.1931C6.233 64.1373 6.58284 63.0708 6.79419 61.9727C7.20449 59.5584 7.63803 57.2092 7.94757 54.7816C8.11396 53.4173 8.53409 51.0005 8.68911 49.659C8.70048 49.5582 8.7134 49.1469 8.45605 49.2285C8.44985 49.2265 8.3372 49.2642 8.3372 49.2642L8.33772 49.2637ZM6.89081 59.9584C6.76731 60.7237 6.65466 61.4931 6.4924 62.2502C6.25263 63.2149 5.94413 64.1678 5.59067 65.0913C5.42893 65.501 5.2522 65.9046 5.04394 66.2875C4.84034 66.656 4.60367 67.0327 4.28174 67.2988C4.11534 67.4342 3.93138 67.52 3.74173 67.5112C3.65544 67.5029 3.56036 67.4885 3.47354 67.4719C2.74182 67.3453 2.03077 67.0306 1.50523 66.4989C-0.20883 64.7316 0.415923 61.521 0.96988 59.36C1.75069 56.3979 3.10924 53.4959 5.37416 51.3803C6.24178 50.5793 7.22619 49.8698 8.33256 49.4404L8.37131 49.4265L8.38888 49.4203C7.89848 52.8696 7.43444 56.5204 6.89081 59.9579V59.9584Z" fill="#1E1E22"/>
<path d="M4.94568 52.8452C4.86868 52.9522 4.81443 53.0731 4.75397 53.1899C4.69454 53.3051 4.62064 53.4121 4.61443 53.5438C4.60772 53.6803 4.79426 53.7562 4.88625 53.6565C4.97513 53.5599 4.99943 53.4327 5.03922 53.3103C5.08004 53.1852 5.12809 53.0617 5.14979 52.9315C5.1715 52.8054 5.02113 52.7403 4.94516 52.8452H4.94568Z" fill="#DCDCDC"/>
<path d="M3.2639 55.1809C3.082 55.3364 2.97607 55.5777 2.88048 55.7932C2.78126 56.0175 2.67067 56.2542 2.62778 56.496C2.5761 56.7854 2.96263 56.8918 3.0665 56.6169C3.15331 56.388 3.20189 56.1451 3.28612 55.9141C3.36311 55.7038 3.46491 55.4987 3.49127 55.2749C3.50625 55.1493 3.34141 55.1147 3.2639 55.1809Z" fill="#DCDCDC"/>
<path d="M4.02441 57.1311C3.88747 57.2867 3.83994 57.4944 3.77069 57.6871C3.68491 57.9269 3.60739 58.1693 3.52884 58.4116C3.43273 58.7072 3.93243 58.839 3.98979 58.5387C4.03733 58.2881 4.08642 58.0375 4.12673 57.7853C4.15877 57.5843 4.21872 57.3714 4.17376 57.1709C4.15981 57.1073 4.06834 57.082 4.02493 57.1316L4.02441 57.1311Z" fill="#DCDCDC"/>
<path d="M4.89196 52.4137C4.81496 52.5206 4.7607 52.6416 4.70024 52.7583C4.64082 52.8736 4.56692 52.9806 4.56072 53.1123C4.55401 53.2487 4.74055 53.3247 4.83254 53.225C4.92142 53.1283 4.9457 53.0012 4.98549 52.8787C5.02631 52.7537 5.07437 52.6302 5.09607 52.5C5.11777 52.3739 4.9674 52.3088 4.89144 52.4137H4.89196Z" fill="#1E1E22"/>
<path d="M3.20921 54.7495C3.02732 54.905 2.92139 55.1463 2.82579 55.3618C2.72657 55.5861 2.61598 55.8228 2.57309 56.0646C2.52141 56.354 2.90794 56.4604 3.01181 56.1855C3.09862 55.9566 3.1472 55.7137 3.23143 55.4827C3.30843 55.2724 3.41024 55.0673 3.43659 54.8435C3.45158 54.718 3.28673 54.6833 3.20921 54.7495Z" fill="#1E1E22"/>
<path d="M3.97069 56.6996C3.83375 56.8551 3.78621 57.0629 3.71697 57.2556C3.63119 57.4954 3.55368 57.7377 3.47513 57.9801C3.37902 58.2757 3.87871 58.4075 3.93607 58.1072C3.98361 57.8566 4.0327 57.606 4.073 57.3538C4.10504 57.1528 4.16499 56.9399 4.12004 56.7394C4.10608 56.6758 4.01461 56.6505 3.97121 56.7001L3.97069 56.6996Z" fill="#1E1E22"/>
<path d="M16.6865 47.7092C16.6865 47.7092 23.4482 48.9494 25.247 57.9363C27.0458 66.9231 22.4095 67.6186 21.2319 67.6729C20.0542 67.7277 18.5923 63.7683 18.5923 63.7683C18.5923 63.7683 18.5566 50.2279 16.6865 47.7092Z" fill="#DCDCDC"/>
<path d="M25.7077 59.33C25.4245 57.2289 24.8442 55.1314 23.8029 53.2747C22.3876 50.7075 19.7232 48.377 16.8795 47.5579C16.5622 47.4665 16.6754 47.6938 16.6682 47.6975C16.7152 47.7925 16.7839 47.8949 16.8361 47.9889C17.1012 48.4948 17.2604 49.0472 17.3973 49.5996C17.8582 51.5803 18.0329 53.6153 18.1853 55.6399C18.3688 58.3441 18.451 61.0586 18.4603 63.7684V63.7922L18.4685 63.8139C18.698 64.4268 18.9538 65.0231 19.2431 65.6096C19.593 66.2865 20.3526 67.8177 21.2125 67.8311C23.8825 67.705 25.3703 65.7626 25.7444 63.2584C25.9433 61.9562 25.8793 60.6286 25.7077 59.3295V59.33ZM23.1999 66.9216C22.7322 67.2007 22.2093 67.3846 21.6703 67.4673C21.536 67.4895 21.399 67.5025 21.2631 67.5118C21.1205 67.5288 20.9918 67.473 20.8523 67.3805C19.9593 66.7155 19.1388 64.7812 18.7166 63.7224C18.7088 61.2555 18.5621 58.2609 18.3471 55.628C18.1647 53.6003 17.9595 51.5628 17.4681 49.5826C17.3218 49.0281 17.1534 48.4726 16.878 47.9662C16.8315 47.8876 16.786 47.807 16.7229 47.7403C16.787 47.7574 16.8521 47.7719 16.9157 47.7931C19.9123 48.7268 22.3333 51.0894 23.681 53.8861C23.8474 54.2209 24.0236 54.6364 24.1636 54.98C24.2205 55.1299 24.3517 55.5004 24.4091 55.6549C24.4876 55.9252 24.6266 56.2998 24.6897 56.5706C24.8173 57.0155 24.9243 57.5142 25.0251 57.9689C25.2044 58.9053 25.3568 59.8685 25.4142 60.8203C25.5527 63.0114 25.2524 65.6773 23.1999 66.9211V66.9216Z" fill="#1E1E22"/>
<path d="M20.8267 50.9312C20.7456 50.7865 20.5316 50.8868 20.5663 51.0413C20.6076 51.2278 20.6784 51.4092 20.7306 51.5932C20.7792 51.7632 20.8003 51.9342 20.9145 52.0727C21.0127 52.1911 21.1703 52.081 21.1843 51.9611C21.2055 51.7839 21.1021 51.5968 21.0396 51.4335C20.975 51.265 20.9145 51.0893 20.8267 50.9317V50.9312Z" fill="#1E1E22"/>
<path d="M22.2413 55.1206C22.1819 54.9216 21.8765 54.9568 21.876 55.1702C21.876 55.4022 21.9127 55.6322 21.9401 55.8621C21.9643 56.0631 21.9649 56.2761 22.0723 56.4512C22.1555 56.5866 22.3731 56.5654 22.4155 56.4063C22.4687 56.2063 22.4113 56.0037 22.3772 55.8027C22.3379 55.5743 22.308 55.3428 22.2413 55.1206Z" fill="#1E1E22"/>
<path d="M24.2805 57.2883C24.1989 57.0046 24.1364 56.6997 24.001 56.4367C23.9529 56.3432 23.8113 56.3912 23.8098 56.4884C23.8051 56.7695 23.8811 57.0558 23.9302 57.3317C23.9829 57.6273 24.0129 57.9539 24.1209 58.2335C24.1927 58.419 24.5208 58.4169 24.4996 58.1823C24.4728 57.8805 24.3632 57.5787 24.28 57.2883H24.2805Z" fill="#1E1E22"/>
<path d="M22.8488 53.5372C22.7656 53.6576 22.8633 53.8416 22.9113 53.9609C22.9759 54.1222 23.0266 54.317 23.1258 54.4601C23.2384 54.6224 23.4565 54.517 23.4307 54.3314C23.4136 54.21 23.0173 53.2928 22.8488 53.5372Z" fill="#1E1E22"/>
<path d="M4.83439 57.0575C4.83439 57.0575 5.11758 49.6969 10.9212 47.1017C16.7248 44.5066 20.924 50.8291 21.5849 57.8595C22.2453 64.8899 13.7892 69.8078 12.3201 69.9969C5.69221 70.8495 4.26855 63.5478 4.26855 63.5478L4.83491 57.0575H4.83439Z" fill="white"/>
<path d="M18.193 66.0524C18.2452 65.9987 18.2969 65.9444 18.3485 65.8897C18.3573 65.8804 18.3661 65.8711 18.3744 65.8618C18.4193 65.8137 18.4643 65.7656 18.5087 65.7166C18.5185 65.7057 18.5284 65.6949 18.5382 65.684C18.5899 65.6272 18.641 65.5703 18.6917 65.5124C18.6968 65.5062 18.702 65.5006 18.7077 65.4944C18.7537 65.4422 18.7997 65.3889 18.8451 65.3362C18.855 65.3249 18.8648 65.3135 18.8746 65.3021C18.9252 65.2427 18.9759 65.1828 19.026 65.1218C19.0265 65.1213 19.027 65.1202 19.0275 65.1197C19.0761 65.0608 19.1242 65.0009 19.1722 64.9409C19.1815 64.9295 19.1903 64.9182 19.1996 64.9063C19.2973 64.7833 19.3929 64.6588 19.4869 64.5322C19.4952 64.5208 19.5035 64.5094 19.5123 64.4981C19.6063 64.3704 19.6983 64.2412 19.7882 64.11C19.7954 64.0996 19.8027 64.0888 19.8099 64.0779C19.8518 64.0159 19.8936 63.9539 19.9344 63.8914C19.9375 63.8873 19.9401 63.8826 19.9432 63.8785C19.9872 63.8108 20.0306 63.7431 20.0735 63.6744C20.0791 63.6651 20.0848 63.6558 20.0905 63.6465C20.1293 63.5844 20.1675 63.5214 20.2047 63.4584C20.2094 63.4511 20.2135 63.4434 20.2181 63.4361C20.2595 63.3664 20.3003 63.2961 20.3401 63.2258C20.3437 63.2191 20.3478 63.2124 20.3515 63.2051C20.3876 63.1406 20.4233 63.0754 20.4584 63.0103C20.4636 63.0005 20.4688 62.9912 20.4739 62.9814C20.5122 62.9096 20.5499 62.8372 20.5866 62.7649C20.5881 62.7618 20.5897 62.7582 20.5912 62.7551C20.6259 62.6863 20.6594 62.6176 20.693 62.5484C20.6982 62.5375 20.7034 62.5267 20.7085 62.5158C20.7778 62.3701 20.8434 62.2228 20.9059 62.074C20.9111 62.0621 20.9158 62.0502 20.9209 62.0388C20.9829 61.89 21.0408 61.7391 21.0956 61.5872C21.0997 61.5748 21.1044 61.5629 21.1085 61.5505C21.1622 61.3981 21.2129 61.2436 21.2589 61.088C21.2625 61.0761 21.2661 61.0642 21.2692 61.0524C21.2904 60.979 21.3111 60.9056 21.3307 60.8317C21.3317 60.8281 21.3328 60.8245 21.3338 60.8203C21.5808 59.8845 21.6816 58.8949 21.5844 57.8588C20.924 50.8284 16.7244 44.506 10.9207 47.1011C10.3735 47.3461 9.73119 47.7367 9.278 48.0561C8.75194 49.1371 11.192 51.7498 15.8103 50.7024C15.8103 50.7024 17.9382 54.0581 17.7 60.2302C16.9393 60.4535 16.1275 60.7728 15.8593 61.613C15.509 62.7101 11.9455 64.8779 9.22426 64.6024C7.1154 64.389 5.65661 63.6341 4.37558 62.3081L4.26758 63.5472C4.26758 63.5472 5.69123 70.8489 12.3191 69.9963C12.9309 69.9177 14.7556 69.0181 16.6283 67.4875C16.6701 67.4534 16.7125 67.4182 16.7544 67.3836C16.7637 67.3758 16.773 67.3676 16.7828 67.3598C16.8267 67.3231 16.8711 67.2859 16.9151 67.2482C16.9311 67.2348 16.9466 67.2213 16.9626 67.2074C17.0127 67.1645 17.0629 67.1216 17.1125 67.0777C17.1166 67.0741 17.1213 67.0699 17.1254 67.0663C17.176 67.0219 17.2272 66.9764 17.2778 66.9309C17.2928 66.9175 17.3073 66.9041 17.3223 66.8906C17.3688 66.8482 17.4158 66.8059 17.4623 66.763C17.469 66.7568 17.4757 66.7511 17.4819 66.7449C17.5341 66.6963 17.5868 66.6472 17.639 66.5981C17.6525 66.5857 17.6654 66.5728 17.6788 66.5604C17.7238 66.5175 17.7687 66.4746 17.8132 66.4312C17.822 66.4224 17.8308 66.4142 17.8395 66.4054C17.8917 66.3542 17.9439 66.3031 17.9956 66.2509C18.007 66.2395 18.0183 66.2281 18.0297 66.2163C18.0741 66.1713 18.1186 66.1263 18.163 66.0809C18.1728 66.0711 18.1821 66.0612 18.192 66.0514L18.193 66.0524Z" fill="#DCDCDC"/>
<path d="M21.7389 57.5664C21.4103 54.5537 20.521 51.5049 18.642 49.0777C16.3539 46.172 13.2368 45.4977 10.0376 47.452C6.71543 49.4415 5.14966 52.4366 4.44895 57.1054C4.14613 59.1239 3.99215 61.6027 3.79785 63.6351C4.1973 65.4034 5.44886 67.0276 6.73609 68.3231C8.22072 69.818 10.2443 70.3859 12.3108 70.1146C12.7345 70.0521 13.1304 69.8583 13.5107 69.6811C14.0574 69.4129 14.5819 69.106 15.0904 68.7757C18.811 66.3465 22.311 62.2947 21.7384 57.5669L21.7389 57.5664ZM14.9509 68.5618C14.4522 68.8915 13.9375 69.1979 13.4048 69.4646C13.0405 69.6367 12.6782 69.8211 12.2819 69.8852C9.51983 70.2614 7.2239 69.1561 5.71085 66.8297C5.05871 65.8282 4.57452 64.7058 4.30322 63.5411C4.46393 61.5619 4.67323 59.0748 4.85616 57.0589C5.14657 53.5393 6.70044 49.8456 9.77666 47.9124C11.8364 46.6056 14.229 46.2025 16.3668 47.575C19.6828 49.7469 21.2268 54.6938 21.4408 58.4903C21.5131 62.7706 18.317 66.3005 14.9519 68.5618H14.9509Z" fill="#1E1E22"/>
<path d="M17.1569 56.728C17.0996 56.8417 17.095 56.9859 17.0903 57.112C17.0856 57.2246 17.08 57.3378 17.0774 57.451C17.0748 57.5641 17.0769 57.6773 17.0789 57.7905C17.0815 57.9207 17.0805 58.053 17.1068 58.1806C17.1239 58.2628 17.2267 58.316 17.3042 58.3108C17.3817 58.3057 17.4758 58.2395 17.4825 58.1553C17.4918 58.0338 17.4794 57.9114 17.4763 57.7899C17.4737 57.6726 17.4748 57.5548 17.4737 57.4375C17.4722 57.3249 17.4691 57.2122 17.4665 57.1001C17.4644 56.9859 17.4618 56.8484 17.4122 56.7445C17.3631 56.6412 17.2153 56.6143 17.158 56.7285L17.1569 56.728Z" fill="#DCDCDC"/>
<path d="M7.06194 53.0992C6.93172 53.4661 6.8015 53.8615 6.76223 54.25C6.73277 54.5415 7.15082 54.5529 7.24022 54.3146C7.37561 53.9534 7.42315 53.5364 7.46862 53.154C7.49756 52.9091 7.13481 52.8931 7.06194 53.0992Z" fill="#DCDCDC"/>
<path d="M10.3302 50.5512C10.14 50.7806 10.08 51.0943 10.0144 51.3795C9.9493 51.6627 9.84441 52.0125 9.9152 52.2983C9.95499 52.4595 10.1958 52.4942 10.2754 52.3453C10.4133 52.087 10.4123 51.7376 10.4614 51.4498C10.5084 51.1733 10.5968 50.8912 10.5544 50.6106C10.54 50.5134 10.3906 50.4778 10.3296 50.5512H10.3302Z" fill="#DCDCDC"/>
<path d="M12.0652 54.2283C11.9918 54.4464 11.983 54.6923 11.9531 54.9202C11.9215 55.1595 11.8528 55.4194 11.8838 55.6576C11.9247 55.9677 12.3613 56.0798 12.4621 55.7357C12.5334 55.4923 12.5091 55.2246 12.5143 54.9724C12.5194 54.7244 12.5416 54.4732 12.4988 54.2278C12.4579 53.9932 12.1298 54.0361 12.0652 54.2278V54.2283Z" fill="#DCDCDC"/>
<path d="M15.6435 52.3829C15.597 52.2527 15.3913 52.2295 15.3551 52.3829C15.2988 52.6222 15.3055 52.8676 15.3066 53.1121C15.3076 53.3503 15.2823 53.5916 15.3908 53.8081C15.4776 53.9823 15.7153 53.913 15.7721 53.7585C15.8517 53.5415 15.7882 53.2883 15.7639 53.063C15.7391 52.8346 15.721 52.601 15.644 52.3829H15.6435Z" fill="#DCDCDC"/>
<path d="M7.08321 61.9456C7.0429 61.8712 6.94111 61.8655 6.88323 61.9197C6.69307 62.0975 6.67395 62.4251 6.62744 62.6711C6.57577 62.9424 6.46828 63.2803 6.56594 63.5454C6.63725 63.7392 6.95144 63.8384 7.05737 63.6095C7.18243 63.3392 7.12868 63.0328 7.13282 62.7393C7.13643 62.4835 7.2093 62.1766 7.08373 61.9456H7.08321Z" fill="#DCDCDC"/>
<path d="M11.1678 64.0461C11.1027 64.4322 11.1084 64.8264 11.0433 65.2135C10.9766 65.6109 11.5755 65.6827 11.5827 65.2864C11.59 64.8817 11.6231 64.4461 11.5497 64.0461C11.5151 63.8586 11.1998 63.8555 11.1678 64.0461Z" fill="#DCDCDC"/>
<path d="M13.7485 59.6646C13.6834 59.7741 13.6695 59.9178 13.656 60.0429C13.6442 60.155 13.6307 60.2676 13.6204 60.3803C13.6101 60.4929 13.6044 60.6061 13.5992 60.7188C13.593 60.849 13.5832 60.9808 13.6008 61.1099C13.6121 61.1931 13.7113 61.2531 13.7889 61.2531C13.8664 61.2531 13.9646 61.1931 13.977 61.1099C13.9945 60.9895 13.9899 60.8666 13.9956 60.7451C14.0007 60.6278 14.01 60.5105 14.0162 60.3932C14.0224 60.2811 14.0266 60.1684 14.0317 60.0558C14.0369 59.9416 14.0436 59.8041 14.0012 59.6977C13.9589 59.5917 13.8137 59.5545 13.7485 59.6646Z" fill="#DCDCDC"/>
<path d="M9.38181 57.9671C9.295 58.1955 9.29759 58.4652 9.28157 58.7076C9.264 58.9711 9.22059 59.2579 9.25521 59.5194C9.2764 59.6781 9.51411 59.7463 9.55958 59.5607C9.62211 59.3039 9.61022 59.0218 9.62159 58.7582C9.63244 58.4993 9.66552 58.2193 9.59834 57.9671C9.56785 57.8529 9.41954 57.8689 9.38233 57.9671H9.38181Z" fill="#DCDCDC"/>
<path d="M6.8471 52.8295C6.71688 53.1964 6.58665 53.5917 6.54738 53.9803C6.51793 54.2717 6.93598 54.2831 7.02538 54.0449C7.16076 53.6837 7.2083 53.2666 7.25378 52.8842C7.28271 52.6393 6.91996 52.6233 6.8471 52.8295Z" fill="#1E1E22"/>
<path d="M10.1134 50.2814C9.92319 50.5108 9.86324 50.8245 9.79762 51.1097C9.73251 51.3929 9.62761 51.7428 9.6984 52.0285C9.73819 52.1898 9.979 52.2244 10.0586 52.0756C10.1966 51.8172 10.1955 51.4679 10.2446 51.18C10.2916 50.9036 10.38 50.6214 10.3376 50.3408C10.3231 50.2437 10.1738 50.208 10.1128 50.2814H10.1134Z" fill="#1E1E22"/>
<path d="M11.8494 53.9586C11.776 54.1767 11.7672 54.4227 11.7373 54.6506C11.7057 54.8898 11.637 55.1497 11.668 55.388C11.7088 55.698 12.1455 55.8102 12.2463 55.466C12.3176 55.2226 12.2933 54.9549 12.2985 54.7028C12.3036 54.4547 12.3258 54.2036 12.2829 53.9581C12.2421 53.7235 11.914 53.7664 11.8494 53.9581V53.9586Z" fill="#1E1E22"/>
<path d="M15.4277 52.1133C15.3811 51.9831 15.1755 51.9598 15.1393 52.1133C15.083 52.3525 15.0897 52.598 15.0907 52.8424C15.0918 53.0806 15.0664 53.322 15.175 53.5385C15.2618 53.7126 15.4995 53.6434 15.5563 53.4889C15.6359 53.2718 15.5723 53.0186 15.5481 52.7933C15.5233 52.5649 15.5052 52.3313 15.4282 52.1133H15.4277Z" fill="#1E1E22"/>
<path d="M19.5689 54.1637C19.5094 53.8624 19.4686 53.3865 19.2211 53.1793C19.1627 53.1302 19.0888 53.1519 19.0614 53.2217C18.9477 53.509 19.1027 53.9291 19.1446 54.2267C19.1932 54.574 19.1585 54.9946 19.3069 55.3124C19.3833 55.4762 19.635 55.4215 19.6784 55.2639C19.7693 54.9357 19.634 54.4923 19.5694 54.1637H19.5689Z" fill="#1E1E22"/>
<path d="M6.86739 61.6758C6.82709 61.6014 6.72528 61.5957 6.6674 61.65C6.47724 61.8277 6.45812 62.1553 6.41161 62.4013C6.35994 62.6726 6.25246 63.0106 6.35012 63.2756C6.42144 63.4694 6.73562 63.5686 6.84156 63.3397C6.96661 63.0695 6.91286 62.763 6.917 62.4695C6.92062 62.2137 6.99348 61.9068 6.86791 61.6758H6.86739Z" fill="#1E1E22"/>
<path d="M10.952 63.7767C10.8869 64.1628 10.8926 64.557 10.8274 64.9441C10.7608 65.3415 11.3597 65.4133 11.3669 65.0169C11.3742 64.6123 11.4072 64.1767 11.3339 63.7767C11.2992 63.5892 10.984 63.5861 10.952 63.7767Z" fill="#1E1E22"/>
<path d="M16.9848 49.1244C16.929 49.0675 16.8148 49.0737 16.7776 49.1513C16.6639 49.3874 16.7559 49.6763 16.7941 49.9264C16.8365 50.2039 16.8541 50.5821 17.0204 50.8136C17.1476 50.9904 17.3817 50.9149 17.409 50.7082C17.4442 50.4405 17.3026 50.1181 17.237 49.8566C17.1765 49.6153 17.1646 49.3068 16.9848 49.1244Z" fill="#1E1E22"/>
<path d="M14.7586 64.0519C14.7075 63.9563 14.5649 63.962 14.5127 64.0519C14.3494 64.3309 14.3726 64.7237 14.3592 65.0373C14.3458 65.3474 14.2367 65.7861 14.4238 66.0543C14.5178 66.1892 14.6827 66.1814 14.7778 66.0543C14.9715 65.7964 14.879 65.3432 14.8775 65.0373C14.8759 64.72 14.9126 64.3392 14.7592 64.0519H14.7586Z" fill="#1E1E22"/>
<path d="M13.5318 59.3948C13.4666 59.5044 13.4527 59.648 13.4393 59.7731C13.4274 59.8852 13.4139 59.9979 13.4036 60.1105C13.3933 60.2232 13.3876 60.3363 13.3824 60.449C13.3762 60.5792 13.3664 60.711 13.384 60.8402C13.3953 60.9234 13.4946 60.9833 13.5721 60.9833C13.6496 60.9833 13.7478 60.9234 13.7602 60.8402C13.7777 60.7198 13.7731 60.5968 13.7788 60.4753C13.7839 60.358 13.7932 60.2407 13.7994 60.1234C13.8056 60.0113 13.8098 59.8986 13.8149 59.786C13.8201 59.6718 13.8268 59.5343 13.7844 59.4279C13.7421 59.322 13.5969 59.2847 13.5318 59.3948Z" fill="#1E1E22"/>
<path d="M16.9529 56.6214C16.8955 56.7351 16.8908 56.8793 16.8862 57.0054C16.8815 57.118 16.8759 57.2312 16.8733 57.3444C16.8707 57.4575 16.8728 57.5707 16.8748 57.6839C16.8774 57.8141 16.8764 57.9464 16.9027 58.074C16.9198 58.1562 17.0226 58.2094 17.1001 58.2043C17.1776 58.1991 17.2717 58.1329 17.2784 58.0487C17.2877 57.9273 17.2753 57.8048 17.2722 57.6834C17.2696 57.5661 17.2707 57.4483 17.2696 57.331C17.2681 57.2183 17.265 57.1056 17.2624 56.9935C17.2603 56.8793 17.2578 56.7419 17.2081 56.638C17.1591 56.5346 17.0113 56.5078 16.9539 56.622L16.9529 56.6214Z" fill="#1E1E22"/>
<path d="M9.16599 57.6973C9.07918 57.9257 9.08176 58.1955 9.06575 58.4378C9.04818 58.7014 9.00477 58.9882 9.03939 59.2496C9.06058 59.4083 9.29828 59.4765 9.34375 59.291C9.40628 59.0341 9.39439 58.752 9.40576 58.4885C9.41661 58.2296 9.44969 57.9495 9.38251 57.6973C9.35202 57.5831 9.20372 57.5991 9.16651 57.6973H9.16599Z" fill="#1E1E22"/>
<path d="M10.4221 45.0038C10.4221 45.0038 8.74677 45.613 8.96019 47.2878C9.17361 48.9631 11.2137 49.5109 13.6197 49.4804C16.0257 49.4499 18.4317 48.2319 17.4876 45.3691C16.5435 42.5063 10.4221 45.0038 10.4221 45.0038Z" fill="#DCDCDC"/>
<path d="M17.8414 45.8558C17.7624 45.475 17.6616 45.0838 17.4337 44.7613C16.8141 43.8766 15.6003 43.7382 14.6159 43.8239C13.8785 43.8865 13.1695 44.0575 12.4662 44.2658C11.7712 44.4735 11.0327 44.6006 10.3604 44.8719C9.43493 45.2564 8.61484 46.1622 8.72594 47.2019C8.77504 47.974 9.40547 48.73 10.0788 49.0674C10.7356 49.4074 11.5717 49.6038 12.2983 49.6839C13.756 49.8255 15.3052 49.6663 16.5888 48.8664C17.6549 48.1993 18.0817 47.0753 17.8409 45.8558H17.8414ZM15.1311 49.1325C14.2164 49.3775 13.248 49.3764 12.3075 49.3082C11.381 49.2193 10.3961 49.0478 9.6592 48.4437C9.10886 48.0019 8.87322 47.2257 9.0267 46.5395C9.18069 45.8294 9.77443 45.2884 10.4302 45.0244C11.9438 44.4291 15.9801 43.4622 17.0663 45.0192C17.1898 45.1928 17.2709 45.4042 17.3283 45.6093C17.3417 45.6501 17.365 45.7328 17.3743 45.7747C17.8569 47.5502 16.7929 48.6948 15.1316 49.1325H15.1311Z" fill="#1E1E22"/>
<path d="M15.6888 44.847C15.7833 45.417 15.833 45.9952 15.8417 46.5724C15.85 47.1171 15.8149 47.6581 15.7606 48.1997C15.7317 48.488 15.694 48.7748 15.6568 49.0627C15.6537 49.0875 15.6495 49.1128 15.6459 49.1381C15.7771 49.0906 15.9043 49.0384 16.0273 48.981C16.0774 48.7402 16.1172 48.4958 16.1502 48.2529C16.2283 47.6809 16.2557 47.099 16.2474 46.5218C16.2396 45.958 16.19 45.3963 16.0991 44.8403C16.0603 44.6047 16.0216 44.3525 15.9694 44.1013C15.818 44.0662 15.6598 44.0409 15.4971 44.0233C15.5684 44.2967 15.6423 44.57 15.6883 44.847H15.6888Z" fill="#1E1E22"/>
<path d="M14.4458 49.3562C14.4458 49.0539 14.4458 48.7516 14.4391 48.4493C14.4256 47.8447 14.4065 47.2406 14.3817 46.6366C14.3579 46.05 14.3171 45.4635 14.2773 44.8781C14.2582 44.5964 14.2427 44.3138 14.2205 44.0316C14.1068 44.043 13.9926 44.0564 13.8789 44.0714C13.8913 44.3401 13.9084 44.6093 13.9192 44.8775C13.944 45.4811 13.959 46.0857 13.9828 46.6893C14.0055 47.2758 14.0231 47.8623 14.0381 48.4488C14.0453 48.7335 14.0567 49.0177 14.0655 49.302C14.067 49.3542 14.068 49.4074 14.0691 49.4601C14.1957 49.4508 14.3212 49.4374 14.4458 49.4208C14.4458 49.3986 14.4458 49.3769 14.4458 49.3547V49.3562Z" fill="#1E1E22"/>
<path d="M12.9047 44.2466C12.76 44.2786 12.6179 44.3122 12.4794 44.3468C12.2872 45.1964 12.1931 46.08 12.1652 46.9394C12.1471 47.5047 12.1564 48.0711 12.1931 48.6359C12.2091 48.8818 12.2179 49.1557 12.2463 49.4265C12.4122 49.443 12.5822 49.4559 12.7548 49.4647C12.7264 49.2017 12.6856 48.9387 12.669 48.687C12.6318 48.1227 12.622 47.5564 12.6396 46.991C12.6685 46.0655 12.7755 45.1581 12.9042 44.2466H12.9047Z" fill="#1E1E22"/>
<path d="M11.3498 45.1761C11.4191 44.9736 11.5048 44.7818 11.5973 44.5938C11.3927 44.6568 11.2082 44.7178 11.0491 44.7726C11.0325 44.8154 11.016 44.8578 11 44.9002C10.7881 45.4567 10.6341 46.0355 10.5509 46.6256C10.4703 47.1961 10.4377 47.7744 10.4662 48.3505C10.478 48.5841 10.5018 48.8172 10.5318 49.0487C10.6811 49.1071 10.8382 49.1587 11.0031 49.2042C11.002 49.1949 11.0005 49.1851 10.9994 49.1758C10.9669 48.9014 10.9436 48.6265 10.9318 48.3505C10.9075 47.8012 10.9235 47.2493 10.9979 46.7042C11.0687 46.1859 11.1808 45.6717 11.3498 45.1761Z" fill="#1E1E22"/>
<path d="M-2.55371 30.6942C-2.55371 30.6942 -2.19973 39.189 -1.2794 41.95C-0.359067 44.7111 2.04796 46.4851 8.70217 47.2261C15.3569 47.9671 22.0111 46.8344 23.781 44.711C25.5508 42.5872 26.9667 35.933 26.2588 29.5615C25.5508 23.1899 9.76409 25.6558 9.76409 25.6558C9.76409 25.6558 -1.2794 27.0128 -2.55371 30.6942Z" fill="white"/>
<path d="M9.76409 25.6563C9.76409 25.6563 -1.2794 27.0133 -2.55371 30.6941C-2.55371 30.6941 -2.5072 31.8088 -2.40437 33.3616C0.0331457 33.3652 7.94822 33.0572 13.7637 29.1646C13.7637 29.1646 16.5516 31.3034 20.9476 32.4656L21.8354 35.7661C21.8354 35.7661 21.5155 42.7732 20.1353 43.4166C18.755 44.0604 13.7637 44.9498 6.46204 44.5782C2.05881 44.3539 -0.112059 43.2037 -1.14246 42.3252C-0.128595 44.8722 2.35439 46.5191 8.70217 47.2266C15.3569 47.9676 22.0111 46.8349 23.781 44.7115C25.5508 42.5877 26.9667 35.9335 26.2588 29.5619C25.5508 23.1904 9.76409 25.6563 9.76409 25.6563Z" fill="#DCDCDC"/>
<path d="M15.1355 35.4368C14.983 35.0156 14.3144 35.196 14.4668 35.6238C14.565 35.8993 14.2916 36.2217 14.0829 36.3721C13.8452 36.5431 13.5501 36.6062 13.2679 36.5318C12.9894 36.4589 12.7274 36.2646 12.5781 36.014C12.4846 35.8569 12.4474 35.6776 12.4003 35.5029C12.7931 35.3045 13.3982 34.8094 13.5532 34.3382C13.7656 33.6917 13.5883 33.2959 12.7569 33.1274C11.9249 32.959 10.5447 33.0985 10.4031 33.9614C10.3023 34.5764 11.1973 35.1386 11.7213 35.4115C11.6991 35.5913 11.6893 35.7783 11.619 35.9385C11.4924 36.2259 11.2614 36.4791 10.9467 36.5406C10.6299 36.6026 10.3824 36.4155 10.2574 36.1292C10.1385 35.8574 10.2258 35.4073 9.97986 35.213C9.91889 35.165 9.86462 35.1588 9.79486 35.1887C9.33754 35.3846 9.54785 36.2346 9.72872 36.5576C9.97727 37.002 10.4439 37.2728 10.9498 37.218C11.4247 37.1669 11.8577 36.8718 12.097 36.4537C12.1011 36.446 12.1053 36.4377 12.1099 36.43C12.1202 36.4481 12.1311 36.4667 12.142 36.4837C12.4117 36.908 12.8639 37.1787 13.3558 37.2361C13.8415 37.2924 14.3206 37.1105 14.6792 36.7798C15.0239 36.462 15.3071 35.9096 15.136 35.4363L15.1355 35.4368Z" fill="#DCDCDC"/>
<path d="M20.8994 36.0952C20.8994 36.0952 21.2343 37.1277 22.2812 36.9861C23.2424 36.8559 24.0382 34.192 23.7431 33.6629C23.448 33.1337 22.0223 32.5203 21.7143 33.2164C21.4069 33.9125 20.8994 36.0952 20.8994 36.0952Z" fill="#DCDCDC"/>
<path d="M16.1362 35.8621C16.4293 35.8621 16.6669 35.6245 16.6669 35.3314C16.6669 35.0383 16.4293 34.8007 16.1362 34.8007C15.8431 34.8007 15.6055 35.0383 15.6055 35.3314C15.6055 35.6245 15.8431 35.8621 16.1362 35.8621Z" fill="#DCDCDC"/>
<path d="M17.9688 35.013C18.2724 35.013 18.5186 34.7668 18.5186 34.4632C18.5186 34.1595 18.2724 33.9133 17.9688 33.9133C17.6651 33.9133 17.4189 34.1595 17.4189 34.4632C17.4189 34.7668 17.6651 35.013 17.9688 35.013Z" fill="#DCDCDC"/>
<path d="M17.8571 36.4551C18.0992 36.4551 18.2954 36.259 18.2954 36.0169C18.2954 35.7749 18.0992 35.5787 17.8571 35.5787C17.6151 35.5787 17.4189 35.7749 17.4189 36.0169C17.4189 36.259 17.6151 36.4551 17.8571 36.4551Z" fill="#DCDCDC"/>
<path d="M6.78805 34.8761C7.03234 34.8761 7.23039 34.6781 7.23039 34.4338C7.23039 34.1895 7.03234 33.9915 6.78805 33.9915C6.54375 33.9915 6.3457 34.1895 6.3457 34.4338C6.3457 34.6781 6.54375 34.8761 6.78805 34.8761Z" fill="#DCDCDC"/>
<path d="M8.28072 34.9997C8.54956 34.9997 8.76751 34.7817 8.76751 34.5129C8.76751 34.2441 8.54956 34.0261 8.28072 34.0261C8.01188 34.0261 7.79395 34.2441 7.79395 34.5129C7.79395 34.7817 8.01188 34.9997 8.28072 34.9997Z" fill="#DCDCDC"/>
<path d="M7.22188 36.3624C7.503 36.3624 7.73089 36.1345 7.73089 35.8534C7.73089 35.5722 7.503 35.3444 7.22188 35.3444C6.94077 35.3444 6.71289 35.5722 6.71289 35.8534C6.71289 36.1345 6.94077 36.3624 7.22188 36.3624Z" fill="#DCDCDC"/>
<path d="M6.53803 34.6881C6.78233 34.6881 6.98037 34.4901 6.98037 34.2458C6.98037 34.0015 6.78233 33.8035 6.53803 33.8035C6.29374 33.8035 6.0957 34.0015 6.0957 34.2458C6.0957 34.4901 6.29374 34.6881 6.53803 34.6881Z" fill="#1E1E22"/>
<path d="M8.03072 34.8117C8.29956 34.8117 8.5175 34.5938 8.5175 34.3249C8.5175 34.0561 8.29956 33.8381 8.03072 33.8381C7.76188 33.8381 7.54395 34.0561 7.54395 34.3249C7.54395 34.5938 7.76188 34.8117 8.03072 34.8117Z" fill="#1E1E22"/>
<path d="M6.9719 36.1743C7.25301 36.1743 7.48089 35.9464 7.48089 35.6653C7.48089 35.3841 7.25301 35.1562 6.9719 35.1562C6.69078 35.1562 6.46289 35.3841 6.46289 35.6653C6.46289 35.9464 6.69078 36.1743 6.9719 36.1743Z" fill="#1E1E22"/>
<path d="M15.8237 35.6115C16.1168 35.6115 16.3544 35.3739 16.3544 35.0808C16.3544 34.7877 16.1168 34.55 15.8237 34.55C15.5306 34.55 15.293 34.7877 15.293 35.0808C15.293 35.3739 15.5306 35.6115 15.8237 35.6115Z" fill="#1E1E22"/>
<path d="M17.6563 34.762C17.9599 34.762 18.2061 34.5158 18.2061 34.2122C18.2061 33.9085 17.9599 33.6624 17.6563 33.6624C17.3526 33.6624 17.1064 33.9085 17.1064 34.2122C17.1064 34.5158 17.3526 34.762 17.6563 34.762Z" fill="#1E1E22"/>
<path d="M17.5446 36.2048C17.7867 36.2048 17.9829 36.0086 17.9829 35.7666C17.9829 35.5246 17.7867 35.3284 17.5446 35.3284C17.3026 35.3284 17.1064 35.5246 17.1064 35.7666C17.1064 36.0086 17.3026 36.2048 17.5446 36.2048Z" fill="#1E1E22"/>
<path d="M3.76076 33.2971C3.76076 33.2971 2.94688 33.249 2.6637 34.0376C2.38052 34.8256 2.29215 36.6487 3.14169 36.9495C3.99123 37.2502 4.62839 36.4994 4.84078 35.2644C5.05316 34.0293 4.54881 33.2971 3.76128 33.2971H3.76076Z" fill="#DCDCDC"/>
<path d="M3.19826 33.098C3.19826 33.098 2.38438 33.0499 2.1012 33.8385C1.81802 34.6265 1.72965 36.4496 2.57919 36.7504C3.42873 37.0511 4.06588 36.3003 4.27826 35.0652C4.49065 33.8302 3.98631 33.098 3.19878 33.098H3.19826Z" fill="#1E1E22"/>
<path d="M3.20327 33.8499C3.09424 33.5786 2.83638 33.6158 2.69273 33.8298C2.5315 34.0437 2.45657 34.4297 2.53305 34.6938C2.63485 35.0824 2.98108 35.0808 3.14954 34.7238C3.27253 34.4871 3.30714 34.0964 3.20793 33.8603L3.20327 33.8494V33.8499Z" fill="white"/>
<path d="M21.7425 32.8416C21.7425 32.8416 20.9638 32.7847 20.7044 33.6627C20.445 34.5406 20.2946 36.3105 21.449 36.464C22.604 36.6175 22.7807 35.5023 22.8871 34.7618C22.9931 34.0213 22.6747 32.8364 21.7425 32.8416Z" fill="#1E1E22"/>
<path d="M21.7355 33.4353C21.6498 33.2953 21.4606 33.2767 21.3392 33.3795C21.0689 33.5893 20.9341 34.396 21.1537 34.658C21.3852 34.9081 21.6725 34.6171 21.7221 34.3567C21.7826 34.0802 21.8797 33.6963 21.7417 33.4451L21.7355 33.4358V33.4353Z" fill="white"/>
<path d="M11.7685 35.2622C11.7685 35.2622 9.94535 34.5134 10.0869 33.6629C10.2285 32.8123 11.6088 32.6754 12.4407 32.8412C13.2727 33.0071 13.4494 33.3967 13.2371 34.0339C13.0247 34.671 11.9653 35.3516 11.7679 35.2627L11.7685 35.2622Z" fill="#1E1E22"/>
<path d="M12.2745 33.225C12.0027 33.0111 11.6322 33.1144 11.3159 33.1904C11.1273 33.2359 10.6689 33.3403 10.7459 33.626C10.7465 33.6281 10.747 33.6307 10.748 33.6327C10.7769 33.7387 10.871 33.7981 10.9754 33.8058C11.2017 33.8224 11.4286 33.7903 11.6539 33.7738C11.8828 33.7573 12.1019 33.78 12.275 33.6079C12.3701 33.5139 12.3902 33.3154 12.275 33.2245L12.2745 33.225Z" fill="white"/>
<path d="M14.8191 35.1159C14.6666 34.701 13.998 34.8787 14.1504 35.3004C14.2486 35.5717 13.9752 35.889 13.7665 36.0378C13.5288 36.2068 13.2337 36.2683 12.9515 36.1954C12.673 36.1236 12.411 35.9319 12.2617 35.6849C12.1563 35.5102 12.1221 35.3082 12.0658 35.1149C12.0632 34.9299 12.0203 34.7573 11.9144 34.6245C11.8095 34.4927 11.6194 34.562 11.5393 34.6731C11.3537 34.9299 11.4338 35.317 11.3026 35.611C11.176 35.8942 10.945 36.1438 10.6303 36.2042C10.3135 36.2652 10.066 36.0807 9.94095 35.7991C9.82209 35.5309 9.90942 35.088 9.66344 34.8968C9.60247 34.8493 9.54822 34.8431 9.47846 34.8731C9.02113 35.0663 9.23145 35.9035 9.41231 36.2218C9.66087 36.6595 10.1275 36.9261 10.6334 36.8724C11.1083 36.8217 11.5413 36.5313 11.7806 36.1195C11.7847 36.1122 11.7889 36.104 11.7935 36.0962C11.8038 36.1143 11.8147 36.1324 11.8255 36.1494C12.0953 36.5675 12.5474 36.8341 13.0394 36.8905C13.5251 36.9463 14.0042 36.7664 14.3628 36.4409C14.7075 36.1277 14.9906 35.5836 14.8196 35.117L14.8191 35.1159Z" fill="#1E1E22"/>
<path d="M0.554916 41.7438C0.455183 41.4957 0.383872 41.2369 0.335814 40.9743C0.291373 40.7294 0.314624 40.47 0.209723 40.2437C0.153397 40.1222 -0.0631191 40.1171 -0.117378 40.2437C-0.324078 40.7242 -0.0522678 41.4647 0.14048 41.919C0.371468 42.4631 0.707875 43.0057 1.21481 43.3281C1.33624 43.4057 1.50367 43.2481 1.41789 43.1251C1.10474 42.675 0.761616 42.259 0.554916 41.7443V41.7438Z" fill="#DCDCDC"/>
<path d="M2.77906 43.8195C2.64729 43.743 2.50467 43.6789 2.3698 43.6071C2.24319 43.5394 2.11297 43.4531 1.9719 43.42C1.88664 43.3999 1.7869 43.4789 1.81997 43.572C1.93004 43.883 2.30624 44.128 2.60699 44.2277C2.84986 44.3078 2.99558 43.9451 2.77906 43.8195Z" fill="#DCDCDC"/>
<path d="M0.183816 41.5619C0.0840828 41.3139 0.0127716 41.055 -0.0352862 40.7925C-0.0797269 40.5475 -0.05647 40.2881 -0.16137 40.0618C-0.217696 39.9403 -0.434213 39.9352 -0.488472 40.0618C-0.695172 40.5424 -0.423362 41.2829 -0.230613 41.7371C0.000374377 42.2812 0.336775 42.8238 0.843708 43.1463C0.965145 43.2238 1.13257 43.0662 1.04679 42.9432C0.733643 42.4931 0.390516 42.0771 0.183816 41.5624V41.5619Z" fill="#1E1E22"/>
<path d="M2.40699 43.7503C2.27522 43.6738 2.1326 43.6097 1.99773 43.5379C1.87112 43.4702 1.7409 43.3839 1.59982 43.3508C1.51456 43.3307 1.41483 43.4097 1.4479 43.5027C1.55797 43.8138 1.93416 44.0588 2.23491 44.1585C2.47778 44.2386 2.62351 43.8758 2.40699 43.7503Z" fill="#1E1E22"/>
<path d="M22.5095 43.7179C22.7901 43.7309 23.0423 43.4007 23.1973 43.2017C23.373 42.9764 23.636 42.6483 23.6277 42.3506C23.6226 42.1656 23.4097 42.0881 23.2769 42.2054C23.1658 42.3031 23.1244 42.4343 23.0547 42.5625C22.9849 42.6906 22.9012 42.8209 22.8128 42.9428C22.6697 43.1407 22.4123 43.3443 22.3891 43.5975C22.3829 43.6647 22.4495 43.7154 22.5095 43.7179Z" fill="#1E1E22"/>
<path d="M26.4923 29.4318C26.4639 29.1977 26.4034 28.9507 26.329 28.7264C26.3166 28.683 26.2856 28.5967 26.267 28.5554C24.5555 24.3614 16.0281 24.8167 12.2527 25.1474C8.71141 25.4678 -1.51562 27.1276 -2.79199 30.7872C-2.68761 33.2671 -2.5827 35.6628 -2.31089 38.1303C-2.20289 39.016 -2.01686 40.0717 -1.8391 40.9445C-1.77502 41.2561 -1.42622 42.3485 -1.42622 42.3485C-0.558074 44.923 1.91716 46.0464 4.38154 46.714C9.38214 48.0245 17.0027 48.4291 21.8291 46.4898C22.4115 46.2453 22.8931 45.9048 23.3866 45.4986C23.9705 45.0067 24.4868 44.0455 24.8041 43.3676C26.5817 39.2439 26.9584 33.8681 26.4923 29.4313V29.4318ZM24.4563 43.2089C24.1576 43.8533 23.8207 44.4868 23.2807 44.953C22.4699 45.6185 21.4679 46.0092 20.4711 46.3192C15.6839 47.7212 9.28448 47.5527 4.45647 46.358C2.04273 45.7276 -0.279028 44.5886 -1.1482 42.0829C-1.18386 41.9894 -1.22623 41.8586 -1.25155 41.7641C-1.3053 41.5724 -1.39057 41.3099 -1.42467 41.115C-1.60243 40.3513 -1.72697 39.5632 -1.8329 38.7871C-2.19049 36.1087 -2.38324 33.3953 -2.52742 30.6979C-1.15854 27.2098 8.82199 25.8605 12.292 25.5882C15.7811 25.3252 24.2196 24.9283 25.7998 28.7409L25.8298 28.8133L25.8541 28.8877C25.9228 29.0799 25.9699 29.298 25.9988 29.4995C26.4902 33.8831 26.1797 39.1173 24.4573 43.2084L24.4563 43.2089Z" fill="#1E1E22"/>
<path d="M3.11412 25.2746C3.11412 25.2746 4.12282 19.0096 6.40583 19.3279C8.68884 19.6462 9.00767 24.1595 9.00767 24.1595L17.0778 23.6815C17.0778 23.6815 17.2902 18.0536 19.7323 18.3192C22.1745 18.5848 22.1218 24.4251 22.1218 24.4251C22.1218 24.4251 26.7942 25.1682 27.219 29.9998C27.219 29.9998 18.9892 33.0264 12.6182 26.7608C12.6182 26.7608 3.91095 31.8581 -2.88536 31.964C-2.88536 31.964 -3.68168 27.5571 3.11412 25.2741V25.2746Z" fill="#1E1E22"/>
<path d="M27.4205 29.9823C27.3234 28.9442 27.0097 27.906 26.4304 27.0291C25.5659 25.7073 24.1676 24.8019 22.6644 24.3746C22.5383 24.3394 22.4184 24.3079 22.2928 24.2815C22.2711 23.1824 22.1621 22.0962 21.912 21.0239C21.7027 20.1904 21.419 19.3104 20.7906 18.68C20.077 17.9663 18.9835 17.9922 18.3319 18.7642C17.5842 19.652 17.2452 20.8632 17.0488 21.9753C16.9651 22.5018 16.9129 22.9897 16.8835 23.524L9.22883 24.0309C9.17664 23.5085 9.05727 23.0031 8.93687 22.4946C8.66764 21.4425 8.30334 20.2343 7.41504 19.5388C6.96857 19.2055 6.15055 19.0546 5.62759 19.3161C4.10835 20.04 3.09499 23.5488 2.84333 25.0928C1.30083 25.577 -0.0458136 26.3615 -1.24364 27.4668C-2.15467 28.3029 -2.76341 29.5023 -2.9944 30.7285C-3.06261 31.0887 -3.09258 31.4597 -3.06726 31.8271C-3.06364 31.8814 -3.05848 31.9315 -3.04917 31.9935C-3.03781 32.0721 -2.96959 32.132 -2.88795 32.131C-2.02446 32.1232 -1.14236 32.0375 -0.289205 31.9083C1.59125 31.607 3.43036 31.082 5.22091 30.4407C7.7628 29.524 10.2194 28.3959 12.58 27.0797C12.6859 27.179 12.8022 27.2875 12.8022 27.2875C14.1462 28.536 15.7502 29.5095 17.4757 30.1306C19.9912 31.0189 22.7372 31.1595 25.3509 30.682C26.0088 30.5606 26.6557 30.4092 27.2898 30.189C27.374 30.1591 27.4309 30.0743 27.4216 29.9813L27.4205 29.9823ZM25.276 30.2681C20.7188 31.0773 16.1125 29.8707 12.8001 26.5759C12.7179 26.4963 12.5903 26.4772 12.4864 26.5372C11.9004 26.8756 11.2927 27.1986 10.6855 27.5112C7.64085 29.0537 4.46748 30.3999 1.14736 31.2153C-0.127982 31.5202 -1.42813 31.7377 -2.73861 31.792C-2.76961 31.4577 -2.74636 31.1151 -2.69106 30.7838C-2.1986 27.9014 0.581002 26.2095 3.1322 25.2913C3.40195 23.8371 4.47007 18.9476 6.504 19.4096C7.03161 19.5161 7.45948 19.8871 7.76333 20.3196C8.51365 21.4265 8.78908 22.8543 8.91981 24.1663C8.92343 24.2138 8.96426 24.2495 9.0118 24.2469L17.0845 23.8072C17.148 23.8035 17.2002 23.7519 17.2023 23.6868C17.2989 22.3091 17.4943 20.8834 18.0968 19.6287C18.335 19.1652 18.6704 18.6924 19.1737 18.5218C20.0021 18.2593 20.6821 18.8376 21.0464 19.545C21.775 20.9759 21.9218 22.8326 21.9476 24.4242C21.9476 24.5079 22.0081 24.5828 22.0939 24.5973C22.2453 24.6247 22.4106 24.667 22.5672 24.7125C23.6715 25.0355 24.7133 25.6292 25.5049 26.4664C26.3777 27.3867 26.8692 28.6036 27.0009 29.8588C26.4397 30.0376 25.8563 30.1684 25.276 30.2697V30.2681Z" fill="#1E1E22"/>
<path d="M49.8432 10.9524H38.5599C34.6522 10.9524 31.4845 14.1201 31.4845 18.0277V31.3248C30.1865 32.628 28.5075 33.7985 26.5273 34.0579C26.5273 34.0579 27.4668 35.8205 31.4845 35.9885C32.0509 36.0122 32.6979 35.9885 33.4053 35.9885H49.8437C53.7513 35.9885 56.919 32.8208 56.919 28.9131V18.0277C56.919 14.1201 53.7513 10.9524 49.8437 10.9524H49.8432Z" fill="white"/>
<path d="M49.8437 10.9524H49.407C53.8149 12.761 53.7787 15.2631 53.7787 15.2631C53.7787 15.2631 54.4903 24.8308 54.1343 27.5938C53.7787 30.3574 52.83 32.2208 50.5087 33.2611C48.1875 34.3013 31.9625 34.3152 30.0655 34.3152C29.0863 34.3152 28.5008 33.9644 28.1629 33.6243C27.644 33.8321 27.0984 33.983 26.5273 34.0579C26.5273 34.0579 27.4668 35.8205 31.4845 35.9885C32.0509 36.0122 32.6979 35.9885 33.4053 35.9885H49.8437C53.7513 35.9885 56.919 32.8208 56.919 28.9131V18.0277C56.919 14.1201 53.7513 10.9524 49.8437 10.9524Z" fill="#DCDCDC"/>
<path d="M55.6964 18.5383L54.4991 18.4758C54.4164 18.0831 54.2816 17.6986 54.0924 17.3338L54.9849 16.5302C55.2143 16.3235 55.2329 15.967 55.0262 15.7375L54.2376 14.8621C54.0309 14.6327 53.6744 14.6141 53.4449 14.8208L52.5525 15.6244C52.2094 15.3985 51.8409 15.2244 51.4591 15.1009L51.5216 13.9036C51.5376 13.5956 51.2989 13.33 50.9904 13.314L49.8137 13.2525C49.5057 13.2365 49.2401 13.4752 49.2241 13.7837L49.1621 14.9696C48.7647 15.0497 48.3751 15.1831 48.0051 15.3712L47.216 14.4953C47.0093 14.2658 46.6528 14.2472 46.4233 14.4539L45.5479 15.2425C45.3185 15.4492 45.2999 15.8057 45.5066 16.0352L46.2848 16.8992C46.0502 17.2501 45.8704 17.6273 45.7443 18.019L44.7315 17.9658C44.6912 17.6908 44.5175 17.4387 44.2716 17.3069C44.1238 17.2191 43.9465 17.1963 43.7781 17.1906C43.6375 17.1829 43.2598 17.1612 43.1151 17.1534C42.9699 17.1467 42.5926 17.1219 42.4521 17.1162L42.3415 17.11C42.1193 17.0945 41.8883 17.1632 41.7137 17.3028C41.5075 17.4614 41.3788 17.712 41.3643 17.9714L41.3628 17.9988L41.3504 18.22C41.3369 18.452 41.3028 19.0747 41.2837 19.4132C40.8254 19.5139 40.3789 19.6664 39.9546 19.8684C39.7903 19.6845 39.4596 19.3145 39.4596 19.3145C39.3686 19.2116 39.1066 18.9202 39.0209 18.823C38.994 18.7926 38.9599 18.7574 38.9309 18.73C38.5883 18.4107 38.0173 18.4117 37.6742 18.729C37.6225 18.7765 37.482 18.899 37.4282 18.9481C37.2649 19.0938 36.9363 19.3868 36.773 19.5325C36.7203 19.5796 36.5777 19.7067 36.527 19.7517C36.203 20.0219 36.0992 20.5082 36.2857 20.887C36.341 21.0213 36.496 21.1774 36.5859 21.2802L36.8784 21.6078L37.3533 22.1411C37.1058 22.5292 36.9027 22.9452 36.7466 23.3782C36.4939 23.3637 36.0439 23.3374 36.0439 23.3374C35.9095 23.3296 35.5178 23.3064 35.3917 23.2997C35.3225 23.296 35.2517 23.2997 35.1819 23.3079L35.1116 23.3219C34.6988 23.4102 34.3758 23.7849 34.3494 24.206C34.3432 24.2944 34.3339 24.4732 34.3288 24.5636C34.3138 24.8768 34.2828 25.3393 34.2688 25.6509L34.2626 25.7594L34.2611 25.7868C34.2233 26.317 34.6605 26.8048 35.1907 26.828C35.5193 26.8461 36.1219 26.8756 36.5301 26.8968C36.6335 27.3422 36.7869 27.7758 36.9864 28.1871C36.7322 28.4176 36.3177 28.7943 36.1565 28.94L35.9953 29.0868C35.7121 29.3431 35.6062 29.7663 35.7328 30.1265C35.7881 30.2944 35.8997 30.435 36.0211 30.56C36.1178 30.6618 36.3596 30.9357 36.4604 31.0406C36.5554 31.1439 36.8076 31.4225 36.9001 31.5207L36.9735 31.6002L36.9926 31.6209C37.267 31.9242 37.7373 32.0131 38.1041 31.8343C38.2292 31.7842 38.4018 31.6178 38.4917 31.5336L38.8105 31.2395C38.8105 31.2395 39.2121 30.8659 39.35 30.7378C39.7702 30.9915 40.2197 31.1936 40.6858 31.3403C40.6796 31.515 40.6584 32.0948 40.6584 32.0948L40.6429 32.5304C40.6383 32.6678 40.6223 32.8694 40.6636 33.0001C40.7556 33.3587 41.092 33.6306 41.4625 33.6409L41.4899 33.6419L41.5989 33.6455C41.9121 33.6564 42.373 33.6729 42.6872 33.6848C42.757 33.6869 42.9471 33.6957 43.0138 33.6972C43.3755 33.7205 43.7543 33.5556 43.8623 33.2099C43.8892 33.1355 43.9171 33.026 43.9217 32.9495L43.9383 32.7583L43.9677 32.3335L44.0039 31.6188C44.5268 31.499 44.9129 31.2995 45.3872 31.0489L46.3784 32.1191C46.6161 32.3878 47.045 32.5407 47.3499 32.3531C47.4377 32.3004 47.6992 32.0855 47.7746 32.0173L48.865 31.0292C49.0391 30.8721 49.1239 30.5657 49.1022 30.3311C49.0903 30.1554 49.0148 29.9776 48.8944 29.85L48.7394 29.6459C48.7394 29.6459 47.9498 28.7969 47.9224 28.7664C48.2123 28.3215 48.3632 27.9571 48.5286 27.4523C48.8298 27.4714 49.4551 27.5076 49.714 27.5246C49.7853 27.5277 49.9967 27.5158 50.0633 27.5112C50.4674 27.4972 50.8746 27.1045 50.8865 26.7009C50.9087 26.3382 51.0007 23.8541 51.0007 23.8541C51.4033 23.7694 51.7975 23.6299 52.1706 23.433L52.9483 24.2965C53.155 24.5259 53.5116 24.5445 53.741 24.3378L54.6164 23.5493C54.8459 23.3426 54.8645 22.986 54.6578 22.7566L54.1301 21.7866C54.356 21.4383 54.2681 21.1582 54.389 20.7712L55.575 20.8332C55.883 20.8492 56.1486 20.6105 56.1646 20.302L56.2261 19.1253C56.2421 18.8174 56.0034 18.5518 55.6949 18.5357L55.6964 18.5383ZM40.7179 23.9404C41.3855 23.018 42.8024 22.9741 43.2779 23.0837C43.9243 23.216 44.4431 23.6294 44.7671 24.1947C45.4394 25.376 45.0307 26.8999 43.9393 27.5443C43.6602 27.7091 42.3958 28.0331 41.3152 27.3479C40.1029 26.579 39.8937 25.0794 40.7179 23.9404ZM51.0999 21.1061C50.685 21.3582 48.8815 21.8564 48.0371 20.3661C47.8878 20.1025 47.2729 18.4866 49.0675 17.6872C49.713 17.3999 50.7103 17.3751 51.2725 17.8025C52.4068 18.6649 52.3179 20.3661 51.0999 21.1061Z" fill="#DCDCDC"/>
<path d="M33.1239 19.0891C33.361 18.9692 33.3109 18.5465 33.3316 18.3233C33.3605 18.0045 33.4112 17.6831 33.4876 17.372C33.6432 16.7395 33.9233 16.2 34.2628 15.6502C34.471 15.3122 33.9543 14.889 33.6995 15.2156C33.2334 15.8124 32.9254 16.5576 32.7833 17.2991C32.7136 17.6644 32.6815 18.0293 32.7048 18.4008C32.7161 18.5843 32.7704 19.2674 33.1239 19.0886V19.0891Z" fill="#DCDCDC"/>
<path d="M35.0641 14.6198C35.2119 14.5288 35.3261 14.3976 35.4682 14.2994C35.5395 14.2503 35.6149 14.2121 35.6888 14.1671C35.8402 14.0756 35.91 13.9723 35.9255 13.7935C35.9348 13.6886 35.8583 13.5527 35.7617 13.5082C35.5948 13.4318 35.4496 13.4405 35.2997 13.5444C35.2046 13.61 35.1173 13.6927 35.0387 13.7769C34.8909 13.9351 34.7395 14.1216 34.7013 14.3397C34.6662 14.5397 34.8667 14.7407 35.0646 14.6187L35.0641 14.6198Z" fill="#DCDCDC"/>
<path d="M32.9989 18.6985C33.236 18.5786 33.1859 18.1559 33.2066 17.9327C33.2355 17.6138 33.2862 17.2924 33.3626 16.9813C33.5182 16.3488 33.7983 15.8093 34.1378 15.2595C34.346 14.9216 33.8293 14.4984 33.5745 14.8249C33.1084 15.4218 32.8004 16.1669 32.6583 16.9085C32.5885 17.2738 32.5565 17.6387 32.5798 18.0102C32.5911 18.1936 32.6454 18.8768 32.9989 18.698V18.6985Z" fill="#1E1E22"/>
<path d="M34.94 14.2287C35.0878 14.1377 35.202 14.0065 35.3441 13.9083C35.4155 13.8592 35.4909 13.8209 35.5648 13.776C35.7162 13.6845 35.786 13.5812 35.8015 13.4024C35.8108 13.2975 35.7343 13.1616 35.6377 13.1171C35.4707 13.0406 35.3255 13.0494 35.1757 13.1533C35.0806 13.2189 34.9933 13.3016 34.9147 13.3858C34.7669 13.544 34.6155 13.7305 34.5773 13.9486C34.5421 14.1486 34.7426 14.3496 34.9406 14.2276L34.94 14.2287Z" fill="#1E1E22"/>
<path d="M53.3796 33.4927C53.8716 33.4782 54.3578 33.0043 54.6736 32.6633C55.0095 32.3 55.4342 31.8106 55.5526 31.3187C55.5934 31.1497 55.5242 30.9843 55.379 30.8918C55.3531 30.8753 55.318 30.8629 55.2885 30.8536C55.1728 30.8174 54.9986 30.851 54.9206 30.9508C54.6297 31.3228 54.4493 31.7626 54.1331 32.1227C53.9863 32.2902 53.8308 32.4545 53.6685 32.6075C53.4949 32.7713 53.284 32.9191 53.1755 33.1371C53.099 33.2906 53.19 33.4983 53.3796 33.4927Z" fill="#1E1E22"/>
<path d="M57.3119 18.2086C57.3057 17.8386 57.3652 16.9399 57.3063 16.5751C56.7564 13.1387 53.5314 10.6681 50.0506 10.6686C46.3589 10.6552 42.6031 10.7193 38.9058 10.6686C38.5327 10.6661 37.9364 10.695 37.5622 10.7482C33.9636 11.1647 31.1494 14.5944 31.262 18.2179C31.2455 20.6275 31.2455 24.422 31.2424 26.8626C31.2424 26.8626 31.2511 31.0421 31.2517 31.2276C29.9541 32.5174 28.3439 33.5979 26.5007 33.8465C26.3244 33.8677 26.2629 34.0568 26.3611 34.1927C26.4857 34.3886 26.6531 34.5617 26.8252 34.7151C26.9983 34.8733 27.1936 35.0071 27.3889 35.1347L27.59 35.2505L27.6907 35.3079C28.811 35.8871 29.7438 36.1476 30.9886 36.2117C31.4878 36.2525 32.559 36.3284 33.0567 36.33C37.8485 36.3073 45.1993 36.3739 49.972 36.3429C51.0293 36.3171 52.207 36.1641 53.1495 35.6841C54.5664 34.9715 55.7322 33.9814 56.4112 32.5489C56.5022 32.3551 56.6686 31.8539 56.7435 31.6529C56.8159 31.4441 56.9637 31.0519 57.02 30.8374C57.1683 30.2556 57.3311 29.6319 57.3336 29.0314C57.3238 26.4709 57.3259 20.7071 57.313 18.207L57.3119 18.2086ZM56.804 29.2727C56.7699 29.8174 56.6784 30.3646 56.5192 30.887C56.2686 31.7237 55.8573 32.5179 55.3137 33.2016C54.6393 34.0594 53.7551 34.757 52.7635 35.2123C51.7708 35.6768 50.6691 35.8758 49.5767 35.8468C44.6014 35.8417 37.2031 35.7946 32.2175 35.807C31.7881 35.8117 31.3333 35.79 30.9018 35.7523C30.7695 35.745 30.6031 35.7202 30.4672 35.7027C30.414 35.6965 30.1856 35.6649 30.1422 35.6603C29.2591 35.5104 28.3682 35.2557 27.6075 34.7834C27.3579 34.6185 27.1125 34.4356 26.9115 34.2134C27.2809 34.1452 27.6447 34.0465 27.9977 33.9209C29.3908 33.4238 30.614 32.5241 31.6491 31.4896C31.6909 31.4477 31.7173 31.3888 31.7173 31.3247L31.7266 26.8626C31.7312 24.5026 31.7069 20.0311 31.7131 17.6711C31.7353 17.2267 31.803 16.7684 31.9059 16.3353C32.5833 13.4725 35.1919 11.2624 38.1374 11.0831C42.0161 10.9958 45.9677 10.9968 49.8428 10.9746C53.7376 10.9668 56.9053 14.1453 56.8758 18.0391C56.8526 20.7396 56.8412 26.5277 56.8035 29.2717L56.804 29.2727Z" fill="#1E1E22"/>
<path d="M52.1595 23.7531C52.3739 23.9914 52.7444 24.0105 52.9827 23.796L53.8921 22.977C54.1304 22.7625 54.1495 22.392 53.935 22.1538L53.1155 21.2438C53.3501 20.8821 53.5304 20.494 53.656 20.092L54.8874 20.1565C55.2073 20.1731 55.4832 19.925 55.4997 19.6052L55.5638 18.3831C55.5804 18.0632 55.3323 17.7872 55.0125 17.7707L53.7686 17.7056C53.6823 17.2979 53.5428 16.8984 53.3464 16.5197L54.2735 15.6846C54.5117 15.4701 54.5308 15.0996 54.3164 14.8614L53.4973 13.9519C53.2829 13.7137 52.9124 13.6946 52.6742 13.909L51.7471 14.7436C51.3905 14.509 51.0082 14.3281 50.6118 14.2L50.6769 12.9561C50.6935 12.6363 50.4454 12.3603 50.1255 12.3438L48.9034 12.2797C48.5836 12.2632 48.3076 12.5112 48.2911 12.8311L48.2265 14.0625C47.8136 14.1457 47.409 14.2842 47.0245 14.48L46.2049 13.57C45.9905 13.3318 45.62 13.3127 45.3818 13.5271L44.4723 14.3462C44.2341 14.5607 44.2149 14.9312 44.4294 15.1694L45.2376 16.0665C44.9942 16.4308 44.8071 16.8225 44.6759 17.2297L43.477 17.1671C43.1571 17.1506 42.8812 17.3986 42.8647 17.7185L42.8006 18.9406C42.784 19.2605 43.0321 19.5364 43.352 19.553L44.5384 19.615C44.6237 20.0387 44.7668 20.4532 44.9704 20.8464L44.0909 21.6386C43.8527 21.853 43.8336 22.2236 44.048 22.4618L44.8671 23.3713C45.0815 23.6095 45.452 23.6286 45.6903 23.4141L46.5698 22.622C46.9393 22.8654 47.3371 23.0514 47.7495 23.1801L47.6875 24.3665C47.671 24.6864 47.919 24.9623 48.2389 24.9789L49.461 25.0429C49.7809 25.0595 50.0568 24.8114 50.0733 24.4916L50.1359 23.2927C50.5539 23.2043 50.9632 23.0597 51.3513 22.8555L52.1595 23.7526V23.7531ZM47.9474 20.3183C46.7692 19.4222 46.8612 17.655 48.1267 16.8865C48.7536 16.5057 49.8331 16.562 50.417 17.0064C51.5947 17.9025 51.5027 19.6693 50.2377 20.4377C49.6109 20.8185 48.5314 20.7622 47.9474 20.3183Z" fill="#1E1E22"/>
<path d="M45.5323 31.7173C45.8175 32.0341 46.3105 32.0599 46.6272 31.7746L47.837 30.6853C48.1537 30.4001 48.1796 29.9071 47.8943 29.5903L46.804 28.3796C47.1161 27.898 47.3559 27.3823 47.5228 26.8474L49.1614 26.9332C49.5872 26.9554 49.9541 26.6252 49.9763 26.1994L50.0611 24.5737C50.0833 24.1479 49.7531 23.781 49.3273 23.7588L47.6726 23.6725C47.5579 23.1299 47.3719 22.5987 47.1109 22.0949L48.3439 20.9844C48.6607 20.6991 48.6865 20.2061 48.4013 19.8894L47.3114 18.6797C47.0262 18.3629 46.5332 18.337 46.2164 18.6223L44.9835 19.7328C44.5091 19.4207 44.0006 19.1804 43.473 19.0099L43.5593 17.3552C43.5815 16.9294 43.2513 16.5625 42.8255 16.5403L41.1998 16.455C40.774 16.4328 40.4071 16.763 40.3849 17.1888L40.2991 18.8274C39.7498 18.938 39.2114 19.1225 38.7003 19.3824L37.6099 18.1717C37.3247 17.8549 36.8317 17.8291 36.5149 18.1143L35.3052 19.2036C34.9885 19.4889 34.9626 19.9819 35.2479 20.2986L36.3227 21.4923C35.9987 21.977 35.7502 22.4984 35.5755 23.0395L33.9808 22.9563C33.555 22.9341 33.1881 23.2643 33.1659 23.6901L33.0811 25.3158C33.0589 25.7416 33.3891 26.1085 33.8149 26.1307L35.3936 26.2134C35.5068 26.7771 35.6974 27.329 35.9682 27.852L34.7978 28.9062C34.481 29.1914 34.4552 29.6844 34.7404 30.0012L35.8297 31.2109C36.115 31.5276 36.608 31.5535 36.9247 31.2682L38.0952 30.2141C38.5871 30.5375 39.1163 30.7851 39.6645 30.9561L39.5819 32.5348C39.5596 32.9606 39.8899 33.3275 40.3157 33.3497L41.9414 33.4344C42.3672 33.4567 42.734 33.1265 42.7563 32.7007L42.8395 31.106C43.396 30.9887 43.9401 30.7959 44.4559 30.5241L45.5307 31.7178L45.5323 31.7173ZM39.9286 27.1471C38.3608 25.955 38.4838 23.6038 40.1673 22.5816C41.0014 22.0752 42.4374 22.1502 43.2141 22.7408C44.7809 23.9329 44.6584 26.2836 42.9759 27.3058C42.1419 27.8127 40.7058 27.7378 39.9286 27.1466V27.1471Z" fill="white"/>
<path d="M41.4536 27.6389C40.8852 27.6131 40.3219 27.4467 39.9282 27.147C38.3604 25.9548 38.4833 23.6036 40.1669 22.5815C40.9457 22.1087 42.2484 22.1428 43.0504 22.6301C42.1817 21.7366 40.4532 21.7759 39.6615 22.2451C38.7309 22.7965 37.4994 24.6082 38.8249 26.5103C39.5985 27.6208 40.6279 27.7655 41.4536 27.6389Z" fill="#DCDCDC"/>
<path d="M47.6775 29.3484C47.4966 29.6951 47.1452 29.9726 46.6259 30.4403C46.0616 30.9488 45.842 31.0898 45.3976 30.9503C44.9532 30.8108 44.1589 29.6874 44.0726 29.5918C43.9863 29.4962 43.8535 29.6119 43.4432 29.8367C43.0329 30.0615 42.525 30.1209 42.4278 30.1421C42.3301 30.1633 42.358 31.481 42.2986 31.9611C42.2397 32.4411 41.6651 32.4654 41.6651 32.4654C41.6651 32.4654 40.5887 32.4215 40.1484 32.3982C39.9381 32.3874 39.7423 32.3523 39.5945 32.3192L39.5831 32.5342C39.5609 32.96 39.8911 33.3269 40.3169 33.3491L41.9426 33.4338C42.3684 33.456 42.7353 33.1258 42.7575 32.7L42.8407 31.1053C43.3972 30.988 43.9414 30.7953 44.4571 30.5235L45.5319 31.7172C45.8172 32.0339 46.3102 32.0598 46.6269 31.7745L47.8367 30.6852C48.1534 30.4 48.1792 29.907 47.894 29.5902L47.677 29.3494L47.6775 29.3484Z" fill="#DCDCDC"/>
<path d="M49.6358 23.8408L49.6048 24.4294C49.6048 24.4294 49.6363 25.3472 49.3676 25.7089C49.0984 26.0706 48.4602 25.9543 47.9517 25.9275C47.4432 25.9006 47.2143 25.744 47.0639 26.0231C46.9135 26.3021 46.4955 27.5325 46.3523 27.6772C46.2092 27.8219 46.8035 28.3794 46.8035 28.3794C47.1156 27.8978 47.3554 27.3821 47.5223 26.8473L49.1609 26.9331C49.5867 26.9553 49.9536 26.6251 49.9758 26.1993L50.0605 24.5736C50.0771 24.2589 49.9003 23.9767 49.6353 23.8419L49.6358 23.8408Z" fill="#DCDCDC"/>
<path d="M47.1116 22.0936L48.3446 20.9832C48.6613 20.6979 48.6872 20.2049 48.4019 19.8882L48.0629 19.512C48.0262 19.7585 47.9224 19.9967 47.7875 20.1496C47.4676 20.5129 46.5995 20.9961 46.6982 21.1304C46.7969 21.2648 47.1111 22.0936 47.1111 22.0936H47.1116Z" fill="#DCDCDC"/>
<path d="M43.0502 19.0258C43.122 19.1395 43.4445 19.0646 43.5525 19.0356C43.5261 19.0268 43.4993 19.017 43.4729 19.0082L43.5592 17.3536C43.5799 16.9629 43.3029 16.6224 42.9277 16.5521C42.9908 16.6302 43.0399 16.7278 43.0502 16.8498C43.0941 17.3856 42.9634 18.8884 43.0502 19.0253V19.0258Z" fill="#DCDCDC"/>
<path d="M38.7825 19.342C38.7551 19.3554 38.7278 19.3678 38.7009 19.3818L37.6105 18.171C37.3253 17.8543 36.8323 17.8284 36.5156 18.1137L36.2422 18.3597C36.436 18.2589 36.6142 18.1995 36.7052 18.232C36.884 18.2961 37.1563 18.6067 38.2446 19.6551C38.458 19.8603 38.7727 19.3575 38.7825 19.342Z" fill="#DCDCDC"/>
<path d="M35.576 23.0393L33.9813 22.9561C33.5555 22.9339 33.1886 23.2641 33.1664 23.6899L33.1514 23.9726C33.2495 23.8083 33.3472 23.6698 33.3813 23.6341C33.4495 23.5623 35.4473 23.6377 35.5568 23.5556C35.6664 23.4734 35.576 23.0399 35.576 23.0399V23.0393Z" fill="#DCDCDC"/>
<path d="M35.9663 26.4345C35.7689 26.0665 35.3943 26.2128 35.3943 26.2128C35.5075 26.7765 35.6981 27.3284 35.9689 27.8514L34.7985 28.9056C34.4817 29.1908 34.4559 29.6838 34.7411 30.0006L35.8304 31.2103C36.0795 31.4867 36.4867 31.5415 36.7968 31.3612C36.4407 31.0206 35.7209 30.3008 35.6661 30C35.5932 29.5985 36.2764 28.9934 36.7048 28.6368C37.0892 28.317 36.9663 28.1118 36.9663 28.1118C36.9663 28.1118 36.1637 26.8029 35.9663 26.435V26.4345Z" fill="#DCDCDC"/>
<path d="M36.2691 25.3581C36.4344 25.2088 36.4096 24.9411 36.438 24.7354C36.4732 24.4786 36.5186 24.2264 36.5987 23.98C36.7626 23.4751 37.0308 23.0266 37.3832 22.6312C37.5976 22.3909 37.1909 22.0995 36.9786 22.3372C36.5931 22.7697 36.3026 23.2885 36.1342 23.8435C36.0515 24.1169 35.9874 24.4037 35.9735 24.6895C35.9631 24.9065 35.9347 25.2191 36.1301 25.3628C36.1688 25.3912 36.2319 25.3922 36.2685 25.3586L36.2691 25.3581Z" fill="#DCDCDC"/>
<path d="M37.6877 21.8767C37.7724 21.9511 37.9305 21.9015 38.0236 21.8695C38.1538 21.8251 38.2793 21.7677 38.3946 21.6922C38.6276 21.5398 38.2675 21.0758 38.023 21.2153C37.9037 21.2835 37.4489 21.6189 37.6872 21.8767H37.6877Z" fill="#DCDCDC"/>
<path d="M36.0435 25.1756C36.2088 25.0263 36.184 24.7586 36.2125 24.553C36.2476 24.2961 36.2931 24.044 36.3732 23.7975C36.537 23.2926 36.8052 22.8441 37.1576 22.4487C37.372 22.2085 36.9654 21.917 36.753 22.1547C36.3675 22.5872 36.0771 23.1061 35.9086 23.661C35.8259 23.9344 35.7618 24.2212 35.7479 24.507C35.7376 24.724 35.7091 25.0366 35.9045 25.1803C35.9432 25.2087 36.0063 25.2097 36.043 25.1762L36.0435 25.1756Z" fill="#1E1E22"/>
<path d="M37.4621 21.6945C37.5468 21.7689 37.705 21.7193 37.798 21.6872C37.9282 21.6428 38.0538 21.5854 38.169 21.51C38.4021 21.3576 38.0419 20.8935 37.7975 21.033C37.6781 21.1012 37.2233 21.4366 37.4616 21.6945H37.4621Z" fill="#1E1E22"/>
<path d="M45.695 27.5703C45.5746 27.6706 45.4924 27.8106 45.385 27.9238C45.2708 28.0442 45.1183 28.1382 45.03 28.2778C44.9623 28.3847 44.9871 28.5372 45.0749 28.6245C45.1721 28.7217 45.3033 28.7201 45.4217 28.6695C45.5932 28.5961 45.7276 28.3853 45.8309 28.2359C45.9415 28.0768 46.0325 27.9129 46.0516 27.7176C46.0707 27.5223 45.8195 27.4675 45.6955 27.5703H45.695Z" fill="#DCDCDC"/>
<path d="M45.4167 27.5032C45.2963 27.6034 45.2141 27.7435 45.1066 27.8566C44.9924 27.977 44.84 28.0711 44.7516 28.2106C44.6839 28.3176 44.7087 28.47 44.7966 28.5573C44.8937 28.6545 45.025 28.6529 45.1433 28.6023C45.3149 28.5289 45.4492 28.3181 45.5526 28.1687C45.6632 28.0096 45.7541 27.8458 45.7732 27.6504C45.7924 27.4525 45.5412 27.4003 45.4172 27.5032H45.4167Z" fill="#1E1E22"/>
<path d="M49.3426 23.582C48.9349 23.5557 48.2553 23.4993 47.8099 23.4725C47.7009 22.9692 47.4745 22.5837 47.2466 22.1207C47.5019 21.8948 48.0259 21.4261 48.2192 21.2561C48.2765 21.2039 48.4341 21.0691 48.4827 21.0158C48.7633 20.7223 48.8021 20.2381 48.5711 19.9033C48.5318 19.8408 48.4615 19.7669 48.413 19.7121C48.3158 19.6036 48.0517 19.308 47.952 19.1958C47.8487 19.0837 47.5918 18.7881 47.4911 18.6796C47.381 18.5484 47.2508 18.4228 47.088 18.3597C46.7759 18.2233 46.3909 18.2833 46.1351 18.5086C46.0152 18.6124 45.6886 18.908 45.5739 19.0088C45.5739 19.0088 45.0954 19.4361 44.9683 19.5498C44.5497 19.2827 44.0991 19.0651 43.6299 18.9018C43.6501 18.5525 43.6857 17.8864 43.7007 17.6373C43.7043 17.5583 43.7193 17.3536 43.7167 17.2787C43.7084 16.9537 43.5157 16.6431 43.2299 16.4891C43.0765 16.3976 42.8925 16.3744 42.7173 16.3682C42.5716 16.3604 42.1789 16.3372 42.0285 16.3294C41.8776 16.3227 41.4859 16.2969 41.3397 16.2907L41.2249 16.284C40.994 16.2679 40.7542 16.3392 40.5728 16.4845C40.3584 16.6493 40.225 16.9097 40.2095 17.1795L40.208 17.2084L40.1951 17.4379C40.1806 17.6787 40.1454 18.3256 40.1258 18.677C39.6499 18.7814 39.1858 18.9401 38.7456 19.1499C38.575 18.9592 38.2314 18.5747 38.2314 18.5747C38.1368 18.4683 37.865 18.1654 37.7756 18.0647C37.7477 18.0332 37.7121 17.9965 37.6821 17.968C37.3266 17.6368 36.7333 17.6373 36.3768 17.967C36.323 18.0166 36.1768 18.1432 36.1215 18.1949C35.952 18.3463 35.6104 18.6507 35.4409 18.8021C35.3862 18.8512 35.2379 18.9829 35.1857 19.03C34.8493 19.3106 34.7413 19.8154 34.935 20.2092C34.9929 20.3487 35.1536 20.511 35.2472 20.6179L35.551 20.9585L36.044 21.5124C35.7872 21.9155 35.5758 22.3475 35.4141 22.7971C35.1516 22.7821 34.6839 22.7547 34.6839 22.7547C34.5444 22.747 34.1372 22.7227 34.0064 22.716C33.9346 22.7118 33.8612 22.716 33.7884 22.7247L33.7155 22.7392C33.2866 22.8312 32.9512 23.2198 32.9239 23.658C32.9171 23.7495 32.9078 23.9355 32.9027 24.0295C32.8872 24.3551 32.8546 24.8352 32.8401 25.1592L32.8339 25.2723L32.8324 25.3007C32.7936 25.8511 33.2473 26.358 33.7977 26.3823C34.1393 26.4009 34.765 26.4319 35.1888 26.4541C35.2963 26.9166 35.4554 27.3667 35.6626 27.7941C35.3986 28.0333 34.9681 28.4245 34.8007 28.5759L34.6333 28.7284C34.3387 28.9945 34.2292 29.4342 34.3604 29.8078C34.4178 29.982 34.534 30.1282 34.6601 30.2585C34.7604 30.3644 35.0115 30.6486 35.1159 30.7576C35.2151 30.8651 35.4766 31.154 35.5727 31.2563L35.6492 31.339L35.6688 31.3602C35.9541 31.6749 36.4424 31.7679 36.8233 31.5819C36.953 31.5297 37.1328 31.3571 37.2258 31.2697L37.557 30.9643C37.557 30.9643 37.9741 30.5763 38.1177 30.4429C38.5539 30.7065 39.021 30.9168 39.5052 31.0687C39.4985 31.2501 39.4768 31.8526 39.4768 31.8526L39.4602 32.3048C39.4556 32.4474 39.4391 32.6567 39.4819 32.7926C39.5775 33.1652 39.9269 33.4473 40.3118 33.4582L40.3403 33.4592L40.4534 33.4633C40.7785 33.4747 41.2575 33.4918 41.5841 33.5042C41.6564 33.5062 41.8543 33.515 41.9231 33.5171C42.2988 33.5414 42.6925 33.3698 42.8047 33.0107C42.8326 32.9337 42.8615 32.8195 42.8661 32.7404L42.8832 32.542L42.9137 32.1007L42.9514 31.3581C43.4945 31.2336 43.8955 31.0263 44.388 30.7664L45.4179 31.878C45.6649 32.157 46.1103 32.3156 46.4271 32.1208C46.5185 32.066 46.7898 31.8428 46.8684 31.772L48.0006 30.7458C48.1815 30.5825 48.2693 30.2641 48.2471 30.0207C48.2347 29.8383 48.1566 29.6533 48.0316 29.5216L47.8709 29.3097C47.8709 29.3097 47.0508 28.4276 47.0224 28.3966C47.3231 27.9346 47.4802 27.5564 47.6518 27.0319C47.9644 27.0515 48.6145 27.0892 48.8832 27.1073C48.9571 27.1104 49.1767 27.0985 49.246 27.0939C49.6656 27.0794 50.0888 26.6712 50.1012 26.2526C50.1244 25.8759 50.1528 25.3721 50.1766 24.9938C50.1797 24.9178 50.1947 24.6362 50.1973 24.5628C50.233 24.1091 49.7963 23.6094 49.3421 23.5846L49.3426 23.582ZM49.9844 24.5701L49.9792 24.6848C49.9586 25.1499 49.9358 25.7136 49.9146 26.1782C49.9121 26.5409 49.6041 26.8613 49.2423 26.8805C49.0604 26.8836 48.6202 26.8541 48.444 26.8494C48.4434 26.8494 47.5247 26.8086 47.5241 26.8086C47.5071 26.8081 47.4911 26.8184 47.4859 26.8355C47.3231 27.374 47.0833 27.8892 46.7795 28.3635C46.7723 28.3744 46.7733 28.3883 46.7821 28.3982L47.7381 29.4518L47.8574 29.5836C47.9778 29.7102 48.0533 29.873 48.0667 30.0471C48.089 30.2776 47.9939 30.5137 47.8228 30.6688L46.765 31.6201L46.6327 31.7389C46.3392 32.0314 45.8204 32.0123 45.5496 31.7007L44.4815 30.5008C44.4717 30.4894 44.4546 30.4863 44.4407 30.4936C43.9343 30.7571 43.3896 30.9478 42.83 31.0584C42.8093 31.0625 42.7933 31.0801 42.7923 31.1023C42.7752 31.3891 42.7225 32.1844 42.707 32.4572L42.6925 32.6831C42.6812 32.8913 42.5773 33.0877 42.4104 33.2117C42.3013 33.2938 42.1691 33.3429 42.0342 33.3507C41.9117 33.3553 41.7169 33.3331 41.5929 33.3274C41.3681 33.3125 40.9149 33.2815 40.6901 33.2659C40.6002 33.2592 40.4111 33.2473 40.3232 33.2406C40.1697 33.2293 40.023 33.1641 39.9119 33.0582C39.7739 32.9254 39.698 32.7337 39.7109 32.543L39.7264 32.3177L39.7574 31.8661L39.8194 30.9633C39.824 30.8956 39.7827 30.831 39.7155 30.8088C39.176 30.631 38.6624 30.3783 38.1958 30.06C38.1281 30.014 38.035 30.0187 37.9725 30.0771C37.7575 30.2662 37.1576 30.785 36.9545 30.9674C36.8801 31.0315 36.7375 31.17 36.6471 31.2041C36.4279 31.3038 36.1525 31.2465 35.9944 31.0646C35.9386 30.9995 35.8089 30.8563 35.7531 30.7902C35.6042 30.6222 35.3035 30.2838 35.1547 30.1158C35.1061 30.0585 34.9769 29.919 34.9304 29.8631C34.8007 29.7283 34.7495 29.5278 34.7976 29.3469C34.825 29.2461 34.8808 29.1562 34.9578 29.0859C34.9578 29.0859 35.1252 28.9366 35.1252 28.9361C35.3252 28.7568 35.9313 28.2157 36.1329 28.0344C36.215 27.961 36.2404 27.8385 36.1871 27.7367C35.9329 27.2406 35.7495 26.7089 35.6394 26.1627C35.6172 26.0526 35.5231 25.9674 35.4058 25.9612L34.502 25.9131C34.363 25.9053 33.9553 25.8852 33.8251 25.8769C33.5517 25.8661 33.3197 25.6185 33.329 25.3452C33.3311 25.248 33.3424 25.0558 33.3471 24.9581C33.3657 24.6326 33.3832 24.1525 33.4029 23.8285L33.4086 23.7154L33.4091 23.7014C33.4184 23.4425 33.6406 23.2131 33.899 23.1965C33.9119 23.1945 33.9248 23.195 33.9377 23.195H33.9574H33.9672L33.9811 23.1955C34.0881 23.2007 34.5625 23.2234 34.6591 23.2275L35.5629 23.2699C35.6652 23.2761 35.7629 23.212 35.7954 23.1097C35.9624 22.5821 36.2016 22.0767 36.507 21.6148C36.5628 21.5326 36.5571 21.4199 36.4874 21.3429C36.291 21.1285 35.7531 20.5358 35.566 20.3311L35.4125 20.1622C35.381 20.127 35.3624 20.1002 35.3371 20.0609C35.2038 19.8382 35.2503 19.5312 35.443 19.3576L35.4637 19.3385L35.5479 19.262C35.7903 19.0413 36.1484 18.7163 36.3918 18.4951C36.4796 18.4197 36.6207 18.2776 36.7122 18.2125C36.9235 18.0631 37.2305 18.0864 37.4211 18.2579L37.4516 18.2879C37.4568 18.2931 37.4614 18.2967 37.4676 18.3039L37.4868 18.3251L37.6402 18.4941C37.8263 18.6982 38.3715 19.3007 38.5601 19.5069C38.6154 19.5689 38.7073 19.5886 38.7848 19.5488C39.2737 19.2976 39.7966 19.1137 40.3356 19.0031C40.4142 18.9871 40.4751 18.9194 40.4793 18.8352C40.4932 18.5422 40.533 17.736 40.5459 17.457L40.5568 17.227L40.5583 17.1981C40.5671 17.0265 40.6498 16.8606 40.7862 16.7547C40.8911 16.6705 41.025 16.6219 41.1588 16.6229C41.1748 16.6229 41.1862 16.6219 41.2074 16.6229L41.3221 16.6286C41.4699 16.6369 41.8585 16.6529 42.0114 16.6617C42.1608 16.6694 42.5571 16.6875 42.7008 16.6948L42.8155 16.7005C42.9669 16.7087 43.1152 16.7728 43.2212 16.8818C43.3297 16.9888 43.3948 17.1381 43.401 17.2901V17.3361C43.4015 17.351 43.3994 17.3733 43.3989 17.3914L43.3881 17.6213C43.3757 17.9004 43.3338 18.7179 43.3214 19.001C43.3183 19.0677 43.3596 19.1302 43.4263 19.1514C43.9477 19.3173 44.4469 19.5529 44.9052 19.8521C44.9585 19.8867 45.0308 19.8831 45.0804 19.8382L45.7636 19.2181L46.1051 18.908C46.1542 18.8646 46.3062 18.7225 46.3542 18.6863C46.4302 18.6295 46.518 18.5892 46.6116 18.5711C46.8312 18.5241 47.0689 18.6042 47.2182 18.7716C47.2678 18.8279 47.3996 18.9695 47.4508 19.0279C47.6053 19.1984 47.9164 19.5405 48.0709 19.711L48.2259 19.8816C48.3163 19.9782 48.4135 20.0852 48.4465 20.2169C48.5158 20.4335 48.4589 20.6836 48.3049 20.85L48.2708 20.8846C48.2605 20.896 48.2435 20.9099 48.23 20.9223L48.0595 21.0779C47.8554 21.266 47.2435 21.8204 47.0374 22.0111C47.0007 22.0437 46.9893 22.0984 47.0131 22.1439C47.2694 22.6307 47.4585 23.1536 47.5763 23.6926C47.5856 23.735 47.6223 23.7675 47.6678 23.7696L48.5866 23.8115C48.7866 23.8223 49.1901 23.8347 49.3829 23.8502C49.7307 23.89 50.004 24.2207 49.9844 24.569V24.5701Z" fill="#1E1E22"/>
<path d="M42.27 22.148C41.6706 22.0312 41.034 22.0648 40.4604 22.2797C39.6362 22.6167 38.9985 23.3882 38.8182 24.2584C38.5799 25.3368 39.0419 26.5011 39.9132 27.1667C40.5048 27.6043 41.2583 27.7728 41.991 27.7501C43.1744 27.7428 44.2104 26.8075 44.4792 25.6691C44.8745 24.1349 43.8498 22.4157 42.27 22.1485V22.148ZM42.8834 27.1248C42.5935 27.2959 41.28 27.6323 40.1581 26.9207C38.8988 26.1218 38.6817 24.5643 39.538 23.3815C40.2315 22.4234 41.7032 22.3779 42.1967 22.4916C42.8679 22.6291 43.4069 23.0585 43.7433 23.646C44.442 24.8728 44.0167 26.4561 42.8834 27.1253V27.1248Z" fill="#1E1E22"/>
</g>
</g>
<defs>
<radialGradient id="paint0_radial_457_81333" cx="0" cy="0" r="1" gradientUnits="userSpaceOnUse" gradientTransform="translate(-33.6693 -1.28512) rotate(90) scale(89.0251)">
<stop offset="0.265" stop-color="#D27C71"/>
<stop offset="1" stop-color="#D27C71" stop-opacity="0"/>
</radialGradient>
<radialGradient id="paint1_radial_457_81333" cx="0" cy="0" r="1" gradientUnits="userSpaceOnUse" gradientTransform="translate(106.061 126.312) rotate(90) scale(126.144)">
<stop stop-color="#B68EFF"/>
<stop offset="1" stop-color="#B68EFF" stop-opacity="0"/>
</radialGradient>
<clipPath id="clip0_457_81333">
<rect width="64" height="64" rx="32" fill="white"/>
</clipPath>
<clipPath id="clip1_457_81333">
<rect width="64" height="64" fill="white"/>
</clipPath>
</defs>
</svg>
