<svg width="64" height="65" viewBox="0 0 64 65" fill="none" xmlns="http://www.w3.org/2000/svg">
<g clip-path="url(#clip0_457_81359)">
<rect y="0.5" width="64" height="64" rx="32" fill="#8B47F4"/>
<mask id="mask0_457_81359" style="mask-type:alpha" maskUnits="userSpaceOnUse" x="0" y="0" width="64" height="65">
<circle cx="32" cy="32.5" r="32" fill="#8B47F4"/>
</mask>
<g mask="url(#mask0_457_81359)">
<circle cx="-33.6693" cy="-0.785118" r="89.0251" fill="url(#paint0_radial_457_81359)"/>
<circle cx="106.061" cy="126.812" r="126.144" fill="url(#paint1_radial_457_81359)"/>
</g>
<g clip-path="url(#clip1_457_81359)">
<path d="M50.0221 11.1322H16.9062C12.4572 11.1322 8.85059 14.7388 8.85059 19.1878V66.9636C8.85059 71.4126 12.4572 75.0192 16.9062 75.0192H50.0221C54.471 75.0192 58.0776 71.4126 58.0776 66.9636V19.1878C58.0776 14.7388 54.471 11.1322 50.0221 11.1322Z" fill="#DCDCDC"/>
<path d="M58.5143 17.8697C58.3192 16.174 57.5797 14.6094 56.433 13.3454C54.9066 11.6496 52.02 10.7632 49.7364 10.7513C45.3583 10.7441 21.9304 10.5042 17.0139 10.5009C13.5249 10.4469 9.79269 12.7786 8.67758 16.0837C8.34146 17.0314 8.24458 18.826 8.25579 19.8304C8.20504 34.5338 8.14836 52.1166 8.22481 66.7983C8.09036 71.4742 11.9886 75.9775 16.6732 75.9538C27.6694 75.8523 39.0584 76.2708 50.0382 76.2517C54.3767 76.28 58.2144 72.2769 58.2961 67.9437L58.3567 66.9479V66.2539C58.3923 51.8635 58.6447 34.7414 58.6658 20.3748C58.6625 19.8251 58.592 18.4154 58.5149 17.8711L58.5143 17.8697ZM58.0351 67.1713C57.9639 71.4795 54.3253 75.0113 50.0237 74.979C39.0407 74.9672 27.8381 74.8413 16.8386 74.7424C15.7696 74.7246 14.7079 74.4834 13.7417 74.0379C10.9098 72.7633 9.08882 69.7818 9.22393 66.6869C9.29247 51.9986 9.26479 34.1061 9.20548 19.3941C9.189 18.4675 9.32015 17.5303 9.62595 16.6545C10.6363 13.6064 13.6943 11.421 16.9065 11.4532C21.6806 11.4341 45.8579 11.3979 50.0923 11.3801C52.2454 11.3814 54.3642 12.3311 55.8121 13.9234C56.9016 15.1136 57.61 16.6465 57.8018 18.2494C57.8763 18.772 57.8565 19.3552 57.8638 19.8805C57.8928 34.255 57.9949 51.9446 58.0397 66.3435C58.0378 66.5663 58.0457 66.9558 58.0351 67.1719V67.1713Z" fill="#1E1E22"/>
<path d="M47.1695 13.5431H14.0536C9.60465 13.5431 5.99805 17.1497 5.99805 21.5987V69.3745C5.99805 73.8234 9.60465 77.43 14.0536 77.43H47.1695C51.6185 77.43 55.2251 73.8234 55.2251 69.3745V21.5987C55.2251 17.1497 51.6185 13.5431 47.1695 13.5431Z" fill="white"/>
<path d="M55.2254 69.375V21.5986C55.2254 17.4242 52.0508 13.9918 47.9838 13.5839C51.3772 17.5447 51.5512 21.4121 51.5512 21.4121L52.4844 71.1578C52.4844 71.1578 18.341 74.078 12.4122 73.2569C9.25605 72.8199 7.21629 71.0424 5.99902 69.4765C6.05372 73.8783 9.63829 77.4299 14.0533 77.4299H47.1699C51.6184 77.4299 55.2254 73.8236 55.2254 69.3744V69.375Z" fill="#DCDCDC"/>
<path d="M55.6607 20.2811C55.4657 18.5854 54.7262 17.0208 53.5795 15.7568C52.0531 14.061 49.1665 13.1746 46.8829 13.1627C42.5048 13.1555 19.0769 12.9156 14.1604 12.9123C10.6714 12.8583 6.93917 15.19 5.82406 18.4951C5.48795 19.4428 5.39107 21.2374 5.40227 22.2418C5.35152 36.9452 5.29485 54.528 5.37129 69.2096C5.23685 73.8856 9.13513 78.3889 13.8197 78.3652C24.8159 78.2637 36.2049 78.6822 47.1847 78.663C51.5232 78.6914 55.3609 74.6883 55.4426 70.3551L55.5032 69.3592V68.6652C55.5388 54.2749 55.7912 37.1528 55.8123 22.7862C55.809 22.2365 55.7385 20.8268 55.6614 20.2825L55.6607 20.2811ZM55.1816 69.582C55.1104 73.8902 51.4718 77.4221 47.1702 77.3898C36.1871 77.3779 24.9846 77.252 13.9851 77.1532C12.9161 77.1354 11.8544 76.8941 10.8882 76.4486C8.05626 75.174 6.23531 72.1925 6.37041 69.0976C6.43896 54.4094 6.41128 36.5168 6.35196 21.8048C6.33548 20.8782 6.46664 19.9411 6.77243 19.0652C7.78276 16.0171 10.8407 13.8317 14.053 13.864C18.8271 13.8448 43.0043 13.8086 47.2387 13.7908C49.3919 13.7921 51.5107 14.7418 52.9586 16.3341C54.048 17.5243 54.7565 19.0573 54.9483 20.6601C55.0228 21.1827 55.003 21.766 55.0103 22.2912C55.0393 36.6658 55.1414 54.3553 55.1862 68.7542C55.1842 68.977 55.1922 69.3665 55.1816 69.5827V69.582Z" fill="#1E1E22"/>
<path d="M30.2148 50.73C40.5276 50.73 48.8877 43.1937 48.8877 33.8972C48.8877 24.6008 40.5276 17.0645 30.2148 17.0645C19.9021 17.0645 11.542 24.6008 11.542 33.8972C11.542 43.1937 19.9021 50.73 30.2148 50.73Z" fill="#DCDCDC"/>
<path d="M34.6476 42.8381C34.4189 42.5817 34.0821 42.4585 33.7723 42.38C32.965 42.1948 32.1498 42.2219 31.3358 42.2667C30.5311 42.3227 29.7324 42.4255 28.9389 42.5527C28.1566 42.6792 27.3367 42.8315 26.5643 43.0147C26.3383 43.3811 26.2809 43.851 26.4351 44.261C26.7732 45.0874 27.6972 45.4308 28.4947 45.6186C30.2286 45.9949 33.0625 45.6812 34.4222 44.4481C34.8598 44.0593 35.07 43.3205 34.6482 42.8381H34.6476Z" fill="#1E1E22"/>
<path d="M21.8939 24.8935C21.8939 24.8935 23.2008 19.9262 25.3302 20.172C26.7768 20.3388 26.6048 24.2377 26.6048 24.2377L33.3152 23.9095C33.3152 23.9095 34.6702 20.2043 36.5413 20.4831C38.4123 20.7619 37.8963 24.303 37.8963 24.303C37.8963 24.303 40.9938 25.0246 41.5098 27.844C42.0259 30.6641 41.8328 39.9633 40.2194 41.7401C38.6061 43.5169 28.2504 44.2847 25.9114 44.0323C23.5718 43.7792 18.797 42.4051 17.7003 38.6004C16.6037 34.7957 17.5198 29.9095 17.9099 28.4016C18.3937 26.5325 20.5395 25.0899 21.8945 24.8935H21.8939Z" fill="white"/>
<path d="M41.5088 27.8446C40.9927 25.0246 37.8952 24.3036 37.8952 24.3036C37.8952 24.3036 38.4112 20.7625 36.5402 20.4837C36.2416 20.4396 35.9569 20.4962 35.688 20.6234C35.7085 20.858 35.6762 21.1711 35.5483 21.5889C35.0969 23.0566 34.5433 24.9422 35.4758 25.2697C36.4084 25.5979 37.828 25.9242 37.8497 26.8429C37.8715 27.7616 37.9367 36.2337 37.4741 38.4896C37.0108 40.7455 33.0143 42.9098 25.5275 42.057C21.3089 41.5766 19.314 40.7152 18.2832 39.9362C19.9704 42.7365 23.868 43.8121 25.9104 44.0329C28.25 44.2859 38.6057 43.5175 40.2183 41.7407C41.8317 39.9639 42.0248 30.6647 41.5088 27.8446Z" fill="#DCDCDC"/>
<path d="M27.3834 25.4608C27.5456 25.2881 27.8329 24.7431 28.1137 24.1645L26.6044 24.2383C26.6044 24.2383 26.7764 20.3393 25.3298 20.1726C24.9634 20.1304 24.6213 20.2425 24.3057 20.4573C24.3511 20.4573 24.396 20.4606 24.4395 20.4692C25.4748 20.6695 25.1736 26.2701 25.1736 26.2701C25.1736 26.2701 26.9926 25.876 27.3828 25.4608H27.3834Z" fill="#DCDCDC"/>
<path d="M29.3717 28.4609C30.3794 28.428 31.3792 26.6248 31.3792 26.6248C31.3792 26.6248 32.3151 28.2072 33.299 27.8421C33.9844 27.5877 34.0207 25.171 33.2878 24.0782L26.9623 24.8717C26.9623 24.8717 24.3893 26.9286 25.3838 27.8421C26.3783 28.7555 29.3717 26.8871 29.3717 26.8871C29.3717 26.8871 28.3641 28.4939 29.3717 28.4609Z" fill="#DCDCDC"/>
<path d="M42.1027 30.0005C42.0382 29.0488 41.9228 27.9568 41.6203 27.0421C41.1893 25.7991 40.1071 24.854 38.9459 24.3373C38.6823 24.22 38.4299 24.1554 38.1517 24.0783C38.1933 23.7092 38.1715 23.2677 38.1643 22.8986C38.1359 22.1005 38.0133 21.332 37.4571 20.7152C37.0228 20.238 36.2062 20.184 35.646 20.4687C35.0977 20.7349 34.6041 21.195 34.2568 21.6827C33.8106 22.3239 33.4184 23.0317 33.1337 23.7606C33.0289 23.7659 27.1265 23.9834 27.0039 23.99C27.0138 23.5583 26.9835 23.2716 26.9499 22.8426C26.8675 21.9535 26.4609 19.8465 25.2752 19.8452C24.4257 19.8446 24.0731 20.1563 23.7482 20.4694C22.761 21.4559 21.6254 24.7525 21.6254 24.7525C20.1788 24.9733 18.7025 25.9902 17.9894 27.2786C17.8332 27.5594 17.5848 28.3858 17.5057 28.6982C17.3469 29.3151 17.2678 29.9952 17.1801 30.5633C16.7537 33.305 16.7089 35.9643 17.4385 38.673C17.5499 39.0651 17.7522 39.6108 17.944 39.9693C18.864 41.7013 20.4767 42.6885 22.2357 43.3957C23.4167 43.863 24.7809 44.1305 26.0457 44.2571C27.3038 44.3559 28.5507 44.3269 29.8062 44.2815C32.4938 44.1536 38.0522 43.8966 40.15 42.2351C42.1983 40.5987 42.2405 32.644 42.1041 30.0018L42.1027 30.0005ZM40.1948 41.1681C39.0869 43.397 32.1373 43.7628 29.7897 43.8676C27.9437 43.9137 26.074 43.9954 24.2715 43.5242C21.688 42.8698 18.8686 41.47 17.9321 38.7573C17.4569 37.2679 17.3245 35.6875 17.3238 34.1262C17.3409 32.2413 17.5545 30.3452 17.9789 28.5084C18.3671 26.7863 20.2342 25.2435 21.9068 24.908C22.1612 24.0453 22.4683 23.1919 22.8723 22.3878C23.1748 21.7927 23.5248 21.2095 24.0059 20.7481C24.3888 20.3791 24.9398 20.0924 25.4723 20.2479C25.7834 20.3527 25.9798 20.6427 26.1142 20.9359C26.3831 21.5482 26.4668 22.2264 26.5202 22.8914C26.5518 23.3382 26.561 23.7883 26.5446 24.2345L26.5419 24.3004L26.6065 24.2978L33.3183 23.9953L33.3723 23.9926C33.5173 23.611 33.69 23.2347 33.8791 22.8709C34.3615 21.9753 35.1669 20.6651 36.259 20.5741C37.9988 20.5267 37.9375 23.1556 37.7682 24.39C39.2477 24.7716 40.7042 25.7642 41.2262 27.2734C41.5122 28.1611 41.53 29.12 41.5887 30.0499C41.702 33.0104 41.5491 38.6123 40.1935 41.1668L40.1948 41.1681Z" fill="#1E1E22"/>
<path d="M29.0143 27.8269C30.022 27.7939 31.0218 25.9907 31.0218 25.9907C31.0218 25.9907 31.9576 27.5731 32.9416 27.208C33.627 26.9536 33.5835 25.0391 33.4076 23.9055L26.6048 24.2377C26.6048 24.2377 24.0319 26.2946 25.0264 27.208C26.0209 28.1215 29.0143 26.253 29.0143 26.253C29.0143 26.253 28.0066 27.8598 29.0143 27.8269Z" fill="#1E1E22"/>
<path d="M23.5692 23.5943C23.794 23.3558 23.9113 23.0018 24.0727 22.7178C24.221 22.4568 24.4919 22.1774 24.4972 21.8663C24.4991 21.7674 24.3944 21.6778 24.2975 21.7114C23.991 21.8195 23.8203 22.2064 23.6707 22.4786C23.5079 22.7738 23.2951 23.1304 23.2872 23.475C23.2839 23.6194 23.4704 23.6978 23.5686 23.5937L23.5692 23.5943Z" fill="#DCDCDC"/>
<path d="M23.3407 23.3625C23.5654 23.1239 23.6828 22.77 23.8442 22.486C23.9925 22.225 24.2634 21.9456 24.2687 21.6345C24.2706 21.5356 24.1658 21.446 24.069 21.4796C23.7625 21.5877 23.5918 21.9746 23.4422 22.2467C23.2794 22.542 23.0665 22.8985 23.0586 23.2432C23.0553 23.3876 23.2419 23.466 23.3401 23.3619L23.3407 23.3625Z" fill="#1E1E22"/>
<path d="M20.8137 27.0595C20.5401 27.138 20.3385 27.4273 20.1553 27.6369C19.9622 27.8576 19.7803 28.0903 19.6102 28.3302C19.2926 28.777 18.8807 29.3484 18.8721 29.9211C18.8701 30.0371 19.0092 30.0846 19.0883 30.0121C19.4863 29.6463 19.7091 29.0703 20.0228 28.6307C20.1869 28.4007 20.3648 28.1819 20.5533 27.9723C20.7359 27.77 20.989 27.5927 21.0819 27.3311C21.1392 27.1696 20.9646 27.0167 20.815 27.0595H20.8137Z" fill="#DCDCDC"/>
<path d="M22.0884 26.2786C22.0027 26.1297 21.8162 26.1224 21.6936 26.2272C21.5618 26.3393 21.3549 26.4572 21.2778 26.6385C21.2013 26.8177 21.3568 26.9838 21.5361 26.9014C21.6752 26.8375 21.8024 26.6945 21.9388 26.6549C22.0943 26.6095 22.1714 26.423 22.0891 26.2793L22.0884 26.2786Z" fill="#DCDCDC"/>
<path d="M20.6428 26.769C20.3692 26.8474 20.1676 27.1368 19.9844 27.3463C19.7913 27.5671 19.6094 27.7998 19.4393 28.0397C19.1217 28.4865 18.7098 29.0579 18.7012 29.6306C18.6992 29.7466 18.8383 29.7941 18.9174 29.7216C19.3154 29.3558 19.5382 28.7798 19.8519 28.3402C20.016 28.1102 20.1939 27.8914 20.3824 27.6818C20.565 27.4795 20.8181 27.3022 20.911 27.0406C20.9683 26.8791 20.7937 26.7262 20.6441 26.769H20.6428Z" fill="#1E1E22"/>
<path d="M21.9175 25.9888C21.8318 25.8399 21.6453 25.8326 21.5227 25.9374C21.3909 26.0495 21.184 26.1674 21.1069 26.3487C21.0304 26.5279 21.1859 26.694 21.3652 26.6116C21.5043 26.5477 21.6315 26.4047 21.7679 26.3651C21.9234 26.3197 22.0005 26.1331 21.9182 25.9895L21.9175 25.9888Z" fill="#1E1E22"/>
<path d="M38.7188 39.3813C38.587 39.691 38.4156 39.9744 38.1784 40.213C37.9694 40.4232 37.6696 40.582 37.5009 40.8232C37.435 40.9175 37.5272 41.017 37.6169 41.0289C37.9424 41.0717 38.3168 40.7962 38.5474 40.588C38.8282 40.3349 39.0569 40.0205 39.2098 39.6725C39.3587 39.3345 38.8631 39.0418 38.7188 39.3806V39.3813Z" fill="#1E1E22"/>
<path d="M39.6598 37.5695C39.6387 37.4278 39.4206 37.3718 39.3336 37.4819C39.1781 37.6783 39.1108 37.9676 39.0878 38.2161C39.0753 38.3512 39.2005 38.4724 39.3237 38.4876C39.4437 38.5021 39.6032 38.4276 39.6223 38.2899C39.6394 38.166 39.6427 38.0421 39.6552 37.9175C39.6677 37.7976 39.6783 37.6901 39.6598 37.5702V37.5695Z" fill="#1E1E22"/>
<path d="M18.7803 38.535C18.7889 38.9364 19.1171 39.3437 19.3722 39.6257C19.6121 39.89 20.0681 40.3626 20.4523 40.3177C20.6461 40.2953 20.7983 40.1009 20.6843 39.9072C20.5828 39.7345 20.4339 39.6824 20.2718 39.5796C20.1116 39.4781 19.9548 39.3667 19.8131 39.2402C19.6839 39.1249 19.5646 38.999 19.4519 38.8665C19.3267 38.7189 19.2212 38.5317 19.071 38.4124C18.9629 38.3267 18.7764 38.3702 18.7803 38.535Z" fill="#DCDCDC"/>
<path d="M18.7266 38.0861C18.7352 38.4875 19.0634 38.8948 19.3185 39.1769C19.5583 39.4412 20.0144 39.9137 20.3986 39.8689C20.5924 39.8465 20.7446 39.652 20.6306 39.4583C20.5291 39.2856 20.3802 39.2336 20.2181 39.1307C20.0559 39.0279 19.901 38.9179 19.7594 38.7913C19.6302 38.676 19.5109 38.5501 19.3982 38.4176C19.273 38.27 19.1675 38.0829 19.0173 37.9636C18.9092 37.8779 18.7227 37.9214 18.7266 38.0861Z" fill="#1E1E22"/>
<path d="M44.1847 33.2674C43.6087 33.3662 43.03 33.4453 42.454 33.5402C42.2121 33.5798 41.9722 33.6259 41.733 33.6753C41.7277 33.7841 41.7211 33.9231 41.7119 34.0859C41.9788 34.051 42.2457 34.016 42.5127 33.9818C43.0953 33.908 43.6739 33.852 44.2618 33.8447C44.6724 33.8394 44.6104 33.1942 44.1847 33.2674Z" fill="#1E1E22"/>
<path d="M44.5202 34.898C43.9198 34.846 43.3009 34.8855 42.6992 34.9C42.3657 34.9086 42.0079 34.9066 41.6579 34.9323C41.6487 35.0661 41.6382 35.2051 41.627 35.3468C41.9861 35.3508 42.3512 35.329 42.6986 35.3271C43.3036 35.3238 43.9152 35.3673 44.5195 35.3383C44.8009 35.3244 44.7957 34.9211 44.5195 34.8974L44.5202 34.898Z" fill="#1E1E22"/>
<path d="M44.1136 36.3096C43.533 36.2516 42.9471 36.2265 42.3652 36.1751C42.1187 36.1534 41.8399 36.1092 41.5631 36.0914C41.5479 36.2503 41.5315 36.4084 41.5137 36.5646C41.7859 36.6029 42.0653 36.616 42.3091 36.6431C42.9049 36.7083 43.5139 36.7861 44.1136 36.7815C44.4174 36.7795 44.4056 36.3392 44.1136 36.3102V36.3096Z" fill="#1E1E22"/>
<path d="M17.1818 34.494C17.0131 34.2508 16.4562 34.2337 16.1735 34.1915C15.6812 34.1546 15.1842 34.0597 14.6926 34.0973C14.5595 34.1164 14.3301 34.1559 14.3532 34.2871C14.3874 34.4822 14.7275 34.5125 14.9153 34.5467C15.3338 34.5948 15.7537 34.61 16.1722 34.6529C16.3613 34.6647 17.1884 34.7695 17.1851 34.5032L17.1825 34.494H17.1818Z" fill="#1E1E22"/>
<path d="M17.2175 35.4814C16.9934 35.4188 16.7516 35.4451 16.5209 35.4497C16.2639 35.4544 16.0088 35.4623 15.7524 35.4755C15.4961 35.4886 15.2397 35.4998 14.9833 35.5104C14.748 35.5203 14.4963 35.5025 14.2716 35.5769C14.0923 35.6363 14.0758 35.9117 14.2716 35.9638C14.5016 36.0251 14.7474 35.9935 14.9833 35.9849C15.2581 35.975 15.533 35.9612 15.8071 35.9473C16.2566 35.9236 16.8346 35.9341 17.2518 35.7509C17.3704 35.6989 17.3276 35.513 17.2175 35.482V35.4814Z" fill="#1E1E22"/>
<path d="M17.1961 36.3644C16.7816 36.4586 16.3671 36.6979 15.9861 36.8732C15.5498 37.0742 15.0832 37.262 14.6753 37.5164C14.4842 37.635 14.6074 37.9876 14.8341 37.9C15.2671 37.7326 15.6816 37.4979 16.1015 37.2989C16.4679 37.1256 16.8936 36.9793 17.2449 36.7591L17.1961 36.365V36.3644Z" fill="#1E1E22"/>
<path d="M31.7898 33.3708C31.6475 33.0677 31.221 33.3326 31.3502 33.6318C31.5842 34.1736 31.1156 34.8016 30.5304 34.629C30.0044 34.4741 29.9985 33.9693 29.9333 33.5073C30.5482 33.2173 31.0859 32.7223 31.1196 32.3375C31.1598 31.8781 30.5225 31.797 29.6598 31.7885C28.7944 31.7806 28.0589 32.0943 28.2797 32.7052C28.484 33.2694 28.9895 33.5099 29.3625 33.4994C29.3566 33.6351 29.3493 33.7715 29.3138 33.9007C29.2393 34.1683 29.1042 34.54 28.8518 34.687C28.1743 35.0824 27.736 34.194 27.734 33.6391C27.7334 33.4104 27.4137 33.4203 27.3913 33.6391C27.3056 34.4774 27.962 35.3961 28.8504 35.1845C29.2472 35.0903 29.4976 34.7278 29.6558 34.3706C29.6571 34.3673 29.6591 34.3627 29.6604 34.3594C29.816 34.8049 30.1659 35.1503 30.7103 35.1687C31.6428 35.201 32.1648 34.1723 31.7891 33.3702L31.7898 33.3708Z" fill="#DCDCDC"/>
<path d="M29.286 33.4183C29.286 33.4183 28.254 32.7072 28.1248 32.3111C27.9231 31.6935 28.5097 31.5485 29.375 31.5571C30.2377 31.565 30.875 31.6461 30.8348 32.1061C30.7946 32.5654 30.036 33.1817 29.286 33.4189V33.4183Z" fill="#1E1E22"/>
<path d="M37.3551 35.145C36.5728 35.0198 36.4021 34.0075 36.4878 33.3227C36.5221 33.0532 36.5939 32.785 36.7224 32.5615C36.9716 32.0818 37.601 31.8227 38.0405 32.1845C38.4393 32.518 38.4986 33.0657 38.4801 33.6101C38.459 34.2896 38.1499 35.1925 37.3644 35.147L37.3545 35.1457L37.3551 35.145Z" fill="#DCDCDC"/>
<path d="M22.6386 34.8788C22.3546 34.888 22.0429 34.6561 21.9137 34.3773C21.7094 33.8988 21.8188 33.2101 21.9407 32.7106C22.002 32.4944 22.091 32.3039 22.2307 32.1616C22.4726 31.9124 22.9049 31.7984 23.2054 32.0034C23.5145 32.2242 23.5633 32.6796 23.5732 33.0961C23.5692 33.4975 23.5541 33.9087 23.3913 34.2797C23.2291 34.6185 22.9741 34.8558 22.6465 34.8788H22.638H22.6386Z" fill="#DCDCDC"/>
<path d="M25.198 33.1416C25.3807 33.1416 25.5289 32.9911 25.5289 32.8055C25.5289 32.6199 25.3807 32.4694 25.198 32.4694C25.0153 32.4694 24.8672 32.6199 24.8672 32.8055C24.8672 32.9911 25.0153 33.1416 25.198 33.1416Z" fill="#DCDCDC"/>
<path d="M26.2923 33.6061C26.5449 33.6061 26.7497 33.3981 26.7497 33.1415C26.7497 32.8849 26.5449 32.6769 26.2923 32.6769C26.0397 32.6769 25.835 32.8849 25.835 33.1415C25.835 33.3981 26.0397 33.6061 26.2923 33.6061Z" fill="#DCDCDC"/>
<path d="M25.3457 34.4914C25.6099 34.4914 25.8241 34.2737 25.8241 34.005C25.8241 33.7364 25.6099 33.5187 25.3457 33.5187C25.0814 33.5187 24.8672 33.7364 24.8672 34.005C24.8672 34.2737 25.0814 34.4914 25.3457 34.4914Z" fill="#DCDCDC"/>
<path d="M33.1139 33.4183C33.4065 33.4183 33.6437 33.1772 33.6437 32.8799C33.6437 32.5825 33.4065 32.3414 33.1139 32.3414C32.8212 32.3414 32.584 32.5825 32.584 32.8799C32.584 33.1772 32.8212 33.4183 33.1139 33.4183Z" fill="#DCDCDC"/>
<path d="M34.2943 32.5411C34.5021 32.5411 34.6706 32.37 34.6706 32.1589C34.6706 31.9478 34.5021 31.7766 34.2943 31.7766C34.0865 31.7766 33.918 31.9478 33.918 32.1589C33.918 32.37 34.0865 32.5411 34.2943 32.5411Z" fill="#DCDCDC"/>
<path d="M34.1788 34.2817C34.4507 34.2817 34.6711 34.0577 34.6711 33.7815C34.6711 33.5052 34.4507 33.2812 34.1788 33.2812C33.9069 33.2812 33.6865 33.5052 33.6865 33.7815C33.6865 34.0577 33.9069 34.2817 34.1788 34.2817Z" fill="#DCDCDC"/>
<path d="M25.0262 33.0255C25.2089 33.0255 25.357 32.875 25.357 32.6894C25.357 32.5038 25.2089 32.3533 25.0262 32.3533C24.8434 32.3533 24.6953 32.5038 24.6953 32.6894C24.6953 32.875 24.8434 33.0255 25.0262 33.0255Z" fill="#1E1E22"/>
<path d="M26.1205 33.49C26.3731 33.49 26.5778 33.282 26.5778 33.0254C26.5778 32.7688 26.3731 32.5608 26.1205 32.5608C25.8679 32.5608 25.6631 32.7688 25.6631 33.0254C25.6631 33.282 25.8679 33.49 26.1205 33.49Z" fill="#1E1E22"/>
<path d="M25.1738 34.3752C25.438 34.3752 25.6523 34.1575 25.6523 33.8888C25.6523 33.6202 25.438 33.4025 25.1738 33.4025C24.9095 33.4025 24.6953 33.6202 24.6953 33.8888C24.6953 34.1575 24.9095 34.3752 25.1738 34.3752Z" fill="#1E1E22"/>
<path d="M32.942 33.2437C33.2346 33.2437 33.4719 33.0027 33.4719 32.7053C33.4719 32.4079 33.2346 32.1669 32.942 32.1669C32.6493 32.1669 32.4121 32.4079 32.4121 32.7053C32.4121 33.0027 32.6493 33.2437 32.942 33.2437Z" fill="#1E1E22"/>
<path d="M34.1224 32.3673C34.3302 32.3673 34.4987 32.1961 34.4987 31.985C34.4987 31.7739 34.3302 31.6028 34.1224 31.6028C33.9146 31.6028 33.7461 31.7739 33.7461 31.985C33.7461 32.1961 33.9146 32.3673 34.1224 32.3673Z" fill="#1E1E22"/>
<path d="M34.007 34.1077C34.2789 34.1077 34.4993 33.8838 34.4993 33.6075C34.4993 33.3313 34.2789 33.1073 34.007 33.1073C33.7351 33.1073 33.5146 33.3313 33.5146 33.6075C33.5146 33.8838 33.7351 34.1077 34.007 34.1077Z" fill="#1E1E22"/>
<path d="M28.5824 32.3613C28.7847 32.4206 29.0674 32.36 29.2842 32.3297C29.5472 32.2908 29.7093 32.0061 29.4246 31.8637C29.2038 31.7675 28.5263 31.842 28.4617 32.126C28.4334 32.2156 28.4874 32.3217 28.5646 32.3534L28.5824 32.3613Z" fill="white"/>
<path d="M22.124 34.6463C21.8399 34.6555 21.5282 34.4235 21.399 34.1447C21.1947 33.6663 21.3041 32.9776 21.426 32.478C21.4873 32.2618 21.5763 32.0714 21.716 31.929C21.9579 31.6799 22.3902 31.5659 22.6908 31.7708C22.9999 31.9916 23.0486 32.447 23.0585 32.8635C23.0546 33.2649 23.0394 33.6761 22.8766 34.0472C22.7145 34.3859 22.4594 34.6232 22.1319 34.6463H22.1233H22.124Z" fill="#1E1E22"/>
<path d="M22.2305 32.2064C22.2206 32.0621 22.1053 31.9204 21.9544 31.9553C21.6928 32.0258 21.5609 32.4938 21.6598 32.7363C21.7026 32.851 21.8285 32.9314 21.9471 32.8852C22.1851 32.7824 22.2503 32.4509 22.2319 32.2176L22.2305 32.2064Z" fill="white"/>
<path d="M37.0124 34.7965C36.2301 34.6713 36.0594 33.659 36.1451 32.9742C36.1793 32.7047 36.2512 32.4364 36.3797 32.213C36.6288 31.7332 37.2582 31.4742 37.6978 31.836C38.0965 32.1695 38.1558 32.7172 38.1374 33.2616C38.1163 33.941 37.8072 34.8439 37.0216 34.7985L37.0117 34.7971L37.0124 34.7965Z" fill="#1E1E22"/>
<path d="M37.0812 32.1339C36.722 31.8361 36.4301 32.6763 36.6107 32.9419C36.6944 33.0599 36.8539 33.0144 36.9441 32.9248C37.1326 32.7469 37.2354 32.362 37.0878 32.1412L37.0812 32.1339Z" fill="white"/>
<path d="M31.5037 33.1381C31.3613 32.835 30.9349 33.0999 31.0641 33.3991C31.298 33.9408 30.8295 34.5689 30.2442 34.3962C29.5786 34.2005 29.746 33.4419 29.5707 32.9213C29.5542 32.8587 29.5311 32.7994 29.4988 32.746C29.4066 32.5924 29.2016 32.6372 29.1443 32.7934C29.0448 33.063 29.1067 33.3839 29.0276 33.6686C28.9532 33.9362 28.818 34.3079 28.5656 34.4549C27.8881 34.8503 27.4499 33.9619 27.4479 33.407C27.4472 33.1783 27.1276 33.1882 27.1052 33.407C27.0195 34.2453 27.6759 35.164 28.5643 34.9525C28.9611 34.8582 29.2115 34.4958 29.3697 34.1385C29.371 34.1353 29.373 34.1306 29.3743 34.1274C29.5298 34.5729 29.8798 34.9182 30.4242 34.9366C31.3567 34.9689 31.8787 33.9402 31.503 33.1381H31.5037Z" fill="#1E1E22"/>
<path d="M30.2154 50.7301C32.4621 50.7301 34.6165 50.3722 36.6121 49.7165C35.7184 46.3237 34.0425 43.9024 30.5192 44.3835C28.6903 44.6352 27.4599 45.1361 26.2229 46.7224C25.5012 47.6682 24.9357 48.7615 24.4922 49.9234C26.296 50.4467 28.2191 50.7301 30.216 50.7301H30.2154Z" fill="#1E1E22"/>
<path d="M21.39 20.3604C21.2081 20.3182 21.0229 20.4375 20.8614 20.5119C20.7132 20.5805 20.5675 20.6536 20.4238 20.7314C20.1319 20.8896 19.8498 21.0655 19.5803 21.26C19.0398 21.6488 18.5429 22.1003 18.1086 22.609C17.8621 22.8984 17.6407 23.2127 17.4739 23.5554C17.4146 23.6767 17.5721 23.825 17.6697 23.709C18.0862 23.2173 18.4856 22.7132 18.9594 22.2749C19.4287 21.8406 19.9493 21.4676 20.5062 21.1585C20.6677 21.0688 20.8318 20.9851 20.9985 20.9074C21.1653 20.8296 21.388 20.7808 21.4948 20.622C21.5574 20.5291 21.4948 20.3847 21.39 20.3597V20.3604Z" fill="#1E1E22"/>
<path d="M45.1867 40.3335C45.1149 40.2907 44.9916 40.294 44.9369 40.3665C44.8394 40.4943 44.7768 40.6466 44.7023 40.7883C44.6305 40.9253 44.5554 41.0611 44.4789 41.1962C44.3253 41.4651 44.1626 41.7287 43.9912 41.9871C43.6551 42.4926 43.29 42.9803 42.8939 43.439C42.6665 43.7026 42.4161 43.9517 42.2026 44.2272C42.1591 44.2832 42.1459 44.3517 42.192 44.4124C42.2315 44.4638 42.3139 44.4888 42.3706 44.4486C42.6243 44.268 42.8524 44.0367 43.0659 43.8093C43.2808 43.5807 43.4884 43.3441 43.6867 43.1002C44.0887 42.6072 44.4512 42.082 44.7761 41.5336C44.8638 41.3854 44.9488 41.2357 45.0312 41.0842C45.1188 40.9227 45.2335 40.7494 45.2816 40.5708C45.3054 40.4811 45.2658 40.381 45.1867 40.3342V40.3335Z" fill="#1E1E22"/>
<path d="M46.4012 37.8846C46.3491 37.8134 46.2839 37.7837 46.1969 37.8002C46.0295 37.8325 45.9834 38.0612 45.9326 38.1844C45.8779 38.3162 45.8305 38.4309 45.7731 38.5607C45.6584 38.8184 45.5141 39.0629 45.4357 39.3351C45.3942 39.4788 45.578 39.5836 45.6802 39.4795C45.8805 39.2758 46.0071 39.0148 46.1349 38.7604C46.1982 38.6352 46.2582 38.5093 46.3129 38.3802C46.3709 38.2431 46.5047 38.0269 46.4005 37.8846H46.4012Z" fill="#1E1E22"/>
<path d="M23.2535 17.477C15.2487 20.1712 9.52751 29.0532 11.5422 37.723C13.4627 46.1595 21.9684 51.8458 30.2151 51.7166C39.6797 51.7726 49.4587 44.1619 49.4633 34.0857C49.4692 20.2055 34.4811 13.437 23.2535 17.477ZM36.9057 49.2603C32.6035 50.7076 27.8339 50.6898 23.5514 49.1806C17.1343 47.0242 11.8203 40.9741 11.8572 33.8979C11.8058 29.2529 14.0914 24.7964 17.5778 21.8491C22.839 17.3235 30.484 16.1233 36.9644 18.3621C43.5641 20.5508 48.911 26.624 48.8484 33.8979C48.8609 41.1382 43.4798 47.129 36.9057 49.2603Z" fill="#1E1E22"/>
<path d="M16.9402 63.0126C24.2424 63.0126 31.5447 63.0126 38.847 63.0126H45.0829C45.6965 63.0126 45.6978 62.059 45.0829 62.059C37.7806 62.059 30.4784 62.059 23.1761 62.059H16.9402C16.3266 62.059 16.3253 63.0126 16.9402 63.0126Z" fill="#DCDCDC"/>
<path d="M16.5388 62.3714C23.8411 62.3714 31.1433 62.3714 38.4456 62.3714H44.6815C45.2951 62.3714 45.2964 61.4177 44.6815 61.4177C37.3793 61.4177 30.077 61.4177 22.7747 61.4177H16.5388C15.9252 61.4177 15.9239 62.3714 16.5388 62.3714Z" fill="#1E1E22"/>
<path d="M10.5918 18.1011C10.1964 18.3825 9.8952 18.8517 9.63752 19.2584C9.35676 19.7006 9.12609 20.1731 8.94156 20.6628C8.76691 21.1274 8.63774 21.623 8.58501 22.1173C8.54811 22.4633 8.42684 23.1909 8.70891 23.448C8.72934 23.4664 8.75966 23.4671 8.78009 23.448C8.90531 23.33 8.90136 23.2153 8.92574 23.0473C8.96199 22.8001 9.00549 22.555 9.06019 22.3111C9.16498 21.8445 9.28295 21.3864 9.44639 20.9357C9.61511 20.4697 9.83589 20.0229 10.0989 19.6024C10.3519 19.1977 10.7052 18.8629 10.9517 18.4603C11.0828 18.2461 10.8113 17.9442 10.5918 18.1004V18.1011Z" fill="#DCDCDC"/>
<path d="M12.7795 16.2506C12.3716 16.4121 11.7231 16.7172 11.6697 17.2128C11.6585 17.313 11.7725 17.4296 11.8734 17.4165C12.0823 17.3888 12.2292 17.2622 12.4072 17.1594C12.5864 17.0559 12.7644 16.9749 12.9634 16.9182C13.3984 16.7936 13.1875 16.0891 12.7795 16.2506Z" fill="#DCDCDC"/>
<path d="M10.3516 17.7551C9.95615 18.0366 9.65497 18.5058 9.39728 18.9124C9.11653 19.3547 8.88586 19.8272 8.70132 20.3169C8.52668 20.7815 8.3975 21.2771 8.34478 21.7714C8.30787 22.1174 8.18661 22.845 8.46868 23.102C8.48911 23.1205 8.51943 23.1211 8.53986 23.102C8.66508 22.984 8.66112 22.8694 8.68551 22.7013C8.72175 22.4542 8.76525 22.209 8.81995 21.9652C8.92474 21.4985 9.04271 21.0405 9.20616 20.5897C9.37487 20.1238 9.59565 19.6769 9.85862 19.2565C10.1117 18.8518 10.4649 18.517 10.7114 18.1143C10.8426 17.9001 10.571 17.5983 10.3516 17.7545V17.7551Z" fill="#1E1E22"/>
<path d="M12.5383 15.9045C12.1304 16.066 11.4819 16.3711 11.4285 16.8667C11.4173 16.9669 11.5313 17.0836 11.6321 17.0704C11.8411 17.0427 11.988 16.9162 12.166 16.8133C12.3452 16.7099 12.5232 16.6288 12.7222 16.5721C13.1572 16.4476 12.9463 15.7431 12.5383 15.9045Z" fill="#1E1E22"/>
<path d="M16.2094 55.6722C16.2094 55.6722 16.7557 53.5777 17.6665 53.6687C18.5773 53.7596 18.4864 55.6722 18.4864 55.6722C18.4864 55.6722 19.9435 55.3077 20.1254 55.9911C20.3073 56.6739 19.1237 57.1755 19.1237 57.1755C19.1237 57.1755 20.08 58.7236 19.3511 59.2699C18.6221 59.8163 17.165 57.9946 17.165 57.9946C17.165 57.9946 15.6624 60.2941 15.0244 59.3721C14.3871 58.45 15.7533 57.2203 15.7533 57.2203C15.7533 57.2203 14.0681 57.0838 14.2052 56.264C14.3416 55.4441 16.2087 55.6722 16.2087 55.6722H16.2094Z" fill="#DCDCDC"/>
<path d="M15.9164 55.4218C15.9164 55.4218 16.4627 53.3273 17.3736 53.4183C18.2844 53.5092 18.1934 55.4218 18.1934 55.4218C18.1934 55.4218 19.6506 55.0573 19.8325 55.7408C20.0144 56.4235 18.8307 56.9251 18.8307 56.9251C18.8307 56.9251 19.787 58.4732 19.0581 59.0195C18.3292 59.5659 16.872 57.7443 16.872 57.7443C16.872 57.7443 15.3694 60.0437 14.7314 59.1217C14.0941 58.1997 15.4603 56.9699 15.4603 56.9699C15.4603 56.9699 13.7751 56.8335 13.9122 56.0136C14.0487 55.1938 15.9157 55.4218 15.9157 55.4218H15.9164Z" fill="#1E1E22"/>
<path d="M22.9379 55.6722C22.9379 55.6722 23.4842 53.5777 24.395 53.6687C25.3058 53.7596 25.2149 55.6722 25.2149 55.6722C25.2149 55.6722 26.6721 55.3077 26.854 55.9911C27.0359 56.6746 25.8522 57.1755 25.8522 57.1755C25.8522 57.1755 26.8085 58.7236 26.0796 59.2699C25.3507 59.8163 23.8935 57.9946 23.8935 57.9946C23.8935 57.9946 22.3909 60.2941 21.7529 59.3721C21.1156 58.45 22.4818 57.2203 22.4818 57.2203C22.4818 57.2203 20.7966 57.0838 20.9337 56.264C21.0701 55.4441 22.9372 55.6722 22.9372 55.6722H22.9379Z" fill="#DCDCDC"/>
<path d="M22.6459 55.4218C22.6459 55.4218 23.1922 53.3273 24.103 53.4183C25.0139 53.5092 24.9229 55.4218 24.9229 55.4218C24.9229 55.4218 26.3801 55.0573 26.562 55.7408C26.7439 56.4242 25.5602 56.9251 25.5602 56.9251C25.5602 56.9251 26.5165 58.4732 25.7876 59.0195C25.0587 59.5659 23.6015 57.7443 23.6015 57.7443C23.6015 57.7443 22.0989 60.0437 21.4609 59.1217C20.8236 58.1997 22.1898 56.9699 22.1898 56.9699C22.1898 56.9699 20.5046 56.8335 20.6417 56.0136C20.7781 55.1938 22.6452 55.4218 22.6452 55.4218H22.6459Z" fill="#1E1E22"/>
<path d="M29.6684 55.547C29.6684 55.547 30.2147 53.4526 31.1255 53.5435C32.0363 53.6345 31.9454 55.547 31.9454 55.547C31.9454 55.547 33.4025 55.1826 33.5844 55.866C33.7663 56.5488 32.5827 57.0503 32.5827 57.0503C32.5827 57.0503 33.5389 58.5984 32.81 59.1448C32.0811 59.6911 30.624 57.8695 30.624 57.8695C30.624 57.8695 29.1213 60.169 28.4834 59.2469C27.8461 58.3249 29.2123 57.0952 29.2123 57.0952C29.2123 57.0952 27.5271 56.9587 27.6642 56.1389C27.8006 55.319 29.6677 55.547 29.6677 55.547H29.6684Z" fill="#DCDCDC"/>
<path d="M29.3744 55.2959C29.3744 55.2959 29.9208 53.2015 30.8316 53.2924C31.7424 53.3834 31.6514 55.2959 31.6514 55.2959C31.6514 55.2959 33.1086 54.9315 33.2905 55.6149C33.4724 56.2984 32.2887 56.7992 32.2887 56.7992C32.2887 56.7992 33.245 58.3473 32.5161 58.8937C31.7872 59.44 30.33 57.6184 30.33 57.6184C30.33 57.6184 28.8274 59.9179 28.1894 58.9958C27.5521 58.0738 28.9183 56.8441 28.9183 56.8441C28.9183 56.8441 27.2332 56.7076 27.3702 55.8878C27.5067 55.0679 29.3737 55.2959 29.3737 55.2959H29.3744Z" fill="#1E1E22"/>
<path d="M36.3969 55.2959C36.3969 55.2959 36.9432 53.2015 37.854 53.2924C38.7648 53.3834 38.6739 55.2959 38.6739 55.2959C38.6739 55.2959 40.131 54.9315 40.3129 55.6149C40.4948 56.2977 39.3112 56.7992 39.3112 56.7992C39.3112 56.7992 40.2675 58.3473 39.5386 58.8937C38.8096 59.44 37.3525 57.6184 37.3525 57.6184C37.3525 57.6184 35.8499 59.9179 35.2119 58.9958C34.5746 58.0738 35.9408 56.8441 35.9408 56.8441C35.9408 56.8441 34.2556 56.7076 34.3927 55.8878C34.5291 55.0679 36.3962 55.2959 36.3962 55.2959H36.3969Z" fill="#DCDCDC"/>
<path d="M36.1039 55.0454C36.1039 55.0454 36.6503 52.951 37.5611 53.0419C38.4719 53.1329 38.3809 55.0454 38.3809 55.0454C38.3809 55.0454 39.8381 54.681 40.02 55.3644C40.2019 56.0472 39.0182 56.5487 39.0182 56.5487C39.0182 56.5487 39.9745 58.0969 39.2456 58.6432C38.5167 59.1896 37.0595 57.3679 37.0595 57.3679C37.0595 57.3679 35.5569 59.6674 34.9189 58.7453C34.2816 57.8233 35.6478 56.5936 35.6478 56.5936C35.6478 56.5936 33.9626 56.4571 34.0997 55.6373C34.2368 54.8174 36.1032 55.0454 36.1032 55.0454H36.1039Z" fill="#1E1E22"/>
<path d="M43.1264 55.1707C43.1264 55.1707 43.6727 53.0762 44.5835 53.1672C45.4943 53.2581 45.4034 55.1707 45.4034 55.1707C45.4034 55.1707 46.8605 54.8062 47.0424 55.4897C47.2243 56.1725 46.0407 56.674 46.0407 56.674C46.0407 56.674 46.997 58.2221 46.2681 58.7684C45.5391 59.3148 44.082 57.4932 44.082 57.4932C44.082 57.4932 42.5793 59.7926 41.9414 58.8706C41.3041 57.9486 42.6703 56.7188 42.6703 56.7188C42.6703 56.7188 40.9851 56.5824 41.1222 55.7625C41.2586 54.9427 43.1257 55.1707 43.1257 55.1707H43.1264Z" fill="#DCDCDC"/>
<path d="M42.8334 54.9196C42.8334 54.9196 43.3797 52.8251 44.2906 52.9161C45.2014 53.007 45.1104 54.9196 45.1104 54.9196C45.1104 54.9196 46.5676 54.5551 46.7495 55.2386C46.9314 55.9214 45.7477 56.4229 45.7477 56.4229C45.7477 56.4229 46.704 57.971 45.9751 58.5173C45.2462 59.0637 43.789 57.2421 43.789 57.2421C43.789 57.2421 42.2864 59.5415 41.6484 58.6195C41.0111 57.6975 42.3773 56.4677 42.3773 56.4677C42.3773 56.4677 40.6921 56.3313 40.8292 55.5114C40.9656 54.6916 42.8327 54.9196 42.8327 54.9196H42.8334Z" fill="#1E1E22"/>
</g>
</g>
<defs>
<radialGradient id="paint0_radial_457_81359" cx="0" cy="0" r="1" gradientUnits="userSpaceOnUse" gradientTransform="translate(-33.6693 -0.785118) rotate(90) scale(89.0251)">
<stop offset="0.265" stop-color="#D27C71"/>
<stop offset="1" stop-color="#D27C71" stop-opacity="0"/>
</radialGradient>
<radialGradient id="paint1_radial_457_81359" cx="0" cy="0" r="1" gradientUnits="userSpaceOnUse" gradientTransform="translate(106.061 126.812) rotate(90) scale(126.144)">
<stop stop-color="#B68EFF"/>
<stop offset="1" stop-color="#B68EFF" stop-opacity="0"/>
</radialGradient>
<clipPath id="clip0_457_81359">
<rect y="0.5" width="64" height="64" rx="32" fill="white"/>
</clipPath>
<clipPath id="clip1_457_81359">
<rect width="64" height="64" fill="white" transform="translate(0 0.5)"/>
</clipPath>
</defs>
</svg>
