<svg width="20" height="20" viewBox="0 0 20 20" fill="none" xmlns="http://www.w3.org/2000/svg">
<g opacity="0.3">
<rect width="20" height="20" rx="10" fill="#0A0A13"/>
<path d="M14.5947 13.8041L10.7889 10.0004L14.5947 6.22467C14.7854 6.00377 14.7751 5.67227 14.571 5.46384C14.3669 5.25541 14.0378 5.24031 13.8157 5.42919L9.99879 9.17691L6.2486 5.40118C6.03158 5.18398 5.68109 5.18398 5.46407 5.40118C5.35874 5.50637 5.29949 5.64955 5.29949 5.79892C5.29949 5.94829 5.35874 6.09148 5.46407 6.19666L9.20869 9.96679L5.40287 13.7369C5.29753 13.8421 5.23828 13.9853 5.23828 14.1347C5.23828 14.284 5.29753 14.4272 5.40287 14.5324C5.50787 14.6373 5.65002 14.6957 5.79791 14.6949C5.9431 14.6957 6.08287 14.6394 6.1874 14.538L9.99879 10.7567L13.8157 14.5996C13.9207 14.7045 14.0629 14.7629 14.2108 14.7621C14.3568 14.7615 14.4966 14.7031 14.6003 14.5996C14.7049 14.4937 14.7631 14.3501 14.7621 14.2007C14.761 14.0513 14.7008 13.9086 14.5947 13.8041Z" fill="#FBFBFB"/>
</g>
</svg>
