<svg width="20" height="20" viewBox="0 0 20 20" fill="none" xmlns="http://www.w3.org/2000/svg">
<path d="M18.3125 9.21743L10.7794 9.2195L10.8092 1.71414C10.7793 1.30665 10.4409 0.988701 10.0325 0.984419C9.62412 0.980136 9.28341 1.29096 9.25053 1.6978L9.182 9.18644L1.73173 9.16115C1.30187 9.16096 0.954898 9.50794 0.955078 9.93779C0.954931 10.1462 1.03802 10.3466 1.18589 10.4945C1.33376 10.6423 1.53416 10.7254 1.74256 10.7253L9.18178 10.7505L9.14645 18.2503C9.1463 18.4587 9.22939 18.6591 9.37726 18.807C9.52513 18.9549 9.72553 19.038 9.93393 19.0378C10.1417 19.0377 10.3403 18.9548 10.4858 18.8076C10.6304 18.6647 10.7131 18.4706 10.7161 18.2667L10.7459 10.7503L18.3288 10.7761C18.5366 10.7759 18.7351 10.6931 18.8807 10.5458C19.0246 10.4007 19.1053 10.2045 19.1054 9.99941C19.1041 9.79099 19.0196 9.59117 18.8707 9.44433C18.7218 9.2975 18.5208 9.21581 18.3125 9.21743Z" fill="black"/>
</svg>
